<svg xmlns="http://www.w3.org/2000/svg" width="21" height="21" viewBox="0 0 21 21">
  <path d="M3.93,18.07 C1.33043416,15.5592553 0.287874028,11.8412211 1.20302843,8.34492676 C2.11818284,4.84863244 4.84863244,2.11818284 8.34492676,1.20302843 C11.8412211,0.287874028 15.5592553,1.33043416 18.07,3.93 C21.8597221,7.85378887 21.8055237,14.0908478 17.9481858,17.9481858 C14.0908478,21.8055237 7.85378887,21.8597221 3.93,18.07 Z M16.66,16.66 C19.7859317,13.5340683 19.7859317,8.46593168 16.66,5.34 C13.5340683,2.21406832 8.46593168,2.21406832 5.34,5.34 C2.21406832,8.46593168 2.21406832,13.5340683 5.34,16.66 C8.46593168,19.7859317 13.5340683,19.7859317 16.66,16.66 Z M12,10 L12,6 L10,6 L10,10 L6,10 L6,12 L10,12 L10,16 L12,16 L12,12 L16,12 L16,10 L12,10 Z"/>
</svg>
