<svg xmlns="http://www.w3.org/2000/svg" width="201" height="66" viewBox="0 0 201 66">
  <g fill="none" fill-rule="evenodd" transform="translate(2 2)">
    <text fill="#FFF" font-family="Effra-Bold, Effra" font-size="40.46" font-weight="bold" letter-spacing="-.11">
      <tspan x="47" y="52">bewerbl</tspan> <tspan x="190.834" y="52">i</tspan>
    </text>
    <g stroke="#FFF">
      <path stroke-width="3" d="M41.9741622,11 C42.1432909,14.3773043 41.4821086,16.4928233 39.9906153,17.3465569 C37.7533754,18.6271573 36.096547,18.5762801 33.4026598,18.958911 C30.7087726,19.3415419 27.1945325,22.4358852 27.0593877,23.7067841 C26.9692911,24.5540501 26.9692911,34.1166603 27.0593877,52.3946149 L20,62"/>
      <path stroke-width="3" d="M21,60.436854 L20.3968066,61 L12.8568226,50.8566103 C13.2136698,40.7610234 13.425764,34.8031711 13.4931051,32.9830533 C13.5604461,31.1629354 11.6518567,29.6266132 7.76733675,28.3740867 C5.01922622,28.0443242 3.43011397,27.2529619 3,26"/>
      <path stroke-width="3" d="M20,51 L20,19.5776995 C19.9250384,17.6278772 18.824888,15.963294 16.6995488,14.58395 C14.5742095,13.2046059 12.9033151,12.4573026 11.6868654,12.3420401 C9.38774553,12.370038 8.32760339,12.370038 8.506439,12.3420401 C8.77469243,12.3000433 4.53522797,11.4722239 3.73950878,9.3501684 C2.94378959,7.22811294 1.69471185,6.93717758 2.0679833,5.17874889 C2.31683093,4.00646309 2.31683093,3.28021346 2.0679833,3"/>
      <circle cx="2" cy="2" r="2" stroke-width="3"/>
      <circle cx="42" cy="9" r="2" stroke-width="2.7"/>
      <circle cx="3" cy="23" r="2" stroke-width="3"/>
      <path stroke-linecap="square" stroke-width="3" d="M14 51.3806399L27.3118305 51.3806399M22.5 56L18.5 56"/>
    </g>
  </g>
</svg>
