<svg width="644" height="467" viewBox="0 0 644 467" fill="none" xmlns="http://www.w3.org/2000/svg">
<g clip-path="url(#clip0)">
<rect width="644" height="467" fill="white"/>
<circle cx="322" cy="233.5" r="189" stroke="#E8F2FF"/>
<circle cx="322.334" cy="233.834" r="125.277" stroke="#E8F2FF"/>
<circle cx="322.667" cy="234.167" r="62.8891" stroke="#E8F2FF"/>
<line x1="188" y1="366.79" x2="455.286" y2="99.5034" stroke="#E1E2E9" stroke-linecap="round" stroke-linejoin="round"/>
<line x1="133" y1="233" x2="511" y2="233" stroke="#E1E2E9" stroke-linecap="round" stroke-linejoin="round"/>
<line x1="188.707" y1="99.5033" x2="455.993" y2="366.79" stroke="#E1E2E9" stroke-linecap="round" stroke-linejoin="round"/>
<line x1="322" y1="44.5" x2="322" y2="422.5" stroke="#E1E2E9" stroke-linecap="round" stroke-linejoin="round"/>
<g filter="url(#filter0_d)">
<rect x="81.5" y="84" width="124" height="32" rx="4" fill="white"/>
</g>
<path d="M101.288 104H102.324V95.096H105.768V94.2H97.8441V95.096H101.288V104ZM107.526 95.026C107.946 95.026 108.254 94.704 108.254 94.298C108.254 93.92 107.932 93.612 107.526 93.612C107.12 93.612 106.798 93.934 106.798 94.312C106.798 94.704 107.12 95.026 107.526 95.026ZM107.022 104H108.016V96.636H107.022V104ZM119.966 96.58C118.636 96.58 117.586 97.182 117.054 98.134C116.606 97.098 115.654 96.58 114.436 96.58C113.204 96.58 112.252 97.098 111.734 97.98V96.636H110.782V104H111.776V100.136C111.776 98.456 112.742 97.476 114.24 97.476C115.584 97.476 116.368 98.274 116.368 99.828V104H117.362V100.136C117.362 98.456 118.314 97.476 119.826 97.476C121.156 97.476 121.94 98.274 121.94 99.828V104H122.934V99.73C122.934 97.616 121.758 96.58 119.966 96.58ZM132.083 100.318C132.083 98.106 130.585 96.58 128.513 96.58C126.441 96.58 124.915 98.134 124.915 100.318C124.915 102.502 126.483 104.07 128.779 104.07C129.941 104.07 130.963 103.65 131.621 102.866L131.061 102.222C130.501 102.866 129.703 103.188 128.807 103.188C127.197 103.188 126.021 102.166 125.909 100.626H132.069C132.069 100.514 132.083 100.402 132.083 100.318ZM128.513 97.434C129.955 97.434 131.005 98.442 131.131 99.884H125.909C126.035 98.442 127.085 97.434 128.513 97.434ZM141.522 96.58C140.276 96.58 139.31 97.07 138.764 97.924V93.612H137.77V104H138.764V100.136C138.764 98.456 139.758 97.476 141.34 97.476C142.74 97.476 143.552 98.274 143.552 99.828V104H144.546V99.73C144.546 97.616 143.314 96.58 141.522 96.58ZM150.282 104.07C152.438 104.07 154.02 102.502 154.02 100.318C154.02 98.134 152.438 96.58 150.282 96.58C148.126 96.58 146.53 98.134 146.53 100.318C146.53 102.502 148.126 104.07 150.282 104.07ZM150.282 103.188C148.714 103.188 147.538 102.04 147.538 100.318C147.538 98.596 148.714 97.448 150.282 97.448C151.85 97.448 153.012 98.596 153.012 100.318C153.012 102.04 151.85 103.188 150.282 103.188ZM157.001 98.078V96.636H156.049V104H157.043V100.248C157.043 98.512 157.981 97.532 159.521 97.532C159.591 97.532 159.675 97.546 159.759 97.546V96.58C158.401 96.58 157.463 97.098 157.001 98.078ZM162.063 95.026C162.483 95.026 162.791 94.704 162.791 94.298C162.791 93.92 162.469 93.612 162.063 93.612C161.657 93.612 161.335 93.934 161.335 94.312C161.335 94.704 161.657 95.026 162.063 95.026ZM161.559 104H162.553V96.636H161.559V104ZM165.795 103.174L170.429 97.294V96.636H164.605V97.476H169.155L164.521 103.342V104H170.513V103.174H165.795ZM175.356 104.07C177.512 104.07 179.094 102.502 179.094 100.318C179.094 98.134 177.512 96.58 175.356 96.58C173.2 96.58 171.604 98.134 171.604 100.318C171.604 102.502 173.2 104.07 175.356 104.07ZM175.356 103.188C173.788 103.188 172.612 102.04 172.612 100.318C172.612 98.596 173.788 97.448 175.356 97.448C176.924 97.448 178.086 98.596 178.086 100.318C178.086 102.04 176.924 103.188 175.356 103.188ZM184.875 96.58C183.601 96.58 182.607 97.098 182.075 97.994V96.636H181.123V104H182.117V100.136C182.117 98.456 183.111 97.476 184.693 97.476C186.093 97.476 186.905 98.274 186.905 99.828V104H187.899V99.73C187.899 97.616 186.667 96.58 184.875 96.58Z" fill="#606376"/>
<g filter="url(#filter1_d)">
<rect x="32.5" y="217" width="116" height="32" rx="4" fill="white"/>
</g>
<path d="M54.1947 227.2H50.5267V237H51.5627V233.906H54.1947C56.6867 233.906 58.1987 232.646 58.1987 230.56C58.1987 228.46 56.6867 227.2 54.1947 227.2ZM54.1667 232.996H51.5627V228.096H54.1667C56.1267 228.096 57.1627 228.992 57.1627 230.56C57.1627 232.1 56.1267 232.996 54.1667 232.996ZM60.9894 231.078V229.636H60.0374V237H61.0314V233.248C61.0314 231.512 61.9694 230.532 63.5094 230.532C63.5794 230.532 63.6634 230.546 63.7474 230.546V229.58C62.3894 229.58 61.4514 230.098 60.9894 231.078ZM71.9048 233.318C71.9048 231.106 70.4068 229.58 68.3348 229.58C66.2628 229.58 64.7368 231.134 64.7368 233.318C64.7368 235.502 66.3048 237.07 68.6008 237.07C69.7628 237.07 70.7848 236.65 71.4428 235.866L70.8828 235.222C70.3228 235.866 69.5248 236.188 68.6288 236.188C67.0188 236.188 65.8428 235.166 65.7308 233.626H71.8908C71.8908 233.514 71.9048 233.402 71.9048 233.318ZM68.3348 230.434C69.7768 230.434 70.8268 231.442 70.9528 232.884H65.7308C65.8568 231.442 66.9068 230.434 68.3348 230.434ZM76.364 227.382C76.784 227.382 77.176 227.508 77.456 227.746L77.792 227.004C77.428 226.696 76.868 226.542 76.322 226.542C74.88 226.542 74.096 227.41 74.096 228.726V229.636H72.78V230.476H74.096V237H75.09V230.476H77.33V229.636H75.062V228.768C75.062 227.858 75.51 227.382 76.364 227.382ZM84.9751 233.318C84.9751 231.106 83.4771 229.58 81.4051 229.58C79.3331 229.58 77.8071 231.134 77.8071 233.318C77.8071 235.502 79.3751 237.07 81.6711 237.07C82.8331 237.07 83.8551 236.65 84.5131 235.866L83.9531 235.222C83.3931 235.866 82.5951 236.188 81.6991 236.188C80.0891 236.188 78.9131 235.166 78.8011 233.626H84.9611C84.9611 233.514 84.9751 233.402 84.9751 233.318ZM81.4051 230.434C82.8471 230.434 83.8971 231.442 84.0231 232.884H78.8011C78.9271 231.442 79.9771 230.434 81.4051 230.434ZM87.9503 231.078V229.636H86.9983V237H87.9923V233.248C87.9923 231.512 88.9303 230.532 90.4703 230.532C90.5403 230.532 90.6243 230.546 90.7083 230.546V229.58C89.3503 229.58 88.4123 230.098 87.9503 231.078ZM98.8657 233.318C98.8657 231.106 97.3677 229.58 95.2957 229.58C93.2237 229.58 91.6977 231.134 91.6977 233.318C91.6977 235.502 93.2657 237.07 95.5617 237.07C96.7237 237.07 97.7457 236.65 98.4037 235.866L97.8437 235.222C97.2837 235.866 96.4857 236.188 95.5897 236.188C93.9797 236.188 92.8037 235.166 92.6917 233.626H98.8517C98.8517 233.514 98.8657 233.402 98.8657 233.318ZM95.2957 230.434C96.7377 230.434 97.7877 231.442 97.9137 232.884H92.6917C92.8177 231.442 93.8677 230.434 95.2957 230.434ZM104.641 229.58C103.367 229.58 102.373 230.098 101.841 230.994V229.636H100.889V237H101.883V233.136C101.883 231.456 102.877 230.476 104.459 230.476C105.859 230.476 106.671 231.274 106.671 232.828V237H107.665V232.73C107.665 230.616 106.433 229.58 104.641 229.58ZM113.443 237.07C114.689 237.07 115.739 236.566 116.327 235.614L115.585 235.11C115.081 235.852 114.297 236.188 113.443 236.188C111.833 236.188 110.657 235.054 110.657 233.318C110.657 231.596 111.833 230.448 113.443 230.448C114.297 230.448 115.081 230.798 115.585 231.54L116.327 231.036C115.739 230.07 114.689 229.58 113.443 229.58C111.245 229.58 109.649 231.12 109.649 233.318C109.649 235.516 111.245 237.07 113.443 237.07ZM124.583 233.318C124.583 231.106 123.085 229.58 121.013 229.58C118.941 229.58 117.415 231.134 117.415 233.318C117.415 235.502 118.983 237.07 121.279 237.07C122.441 237.07 123.463 236.65 124.121 235.866L123.561 235.222C123.001 235.866 122.203 236.188 121.307 236.188C119.697 236.188 118.521 235.166 118.409 233.626H124.569C124.569 233.514 124.583 233.402 124.583 233.318ZM121.013 230.434C122.455 230.434 123.505 231.442 123.631 232.884H118.409C118.535 231.442 119.585 230.434 121.013 230.434ZM128.58 237.07C130.498 237.07 131.618 236.244 131.618 234.97C131.618 232.142 126.844 233.64 126.844 231.652C126.844 230.952 127.432 230.434 128.762 230.434C129.518 230.434 130.288 230.616 130.932 231.064L131.366 230.266C130.75 229.846 129.714 229.58 128.762 229.58C126.886 229.58 125.85 230.476 125.85 231.68C125.85 234.592 130.624 233.08 130.624 234.998C130.624 235.726 130.05 236.202 128.65 236.202C127.614 236.202 126.62 235.838 126.032 235.376L125.584 236.16C126.186 236.678 127.362 237.07 128.58 237.07Z" fill="#606376"/>
<g filter="url(#filter2_d)">
<rect x="85.5" y="350" width="120" height="32" rx="4" fill="white"/>
</g>
<path d="M112.561 360.2L108.347 367.466L104.091 360.2H103.237V370H104.231V362.202L108.081 368.754H108.571L112.421 362.16V370H113.415V360.2H112.561ZM118.974 362.58C117.812 362.58 116.72 362.944 115.978 363.574L116.426 364.316C117.028 363.784 117.924 363.448 118.876 363.448C120.248 363.448 120.962 364.134 120.962 365.394V365.842H118.624C116.51 365.842 115.782 366.794 115.782 367.928C115.782 369.202 116.804 370.07 118.47 370.07C119.688 370.07 120.556 369.608 121.004 368.852V370H121.956V365.436C121.956 363.532 120.878 362.58 118.974 362.58ZM118.624 369.286C117.448 369.286 116.762 368.754 116.762 367.9C116.762 367.144 117.224 366.584 118.652 366.584H120.962V367.788C120.57 368.754 119.744 369.286 118.624 369.286ZM125.608 364.078V362.636H124.656V370H125.65V366.248C125.65 364.512 126.588 363.532 128.128 363.532C128.198 363.532 128.282 363.546 128.366 363.546V362.58C127.008 362.58 126.07 363.098 125.608 364.078ZM135.863 370H137.081L133.637 365.646L136.787 362.636H135.555L131.159 366.654V359.612H130.165V370H131.159V367.9L132.895 366.304L135.863 370ZM144.699 366.318C144.699 364.106 143.201 362.58 141.129 362.58C139.057 362.58 137.531 364.134 137.531 366.318C137.531 368.502 139.099 370.07 141.395 370.07C142.557 370.07 143.579 369.65 144.237 368.866L143.677 368.222C143.117 368.866 142.319 369.188 141.423 369.188C139.813 369.188 138.637 368.166 138.525 366.626H144.685C144.685 366.514 144.699 366.402 144.699 366.318ZM141.129 363.434C142.571 363.434 143.621 364.442 143.747 365.884H138.525C138.651 364.442 139.701 363.434 141.129 363.434ZM150.25 368.838C149.97 369.09 149.564 369.216 149.158 369.216C148.332 369.216 147.884 368.74 147.884 367.872V363.476H150.124V362.636H147.884V361.026H146.89V362.636H145.574V363.476H146.89V367.928C146.89 369.286 147.66 370.07 149.046 370.07C149.62 370.07 150.208 369.902 150.6 369.552L150.25 368.838ZM158.048 370.07C159.966 370.07 161.086 369.244 161.086 367.97C161.086 365.142 156.312 366.64 156.312 364.652C156.312 363.952 156.9 363.434 158.23 363.434C158.986 363.434 159.756 363.616 160.4 364.064L160.834 363.266C160.218 362.846 159.182 362.58 158.23 362.58C156.354 362.58 155.318 363.476 155.318 364.68C155.318 367.592 160.092 366.08 160.092 367.998C160.092 368.726 159.518 369.202 158.118 369.202C157.082 369.202 156.088 368.838 155.5 368.376L155.052 369.16C155.654 369.678 156.83 370.07 158.048 370.07ZM166.451 368.838C166.171 369.09 165.765 369.216 165.359 369.216C164.533 369.216 164.085 368.74 164.085 367.872V363.476H166.325V362.636H164.085V361.026H163.091V362.636H161.775V363.476H163.091V367.928C163.091 369.286 163.861 370.07 165.247 370.07C165.821 370.07 166.409 369.902 166.801 369.552L166.451 368.838ZM171.187 362.58C170.025 362.58 168.933 362.944 168.191 363.574L168.639 364.316C169.241 363.784 170.137 363.448 171.089 363.448C172.461 363.448 173.175 364.134 173.175 365.394V365.842H170.837C168.723 365.842 167.995 366.794 167.995 367.928C167.995 369.202 169.017 370.07 170.683 370.07C171.901 370.07 172.769 369.608 173.217 368.852V370H174.169V365.436C174.169 363.532 173.091 362.58 171.187 362.58ZM170.837 369.286C169.661 369.286 168.975 368.754 168.975 367.9C168.975 367.144 169.437 366.584 170.865 366.584H173.175V367.788C172.783 368.754 171.957 369.286 170.837 369.286ZM180.396 368.838C180.116 369.09 179.71 369.216 179.304 369.216C178.478 369.216 178.03 368.74 178.03 367.872V363.476H180.27V362.636H178.03V361.026H177.036V362.636H175.72V363.476H177.036V367.928C177.036 369.286 177.806 370.07 179.192 370.07C179.766 370.07 180.354 369.902 180.746 369.552L180.396 368.838ZM188.722 366.318C188.722 364.106 187.224 362.58 185.152 362.58C183.08 362.58 181.554 364.134 181.554 366.318C181.554 368.502 183.122 370.07 185.418 370.07C186.58 370.07 187.602 369.65 188.26 368.866L187.7 368.222C187.14 368.866 186.342 369.188 185.446 369.188C183.836 369.188 182.66 368.166 182.548 366.626H188.708C188.708 366.514 188.722 366.402 188.722 366.318ZM185.152 363.434C186.594 363.434 187.644 364.442 187.77 365.884H182.548C182.674 364.442 183.724 363.434 185.152 363.434Z" fill="#606376"/>
<g filter="url(#filter3_d)">
<rect x="259.5" y="407" width="124" height="32" rx="4" fill="white"/>
</g>
<path d="M278.611 426.104V422.464H283.679V421.582H278.611V418.096H284.295V417.2H277.575V427H284.505V426.104H278.611ZM292.35 427L289.41 423.22L292.182 419.636H291.09L288.878 422.52L286.666 419.636H285.546L288.318 423.22L285.406 427H286.526L288.878 423.92L291.216 427H292.35ZM297.798 419.58C296.58 419.58 295.558 420.112 294.956 421.092V419.636H294.004V429.716H294.998V425.614C295.614 426.566 296.622 427.07 297.798 427.07C299.898 427.07 301.466 425.558 301.466 423.318C301.466 421.092 299.898 419.58 297.798 419.58ZM297.728 426.188C296.16 426.188 294.984 425.04 294.984 423.318C294.984 421.61 296.16 420.448 297.728 420.448C299.282 420.448 300.472 421.61 300.472 423.318C300.472 425.04 299.282 426.188 297.728 426.188ZM309.918 423.318C309.918 421.106 308.42 419.58 306.348 419.58C304.276 419.58 302.75 421.134 302.75 423.318C302.75 425.502 304.318 427.07 306.614 427.07C307.776 427.07 308.798 426.65 309.456 425.866L308.896 425.222C308.336 425.866 307.538 426.188 306.642 426.188C305.032 426.188 303.856 425.166 303.744 423.626H309.904C309.904 423.514 309.918 423.402 309.918 423.318ZM306.348 420.434C307.79 420.434 308.84 421.442 308.966 422.884H303.744C303.87 421.442 304.92 420.434 306.348 420.434ZM314.994 427.07C316.24 427.07 317.29 426.566 317.878 425.614L317.136 425.11C316.632 425.852 315.848 426.188 314.994 426.188C313.384 426.188 312.208 425.054 312.208 423.318C312.208 421.596 313.384 420.448 314.994 420.448C315.848 420.448 316.632 420.798 317.136 421.54L317.878 421.036C317.29 420.07 316.24 419.58 314.994 419.58C312.796 419.58 311.2 421.12 311.2 423.318C311.2 425.516 312.796 427.07 314.994 427.07ZM323.44 425.838C323.16 426.09 322.754 426.216 322.348 426.216C321.522 426.216 321.074 425.74 321.074 424.872V420.476H323.314V419.636H321.074V418.026H320.08V419.636H318.764V420.476H320.08V424.928C320.08 426.286 320.85 427.07 322.236 427.07C322.81 427.07 323.398 426.902 323.79 426.552L323.44 425.838ZM328.176 419.58C327.014 419.58 325.922 419.944 325.18 420.574L325.628 421.316C326.23 420.784 327.126 420.448 328.078 420.448C329.45 420.448 330.164 421.134 330.164 422.394V422.842H327.826C325.712 422.842 324.984 423.794 324.984 424.928C324.984 426.202 326.006 427.07 327.672 427.07C328.89 427.07 329.758 426.608 330.206 425.852V427H331.158V422.436C331.158 420.532 330.08 419.58 328.176 419.58ZM327.826 426.286C326.65 426.286 325.964 425.754 325.964 424.9C325.964 424.144 326.426 423.584 327.854 423.584H330.164V424.788C329.772 425.754 328.946 426.286 327.826 426.286ZM337.386 425.838C337.106 426.09 336.7 426.216 336.294 426.216C335.468 426.216 335.02 425.74 335.02 424.872V420.476H337.26V419.636H335.02V418.026H334.026V419.636H332.71V420.476H334.026V424.928C334.026 426.286 334.796 427.07 336.182 427.07C336.756 427.07 337.344 426.902 337.736 426.552L337.386 425.838ZM340.049 418.026C340.469 418.026 340.777 417.704 340.777 417.298C340.777 416.92 340.455 416.612 340.049 416.612C339.643 416.612 339.321 416.934 339.321 417.312C339.321 417.704 339.643 418.026 340.049 418.026ZM339.545 427H340.539V419.636H339.545V427ZM346.315 427.07C348.471 427.07 350.053 425.502 350.053 423.318C350.053 421.134 348.471 419.58 346.315 419.58C344.159 419.58 342.563 421.134 342.563 423.318C342.563 425.502 344.159 427.07 346.315 427.07ZM346.315 426.188C344.747 426.188 343.571 425.04 343.571 423.318C343.571 421.596 344.747 420.448 346.315 420.448C347.883 420.448 349.045 421.596 349.045 423.318C349.045 425.04 347.883 426.188 346.315 426.188ZM355.834 419.58C354.56 419.58 353.566 420.098 353.034 420.994V419.636H352.082V427H353.076V423.136C353.076 421.456 354.07 420.476 355.652 420.476C357.052 420.476 357.864 421.274 357.864 422.828V427H358.858V422.73C358.858 420.616 357.626 419.58 355.834 419.58ZM363.531 427.07C365.449 427.07 366.569 426.244 366.569 424.97C366.569 422.142 361.795 423.64 361.795 421.652C361.795 420.952 362.383 420.434 363.713 420.434C364.469 420.434 365.239 420.616 365.883 421.064L366.317 420.266C365.701 419.846 364.665 419.58 363.713 419.58C361.837 419.58 360.801 420.476 360.801 421.68C360.801 424.592 365.575 423.08 365.575 424.998C365.575 425.726 365.001 426.202 363.601 426.202C362.565 426.202 361.571 425.838 360.983 425.376L360.535 426.16C361.137 426.678 362.313 427.07 363.531 427.07Z" fill="#606376"/>
<g filter="url(#filter4_d)">
<rect x="438.5" y="350" width="111" height="32" rx="4" fill="white"/>
</g>
<path d="M457.236 369.104V365.464H462.304V364.582H457.236V361.096H462.92V360.2H456.2V370H463.13V369.104H457.236ZM469.108 362.58C467.834 362.58 466.84 363.098 466.308 363.994V362.636H465.356V370H466.35V366.136C466.35 364.456 467.344 363.476 468.926 363.476C470.326 363.476 471.138 364.274 471.138 365.828V370H472.132V365.73C472.132 363.616 470.9 362.58 469.108 362.58ZM478.358 368.838C478.078 369.09 477.672 369.216 477.266 369.216C476.44 369.216 475.992 368.74 475.992 367.872V363.476H478.232V362.636H475.992V361.026H474.998V362.636H473.682V363.476H474.998V367.928C474.998 369.286 475.768 370.07 477.154 370.07C477.728 370.07 478.316 369.902 478.708 369.552L478.358 368.838ZM481.47 364.078V362.636H480.518V370H481.512V366.248C481.512 364.512 482.45 363.532 483.99 363.532C484.06 363.532 484.144 363.546 484.228 363.546V362.58C482.87 362.58 481.932 363.098 481.47 364.078ZM491.55 362.636L488.778 368.894L486.006 362.636H484.97L488.26 369.986L487.938 370.7C487.518 371.624 487.07 371.932 486.412 371.932C485.88 371.932 485.432 371.736 485.068 371.372L484.606 372.114C485.054 372.562 485.712 372.786 486.398 372.786C487.448 372.786 488.232 372.324 488.848 370.882L492.53 362.636H491.55ZM501.388 362.58C500.17 362.58 499.148 363.112 498.546 364.092V362.636H497.594V372.716H498.588V368.614C499.204 369.566 500.212 370.07 501.388 370.07C503.488 370.07 505.056 368.558 505.056 366.318C505.056 364.092 503.488 362.58 501.388 362.58ZM501.318 369.188C499.75 369.188 498.574 368.04 498.574 366.318C498.574 364.61 499.75 363.448 501.318 363.448C502.872 363.448 504.062 364.61 504.062 366.318C504.062 368.04 502.872 369.188 501.318 369.188ZM510.092 370.07C512.248 370.07 513.83 368.502 513.83 366.318C513.83 364.134 512.248 362.58 510.092 362.58C507.936 362.58 506.34 364.134 506.34 366.318C506.34 368.502 507.936 370.07 510.092 370.07ZM510.092 369.188C508.524 369.188 507.348 368.04 507.348 366.318C507.348 364.596 508.524 363.448 510.092 363.448C511.66 363.448 512.822 364.596 512.822 366.318C512.822 368.04 511.66 369.188 510.092 369.188ZM516.364 361.026C516.784 361.026 517.092 360.704 517.092 360.298C517.092 359.92 516.77 359.612 516.364 359.612C515.958 359.612 515.636 359.934 515.636 360.312C515.636 360.704 515.958 361.026 516.364 361.026ZM515.86 370H516.854V362.636H515.86V370ZM523.371 362.58C522.097 362.58 521.103 363.098 520.571 363.994V362.636H519.619V370H520.613V366.136C520.613 364.456 521.607 363.476 523.189 363.476C524.589 363.476 525.401 364.274 525.401 365.828V370H526.395V365.73C526.395 363.616 525.163 362.58 523.371 362.58ZM532.622 368.838C532.342 369.09 531.936 369.216 531.53 369.216C530.704 369.216 530.256 368.74 530.256 367.872V363.476H532.496V362.636H530.256V361.026H529.262V362.636H527.946V363.476H529.262V367.928C529.262 369.286 530.032 370.07 531.418 370.07C531.992 370.07 532.58 369.902 532.972 369.552L532.622 368.838Z" fill="#606376"/>
<g filter="url(#filter5_d)">
<rect x="495.5" y="217" width="91" height="32" rx="4" fill="white"/>
</g>
<path d="M520.783 237H521.875L517.395 227.2H516.373L511.893 237H512.971L514.147 234.382H519.607L520.783 237ZM514.525 233.542L516.877 228.278L519.229 233.542H514.525ZM532.47 229.58C531.14 229.58 530.09 230.182 529.558 231.134C529.11 230.098 528.158 229.58 526.94 229.58C525.708 229.58 524.756 230.098 524.238 230.98V229.636H523.286V237H524.28V233.136C524.28 231.456 525.246 230.476 526.744 230.476C528.088 230.476 528.872 231.274 528.872 232.828V237H529.866V233.136C529.866 231.456 530.818 230.476 532.33 230.476C533.66 230.476 534.444 231.274 534.444 232.828V237H535.438V232.73C535.438 230.616 534.262 229.58 532.47 229.58ZM541.171 237.07C543.327 237.07 544.909 235.502 544.909 233.318C544.909 231.134 543.327 229.58 541.171 229.58C539.015 229.58 537.419 231.134 537.419 233.318C537.419 235.502 539.015 237.07 541.171 237.07ZM541.171 236.188C539.603 236.188 538.427 235.04 538.427 233.318C538.427 231.596 539.603 230.448 541.171 230.448C542.739 230.448 543.901 231.596 543.901 233.318C543.901 235.04 542.739 236.188 541.171 236.188ZM552.581 229.636V233.5C552.581 235.18 551.615 236.174 550.075 236.174C548.675 236.174 547.863 235.376 547.863 233.808V229.636H546.869V233.906C546.869 236.02 548.101 237.07 549.977 237.07C551.153 237.07 552.105 236.552 552.623 235.656V237H553.575V229.636H552.581ZM560.111 229.58C558.837 229.58 557.843 230.098 557.311 230.994V229.636H556.359V237H557.353V233.136C557.353 231.456 558.347 230.476 559.929 230.476C561.329 230.476 562.141 231.274 562.141 232.828V237H563.135V232.73C563.135 230.616 561.903 229.58 560.111 229.58ZM569.361 235.838C569.081 236.09 568.675 236.216 568.269 236.216C567.443 236.216 566.995 235.74 566.995 234.872V230.476H569.235V229.636H566.995V228.026H566.001V229.636H564.685V230.476H566.001V234.928C566.001 236.286 566.771 237.07 568.157 237.07C568.731 237.07 569.319 236.902 569.711 236.552L569.361 235.838Z" fill="#606376"/>
<g filter="url(#filter6_d)">
<rect x="438.5" y="84" width="124" height="32" rx="4" fill="white"/>
</g>
<path d="M464.019 104L461.625 100.64C463.053 100.178 463.865 99.1 463.865 97.56C463.865 95.46 462.353 94.2 459.861 94.2H456.193V104H457.229V100.892H459.861C460.141 100.892 460.393 100.878 460.645 100.85L462.885 104H464.019ZM459.833 100.01H457.229V95.096H459.833C461.793 95.096 462.829 95.992 462.829 97.56C462.829 99.1 461.793 100.01 459.833 100.01ZM466.604 95.026C467.024 95.026 467.332 94.704 467.332 94.298C467.332 93.92 467.01 93.612 466.604 93.612C466.198 93.612 465.876 93.934 465.876 94.312C465.876 94.704 466.198 95.026 466.604 95.026ZM466.1 104H467.094V96.636H466.1V104ZM471.834 104.07C473.752 104.07 474.872 103.244 474.872 101.97C474.872 99.142 470.098 100.64 470.098 98.652C470.098 97.952 470.686 97.434 472.016 97.434C472.772 97.434 473.542 97.616 474.186 98.064L474.62 97.266C474.004 96.846 472.968 96.58 472.016 96.58C470.14 96.58 469.104 97.476 469.104 98.68C469.104 101.592 473.878 100.08 473.878 101.998C473.878 102.726 473.304 103.202 471.904 103.202C470.868 103.202 469.874 102.838 469.286 102.376L468.838 103.16C469.44 103.678 470.616 104.07 471.834 104.07ZM482.407 104H483.625L480.181 99.646L483.331 96.636H482.099L477.703 100.654V93.612H476.709V104H477.703V101.9L479.439 100.304L482.407 104ZM491.358 96.58C490.196 96.58 489.104 96.944 488.362 97.574L488.81 98.316C489.412 97.784 490.308 97.448 491.26 97.448C492.632 97.448 493.346 98.134 493.346 99.394V99.842H491.008C488.894 99.842 488.166 100.794 488.166 101.928C488.166 103.202 489.188 104.07 490.854 104.07C492.072 104.07 492.94 103.608 493.388 102.852V104H494.34V99.436C494.34 97.532 493.262 96.58 491.358 96.58ZM491.008 103.286C489.832 103.286 489.146 102.754 489.146 101.9C489.146 101.144 489.608 100.584 491.036 100.584H493.346V101.788C492.954 102.754 492.128 103.286 491.008 103.286ZM500.833 96.58C499.615 96.58 498.593 97.112 497.991 98.092V96.636H497.039V106.716H498.033V102.614C498.649 103.566 499.657 104.07 500.833 104.07C502.933 104.07 504.501 102.558 504.501 100.318C504.501 98.092 502.933 96.58 500.833 96.58ZM500.763 103.188C499.195 103.188 498.019 102.04 498.019 100.318C498.019 98.61 499.195 97.448 500.763 97.448C502.317 97.448 503.507 98.61 503.507 100.318C503.507 102.04 502.317 103.188 500.763 103.188ZM510.322 96.58C509.104 96.58 508.082 97.112 507.48 98.092V96.636H506.528V106.716H507.522V102.614C508.138 103.566 509.146 104.07 510.322 104.07C512.422 104.07 513.99 102.558 513.99 100.318C513.99 98.092 512.422 96.58 510.322 96.58ZM510.252 103.188C508.684 103.188 507.508 102.04 507.508 100.318C507.508 98.61 508.684 97.448 510.252 97.448C511.806 97.448 512.996 98.61 512.996 100.318C512.996 102.04 511.806 103.188 510.252 103.188ZM522.442 100.318C522.442 98.106 520.944 96.58 518.872 96.58C516.8 96.58 515.274 98.134 515.274 100.318C515.274 102.502 516.842 104.07 519.138 104.07C520.3 104.07 521.322 103.65 521.98 102.866L521.42 102.222C520.86 102.866 520.062 103.188 519.166 103.188C517.556 103.188 516.38 102.166 516.268 100.626H522.428C522.428 100.514 522.442 100.402 522.442 100.318ZM518.872 97.434C520.314 97.434 521.364 98.442 521.49 99.884H516.268C516.394 98.442 517.444 97.434 518.872 97.434ZM527.993 102.838C527.713 103.09 527.307 103.216 526.901 103.216C526.075 103.216 525.627 102.74 525.627 101.872V97.476H527.867V96.636H525.627V95.026H524.633V96.636H523.317V97.476H524.633V101.928C524.633 103.286 525.403 104.07 526.789 104.07C527.363 104.07 527.951 103.902 528.343 103.552L527.993 102.838ZM530.657 95.026C531.077 95.026 531.385 94.704 531.385 94.298C531.385 93.92 531.063 93.612 530.657 93.612C530.251 93.612 529.929 93.934 529.929 94.312C529.929 94.704 530.251 95.026 530.657 95.026ZM530.153 104H531.147V96.636H530.153V104ZM537.44 102.838C537.16 103.09 536.754 103.216 536.348 103.216C535.522 103.216 535.074 102.74 535.074 101.872V97.476H537.314V96.636H535.074V95.026H534.08V96.636H532.764V97.476H534.08V101.928C534.08 103.286 534.85 104.07 536.236 104.07C536.81 104.07 537.398 103.902 537.79 103.552L537.44 102.838ZM545.766 100.318C545.766 98.106 544.268 96.58 542.196 96.58C540.124 96.58 538.598 98.134 538.598 100.318C538.598 102.502 540.166 104.07 542.462 104.07C543.624 104.07 544.646 103.65 545.304 102.866L544.744 102.222C544.184 102.866 543.386 103.188 542.49 103.188C540.88 103.188 539.704 102.166 539.592 100.626H545.752C545.752 100.514 545.766 100.402 545.766 100.318ZM542.196 97.434C543.638 97.434 544.688 98.442 544.814 99.884H539.592C539.718 98.442 540.768 97.434 542.196 97.434Z" fill="#606376"/>
<g filter="url(#filter7_d)">
<rect x="265.5" y="28" width="111" height="32" rx="4" fill="white"/>
</g>
<path d="M284.626 47.104V43.464H289.694V42.582H284.626V39.096H290.31V38.2H283.59V48H290.52V47.104H284.626ZM298.364 48L295.424 44.22L298.196 40.636H297.104L294.892 43.52L292.68 40.636H291.56L294.332 44.22L291.42 48H292.54L294.892 44.92L297.23 48H298.364ZM303.813 40.58C302.595 40.58 301.573 41.112 300.971 42.092V40.636H300.019V50.716H301.013V46.614C301.629 47.566 302.637 48.07 303.813 48.07C305.913 48.07 307.481 46.558 307.481 44.318C307.481 42.092 305.913 40.58 303.813 40.58ZM303.743 47.188C302.175 47.188 300.999 46.04 300.999 44.318C300.999 42.61 302.175 41.448 303.743 41.448C305.297 41.448 306.487 42.61 306.487 44.318C306.487 46.04 305.297 47.188 303.743 47.188ZM315.933 44.318C315.933 42.106 314.435 40.58 312.363 40.58C310.291 40.58 308.765 42.134 308.765 44.318C308.765 46.502 310.333 48.07 312.629 48.07C313.791 48.07 314.813 47.65 315.471 46.866L314.911 46.222C314.351 46.866 313.553 47.188 312.657 47.188C311.047 47.188 309.871 46.166 309.759 44.626H315.919C315.919 44.514 315.933 44.402 315.933 44.318ZM312.363 41.434C313.805 41.434 314.855 42.442 314.981 43.884H309.759C309.885 42.442 310.935 41.434 312.363 41.434ZM318.908 42.078V40.636H317.956V48H318.95V44.248C318.95 42.512 319.888 41.532 321.428 41.532C321.498 41.532 321.582 41.546 321.666 41.546V40.58C320.308 40.58 319.37 41.098 318.908 42.078ZM323.97 39.026C324.39 39.026 324.698 38.704 324.698 38.298C324.698 37.92 324.376 37.612 323.97 37.612C323.564 37.612 323.242 37.934 323.242 38.312C323.242 38.704 323.564 39.026 323.97 39.026ZM323.466 48H324.46V40.636H323.466V48ZM333.652 44.318C333.652 42.106 332.154 40.58 330.082 40.58C328.01 40.58 326.484 42.134 326.484 44.318C326.484 46.502 328.052 48.07 330.348 48.07C331.51 48.07 332.532 47.65 333.19 46.866L332.63 46.222C332.07 46.866 331.272 47.188 330.376 47.188C328.766 47.188 327.59 46.166 327.478 44.626H333.638C333.638 44.514 333.652 44.402 333.652 44.318ZM330.082 41.434C331.524 41.434 332.574 42.442 332.7 43.884H327.478C327.604 42.442 328.654 41.434 330.082 41.434ZM339.427 40.58C338.153 40.58 337.159 41.098 336.627 41.994V40.636H335.675V48H336.669V44.136C336.669 42.456 337.663 41.476 339.245 41.476C340.645 41.476 341.457 42.274 341.457 43.828V48H342.451V43.73C342.451 41.616 341.219 40.58 339.427 40.58ZM348.229 48.07C349.475 48.07 350.525 47.566 351.113 46.614L350.371 46.11C349.867 46.852 349.083 47.188 348.229 47.188C346.619 47.188 345.443 46.054 345.443 44.318C345.443 42.596 346.619 41.448 348.229 41.448C349.083 41.448 349.867 41.798 350.371 42.54L351.113 42.036C350.525 41.07 349.475 40.58 348.229 40.58C346.031 40.58 344.435 42.12 344.435 44.318C344.435 46.516 346.031 48.07 348.229 48.07ZM359.369 44.318C359.369 42.106 357.871 40.58 355.799 40.58C353.727 40.58 352.201 42.134 352.201 44.318C352.201 46.502 353.769 48.07 356.065 48.07C357.227 48.07 358.249 47.65 358.907 46.866L358.347 46.222C357.787 46.866 356.989 47.188 356.093 47.188C354.483 47.188 353.307 46.166 353.195 44.626H359.355C359.355 44.514 359.369 44.402 359.369 44.318ZM355.799 41.434C357.241 41.434 358.291 42.442 358.417 43.884H353.195C353.321 42.442 354.371 41.434 355.799 41.434Z" fill="#606376"/>
</g>
<defs>
<filter id="filter0_d" x="49.5" y="56" width="188" height="96" filterUnits="userSpaceOnUse" color-interpolation-filters="sRGB">
<feFlood flood-opacity="0" result="BackgroundImageFix"/>
<feColorMatrix in="SourceAlpha" type="matrix" values="0 0 0 0 0 0 0 0 0 0 0 0 0 0 0 0 0 0 127 0"/>
<feOffset dy="4"/>
<feGaussianBlur stdDeviation="16"/>
<feColorMatrix type="matrix" values="0 0 0 0 0.00392157 0 0 0 0 0.0784314 0 0 0 0 0.243137 0 0 0 0.15 0"/>
<feBlend mode="normal" in2="BackgroundImageFix" result="effect1_dropShadow"/>
<feBlend mode="normal" in="SourceGraphic" in2="effect1_dropShadow" result="shape"/>
</filter>
<filter id="filter1_d" x="0.5" y="189" width="180" height="96" filterUnits="userSpaceOnUse" color-interpolation-filters="sRGB">
<feFlood flood-opacity="0" result="BackgroundImageFix"/>
<feColorMatrix in="SourceAlpha" type="matrix" values="0 0 0 0 0 0 0 0 0 0 0 0 0 0 0 0 0 0 127 0"/>
<feOffset dy="4"/>
<feGaussianBlur stdDeviation="16"/>
<feColorMatrix type="matrix" values="0 0 0 0 0.00392157 0 0 0 0 0.0784314 0 0 0 0 0.243137 0 0 0 0.15 0"/>
<feBlend mode="normal" in2="BackgroundImageFix" result="effect1_dropShadow"/>
<feBlend mode="normal" in="SourceGraphic" in2="effect1_dropShadow" result="shape"/>
</filter>
<filter id="filter2_d" x="53.5" y="322" width="184" height="96" filterUnits="userSpaceOnUse" color-interpolation-filters="sRGB">
<feFlood flood-opacity="0" result="BackgroundImageFix"/>
<feColorMatrix in="SourceAlpha" type="matrix" values="0 0 0 0 0 0 0 0 0 0 0 0 0 0 0 0 0 0 127 0"/>
<feOffset dy="4"/>
<feGaussianBlur stdDeviation="16"/>
<feColorMatrix type="matrix" values="0 0 0 0 0.00392157 0 0 0 0 0.0784314 0 0 0 0 0.243137 0 0 0 0.15 0"/>
<feBlend mode="normal" in2="BackgroundImageFix" result="effect1_dropShadow"/>
<feBlend mode="normal" in="SourceGraphic" in2="effect1_dropShadow" result="shape"/>
</filter>
<filter id="filter3_d" x="227.5" y="379" width="188" height="96" filterUnits="userSpaceOnUse" color-interpolation-filters="sRGB">
<feFlood flood-opacity="0" result="BackgroundImageFix"/>
<feColorMatrix in="SourceAlpha" type="matrix" values="0 0 0 0 0 0 0 0 0 0 0 0 0 0 0 0 0 0 127 0"/>
<feOffset dy="4"/>
<feGaussianBlur stdDeviation="16"/>
<feColorMatrix type="matrix" values="0 0 0 0 0.00392157 0 0 0 0 0.0784314 0 0 0 0 0.243137 0 0 0 0.15 0"/>
<feBlend mode="normal" in2="BackgroundImageFix" result="effect1_dropShadow"/>
<feBlend mode="normal" in="SourceGraphic" in2="effect1_dropShadow" result="shape"/>
</filter>
<filter id="filter4_d" x="406.5" y="322" width="175" height="96" filterUnits="userSpaceOnUse" color-interpolation-filters="sRGB">
<feFlood flood-opacity="0" result="BackgroundImageFix"/>
<feColorMatrix in="SourceAlpha" type="matrix" values="0 0 0 0 0 0 0 0 0 0 0 0 0 0 0 0 0 0 127 0"/>
<feOffset dy="4"/>
<feGaussianBlur stdDeviation="16"/>
<feColorMatrix type="matrix" values="0 0 0 0 0.00392157 0 0 0 0 0.0784314 0 0 0 0 0.243137 0 0 0 0.15 0"/>
<feBlend mode="normal" in2="BackgroundImageFix" result="effect1_dropShadow"/>
<feBlend mode="normal" in="SourceGraphic" in2="effect1_dropShadow" result="shape"/>
</filter>
<filter id="filter5_d" x="463.5" y="189" width="155" height="96" filterUnits="userSpaceOnUse" color-interpolation-filters="sRGB">
<feFlood flood-opacity="0" result="BackgroundImageFix"/>
<feColorMatrix in="SourceAlpha" type="matrix" values="0 0 0 0 0 0 0 0 0 0 0 0 0 0 0 0 0 0 127 0"/>
<feOffset dy="4"/>
<feGaussianBlur stdDeviation="16"/>
<feColorMatrix type="matrix" values="0 0 0 0 0.00392157 0 0 0 0 0.0784314 0 0 0 0 0.243137 0 0 0 0.15 0"/>
<feBlend mode="normal" in2="BackgroundImageFix" result="effect1_dropShadow"/>
<feBlend mode="normal" in="SourceGraphic" in2="effect1_dropShadow" result="shape"/>
</filter>
<filter id="filter6_d" x="406.5" y="56" width="188" height="96" filterUnits="userSpaceOnUse" color-interpolation-filters="sRGB">
<feFlood flood-opacity="0" result="BackgroundImageFix"/>
<feColorMatrix in="SourceAlpha" type="matrix" values="0 0 0 0 0 0 0 0 0 0 0 0 0 0 0 0 0 0 127 0"/>
<feOffset dy="4"/>
<feGaussianBlur stdDeviation="16"/>
<feColorMatrix type="matrix" values="0 0 0 0 0.00392157 0 0 0 0 0.0784314 0 0 0 0 0.243137 0 0 0 0.15 0"/>
<feBlend mode="normal" in2="BackgroundImageFix" result="effect1_dropShadow"/>
<feBlend mode="normal" in="SourceGraphic" in2="effect1_dropShadow" result="shape"/>
</filter>
<filter id="filter7_d" x="233.5" y="0" width="175" height="96" filterUnits="userSpaceOnUse" color-interpolation-filters="sRGB">
<feFlood flood-opacity="0" result="BackgroundImageFix"/>
<feColorMatrix in="SourceAlpha" type="matrix" values="0 0 0 0 0 0 0 0 0 0 0 0 0 0 0 0 0 0 127 0"/>
<feOffset dy="4"/>
<feGaussianBlur stdDeviation="16"/>
<feColorMatrix type="matrix" values="0 0 0 0 0.00392157 0 0 0 0 0.0784314 0 0 0 0 0.243137 0 0 0 0.15 0"/>
<feBlend mode="normal" in2="BackgroundImageFix" result="effect1_dropShadow"/>
<feBlend mode="normal" in="SourceGraphic" in2="effect1_dropShadow" result="shape"/>
</filter>
<clipPath id="clip0">
<rect width="644" height="467" fill="white"/>
</clipPath>
</defs>
</svg>
