<svg xmlns="http://www.w3.org/2000/svg" xmlns:xlink="http://www.w3.org/1999/xlink" width="655" height="198" viewBox="0 0 655 198"><defs><style>.a{fill:none;}.b{fill:#f8f8fc;}.c{fill:#7878a6;}.d{fill:#fff;}.e{clip-path:url(#c);}.f{fill:url(#d);}.g{fill:url(#e);}.h{fill:#ffc3a0;}.i{fill:#2699fb;}.j{fill:url(#f);}.k{fill:url(#g);}.l{fill:url(#h);}.m{fill:url(#m);}.n{fill:url(#n);}.o{fill:url(#o);}.p{fill:url(#p);}.q{fill:url(#t);}.r{fill:url(#u);}.s{fill:url(#v);}.t{fill:#545489;}.u{fill:url(#w);}.v{fill:url(#x);}.w{fill:url(#y);}.x{fill:url(#z);}.y{filter:url(#q);}.z{filter:url(#i);}.aa{filter:url(#a);}</style><filter id="a" x="0" y="21" width="186.018" height="100.586" filterUnits="userSpaceOnUse"><feOffset dx="2.835" dy="2.835" input="SourceAlpha"/><feGaussianBlur stdDeviation="4" result="b"/><feFlood flood-color="#282842" flood-opacity="0.149"/><feComposite operator="in" in2="b"/><feComposite in="SourceGraphic"/></filter><clipPath id="c"><rect class="a" width="45.692" height="47.816" rx="18.649" transform="translate(45.692 47.816) rotate(-180)"/></clipPath><linearGradient id="d" x1="-516.755" y1="1.038" x2="-515.957" y2="-0.016" gradientUnits="objectBoundingBox"><stop offset="0.264" stop-color="#2888e1"/><stop offset="0.967" stop-color="#2699fb"/></linearGradient><linearGradient id="e" x1="-167.218" y1="0.526" x2="-167.491" y2="1.713" xlink:href="#d"/><linearGradient id="f" x1="0.598" y1="1.25" x2="0.044" y2="-0.48" xlink:href="#d"/><linearGradient id="g" x1="-724.487" y1="0.206" x2="-724.062" y2="0.898" gradientUnits="objectBoundingBox"><stop offset="0" stop-color="#cc9c80"/><stop offset="0.98" stop-color="#ffc3a0"/></linearGradient><linearGradient id="h" x1="705.082" y1="0.5" x2="706.082" y2="0.5" gradientUnits="objectBoundingBox"><stop offset="0.029" stop-color="#323293"/><stop offset="1" stop-color="#32325c"/></linearGradient><filter id="i" x="468.982" y="0" width="186.018" height="100.586" filterUnits="userSpaceOnUse"><feOffset dx="2.835" dy="2.835" input="SourceAlpha"/><feGaussianBlur stdDeviation="4" result="j"/><feFlood flood-color="#282842" flood-opacity="0.149"/><feComposite operator="in" in2="j"/><feComposite in="SourceGraphic"/></filter><linearGradient id="m" x1="-167.223" y1="0.526" x2="-167.496" y2="1.713" xlink:href="#d"/><linearGradient id="n" x1="0.598" y1="1.25" x2="0.044" y2="-0.48" xlink:href="#d"/><linearGradient id="o" x1="-724.425" y1="0.206" x2="-724" y2="0.898" xlink:href="#g"/><linearGradient id="p" x1="666.501" y1="0.5" x2="667.501" y2="0.5" xlink:href="#h"/><filter id="q" x="242.991" y="97.414" width="186.018" height="100.586" filterUnits="userSpaceOnUse"><feOffset dx="2.835" dy="2.835" input="SourceAlpha"/><feGaussianBlur stdDeviation="4" result="r"/><feFlood flood-color="#282842" flood-opacity="0.149"/><feComposite operator="in" in2="r"/><feComposite in="SourceGraphic"/></filter><linearGradient id="t" x1="8.362" y1="60.295" x2="9.511" y2="60.295" xlink:href="#h"/><linearGradient id="u" x1="-522.463" y1="1.038" x2="-521.665" y2="-0.016" gradientUnits="objectBoundingBox"><stop offset="0.338" stop-color="#7878a6"/><stop offset="0.967" stop-color="#7c7ca9"/></linearGradient><linearGradient id="v" x1="0.5" y1="0.435" x2="0.5" y2="0.925" gradientUnits="objectBoundingBox"><stop offset="0.264" stop-color="#7878a6"/><stop offset="0.967" stop-color="#8e8ec4"/></linearGradient><linearGradient id="w" x1="-5.164" y1="1.25" x2="-5.718" y2="-0.48" xlink:href="#u"/><linearGradient id="x" x1="-732.427" y1="0.206" x2="-732.002" y2="0.898" xlink:href="#g"/><linearGradient id="y" x1="12.002" y1="210.693" x2="12.937" y2="210.786" xlink:href="#h"/><linearGradient id="z" x1="2243.648" y1="11476.546" x2="2418.59" y2="11481.612" xlink:href="#h"/></defs><g transform="translate(4443.581 -4725.072)"><g transform="translate(-4434.416 4755.238)"><g class="aa" transform="matrix(1, 0, 0, 1, -9.17, -30.17)"><path class="b" d="M-4241.456,4767.237l-137.428.234a12.11,12.11,0,0,0-12.229,11.917l-.3,42.409a12.109,12.109,0,0,0,12.058,12.089l103.533-.176c2.142,4.338,6.638,9.105,16.1,10.1a1.176,1.176,0,0,0,1.039-1.937,8.21,8.21,0,0,1-1.967-8.193l18.723-.033a12.108,12.108,0,0,0,12.229-11.915l.3-42.411A12.11,12.11,0,0,0-4241.456,4767.237Z" transform="translate(4400.58 -4737.07)"/></g><g transform="translate(68.997 22.574)"><path class="c" d="M-4259.724,4789.973h-72.662a2.045,2.045,0,0,1-2.045-2.045,2.046,2.046,0,0,1,2.045-2.046h72.662a2.046,2.046,0,0,1,2.046,2.046A2.045,2.045,0,0,1-4259.724,4789.973Z" transform="translate(4334.431 -4785.881)"/><path class="c" d="M-4280.512,4796.919h-51.874a2.045,2.045,0,0,1-2.045-2.045,2.045,2.045,0,0,1,2.045-2.046h51.874a2.046,2.046,0,0,1,2.046,2.046A2.045,2.045,0,0,1-4280.512,4796.919Z" transform="translate(4334.431 -4784.417)"/><path class="c" d="M-4280.512,4803.864h-51.874a2.045,2.045,0,0,1-2.045-2.045,2.046,2.046,0,0,1,2.045-2.046h51.874a2.047,2.047,0,0,1,2.046,2.046A2.045,2.045,0,0,1-4280.512,4803.864Z" transform="translate(4334.431 -4782.953)"/></g><g transform="translate(8.473 9.122)"><rect class="d" width="45.692" height="47.816" rx="18.649" transform="translate(45.692 47.816) rotate(-180)"/><g transform="translate(0.001)"><g class="e"><g transform="translate(6.811 1.94)"><path class="f" d="M-4378.792,4816.172c.233-1.121.5-2.22.8-3.279,4.245-14.745,8.836-7.528,8.836,0,0,.892-.049,2.09-.141,3.513h-8.756A7.1,7.1,0,0,1-4378.792,4816.172Z" transform="translate(4378.792 -4770.48)"/><path class="g" d="M-4376.153,4818.259c-.834-4.82-.786-9.442,1.1-11.031,4.108-3.464,9.9-1.387,10.851-8.77.679-5.272,1.02-1.5,1.491,1.092.671-1.765,2.35-7.407,3.164-1.092.951,7.383,6.855,5.306,10.963,8.77,1.884,1.588,1.933,6.21,1.1,11.031Z" transform="translate(4379.239 -4772.333)"/><path class="h" d="M-4368.089,4796.128a10.055,10.055,0,0,1,1.436,6.816c-.459,4.316,6.551,2.1,6.551,0s-2.241-5.509-1.207-9.087S-4368.089,4796.128-4368.089,4796.128Z" transform="translate(4381.047 -4772.933)"/><path class="i" d="M-4358.917,4802.676c0-.07,0-.144-.007-.216a5.383,5.383,0,0,1-1.294-1.317c.007.1.017.193.017.284,0,2.1-7.01,4.316-6.55,0a12.78,12.78,0,0,0,.07-1.53,6.112,6.112,0,0,1-.806,1.456c-.011.426-.038.867-.087,1.324C-4368.182,4808.381-4358.917,4805.453-4358.917,4802.676Z" transform="translate(4381.15 -4771.416)"/><path class="j" d="M-4349.119,4812.893c.269.931.5,1.9.712,2.879a6.757,6.757,0,0,1-1.486.634h-7.922c-.09-1.423-.141-2.622-.141-3.513C-4357.955,4805.365-4353.363,4798.148-4349.119,4812.893Z" transform="translate(4383.185 -4770.48)"/><path class="k" d="M-4361.217,4798.479a8.769,8.769,0,0,1-.092-4.622c1.034-3.577-6.78,2.271-6.78,2.271a9.744,9.744,0,0,1,1.5,5.765A7.116,7.116,0,0,0-4361.217,4798.479Z" transform="translate(4381.047 -4772.933)"/><path class="h" d="M-4356.624,4787.267c-.122,0-2.93-7.5-7.816-7.5-4.318,0-7.818,4.826-7.818,10.779s3.5,10.782,7.818,10.782c4.585,0,7.694-7.5,7.816-7.5,1.315,0,2.381-1.47,2.381-3.283S-4355.309,4787.267-4356.624,4787.267Z" transform="translate(4380.169 -4775.658)"/><path class="l" d="M-4362.344,4777.149a67.834,67.834,0,0,0-7.037-.775c-6.6-.019-7.687,9.84,1.022,9.84,2.344,0,3,.283,5.234-.279a5.727,5.727,0,0,1,1.77.868,9.476,9.476,0,0,1,1.335,1.339c.6.864,2.258,1.791,1.6,6.286a.988.988,0,0,0,.068.61.7.7,0,0,0,.9.243,1.459,1.459,0,0,0,.637-.758,6.486,6.486,0,0,0,.521-2c.523-5.1,2.159-2.809,2.419-5.877a8.229,8.229,0,0,0-.384-3.417C-4355.125,4780.716-4354.724,4777.942-4362.344,4777.149Z" transform="translate(4379.674 -4776.374)"/></g></g></g></g></g><g transform="translate(-3965.433 4734.238)"><g class="z" transform="matrix(1, 0, 0, 1, -478.15, -9.17)"><path class="b" d="M-3910.37,4767.237l-137.428.234a12.11,12.11,0,0,0-12.229,11.917l-.3,42.409a12.111,12.111,0,0,0,12.058,12.089l103.533-.176c2.142,4.338,6.638,9.105,16.1,10.1a1.175,1.175,0,0,0,1.038-1.937,8.208,8.208,0,0,1-1.966-8.193l18.723-.033a12.107,12.107,0,0,0,12.229-11.915l.3-42.411A12.109,12.109,0,0,0-3910.37,4767.237Z" transform="translate(4538.48 -4758.07)"/></g><g transform="translate(68.997 22.574)"><path class="c" d="M-3928.639,4789.973H-4001.3a2.045,2.045,0,0,1-2.045-2.045,2.046,2.046,0,0,1,2.045-2.046h72.661a2.046,2.046,0,0,1,2.046,2.046A2.045,2.045,0,0,1-3928.639,4789.973Z" transform="translate(4003.345 -4785.881)"/><path class="c" d="M-3949.427,4796.919H-4001.3a2.045,2.045,0,0,1-2.045-2.045,2.045,2.045,0,0,1,2.045-2.046h51.873a2.045,2.045,0,0,1,2.046,2.046A2.044,2.044,0,0,1-3949.427,4796.919Z" transform="translate(4003.345 -4784.417)"/><path class="c" d="M-3949.427,4803.864H-4001.3a2.045,2.045,0,0,1-2.045-2.045,2.046,2.046,0,0,1,2.045-2.046h51.873a2.046,2.046,0,0,1,2.046,2.046A2.044,2.044,0,0,1-3949.427,4803.864Z" transform="translate(4003.345 -4782.953)"/></g><g transform="translate(8.473 9.122)"><rect class="d" width="45.692" height="47.816" rx="18.649" transform="translate(45.692 47.816) rotate(-180)"/><g class="e"><g transform="translate(6.811 1.94)"><path class="f" d="M-4047.706,4816.172c.235-1.121.5-2.22.8-3.279,4.245-14.745,8.836-7.528,8.836,0,0,.892-.049,2.09-.139,3.513h-8.756A7.049,7.049,0,0,1-4047.706,4816.172Z" transform="translate(4047.706 -4770.48)"/><path class="m" d="M-4045.066,4818.259c-.835-4.82-.787-9.442,1.1-11.031,4.108-3.464,9.9-1.387,10.852-8.77.679-5.272,1.02-1.5,1.492,1.092.669-1.765,2.349-7.407,3.163-1.092.952,7.383,6.855,5.306,10.964,8.77,1.884,1.588,1.932,6.21,1.1,11.031Z" transform="translate(4048.154 -4772.333)"/><path class="h" d="M-4037,4796.128a10.054,10.054,0,0,1,1.436,6.816c-.458,4.316,6.552,2.1,6.552,0s-2.241-5.509-1.207-9.087S-4037,4796.128-4037,4796.128Z" transform="translate(4049.962 -4772.933)"/><path class="i" d="M-4027.83,4802.676c0-.07,0-.144-.008-.216a5.392,5.392,0,0,1-1.294-1.317c.009.1.017.193.017.284,0,2.1-7.011,4.316-6.551,0a12.679,12.679,0,0,0,.07-1.53,6.079,6.079,0,0,1-.807,1.456c-.01.426-.037.867-.087,1.324C-4037.1,4808.381-4027.83,4805.453-4027.83,4802.676Z" transform="translate(4050.065 -4771.416)"/><path class="n" d="M-4018.033,4812.893c.269.931.5,1.9.712,2.879a6.737,6.737,0,0,1-1.486.634h-7.922c-.089-1.423-.14-2.622-.14-3.513C-4026.869,4805.365-4022.276,4798.148-4018.033,4812.893Z" transform="translate(4052.098 -4770.48)"/><path class="o" d="M-4030.131,4798.479a8.764,8.764,0,0,1-.092-4.622c1.034-3.577-6.78,2.271-6.78,2.271a9.742,9.742,0,0,1,1.5,5.765A7.116,7.116,0,0,0-4030.131,4798.479Z" transform="translate(4049.962 -4772.933)"/><path class="h" d="M-4025.536,4787.267c-.124,0-2.932-7.5-7.818-7.5-4.318,0-7.818,4.826-7.818,10.779s3.5,10.782,7.818,10.782c4.585,0,7.695-7.5,7.818-7.5,1.313,0,2.379-1.47,2.379-3.283S-4024.223,4787.267-4025.536,4787.267Z" transform="translate(4049.083 -4775.658)"/><path class="p" d="M-4031.257,4777.149a67.889,67.889,0,0,0-7.036-.775c-6.6-.019-7.688,9.84,1.021,9.84,2.344,0,3,.283,5.234-.279a5.732,5.732,0,0,1,1.771.868,9.469,9.469,0,0,1,1.334,1.339c.6.864,2.258,1.791,1.6,6.286a.992.992,0,0,0,.069.61.7.7,0,0,0,.9.243,1.461,1.461,0,0,0,.637-.758,6.472,6.472,0,0,0,.521-2c.523-5.1,2.159-2.809,2.419-5.877a8.238,8.238,0,0,0-.384-3.417C-4024.039,4780.716-4023.638,4777.942-4031.257,4777.149Z" transform="translate(4048.588 -4776.374)"/></g></g></g></g><g transform="translate(-4191.425 4831.652)"><g class="y" transform="matrix(1, 0, 0, 1, -252.16, -106.58)"><path class="b" d="M-4213.813,4798.864l137.428.234a12.11,12.11,0,0,1,12.229,11.917l.3,42.41a12.111,12.111,0,0,1-12.058,12.09l-103.533-.177c-2.141,4.338-6.638,9.106-16.1,10.1a1.175,1.175,0,0,1-1.038-1.936,8.211,8.211,0,0,0,1.966-8.195l-18.722-.033a12.108,12.108,0,0,1-12.229-11.916l-.3-42.411A12.111,12.111,0,0,1-4213.813,4798.864Z" transform="translate(4478.03 -4692.28)"/></g><g transform="translate(16.268 22.574)"><path class="i" d="M-4210.39,4821.6h72.662a2.045,2.045,0,0,0,2.045-2.045,2.046,2.046,0,0,0-2.045-2.047h-72.662a2.047,2.047,0,0,0-2.046,2.047A2.046,2.046,0,0,0-4210.39,4821.6Z" transform="translate(4212.436 -4817.508)"/><path class="i" d="M-4193.221,4828.545h51.874a2.045,2.045,0,0,0,2.045-2.045,2.044,2.044,0,0,0-2.045-2.046h-51.874a2.045,2.045,0,0,0-2.045,2.046A2.045,2.045,0,0,0-4193.221,4828.545Z" transform="translate(4216.056 -4816.043)"/><path class="i" d="M-4193.221,4835.49h51.874a2.045,2.045,0,0,0,2.045-2.045,2.046,2.046,0,0,0-2.045-2.046h-51.874a2.046,2.046,0,0,0-2.045,2.046A2.045,2.045,0,0,0-4193.221,4835.49Z" transform="translate(4216.056 -4814.58)"/></g><g transform="translate(107.852 9.122)"><rect class="d" width="45.692" height="47.816" rx="18.649" transform="translate(45.692 47.816) rotate(-180)"/><g class="e"><path class="q" d="M-4117.756,4808.092c3.233-.822,7.707-1.7,10.4,1.974s3.28,3.257,3.961,5.059c.819,2.165-.334,5.823-.259,6.842.087,1.165,1.67,4.061,1.63,5.19-.072,2-1.7,2.836-1.789,4.829s1.694,2.918,1.683,4.913c-.018,3.155-2.151,4.433-1.49,6.322.753,2.153,5.31,4.167,1.313,6.854-2.1,1.325-7.783-2.913-7.783-2.913l-11.511-4.194-4.068,5.425s-3.043-4.587-2.272-7.026,2.029-3.238,2.345-4.9-2.654-2.226-2.374-5.331,2.379-4.431,2.345-5.873-2.409-1.893-1.673-5.773c.372-1.96,2.52-5.982,3.027-7.035S-4120.988,4808.915-4117.756,4808.092Z" transform="translate(4138.636 -4806.193)"/><g transform="translate(6.812 21.705)"><path class="r" d="M-4131.171,4847.8c.233-1.121.5-2.221.8-3.278,4.245-14.745,8.836-7.528,8.836,0,0,.892-.05,2.09-.141,3.513h-8.756A6.947,6.947,0,0,1-4131.171,4847.8Z" transform="translate(4131.171 -4821.871)"/><path class="s" d="M-4128.532,4849.885c-.834-4.82-.786-9.441,1.1-11.031,4.108-3.464,9.9-1.386,10.851-8.769.679-5.272,1.02-1.5,1.491,1.092.669-1.766,2.35-7.407,3.164-1.092.952,7.383,6.855,5.305,10.964,8.769,1.884,1.59,1.933,6.211,1.1,11.031Z" transform="translate(4131.618 -4823.724)"/><path class="h" d="M-4120.469,4827.754a10.05,10.05,0,0,1,1.436,6.815c-.46,4.316,6.552,2.1,6.552,0s-2.241-5.51-1.207-9.087S-4120.469,4827.754-4120.469,4827.754Z" transform="translate(4133.427 -4824.324)"/><path class="t" d="M-4111.3,4834.3c0-.07,0-.144-.007-.216a5.363,5.363,0,0,1-1.294-1.316c.007.1.017.192.017.284,0,2.1-7.011,4.316-6.55,0a12.678,12.678,0,0,0,.07-1.531,6.053,6.053,0,0,1-.807,1.456c-.01.426-.038.867-.087,1.324C-4120.562,4840.007-4111.3,4837.08-4111.3,4834.3Z" transform="translate(4133.53 -4822.806)"/><path class="u" d="M-4101.5,4844.52c.269.931.5,1.9.712,2.88a6.721,6.721,0,0,1-1.486.633h-7.921c-.09-1.423-.141-2.621-.141-3.513C-4110.334,4836.991-4105.742,4829.774-4101.5,4844.52Z" transform="translate(4135.563 -4821.871)"/><path class="v" d="M-4113.6,4830.1a8.769,8.769,0,0,1-.092-4.622c1.034-3.578-6.781,2.272-6.781,2.272a9.735,9.735,0,0,1,1.5,5.764A7.119,7.119,0,0,0-4113.6,4830.1Z" transform="translate(4133.427 -4824.324)"/></g><path class="h" d="M-4108.769,4819.023c-.125-.006-2.594-7.765-7.549-8.027-4.378-.233-8.172,4.477-8.473,10.518s3,11.127,7.383,11.358c4.649.247,8.183-7.194,8.307-7.187,1.333.071,2.489-1.363,2.579-3.2S-4107.436,4819.095-4108.769,4819.023Z" transform="translate(4139.324 -4805.431)"/><g transform="translate(13.131 3.912)"><path class="w" d="M-4106.611,4819.294l-2.086-5.852-4.521-3.729-3.471-.085-3.747,1.358.014-.057-.08.081-.865.313s.027.171.1.463l-.589.593a30.144,30.144,0,0,0-3.1,2.569l-.9,4.766a7.049,7.049,0,0,1,1.624-.9c1.45-.662,2.634-3.812,3.281-5.926.742,2.308,2.693,6.531,7.321,8.225C-4107.12,4823.5-4106.611,4819.294-4106.611,4819.294Z" transform="translate(4125.97 -4809.629)"/><path class="x" d="M-4125.891,4818.184l.042-.224C-4126.053,4818.151-4125.891,4818.184-4125.891,4818.184Z" transform="translate(4125.952 -4807.873)"/></g></g></g></g></g></svg>