<svg width="873px" height="660px" viewBox="0 0 873 660" version="1.1" xmlns="http://www.w3.org/2000/svg" xmlns:xlink="http://www.w3.org/1999/xlink">
    <defs>
        <linearGradient x1="0%" y1="50.0040627%" x2="100%" y2="50.0040627%" id="linearGradient-1">
            <stop stop-color="#808080" stop-opacity="0.25" offset="0%"></stop>
            <stop stop-color="#808080" stop-opacity="0.12" offset="54%"></stop>
            <stop stop-color="#808080" stop-opacity="0.1" offset="100%"></stop>
        </linearGradient>
        <linearGradient x1="50.001378%" y1="100.002492%" x2="50.001378%" y2="0.00249183923%" id="linearGradient-2">
            <stop stop-color="#808080" stop-opacity="0.25" offset="0%"></stop>
            <stop stop-color="#808080" stop-opacity="0.12" offset="54%"></stop>
            <stop stop-color="#808080" stop-opacity="0.1" offset="100%"></stop>
        </linearGradient>
        <linearGradient x1="50.0279174%" y1="100%" x2="50.0279174%" y2="0%" id="linearGradient-3">
            <stop stop-color="#808080" stop-opacity="0.25" offset="0%"></stop>
            <stop stop-color="#808080" stop-opacity="0.12" offset="54%"></stop>
            <stop stop-color="#808080" stop-opacity="0.1" offset="100%"></stop>
        </linearGradient>
        <linearGradient x1="50.0088863%" y1="100.002908%" x2="50.0088863%" y2="-0.0145048606%" id="linearGradient-4">
            <stop stop-color="#808080" stop-opacity="0.25" offset="0%"></stop>
            <stop stop-color="#808080" stop-opacity="0.12" offset="54%"></stop>
            <stop stop-color="#808080" stop-opacity="0.1" offset="100%"></stop>
        </linearGradient>
        <linearGradient x1="49.9754541%" y1="100.002674%" x2="49.9754541%" y2="0%" id="linearGradient-5">
            <stop stop-color="#808080" stop-opacity="0.25" offset="0%"></stop>
            <stop stop-color="#808080" stop-opacity="0.12" offset="54%"></stop>
            <stop stop-color="#808080" stop-opacity="0.1" offset="100%"></stop>
        </linearGradient>
        <linearGradient x1="49.9926438%" y1="100%" x2="49.9926438%" y2="0%" id="linearGradient-6">
            <stop stop-color="#808080" stop-opacity="0.25" offset="0%"></stop>
            <stop stop-color="#808080" stop-opacity="0.12" offset="54%"></stop>
            <stop stop-color="#808080" stop-opacity="0.1" offset="100%"></stop>
        </linearGradient>
        <linearGradient x1="50%" y1="100%" x2="50%" y2="0%" id="linearGradient-7">
            <stop stop-color="#808080" stop-opacity="0.25" offset="0%"></stop>
            <stop stop-color="#808080" stop-opacity="0.12" offset="54%"></stop>
            <stop stop-color="#808080" stop-opacity="0.1" offset="100%"></stop>
        </linearGradient>
        <linearGradient x1="49.9951518%" y1="100%" x2="49.9951518%" y2="0%" id="linearGradient-8">
            <stop stop-color="#808080" stop-opacity="0.25" offset="0%"></stop>
            <stop stop-color="#808080" stop-opacity="0.12" offset="54%"></stop>
            <stop stop-color="#808080" stop-opacity="0.1" offset="100%"></stop>
        </linearGradient>
        <linearGradient x1="49.9992331%" y1="100%" x2="49.9992331%" y2="0%" id="linearGradient-9">
            <stop stop-color="#808080" stop-opacity="0.25" offset="0%"></stop>
            <stop stop-color="#808080" stop-opacity="0.12" offset="54%"></stop>
            <stop stop-color="#808080" stop-opacity="0.1" offset="100%"></stop>
        </linearGradient>
        <linearGradient x1="49.9960333%" y1="100%" x2="49.9960333%" y2="0%" id="linearGradient-10">
            <stop stop-color="#808080" stop-opacity="0.25" offset="0%"></stop>
            <stop stop-color="#808080" stop-opacity="0.12" offset="54%"></stop>
            <stop stop-color="#808080" stop-opacity="0.1" offset="100%"></stop>
        </linearGradient>
        <linearGradient x1="50.0032652%" y1="100%" x2="50.0032652%" y2="0%" id="linearGradient-11">
            <stop stop-color="#808080" stop-opacity="0.25" offset="0%"></stop>
            <stop stop-color="#808080" stop-opacity="0.12" offset="54%"></stop>
            <stop stop-color="#808080" stop-opacity="0.1" offset="100%"></stop>
        </linearGradient>
        <linearGradient x1="50.0085213%" y1="99.9783815%" x2="50.0085213%" y2="0%" id="linearGradient-12">
            <stop stop-color="#808080" stop-opacity="0.25" offset="0%"></stop>
            <stop stop-color="#808080" stop-opacity="0.12" offset="54%"></stop>
            <stop stop-color="#808080" stop-opacity="0.1" offset="100%"></stop>
        </linearGradient>
        <linearGradient x1="50%" y1="100%" x2="50%" y2="0%" id="linearGradient-13">
            <stop stop-color="#808080" stop-opacity="0.25" offset="0%"></stop>
            <stop stop-color="#808080" stop-opacity="0.12" offset="54%"></stop>
            <stop stop-color="#808080" stop-opacity="0.1" offset="100%"></stop>
        </linearGradient>
        <linearGradient x1="49.9710927%" y1="99.9740787%" x2="49.9710927%" y2="0.000868303498%" id="linearGradient-14">
            <stop stop-color="#808080" stop-opacity="0.25" offset="0%"></stop>
            <stop stop-color="#808080" stop-opacity="0.12" offset="54%"></stop>
            <stop stop-color="#808080" stop-opacity="0.1" offset="100%"></stop>
        </linearGradient>
        <linearGradient x1="49.9467519%" y1="100.005802%" x2="49.9467519%" y2="0%" id="linearGradient-15">
            <stop stop-color="#808080" stop-opacity="0.25" offset="0%"></stop>
            <stop stop-color="#808080" stop-opacity="0.12" offset="54%"></stop>
            <stop stop-color="#808080" stop-opacity="0.1" offset="100%"></stop>
        </linearGradient>
        <linearGradient x1="49.9889698%" y1="100%" x2="49.9889698%" y2="0%" id="linearGradient-16">
            <stop stop-color="#808080" stop-opacity="0.25" offset="0%"></stop>
            <stop stop-color="#808080" stop-opacity="0.12" offset="54%"></stop>
            <stop stop-color="#808080" stop-opacity="0.1" offset="100%"></stop>
        </linearGradient>
        <linearGradient x1="50%" y1="99.9795459%" x2="50%" y2="0%" id="linearGradient-17">
            <stop stop-color="#808080" stop-opacity="0.25" offset="0%"></stop>
            <stop stop-color="#808080" stop-opacity="0.12" offset="54%"></stop>
            <stop stop-color="#808080" stop-opacity="0.1" offset="100%"></stop>
        </linearGradient>
        <linearGradient x1="0%" y1="50.0085881%" x2="99.9941711%" y2="50.0085881%" id="linearGradient-18">
            <stop stop-color="#808080" stop-opacity="0.25" offset="0%"></stop>
            <stop stop-color="#808080" stop-opacity="0.12" offset="54%"></stop>
            <stop stop-color="#808080" stop-opacity="0.1" offset="100%"></stop>
        </linearGradient>
        <linearGradient x1="49.993688%" y1="99.9999966%" x2="49.993688%" y2="0.00604520347%" id="linearGradient-19">
            <stop stop-color="#808080" stop-opacity="0.25" offset="0%"></stop>
            <stop stop-color="#808080" stop-opacity="0.12" offset="54%"></stop>
            <stop stop-color="#808080" stop-opacity="0.1" offset="100%"></stop>
        </linearGradient>
        <linearGradient x1="50.0665779%" y1="100%" x2="50.0665779%" y2="0%" id="linearGradient-20">
            <stop stop-color="#808080" stop-opacity="0.25" offset="0%"></stop>
            <stop stop-color="#808080" stop-opacity="0.12" offset="54%"></stop>
            <stop stop-color="#808080" stop-opacity="0.1" offset="100%"></stop>
        </linearGradient>
        <linearGradient x1="49.9964677%" y1="99.9999792%" x2="49.9964677%" y2="0.0362095195%" id="linearGradient-21">
            <stop stop-color="#808080" stop-opacity="0.25" offset="0%"></stop>
            <stop stop-color="#808080" stop-opacity="0.12" offset="54%"></stop>
            <stop stop-color="#808080" stop-opacity="0.1" offset="100%"></stop>
        </linearGradient>
        <linearGradient x1="49.882904%" y1="100%" x2="49.882904%" y2="0%" id="linearGradient-22">
            <stop stop-color="#808080" stop-opacity="0.25" offset="0%"></stop>
            <stop stop-color="#808080" stop-opacity="0.12" offset="54%"></stop>
            <stop stop-color="#808080" stop-opacity="0.1" offset="100%"></stop>
        </linearGradient>
    </defs>
    <g id="Page-1" stroke="none" stroke-width="1" fill="none" fill-rule="evenodd">
        <g id="1590x1418---Web" transform="translate(-48.000000, -292.000000)">
            <g id="Main" transform="translate(48.000000, 292.000000)">
                <g id="Group-6">
                    <g id="Group-3" fill="#38D39F" fill-rule="nonzero" opacity="0.137411644">
                        <path d="M855.47784,180.490748 C846.84633,160.444274 835.1774,141.847525 820.881796,125.355109 L340.798705,120.622826 L736.064088,65.1072824 C710.529191,54.9414486 683.344913,49.5499421 655.863041,49.2008652 C578.215049,-12.8670716 469.019063,-16.5615717 387.353468,40.1162033 C355.568493,23.7704735 320.331043,15.2747448 284.589424,15.3398525 C177.918975,15.3398525 89.037946,89.2229305 69.1012424,187.188622 L855.47784,180.490748 Z" id="Path"></path>
                        <path d="M872.358794,262.657386 C872.382853,236.088357 867.30539,209.761809 857.402137,185.107408 L25.3627244,272.444045 C16.8130451,287.962561 10.2719068,304.505508 5.89677149,321.674654 L263.57082,360.077997 L0,388.083533 C7.92843226,498.990738 103.003549,586.566879 219.146823,586.566879 C277.610752,586.566879 330.739507,564.375527 370.100869,528.185538 C409.586114,565.061006 463.226913,587.739626 522.31851,587.739626 C610.002015,587.739626 685.67725,537.815279 720.917479,465.633511 C791.620926,443.194396 846.541837,386.852974 865.338828,316.364256 L539.49678,265.828759 L872.325759,265.828759 C872.342277,264.771635 872.358794,263.71451 872.358794,262.657386 Z" id="Path"></path>
                    </g>
                    <g id="undraw_for_sale_viax" transform="translate(108.813559, 157.627119)">
                        <polygon id="Path" fill="url(#linearGradient-1)" fill-rule="nonzero" points="470.560351 160.65328 470.560351 116.645946 509.663253 116.645946 509.663253 198.211949"></polygon>
                        <polygon id="Path" fill="#4DC0B5" fill-rule="nonzero" points="475.199678 163.701981 475.199678 125.26184 504.361165 125.26184 504.361165 198.211949"></polygon>
                        <circle id="Oval" fill="#CBE0DD" fill-rule="nonzero" cx="541.475784" cy="36.4518581" r="36.4518581"></circle>
                        <circle id="Oval" fill="#FDB813" fill-rule="nonzero" cx="541.475784" cy="36.4518581" r="29.1614865"></circle>
                        <g id="f741385e-e577-4271-b030-1aa9bd75830a" transform="translate(0.000000, 64.950584)" fill="url(#linearGradient-2)" fill-rule="nonzero">
                            <path d="M229.640079,137.503037 C240.527995,125.049366 245.481894,108.486956 243.220293,92.1001991 C240.958692,75.7134422 231.703753,61.1120505 217.84956,52.0731363 C221.389405,46.5929844 223.267668,40.2055087 223.25769,33.6815169 C223.25769,15.2302491 208.630553,0.271732033 190.590197,0.271732033 C175.731094,0.271732033 163.20491,10.431859 159.248227,24.3233308 C150.718492,9.90827781 135.243021,0.271732033 117.567184,0.271732033 C90.6789678,0.271732033 68.8873843,22.5603864 68.8873843,50.0583427 C68.8811743,55.9160939 69.8902486,61.7306045 71.869809,67.2437369 C70.8822951,67.1642055 69.8815259,67.0913018 68.8873843,67.0913018 C47.3078843,67.0913018 29.7844819,84.9858504 29.7844819,107.055794 C29.7844819,108.414454 29.850758,109.759859 29.9833102,111.092008 C12.0474178,119.146145 0.550902729,137.022394 0.662761057,156.683342 C0.662761057,184.088511 22.3880685,206.310889 49.1834981,206.310889 C51.9993687,206.307291 54.8093947,206.054456 57.5806806,205.555342 C57.4348732,207.205617 57.3487143,208.869147 57.3487143,210.572443 C57.3487143,241.324556 81.725066,266.244372 111.794535,266.244372 C122.912586,266.241963 133.752133,262.766264 142.798497,256.302956 C150.077732,262.69914 159.433254,266.232192 169.123367,266.244372 C191.584339,266.244372 209.797013,247.620786 209.797013,224.64286 C209.797013,223.648719 209.717481,222.654577 209.651205,221.693574 L209.797013,221.693574 C233.855239,221.693574 253.353669,201.751093 253.353669,177.149403 C253.429794,160.55435 244.297206,145.285723 229.640079,137.503037 Z" id="Path"></path>
                        </g>
                        <path d="M223.350476,202.188516 C233.572845,190.498811 238.224243,174.950936 236.101127,159.56788 C233.978011,144.184824 225.289002,130.478146 212.282367,121.994428 C215.600436,116.860025 217.363459,110.875877 217.359116,104.76264 C217.359116,87.4446939 203.633335,73.4007871 186.693162,73.4007871 C172.77518,73.4007871 160.991288,82.9379187 157.273199,95.9744287 C149.159114,82.0531588 134.283518,73.4656541 118.170296,73.4007871 C92.9323554,73.4007871 72.4729216,94.3241537 72.4729216,120.132069 C72.466232,125.630471 73.4125186,131.088437 75.2697733,136.263673 C74.3419078,136.19077 73.4140423,136.117866 72.4729216,136.117866 C52.1924333,136.111238 35.7890971,152.898976 35.7890971,173.643397 C35.7890971,174.922526 35.8553732,176.181772 35.9746702,177.427763 C19.1299626,184.980712 8.32881681,201.761992 8.43032065,220.222244 C8.43032065,245.950628 28.8234784,266.801091 53.9752605,266.801091 C56.6177816,266.797666 59.2548139,266.560355 61.8554895,266.091937 C61.7229373,267.642798 61.6367783,269.213541 61.6367783,270.79754 C61.6367783,299.660784 84.51529,323.062877 112.742283,323.062877 C123.17246,323.076096 133.346483,319.832272 141.844121,313.784223 C148.683858,319.768447 157.463788,323.065631 166.551854,323.062877 C187.634283,323.062877 204.733518,305.579241 204.733518,284.012996 C204.733518,283.078503 204.660614,282.163892 204.594338,281.242655 L204.733518,281.242655 C227.313787,281.242655 245.619248,262.519655 245.619248,239.42906 C245.69954,223.840198 237.121382,209.49476 223.350476,202.188516 Z" id="aa86aca2-1def-4b5e-bdbf-3429bf39090e" fill="#00897B" fill-rule="nonzero"></path>
                        <rect id="Rectangle" fill="url(#linearGradient-3)" fill-rule="nonzero" x="130.855543" y="142.540021" width="11.8700505" height="295.266679"></rect>
                        <rect id="Rectangle" fill="#795548" fill-rule="nonzero" x="134.228997" y="146.688905" width="5.97147713" height="291.117794"></rect>
                        <polygon id="Rectangle" fill="#795548" fill-rule="nonzero" transform="translate(160.376287, 208.047455) rotate(-47.200000) translate(-160.376287, -208.047455) " points="124.318772 205.061716 196.433802 205.061716 196.433802 211.033194 124.318772 211.033194"></polygon>
                        <polygon id="Rectangle" fill="#795548" fill-rule="nonzero" transform="translate(110.474262, 261.135086) rotate(-53.400000) translate(-110.474262, -261.135086) " points="107.488523 229.494873 113.46 229.494873 113.46 292.775299 107.488523 292.775299"></polygon>
                        <g id="b1e29bf6-85c6-472a-ba69-b630e8d8f49d" transform="translate(133.877734, 119.959751)" fill="url(#linearGradient-4)" fill-rule="nonzero">
                            <path d="M21.2083538,115.320424 C13.19269,106.791059 8.72363591,95.5307488 8.70868029,83.8260185 C8.70868029,66.9653772 17.8746657,52.1858056 31.6468405,43.8548992 C28.5480753,39.3333093 26.8892509,33.9802507 26.8882161,28.4987255 C26.8882161,13.0630204 39.8385671,0.550091677 55.8177362,0.550091677 C68.9801708,0.550091677 80.0681633,9.04668843 83.5741693,20.6715174 C91.5927445,8.0574756 105.536671,0.455794933 120.483333,0.550091677 C144.296337,0.550091677 163.562801,19.2001878 163.562801,42.2046241 C163.562459,47.1178954 162.664012,51.9897223 160.911757,56.5799115 C161.786602,56.5136353 162.661446,56.4539869 163.562801,56.4539869 C182.67683,56.4539869 198.165556,71.4191315 198.165556,89.8836546 C198.164105,91.0104722 198.104377,92.1364607 197.986611,93.2571084 C213.269881,99.6196145 223.973472,114.299772 223.973472,131.399007 C223.973472,154.33054 204.753401,172.91436 181.000045,172.91436 C178.507164,172.901385 176.019748,172.67969 173.563866,172.251599 C173.68979,173.636769 173.769322,175.028568 173.769322,176.446876 C173.769322,202.17526 152.183194,223.032351 125.553455,223.032351 C115.792806,223.050269 106.247842,220.161631 98.1350297,214.734583 C91.5621613,220.12365 83.3187441,223.057351 74.8190957,223.032351 C54.936264,223.032351 38.7980323,207.450839 38.7980323,188.230768 C38.7980323,187.395689 38.8643084,186.580493 38.9239569,185.758669 L38.7980323,185.758669 C17.4968919,185.758669 0.225338759,169.070346 0.225338759,148.491615 C0.225338759,134.030169 8.76832879,121.497357 21.2083538,115.320424 Z" id="Path"></path>
                        </g>
                        <path d="M159.003005,235.12774 C151.342301,226.957549 147.077191,216.178668 147.073306,204.97874 C147.073306,188.840508 155.848263,174.697187 169.03058,166.724172 C166.048644,162.39201 164.451709,157.256857 164.450901,151.997621 C164.450901,137.224677 176.851161,125.241957 192.141058,125.241957 C204.733518,125.241957 215.337695,133.374035 218.711149,144.501793 C226.384577,132.447017 239.71358,125.18052 254.003175,125.26184 C276.795528,125.26184 295.266679,143.109995 295.266679,165.126917 C295.271099,169.830993 294.415319,174.49623 292.741559,178.892465 C293.576638,178.832816 294.411717,178.76654 295.266679,178.76654 C313.558884,178.76654 328.404731,193.095434 328.404731,210.764644 C328.405152,211.842662 328.349848,212.919982 328.239041,213.99229 C342.866178,220.083064 353.112464,234.133599 353.112464,250.497169 C353.112464,272.441188 334.700961,290.262833 311.981512,290.262833 C309.597441,290.249457 307.218668,290.036631 304.870086,289.626582 C304.989383,290.952104 305.062287,292.277626 305.062287,293.642914 C305.062287,318.271115 284.397397,338.233478 258.914235,338.233478 C249.558906,338.253627 240.409902,335.484698 232.635759,330.280345 C226.346572,335.442219 218.456833,338.254125 210.320594,338.233478 C191.279469,338.233478 175.857019,323.321354 175.857019,304.923107 C175.857019,304.127794 175.923295,303.345736 175.982944,302.55705 L175.857019,302.55705 C155.463861,302.55705 138.9346,286.584509 138.9346,266.88725 C138.901462,253.035544 147.073306,241.039569 159.003005,235.12774 Z" id="da8ae254-7852-462b-b033-1b79dc847a6a" fill="#009688" fill-rule="nonzero"></path>
                        <path d="M237.23532,188.489245 L237.23532,436.315487" id="d827a518-3361-4086-b50f-c6b47e6818cd" fill="#795548" fill-rule="nonzero"></path>
                        <rect id="Rectangle" fill="url(#linearGradient-5)" fill-rule="nonzero" x="230.263074" y="188.489245" width="13.5004427" height="247.819615"></rect>
                        <rect id="Rectangle" fill="#795548" fill-rule="nonzero" x="233.503976" y="188.489245" width="7.4626895" height="247.819615"></rect>
                        <path d="M237.990868,262.711855 L193.738312,217.5712" id="4a2b3956-f53f-4918-93e5-f7b78a79ae92" fill="#795548" fill-rule="nonzero"></path>
                        <polygon id="Rectangle" fill="#795548" fill-rule="nonzero" transform="translate(215.860445, 240.143278) rotate(-44.430000) translate(-215.860445, -240.143278) " points="212.129101 208.536203 219.59179 208.536203 219.59179 271.750353 212.129101 271.750353"></polygon>
                        <path d="M237.990868,301.509888 L283.867188,269.319583" id="100a92bc-a3f1-4f9a-a93f-0d91ae55d71b" fill="#795548" fill-rule="nonzero"></path>
                        <polygon id="Rectangle" fill="#795548" fill-rule="nonzero" transform="translate(260.927518, 285.403139) rotate(-35.060000) translate(-260.927518, -285.403139) " points="232.905981 281.671794 288.949056 281.671794 288.949056 289.134483 232.905981 289.134483"></polygon>
                        <path d="M539.62668,231.96637 L206.78145,231.96637 C199.179581,231.96637 193.02253,235.386217 193.02253,239.614633 L193.02253,483.961379 L553.405483,483.961379 L553.405483,239.614633 C553.405483,235.386217 547.22855,231.96637 539.62668,231.96637 Z" id="Path" fill="url(#linearGradient-6)" fill-rule="nonzero"></path>
                        <polygon id="Path" fill="#FFFFFF" fill-rule="nonzero" points="372.153589 92.1502974 198.516819 221.123599 198.516819 474.642959 546.830893 474.642959 546.830893 230.322723"></polygon>
                        <circle id="Oval" fill="url(#linearGradient-7)" fill-rule="nonzero" cx="372.498225" cy="208.484746" r="38.6654801"></circle>
                        <rect id="Rectangle" fill="url(#linearGradient-8)" fill-rule="nonzero" x="231.654872" y="283.051992" width="68.3505478" height="68.3505478"></rect>
                        <rect id="Rectangle" fill="url(#linearGradient-8)" fill-rule="nonzero" x="443.612486" y="283.051992" width="68.3505478" height="68.3505478"></rect>
                        <polygon id="Path" fill="url(#linearGradient-9)" fill-rule="nonzero" points="165.027503 285.451187 155.768731 233.663038 372.915764 66.7731765 587.869058 236.996726 581.904208 283.462904 372.882626 125.739028"></polygon>
                        <polygon id="Path" fill="#4DC0B5" fill-rule="nonzero" points="165.45167 275.052466 159.082537 239.269997 372.862743 72.4530388 584.555252 239.283252 578.146353 275.032584 372.829605 113.226099"></polygon>
                        <rect id="Rectangle" fill="url(#linearGradient-10)" fill-rule="nonzero" x="330.386387" y="360.376325" width="83.5410313" height="114.266634"></rect>
                        <rect id="Rectangle" fill="#4DC0B5" fill-rule="nonzero" x="332.798837" y="362.795403" width="78.7095032" height="111.847556"></rect>
                        <rect id="Rectangle" fill="#4DC0B5" fill-rule="nonzero" x="234.763222" y="285.464443" width="63.5190197" height="22.4410894"></rect>
                        <rect id="Rectangle" fill="#4DC0B5" fill-rule="nonzero" opacity="0.2" x="234.763222" y="307.905532" width="63.5190197" height="41.0779303"></rect>
                        <rect id="Rectangle" fill="#4DC0B5" fill-rule="nonzero" x="446.031564" y="285.464443" width="63.5190197" height="22.4410894"></rect>
                        <rect id="Rectangle" fill="#4DC0B5" fill-rule="nonzero" opacity="0.2" x="446.031564" y="307.905532" width="63.5190197" height="41.0779303"></rect>
                        <path d="M372.153589,243.352605 C381.498268,243.352609 390.459729,239.638183 397.064306,233.027391 C403.668883,226.416598 407.374878,217.451647 407.366099,208.106972 L336.941078,208.106972 C336.9323,217.451647 340.638294,226.416598 347.242871,233.027391 C353.847449,239.638183 362.80891,243.352609 372.153589,243.352605 Z" id="Path" fill="#4DC0B5" fill-rule="nonzero"></path>
                        <path d="M372.153589,243.007969 C391.600913,243.007969 407.366084,227.242798 407.366084,207.795474 L336.941094,207.795474 C336.941094,227.242798 352.706265,243.007969 372.153589,243.007969 L372.153589,243.007969 Z" id="Path" fill="#000000" fill-rule="nonzero" opacity="0.2"></path>
                        <path d="M372.153589,172.927615 C352.719199,172.927606 336.959383,188.67259 336.941094,208.106972 L407.366084,208.106972 C407.347794,188.67259 391.587979,172.927606 372.153589,172.927615 L372.153589,172.927615 Z" id="Path" fill="#4DC0B5" fill-rule="nonzero" opacity="0.2"></path>
                        <path d="M372.153589,172.927615 C352.719199,172.927606 336.959383,188.67259 336.941094,208.106972 L407.366084,208.106972 C407.347794,188.67259 391.587979,172.927606 372.153589,172.927615 L372.153589,172.927615 Z" id="Path" fill="#4DC0B5" fill-rule="nonzero" opacity="0.2"></path>
                        <circle id="Oval" fill="url(#linearGradient-7)" fill-rule="nonzero" cx="393.209508" cy="418.374545" r="8.28451321"></circle>
                        <circle id="Oval" fill="#263238" fill-rule="nonzero" cx="393.209508" cy="418.374545" r="6.21669872"></circle>
                        <rect id="Rectangle" fill="url(#linearGradient-11)" fill-rule="nonzero" x="320.027432" y="458.418568" width="101.488601" height="33.1380529"></rect>
                        <rect id="Rectangle" fill="#FFFFFF" fill-rule="nonzero" x="322.095246" y="461.175654" width="97.3463441" height="28.3065248"></rect>
                        <g id="06ed4a51-c0d7-4f18-ace3-f8895d5abf4f" transform="translate(119.296990, 318.125307)" fill="url(#linearGradient-12)" fill-rule="nonzero">
                            <path d="M105.730271,63.8702831 C110.746398,58.1294732 113.028241,50.4964344 111.985892,42.9444856 C110.943542,35.3925368 106.679322,28.6630113 100.295631,24.4956487 C101.927481,21.9700275 102.793003,19.0258714 102.787612,16.0189348 C102.978156,8.42305623 97.4654283,1.88156195 89.947114,0.78218581 C82.4287998,-0.317190333 75.2738559,4.37195576 73.2814901,11.7043603 C69.2946105,4.86128839 61.9811527,0.642179797 54.0614194,0.616367783 C41.6677877,0.616367783 31.62033,10.8891642 31.62033,23.5677832 C31.612934,26.2783292 32.0771606,28.9694978 32.9922454,31.5209159 C32.5349403,31.4877778 32.0842628,31.4480122 31.62033,31.4480122 C21.6789142,31.4480122 13.6064845,39.6927597 13.6064845,49.8661419 C13.6064845,50.4957649 13.6064845,51.1121327 13.6992711,51.7285005 C5.42763797,55.4385598 0.123573518,63.6792205 0.172317875,72.7446536 C0.172317875,85.3768794 10.1866374,95.6165377 22.5405036,95.6165377 C23.8385168,95.6139111 25.1337487,95.4963643 26.4110281,95.2652744 C26.344752,96.0274496 26.3049864,96.7962524 26.3049864,97.5783105 C26.3049864,111.754769 37.5719243,123.247046 51.4037476,123.247046 C56.526822,123.248089 61.5223538,121.649333 65.692876,118.673995 C69.0497718,121.619091 73.3623468,123.244256 77.8280309,123.247046 C88.1803587,123.247046 96.5775413,114.631152 96.5775413,104.073369 C96.5775413,103.616064 96.5444032,103.165386 96.5112651,102.714709 L96.5775413,102.714709 C107.665534,102.714709 116.652574,93.5222128 116.652574,82.1691159 C116.69803,74.5129637 112.490678,67.4641168 105.730271,63.8702831 L105.730271,63.8702831 Z" id="Path"></path>
                        </g>
                        <path d="M222.124368,381.876294 C226.83425,376.487523 228.976832,369.321642 227.997979,362.231953 C227.019127,355.142265 223.014973,348.825045 217.021108,344.914109 C218.552309,342.544476 219.364856,339.782274 219.360655,336.960977 C219.540546,329.830201 214.365606,323.688762 207.307601,322.65683 C200.249596,321.624899 193.53301,326.027711 191.66387,332.911507 C187.924001,326.496132 181.069206,322.538049 173.643397,322.506158 C162.01194,322.506158 152.580851,332.149331 152.580851,344.045892 C152.5788,346.580669 153.016065,349.096625 153.873235,351.482071 C153.449068,351.482071 153.018273,351.415795 152.580851,351.415795 C143.242547,351.415795 135.673816,359.156845 135.673816,368.707231 C135.673816,369.297089 135.673816,369.880318 135.759975,370.450293 C127.996221,373.931818 123.017117,381.665541 123.061473,390.174062 C123.061473,402.030857 132.459425,411.64752 144.057743,411.64752 C145.275596,411.646605 146.490979,411.537931 147.689674,411.322767 C147.630025,412.038549 147.59026,412.760959 147.59026,413.489996 C147.59026,426.798238 158.134788,437.58136 171.144788,437.58136 C175.954437,437.582217 180.644241,436.080739 184.559072,433.286669 C187.710428,436.052119 191.759232,437.57837 195.951934,437.58136 C205.674639,437.58136 213.54824,429.522186 213.54824,419.58077 C213.54824,419.149975 213.515102,418.725808 213.481964,418.301641 L213.54824,418.301641 C223.953589,418.301641 232.397165,409.685748 232.397165,399.02855 C232.427548,391.846049 228.470821,385.239592 222.124368,381.876294 L222.124368,381.876294 Z" id="78683fa5-7813-42ce-9e3f-16828d09ffb2" fill="#00897B" fill-rule="nonzero"></path>
                        <rect id="Rectangle" fill="url(#linearGradient-13)" fill-rule="nonzero" x="179.48895" y="354.384965" width="5.47440633" height="136.104611"></rect>
                        <rect id="Rectangle" fill="#795548" fill-rule="nonzero" x="181.046438" y="356.293717" width="2.75045839" height="134.195859"></rect>
                        <polygon id="Rectangle" fill="#795548" fill-rule="nonzero" transform="translate(193.104548, 384.552449) rotate(-47.200000) translate(-193.104548, -384.552449) " points="176.4825 383.17722 209.726595 383.17722 209.726595 385.927678 176.4825 385.927678"></polygon>
                        <polygon id="Rectangle" fill="#795548" fill-rule="nonzero" transform="translate(170.094421, 409.060051) rotate(-53.400000) translate(-170.094421, -409.060051) " points="168.719192 394.475994 171.46965 394.475994 171.46965 423.644108 168.719192 423.644108"></polygon>
                        <g id="972b0d41-b6e5-4c12-bd64-332f8d6d9bc4" transform="translate(180.933769, 343.972989)" fill="url(#linearGradient-14)" fill-rule="nonzero">
                            <path d="M9.73595993,53.1600644 C6.03851108,49.2287967 3.97885923,44.0358195 3.97656634,38.6389696 C4.02593559,31.0601093 8.05238299,24.0641569 14.5807433,20.2142122 C13.1443358,18.1281979 12.3747638,15.6553989 12.3737489,13.1226689 C12.3737489,6.00461518 18.3385985,0.238593981 25.7085014,0.238593981 C31.5537557,0.171136068 36.7531136,3.94073785 38.5064174,9.51724878 C42.2014641,3.70124775 48.6291092,0.195714731 55.5194938,0.238593981 C66.4948169,0.238593981 75.4023255,8.85448772 75.4023255,19.4586646 C75.4037235,21.723779 74.9904167,23.9700112 74.1828451,26.0862752 C74.5871294,26.0862752 74.9914136,26.0266267 75.4023255,26.0266267 C84.2104199,26.0266267 91.3549841,32.9259693 91.3549841,41.4358213 C91.355382,41.9560091 91.3288359,42.4758683 91.2754528,42.9933098 C98.4569926,45.8918056 103.184238,52.8322492 103.251545,60.5763606 C103.251545,71.1473995 94.3838022,79.7169 83.4416171,79.7169 C82.2933246,79.715433 81.1471681,79.6178878 80.0151424,79.4252851 C80.0747909,80.0880462 80.107929,80.7044139 80.107929,81.3605474 C80.107929,93.2173427 70.1665131,102.834006 57.8789231,102.834006 C53.3729795,102.846259 48.9656921,101.514843 45.2201869,99.0098743 C42.1842317,101.486084 38.3812511,102.828726 34.463575,102.807495 C25.2909619,102.807495 17.8614105,95.6231653 17.8614105,86.76205 C17.8614105,86.3776486 17.8614105,85.9998748 17.921059,85.622101 L17.8614105,85.622101 C8.03929162,85.622101 0.0795313269,77.9274451 0.0795313269,68.4433344 C0.126679755,61.9261072 3.8703372,56.0010049 9.73595993,53.1600644 L9.73595993,53.1600644 Z" id="Path"></path>
                        </g>
                        <path d="M192.465811,397.060149 C188.924069,393.291264 186.952147,388.314056 186.951639,383.142167 C186.992895,375.893864 190.834776,369.198877 197.072,365.506095 C195.696666,363.509971 194.959449,361.14348 194.957793,358.719422 C194.957793,351.906239 200.670793,346.385439 207.722571,346.385439 C213.312354,346.328753 218.283169,349.930441 219.970395,355.259809 C223.509025,349.695937 229.660739,346.343416 236.254434,346.385439 C246.759197,346.385439 255.275676,354.610304 255.275676,364.763803 C255.276544,366.931422 254.881229,369.080947 254.109217,371.106426 C254.493618,371.106426 254.87802,371.046778 255.275676,371.046778 C263.705997,371.046778 270.519181,377.674388 270.519181,385.799839 C270.518441,386.29795 270.491895,386.795688 270.439649,387.291051 C277.314165,390.063795 281.840113,396.706213 281.905416,404.118555 C281.905416,414.232288 273.415447,422.43727 262.943822,422.43727 C261.83335,422.438029 260.724801,422.344911 259.630017,422.158911 C259.689665,422.768651 259.722803,423.385019 259.722803,424.008014 C259.722803,435.361111 250.198927,444.553607 238.448173,444.553607 C234.135823,444.565869 229.917737,443.292136 226.332901,440.895166 C223.432784,443.271582 219.796236,444.564993 216.046849,444.553607 C207.271893,444.553607 200.140584,437.680775 200.140584,429.197433 C200.140584,428.832914 200.140584,428.468396 200.200233,428.110505 L200.140584,428.110505 C190.742632,428.110505 183.12088,420.74723 183.12088,411.667403 C183.192546,405.413807 186.818161,399.746533 192.465811,397.060149 Z" id="b9cc99c1-468f-47c5-9d53-f370b6656f3a" fill="#009688" fill-rule="nonzero"></path>
                        <path d="M228.52664,375.560181 L228.52664,489.800304" id="7a451371-7fbb-4ddd-b5af-3dcf3eef4c8e" fill="#795548" fill-rule="nonzero"></path>
                        <rect id="Rectangle" fill="url(#linearGradient-15)" fill-rule="nonzero" x="225.312249" y="375.560181" width="6.22332633" height="114.233496"></rect>
                        <rect id="Rectangle" fill="#795548" fill-rule="nonzero" x="226.810089" y="375.560181" width="3.43972989" height="114.233496"></rect>
                        <path d="M228.877903,409.778534 L208.478118,388.967837" id="f8907fab-e671-432b-8785-92f5b3540283" fill="#795548" fill-rule="nonzero"></path>
                        <polygon id="Rectangle" fill="#795548" fill-rule="nonzero" transform="translate(218.676419, 399.375556) rotate(-44.430000) translate(-218.676419, -399.375556) " points="216.956554 384.804755 220.396284 384.804755 220.396284 413.946358 216.956554 413.946358"></polygon>
                        <path d="M228.877903,427.659827 L250.026609,412.820607" id="83bfd14d-9fcf-4efd-aa6d-a51063723d88" fill="#795548" fill-rule="nonzero"></path>
                        <polygon id="Rectangle" fill="#795548" fill-rule="nonzero" transform="translate(239.454545, 420.228167) rotate(-35.060000) translate(-239.454545, -420.228167) " points="226.537332 418.508302 252.371758 418.508302 252.371758 421.948032 226.537332 421.948032"></polygon>
                        <polyline id="Path" stroke="#37474F" points="59.7943026 333.87251 104.57044 380.411592 155.231895 333.87251"></polyline>
                        <rect id="Rectangle" fill="url(#linearGradient-16)" fill-rule="nonzero" x="15.6146505" y="310.304727" width="30.0429587" height="185.573096"></rect>
                        <rect id="Rectangle" fill="#F5F5F5" fill-rule="nonzero" x="17.9674523" y="313.837243" width="25.3307276" height="175.558776"></rect>
                        <rect id="Rectangle" fill="url(#linearGradient-17)" fill-rule="nonzero" x="7.95313269" y="317.966245" width="180.271008" height="32.4023881"></rect>
                        <polygon id="Rectangle" fill="#F5F5F5" fill-rule="nonzero" transform="translate(98.091950, 334.164125) rotate(-90.000000) translate(-98.091950, -334.164125) " points="85.4265865 246.384737 110.757314 246.384737 110.757314 421.943513 85.4265865 421.943513"></polygon>
                        <circle id="Oval" fill="url(#linearGradient-7)" fill-rule="nonzero" cx="30.9310585" cy="333.87251" r="5.30208846"></circle>
                        <circle id="Oval" fill="url(#linearGradient-7)" fill-rule="nonzero" cx="172.907732" cy="333.87251" r="5.30208846"></circle>
                        <circle id="Oval" fill="#E6E6E6" fill-rule="nonzero" cx="30.9310585" cy="333.87251" r="4.12237378"></circle>
                        <circle id="Oval" fill="#E6E6E6" fill-rule="nonzero" cx="172.907732" cy="333.87251" r="4.12237378"></circle>
                        <rect id="Rectangle" fill="url(#linearGradient-18)" fill-rule="nonzero" x="50.9596977" y="377.462305" width="113.703287" height="77.1718975"></rect>
                        <rect id="Rectangle" fill="#4DC0B5" fill-rule="nonzero" x="51.8411699" y="378.350405" width="111.933715" height="74.2292384"></rect>
                        <rect id="Rectangle" fill="#FFFFFF" fill-rule="nonzero" x="64.8047762" y="390.127669" width="78.9414695" height="7.07166048"></rect>
                        <rect id="Rectangle" fill="#FFFFFF" fill-rule="nonzero" x="79.239712" y="403.972747" width="55.9635437" height="7.07166048"></rect>
                        <rect id="Rectangle" fill="#FFFFFF" fill-rule="nonzero" x="72.1680515" y="417.817826" width="67.7474353" height="7.07166048"></rect>
                        <rect id="Rectangle" fill="#FFFFFF" fill-rule="nonzero" x="65.6862484" y="431.662904" width="78.9414695" height="7.07166048"></rect>
                        <g id="63650477-b8a1-43d8-a2c1-7cd9fae56092" transform="translate(477.850722, 345.298511)" fill="url(#linearGradient-19)" fill-rule="nonzero">
                            <path d="M10.431859,57.9717097 C5.87463886,52.7523757 3.80241097,45.814509 4.75062067,38.9507927 C5.69883036,32.0870764 9.57445097,25.970894 15.3760565,22.1826126 C13.8919866,19.8861208 13.1047297,17.2089868 13.1094137,14.4747015 C12.9253563,7.56171776 17.9391577,1.60284968 24.7818044,0.602146407 C31.6244512,-0.398556868 38.1346908,3.87497714 39.9379813,10.551156 C43.5620984,4.33095909 50.2094421,0.495371182 57.4083628,0.470560351 C68.6753007,0.470560351 77.8081481,9.81549126 77.8081481,21.3342784 C77.8121848,23.7896364 77.3906152,26.2271157 76.5621573,28.5384911 C76.9730692,28.5384911 77.3906086,28.472215 77.8081481,28.472215 C86.8548365,28.472215 94.1849738,35.9680426 94.1849738,45.2201869 C94.1849738,45.7901614 94.1849738,46.3535083 94.0988149,46.9102276 C101.620391,50.2823158 106.443899,57.7748668 106.39966,66.0176289 C106.39966,77.503278 97.2933232,86.8150709 86.0661509,86.8150709 C84.8859743,86.8130942 83.7082898,86.7066368 82.5468897,86.4969456 C82.6065382,87.1597066 82.6463038,87.8887438 82.6463038,88.5978981 C82.6463038,101.488601 72.4331559,111.933715 59.8274406,111.933715 C55.1680601,111.93641 50.6242108,110.483583 46.8306963,107.778203 C43.7760132,110.456761 39.8518256,111.933631 35.7890971,111.933715 C26.3778901,111.933715 18.7428827,104.12639 18.7428827,94.4964715 C18.7428827,94.0789321 18.7428827,93.6680202 18.8025312,93.2571084 L18.7428827,93.2571084 C8.66228702,93.2571084 0.490443182,84.8996914 0.490443182,74.5871294 C0.459430473,67.6316587 4.28810606,61.2326656 10.431859,57.9717097 L10.431859,57.9717097 Z" id="Path"></path>
                        </g>
                        <path d="M490.92037,403.164179 C486.638659,398.265296 484.690858,391.750859 485.580724,385.305688 C486.47059,378.860516 490.110729,373.117589 495.559698,369.562193 C494.165789,367.408601 493.426753,364.896799 493.432235,362.33147 C493.264307,355.845124 497.969891,350.256347 504.390052,349.316976 C510.810213,348.377605 516.919717,352.383964 518.617155,358.646518 C522.017989,352.807621 528.256807,349.206557 535.013863,349.182291 C545.61804,349.182291 554.16103,357.950619 554.16103,368.76688 C554.163487,371.071117 553.766585,373.358349 552.987943,375.527043 C553.378972,375.527043 553.763374,375.467394 554.16103,375.467394 C562.651,375.467394 569.530459,382.505917 569.530459,391.188086 C569.530459,391.724923 569.530459,392.255132 569.450928,392.772085 C576.510773,395.937033 581.038084,402.969698 580.996226,410.7064 C580.996226,421.489522 572.453236,430.224713 561.908707,430.224713 C560.797455,430.223592 559.688497,430.123786 558.594902,429.92647 C558.65455,430.589231 558.687688,431.251992 558.687688,431.914753 C558.687688,444.010143 549.097536,453.819006 537.267251,453.819006 C532.894952,453.81968 528.631584,452.454938 525.072448,449.915344 C522.208682,452.427982 518.529909,453.815176 514.72012,453.819006 C505.885515,453.819006 498.721068,446.495497 498.721068,437.455436 C498.721068,437.064407 498.721068,436.680005 498.780716,436.295604 L498.721068,436.295604 C489.25684,436.295604 481.588695,428.448513 481.588695,418.772202 C481.555538,412.239229 485.149924,406.227312 490.92037,403.164179 L490.92037,403.164179 Z" id="d9fb3d72-af8e-4f1d-b977-47710d21b422" fill="#00897B" fill-rule="nonzero"></path>
                        <rect id="Rectangle" fill="url(#linearGradient-20)" fill-rule="nonzero" x="524.701301" y="378.164832" width="4.97733554" height="123.744117"></rect>
                        <rect id="Rectangle" fill="#795548" fill-rule="nonzero" x="525.761719" y="379.901266" width="2.5052368" height="122.007683"></rect>
                        <polygon id="Rectangle" fill="#795548" fill-rule="nonzero" transform="translate(517.310306, 405.672053) rotate(-42.800000) translate(-517.310306, -405.672053) " points="516.057688 390.5611 518.562925 390.5611 518.562925 420.783005 516.057688 420.783005"></polygon>
                        <polygon id="Rectangle" fill="#795548" fill-rule="nonzero" transform="translate(538.224223, 427.853761) rotate(-36.600000) translate(-538.224223, -427.853761) " points="524.962374 426.601143 551.486072 426.601143 551.486072 429.10638 524.962374 429.10638"></polygon>
                        <g id="ea5e6e86-8f22-4c0d-a253-147f504d396e" transform="translate(434.108492, 368.495148)" fill="url(#linearGradient-21)" fill-rule="nonzero">
                            <path d="M85.4033898,48.5339922 C88.762751,44.9583853 90.6348165,40.2379364 90.6392022,35.331792 C90.6084643,28.4394315 86.9593765,22.0698858 81.0291669,18.5573096 C82.329077,16.6584129 83.0223644,14.4098509 83.01745,12.1086445 C83.01745,5.6400966 77.589437,0.391029024 70.8955503,0.391029024 C65.5860495,0.336508914 60.8646209,3.75853583 59.2640937,8.82134967 C55.9029493,3.53562207 50.0590024,0.350746121 43.7952507,0.391029024 C33.8140691,0.391029024 25.7283842,8.20498189 25.7283842,17.8481553 C25.7271384,19.9069875 26.1022398,21.9487073 26.8351952,23.8726533 C26.4706766,23.8726533 26.0995304,23.8196324 25.7283842,23.8196324 C17.7222307,23.8196324 11.2271723,30.089352 11.2271723,37.8304011 C11.2271637,38.3019025 11.2514974,38.77309 11.300076,39.2420822 C4.76975695,41.8760152 0.471101756,48.1866398 0.410911855,55.2278789 C0.410911855,64.8379142 8.47671392,72.6253566 18.4181298,72.6253566 C19.4620316,72.6240118 20.5039911,72.5353344 21.5331067,72.3602522 C21.4800859,72.9368543 21.4469478,73.5267117 21.4469478,74.116569 C21.4469478,84.8996914 30.4936362,93.6415098 41.6545324,93.6415098 C45.7503477,93.6513519 49.7561118,92.4399314 53.1600644,90.1620142 C55.9172087,92.4421075 59.3845025,93.6869574 62.9623004,93.6812754 C71.2998345,93.6812754 78.0599973,87.153079 78.0599973,79.1005322 C78.0599973,78.7492688 78.0599973,78.4377711 78.0069764,78.0666249 L78.0599973,78.0666249 C86.9873888,78.0666249 94.2247395,71.0744958 94.2247395,62.4453468 C94.1808352,56.5045297 90.7582463,51.1070736 85.4033898,48.5339922 L85.4033898,48.5339922 Z" id="Path"></path>
                        </g>
                        <path d="M517.88149,416.969492 C521.106298,413.550153 522.907419,409.030759 522.918474,404.330638 C522.88101,397.741731 519.388908,391.655712 513.719351,388.298448 C514.969667,386.48357 515.63986,384.33202 515.641358,382.128143 C515.641358,375.937954 510.445311,370.914226 504.036412,370.914226 C498.953043,370.86197 494.432973,374.13902 492.902026,378.986655 C489.685135,373.926711 484.091779,370.877156 478.095944,370.914226 C468.545557,370.914226 460.804508,378.396798 460.804508,387.622432 C460.803719,389.592994 461.163096,391.547108 461.864926,393.388453 C461.513662,393.388453 461.162399,393.335432 460.804508,393.335432 C453.136362,393.335432 446.926291,399.340047 446.926291,406.743088 C446.928191,407.185877 446.952524,407.628285 446.999195,408.068611 C440.749649,410.58895 436.634602,416.626793 436.573964,423.365136 C436.573964,432.564259 444.288502,440.020321 453.805751,440.020321 C454.805181,440.019805 455.802812,439.93556 456.788176,439.768472 C456.735155,440.325191 456.708645,440.88191 456.708645,441.451885 C456.708645,451.771075 465.370932,460.141747 476.048012,460.141747 C479.967464,460.156517 483.802385,459.00281 487.063101,456.827942 C489.701252,458.984339 493.00736,460.155887 496.414659,460.141747 C504.367792,460.141747 510.86285,453.89191 510.86285,446.183999 C510.86285,445.852618 510.86285,445.521238 510.80983,445.196485 L510.86285,445.196485 C519.405841,445.196485 526.338321,438.502598 526.338321,430.244596 C526.277586,424.570112 522.998561,419.422865 517.88149,416.969492 L517.88149,416.969492 Z" id="79f8c247-f548-4c1c-8f49-a16aaa215201" fill="#009688" fill-rule="nonzero"></path>
                        <path d="M485.094701,397.424668 L485.094701,501.285953" id="86901f0c-b7b5-4ba8-942f-e54f281a8bcd" fill="#795548" fill-rule="nonzero"></path>
                        <rect id="Rectangle" fill="url(#linearGradient-22)" fill-rule="nonzero" x="482.364125" y="397.424668" width="5.65997943" height="103.861285"></rect>
                        <rect id="Rectangle" fill="#795548" fill-rule="nonzero" x="483.530584" y="397.424668" width="3.12823219" height="103.861285"></rect>
                        <path d="M484.783203,428.528044 L503.327257,409.612844" id="63650f42-d3c3-489e-a647-f3904e46b7bd" fill="#795548" fill-rule="nonzero"></path>
                        <polygon id="Rectangle" fill="#795548" fill-rule="nonzero" transform="translate(494.053939, 419.073992) rotate(-45.570000) translate(-494.053939, -419.073992) " points="480.808659 417.509876 507.299219 417.509876 507.299219 420.638108 480.808659 420.638108"></polygon>
                        <path d="M484.783203,444.785573 L465.549877,431.298386" id="25077b7e-584e-4c29-8c8c-a60ca5d6c1ae" fill="#795548" fill-rule="nonzero"></path>
                        <polygon id="Rectangle" fill="#795548" fill-rule="nonzero" transform="translate(475.166566, 438.053649) rotate(-54.940000) translate(-475.166566, -438.053649) " points="473.60245 426.309523 476.730682 426.309523 476.730682 449.797775 473.60245 449.797775"></polygon>
                    </g>
                </g>
            </g>
        </g>
    </g>
</svg>
