<svg width="36px" height="26px" viewBox="0 0 36 26" version="1.1" xmlns="http://www.w3.org/2000/svg" xmlns:xlink="http://www.w3.org/1999/xlink">
    <!-- Generator: Sketch 50.2 (55047) - http://www.bohemiancoding.com/sketch -->
    <desc>Created with Sketch.</desc>
    <defs>
        <rect id="path-1" x="15" y="18" width="30" height="10" rx="2"></rect>
        <filter x="-16.7%" y="-40.0%" width="133.3%" height="200.0%" filterUnits="objectBoundingBox" id="filter-2">
            <feOffset dx="0" dy="1" in="SourceAlpha" result="shadowOffsetOuter1"></feOffset>
            <feGaussianBlur stdDeviation="1.5" in="shadowOffsetOuter1" result="shadowBlurOuter1"></feGaussianBlur>
            <feColorMatrix values="0 0 0 0 0   0 0 0 0 0   0 0 0 0 0  0 0 0 0.2 0" type="matrix" in="shadowBlurOuter1"></feColorMatrix>
        </filter>
    </defs>
    <g id="Page-1" stroke="none" stroke-width="1" fill="none" fill-rule="evenodd">
        <g id="Fin" transform="translate(-113.000000, -3183.000000)">
            <g id="Advanced-Tab-2" transform="translate(0.000000, 2893.000000)">
                <g id="Tabs" transform="translate(71.000000, 274.000000)">
                    <g id="Group-32" transform="translate(30.000000, 0.000000)">
                        <g id="Group-29">
                            <g id="Rectangle-19">
                                <use fill="black" fill-opacity="1" filter="url(#filter-2)" xlink:href="#path-1"></use>
                                <use fill="#FFFFFF" fill-rule="evenodd" xlink:href="#path-1"></use>
                            </g>
                            <path d="M41.9999994,33.9999995 C41.4477146,33.9999996 40.9999993,33.5522844 40.9999993,32.9999996 C40.9999992,32.4477149 41.4477144,31.9999996 41.9999992,31.9999995 C43.6568536,31.9999994 44.9999994,33.3431451 44.9999995,34.9999996 C44.9999996,35.5522844 44.5522844,35.9999996 43.9999996,35.9999997 C43.4477149,35.9999997 42.9999996,35.5522845 42.9999995,34.9999998 C42.9999995,34.4477147 42.5522842,33.9999995 41.9999994,33.9999995 Z M42.9999995,38.9999995 C42.9999995,38.4477147 43.4477147,37.9999994 43.9999995,37.9999994 C44.5522842,37.9999993 44.9999995,38.4477146 44.9999995,38.9999993 C44.9999997,40.6568537 43.6568539,41.9999994 41.9999994,41.9999995 C41.4477146,41.9999996 40.9999993,41.5522844 40.9999993,40.9999996 C40.9999992,40.4477149 41.4477144,39.9999996 41.9999992,39.9999995 C42.5522844,39.9999995 42.9999996,39.5522843 42.9999995,38.9999995 Z M17.9999997,39.9999995 C18.5522845,39.9999995 18.9999998,40.4477147 18.9999998,40.9999995 C18.9999998,41.5522842 18.5522846,41.9999995 17.9999999,41.9999995 C16.3431455,41.9999997 14.9999997,40.656854 14.9999995,38.9999995 C14.9999995,38.4477147 15.4477147,37.9999994 15.9999995,37.9999994 C16.5522842,37.9999993 16.9999995,38.4477146 16.9999995,38.9999993 C16.9999996,39.5522844 17.4477148,39.9999996 17.9999997,39.9999995 Z M16.9999995,34.9999996 C16.9999996,35.5522844 16.5522844,35.9999996 15.9999996,35.9999997 C15.4477149,35.9999997 14.9999996,35.5522845 14.9999995,34.9999998 C14.9999994,33.3431454 16.3431451,31.9999997 17.9999997,31.9999995 C18.5522845,31.9999995 18.9999998,32.4477147 18.9999998,32.9999995 C18.9999998,33.5522842 18.5522846,33.9999995 17.9999999,33.9999995 C17.4477147,33.9999996 16.9999995,34.4477148 16.9999995,34.9999996 Z M23,34 C22.4477153,34 22,33.5522847 22,33 C22,32.4477153 22.4477153,32 23,32 L25,32 C25.5522847,32 26,32.4477153 26,33 C26,33.5522847 25.5522847,34 25,34 L23,34 Z M29,34 C28.4477153,34 28,33.5522847 28,33 C28,32.4477153 28.4477153,32 29,32 L31,32 C31.5522847,32 32,32.4477153 32,33 C32,33.5522847 31.5522847,34 31,34 L29,34 Z M35,34 C34.4477153,34 34,33.5522847 34,33 C34,32.4477153 34.4477153,32 35,32 L37,32 C37.5522847,32 38,32.4477153 38,33 C38,33.5522847 37.5522847,34 37,34 L35,34 Z M23,42 C22.4477153,42 22,41.5522847 22,41 C22,40.4477153 22.4477153,40 23,40 L25,40 C25.5522847,40 26,40.4477153 26,41 C26,41.5522847 25.5522847,42 25,42 L23,42 Z M29,42 C28.4477153,42 28,41.5522847 28,41 C28,40.4477153 28.4477153,40 29,40 L31,40 C31.5522847,40 32,40.4477153 32,41 C32,41.5522847 31.5522847,42 31,42 L29,42 Z M35,42 C34.4477153,42 34,41.5522847 34,41 C34,40.4477153 34.4477153,40 35,40 L37,40 C37.5522847,40 38,40.4477153 38,41 C38,41.5522847 37.5522847,42 37,42 L35,42 Z" id="Combined-Shape" fill="#B7A1FF" fill-rule="nonzero"></path>
                            <path d="M19,23 L32,23" id="Path-9" stroke="#C6C6DE" stroke-width="2" stroke-linecap="round" stroke-linejoin="round"></path>
                        </g>
                    </g>
                </g>
            </g>
        </g>
    </g>
</svg>
