<?xml version="1.0" encoding="UTF-8"?>
<svg width="160px" height="162px" viewBox="0 0 160 162" version="1.1" xmlns="http://www.w3.org/2000/svg" xmlns:xlink="http://www.w3.org/1999/xlink">
    <!-- Generator: Sketch 52.6 (67491) - http://www.bohemiancoding.com/sketch -->
    <title>s1</title>
    <desc>Created with Sketch.</desc>
    <g id="Page-1" stroke="none" stroke-width="1" fill="none" fill-rule="evenodd">
        <g id="s1">
            <g>
                <g id="Group" transform="translate(0.000000, 5.000000)">
                    <g id="path-1-link" fill="#000000">
                        <polygon id="path-1" points="0.519 156.664 110.732 156.664 110.732 0.01 0.519 0.01"></polygon>
                    </g>
                    <g id="path-1-link" fill="#C3A6FB">
                        <polygon id="path-1" points="0.519 156.664 110.732 156.664 110.732 0.01 0.519 0.01"></polygon>
                    </g>
                </g>
                <path d="M14.903,30.131 C14.328,30.131 13.863,29.665 13.863,29.091 L13.863,5.203 C13.863,4.628 14.328,4.163 14.903,4.163 C15.477,4.163 15.943,4.628 15.943,5.203 L15.943,29.091 C15.943,29.665 15.477,30.131 14.903,30.131" id="Fill-68" fill="#CC6D5C"></path>
                <path d="M8.346,30.131 C7.771,30.131 7.306,29.665 7.306,29.091 L7.306,11.965 C7.306,11.39 7.771,10.925 8.346,10.925 C8.919,10.925 9.385,11.39 9.385,11.965 L9.385,29.091 C9.385,29.665 8.919,30.131 8.346,30.131" id="Fill-69" fill="#CC6D5C"></path>
                <path d="M14.903,7.547 C14.328,7.547 13.863,7.081 13.863,6.507 L13.863,5.203 C13.863,3.712 12.527,2.498 10.886,2.498 C9.626,2.498 8.498,3.228 8.081,4.313 C7.875,4.85 7.273,5.115 6.737,4.909 C6.201,4.702 5.933,4.102 6.14,3.565 C6.865,1.683 8.772,0.419 10.886,0.419 C13.674,0.419 15.943,2.565 15.943,5.203 L15.943,6.507 C15.943,7.081 15.477,7.547 14.903,7.547" id="Fill-70" fill="#CC6D5C"></path>
                <path d="M11.624,33.188 C9.242,33.188 7.306,31.35 7.306,29.091 C7.306,28.516 7.771,28.051 8.346,28.051 C8.919,28.051 9.385,28.516 9.385,29.091 C9.385,30.204 10.389,31.109 11.624,31.109 C12.858,31.109 13.863,30.204 13.863,29.091 C13.863,28.516 14.328,28.051 14.903,28.051 C15.477,28.051 15.943,28.516 15.943,29.091 C15.943,31.35 14.004,33.188 11.624,33.188" id="Fill-71" fill="#CC6D5C"></path>
                <polygon id="Fill-72" fill="#F3F3F3" points="18.042 84.465 93.207 84.465 93.207 79.267 18.042 79.267"></polygon>
                <polygon id="Fill-73" fill="#F3F3F3" points="18.042 98.561 93.207 98.561 93.207 93.362 18.042 93.362"></polygon>
                <polygon id="Fill-74" fill="#F3F3F3" points="18.042 112.656 93.185 112.656 93.185 107.457 18.042 107.457"></polygon>
                <polygon id="Fill-75" fill="#F3F3F3" points="18 70.199 92.18 70.199 92.18 65 18 65"></polygon>
                <polygon id="Fill-75-Copy-2" fill="#FBFBFB" points="18 42.199 92.18 42.199 92.18 37 18 37"></polygon>
                <polygon id="Fill-75-Copy" fill="#FFFFFF" points="18 30.199 92.18 30.199 92.18 25 18 25"></polygon>
            </g>
            <path d="M150.644817,103.33235 C151.776494,101.755197 152.806275,100.168126 153.733258,98.6045 C140.838454,94.835205 156.269837,93.859516 156.269837,93.859516 C156.975895,92.3581106 157.580959,90.9387637 158.071503,89.6348401 C158.560243,88.3264078 158.94889,87.1496303 159.232035,86.1450861 C159.81185,84.145917 159.994001,82.8564214 159.994001,82.8573231 C160.07696,82.2414311 160.084174,81.5741397 159.994902,80.9275884 C159.461076,77.1591951 155.97497,74.5351166 152.20572,75.0689498 C152.206621,75.068048 150.915338,75.2511023 148.917094,75.8300227 C147.91166,76.1140725 146.7367,76.5036264 145.429185,76.9905688 C144.123473,77.4820199 142.704143,78.0861892 141.202755,78.7931575 C138.20539,80.2161114 134.946521,82.1106781 131.730034,84.4182441 C129.556854,85.9647371 127.41794,87.7150245 125.352066,89.5897528 C125.394448,89.936023 128.208761,112.945855 120.060688,94.870373 C118.029982,97.103094 116.140848,99.426891 114.476246,101.776839 C112.184037,105.006891 110.284082,108.261289 108.859342,111.255083 C107.421977,114.236253 106.4463,116.943292 105.861976,118.935247 C105.268635,120.922694 105.074762,122.201368 105.074762,122.199565 C104.979178,122.854232 104.971063,123.563905 105.074762,124.252839 C105.641051,127.986064 109.127157,130.555136 112.863043,129.987036 C112.86124,129.987036 114.141703,129.794965 116.12642,129.200715 C118.120155,128.617285 120.826261,127.641597 123.806493,126.205117 C126.800252,124.78036 130.056415,122.880382 133.286428,120.586343 C136.519146,118.296812 139.704974,115.590674 142.66627,112.660904 C145.627566,109.728429 148.348099,106.557892 150.644817,103.33235" id="Fill-58" fill="#7D5ACB"></path>
            <path d="M142.482192,92.2879184 C142.482192,92.2879184 142.622192,92.0129184 142.543192,92.0239184 C142.555192,91.9449184 142.278192,92.0869184 142.278192,92.0869184 C136.166192,93.915918 101.878192,129.426918 99.2291921,132.364918 C96.5601921,135.325918 97.0211921,137.425918 97.0441921,137.517918 L97.0401921,137.520918 L97.0441921,137.521918 L97.0461921,137.526918 L97.0481921,137.523918 C97.1411921,137.544918 99.2411921,138.006918 102.202192,135.338918 C105.140192,132.688918 140.651192,98.399918 142.482192,92.2879184" id="Fill-59" fill="#DCC1C1"></path>
            <path d="M48,138.007226 C48,138.007226 48.522,137.144226 49.638,135.789226 C50.191,135.105226 50.905,134.314226 51.777,133.439226 C52.667,132.583226 53.702,131.633226 55.032,130.749226 C55.696,130.297226 56.436,129.865226 57.332,129.517226 C57.773,129.337226 58.275,129.192226 58.826,129.083226 C59.118,129.046226 59.399,128.996226 59.732,129.000226 L60.065,129.000226 L60.196,129.016226 L60.275,129.023226 C60.275,129.009226 60.761,129.100226 60.987,129.194226 C61.488,129.365226 62.008,129.727226 62.353,130.148226 C62.706,130.568226 62.909,131.003226 63.037,131.376226 C63.292,132.134226 63.327,132.742226 63.344,133.304226 C63.369,134.417226 63.242,135.381226 63.103,136.330226 C62.824,138.198226 62.396,140.034226 62.322,141.625226 C62.263,142.387226 62.458,143.121226 62.487,143.063226 C62.429,142.900226 62.07,143.009226 63.094,142.930226 C64.167,142.814226 65.426,141.924226 66.634,140.679226 C67.851,139.450226 69.073,137.968226 70.482,136.615226 C71.883,135.256226 73.49,133.988226 75.273,133.108226 C75.713,132.883226 76.169,132.689226 76.619,132.506226 C76.869,132.414226 77.117,132.322226 77.363,132.231226 L77.941,132.071226 C78.977,131.789226 79.953,131.623226 81.196,131.765226 C81.794,131.839226 82.453,132.041226 83.016,132.364226 C83.583,132.675226 84.038,133.109226 84.35,133.500226 C84.98,134.298226 85.213,134.954226 85.435,135.447226 C85.843,136.423226 86.075,136.906226 86.689,137.315226 C87.281,137.683226 87.97,137.851226 88.424,137.951226 C88.901,138.044226 89.156,138.095226 89.156,138.095226 C89.156,138.095226 88.946,138.251226 88.509,138.503226 C88.064,138.723226 87.389,139.086226 86.298,139.118226 C85.755,139.144226 85.088,139.019226 84.437,138.703226 C83.792,138.382226 83.199,137.890226 82.715,137.421226 C82.235,136.955226 81.797,136.523226 81.488,136.367226 C81.335,136.281226 81.228,136.301226 81.162,136.316226 C81.079,136.346226 80.993,136.376226 80.906,136.408226 C80.681,136.455226 80.141,136.648226 79.684,136.864226 L79.139,137.114226 C79.073,137.139226 79.209,137.088226 79.19,137.096226 L79.176,137.103226 L79.149,137.118226 L79.095,137.145226 L78.985,137.201226 L78.766,137.312226 C78.475,137.470226 78.183,137.635226 77.895,137.826226 C76.735,138.574226 75.555,139.533226 74.289,140.680226 C73.016,141.823226 71.678,143.140226 70.033,144.483226 C69.213,145.151226 68.3,145.828226 67.212,146.408226 C66.118,146.978226 64.865,147.440226 63.422,147.531226 C63.236,147.541226 63.014,147.551226 62.86,147.550226 L62.493,147.535226 C62.066,147.524226 61.679,147.464226 61.223,147.349226 C60.335,147.148226 59.306,146.466226 58.765,145.627226 C58.202,144.792226 58.024,143.999226 57.916,143.320226 C57.816,142.635226 57.819,142.029226 57.836,141.457226 C57.944,139.199226 58.382,137.329226 58.7,135.586226 C58.861,134.729226 59.005,133.906226 59.059,133.255226 C59.085,132.938226 59.067,132.666226 59.074,132.595226 C59.08,132.555226 59.097,132.597226 59.183,132.683226 C59.264,132.771226 59.431,132.875226 59.541,132.898226 C59.829,132.941226 59.444,132.837226 59.246,132.838226 C58.988,132.841226 58.702,132.857226 58.391,132.926226 C57.78,133.049226 57.128,133.264226 56.499,133.500226 C55.246,134.002226 54.069,134.591226 53.041,135.145226 C52.003,135.689226 51.108,136.214226 50.358,136.636226 C48.857,137.508226 48,138.007226 48,138.007226" id="Fill-60" fill="#C3E9FF"></path>
        </g>
    </g>
</svg>