<?xml version="1.0" encoding="UTF-8"?>
<svg width="157px" height="209px" viewBox="0 0 157 209" version="1.1" xmlns="http://www.w3.org/2000/svg" xmlns:xlink="http://www.w3.org/1999/xlink">
    <!-- Generator: Sketch 52.6 (67491) - http://www.bohemiancoding.com/sketch -->
    <title>Fill 67</title>
    <desc>Created with Sketch.</desc>
    <defs>
        <polygon id="path-1" points="0.519 161.664 110.732 161.664 110.732 5.01 0.519 5.01"></polygon>
        <filter x="-10.4%" y="-6.7%" width="124.5%" height="117.2%" filterUnits="objectBoundingBox" id="filter-2">
            <feMorphology radius="1" operator="dilate" in="SourceAlpha" result="shadowSpreadOuter1"></feMorphology>
            <feOffset dx="2" dy="3" in="shadowSpreadOuter1" result="shadowOffsetOuter1"></feOffset>
            <feGaussianBlur stdDeviation="3" in="shadowOffsetOuter1" result="shadowBlurOuter1"></feGaussianBlur>
            <feColorMatrix values="0 0 0 0 0.598012218   0 0 0 0 0.55393602   0 0 0 0 0.914381378  0 0 0 0.5 0" type="matrix" in="shadowBlurOuter1"></feColorMatrix>
        </filter>
        <path d="M140.22,202.676 C138.518,202.676 136.814,202.024 135.516,200.726 L116.619,181.828 C114.021,179.232 114.021,175.017 116.619,172.42 C119.22,169.82 123.432,169.82 126.031,172.42 L144.928,191.315 C147.525,193.914 147.525,198.127 144.928,200.726 C143.628,202.024 141.925,202.676 140.22,202.676" id="path-3"></path>
        <filter x="-21.7%" y="-15.5%" width="143.5%" height="143.5%" filterUnits="objectBoundingBox" id="filter-4">
            <feOffset dx="0" dy="2" in="SourceAlpha" result="shadowOffsetOuter1"></feOffset>
            <feGaussianBlur stdDeviation="2" in="shadowOffsetOuter1" result="shadowBlurOuter1"></feGaussianBlur>
            <feColorMatrix values="0 0 0 0 0   0 0 0 0 0   0 0 0 0 0  0 0 0 0.5 0" type="matrix" in="shadowBlurOuter1"></feColorMatrix>
        </filter>
    </defs>
    <g id="Page-1" stroke="none" stroke-width="1" fill="none" fill-rule="evenodd">
        <g id="Curriculum_Vitae_Vector_Icons" transform="translate(-481.000000, -462.000000)">
            <g id="Fill-67" transform="translate(487.000000, 462.000000)">
                <g>
                    <use fill="black" fill-opacity="1" filter="url(#filter-2)" xlink:href="#path-1"></use>
                    <use fill="#C3A6FB" fill-rule="evenodd" xlink:href="#path-1"></use>
                </g>
                <path d="M14.903,30.131 C14.328,30.131 13.863,29.665 13.863,29.091 L13.863,5.203 C13.863,4.628 14.328,4.163 14.903,4.163 C15.477,4.163 15.943,4.628 15.943,5.203 L15.943,29.091 C15.943,29.665 15.477,30.131 14.903,30.131" id="Fill-68" fill="#CC6D5C" fill-rule="evenodd"></path>
                <path d="M8.346,30.131 C7.771,30.131 7.306,29.665 7.306,29.091 L7.306,11.965 C7.306,11.39 7.771,10.925 8.346,10.925 C8.919,10.925 9.385,11.39 9.385,11.965 L9.385,29.091 C9.385,29.665 8.919,30.131 8.346,30.131" id="Fill-69" fill="#CC6D5C" fill-rule="evenodd"></path>
                <path d="M14.903,7.547 C14.328,7.547 13.863,7.081 13.863,6.507 L13.863,5.203 C13.863,3.712 12.527,2.498 10.886,2.498 C9.626,2.498 8.498,3.228 8.081,4.313 C7.875,4.85 7.273,5.115 6.737,4.909 C6.201,4.702 5.933,4.102 6.14,3.565 C6.865,1.683 8.772,0.419 10.886,0.419 C13.674,0.419 15.943,2.565 15.943,5.203 L15.943,6.507 C15.943,7.081 15.477,7.547 14.903,7.547" id="Fill-70" fill="#CC6D5C" fill-rule="evenodd"></path>
                <path d="M11.624,33.188 C9.242,33.188 7.306,31.35 7.306,29.091 C7.306,28.516 7.771,28.051 8.346,28.051 C8.919,28.051 9.385,28.516 9.385,29.091 C9.385,30.204 10.389,31.109 11.624,31.109 C12.858,31.109 13.863,30.204 13.863,29.091 C13.863,28.516 14.328,28.051 14.903,28.051 C15.477,28.051 15.943,28.516 15.943,29.091 C15.943,31.35 14.004,33.188 11.624,33.188" id="Fill-71" fill="#CC6D5C" fill-rule="evenodd"></path>
                <polygon id="Fill-72" fill="#F3F3F3" fill-rule="evenodd" points="18.042 84.465 93.207 84.465 93.207 79.267 18.042 79.267"></polygon>
                <polygon id="Fill-73" fill="#F3F3F3" fill-rule="evenodd" points="18.042 98.561 93.207 98.561 93.207 93.362 18.042 93.362"></polygon>
                <polygon id="Fill-74" fill="#F3F3F3" fill-rule="evenodd" points="18.042 112.656 93.185 112.656 93.185 107.457 18.042 107.457"></polygon>
                <polygon id="Fill-75" fill="#F3F3F3" fill-rule="evenodd" points="18.042 70.37 92.222 70.37 92.222 65.171 18.042 65.171"></polygon>
                <path d="M52.546,33.847 L52.376,33.98 C51.666,32.864 50.683,31.982 49.43,31.339 C48.177,30.696 46.855,30.391 45.433,30.391 C44.213,30.391 43.096,30.595 42.046,31.001 C40.996,31.408 40.115,31.982 39.37,32.763 C38.624,33.541 38.048,34.456 37.641,35.506 C37.235,36.556 37.032,37.707 37.032,38.995 C37.032,40.282 37.235,41.467 37.676,42.519 C38.117,43.568 38.726,44.481 39.471,45.228 C40.216,45.973 41.098,46.548 42.113,46.955 C43.129,47.361 44.247,47.564 45.433,47.564 C47.025,47.564 48.481,47.192 49.802,46.413 C51.124,45.633 52.139,44.618 52.817,43.365 L56.576,44.38 C56.068,45.431 55.459,46.379 54.714,47.226 C53.969,48.072 53.122,48.784 52.173,49.395 C51.225,50.004 50.175,50.478 49.057,50.782 C47.939,51.12 46.753,51.291 45.5,51.291 C43.807,51.291 42.214,50.985 40.724,50.41 C39.233,49.801 37.947,48.953 36.829,47.869 C35.711,46.785 34.831,45.465 34.187,43.939 C33.543,42.416 33.239,40.756 33.239,38.96 C33.239,37.165 33.578,35.506 34.222,33.98 C34.865,32.458 35.745,31.136 36.863,30.053 C37.98,28.969 39.302,28.122 40.792,27.512 C42.283,26.901 43.875,26.597 45.568,26.597 C46.72,26.597 47.838,26.733 48.922,27.038 C50.005,27.343 51.022,27.748 51.936,28.291 C52.851,28.833 53.697,29.477 54.443,30.256 C55.188,31.034 55.831,31.881 56.373,32.829 L52.546,33.847" id="Fill-76" fill="#304049" fill-rule="evenodd"></path>
                <path d="M52.546,33.847 L52.376,33.98 C51.666,32.864 50.683,31.982 49.43,31.339 C48.177,30.696 46.855,30.391 45.433,30.391 C44.213,30.391 43.096,30.595 42.046,31.001 C40.996,31.408 40.115,31.982 39.37,32.763 C38.624,33.541 38.048,34.456 37.641,35.506 C37.235,36.556 37.032,37.707 37.032,38.995 C37.032,40.282 37.235,41.467 37.676,42.519 C38.117,43.568 38.726,44.481 39.471,45.228 C40.216,45.973 41.098,46.548 42.113,46.955 C43.129,47.361 44.247,47.564 45.433,47.564 C47.025,47.564 48.481,47.192 49.802,46.413 C51.124,45.633 52.139,44.618 52.817,43.365 L56.576,44.38 C56.068,45.431 55.459,46.379 54.714,47.226 C53.969,48.072 53.122,48.784 52.173,49.395 C51.225,50.004 50.175,50.478 49.057,50.782 C47.939,51.12 46.753,51.291 45.5,51.291 C43.807,51.291 42.214,50.985 40.724,50.41 C39.233,49.801 37.947,48.953 36.829,47.869 C35.711,46.785 34.831,45.465 34.187,43.939 C33.543,42.416 33.239,40.756 33.239,38.96 C33.239,37.165 33.578,35.506 34.222,33.98 C34.865,32.458 35.745,31.136 36.863,30.053 C37.98,28.969 39.302,28.122 40.792,27.512 C42.283,26.901 43.875,26.597 45.568,26.597 C46.72,26.597 47.838,26.733 48.922,27.038 C50.005,27.343 51.022,27.748 51.936,28.291 C52.851,28.833 53.697,29.477 54.443,30.256 C55.188,31.034 55.831,31.881 56.373,32.829 L52.546,33.847 Z" id="Stroke-77" fill="#FFFFFF" fill-rule="evenodd"></path>
                <path d="M81.502,27.072 L71.713,50.782 L67.784,50.782 L57.996,27.105 L62.094,27.105 L68.393,42.788 C68.597,43.296 68.732,43.771 68.901,44.244 C69.071,44.72 69.207,45.126 69.309,45.465 C69.41,45.803 69.512,46.074 69.579,46.277 L69.715,46.582 L69.748,46.582 L69.85,46.243 C69.918,46.039 70.02,45.77 70.155,45.431 C70.291,45.091 70.426,44.685 70.596,44.212 C70.765,43.736 70.934,43.263 71.138,42.755 L77.438,27.072 L81.502,27.072" id="Fill-78" fill="#304049" fill-rule="evenodd"></path>
                <path d="M81.502,27.072 L71.713,50.782 L67.784,50.782 L57.996,27.105 L62.094,27.105 L68.393,42.788 C68.597,43.296 68.732,43.771 68.901,44.244 C69.071,44.72 69.207,45.126 69.309,45.465 C69.41,45.803 69.512,46.074 69.579,46.277 L69.715,46.582 L69.748,46.582 L69.85,46.243 C69.918,46.039 70.02,45.77 70.155,45.431 C70.291,45.091 70.426,44.685 70.596,44.212 C70.765,43.736 70.934,43.263 71.138,42.755 L77.438,27.072 L81.502,27.072 Z" id="Stroke-79" fill="#FFFFFF" fill-rule="evenodd"></path>
                <path d="M96.362,126.354 C84.61,126.354 75.05,135.913 75.05,147.664 C75.05,159.415 84.61,168.975 96.362,168.975 C108.113,168.975 117.674,159.415 117.674,147.664 C117.674,135.913 108.113,126.354 96.362,126.354" id="Fill-80" fill="#FFFFFE" fill-rule="evenodd"></path>
                <path d="M96.362,167.068 C85.66,167.068 76.959,158.363 76.959,147.664 C76.959,136.965 85.66,128.261 96.362,128.261 C107.061,128.261 115.769,136.965 115.769,147.664 C115.769,158.363 107.061,167.068 96.362,167.068 Z M96.362,120.654 C81.469,120.654 69.351,132.771 69.351,147.664 C69.351,162.559 81.469,174.674 96.362,174.674 C111.258,174.674 123.373,162.559 123.373,147.664 C123.373,132.771 111.258,120.654 96.362,120.654 Z" id="Fill-81" fill="#929DA1" fill-rule="evenodd"></path>
                <path d="M140.22,199.823 C139.248,199.823 138.276,199.45 137.532,198.709 L107.662,168.839 C106.177,167.354 106.177,164.947 107.662,163.463 C109.146,161.977 111.555,161.977 113.039,163.463 L142.911,193.332 C144.396,194.816 144.396,197.224 142.911,198.709 C142.168,199.45 141.193,199.823 140.22,199.823" id="Fill-82" fill="#8E9597" fill-rule="evenodd"></path>
                <g id="Fill-83">
                    <use fill="black" fill-opacity="1" filter="url(#filter-4)" xlink:href="#path-3"></use>
                    <use fill="#875CCC" fill-rule="evenodd" xlink:href="#path-3"></use>
                </g>
                <path d="M96.362,141.418 C93.073,137.226 83.576,136.626 83.576,146.01 C83.576,155.395 96.362,160.287 96.362,160.287 C96.362,160.287 109.148,155.395 109.148,146.01 C109.148,136.626 99.65,137.226 96.362,141.418" id="Fill-84" fill="#5C66CC" fill-rule="evenodd"></path>
            </g>
        </g>
    </g>
</svg>