<?xml version="1.0" encoding="UTF-8"?>
<svg width="166px" height="174px" viewBox="0 0 166 174" version="1.1" xmlns="http://www.w3.org/2000/svg" xmlns:xlink="http://www.w3.org/1999/xlink">
    <!-- Generator: Sketch 52.6 (67491) - http://www.bohemiancoding.com/sketch -->
    <title>Fill 87</title>
    <desc>Created with Sketch.</desc>
    <g id="Page-1" stroke="none" stroke-width="1" fill="none" fill-rule="evenodd">
        <g id="Curriculum_Vitae_Vector_Icons" transform="translate(-802.000000, -149.000000)">
            <g id="Fill-87" transform="translate(802.000000, 149.000000)">
                <path d="M84.375185,137.526438 C84.1428188,137.526438 83.9104525,137.520464 83.6758448,137.511502 C75.4675633,137.141833 69.6935237,130.332464 69.4521916,130.04345 C68.7625644,129.217484 68.8746382,127.989736 69.7002482,127.300435 C70.5258581,126.612628 71.7541864,126.723155 72.4445607,127.548375 C72.4908845,127.602891 77.395979,133.343582 83.8768304,133.622141 C87.5394006,133.767768 91.09961,132.149441 94.4715356,128.779856 C99.8697546,123.383442 105.39499,120.893594 110.905283,121.375283 C118.844588,122.073546 123.603986,128.756705 123.801236,129.039744 C124.419136,129.922468 124.20246,131.136026 123.32156,131.752141 C122.440661,132.367508 121.229517,132.153175 120.611617,131.275679 C120.560063,131.201745 116.637482,125.770232 110.53021,125.252696 C106.237785,124.890495 101.760065,127.001713 97.2255612,131.533327 C93.2454488,135.513051 88.9246321,137.525691 84.375185,137.526438" fill="#999EB8"></path>
                <polygon id="Fill-36" fill="#C2DAFF" points="0.201 161.449 110.414 161.449 110.414 4.794 0.201 4.794"></polygon>
                <path d="M14.585,29.915 C14.011,29.915 13.545,29.45 13.545,28.875 L13.545,4.987 C13.545,4.414 14.011,3.947 14.585,3.947 C15.16,3.947 15.625,4.414 15.625,4.987 L15.625,28.875 C15.625,29.45 15.16,29.915 14.585,29.915" id="Fill-37" fill="#CC6D5C"></path>
                <path d="M8.027,29.916 C7.453,29.916 6.988,29.45 6.988,28.876 L6.988,11.75 C6.988,11.175 7.453,10.71 8.027,10.71 C8.603,10.71 9.067,11.175 9.067,11.75 L9.067,28.876 C9.067,29.45 8.603,29.916 8.027,29.916" id="Fill-38" fill="#CC6D5C"></path>
                <path d="M14.585,7.332 C14.011,7.332 13.545,6.866 13.545,6.292 L13.545,4.987 C13.545,3.497 12.21,2.282 10.568,2.282 C9.309,2.282 8.181,3.011 7.764,4.098 C7.557,4.634 6.953,4.899 6.42,4.694 C5.883,4.488 5.616,3.887 5.822,3.351 C6.547,1.468 8.454,0.203 10.568,0.203 C13.356,0.203 15.625,2.349 15.625,4.987 L15.625,6.292 C15.625,6.866 15.16,7.332 14.585,7.332" id="Fill-39" fill="#CC6D5C"></path>
                <path d="M11.306,32.973 C8.925,32.973 6.988,31.135 6.988,28.876 C6.988,28.302 7.453,27.836 8.027,27.836 C8.603,27.836 9.067,28.302 9.067,28.876 C9.067,29.989 10.071,30.894 11.306,30.894 C12.54,30.894 13.545,29.989 13.545,28.876 C13.545,28.302 14.011,27.836 14.585,27.836 C15.16,27.836 15.625,28.302 15.625,28.876 C15.625,31.135 13.688,32.973 11.306,32.973" id="Fill-40" fill="#CC6D5C"></path>
                <polygon id="Fill-42" fill="#FCFCFC" points="15.982 128.44 91.146 128.44 91.146 123.242 15.982 123.242"></polygon>
                <path d="M20.3239117,60.0667523 C20.3239117,40.4172213 35.9859974,24.48525 55.3092352,24.48525 C74.6295323,24.48525 90.2930883,40.4172213 90.2930883,60.0667523 C90.2930883,79.7177787 74.6295323,95.64975 55.3092352,95.64975 C35.9859974,95.64975 20.3239117,79.7177787 20.3239117,60.0667523" id="Fill-45" fill="#E3A8BA"></path>
                <path d="M69.7876953,69.1288648 C67.8512545,68.6712729 65.8515891,68.194241 63.9754324,66.7975391 C62.3374711,65.5817805 62.1286825,64.7907149 62.8359171,63.1293276 C63.9327924,63.3341971 65.0620153,63.4403704 66.2103526,63.4403704 C69.4362835,63.4403704 71.7373691,62.6089291 71.835882,62.5730395 C72.2211117,62.4309767 72.5254725,62.1274109 72.6725068,61.7356166 C72.819541,61.3453177 72.7886638,60.9116522 72.5916379,60.5437843 C70.8419307,57.2628809 70.8860409,53.9266477 70.9345622,50.0655298 C70.9801428,46.3808689 71.0374862,42.2027266 69.4627496,37.4279205 C68.2158994,33.6385817 65.2516894,31.1203314 60.8803619,30.1243962 C60.8112559,30.1004699 60.7377387,30.0795343 60.6627513,30.0645803 L60.0937288,29.958407 C59.7834866,29.9030773 59.3585577,29.8402706 58.586628,29.7475559 C57.7308889,29.650355 56.6590094,29.5725943 55.4724432,29.5725943 C48.5368388,29.5725943 43.7979257,32.3630072 42.1276169,37.4279205 C40.5661135,42.1997358 40.6161051,46.3763827 40.6602154,50.0610436 C40.7116773,53.9236569 40.7543173,57.2628809 39.0016693,60.5437843 C38.8061138,60.9116522 38.7752366,61.3453177 38.9208005,61.7356166 C39.0678347,62.1199339 39.3736659,62.4294813 39.7559549,62.5715441 C39.8515271,62.6089291 42.1629051,63.4508382 45.3991284,63.4508382 C46.3945501,63.4508382 47.3752684,63.3715821 48.3295205,63.2115745 C48.9941152,64.8176321 48.7676825,65.5952391 47.150306,66.8005299 C45.2741493,68.194241 43.2715432,68.6712729 41.3395135,69.1288648 C37.350475,70.0739564 33.2202836,71.0459651 33.2202836,80.1439671 C33.2202836,80.9335373 33.8510604,81.5750631 34.6288715,81.5750631 L76.4983373,81.5750631 C77.2776187,81.5750631 77.9069252,80.9335373 77.9069252,80.1439671 C77.9069252,71.0459651 73.7782041,70.0709656 69.7876953,69.1288648" id="Fill-46" fill="#304049"></path>
                <polyline id="Fill-88" fill="#746D8C" points="125.978157 128.988728 121.673778 133.290325 118 129.619031 122.305126 125.316687 125.978157 128.988728"></polyline>
                <path d="M118.567538,129.261097 L121.323058,132.015314 L124.70918,128.630793 L121.954407,125.876576 L118.567538,129.261097 Z M121.323058,133.582112 C121.157189,133.582112 120.990573,133.518633 120.864303,133.391676 L117.190525,129.720382 C116.936492,129.466468 116.936492,129.055726 117.190525,128.801812 L121.495652,124.498721 C121.738478,124.256009 122.169589,124.256009 122.413162,124.498721 L126.08694,128.171508 C126.208726,128.293238 126.276718,128.458281 126.276718,128.630793 C126.276718,128.802559 126.208726,128.967603 126.08694,129.089332 L121.782561,133.391676 C121.655544,133.518633 121.488927,133.582112 121.323058,133.582112 Z" id="Fill-89" fill="#8394AF"></path>
                <path d="M137.006834,144.318592 L125,156.319751 L136.830505,168.146157 C143.462282,174.774053 154.213144,174.774053 160.844921,168.146157 C167.476698,161.517515 167.476698,150.770242 160.845668,144.142346 L149.014416,132.316687 L137.006834,144.318592" id="Fill-90" fill="#9095F1"></path>
                <path d="M145.56194,129.285866 C139.394895,123.122484 129.666147,122.693071 123,127.99464 L138.131451,143.119685 L148.766502,132.488914 L145.56194,129.285866" id="Fill-91" fill="#C69BBA"></path>
                <path d="M121.971604,152.868708 L125.176166,156.071009 L135.810471,145.440985 L120.67902,130.316687 C115.376437,136.979682 115.804559,146.704579 121.971604,152.868708" id="Fill-92" fill="#C69BBA"></path>
                <path d="M122.292584,129.60866 C121.827851,130.072426 121.39973,130.559343 121,131.059702 L136.131451,146.184 L138.87651,143.441731 L123.74506,128.316687 C123.243716,128.716228 122.756569,129.144147 122.292584,129.60866" id="Fill-93" fill="#8E9597"></path>
                <path d="M134.071458,141.384049 C133.313092,142.142057 132.084764,142.142057 131.327146,141.384049 L126.568494,136.626901 C125.810876,135.870387 125.810128,134.641146 126.568494,133.884632 C127.326113,133.127372 128.555935,133.127372 129.312807,133.884632 L134.072205,138.641034 C134.829824,139.398295 134.829077,140.626789 134.071458,141.384049" id="Fill-94" fill="#A87DB7"></path>
            </g>
        </g>
    </g>
</svg>