<svg xmlns="http://www.w3.org/2000/svg" width="300" height="180" viewBox="0 0 300 180">
  <path fill="#0FB2B8" fill-rule="nonzero" d="M252 164C252.552285 164 253 163.552285 253 163 253 162.447715 252.552285 162 252 162 251.447715 162 251 162.447715 251 163 251 163.552285 251.447715 164 252 164zM252 165C250.895431 165 250 164.104569 250 163 250 161.895431 250.895431 161 252 161 253.104569 161 254 161.895431 254 163 254 164.104569 253.104569 165 252 165zM275 78C275.552285 78 276 77.5522847 276 77 276 76.4477153 275.552285 76 275 76 274.447715 76 274 76.4477153 274 77 274 77.5522847 274.447715 78 275 78zM275 79C273.895431 79 273 78.1045695 273 77 273 75.8954305 273.895431 75 275 75 276.104569 75 277 75.8954305 277 77 277 78.1045695 276.104569 79 275 79z"/>
  <polygon fill="#0FB2B8" points="263 150 263 148 264 148 264 150 266 150 266 151 264 151 264 153 263 153 263 151 261 151 261 150"/>
  <path fill="#0FB2B8" fill-rule="nonzero" d="M40 29C40.5522847 29 41 28.5522847 41 28 41 27.4477153 40.5522847 27 40 27 39.4477153 27 39 27.4477153 39 28 39 28.5522847 39.4477153 29 40 29zM40 30C38.8954305 30 38 29.1045695 38 28 38 26.8954305 38.8954305 26 40 26 41.1045695 26 42 26.8954305 42 28 42 29.1045695 41.1045695 30 40 30zM242 42C242.552285 42 243 41.5522847 243 41 243 40.4477153 242.552285 40 242 40 241.447715 40 241 40.4477153 241 41 241 41.5522847 241.447715 42 242 42zM242 43C240.895431 43 240 42.1045695 240 41 240 39.8954305 240.895431 39 242 39 243.104569 39 244 39.8954305 244 41 244 42.1045695 243.104569 43 242 43z"/>
  <path fill="#0FB2B8" fill-rule="nonzero" d="M54.8062676 13.1937324C55.0645775 13.4520422 55.0645775 13.8708451 54.8062676 14.1291549L53.4031338 15.5322887C53.144824 15.7905985 52.7260211 15.7905985 52.4677113 15.5322887 52.2094015 15.2739789 52.2094015 14.855176 52.4677113 14.5968662L53.8708451 13.1937324C54.1291549 12.9354225 54.5479578 12.9354225 54.8062676 13.1937324L54.8062676 13.1937324zM51.5322887 16.4677113C51.7905985 16.7260211 51.7905985 17.144824 51.5322887 17.4031338L50.1291549 18.8062676C49.8708451 19.0645775 49.4520422 19.0645775 49.1937324 18.8062676 48.9354225 18.5479578 48.9354225 18.1291549 49.1937324 17.8708451L50.5968662 16.4677113C50.855176 16.2094015 51.2739789 16.2094015 51.5322887 16.4677113zM54.8062676 18.8062676C54.5479578 19.0645775 54.1291549 19.0645775 53.8708451 18.8062676L52.4677113 17.4031338C52.2094015 17.144824 52.2094015 16.7260211 52.4677113 16.4677113 52.7260211 16.2094015 53.144824 16.2094015 53.4031338 16.4677113L54.8062676 17.8708451C55.0645775 18.1291549 55.0645775 18.5479578 54.8062676 18.8062676zM51.5322887 15.5322887C51.2739789 15.7905985 50.855176 15.7905985 50.5968662 15.5322887L49.1937324 14.1291549C48.9354225 13.8708451 48.9354225 13.4520422 49.1937324 13.1937324 49.4520422 12.9354225 49.8708451 12.9354225 50.1291549 13.1937324L51.5322887 14.5968662C51.7905985 14.855176 51.7905985 15.2739789 51.5322887 15.5322887zM256.806268 26.1937324C257.064577 26.4520422 257.064577 26.8708451 256.806268 27.1291549L255.403134 28.5322887C255.144824 28.7905985 254.726021 28.7905985 254.467711 28.5322887 254.209401 28.2739789 254.209401 27.855176 254.467711 27.5968662L255.870845 26.1937324C256.129155 25.9354225 256.547958 25.9354225 256.806268 26.1937324L256.806268 26.1937324zM253.532289 29.4677113C253.790599 29.7260211 253.790599 30.144824 253.532289 30.4031338L252.129155 31.8062676C251.870845 32.0645775 251.452042 32.0645775 251.193732 31.8062676 250.935423 31.5479578 250.935423 31.1291549 251.193732 30.8708451L252.596866 29.4677113C252.855176 29.2094015 253.273979 29.2094015 253.532289 29.4677113zM256.806268 31.8062676C256.547958 32.0645775 256.129155 32.0645775 255.870845 31.8062676L254.467711 30.4031338C254.209401 30.144824 254.209401 29.7260211 254.467711 29.4677113 254.726021 29.2094015 255.144824 29.2094015 255.403134 29.4677113L256.806268 30.8708451C257.064577 31.1291549 257.064577 31.5479578 256.806268 31.8062676zM253.532289 28.5322887C253.273979 28.7905985 252.855176 28.7905985 252.596866 28.5322887L251.193732 27.1291549C250.935423 26.8708451 250.935423 26.4520422 251.193732 26.1937324 251.452042 25.9354225 251.870845 25.9354225 252.129155 26.1937324L253.532289 27.5968662C253.790599 27.855176 253.790599 28.2739789 253.532289 28.5322887zM27.8062676 88.1937324C28.0645775 88.4520422 28.0645775 88.8708451 27.8062676 89.1291549L26.4031338 90.5322887C26.144824 90.7905985 25.7260211 90.7905985 25.4677113 90.5322887 25.2094015 90.2739789 25.2094015 89.855176 25.4677113 89.5968662L26.8708451 88.1937324C27.1291549 87.9354225 27.5479578 87.9354225 27.8062676 88.1937324L27.8062676 88.1937324zM24.5322887 91.4677113C24.7905985 91.7260211 24.7905985 92.144824 24.5322887 92.4031338L23.1291549 93.8062676C22.8708451 94.0645775 22.4520422 94.0645775 22.1937324 93.8062676 21.9354225 93.5479578 21.9354225 93.1291549 22.1937324 92.8708451L23.5968662 91.4677113C23.855176 91.2094015 24.2739789 91.2094015 24.5322887 91.4677113zM27.8062676 93.8062676C27.5479578 94.0645775 27.1291549 94.0645775 26.8708451 93.8062676L25.4677113 92.4031338C25.2094015 92.144824 25.2094015 91.7260211 25.4677113 91.4677113 25.7260211 91.2094015 26.144824 91.2094015 26.4031338 91.4677113L27.8062676 92.8708451C28.0645775 93.1291549 28.0645775 93.5479578 27.8062676 93.8062676zM24.5322887 90.5322887C24.2739789 90.7905985 23.855176 90.7905985 23.5968662 90.5322887L22.1937324 89.1291549C21.9354225 88.8708451 21.9354225 88.4520422 22.1937324 88.1937324 22.4520422 87.9354225 22.8708451 87.9354225 23.1291549 88.1937324L24.5322887 89.5968662C24.7905985 89.855176 24.7905985 90.2739789 24.5322887 90.5322887z"/>
  <path fill="#0FC0C5" d="M62,36 L123.000083,36 L147.000083,60 L147.000083,145.000073 C147.000083,146.104643 146.104652,147.000073 145.000083,147.000073 L62,147.000073 C60.8954305,147.000073 60,146.104643 60,145.000073 L60,38 C60,36.8954305 60.8954305,36 62,36 Z"/>
  <path fill="#0FC0C5" fill-rule="nonzero" d="M135.5,29 C137.985281,29 140,26.9852814 140,24.5 C140,22.0147186 137.985281,20 135.5,20 C133.014719,20 131,22.0147186 131,24.5 C131,26.9852814 133.014719,29 135.5,29 Z M130.022422,24 L125,24 L125,14 L135,14 L135,19.0224215 C135.164681,19.0075813 135.331455,19 135.5,19 C138.537566,19 141,21.4624339 141,24.5 C141,27.5375661 138.537566,30 135.5,30 C132.462434,30 130,27.5375661 130,24.5 C130,24.3314552 130.007581,24.164681 130.022422,24 L130.022422,24 Z M130.207032,23 C130.725096,21.168327 132.168327,19.725096 134,19.2070325 L134,15 L126,15 L126,23 L130.207032,23 L130.207032,23 Z"/>
  <path fill="#FFFFFF" d="M123.000083,36 L147.000083,60 L124.000083,60 C123.447798,60 123.000083,59.5522847 123.000083,59 L123.000083,36 Z" opacity=".3"/>
  <path fill="#0B8E91" d="M154.999917,36 L216,36 L240,60 L240,145.000073 C240,146.104643 239.104569,147.000073 238,147.000073 L154.999917,147.000073 C153.895348,147.000073 152.999917,146.104643 152.999917,145.000073 L152.999917,38 C152.999917,36.8954305 153.895348,36 154.999917,36 Z"/>
  <path fill="#FFFFFF" d="M216,36 L240,60 L217,60 C216.447715,60 216,59.5522847 216,59 L216,36 Z" opacity=".3"/>
  <path fill="#FFFFFF" fill-rule="nonzero" d="M92.212,114.648 L91.66,116.568 L95.668,116.568 L95.116,114.648 C94.612,112.992 94.156,111.192 93.7,109.464 L93.604,109.464 C93.172,111.216 92.716,112.992 92.212,114.648 Z M86.956,123 L92.068,107.304 L95.332,107.304 L100.444,123 L97.516,123 L96.292,118.752 L91.012,118.752 L89.788,123 L86.956,123 Z M107.86,123.288 C106.78,123.288 105.628,122.736 104.644,121.752 L104.572,121.752 L104.332,123 L102.148,123 L102.148,106.056 L104.908,106.056 L104.908,110.424 L104.836,112.392 C105.82,111.528 107.044,110.928 108.244,110.928 C111.196,110.928 112.9,113.28 112.9,116.904 C112.9,120.96 110.476,123.288 107.86,123.288 Z M107.284,121.008 C108.844,121.008 110.044,119.616 110.044,116.952 C110.044,114.6 109.276,113.208 107.5,113.208 C106.636,113.208 105.82,113.64 104.908,114.528 L104.908,120.024 C105.748,120.744 106.588,121.008 107.284,121.008 Z M120.58,123.288 C117.364,123.288 114.892,121.032 114.892,117.12 C114.892,113.184 117.652,110.928 120.796,110.928 C122.308,110.928 123.388,111.504 124.252,112.248 L122.908,114.048 C122.284,113.496 121.684,113.184 120.94,113.184 C119.044,113.184 117.724,114.744 117.724,117.12 C117.724,119.472 119.02,121.032 120.868,121.032 C121.78,121.032 122.62,120.576 123.292,120.024 L124.42,121.848 C123.316,122.808 121.924,123.288 120.58,123.288 Z"/>
  <rect width="7" height="7" x="77" y="95" fill="#FFFFFF"/>
  <rect width="4" height="1" x="86" y="98" fill="#FFFFFF"/>
  <rect width="4" height="1" x="78.5" y="105.5" fill="#FFFFFF" transform="rotate(90 80.5 106)"/>
  <rect width="4" height="1" x="129.5" y="105.5" fill="#FFFFFF" transform="rotate(90 131.5 106)"/>
  <rect width="4" height="1" x="78.5" y="111.5" fill="#FFFFFF" transform="rotate(90 80.5 112)"/>
  <rect width="4" height="1" x="129.5" y="111.5" fill="#FFFFFF" transform="rotate(90 131.5 112)"/>
  <rect width="4" height="1" x="78.5" y="117.5" fill="#FFFFFF" transform="rotate(90 80.5 118)"/>
  <rect width="4" height="1" x="129.5" y="117.5" fill="#FFFFFF" transform="rotate(90 131.5 118)"/>
  <rect width="4" height="1" x="78.5" y="123.5" fill="#FFFFFF" transform="rotate(90 80.5 124)"/>
  <rect width="4" height="1" x="129.5" y="123.5" fill="#FFFFFF" transform="rotate(90 131.5 124)"/>
  <rect width="4" height="1" x="86" y="131" fill="#FFFFFF"/>
  <rect width="4" height="1" x="98" y="98" fill="#FFFFFF"/>
  <rect width="4" height="1" x="98" y="131" fill="#FFFFFF"/>
  <rect width="4" height="1" x="110" y="98" fill="#FFFFFF"/>
  <rect width="4" height="1" x="110" y="131" fill="#FFFFFF"/>
  <rect width="4" height="1" x="92" y="98" fill="#FFFFFF"/>
  <rect width="4" height="1" x="92" y="131" fill="#FFFFFF"/>
  <rect width="4" height="1" x="104" y="98" fill="#FFFFFF"/>
  <rect width="4" height="1" x="104" y="131" fill="#FFFFFF"/>
  <rect width="4" height="1" x="116" y="98" fill="#FFFFFF"/>
  <rect width="4" height="1" x="116" y="131" fill="#FFFFFF"/>
  <rect width="4" height="1" x="122" y="98" fill="#FFFFFF"/>
  <rect width="4" height="1" x="122" y="131" fill="#FFFFFF"/>
  <rect width="7" height="7" x="77" y="128" fill="#FFFFFF"/>
  <rect width="7" height="7" x="128" y="95" fill="#FFFFFF"/>
  <rect width="7" height="7" x="128" y="128" fill="#FFFFFF"/>
  <path fill="#FFFFFF" fill-rule="nonzero" d="M179,96.9405084 L186.959888,90.3853063 L194.927703,95.3651904 L200.944259,89.3486342 L209,95.0350396 L209,77 L179,77 L179,96.9405084 Z M179,98.2359622 L179,100 L209,100 L209,96.259078 L201.055741,90.6513658 L195.072297,96.6348096 L187.040112,91.6146937 L179,98.2359622 Z M179,76 L209,76 C209.552285,76 210,76.4477153 210,77 L210,100 C210,100.552285 209.552285,101 209,101 L179,101 C178.447715,101 178,100.552285 178,100 L178,77 C178,76.4477153 178.447715,76 179,76 Z M203,86 C201.343146,86 200,84.6568542 200,83 C200,81.3431458 201.343146,80 203,80 C204.656854,80 206,81.3431458 206,83 C206,84.6568542 204.656854,86 203,86 Z"/>
  <circle cx="240" cy="114" r="27" fill="#FFFFFF"/>
  <path fill="#0FC0C5" fill-rule="nonzero" d="M240,135 C228.40202,135 219,125.59798 219,114 C219,102.40202 228.40202,93 240,93 C251.59798,93 261,102.40202 261,114 C261,125.59798 251.59798,135 240,135 Z"/>
  <path fill="#FFFFFF" fill-rule="nonzero" d="M232.909091,121.454545 L250.636364,103.727273 L248.272727,101.363636 L230.545455,119.090909 L232.909091,121.454545 Z M231.727273,122.636364 L229.363636,120.272727 L228.671343,120.96502 L228.671343,123.328657 L231.03498,123.328657 L231.727273,122.636364 Z M248.272727,99 L253,103.727273 L231.727273,125 L227,125 L227,120.272727 L248.272727,99 Z"/>
  <path fill="#FFD70D" fill-rule="nonzero" d="M171.798349,134.962963 C172.628747,135.134008 173.732522,134.708877 174.966124,133.837547 C176.562759,132.709797 177.382246,131.819665 177.4599,131.003149 C177.531611,130.249116 177.558013,129.480454 177.540564,128.697046 C176.925643,128.364074 176.40582,127.932393 176.050822,127.418404 C175.457859,126.559873 175.306149,124.756431 175.424673,122.53704 C175.469853,121.691013 175.556947,120.892276 175.663114,120.35021 C175.732582,119.995522 175.805373,119.746367 175.931561,119.536171 C176.175643,119.129594 176.599962,118.834575 177.213915,119.066976 C177.612266,119.217764 177.765877,119.463273 177.875706,119.795198 C178.739837,122.406762 179.285316,124.911252 179.472911,127.314825 C179.631475,127.356025 179.794612,127.38992 179.960228,127.415419 C180.572359,127.509667 181.135271,127.573639 181.653334,127.604258 C181.275576,126.92061 181.066066,126.313426 181.019515,125.776564 C180.870788,124.061337 182.216613,123.25269 183.899465,123.4399 C185.211666,123.585877 186.60032,124.289113 187.249625,125.235111 C188.210658,126.635277 187.501052,128.12249 185.497456,129.026149 C185.426117,129.058324 185.354199,129.089107 185.281672,129.118522 C185.681092,129.559481 186.135243,130.032227 186.645772,130.535175 C186.706291,130.594795 187.345699,130.556927 187.901048,130.324867 C188.103082,130.240445 188.314986,130.15375 188.576638,130.048086 C188.61593,130.032219 189.335491,129.742981 189.544811,129.657865 C191.794402,128.743112 193.013991,128.06098 193.80067,127.135416 C192.803452,126.833392 192.137243,126.499134 191.769299,126.116547 C191.219026,125.544374 191.201038,124.73248 191.774997,124.192858 C192.095249,123.891766 192.544239,123.726352 193.061127,123.656157 C194.072076,123.518867 195.180876,123.758344 195.85214,124.41797 C196.227669,124.786987 196.430899,125.22427 196.469852,125.708507 C196.58856,125.730831 196.710355,125.753059 196.835219,125.77515 C198.081121,125.99557 199.290297,126.008062 201.492792,125.89087 C201.694637,125.880044 201.694637,125.880044 201.897283,125.868999 C205.403286,125.677902 206.943803,125.732405 208.812664,126.352166 C209.614979,126.618234 209.91531,127.334374 209.768023,128.099101 C209.695118,128.477632 209.543428,128.827675 209.257154,129.374939 C209.230945,129.424899 209.223695,129.438718 209.208175,129.468106 C210.226291,129.231313 211.298303,128.582697 212.703042,127.463295 C212.839691,127.354402 212.978149,127.242661 213.161842,127.09338 C213.389306,126.908275 213.510995,126.809276 213.615036,126.725061 C213.830835,126.550385 213.977029,126.242574 214.188411,125.520599 C214.210425,125.44518 214.210425,125.44518 214.232878,125.367908 C214.694495,123.780506 215.120936,123.07118 216.347197,122.763586 C217.417444,122.495126 218.146977,122.904235 219.132692,123.887269 C219.19183,123.946247 219.248205,124.003162 219.35871,124.115009 C219.971661,124.73439 220.254052,124.932223 220.505932,124.941082 C221.595688,124.97941 222.473047,124.732052 224.482122,123.937608 C225.582379,123.502536 226.080375,123.319939 226.728643,123.137169 L227.271357,125.062127 C226.710511,125.220249 226.25434,125.387511 225.217566,125.79748 C222.95258,126.693117 221.895355,126.991186 220.435633,126.939846 C219.483199,126.906348 218.90965,126.504539 217.937137,125.521824 C217.825916,125.409264 217.774471,125.357326 217.720405,125.303407 C217.200601,124.785016 216.986785,124.665112 216.8338,124.703487 C216.557981,124.772673 216.424027,124.995488 216.153325,125.926374 C216.130936,126.003426 216.130936,126.003426 216.107834,126.082573 C215.786104,127.181442 215.508834,127.76523 214.873354,128.279614 C214.771573,128.362 214.652247,128.459077 214.423183,128.645481 C214.234957,128.798446 214.091985,128.91383 213.94945,129.027413 C211.720871,130.803315 210.085629,131.637105 208.111298,131.568044 C207.102108,131.532743 206.634947,130.720219 206.853261,129.844473 C206.940022,129.496441 207.034469,129.299928 207.417437,128.576155 C207.451671,128.511394 207.451671,128.511394 207.484975,128.447911 C207.556536,128.311109 207.615179,128.19379 207.661962,128.093969 C206.300709,127.729426 204.890232,127.708835 202.006132,127.866035 C201.803036,127.877104 201.803036,127.877104 201.599059,127.888044 C199.251513,128.012954 197.926457,127.999265 196.486797,127.744566 C196.285693,127.708988 196.091033,127.673034 195.90274,127.636666 C195.791649,127.81799 195.664735,128.001478 195.522259,128.186432 C194.454192,129.572943 193.001742,130.411197 190.29817,131.510552 C190.084416,131.597471 189.361549,131.888038 189.325542,131.902579 C189.070698,132.005493 188.865733,132.089349 188.672159,132.170236 C187.443364,132.683704 186.060026,132.76563 185.242179,131.959929 C184.378974,131.109545 183.651688,130.325973 183.05678,129.6051 C182.057871,129.67324 180.939862,129.589816 179.655882,129.392127 C179.618836,129.386423 179.58185,129.380427 179.544932,129.374141 C179.539029,129.986991 179.507923,130.593075 179.450916,131.192501 C179.29775,132.803025 178.182756,134.014137 176.119978,135.471139 C174.473187,136.634316 172.914175,137.234787 171.394861,136.92184 C167.799919,136.181357 166.28934,133.012848 166.522129,128.845688 C166.524644,128.800656 166.527342,128.755626 166.53022,128.710605 C166.312422,128.517034 166.080869,128.303077 165.830468,128.066421 C165.131724,127.406032 164.820864,127.132412 164.424714,126.85379 L165.575286,125.217886 C165.996233,125.513948 166.316048,125.78347 166.862531,126.292055 C167.4039,123.781062 168.500441,121.849573 169.844821,122.26929 C171.37795,122.747934 172.649173,124.723649 172.975901,126.709975 C173.37079,129.110676 172.171993,130.896364 169.66486,130.428753 C169.238458,130.349224 168.864843,130.239622 168.505948,130.082657 C168.603956,132.754305 169.675357,134.525671 171.798349,134.962963 Z M184.675182,127.203002 C185.262386,126.938162 185.569723,126.687143 185.652478,126.513702 C185.668916,126.47925 185.666754,126.46318 185.600672,126.366904 C185.313804,125.948954 184.454991,125.514038 183.678337,125.427638 C183.351306,125.391257 183.108244,125.425579 183.007096,125.486354 C182.994212,125.494096 183.001246,125.479335 183.012038,125.603793 C183.048744,126.027113 183.345097,126.651627 183.921414,127.457752 C184.191143,127.392775 184.441872,127.308229 184.675182,127.203002 Z M170.031561,128.462658 C170.932608,128.630714 171.199558,128.233074 171.002421,127.034591 C170.825889,125.961374 170.226105,124.881608 169.640039,124.403599 C169.52603,124.605454 169.402689,124.87435 169.282802,125.191673 C168.995011,125.953409 168.763707,126.882679 168.629219,127.841135 C169.125063,128.19586 169.533827,128.369825 170.031561,128.462658 Z"/>
  <rect width="24" height="24" x="51" y="45" fill="#FFD70D"/>
  <circle cx="75" cy="70" r="9" fill="#212121"/>
  <path fill="#0FB2B8" fill-rule="nonzero" d="M37,113 C37.5522847,113 38,112.552285 38,112 C38,111.447715 37.5522847,111 37,111 C36.4477153,111 36,111.447715 36,112 C36,112.552285 36.4477153,113 37,113 Z M37,114 C35.8954305,114 35,113.104569 35,112 C35,110.895431 35.8954305,110 37,110 C38.1045695,110 39,110.895431 39,112 C39,113.104569 38.1045695,114 37,114 Z"/>
  <rect width="7" height="7" x="168" y="69" fill="#FFFFFF"/>
  <rect width="4" height="1" x="169.5" y="79.5" fill="#FFFFFF" transform="rotate(90 171.5 80)"/>
  <rect width="4" height="1" x="214.5" y="79.5" fill="#FFFFFF" transform="rotate(90 216.5 80)"/>
  <rect width="4" height="1" x="169.5" y="85.5" fill="#FFFFFF" transform="rotate(90 171.5 86)"/>
  <rect width="4" height="1" x="214.5" y="85.5" fill="#FFFFFF" transform="rotate(90 216.5 86)"/>
  <rect width="4" height="1" x="169.5" y="91.5" fill="#FFFFFF" transform="rotate(90 171.5 92)"/>
  <rect width="4" height="1" x="214.5" y="91.5" fill="#FFFFFF" transform="rotate(90 216.5 92)"/>
  <rect width="4" height="1" x="169.5" y="97.5" fill="#FFFFFF" transform="rotate(90 171.5 98)"/>
  <rect width="4" height="1" x="183" y="72" fill="#FFFFFF"/>
  <rect width="4" height="1" x="183" y="105" fill="#FFFFFF"/>
  <rect width="4" height="1" x="195" y="72" fill="#FFFFFF"/>
  <rect width="4" height="1" x="195" y="105" fill="#FFFFFF"/>
  <rect width="4" height="1" x="177" y="72" fill="#FFFFFF"/>
  <rect width="4" height="1" x="177" y="105" fill="#FFFFFF"/>
  <rect width="4" height="1" x="189" y="72" fill="#FFFFFF"/>
  <rect width="4" height="1" x="189" y="105" fill="#FFFFFF"/>
  <rect width="4" height="1" x="201" y="72" fill="#FFFFFF"/>
  <rect width="4" height="1" x="201" y="105" fill="#FFFFFF"/>
  <rect width="4" height="1" x="207" y="72" fill="#FFFFFF"/>
  <rect width="4" height="1" x="207" y="105" fill="#FFFFFF"/>
  <rect width="7" height="7" x="168" y="102" fill="#FFFFFF"/>
  <rect width="7" height="7" x="213" y="69" fill="#FFFFFF"/>
</svg>
