<svg xmlns="http://www.w3.org/2000/svg" width="300" height="180" viewBox="0 0 300 180">
  <path fill="#B366FF" fill-rule="nonzero" d="M252 160C252.552285 160 253 159.552285 253 159 253 158.447715 252.552285 158 252 158 251.447715 158 251 158.447715 251 159 251 159.552285 251.447715 160 252 160zM252 161C250.895431 161 250 160.104569 250 159 250 157.895431 250.895431 157 252 157 253.104569 157 254 157.895431 254 159 254 160.104569 253.104569 161 252 161zM257 78C257.552285 78 258 77.5522847 258 77 258 76.4477153 257.552285 76 257 76 256.447715 76 256 76.4477153 256 77 256 77.5522847 256.447715 78 257 78zM257 79C255.895431 79 255 78.1045695 255 77 255 75.8954305 255.895431 75 257 75 258.104569 75 259 75.8954305 259 77 259 78.1045695 258.104569 79 257 79zM58 121C58.5522847 121 59 120.552285 59 120 59 119.447715 58.5522847 119 58 119 57.4477153 119 57 119.447715 57 120 57 120.552285 57.4477153 121 58 121zM58 122C56.8954305 122 56 121.104569 56 120 56 118.895431 56.8954305 118 58 118 59.1045695 118 60 118.895431 60 120 60 121.104569 59.1045695 122 58 122z"/>
  <polygon fill="#B366FF" points="263 149 263 147 264 147 264 149 266 149 266 150 264 150 264 152 263 152 263 150 261 150 261 149"/>
  <path fill="#B366FF" fill-rule="nonzero" d="M26,35 C26.5522847,35 27,34.5522847 27,34 C27,33.4477153 26.5522847,33 26,33 C25.4477153,33 25,33.4477153 25,34 C25,34.5522847 25.4477153,35 26,35 Z M26,36 C24.8954305,36 24,35.1045695 24,34 C24,32.8954305 24.8954305,32 26,32 C27.1045695,32 28,32.8954305 28,34 C28,35.1045695 27.1045695,36 26,36 Z"/>
  <path fill="#B366FF" fill-rule="nonzero" d="M40.8062676 19.1937324C41.0645775 19.4520422 41.0645775 19.8708451 40.8062676 20.1291549L39.4031338 21.5322887C39.144824 21.7905985 38.7260211 21.7905985 38.4677113 21.5322887 38.2094015 21.2739789 38.2094015 20.855176 38.4677113 20.5968662L39.8708451 19.1937324C40.1291549 18.9354225 40.5479578 18.9354225 40.8062676 19.1937324L40.8062676 19.1937324zM37.5322887 22.4677113C37.7905985 22.7260211 37.7905985 23.144824 37.5322887 23.4031338L36.1291549 24.8062676C35.8708451 25.0645775 35.4520422 25.0645775 35.1937324 24.8062676 34.9354225 24.5479578 34.9354225 24.1291549 35.1937324 23.8708451L36.5968662 22.4677113C36.855176 22.2094015 37.2739789 22.2094015 37.5322887 22.4677113zM40.8062676 24.8062676C40.5479578 25.0645775 40.1291549 25.0645775 39.8708451 24.8062676L38.4677113 23.4031338C38.2094015 23.144824 38.2094015 22.7260211 38.4677113 22.4677113 38.7260211 22.2094015 39.144824 22.2094015 39.4031338 22.4677113L40.8062676 23.8708451C41.0645775 24.1291549 41.0645775 24.5479578 40.8062676 24.8062676zM37.5322887 21.5322887C37.2739789 21.7905985 36.855176 21.7905985 36.5968662 21.5322887L35.1937324 20.1291549C34.9354225 19.8708451 34.9354225 19.4520422 35.1937324 19.1937324 35.4520422 18.9354225 35.8708451 18.9354225 36.1291549 19.1937324L37.5322887 20.5968662C37.7905985 20.855176 37.7905985 21.2739789 37.5322887 21.5322887zM50.8062676 100.193732C51.0645775 100.452042 51.0645775 100.870845 50.8062676 101.129155L49.4031338 102.532289C49.144824 102.790599 48.7260211 102.790599 48.4677113 102.532289 48.2094015 102.273979 48.2094015 101.855176 48.4677113 101.596866L49.8708451 100.193732C50.1291549 99.9354225 50.5479578 99.9354225 50.8062676 100.193732L50.8062676 100.193732zM47.5322887 103.467711C47.7905985 103.726021 47.7905985 104.144824 47.5322887 104.403134L46.1291549 105.806268C45.8708451 106.064577 45.4520422 106.064577 45.1937324 105.806268 44.9354225 105.547958 44.9354225 105.129155 45.1937324 104.870845L46.5968662 103.467711C46.855176 103.209401 47.2739789 103.209401 47.5322887 103.467711zM50.8062676 105.806268C50.5479578 106.064577 50.1291549 106.064577 49.8708451 105.806268L48.4677113 104.403134C48.2094015 104.144824 48.2094015 103.726021 48.4677113 103.467711 48.7260211 103.209401 49.144824 103.209401 49.4031338 103.467711L50.8062676 104.870845C51.0645775 105.129155 51.0645775 105.547958 50.8062676 105.806268zM47.5322887 102.532289C47.2739789 102.790599 46.855176 102.790599 46.5968662 102.532289L45.1937324 101.129155C44.9354225 100.870845 44.9354225 100.452042 45.1937324 100.193732 45.4520422 99.9354225 45.8708451 99.9354225 46.1291549 100.193732L47.5322887 101.596866C47.7905985 101.855176 47.7905985 102.273979 47.5322887 102.532289z"/>
  <path fill="#8F52CC" d="M135.976521,20.7105327 L196.976604,20.7105327 L220.976604,44.7105327 L220.976604,129.710606 C220.976604,130.815176 220.081174,131.710606 218.976604,131.710606 L135.976521,131.710606 C134.871952,131.710606 133.976521,130.815176 133.976521,129.710606 L133.976521,22.7105327 C133.976521,21.6059632 134.871952,20.7105327 135.976521,20.7105327 Z" transform="rotate(10 177.477 76.21)"/>
  <path fill="#FFFFFF" fill-rule="nonzero" d="M191.793426,125.91103 L191.793426,123.90103 C197.103426,118.77103 200.433426,115.41103 200.433426,112.50103 C200.433426,110.49103 199.323426,109.20103 197.283426,109.20103 C195.813426,109.20103 194.583426,110.19103 193.563426,111.33103 L191.643426,109.41103 C193.383426,107.55103 195.123426,106.47103 197.733426,106.47103 C201.393426,106.47103 203.763426,108.78103 203.763426,112.32103 C203.763426,115.71103 200.613426,119.19103 196.833426,123.18103 C197.823426,123.09103 199.083426,122.97103 200.013426,122.97103 L204.693426,122.97103 L204.693426,125.91103 L191.793426,125.91103 Z" transform="rotate(10 198.168 116.191)"/>
  <path fill="#FFFFFF" d="M204.05175,26.8413207 L228.05175,50.8413207 L205.05175,50.8413207 C204.499465,50.8413207 204.05175,50.3936055 204.05175,49.8413207 L204.05175,26.8413207 Z" opacity=".3" transform="rotate(10 216.052 38.841)"/>
  <path fill="#B366FF" d="M81.9766169,50.7105183 L142.9767,50.7105183 L166.9767,74.7105183 L166.9767,159.710592 C166.9767,160.815161 166.081269,161.710592 164.9767,161.710592 L81.9766169,161.710592 C80.8720474,161.710592 79.9766169,160.815161 79.9766169,159.710592 L79.9766169,52.7105183 C79.9766169,51.6059488 80.8720474,50.7105183 81.9766169,50.7105183 Z" transform="rotate(-10 123.477 106.21)"/>
  <path fill="#FFFFFF" d="M134.944441,45.9014568 L158.944441,69.9014568 L135.944441,69.9014568 C135.392156,69.9014568 134.944441,69.4537415 134.944441,68.9014568 L134.944441,45.9014568 Z" opacity=".3" transform="rotate(-10 146.944 57.901)"/>
  <path fill="#FFFFFF" fill-rule="nonzero" d="M97.1596845,155.892653 L97.1596845,153.072653 L101.419684,153.072653 L101.419684,140.532653 L97.9096845,140.532653 L97.9096845,138.372653 C99.7996845,138.012653 101.119684,137.532653 102.319684,136.812653 L104.899684,136.812653 L104.899684,153.072653 L108.649684,153.072653 L108.649684,155.892653 L97.1596845,155.892653 Z" transform="rotate(-10 102.905 146.353)"/>
  <path fill="#212121" fill-rule="nonzero" d="M220.210406 15.2448609C236.517279 19.1481672 244.712725 30.0256934 244.712725 47.7577475L243.712725 47.7577475C243.712725 30.5117598 235.854169 20.0440447 220.053494 16.2355624L219.468972 19.9260912 213.625738 14.9507534 220.720448 12.0245845 220.210406 15.2448609 220.210406 15.2448609zM205.109471 162.252078L204.993435 165.574898 198.587415 161.348757 205.272631 157.579771 205.144399 161.251862C218.943215 161.165928 227.765029 154.383481 231.711606 140.822007L232.671774 141.10143C228.598365 155.098732 219.376906 162.176537 205.109471 162.252078L205.109471 162.252078zM52.5083568 60.4797766L55.9221445 60 52.8726016 67.0425606 48 61.1133848 51.5140592 60.619516C50.9686695 49.2941183 56.167933 41.88841 67.0452675 38.522348L67.3408925 39.477652C56.9365041 42.6973579 52.0142893 49.6584954 52.5083568 60.4797766z"/>
  <path fill="#B366FF" d="M94.9825744 24.3549458C96.6343269 22.3084563 99.1598528 21 101.990198 21 106.966174 21 111 25.0442404 111 30.0330638 111 33.1682418 109.406892 35.9303687 106.988012 37.5501266L106.431993 36.7154976C108.644134 35.2341788 109.998911 32.7496518 109.998911 30.0330638 109.998911 25.5985541 106.413288 22.0036738 101.990198 22.0036738 99.518736 22.0036738 97.2396192 23.1336349 95.7366652 25.0159873L98.9933924 25.0159873 98.9933924 26.0170764 94.9825744 26.0170764 94.9825744 26.0183688 93.9814853 26.0183688 93.9814853 26.0170764 93.9750237 26.0170764 93.9750237 25.0159873 93.9814853 25.0159873 93.9814853 21 94.9825744 21 94.9825744 24.3549458zM104.927961 37.5035485L105.295513 38.4356301C104.895058 38.5961339 104.480774 38.7269456 104.058013 38.8274253L104.031697 38.8328245 104.03073 38.8325647C104.022924 38.8346242 104.015119 38.8366837 104.006088 38.8394529L104.005121 38.8391932C103.996349 38.8409929 103.987576 38.8427926 103.979771 38.8448522L103.978545 38.8455619C103.976352 38.8460118 103.974159 38.8464617 103.971707 38.8478811L103.97074 38.8476214C103.965387 38.8482615 103.959775 38.849871 103.953195 38.8512208 103.951261 38.8507013 103.947842 38.8518609 103.945649 38.8523109L103.944682 38.8520511C103.935651 38.8548203 103.927846 38.8568798 103.919073 38.8586796 103.915913 38.8588697 103.913461 38.8602891 103.910301 38.8604793 103.904689 38.8620889 103.89811 38.8634387 103.892757 38.8640788L103.892498 38.8650483C103.889338 38.8652384 103.886178 38.8654286 103.883725 38.866848L103.858635 38.8715375 103.857668 38.8712777 103.832318 38.8769367 103.806001 38.8823359C103.805742 38.8833054 103.805742 38.8833054 103.804775 38.8830456L103.77188 38.8897947 103.770913 38.8895349 103.745563 38.8951939C103.532128 38.9376083 103.318574 38.9727168 103.102965 39L102.978601 38.003364C103.645614 37.9196638 104.300926 37.7517723 104.927961 37.5035485zM100.967293 37.9981702L100.838165 38.9932089C100.819015 38.9911817 100.799158 38.9879253 100.779041 38.9856383L100.778074 38.9853785C100.77614 38.984859 100.773947 38.9853089 100.772013 38.9847894L100.771046 38.9845296C100.766211 38.9832308 100.762084 38.9831612 100.75699 38.9828318L100.751188 38.9812732C100.750221 38.9810134 100.750221 38.9810134 100.748995 38.9817231L100.743193 38.9801645C100.743193 38.9801645 100.741967 38.9808742 100.741 38.9806144 100.738099 38.9798351 100.735198 38.9790558 100.732038 38.979246L100.729137 38.9784667C100.727203 38.9779471 100.725977 38.9786568 100.724043 38.9781373L100.721142 38.977358C100.719208 38.9768384 100.718241 38.9765787 100.716048 38.9770286L100.708312 38.9749505C100.705411 38.9741711 100.703478 38.9736516 100.701284 38.9741015L100.698384 38.9733222C100.69645 38.9728027 100.694516 38.9722831 100.69329 38.9729929L100.689422 38.9719538C100.687488 38.9714342 100.686521 38.9711745 100.684328 38.9716244L100.68046 38.9705853C100.678526 38.9700658 100.675366 38.9702559 100.672465 38.9694766 100.669564 38.9686973 100.666404 38.9688875 100.66447 38.9683679L100.661569 38.9675886C100.660602 38.9673289 100.658409 38.9677788 100.656475 38.9672593L100.653574 38.96648C100.650673 38.9657006 100.64848 38.9661506 100.645579 38.9653713 100.642678 38.964592 100.639518 38.9647821 100.636617 38.9640028L100.634683 38.9634833C100.63249 38.9639332 100.629589 38.9631539 100.627655 38.9626344L100.625721 38.9621148C100.622561 38.962305 100.61966 38.9615257 100.618693 38.9612659L100.617726 38.9610061C100.614566 38.9611963 100.611665 38.960417 100.608765 38.9596377L100.607798 38.9593779C100.604638 38.9595681 100.602704 38.9590485 100.599803 38.9582692L100.598836 38.9580095C100.595676 38.9581996 100.592775 38.9574203 100.589874 38.956641 100.582846 38.9557921 100.576785 38.9552029 100.57195 38.9539041L100.570983 38.9536443C100.567823 38.9538345 100.564922 38.9530552 100.562988 38.9525356L100.562021 38.9522759C100.55596 38.9516867 100.549899 38.9510976 100.544097 38.949539L100.54313 38.9492792C100.540229 38.9484999 100.537069 38.94869 100.535135 38.9481705 100.525206 38.9465423 100.516245 38.9451738 100.507283 38.9438054L100.506316 38.9435456C100.497354 38.9421771 100.488392 38.9408087 100.479689 38.9384708L100.478463 38.9391805C100.439007 38.9316981 100.399291 38.9251852 100.359835 38.9177028L100.358868 38.9174431C100.329081 38.9125584 100.29762 38.9061847 100.267125 38.9000708 100.257455 38.8974731 100.248493 38.8961046 100.239791 38.8937667 100.229862 38.8921385 100.221159 38.8898005 100.21123 38.8881723 100.202268 38.8868039 100.193565 38.8844659 100.183636 38.8828377L100.174934 38.8804998C100.167906 38.8796509 100.163071 38.878352 100.157269 38.8767934L100.156302 38.8765336C100.153142 38.8767238 100.150241 38.8759445 100.14734 38.8751652 100.13767 38.8725675 100.128708 38.871199 100.120006 38.8688611L100.119746 38.8698306C100.110077 38.8672329 100.101374 38.8648949 100.091445 38.8632667L100.082742 38.8609288C100.076681 38.8603396 100.070879 38.858781 100.065078 38.8572224L100.063144 38.8567029C100.060243 38.8559236 100.05805 38.8563735 100.055149 38.8555942L100.054182 38.8553344C100.04838 38.8537758 100.043545 38.8524769 100.037484 38.8518878L100.026847 38.8490303C100.021045 38.8474717 100.015243 38.8459131 100.008215 38.8450642L99.9995127 38.8427262C99.9966118 38.8419469 99.9937108 38.8411676 99.9905508 38.8413578L99.9634754 38.8340842C99.9625084 38.8338245 99.9625084 38.8338245 99.9612824 38.8345342L99.9361409 38.8277801C99.935174 38.8275204 99.9349149 38.8284899 99.9339479 38.8282301L99.9068725 38.8209565C99.9010706 38.8193979 99.8950097 38.8188088 99.8892078 38.8172501L99.8708352 38.8123145C99.8679343 38.8115352 99.8647743 38.8117254 99.8618733 38.8109461L99.8164254 38.7987369C99.8154584 38.7984771 99.8151993 38.7994466 99.8142323 38.7991868L99.7591146 38.7843799C99.7571806 38.7838604 99.7542797 38.7830811 99.7520866 38.783531L99.5673939 38.733915C99.5664269 38.7336552 99.5644929 38.7331357 99.5637851 38.7319064L99.5086673 38.7170995C99.5047994 38.7160604 99.5018985 38.7152811 99.4992566 38.7135324L99.4605775 38.7031416C99.4547757 38.7015829 99.4482659 38.6987951 99.442464 38.6972365L99.4192566 38.691002C99.4175817 38.689513 99.4156478 38.6889934 99.4137138 38.6884739L99.3856715 38.6809406C99.3839966 38.6794515 99.3820626 38.678932 99.3801287 38.6784125L99.364657 38.6742561C99.3513785 38.6696499 99.3378408 38.6660131 99.3235952 38.6611471 99.1904808 38.6201917 99.0584028 38.5753584 98.92781 38.528846L98.9210411 38.5270276C98.9193663 38.5255386 98.9174323 38.525019 98.9145314 38.5242397 98.9060877 38.5209323 98.896677 38.5173651 98.8879742 38.5150272L98.8870072 38.5147674C98.8853324 38.5132784 98.8833984 38.5127589 98.8824314 38.5124991L98.8804975 38.5119796C98.8785635 38.51146 98.8778556 38.5102308 98.8759217 38.5097112L98.8681859 38.5076331C98.8672189 38.5073733 98.866511 38.5061441 98.865544 38.5058843L98.8578082 38.5038061C98.8571003 38.5025769 98.8551664 38.5020574 98.8541994 38.5017976L98.8464636 38.4997194C98.8457557 38.4984902 98.8457557 38.4984902 98.8447887 38.4982304L98.8399538 38.4969316C98.8389868 38.4966718 98.8389868 38.4966718 98.838279 38.4954426L98.8305431 38.4933644C98.8286092 38.4928449 98.8269343 38.4913558 98.8250004 38.4908363L98.8230664 38.4903168C98.8211325 38.4897972 98.8191985 38.4892777 98.8165567 38.4875289L98.8155897 38.4872691C98.7591256 38.4658661 98.7026616 38.4444631 98.6476827 38.4213808L99.0171393 37.4888261C99.3082827 37.605485 99.6118257 37.7067717 99.9173907 37.7888589 100.262602 37.8815968 100.615706 37.9525563 100.967293 37.9981702zM95.7974733 35.1255391C96.2245835 35.6486367 96.7155378 36.1151107 97.2569374 36.5130492L96.6651503 37.3235321C96.5111653 37.2094299 96.3620847 37.0924888 96.2164925 36.9702504 96.2097931 36.9642944 96.2021267 36.9580785 96.1951682 36.953092L96.1760369 36.9354836 96.17507 36.9352238 96.1556796 36.9185849 96.1547126 36.9183251C96.1530377 36.9168361 96.1503959 36.9150873 96.1489802 36.9126288L96.1480132 36.912369C96.1436965 36.9091312 96.1396389 36.904924 96.1343552 36.9014264L96.1346143 36.9004569C96.1319725 36.8987081 96.1302977 36.8972191 96.1276558 36.8954703L96.1269479 36.8942411C96.1209564 36.8895143 96.115224 36.883818 96.1085245 36.8778619 96.1075576 36.8776022 96.1075576 36.8776022 96.1078167 36.8766327 96.1051748 36.8748839 96.1035 36.8733949 96.1018251 36.8719059L96.1008581 36.8716461C96.0965415 36.8684083 96.0912578 36.8649107 96.0872002 36.8607035 96.0872002 36.8607035 96.0862332 36.8604437 96.0864923 36.8594742 96.0848175 36.8579852 96.0841096 36.856756 96.0814678 36.8550072L96.0805008 36.8547474C96.0764432 36.8505401 96.0721265 36.8473023 96.0680689 36.8430951 96.0671019 36.8428353 96.0671019 36.8428353 96.0663941 36.8416061L96.0613695 36.837139C96.0604025 36.8368792 96.0604025 36.8368792 96.0596947 36.83565L96.0546701 36.831183 96.0537031 36.8309232C96.0510613 36.8291744 96.0506125 36.8269757 96.0479707 36.8252269 96.0479707 36.8252269 96.0470037 36.8249671 96.0472628 36.8239977L96.0422382 36.8195306C96.0412713 36.8192708 96.0403043 36.8190111 96.0405634 36.8180416 96.0388885 36.8165526 96.0362467 36.8148038 96.0345718 36.8133148L96.0336049 36.813055C96.0321891 36.8105965 96.0295473 36.8088477 96.0276133 36.8083282 96.0266463 36.8080684 96.0266463 36.8080684 96.0269054 36.807099 96.0242636 36.8053502 96.0225887 36.8038612 96.0209139 36.8023721 96.0199469 36.8021124 96.020206 36.8011429 96.019239 36.8008831L96.0151815 36.7966759C96.0151815 36.7966759 96.0144736 36.7954466 96.0135066 36.7951868L96.008482 36.7907198C96.0075151 36.79046 96.0075151 36.79046 96.0077742 36.7894906 96.0051323 36.7877418 96.0034575 36.7862528 96.0017826 36.7847637 96.0010747 36.7835345 96.0001078 36.7832747 95.9991408 36.783015 95.9974659 36.7815259 95.9967581 36.7802967 95.9950832 36.7788077 95.9941162 36.7785479 95.9934083 36.7773187 95.9934083 36.7773187L95.9883838 36.7728516C95.9874168 36.7725919 95.9876759 36.7716224 95.9867089 36.7713626 95.9850341 36.7698736 95.9833592 36.7683846 95.9809765 36.7656663L95.9802686 36.7644371C95.9785938 36.7629481 95.9766598 36.7624285 95.9759519 36.7611993 95.975244 36.75997 95.9742771 36.7597103 95.9735692 36.758481 95.9716352 36.7579615 95.9709274 36.7567322 95.9692525 36.7552432 95.9685446 36.754014 95.9675776 36.7537542 95.9675776 36.7537542 95.9651949 36.751036 95.9635201 36.7495469 95.9618452 36.7480579L95.9599112 36.7475384 95.9548867 36.7430713C95.9539197 36.7428116 95.9541788 36.7418421 95.9532118 36.7415823 95.951537 36.7400933 95.9498621 36.7386043 95.9491542 36.7373751 95.9481873 36.7371153 95.9472203 36.7368555 95.9465124 36.7356263L95.9424548 36.731419C95.9414878 36.7311592 95.9417469 36.7301898 95.9417469 36.7301898 95.9391051 36.728441 95.9374303 36.726952 95.9357554 36.7254629 95.9350475 36.7242337 95.9340805 36.7239739 95.9333727 36.7227447 95.9324057 36.7224849 95.9307308 36.7209959 95.929056 36.7195069 95.929056 36.7195069 95.9273811 36.7180179 95.9276402 36.7170484 95.9257063 36.7165289 95.9240314 36.7150399 95.9233235 36.7138106 95.9223566 36.7135508 95.9216487 36.7123216 95.9206817 36.7120618 95.9190069 36.7105728 95.9175911 36.7081143 95.9149493 36.7063655 95.9149493 36.7063655 95.9142414 36.7051363 95.9132744 36.7048765 95.9115996 36.7033875 95.9108917 36.7021583 95.9101838 36.700929 95.9092168 36.7006692 95.908509 36.69944 95.907542 36.6991802 95.9068341 36.697951 95.9051592 36.696462 95.9044514 36.6952327 95.9034844 36.694973 95.9027765 36.6937437 95.9018095 36.6934839 95.9001347 36.6919949 95.8974928 36.6902461 95.8960771 36.6877877 95.8951101 36.6875279 95.8941431 36.6872681 95.8934353 36.6860389 95.8924683 36.6857791 95.8907934 36.6842901 95.8898265 36.6840303 95.8891186 36.6828011 95.8881516 36.6825413 95.8874437 36.6813121 95.8857689 36.679823 95.8848019 36.6795633 95.884094 36.678334 95.8833861 36.6771048 95.8824192 36.676845 95.8807443 36.675356 95.8800364 36.6741268 95.8783616 36.6726377 95.8766867 36.6711487 95.8766867 36.6711487 95.8759788 36.6699195 95.8750119 36.6696597 95.873337 36.6681707 95.8716621 36.6666817 95.8709543 36.6654524 95.8702464 36.6642232 95.8683124 36.6637037 95.8676046 36.6624744 95.8666376 36.6622146 95.8659297 36.6609854 95.8642549 36.6594964 95.863547 36.6582671 95.86258 36.6580074 95.8618721 36.6567781 95.8609051 36.6565184 95.8592303 36.6550293 95.8585224 36.6538001 95.8575554 36.6535403 95.8568476 36.6523111 95.8558806 36.6520513 95.8544648 36.6495928 95.85279 36.6481038 95.8501481 36.646355 95.8494403 36.6451258 95.8484733 36.644866 95.8477654 36.6436368 95.8467984 36.643377 95.8460906 36.6421478 95.8444157 36.6406587 95.8434487 36.640399 95.8427408 36.6391697 95.842033 36.6379405 95.841066 36.6376807 95.8403581 36.6364515 95.8396502 36.6352222 95.8386833 36.6349625 95.8379754 36.6337332 95.8370084 36.6334734 95.8346257 36.6307552 95.8329508 36.6292662 95.831276 36.6277772 95.830309 36.6275174 95.8296011 36.6262881 95.8288932 36.6250589 95.8279263 36.6247991 95.8259923 36.6242796 95.8252844 36.6230503 95.8243174 36.6227906 95.8236096 36.6215613 95.8219347 36.6200723 95.8209677 36.6198125 95.8202599 36.6185833 95.819552 36.6173541 95.818585 36.6170943 95.8169101 36.6156053 95.8162023 36.614376 95.8152353 36.6141163 95.8145274 36.612887 95.8128526 36.611398 95.8111777 36.609909 95.8104698 36.6086797 95.8085359 36.6081602L95.8064122 36.6044725C95.8054453 36.6042127 95.8037704 36.6027237 95.8030625 36.6014944 95.8020956 36.6012347 95.8013877 36.6000054 95.8006798 36.5987762 95.7987458 36.5982566 95.798038 36.5970274 95.797071 36.5967676 95.7963631 36.5955384 95.7956552 36.5943091 95.7939804 36.5928201 95.7930134 36.5925604 95.7913385 36.5910713 95.7896637 36.5895823 95.7889558 36.5883531 95.787281 36.5868641 95.7865731 36.5856348 95.7846391 36.5851153 95.7839313 36.583886 95.7832234 36.5826568 95.7822564 36.582397 95.7815485 36.5811678 95.7808406 36.5799385 95.7789067 36.579419 95.7781988 36.5781898 95.7774909 36.5769605 95.776524 36.5767007 95.7758161 36.5754715 95.7741412 36.5739825 95.7731742 36.5737227 95.7734333 36.5727532 95.7727255 36.571524 95.7707915 36.5710045 95.7691167 36.5695154 95.7684088 36.5682862 95.7667339 36.5667972 95.7650591 36.5653082 95.7640921 36.5650484 95.7633842 36.5638192 95.7624172 36.5635594 95.7617094 36.5623301 95.7600345 36.5608411 95.7590675 36.5605814 95.7583597 36.5593521 95.7576518 36.5581229 95.7566848 36.5578631 95.7550099 36.5563741 95.754043 36.5561143 95.7533351 36.5548851 95.7526272 36.5536558 95.7516602 36.5533961 95.7499854 36.551907 95.7492775 36.5506778 95.7476027 36.5491888 95.7449608 36.54744 95.7435451 36.5449815 95.7425781 36.5447217 95.7418702 36.5434925 95.7418702 36.5434925 95.7401954 36.5420035 95.7394875 36.5407742 95.7385205 36.5405145L95.7371047 36.538056C95.7354299 36.536567 95.734722 36.5353377 95.7327881 36.5348182 95.7330472 36.5338487 95.7320802 36.5335889 95.7313723 36.5323597 95.7287305 36.5306109 95.7263477 36.5278927 95.7246729 36.5264036 95.723965 36.5251744 95.722998 36.5249146 95.722998 36.5249146 95.7213232 36.5234256 95.7206153 36.5221964 95.7189404 36.5207074 95.7179735 36.5204476 95.7172656 36.5192183 95.7172656 36.5192183 95.7155907 36.5177293 95.7148829 36.5165001 95.713208 36.5150111 95.712241 36.5147513 95.7125001 36.5137818 95.7115332 36.513522 95.7074756 36.5093148 95.704385 36.5053673 95.6998092 36.503099 95.6991013 36.5018697 95.6981343 36.5016099 95.6983934 36.5006405 95.6967186 36.4991514 95.6957516 36.4988917 95.6940767 36.4974027 95.6933689 36.4961734 95.6933689 36.4961734 95.6924019 36.4959136 95.6883443 36.4917064 95.6842867 36.4874991 95.6792621 36.4830321 95.6795212 36.4820626 95.6785543 36.4818028 95.6785543 36.4818028 95.6768794 36.4803138 95.6761715 36.4790846 95.6744967 36.4775955 95.6735297 36.4773358 95.6737888 36.4763663 95.6728218 36.4761065 95.671147 36.4746175 95.6704391 36.4733883 95.6697312 36.472159 95.6697312 36.472159 95.6687642 36.4718993 95.6690233 36.4709298 95.6656736 36.4679518 95.6623239 36.4649737 95.6599412 36.4622555 95.6582663 36.4607665 95.6575585 36.4595372 95.6556245 36.4590177L95.6542087 36.4565592C95.6522748 36.4560396 95.651826 36.4538409 95.6498921 36.4533214 95.6501512 36.4523519 95.6491842 36.4520921 95.6491842 36.4520921 95.6451266 36.4478849 95.6398429 36.4443873 95.6357853 36.44018 95.6360444 36.4392106 95.6360444 36.4392106 95.6350775 36.4389508 95.6343696 36.4377215 95.6326947 36.4362325 95.6310199 36.4347435L95.630312 36.4335143C95.6252874 36.4290472 95.6212298 36.4248399 95.6164644 36.4194034L95.6154974 36.4191437C95.6147895 36.4179144 95.6131147 36.4164254 95.6114398 36.4149364L95.6107319 36.4137071C95.6090571 36.4122181 95.6073822 36.4107291 95.6066744 36.4094999L95.6057074 36.4092401C95.6016498 36.4050328 95.5978513 36.3998561 95.5928267 36.395389 95.5928267 36.395389 95.5918598 36.3951293 95.5921189 36.3941598 95.590444 36.3926708 95.5897361 36.3914415 95.5880613 36.3899525L95.5870943 36.3896928C95.5820697 36.3852257 95.5780122 36.3810184 95.5729876 36.3765514 95.5729876 36.3765514 95.5720206 36.3762916 95.5722797 36.3753222 95.5706049 36.3738331 95.569897 36.3726039 95.5682221 36.3711149 95.5617818 36.3641893 95.5560494 36.3584931 95.549609 36.3515675L95.5486421 36.3513078C95.5422018 36.3443822 95.5367284 36.3377165 95.530996 36.3320202 95.352911 36.1490989 95.1832188 35.9580415 95.0223683 35.7610467L95.7974733 35.1255391zM94.1122171 31.4921878C94.2353664 32.155992 94.442111 32.8017292 94.7258902 33.4151681L93.8188424 33.8385869C93.8191015 33.8376174 93.8181345 33.8373577 93.8183936 33.8363882 93.8176857 33.8351589 93.8169779 33.8339297 93.815303 33.8324407 93.8155621 33.8314712 93.8148542 33.830242 93.8148542 33.830242 93.8134385 33.8277835 93.8129897 33.8255848 93.8113148 33.8240957 93.811574 33.8231263 93.811574 33.8231263 93.810607 33.8228665 93.8101582 33.8206678 93.8087424 33.8182093 93.8075858 33.8147813 93.8075858 33.8147813 93.8068779 33.8135521 93.807137 33.8125826 93.8054622 33.8110936 93.8050134 33.8088949 93.8043055 33.8076656L93.8028898 33.8052071C93.802441 33.8030084 93.8017331 33.8017792 93.8003173 33.7993207 93.8005764 33.7983512 93.7996095 33.7980915 93.7998686 33.797122 93.7984528 33.7946635 93.798004 33.7924648 93.7965883 33.7900063 93.7965883 33.7900063 93.7968474 33.7890368 93.7958804 33.788777 93.7954316 33.7865783 93.7947238 33.7853491 93.7940159 33.7841198 93.793308 33.7828906 93.792341 33.7826308 93.7926001 33.7816613 93.7921514 33.7794626 93.7904765 33.7779736 93.7900277 33.7757749L93.788612 33.7733164C93.7881632 33.7711177 93.7867474 33.7686592 93.7853317 33.7662007 93.7853317 33.7662007 93.7855908 33.7652312 93.7846238 33.7649715 93.784175 33.7627727 93.7834672 33.7615435 93.7820514 33.759085 93.7823105 33.7581155 93.7816026 33.7568863 93.7806356 33.7566265 93.7801869 33.7544278 93.779479 33.7531986 93.7790302 33.7509998 93.7780632 33.7507401 93.7783223 33.7497706 93.7776145 33.7485414 93.7771657 33.7463426 93.7757499 33.7438841 93.7743342 33.7414257L93.7736263 33.7401964C93.7731775 33.7379977 93.7715027 33.7365087 93.7707948 33.7352794L93.769379 33.7328209C93.7689303 33.7306222 93.7691894 33.7296528 93.7687406 33.727454 93.7677736 33.7271943 93.7670657 33.725965 93.7673248 33.7249955 93.7659091 33.7225371 93.7652012 33.7213078 93.7647524 33.7191091L93.7640446 33.7178798C93.7626288 33.7154214 93.761213 33.7129629 93.7607643 33.7107642 93.7600564 33.7095349 93.7593485 33.7083057 93.7596076 33.7073362 93.7588997 33.7061069 93.7581919 33.7048777 93.7577431 33.702679 93.7570352 33.7014497 93.7560682 33.70119 93.7563273 33.7002205 93.7558786 33.6980218 93.7542037 33.6965328 93.7534958 33.6953035 93.7527879 33.6940743 93.753047 33.6931048 93.753047 33.6931048 93.7516313 33.6906463 93.7504746 33.6872183 93.7487998 33.6857293L93.7480919 33.6845001C93.7476431 33.6823014 93.7469353 33.6810721 93.7455195 33.6786136 93.7457786 33.6776442 93.7448116 33.6773844 93.7450707 33.6764149 93.743655 33.6739564 93.7429471 33.6727272 93.7424983 33.6705285L93.7420495 33.6683297C93.7416008 33.666131 93.740185 33.6636725 93.7397362 33.6614738 93.7387693 33.6612141 93.7380614 33.6599848 93.7383205 33.6590153 93.7376126 33.6577861 93.7371638 33.6555874 93.735489 33.6540984 93.7357481 33.6531289 93.7350402 33.6518996 93.7343323 33.6506704L93.7322087 33.6469827C93.7324678 33.6460132 93.7317599 33.6447839 93.731052 33.6435547 93.7306033 33.641356 93.7298954 33.6401267 93.7284796 33.6376682 93.7287387 33.6366988 93.7277718 33.636439 93.7270639 33.6352098 93.726356 33.6339805 93.7259072 33.6317818 93.7244915 33.6293233L93.7230757 33.6268648C93.7223678 33.6256356 93.7219191 33.6234369 93.7212112 33.6222076 93.7214703 33.6212381 93.7207624 33.6200089 93.7200545 33.6187796 93.7193467 33.6175504 93.7186388 33.6163212 93.71819 33.6141224 93.717223 33.6138627 93.7174821 33.6128932 93.7167743 33.611664 93.7163255 33.6094652 93.7158767 33.6072665 93.7144609 33.604808 93.7147201 33.6038386 93.7140122 33.6026093 93.7130452 33.6023495 93.7125964 33.6001508 93.7118885 33.5989216 93.7111807 33.5976923 93.7114398 33.5967229 93.7107319 33.5954936 93.710024 33.5942644 93.7093161 33.5930351 93.7088674 33.5908364 93.7081595 33.5896072 93.7074516 33.5883779 93.7074516 33.5883779 93.7064846 33.5881181 93.7060359 33.5859194 93.7046201 33.5834609 93.7032043 33.5810025 93.7034634 33.580033 93.7027556 33.5788037 93.7030147 33.5778343L93.7001832 33.5729173C93.7004423 33.5719478 93.6997344 33.5707186 93.6987674 33.5704588 93.6983186 33.5682601 93.6976108 33.5670308 93.6969029 33.5658016 93.696195 33.5645723 93.6964541 33.5636029 93.6957462 33.5623736 93.6952975 33.5601749 93.6938817 33.5577164 93.6934329 33.5555177 93.692725 33.5542885 93.6917581 33.5540287 93.6920172 33.5530592 93.6915684 33.5508605 93.6908605 33.5496312 93.6901526 33.548402L93.688996 33.544974C93.6882881 33.5437448 93.6888063 33.5418058 93.6880984 33.5405766L93.6857157 33.5378583C93.6850078 33.5366291 93.684559 33.5344304 93.6838512 33.5332011 93.6831433 33.5319719 93.6824354 33.5307426 93.6826945 33.5297732 93.6810197 33.5282842 93.6805709 33.5260854 93.6801221 33.5238867 93.6794142 33.5226575 93.6787064 33.5214282 93.6789655 33.5204588L93.6768418 33.516771C93.6763931 33.5145723 93.6754261 33.5143125 93.6756852 33.5133431L93.6728537 33.5084261C93.6731128 33.5074566 93.6724049 33.5062274 93.672664 33.5052579 93.6712482 33.5027994 93.6707995 33.5006007 93.6693837 33.4981422L93.667968 33.4956837C93.6672601 33.4944545 93.6668113 33.4922557 93.6661034 33.4910265L93.6646877 33.488568C93.6639798 33.4873388 93.663531 33.48514 93.6628231 33.4839108L93.6623744 33.4817121C93.6609586 33.4792536 93.6605098 33.4770549 93.6590941 33.4745964 93.6593532 33.4736269 93.6586453 33.4723977 93.6586453 33.4723977 93.6581965 33.470199 93.6574887 33.4689697 93.6560729 33.4665112 93.656332 33.4655417 93.6556241 33.4643125 93.6546571 33.4640527 93.6542084 33.461854 93.6535005 33.4606248 93.6527926 33.4593955 93.6530517 33.458426 93.6523438 33.4571968 93.651636 33.4559676 93.6511872 33.4537688 93.6507384 33.4515701 93.6490636 33.4500811 93.6483557 33.4488519 93.6486148 33.4478824 93.6479069 33.4466531 93.6474581 33.4444544 93.6467503 33.4432252 93.6460424 33.4419959 93.6450754 33.4417362 93.6453345 33.4407667 93.6446266 33.4395374 93.6441778 33.4373387 93.64347 33.4361095 93.6427621 33.4348802 93.6420542 33.433651 93.6423133 33.4326815 93.6416054 33.4314523 93.6408976 33.430223 93.6394818 33.4277645 93.639033 33.4255658L93.6383252 33.4243366C93.6369094 33.4218781 93.6364606 33.4196794 93.6360118 33.4174807 93.6362709 33.4165112 93.6355631 33.4152819 93.6358222 33.4143125 93.6341473 33.4128235 93.6336985 33.4106247 93.6329907 33.4093955 93.6332498 33.408426 93.6325419 33.4071968 93.6315749 33.406937 93.6311261 33.4047383 93.6306774 33.4025396 93.6299695 33.4013103 93.6292616 33.4000811 93.6292616 33.4000811 93.6295207 33.3991116L93.6259813 33.3929654C93.6252734 33.3917361 93.6255325 33.3907667 93.6245656 33.3905069 93.6241168 33.3883082 93.6234089 33.3870789 93.6229601 33.3848802L93.6215444 33.3824217C93.6210956 33.380223 93.6203877 33.3789938 93.619939 33.376795L93.6185232 33.3743365C93.6180744 33.3721378 93.6166587 33.3696793 93.6152429 33.3672209 93.615502 33.3662514 93.615502 33.3662514 93.6147941 33.3650221 93.6143454 33.3628234 93.6136375 33.3615942 93.6131887 33.3593955 93.6122217 33.3591357 93.611773 33.356937 93.611773 33.356937 93.6113242 33.3547382 93.6106163 33.353509 93.6111345 33.3515701 93.6101675 33.3513103 93.6094597 33.350081 93.6097188 33.3491116 93.608303 33.3466531 93.6078542 33.3444544 93.6061794 33.3429653 93.6064385 33.3419959 93.6054715 33.3417361 93.6057306 33.3407666 93.6050227 33.3395374 93.6045739 33.3373387 93.6031582 33.3348802 93.6034173 33.3339107 93.6024503 33.3336509 93.6027094 33.3326815L93.5998779 33.3277645C93.600137 33.326795 93.5994291 33.3255658 93.5987213 33.3243365 93.5980134 33.3231073 93.5975646 33.3209086 93.5971158 33.3187098 93.5961488 33.3184501 93.5964079 33.3174806 93.5957001 33.3162513 93.5952513 33.3140526 93.5938355 33.3115941 93.5933868 33.3093954 93.5924198 33.3091356 93.5926789 33.3081662 93.591971 33.3069369 93.5915222 33.3047382 93.5908144 33.303509 93.5901065 33.3022797 93.5903656 33.3013102 93.5896577 33.300081 93.5889498 33.2988518 93.588242 33.2976225 93.5875341 33.2963933 93.5870853 33.2941946 93.5861183 33.2939348 93.5863774 33.2929653 93.5866365 33.2919958 93.5852208 33.2895373 93.584772 33.2873386 93.5843232 33.2851399L93.5829075 33.2826814C93.5824587 33.2804827 93.5817508 33.2792535 93.581302 33.2770547L93.5798863 33.2745962C93.5791784 33.273367 93.5787296 33.2711683 93.5782809 33.2689696 93.5773139 33.2687098 93.577573 33.2677403 93.5768651 33.2665111 93.5764163 33.2643124 93.5750006 33.2618539 93.5745518 33.2596552L93.573136 33.2571967C93.5724282 33.2559674 93.5719794 33.2537687 93.5715306 33.25157 93.5705636 33.2513102 93.5708227 33.2503407 93.5701149 33.2491115 93.569407 33.2478822 93.5686991 33.246653 93.5682503 33.2444543 93.5672833 33.2441945 93.5675424 33.243225 93.5668346 33.2419958 93.5663858 33.2397971 93.56497 33.2373386 93.5645213 33.2351399L93.5635543 33.2348801C93.5633646 33.2317119 93.5619489 33.2292534 93.5615001 33.2270547L93.5600843 33.2245962C93.5593765 33.223367 93.5598947 33.221428 93.5594459 33.2192293 93.5584789 33.2189695 93.558738 33.2180001 93.5580301 33.2167708 93.5575813 33.2145721 93.5571326 33.2123734 93.5557168 33.2099149 93.5545602 33.2064869 93.5531444 33.2040284 93.5526956 33.2018297 93.5519878 33.2006005 93.5519878 33.2006005 93.5522469 33.199631 93.550572 33.198142 93.5498641 33.1969127 93.5494154 33.194714 93.5487075 33.1934848 93.5487075 33.1934848 93.5489666 33.1925153 93.5475508 33.1900568 93.547102 33.1878581 93.5463942 33.1866289 93.5456863 33.1853996 93.5456863 33.1853996 93.5459454 33.1844301 93.5445296 33.1819716 93.5431139 33.1795132 93.5429242 33.176345 93.5429242 33.176345 93.5419572 33.1760852 93.5422163 33.1751157 93.5415085 33.1738865 93.5400927 33.171428 93.5396439 33.1692293 93.539903 33.1682598 93.5391952 33.1670305 93.5391952 33.1670305 93.5377794 33.1645721 93.5373306 33.1623733 93.5368818 33.1601746L93.536174 33.1589454C93.5347582 33.1564869 93.5345685 33.1533187 93.5338607 33.1520895 93.5324449 33.149631 93.5322552 33.1464628 93.5308395 33.1440043L93.5301316 33.142775C93.5296828 33.1405763 93.5292341 33.1383776 93.5278183 33.1359191L93.5271104 33.1346899C93.525505 33.1290632 93.5236405 33.124406 93.522035 33.1187793L93.5206193 33.1163208C93.5199114 33.1150916 93.5194626 33.1128928 93.5190139 33.1106941L93.5175981 33.1082356C93.5171493 33.1060369 93.5157336 33.1035784 93.5150257 33.1023492 93.513869 33.0989212 93.5124533 33.0964627 93.5122636 33.0932945 93.5122636 33.0932945 93.5112966 33.0930348 93.5115557 33.0920653 93.511107 33.0898666 93.5094321 33.0883776 93.5089833 33.0861788L93.5095015 33.0842399C93.5080858 33.0817814 93.507637 33.0795827 93.5071882 33.077384L93.5064803 33.0761547C93.5060316 33.073956 93.5048749 33.070528 93.5034592 33.0680696L93.5037183 33.0671001C93.5023025 33.0646416 93.5018537 33.0624429 93.500438 33.0599844 93.500438 33.0599844 93.5006971 33.0590149 93.4997301 33.0587551 93.4992813 33.0565564 93.4985735 33.0553272 93.4971577 33.0528687L93.4976759 33.0509297C93.4948444 33.0460128 93.493239 33.0403861 93.4916335 33.0347594 93.4916335 33.0347594 93.4906666 33.0344996 93.4909257 33.0335302 93.4904769 33.0313314 93.4890611 33.0288729 93.4886124 33.0266742 93.4886124 33.0266742 93.4876454 33.0264145 93.4879045 33.025445 93.486299 33.0198183 93.4854015 33.0154209 93.4828291 33.0095344L93.4830882 33.0085649C93.4814133 33.0070759 93.4809646 33.0048772 93.4805158 33.0026785L93.4798079 33.0014492C93.4782025 32.9958226 93.4756301 32.9899361 93.4740246 32.9843094 93.4726089 32.9818509 93.4724192 32.9786827 93.4710035 32.9762243L93.4712626 32.9752548C93.4682414 32.9671696 93.4649611 32.9600539 93.462199 32.9509993L93.461232 32.9507395C93.4610424 32.9475713 93.4605936 32.9453726 93.4601448 32.9431739L93.4604039 32.9422044C93.4575724 32.9372874 93.455967 32.9316607 93.4543615 32.9260341 93.4546206 32.9250646 93.4536537 32.9248048 93.4536537 32.9248048 93.4532049 32.9226061 93.4517891 32.9201476 93.4515995 32.9169794L93.4506325 32.9167196 93.4455571 32.9008091 93.4445901 32.9005493C93.4444004 32.8973811 93.4429847 32.8949226 93.4425359 32.8927239 93.442795 32.8917544 93.442795 32.8917544 93.441828 32.8914947 93.4388069 32.8834095 93.4370117 32.8746146 93.4349575 32.8667892L93.4339906 32.8665294C93.4319364 32.858704 93.4291743 32.8496494 93.4261531 32.8415642 93.423391 32.8325096 93.4203698 32.8244244 93.4173487 32.8163392 93.4159329 32.8138808 93.4157432 32.8107126 93.4145866 32.8072846 93.4125324 32.7994592 93.4097703 32.7904046 93.4067491 32.7823194 93.2918797 32.4210335 93.1977843 32.0518202 93.1280715 31.6766883L94.1122171 31.4921878zM93.4407111 27.1835308L94.3909862 27.4980411C94.3413455 27.6488802 94.2955726 27.8007583 94.2543756 27.9549047 94.1204204 28.456123 94.0353323 28.9683908 93.9980935 29.4800048L93 29.4103402C93.0194153 29.1360435 93.0505038 28.8607265 93.0961663 28.5851683 93.0974618 28.5803209 93.0977904 28.5752138 93.0988268 28.5713359 93.0991553 28.5662287 93.1001917 28.5623508 93.1005202 28.5572437L93.102593 28.5494879C93.1021442 28.5472892 93.1026624 28.5453502 93.1034397 28.5424418 93.1039579 28.5405028 93.1037683 28.5373347 93.1042865 28.5353957 93.1090891 28.5096698 93.1126657 28.4846537 93.1177275 28.4579583 93.1185048 28.4550499 93.119023 28.4531109 93.1185742 28.4509122L93.1203879 28.4441259C93.1201983 28.4409577 93.1204574 28.4399882 93.1212347 28.4370798L93.1230484 28.4302935C93.1230484 28.4302935 93.1233075 28.429324 93.1223405 28.4290642L93.1241542 28.4222779C93.1246724 28.420339 93.1244827 28.4171708 93.1247418 28.4162013L93.1268146 28.4084455C93.1273328 28.4065066 93.1268841 28.4043078 93.1274023 28.4023689L93.1294751 28.3946131C93.1292854 28.3914449 93.1295445 28.3904754 93.1303218 28.387567 93.1310991 28.3846586 93.1316173 28.3827196 93.1314276 28.3795514L93.1414817 28.3302984C93.141033 28.3280997 93.1415512 28.3261607 93.1420694 28.3242218L93.1441422 28.316466C93.1436934 28.3142673 93.1442116 28.3123283 93.1447298 28.3103894L93.1509482 28.287122C93.1502404 28.2858928 93.1504995 28.2849233 93.1510177 28.2829843L93.1533496 28.2742591C93.1538678 28.2723201 93.153419 28.2701214 93.1539372 28.2681824L93.1562691 28.2594572C93.1565282 28.2584877 93.1560794 28.256289 93.1565976 28.25435L93.1589295 28.2456248C93.1608127 28.2347008 93.1629549 28.2228073 93.1663232 28.2102041 93.1658744 28.2080054 93.1663926 28.2060665 93.1669108 28.2041275L93.1692427 28.1954023C93.1695019 28.1944328 93.1690531 28.1922341 93.1695713 28.1902951L93.1734578 28.175753C93.1734578 28.175753 93.1737169 28.1747835 93.173009 28.1735543L93.1763773 28.1609511C93.1768955 28.1590122 93.1761877 28.1577829 93.1767059 28.155844L93.1811106 28.1393629C93.1813697 28.1383934 93.18118 28.1352252 93.1814391 28.1342558L93.1850665 28.1206831C93.1853256 28.1197137 93.1853256 28.1197137 93.1846177 28.1184844L93.1864314 28.1116981C93.1895407 28.1000644 93.1916829 28.0881709 93.194533 28.0775067 93.1947921 28.0765372 93.1938251 28.0762775 93.1938251 28.0762775L93.1997844 28.0539796C93.2000435 28.0530101 93.1998539 28.0498419 93.200113 28.0488724L93.2055541 28.0285135C93.2048462 28.0272842 93.2051053 28.0263147 93.2051053 28.0263147L93.212101 28.0001389C93.2111341 27.9998792 93.2113932 27.9989097 93.2116523 27.9979402L93.2170934 27.9775812C93.2176116 27.9756423 93.2181298 27.9737033 93.217681 27.9715046L93.2259722 27.9404814C93.2262313 27.939512 93.2257826 27.9373133 93.2263008 27.9353743L93.2343329 27.9053206C93.234592 27.9043511 93.2351102 27.9024122 93.2344023 27.9011829L93.246321 27.8565871C93.2465801 27.8556176 93.2470983 27.8536787 93.2463904 27.8524494L93.2624546 27.792342C93.2629728 27.7904031 93.262265 27.7891738 93.2625241 27.7882044L93.3114941 27.6049737C93.3120123 27.6030348 93.3125305 27.6010958 93.3140157 27.5994166L93.3295618 27.5412482C93.3303391 27.5383397 93.3318243 27.5366606 93.3326016 27.5337521L93.3437429 27.4920647C93.344002 27.4910953 93.3445202 27.4891563 93.3460054 27.4874771L93.3545557 27.4554845C93.3560409 27.4538053 93.3563 27.4528358 93.3568182 27.4508969L93.361482 27.4334463C93.3627775 27.428599 93.3643321 27.4227821 93.3668537 27.417225L93.3730721 27.3939577 93.3740391 27.3942174 93.3758528 27.3874311C93.396442 27.3181485 93.4187061 27.2503549 93.4407111 27.1835308zM246.017426 107.354946L246.017426 104 247.018515 104 247.018515 108.015987 247.024976 108.015987 247.024976 109.017076 247.018515 109.017076 247.018515 109.018369 246.017426 109.018369 246.017426 109.017076 242.006608 109.017076 242.006608 108.015987 245.263335 108.015987C243.760381 106.133635 241.481264 105.003674 239.009802 105.003674 234.586712 105.003674 231.001089 108.598554 231.001089 113.033064 231.001089 115.749652 232.355866 118.234179 234.568007 119.715498L234.011988 120.550127C231.593108 118.930369 230 116.168242 230 113.033064 230 108.04424 234.033826 104 239.009802 104 241.840147 104 244.365673 105.308456 246.017426 107.354946zM236.072039 120.503549C236.699074 120.751772 237.354386 120.919664 238.021399 121.003364L237.897035 122C237.681426 121.972717 237.467872 121.937608 237.254437 121.895194L237.229087 121.889535 237.22812 121.889795 237.195225 121.883046C237.194258 121.883305 237.194258 121.883305 237.193999 121.882336L237.167682 121.876937 237.142332 121.871278 237.141365 121.871538 237.116275 121.866848C237.113822 121.865429 237.110662 121.865238 237.107502 121.865048L237.107243 121.864079C237.10189 121.863439 237.095311 121.862089 237.089699 121.860479 237.086539 121.860289 237.084087 121.85887 237.080927 121.85868 237.072154 121.85688 237.064349 121.85482 237.055318 121.852051L237.054351 121.852311C237.052158 121.851861 237.048739 121.850701 237.046805 121.851221 237.040225 121.849871 237.034613 121.848261 237.02926 121.847621L237.028293 121.847881C237.025841 121.846462 237.023648 121.846012 237.021455 121.845562L237.020229 121.844852C237.012424 121.842793 237.003651 121.840993 236.994879 121.839193L236.993912 121.839453C236.984881 121.836684 236.977076 121.834624 236.96927 121.832565L236.968303 121.832824 236.941987 121.827425C236.519226 121.726946 236.104942 121.596134 235.704487 121.43563L236.072039 120.503549zM240.032707 120.99817C240.384294 120.952556 240.737398 120.881597 241.082609 120.788859 241.388174 120.706772 241.691717 120.605485 241.982861 120.488826L242.352317 121.421381C242.297338 121.444463 242.240874 121.465866 242.18441 121.487269L242.183443 121.487529C242.180801 121.489278 242.178868 121.489797 242.176934 121.490317L242.175 121.490836C242.173066 121.491356 242.171391 121.492845 242.169457 121.493364L242.161721 121.495443C242.161013 121.496672 242.161013 121.496672 242.160046 121.496932L242.155211 121.49823C242.154244 121.49849 242.154244 121.49849 242.153536 121.499719L242.145801 121.501798C242.144834 121.502057 242.1429 121.502577 242.142192 121.503806L242.134456 121.505884C242.133489 121.506144 242.132781 121.507373 242.131814 121.507633L242.124078 121.509711C242.122144 121.510231 242.121436 121.51146 242.119503 121.51198L242.117569 121.512499C242.116602 121.512759 242.114668 121.513278 242.112993 121.514767L242.112026 121.515027C242.103323 121.517365 242.093912 121.520932 242.085469 121.52424 242.082568 121.525019 242.080634 121.525539 242.078959 121.527028L242.07219 121.528846C241.941597 121.575358 241.809519 121.620192 241.676405 121.661147 241.662159 121.666013 241.648622 121.66965 241.635343 121.674256L241.619871 121.678412C241.617937 121.678932 241.616003 121.679452 241.614329 121.680941L241.586286 121.688474C241.584352 121.688993 241.582418 121.689513 241.580743 121.691002L241.557536 121.697236C241.551734 121.698795 241.545224 121.701583 241.539422 121.703142L241.500743 121.713532C241.498102 121.715281 241.495201 121.71606 241.491333 121.7171L241.436215 121.731906C241.435507 121.733136 241.433573 121.733655 241.432606 121.733915L241.247913 121.783531C241.24572 121.783081 241.242819 121.78386 241.240885 121.78438L241.185768 121.799187C241.184801 121.799447 241.184542 121.798477 241.183575 121.798737L241.138127 121.810946C241.135226 121.811725 241.132066 121.811535 241.129165 121.812315L241.110792 121.81725C241.10499 121.818809 241.098929 121.819398 241.093127 121.820957L241.066052 121.82823C241.065085 121.82849 241.064826 121.82752 241.063859 121.82778L241.038718 121.834534C241.037492 121.833824 241.037492 121.833824 241.036525 121.834084L241.009449 121.841358C241.006289 121.841168 241.003388 121.841947 241.000487 121.842726L240.991785 121.845064C240.984757 121.845913 240.978955 121.847472 240.973153 121.84903L240.962516 121.851888C240.956455 121.852477 240.95162 121.853776 240.945818 121.855334L240.944851 121.855594C240.94195 121.856373 240.939757 121.855924 240.936856 121.856703L240.934922 121.857222C240.929121 121.858781 240.923319 121.86034 240.917258 121.860929L240.908555 121.863267C240.898626 121.864895 240.889923 121.867233 240.880254 121.869831L240.879994 121.868861C240.871292 121.871199 240.86233 121.872567 240.85266 121.875165 240.849759 121.875944 240.846858 121.876724 240.843698 121.876534L240.842731 121.876793C240.836929 121.878352 240.832094 121.879651 240.825066 121.8805L240.816364 121.882838C240.806435 121.884466 240.797732 121.886804 240.78877 121.888172 240.778841 121.889801 240.770138 121.892138 240.760209 121.893767 240.751507 121.896105 240.742545 121.897473 240.732875 121.900071 240.70238 121.906185 240.670919 121.912558 240.641132 121.917443L240.640165 121.917703C240.600709 121.925185 240.560993 121.931698 240.521537 121.93918L240.520311 121.938471C240.511608 121.940809 240.502646 121.942177 240.493684 121.943546L240.492717 121.943805C240.483755 121.945174 240.474794 121.946542 240.464865 121.948171 240.462931 121.94869 240.459771 121.9485 240.45687 121.949279L240.455903 121.949539C240.450101 121.951098 240.44404 121.951687 240.437979 121.952276L240.437012 121.952536C240.435078 121.953055 240.432177 121.953834 240.429017 121.953644L240.42805 121.953904C240.423215 121.955203 240.417154 121.955792 240.410126 121.956641 240.407225 121.95742 240.404324 121.9582 240.401164 121.958009L240.400197 121.958269C240.397296 121.959049 240.395362 121.959568 240.392202 121.959378L240.391235 121.959638C240.388335 121.960417 240.385434 121.961196 240.382274 121.961006L240.381307 121.961266C240.38034 121.961526 240.377439 121.962305 240.374279 121.962115L240.372345 121.962634C240.370411 121.963154 240.36751 121.963933 240.365317 121.963483L240.363383 121.964003C240.360482 121.964782 240.357322 121.964592 240.354421 121.965371 240.35152 121.966151 240.349327 121.965701 240.346426 121.96648L240.343525 121.967259C240.341591 121.967779 240.339398 121.967329 240.338431 121.967589L240.33553 121.968368C240.333596 121.968887 240.330436 121.968697 240.327535 121.969477 240.324634 121.970256 240.321474 121.970066 240.31954 121.970585L240.315672 121.971624C240.313479 121.971174 240.312512 121.971434 240.310578 121.971954L240.30671 121.972993C240.305484 121.972283 240.30355 121.972803 240.301616 121.973322L240.298716 121.974102C240.296522 121.973652 240.294589 121.974171 240.291688 121.97495L240.283952 121.977029C240.281759 121.976579 240.280792 121.976838 240.278858 121.977358L240.275957 121.978137C240.274023 121.978657 240.272797 121.977947 240.270863 121.978467L240.267962 121.979246C240.264802 121.979056 240.261901 121.979835 240.259 121.980614 240.258033 121.980874 240.256807 121.980164 240.256807 121.980164L240.251005 121.981723C240.249779 121.981013 240.249779 121.981013 240.248812 121.981273L240.24301 121.982832C240.237916 121.983161 240.233789 121.983231 240.228954 121.98453L240.227987 121.984789C240.226053 121.985309 240.22386 121.984859 240.221926 121.985379L240.220959 121.985638C240.200842 121.987925 240.180985 121.991182 240.161835 121.993209L240.032707 120.99817zM245.202527 118.125539L245.977632 118.761047C245.816781 118.958042 245.647089 119.149099 245.469004 119.33202 245.463272 119.337716 245.457798 119.344382 245.451358 119.351308L245.450391 119.351568C245.443951 119.358493 245.438218 119.364189 245.431778 119.371115 245.430103 119.372604 245.429395 119.373833 245.42772 119.375322 245.427979 119.376292 245.427012 119.376551 245.427012 119.376551 245.421988 119.381018 245.41793 119.385226 245.412906 119.389693L245.411939 119.389953C245.410264 119.391442 245.409556 119.392671 245.407881 119.39416 245.40814 119.395129 245.407173 119.395389 245.407173 119.395389 245.402149 119.399856 245.39835 119.405033 245.394293 119.40924L245.393326 119.4095C245.392618 119.410729 245.390943 119.412218 245.389268 119.413707L245.38856 119.414936C245.386885 119.416425 245.38521 119.417914 245.384503 119.419144L245.383536 119.419403C245.37877 119.42484 245.374713 119.429047 245.369688 119.433514L245.36898 119.434744C245.367305 119.436233 245.36563 119.437722 245.364923 119.438951 245.363956 119.439211 245.363956 119.439211 245.364215 119.44018 245.360157 119.444387 245.354873 119.447885 245.350816 119.452092 245.350816 119.452092 245.349849 119.452352 245.350108 119.453321 245.348174 119.453841 245.347725 119.45604 245.345791 119.456559L245.344376 119.459018C245.342442 119.459537 245.341734 119.460766 245.340059 119.462255 245.337676 119.464974 245.334326 119.467952 245.330977 119.47093 245.331236 119.471899 245.330269 119.472159 245.330269 119.472159 245.329561 119.473388 245.328853 119.474618 245.327178 119.476107 245.326211 119.476366 245.32647 119.477336 245.325503 119.477596 245.323828 119.479085 245.323121 119.480314 245.321446 119.481803 245.321446 119.481803 245.320479 119.482063 245.320738 119.483032 245.315713 119.487499 245.311656 119.491706 245.307598 119.495914 245.306631 119.496173 245.306631 119.496173 245.305923 119.497403 245.304248 119.498892 245.303281 119.499151 245.301607 119.50064 245.301866 119.50161 245.300899 119.50187 245.300191 119.503099 245.295615 119.505367 245.292524 119.509315 245.288467 119.513522 245.2875 119.513782 245.287759 119.514751 245.286792 119.515011 245.285117 119.5165 245.284409 119.517729 245.282734 119.519218 245.282734 119.519218 245.282027 119.520448 245.28106 119.520707 245.279385 119.522196 245.278677 119.523426 245.277002 119.524915 245.277002 119.524915 245.276035 119.525174 245.275327 119.526404 245.273652 119.527893 245.27127 119.530611 245.268628 119.53236 245.26792 119.533589 245.266953 119.533849 245.267212 119.534818 245.265278 119.535338 245.26457 119.536567 245.262895 119.538056L245.261479 119.540514C245.260513 119.540774 245.259805 119.542003 245.25813 119.543492 245.25813 119.543492 245.257422 119.544722 245.256455 119.544982 245.255039 119.54744 245.252397 119.549189 245.250722 119.550678 245.250015 119.551907 245.24834 119.553396 245.247373 119.553656 245.246665 119.554885 245.245957 119.556114 245.24499 119.556374 245.243315 119.557863 245.242348 119.558123 245.24164 119.559352 245.240932 119.560581 245.239965 119.560841 245.238291 119.56233 245.237583 119.563559 245.236616 119.563819 245.235908 119.565048 245.234941 119.565308 245.233266 119.566797 245.231591 119.568286 245.230883 119.569515 245.229208 119.571004 245.227275 119.571524 245.226567 119.572753 245.226826 119.573723 245.225859 119.573982 245.224184 119.575471 245.223476 119.576701 245.222509 119.576961 245.221801 119.57819 245.221093 119.579419 245.219159 119.579939 245.218451 119.581168 245.217744 119.582397 245.216777 119.582657 245.216069 119.583886 245.215361 119.585115 245.213427 119.585635 245.212719 119.586864 245.211044 119.588353 245.210336 119.589582 245.208661 119.591071 245.206987 119.59256 245.20602 119.59282 245.204345 119.594309 245.203637 119.595538 245.202929 119.596768 245.201962 119.597027 245.201254 119.598257 245.19932 119.598776 245.198612 119.600005 245.197904 119.601235 245.196937 119.601494 245.19623 119.602724 245.194555 119.604213 245.193588 119.604472L245.191464 119.60816C245.18953 119.60868 245.188822 119.609909 245.187147 119.611398 245.185473 119.612887 245.184765 119.614116 245.183798 119.614376 245.18309 119.615605 245.181415 119.617094 245.180448 119.617354 245.17974 119.618583 245.179032 119.619813 245.178065 119.620072 245.17639 119.621561 245.175683 119.622791 245.174716 119.62305 245.174008 119.62428 245.172074 119.624799 245.171107 119.625059 245.170399 119.626288 245.169691 119.627517 245.168724 119.627777 245.167049 119.629266 245.165374 119.630755 245.162992 119.633473 245.162025 119.633733 245.161317 119.634962 245.16035 119.635222 245.159642 119.636451 245.158934 119.637681 245.157967 119.63794 245.157259 119.63917 245.156551 119.640399 245.155584 119.640659 245.153909 119.642148 245.153202 119.643377 245.152235 119.643637 245.151527 119.644866 245.15056 119.645126 245.149852 119.646355 245.14721 119.648104 245.145535 119.649593 245.144119 119.652051 245.143152 119.652311 245.142445 119.65354 245.141478 119.6538 245.14077 119.655029 245.139095 119.656518 245.138128 119.656778 245.13742 119.658007 245.136453 119.658267 245.135745 119.659496 245.13407 119.660985 245.133362 119.662215 245.132395 119.662474 245.131688 119.663704 245.129754 119.664223 245.129046 119.665452 245.128338 119.666682 245.126663 119.668171 245.124988 119.66966 245.124021 119.669919 245.123313 119.671149 245.123313 119.671149 245.121638 119.672638 245.119964 119.674127 245.119256 119.675356 245.117581 119.676845 245.116614 119.677105 245.115906 119.678334 245.115198 119.679563 245.114231 119.679823 245.112556 119.681312 245.111848 119.682541 245.110881 119.682801 245.110174 119.68403 245.109207 119.68429 245.107532 119.685779 245.106565 119.686039 245.105857 119.687268 245.10489 119.687528 245.103923 119.687788 245.102507 119.690246 245.099865 119.691995 245.09819 119.693484 245.097223 119.693744 245.096516 119.694973 245.095549 119.695233 245.094841 119.696462 245.093166 119.697951 245.092458 119.69918 245.091491 119.69944 245.090783 119.700669 245.089816 119.700929 245.089108 119.702158 245.0884 119.703388 245.086726 119.704877 245.085759 119.705136 245.085051 119.706366 245.085051 119.706366 245.082409 119.708114 245.080993 119.710573 245.079318 119.712062 245.078351 119.712322 245.077643 119.713551 245.076676 119.713811 245.075969 119.71504 245.074294 119.716529 245.07236 119.717048 245.072619 119.718018 245.070944 119.719507 245.070944 119.719507 245.069269 119.720996 245.067594 119.722485 245.066627 119.722745 245.065919 119.723974 245.064952 119.724234 245.064245 119.725463 245.06257 119.726952 245.060895 119.728441 245.058253 119.73019 245.058253 119.73019 245.058512 119.731159 245.057545 119.731419L245.053488 119.735626C245.05278 119.736856 245.051813 119.737115 245.050846 119.737375 245.050138 119.738604 245.048463 119.740093 245.046788 119.741582 245.045821 119.741842 245.04608 119.742812 245.045113 119.743071L245.040089 119.747538 245.038155 119.748058C245.03648 119.749547 245.034805 119.751036 245.032422 119.753754 245.032422 119.753754 245.031455 119.754014 245.030748 119.755243 245.029073 119.756732 245.028365 119.757961 245.026431 119.758481 245.025723 119.75971 245.024756 119.75997 245.024048 119.761199 245.02334 119.762429 245.021406 119.762948 245.019731 119.764437L245.019024 119.765666C245.016641 119.768385 245.014966 119.769874 245.013291 119.771363 245.012324 119.771622 245.012583 119.772592 245.011616 119.772852L245.006592 119.777319C245.006592 119.777319 245.005884 119.778548 245.004917 119.778808 245.003242 119.780297 245.002534 119.781526 245.000859 119.783015 244.999892 119.783275 244.998925 119.783535 244.998217 119.784764 244.996543 119.786253 244.994868 119.787742 244.992226 119.789491 244.992485 119.79046 244.992485 119.79046 244.991518 119.79072L244.986493 119.795187C244.985526 119.795447 244.984819 119.796676 244.984819 119.796676L244.980761 119.800883C244.979794 119.801143 244.980053 119.802112 244.979086 119.802372 244.977411 119.803861 244.975736 119.80535 244.973095 119.807099 244.973354 119.808068 244.973354 119.808068 244.972387 119.808328 244.970453 119.808848 244.967811 119.810597 244.966395 119.813055L244.965428 119.813315C244.963753 119.814804 244.961111 119.816553 244.959437 119.818042 244.959696 119.819011 244.958729 119.819271 244.957762 119.819531L244.952737 119.823998C244.952996 119.824967 244.952029 119.825227 244.952029 119.825227 244.949387 119.826976 244.948939 119.829174 244.946297 119.830923L244.94533 119.831183 244.940305 119.83565C244.939597 119.836879 244.939597 119.836879 244.93863 119.837139L244.933606 119.841606C244.932898 119.842835 244.932898 119.842835 244.931931 119.843095 244.927873 119.847302 244.923557 119.85054 244.919499 119.854747L244.918532 119.855007C244.91589 119.856756 244.915183 119.857985 244.913508 119.859474 244.913767 119.860444 244.9128 119.860703 244.9128 119.860703 244.908742 119.864911 244.903459 119.868408 244.899142 119.871646L244.898175 119.871906C244.8965 119.873395 244.894825 119.874884 244.892183 119.876633 244.892442 119.877602 244.892442 119.877602 244.891475 119.877862 244.884776 119.883818 244.879044 119.889514 244.873052 119.894241L244.872344 119.89547C244.869702 119.897219 244.868027 119.898708 244.865386 119.900457L244.865645 119.901426C244.860361 119.904924 244.856304 119.909131 244.851987 119.912369L244.85102 119.912629C244.849604 119.915087 244.846962 119.916836 244.845287 119.918325L244.84432 119.918585 244.82493 119.935224 244.823963 119.935484 244.804832 119.953092C244.797873 119.958079 244.790207 119.964294 244.783507 119.97025 244.637915 120.092489 244.488835 120.20943 244.33485 120.323532L243.743063 119.513049C244.284462 119.115111 244.775416 118.648637 245.202527 118.125539zM246.887783 114.492188L247.871928 114.676688C247.802216 115.05182 247.70812 115.421033 247.593251 115.782319 247.59023 115.790405 247.587468 115.799459 247.585413 115.807285 247.584257 115.810713 247.584067 115.813881 247.582651 115.816339 247.57963 115.824424 247.576609 115.83251 247.573847 115.841564 247.570826 115.849649 247.568064 115.858704 247.566009 115.866529L247.565042 115.866789C247.562988 115.874615 247.561193 115.883409 247.558172 115.891495 247.557205 115.891754 247.557205 115.891754 247.557464 115.892724 247.557015 115.894923 247.5556 115.897381 247.55541 115.900549L247.554443 115.900809 247.549368 115.91672 247.548401 115.916979C247.548211 115.920148 247.546795 115.922606 247.546346 115.924805 247.546346 115.924805 247.545379 115.925065 247.545638 115.926034 247.544033 115.931661 247.542428 115.937287 247.539596 115.942204L247.539855 115.943174C247.539406 115.945373 247.538958 115.947571 247.538768 115.95074L247.537801 115.950999C247.535039 115.960054 247.531759 115.96717 247.528737 115.975255L247.528997 115.976224C247.527581 115.978683 247.527391 115.981851 247.525975 115.984309 247.52437 115.989936 247.521798 115.995823 247.520192 116.001449L247.519484 116.002678C247.519035 116.004877 247.518587 116.007076 247.516912 116.008565L247.517171 116.009534C247.514599 116.015421 247.513701 116.019818 247.512096 116.025445 247.512355 116.026414 247.511388 116.026674 247.511388 116.026674 247.510939 116.028873 247.509523 116.031331 247.509074 116.03353 247.509333 116.0345 247.508366 116.034759 247.508366 116.034759 247.506761 116.040386 247.505156 116.046013 247.502324 116.05093L247.502842 116.052869C247.501427 116.055327 247.500719 116.056556 247.50027 116.058755 247.499303 116.059015 247.499562 116.059984 247.499562 116.059984 247.498146 116.062443 247.497697 116.064642 247.496282 116.0671L247.496541 116.06807C247.495125 116.070528 247.493968 116.073956 247.49352 116.076155L247.492812 116.077384C247.492363 116.079583 247.491914 116.081781 247.490498 116.08424L247.491017 116.086179C247.490568 116.088378 247.488893 116.089867 247.488444 116.092065 247.488703 116.093035 247.487736 116.093295 247.487736 116.093295 247.487547 116.096463 247.486131 116.098921 247.484974 116.102349 247.484266 116.103578 247.482851 116.106037 247.482402 116.108236L247.480986 116.110694C247.480537 116.112893 247.480089 116.115092 247.479381 116.116321L247.477965 116.118779C247.47636 116.124406 247.474495 116.129063 247.47289 116.13469L247.472182 116.135919C247.470766 116.138378 247.470317 116.140576 247.469868 116.142775L247.469161 116.144004C247.467745 116.146463 247.467555 116.149631 247.466139 116.152089 247.465431 116.153319 247.465242 116.156487 247.463826 116.158945L247.463118 116.160175C247.462669 116.162373 247.462221 116.164572 247.460805 116.167031 247.460805 116.167031 247.460097 116.16826 247.460356 116.169229 247.459907 116.171428 247.458492 116.173886 247.457784 116.175116 247.458043 116.176085 247.457076 116.176345 247.457076 116.176345 247.456886 116.179513 247.45547 116.181972 247.454055 116.18443 247.454314 116.1854 247.454314 116.1854 247.453606 116.186629 247.452898 116.187858 247.452449 116.190057 247.451033 116.192515 247.451293 116.193485 247.451293 116.193485 247.450585 116.194714 247.450136 116.196913 247.449428 116.198142 247.447753 116.199631 247.448012 116.2006 247.448012 116.2006 247.447304 116.20183 247.446856 116.204028 247.44544 116.206487 247.444283 116.209915 247.442867 116.212373 247.442419 116.214572 247.44197 116.216771 247.441262 116.218 247.441521 116.21897 247.440554 116.219229 247.440105 116.221428 247.440624 116.223367 247.439916 116.224596L247.4385 116.227055C247.438051 116.229253 247.436635 116.231712 247.436446 116.23488L247.435479 116.23514C247.43503 116.237339 247.433614 116.239797 247.433165 116.241996 247.432458 116.243225 247.432717 116.244195 247.43175 116.244454 247.431301 116.246653 247.430593 116.247882 247.429885 116.249111 247.429177 116.250341 247.429436 116.25131 247.428469 116.25157 247.428021 116.253769 247.427572 116.255967 247.426864 116.257197L247.425448 116.259655C247.424999 116.261854 247.423584 116.264312 247.423135 116.266511 247.422427 116.26774 247.422686 116.26871 247.421719 116.26897 247.42127 116.271168 247.420822 116.273367 247.420114 116.274596L247.418698 116.277055C247.418249 116.279253 247.417541 116.280483 247.417093 116.282681L247.415677 116.28514C247.415228 116.287339 247.414779 116.289537 247.413363 116.291996 247.413623 116.292965 247.413882 116.293935 247.412915 116.294195 247.412466 116.296393 247.411758 116.297623 247.41105 116.298852 247.410342 116.300081 247.409634 116.30131 247.409894 116.30228 247.409186 116.303509 247.408478 116.304738 247.408029 116.306937 247.407321 116.308166 247.40758 116.309136 247.406613 116.309395 247.406164 116.311594 247.404749 116.314053 247.4043 116.316251 247.403592 116.317481 247.403851 116.31845 247.402884 116.31871 247.402435 116.320909 247.401987 116.323107 247.401279 116.324337 247.400571 116.325566 247.399863 116.326795 247.400122 116.327764L247.397291 116.332681C247.39755 116.333651 247.396583 116.333911 247.396842 116.33488 247.395426 116.337339 247.394977 116.339537 247.394269 116.340767 247.394529 116.341736 247.393562 116.341996 247.393821 116.342965 247.392146 116.344454 247.391697 116.346653 247.390281 116.349112 247.39054 116.350081 247.389832 116.35131 247.388865 116.35157 247.389384 116.353509 247.388676 116.354738 247.388227 116.356937 247.388227 116.356937 247.387778 116.359136 247.386811 116.359395 247.386363 116.361594 247.385655 116.362823 247.385206 116.365022 247.384498 116.366251 247.384498 116.366251 247.384757 116.367221 247.383341 116.369679 247.381926 116.372138 247.381477 116.374337L247.380061 116.376795C247.379612 116.378994 247.378904 116.380223 247.378456 116.382422L247.37704 116.38488C247.376591 116.387079 247.375883 116.388308 247.375434 116.390507 247.374467 116.390767 247.374727 116.391736 247.374019 116.392965L247.370479 116.399112C247.370738 116.400081 247.370738 116.400081 247.370031 116.40131 247.369323 116.40254 247.368874 116.404738 247.368425 116.406937 247.367458 116.407197 247.36675 116.408426 247.367009 116.409395 247.366301 116.410625 247.365853 116.412823 247.364178 116.414312 247.364437 116.415282 247.363729 116.416511 247.363988 116.417481 247.363539 116.419679 247.363091 116.421878 247.361675 116.424337L247.360967 116.425566C247.360518 116.427765 247.359102 116.430223 247.358395 116.431452 247.357687 116.432682 247.357946 116.433651 247.357238 116.43488 247.35653 116.436109 247.355822 116.437339 247.355373 116.439537 247.354666 116.440767 247.354925 116.441736 247.353958 116.441996 247.35325 116.443225 247.352542 116.444454 247.352093 116.446653 247.351385 116.447882 247.351644 116.448852 247.350936 116.450081 247.349262 116.45157 247.348813 116.453769 247.348364 116.455968 247.347656 116.457197 247.346948 116.458426 247.347207 116.459396 247.3465 116.460625 247.345792 116.461854 247.345343 116.464053 247.344376 116.464313 247.343668 116.465542 247.343927 116.466511 247.342511 116.46897 247.341803 116.470199 247.341355 116.472398 247.341355 116.472398 247.340647 116.473627 247.340906 116.474596 247.33949 116.477055 247.339041 116.479254 247.337626 116.481712L247.337177 116.483911C247.336469 116.48514 247.33602 116.487339 247.335312 116.488568L247.333897 116.491026C247.333189 116.492256 247.33274 116.494454 247.332032 116.495684L247.330616 116.498142C247.329201 116.500601 247.328752 116.502799 247.327336 116.505258 247.327595 116.506227 247.326887 116.507457 247.327146 116.508426L247.324315 116.513343C247.324574 116.514313 247.323607 116.514572 247.323158 116.516771L247.321035 116.520459C247.321294 116.521428 247.320586 116.522657 247.319878 116.523887 247.319429 116.526085 247.31898 116.528284 247.317305 116.529773 247.317565 116.530743 247.316857 116.531972 247.316149 116.533201 247.315441 116.53443 247.314992 116.536629 247.314284 116.537858L247.311902 116.540577C247.311194 116.541806 247.311712 116.543745 247.311004 116.544974L247.309847 116.548402C247.309139 116.549631 247.308432 116.55086 247.307983 116.553059 247.308242 116.554029 247.307275 116.554288 247.306567 116.555518 247.306118 116.557716 247.304703 116.560175 247.304254 116.562374 247.303546 116.563603 247.303805 116.564572 247.303097 116.565802 247.302389 116.567031 247.301681 116.56826 247.301233 116.570459 247.300266 116.570719 247.299558 116.571948 247.299817 116.572917L247.296985 116.577834C247.297244 116.578804 247.296537 116.580033 247.296796 116.581002 247.29538 116.583461 247.293964 116.585919 247.293515 116.588118 247.292548 116.588378 247.292548 116.588378 247.291841 116.589607 247.291133 116.590836 247.290684 116.593035 247.289976 116.594264 247.289268 116.595494 247.28856 116.596723 247.288819 116.597692 247.288111 116.598922 247.287404 116.600151 247.286955 116.60235 247.285988 116.602609 247.28528 116.603839 247.285539 116.604808 247.284123 116.607267 247.283675 116.609465 247.283226 116.611664 247.282518 116.612893 247.282777 116.613863 247.28181 116.614122 247.281361 116.616321 247.280653 116.61755 247.279945 116.61878 247.279238 116.620009 247.27853 116.621238 247.278789 116.622208 247.278081 116.623437 247.277632 116.625636 247.276924 116.626865L247.275509 116.629323C247.274093 116.631782 247.273644 116.633981 247.272936 116.63521 247.272228 116.636439 247.271261 116.636699 247.27152 116.637668 247.270105 116.640127 247.269397 116.641356 247.268948 116.643555 247.26824 116.644784 247.267532 116.646013 247.267791 116.646983L247.265668 116.65067C247.26496 116.6519 247.264252 116.653129 247.264511 116.654098 247.262836 116.655587 247.262387 116.657786 247.26168 116.659015 247.261939 116.659985 247.261231 116.661214 247.260264 116.661474 247.259815 116.663673 247.258399 116.666131 247.25795 116.66833L247.257502 116.670528C247.257053 116.672727 247.256345 116.673956 247.254929 116.676415 247.255188 116.677384 247.254221 116.677644 247.25448 116.678614 247.253065 116.681072 247.252357 116.682301 247.251908 116.6845L247.2512 116.685729C247.249525 116.687218 247.248369 116.690646 247.246953 116.693105 247.246953 116.693105 247.247212 116.694074 247.246504 116.695304 247.245796 116.696533 247.244121 116.698022 247.243673 116.70022 247.243932 116.70119 247.242965 116.70145 247.242257 116.702679 247.241808 116.704878 247.2411 116.706107 247.240392 116.707336 247.240651 116.708306 247.239944 116.709535 247.239236 116.710764 247.238787 116.712963 247.237371 116.715421 247.235955 116.71788L247.235248 116.719109C247.234799 116.721308 247.234091 116.722537 247.232675 116.724996 247.232934 116.725965 247.232226 116.727194 247.231259 116.727454 247.230811 116.729653 247.23107 116.730622 247.230621 116.732821L247.229205 116.735279C247.228497 116.736509 247.226822 116.737998 247.226374 116.740196L247.225666 116.741426C247.22425 116.743884 247.222834 116.746343 247.222386 116.748541 247.221678 116.749771 247.221937 116.75074 247.22097 116.751 247.220521 116.753199 247.219813 116.754428 247.219364 116.756627 247.218397 116.756886 247.21769 116.758116 247.217949 116.759085 247.216533 116.761543 247.215825 116.762773 247.215376 116.764971 247.214409 116.765231 247.214668 116.766201 247.214668 116.766201 247.213253 116.768659 247.211837 116.771118 247.211388 116.773316L247.209972 116.775775C247.209524 116.777974 247.207849 116.779463 247.2074 116.781661 247.207659 116.782631 247.206692 116.782891 247.205984 116.78412 247.205276 116.785349 247.204568 116.786578 247.20412 116.788777 247.203153 116.789037 247.203412 116.790006 247.203412 116.790006 247.201996 116.792465 247.201547 116.794663 247.200131 116.797122 247.200391 116.798091 247.199424 116.798351 247.199683 116.799321 247.198267 116.801779 247.197559 116.803008 247.19711 116.805207L247.195694 116.807666C247.194987 116.808895 247.194538 116.811094 247.192863 116.812583 247.193122 116.813552 247.192414 116.814781 247.192414 116.814781 247.191258 116.818209 247.189842 116.820668 247.189393 116.822867 247.188426 116.823126 247.188426 116.823126 247.188685 116.824096 247.18701 116.825585 247.186562 116.827783 247.185146 116.830242 247.185146 116.830242 247.184438 116.831471 247.184697 116.832441 247.183022 116.83393 247.182314 116.835159 247.181606 116.836388 247.181865 116.837358 247.180899 116.837617 247.181158 116.838587L246.27411 116.415168C246.557889 115.801729 246.764634 115.155992 246.887783 114.492188zM247.559289 110.183531C247.581294 110.250355 247.603558 110.318148 247.624147 110.387431L247.625961 110.394217 247.626928 110.393958 247.633146 110.417225C247.635668 110.422782 247.637222 110.428599 247.638518 110.433446L247.643182 110.450897C247.6437 110.452836 247.643959 110.453805 247.645444 110.455484L247.653995 110.487477C247.65548 110.489156 247.655998 110.491095 247.656257 110.492065L247.667398 110.533752C247.668176 110.536661 247.669661 110.53834 247.670438 110.541248L247.685984 110.599417C247.687469 110.601096 247.687988 110.603035 247.688506 110.604974L247.737476 110.788204C247.737735 110.789174 247.737027 110.790403 247.737545 110.792342L247.75361 110.852449C247.752902 110.853679 247.75342 110.855618 247.753679 110.856587L247.765598 110.901183C247.76489 110.902412 247.765408 110.904351 247.765667 110.905321L247.773699 110.935374C247.774217 110.937313 247.773769 110.939512 247.774028 110.940481L247.782319 110.971505C247.78187 110.973703 247.782388 110.975642 247.782907 110.977581L247.788348 110.99794C247.788607 110.99891 247.788866 110.999879 247.787899 111.000139L247.794895 111.026315C247.794895 111.026315 247.795154 111.027284 247.794446 111.028513L247.799887 111.048872C247.800146 111.049842 247.799956 111.05301 247.800216 111.05398L247.806175 111.076277C247.806175 111.076277 247.805208 111.076537 247.805467 111.077507 247.808317 111.088171 247.810459 111.100064 247.813569 111.111698L247.815382 111.118484C247.814674 111.119714 247.814674 111.119714 247.814933 111.120683L247.818561 111.134256C247.81882 111.135225 247.81863 111.138393 247.818889 111.139363L247.823294 111.155844C247.823812 111.157783 247.823104 111.159012 247.823623 111.160951L247.826991 111.173554C247.826283 111.174784 247.826542 111.175753 247.826542 111.175753L247.830429 111.190295C247.830947 111.192234 247.830498 111.194433 247.830757 111.195402L247.833089 111.204128C247.833607 111.206066 247.834126 111.208005 247.833677 111.210204 247.837045 111.222807 247.839187 111.234701 247.84107 111.245625L247.843402 111.25435C247.843921 111.256289 247.843472 111.258488 247.843731 111.259457L247.846063 111.268182C247.846581 111.270121 247.846132 111.27232 247.84665 111.274259L247.848982 111.282984C247.849501 111.284923 247.84976 111.285893 247.849052 111.287122L247.85527 111.310389C247.855788 111.312328 247.856307 111.314267 247.855858 111.316466L247.857931 111.324222C247.858449 111.326161 247.858967 111.3281 247.858518 111.330298L247.868572 111.379551C247.868383 111.38272 247.868901 111.384659 247.869678 111.387567 247.870455 111.390475 247.870715 111.391445 247.870525 111.394613L247.872598 111.402369C247.873116 111.404308 247.872667 111.406507 247.873185 111.408446L247.875258 111.416201C247.875517 111.417171 247.875328 111.420339 247.875846 111.422278L247.87766 111.429064C247.876693 111.429324 247.876952 111.430293 247.876952 111.430293L247.878765 111.43708C247.879543 111.439988 247.879802 111.440958 247.879612 111.444126L247.881426 111.450912C247.880977 111.453111 247.881495 111.45505 247.882272 111.457958 247.887334 111.484654 247.890911 111.50967 247.895714 111.535396 247.896232 111.537335 247.896042 111.540503 247.89656 111.542442 247.897338 111.54535 247.897856 111.547289 247.897407 111.549488L247.89948 111.557244C247.899808 111.562351 247.900845 111.566229 247.901173 111.571336 247.90221 111.575214 247.902538 111.580321 247.903834 111.585168 247.949496 111.860726 247.980585 112.136044 248 112.41034L247.001906 112.480005C246.964668 111.968391 246.87958 111.456123 246.745624 110.954905 246.704427 110.800758 246.658655 110.64888 246.609014 110.498041L247.559289 110.183531z"/>
</svg>
