<svg xmlns="http://www.w3.org/2000/svg" width="300" height="180" viewBox="0 0 300 180">
    <path fill="#E667E6" fill-rule="nonzero" d="M252 164C252.552285 164 253 163.552285 253 163 253 162.447715 252.552285 162 252 162 251.447715 162 251 162.447715 251 163 251 163.552285 251.447715 164 252 164zM252 165C250.895431 165 250 164.104569 250 163 250 161.895431 250.895431 161 252 161 253.104569 161 254 161.895431 254 163 254 164.104569 253.104569 165 252 165zM275 78C275.552285 78 276 77.5522847 276 77 276 76.4477153 275.552285 76 275 76 274.447715 76 274 76.4477153 274 77 274 77.5522847 274.447715 78 275 78zM275 79C273.895431 79 273 78.1045695 273 77 273 75.8954305 273.895431 75 275 75 276.104569 75 277 75.8954305 277 77 277 78.1045695 276.104569 79 275 79z"/>
    <polygon fill="#E667E6" points="263 150 263 148 264 148 264 150 266 150 266 151 264 151 264 153 263 153 263 151 261 151 261 150"/>
    <path fill="#E667E6" fill-rule="nonzero" d="M40 29C40.5522847 29 41 28.5522847 41 28 41 27.4477153 40.5522847 27 40 27 39.4477153 27 39 27.4477153 39 28 39 28.5522847 39.4477153 29 40 29zM40 30C38.8954305 30 38 29.1045695 38 28 38 26.8954305 38.8954305 26 40 26 41.1045695 26 42 26.8954305 42 28 42 29.1045695 41.1045695 30 40 30zM242 42C242.552285 42 243 41.5522847 243 41 243 40.4477153 242.552285 40 242 40 241.447715 40 241 40.4477153 241 41 241 41.5522847 241.447715 42 242 42zM242 43C240.895431 43 240 42.1045695 240 41 240 39.8954305 240.895431 39 242 39 243.104569 39 244 39.8954305 244 41 244 42.1045695 243.104569 43 242 43z"/>
    <path fill="#E667E6" fill-rule="nonzero" d="M54.8062676 13.1937324C55.0645775 13.4520422 55.0645775 13.8708451 54.8062676 14.1291549L53.4031338 15.5322887C53.144824 15.7905985 52.7260211 15.7905985 52.4677113 15.5322887 52.2094015 15.2739789 52.2094015 14.855176 52.4677113 14.5968662L53.8708451 13.1937324C54.1291549 12.9354225 54.5479578 12.9354225 54.8062676 13.1937324L54.8062676 13.1937324zM51.5322887 16.4677113C51.7905985 16.7260211 51.7905985 17.144824 51.5322887 17.4031338L50.1291549 18.8062676C49.8708451 19.0645775 49.4520422 19.0645775 49.1937324 18.8062676 48.9354225 18.5479578 48.9354225 18.1291549 49.1937324 17.8708451L50.5968662 16.4677113C50.855176 16.2094015 51.2739789 16.2094015 51.5322887 16.4677113zM54.8062676 18.8062676C54.5479578 19.0645775 54.1291549 19.0645775 53.8708451 18.8062676L52.4677113 17.4031338C52.2094015 17.144824 52.2094015 16.7260211 52.4677113 16.4677113 52.7260211 16.2094015 53.144824 16.2094015 53.4031338 16.4677113L54.8062676 17.8708451C55.0645775 18.1291549 55.0645775 18.5479578 54.8062676 18.8062676zM51.5322887 15.5322887C51.2739789 15.7905985 50.855176 15.7905985 50.5968662 15.5322887L49.1937324 14.1291549C48.9354225 13.8708451 48.9354225 13.4520422 49.1937324 13.1937324 49.4520422 12.9354225 49.8708451 12.9354225 50.1291549 13.1937324L51.5322887 14.5968662C51.7905985 14.855176 51.7905985 15.2739789 51.5322887 15.5322887zM256.806268 26.1937324C257.064577 26.4520422 257.064577 26.8708451 256.806268 27.1291549L255.403134 28.5322887C255.144824 28.7905985 254.726021 28.7905985 254.467711 28.5322887 254.209401 28.2739789 254.209401 27.855176 254.467711 27.5968662L255.870845 26.1937324C256.129155 25.9354225 256.547958 25.9354225 256.806268 26.1937324L256.806268 26.1937324zM253.532289 29.4677113C253.790599 29.7260211 253.790599 30.144824 253.532289 30.4031338L252.129155 31.8062676C251.870845 32.0645775 251.452042 32.0645775 251.193732 31.8062676 250.935423 31.5479578 250.935423 31.1291549 251.193732 30.8708451L252.596866 29.4677113C252.855176 29.2094015 253.273979 29.2094015 253.532289 29.4677113zM256.806268 31.8062676C256.547958 32.0645775 256.129155 32.0645775 255.870845 31.8062676L254.467711 30.4031338C254.209401 30.144824 254.209401 29.7260211 254.467711 29.4677113 254.726021 29.2094015 255.144824 29.2094015 255.403134 29.4677113L256.806268 30.8708451C257.064577 31.1291549 257.064577 31.5479578 256.806268 31.8062676zM253.532289 28.5322887C253.273979 28.7905985 252.855176 28.7905985 252.596866 28.5322887L251.193732 27.1291549C250.935423 26.8708451 250.935423 26.4520422 251.193732 26.1937324 251.452042 25.9354225 251.870845 25.9354225 252.129155 26.1937324L253.532289 27.5968662C253.790599 27.855176 253.790599 28.2739789 253.532289 28.5322887zM33.8062676 146.193732C34.0645775 146.452042 34.0645775 146.870845 33.8062676 147.129155L32.4031338 148.532289C32.144824 148.790599 31.7260211 148.790599 31.4677113 148.532289 31.2094015 148.273979 31.2094015 147.855176 31.4677113 147.596866L32.8708451 146.193732C33.1291549 145.935423 33.5479578 145.935423 33.8062676 146.193732L33.8062676 146.193732zM30.5322887 149.467711C30.7905985 149.726021 30.7905985 150.144824 30.5322887 150.403134L29.1291549 151.806268C28.8708451 152.064577 28.4520422 152.064577 28.1937324 151.806268 27.9354225 151.547958 27.9354225 151.129155 28.1937324 150.870845L29.5968662 149.467711C29.855176 149.209401 30.2739789 149.209401 30.5322887 149.467711zM33.8062676 151.806268C33.5479578 152.064577 33.1291549 152.064577 32.8708451 151.806268L31.4677113 150.403134C31.2094015 150.144824 31.2094015 149.726021 31.4677113 149.467711 31.7260211 149.209401 32.144824 149.209401 32.4031338 149.467711L33.8062676 150.870845C34.0645775 151.129155 34.0645775 151.547958 33.8062676 151.806268zM30.5322887 148.532289C30.2739789 148.790599 29.855176 148.790599 29.5968662 148.532289L28.1937324 147.129155C27.9354225 146.870845 27.9354225 146.452042 28.1937324 146.193732 28.4520422 145.935423 28.8708451 145.935423 29.1291549 146.193732L30.5322887 147.596866C30.7905985 147.855176 30.7905985 148.273979 30.5322887 148.532289zM27.8062676 88.1937324C28.0645775 88.4520422 28.0645775 88.8708451 27.8062676 89.1291549L26.4031338 90.5322887C26.144824 90.7905985 25.7260211 90.7905985 25.4677113 90.5322887 25.2094015 90.2739789 25.2094015 89.855176 25.4677113 89.5968662L26.8708451 88.1937324C27.1291549 87.9354225 27.5479578 87.9354225 27.8062676 88.1937324L27.8062676 88.1937324zM24.5322887 91.4677113C24.7905985 91.7260211 24.7905985 92.144824 24.5322887 92.4031338L23.1291549 93.8062676C22.8708451 94.0645775 22.4520422 94.0645775 22.1937324 93.8062676 21.9354225 93.5479578 21.9354225 93.1291549 22.1937324 92.8708451L23.5968662 91.4677113C23.855176 91.2094015 24.2739789 91.2094015 24.5322887 91.4677113zM27.8062676 93.8062676C27.5479578 94.0645775 27.1291549 94.0645775 26.8708451 93.8062676L25.4677113 92.4031338C25.2094015 92.144824 25.2094015 91.7260211 25.4677113 91.4677113 25.7260211 91.2094015 26.144824 91.2094015 26.4031338 91.4677113L27.8062676 92.8708451C28.0645775 93.1291549 28.0645775 93.5479578 27.8062676 93.8062676zM24.5322887 90.5322887C24.2739789 90.7905985 23.855176 90.7905985 23.5968662 90.5322887L22.1937324 89.1291549C21.9354225 88.8708451 21.9354225 88.4520422 22.1937324 88.1937324 22.4520422 87.9354225 22.8708451 87.9354225 23.1291549 88.1937324L24.5322887 89.5968662C24.7905985 89.855176 24.7905985 90.2739789 24.5322887 90.5322887z"/>
    <path fill="#E667E6" d="M62,36 L123.000083,36 L147.000083,60 L147.000083,145.000073 C147.000083,146.104643 146.104652,147.000073 145.000083,147.000073 L62,147.000073 C60.8954305,147.000073 60,146.104643 60,145.000073 L60,38 C60,36.8954305 60.8954305,36 62,36 Z"/>
    <path fill="#FFFFFF" d="M123.000083,36 L147.000083,60 L124.000083,60 C123.447798,60 123.000083,59.5522847 123.000083,59 L123.000083,36 Z" opacity=".3"/>
    <path fill="#B350B3" d="M155,36 L216.000083,36 L240.000083,60 L240.000083,145.000073 C240.000083,146.104643 239.104652,147.000073 238.000083,147.000073 L155,147.000073 C153.895431,147.000073 153,146.104643 153,145.000073 L153,38 C153,36.8954305 153.895431,36 155,36 Z"/>
    <path fill="#FFFFFF" fill-rule="nonzero" d="M175.710382,129.968665 C176.613863,130.109085 177.751766,129.778384 179.009105,129.108269 C180.519809,128.303119 181.326118,127.642269 181.382073,127.198319 C181.441853,126.72402 181.468628,126.240885 181.463239,125.748871 C180.89473,125.504583 180.409953,125.190326 180.064362,124.812771 C179.392341,124.078595 179.231803,122.638606 179.356822,120.872177 C179.403433,120.213596 179.493579,119.589787 179.606286,119.155571 C179.687188,118.843889 179.775083,118.616879 179.935258,118.415557 C180.510199,117.692921 181.455564,117.962938 181.770184,118.680398 C182.612442,120.601083 183.15735,122.452145 183.367079,124.238014 C183.519384,124.267003 183.675688,124.291106 183.834108,124.309511 C184.355248,124.370054 184.84193,124.41423 185.296744,124.440528 C185.082616,124.064746 184.957733,123.713217 184.919648,123.381798 C184.738024,121.80129 186.089284,121.188659 187.759183,121.328831 C189.02614,121.435181 190.373582,121.950062 191.035616,122.677861 C192.164732,123.919139 191.413366,125.225047 189.522341,125.947804 C189.797053,126.1666 190.094206,126.395253 190.414185,126.633108 C190.510303,126.704557 191.243249,126.671804 191.845395,126.481947 C192.045526,126.418846 192.255583,126.354 192.515098,126.274923 C192.553881,126.263105 193.269373,126.046094 193.477797,125.982145 C195.269584,125.432381 196.413612,124.99064 197.19514,124.485338 C196.49287,124.295342 196.004354,124.08763 195.70693,123.854277 C195.023656,123.318192 194.996279,122.385815 195.71569,121.875457 C196.026671,121.654844 196.439316,121.540134 196.923637,121.490505 C197.876839,121.39283 198.912877,121.56167 199.56493,122.045148 C199.942294,122.324952 200.169272,122.661483 200.256453,123.031148 C200.369059,123.047085 200.484348,123.062941 200.602298,123.078686 C201.846165,123.244733 202.598687,123.250156 203.644602,123.164065 C204.26069,123.113354 204.320184,123.109086 204.574739,123.104542 C205.465057,123.088648 206.266685,123.267062 207.402665,123.766784 L206.597335,125.597479 C205.714588,125.209155 205.196142,125.093767 204.610437,125.104223 C204.418962,125.107641 204.366837,125.111381 203.808671,125.157324 C202.629529,125.254381 201.737375,125.247952 200.33766,125.061101 C200.097088,125.028986 199.866075,124.996513 199.644439,124.963618 C199.52797,125.108818 199.396484,125.253453 199.250431,125.396515 C198.175769,126.44917 196.749074,127.070461 194.064452,127.894169 C193.852354,127.959246 193.134121,128.177088 193.09806,128.188076 C192.844195,128.265432 192.639899,128.328499 192.446808,128.389381 C191.275575,128.75867 189.99798,128.815762 189.221032,128.23822 C188.353942,127.593672 187.62213,126.999533 187.021502,126.44888 C186.025028,126.507863 184.902802,126.447118 183.60331,126.296149 C183.554731,126.290505 183.50626,126.284474 183.457919,126.278057 C183.445506,126.671419 183.415138,127.061522 183.366374,127.448419 C183.192902,128.824748 182.076402,129.739831 179.949772,130.873246 C178.344097,131.729011 176.835279,132.16751 175.403225,131.944937 C171.895044,131.399689 170.303424,128.940183 170.500209,125.718939 C170.319967,125.596289 170.129981,125.463257 169.927574,125.318913 C169.233537,124.823972 168.925875,124.619635 168.531227,124.410197 L169.468773,122.64356 C169.920128,122.883092 170.255908,123.100488 170.88505,123.545754 C171.447867,121.64624 172.539001,120.159567 173.748668,120.444531 C175.254993,120.799379 176.577141,122.349882 176.924045,123.941219 C177.364346,125.960989 176.073833,127.41147 173.679598,127.074521 C173.250061,127.014071 172.873736,126.928368 172.508862,126.802921 C172.677077,128.528504 173.681194,129.653284 175.710382,129.968665 Z M188.642954,124.13925 C188.949546,124.034912 189.179098,123.933476 189.335068,123.849172 C188.94647,123.607208 188.244119,123.376571 187.59189,123.321822 C187.334547,123.300221 187.114923,123.308902 186.960344,123.336869 C187.066236,123.582474 187.322847,123.927948 187.73795,124.360077 C188.064105,124.306994 188.364968,124.233854 188.642954,124.13925 Z M173.958319,125.094038 C174.9517,125.233839 175.118091,125.046823 174.969938,124.367205 C174.802831,123.600646 174.188917,122.803928 173.574822,122.496953 C173.465919,122.635502 173.342523,122.834334 173.221318,123.076403 C172.986383,123.54561 172.790909,124.10683 172.660582,124.692844 C173.100831,124.9131 173.487934,125.027839 173.958319,125.094038 Z"/>
    <path fill="#FFFFFF" d="M216,36 L240,60 L217,60 C216.447715,60 216,59.5522847 216,59 L216,36 Z" opacity=".3"/>
    <rect width="51" height="2" x="78" y="79" fill="#FFFFFF" opacity=".3"/>
    <rect width="51" height="2" x="171" y="79" fill="#FFFFFF" opacity=".3"/>
    <rect width="51" height="2" x="78" y="91" fill="#FFFFFF" opacity=".3"/>
    <rect width="51" height="2" x="171" y="91" fill="#FFFFFF" opacity=".3"/>
    <rect width="51" height="2" x="78" y="103" fill="#FFFFFF" opacity=".3"/>
    <rect width="51" height="2" x="171" y="103" fill="#FFFFFF" opacity=".3"/>
    <rect width="51" height="2" x="78" y="115" fill="#FFFFFF" opacity=".3"/>
    <rect width="51" height="2" x="171" y="127" fill="#FFFFFF" opacity=".3"/>
    <rect width="51" height="2" x="78" y="127" fill="#FFFFFF" opacity=".3"/>
    <path fill="#E667E6" fill-rule="nonzero" d="M36.6666667,72.4907377 C36.312829,72.807431 35.8455696,73 35.3333333,73 L31.3333333,73 L31.3333333,71.6666667 L35.3333333,71.6666667 C35.7015232,71.6666667 36,71.3681898 36,71 L36,51 C36,50.6318102 35.7015232,50.3333333 35.3333333,50.3333333 L31.3333333,50.3333333 L31.3333333,49 L35.3333333,49 C35.8455696,49 36.312829,49.192569 36.6666667,49.5092623 C37.0205043,49.192569 37.4877637,49 38,49 L42,49 L42,50.3333333 L38,50.3333333 C37.6318102,50.3333333 37.3333333,50.6318102 37.3333333,51 L37.3333333,71 C37.3333333,71.3681898 37.6318102,71.6666667 38,71.6666667 L42,71.6666667 L42,73 L38,73 C37.4877637,73 37.0205043,72.807431 36.6666667,72.4907377 Z M27.5213148,62.6621824 L25.2059579,55.7503737 L22.8433487,62.6621824 L27.5213148,62.6621824 Z M33.3333333,68.019432 L33.3333333,69 L26.9070365,69 L26.9070365,68.019432 L29.2223934,67.7324365 L27.8993323,63.7862481 L22.4653313,63.7862481 L21.1422702,67.7085202 L23.434001,68.019432 L23.434001,69 L18,69 L18,68.019432 L20.0082178,67.7085202 L25.0642013,53 L26.4817668,53 L31.5613765,67.8041854 L33.3333333,68.019432 Z"/>
    <path fill="#E667E6" fill-rule="nonzero" d="M37,113 C37.5522847,113 38,112.552285 38,112 C38,111.447715 37.5522847,111 37,111 C36.4477153,111 36,111.447715 36,112 C36,112.552285 36.4477153,113 37,113 Z M37,114 C35.8954305,114 35,113.104569 35,112 C35,110.895431 35.8954305,110 37,110 C38.1045695,110 39,110.895431 39,112 C39,113.104569 38.1045695,114 37,114 Z"/>
    <path fill="#E667E6" d="M143.033218,25.4998901 L153,25.4998901 L153,26.4998901 L142.613293,26.4998901 C141.861871,28.1248174 141.02885,29.0742716 140.082898,29.3513564 C139.368281,29.5606796 138.783267,29.4002596 138.497495,28.8536711 C138.280206,28.4380672 138.285227,27.8687423 138.456512,27.1786317 C138.510366,26.9616539 138.580808,26.734052 138.665704,26.4998901 L135,26.4998901 L135,25.4998901 L139.096015,25.4998901 C139.483768,24.7152626 139.989917,23.9210511 140.543999,23.251502 C140.70958,23.0514161 140.875601,22.8618375 141.042834,22.6817977 C141.762997,21.906484 142.479877,21.3191981 143.354462,20.7921971 C143.574763,19.7892662 143.787875,18.8582339 143.993914,17.9988538 C142.924036,18.4045227 141.676948,18.7503744 140.256195,19.0364903 L140.058775,18.0561713 C141.753565,17.714869 143.160074,17.299448 144.285925,16.810083 C144.902053,14.3655972 145.451092,12.604972 145.936467,11.5209245 C146.855111,9.46920566 148.062212,9.48272764 148.585428,11.6257813 C149.203278,14.1564486 148.021141,16.1162268 145.142783,17.507494 C144.941982,18.3206028 144.733591,19.2071797 144.517702,20.1670963 C144.809646,20.0257132 145.119532,19.8849753 145.45102,19.7419781 C145.883633,19.5553576 146.102939,19.465385 147.160236,19.036551 C148.593392,18.4552706 149.469687,18.4455133 149.380761,19.459767 C149.343478,19.8849926 149.073294,20.3109461 148.358344,21.2603339 C148.329353,21.2988115 148.329353,21.2988115 148.300404,21.3371749 C147.990935,21.747167 147.993571,21.7436609 147.893074,21.8808368 C147.645633,22.2185883 147.401505,22.5480083 147.160414,22.8694451 C147.582278,22.6224822 148.076977,22.3255977 148.643867,21.9791014 C150.000957,21.1496161 151.0296,20.728577 151.780514,20.728577 C152.721586,20.728577 153.227467,21.3729581 153.204526,22.4167077 L152.204768,22.3947343 C152.216324,21.8689586 152.106115,21.728577 151.780514,21.728577 C151.264754,21.728577 150.376139,22.0923006 149.165386,22.8323406 C147.871157,23.6234034 146.944371,24.1616482 146.37775,24.4505864 C146.053487,24.6159384 145.83964,24.7061507 145.676228,24.7324042 C145.373428,24.7810516 145.040734,24.6651296 145.026177,24.2307357 C145.019876,24.0427176 145.083463,23.9283147 145.198477,23.7865608 C145.803941,23.0136071 146.433261,22.1813593 147.086392,21.289851 C147.191152,21.1468553 147.188228,21.1507448 147.502253,20.7347173 C147.530937,20.6967061 147.530937,20.6967061 147.559521,20.6587686 C147.866758,20.2507854 148.085364,19.9395983 148.220107,19.7202468 C148.040829,19.7710768 147.812011,19.8513177 147.536092,19.9632292 C146.487173,20.3886651 146.270051,20.4777417 145.847117,20.6601869 C145.237479,20.9231725 144.709882,21.175232 144.236957,21.4372961 C144.217728,21.5257558 144.198443,21.614764 144.179102,21.7043205 C143.817172,23.1816426 143.437042,24.4466511 143.033218,25.4998901 L143.033218,25.4998901 Z M141.95632,25.4998901 C142.319514,24.6104598 142.674116,23.5197016 143.014467,22.228611 C142.578717,22.5604946 142.178096,22.9289591 141.77552,23.3623647 C141.621426,23.5282591 141.467968,23.7034922 141.314409,23.8890515 C140.913275,24.3737786 140.538384,24.9335365 140.224661,25.4998901 L141.95632,25.4998901 L141.95632,25.4998901 Z M141.50177,26.4998901 L139.738455,26.4998901 C139.604105,26.8227483 139.497955,27.1339037 139.427065,27.4195225 C139.309258,27.8941661 139.306189,28.2421247 139.383684,28.390347 C139.418365,28.4566798 139.501788,28.4795559 139.801793,28.3916795 C140.369696,28.2253313 140.942891,27.5935851 141.50177,26.4998901 L141.50177,26.4998901 Z M147.613962,11.86296 C147.330078,10.7001952 147.399258,10.7009701 146.849158,11.9295757 C146.446587,12.8286848 145.987832,14.2544298 145.474617,16.2043631 C147.35359,15.0728641 148.044207,13.6252141 147.613962,11.86296 Z M137.666667,21.4998901 L139,22.8332234 L138.333333,23.4998901 L137,22.1665568 L135.666667,23.4998901 L135,22.8332234 L136.333333,21.4998901 L135,20.1665568 L135.666667,19.4998901 L137,20.8332234 L138.333333,19.4998901 L139,20.1665568 L137.666667,21.4998901 Z"/>
    <path id="draw" fill="#E667E6" fill-rule="nonzero" d="M259.909091,121.454545 L277.636364,103.727273 L275.272727,101.363636 L257.545455,119.090909 L259.909091,121.454545 Z M258.727273,122.636364 L256.363636,120.272727 L255.671343,120.96502 L255.671343,123.328657 L258.03498,123.328657 L258.727273,122.636364 Z M275.272727,99 L280,103.727273 L258.727273,125 L254,125 L254,120.272727 L275.272727,99 Z"/>
    <rect width="7" height="7" x="159" y="107" fill="#FFFFFF"/>
    <rect width="4" height="1" x="168" y="110" fill="#FFFFFF"/>
    <rect width="4" height="1" x="160.5" y="117.5" fill="#FFFFFF" transform="rotate(90 162.5 118)"/>
    <rect width="4" height="1" x="211.5" y="117.5" fill="#FFFFFF" transform="rotate(90 213.5 118)"/>
    <rect width="4" height="1" x="160.5" y="123.5" fill="#FFFFFF" transform="rotate(90 162.5 124)"/>
    <rect width="4" height="1" x="211.5" y="123.5" fill="#FFFFFF" transform="rotate(90 213.5 124)"/>
    <rect width="4" height="1" x="160.5" y="129.5" fill="#FFFFFF" transform="rotate(90 162.5 130)"/>
    <rect width="4" height="1" x="211.5" y="129.5" fill="#FFFFFF" transform="rotate(90 213.5 130)"/>
    <rect width="4" height="1" x="168" y="137" fill="#FFFFFF"/>
    <rect width="4" height="1" x="180" y="110" fill="#FFFFFF"/>
    <rect width="4" height="1" x="180" y="137" fill="#FFFFFF"/>
    <rect width="4" height="1" x="192" y="110" fill="#FFFFFF"/>
    <rect width="4" height="1" x="192" y="137" fill="#FFFFFF"/>
    <rect width="4" height="1" x="174" y="110" fill="#FFFFFF"/>
    <rect width="4" height="1" x="174" y="137" fill="#FFFFFF"/>
    <rect width="4" height="1" x="186" y="110" fill="#FFFFFF"/>
    <rect width="4" height="1" x="186" y="137" fill="#FFFFFF"/>
    <rect width="4" height="1" x="198" y="110" fill="#FFFFFF"/>
    <rect width="4" height="1" x="198" y="137" fill="#FFFFFF"/>
    <rect width="4" height="1" x="204" y="110" fill="#FFFFFF"/>
    <rect width="4" height="1" x="204" y="137" fill="#FFFFFF"/>
    <rect width="7" height="7" x="159" y="134" fill="#FFFFFF"/>
    <rect width="7" height="7" x="210" y="107" fill="#FFFFFF"/>
    <rect width="7" height="7" x="210" y="134" fill="#FFFFFF"/>
</svg>
