<svg id="Layer_4" data-name="Layer 4" xmlns="http://www.w3.org/2000/svg" xmlns:xlink="http://www.w3.org/1999/xlink" viewBox="0 0 5120.33 1254.27"><defs><style>.cls-1,.cls-10,.cls-11,.cls-12,.cls-13,.cls-14,.cls-15,.cls-16,.cls-17,.cls-18,.cls-19,.cls-2,.cls-20,.cls-21,.cls-22,.cls-23,.cls-24,.cls-25,.cls-26,.cls-27,.cls-28,.cls-29,.cls-3,.cls-30,.cls-31,.cls-32,.cls-33,.cls-34,.cls-35,.cls-36,.cls-37,.cls-38,.cls-39,.cls-4,.cls-40,.cls-41,.cls-42,.cls-5,.cls-6,.cls-7,.cls-8,.cls-9{fill:none;stroke-miterlimit:10;stroke-width:1.12px;}.cls-1{stroke:url(#linear-gradient);}.cls-2{stroke:url(#linear-gradient-2);}.cls-3{stroke:url(#linear-gradient-3);}.cls-4{stroke:url(#linear-gradient-4);}.cls-5{stroke:url(#linear-gradient-5);}.cls-6{stroke:url(#linear-gradient-6);}.cls-7{stroke:url(#linear-gradient-7);}.cls-8{stroke:url(#linear-gradient-8);}.cls-9{stroke:url(#linear-gradient-9);}.cls-10{stroke:url(#linear-gradient-10);}.cls-11{stroke:url(#linear-gradient-11);}.cls-12{stroke:url(#linear-gradient-12);}.cls-13{stroke:url(#linear-gradient-13);}.cls-14{stroke:url(#linear-gradient-14);}.cls-15{stroke:url(#linear-gradient-15);}.cls-16{stroke:url(#linear-gradient-16);}.cls-17{stroke:url(#linear-gradient-17);}.cls-18{stroke:url(#linear-gradient-18);}.cls-19{stroke:url(#linear-gradient-19);}.cls-20{stroke:url(#linear-gradient-20);}.cls-21{stroke:url(#linear-gradient-21);}.cls-22{stroke:url(#linear-gradient-22);}.cls-23{stroke:url(#linear-gradient-23);}.cls-24{stroke:url(#linear-gradient-24);}.cls-25{stroke:url(#linear-gradient-25);}.cls-26{stroke:url(#linear-gradient-26);}.cls-27{stroke:url(#linear-gradient-27);}.cls-28{stroke:url(#linear-gradient-28);}.cls-29{stroke:url(#linear-gradient-29);}.cls-30{stroke:url(#linear-gradient-30);}.cls-31{stroke:url(#linear-gradient-31);}.cls-32{stroke:url(#linear-gradient-32);}.cls-33{stroke:url(#linear-gradient-33);}.cls-34{stroke:url(#linear-gradient-34);}.cls-35{stroke:url(#linear-gradient-35);}.cls-36{stroke:url(#linear-gradient-36);}.cls-37{stroke:url(#linear-gradient-37);}.cls-38{stroke:url(#linear-gradient-38);}.cls-39{stroke:url(#linear-gradient-39);}.cls-40{stroke:url(#linear-gradient-40);}.cls-41{stroke:url(#linear-gradient-41);}.cls-42{stroke:url(#linear-gradient-42);}</style><linearGradient id="linear-gradient" x1="0.15" y1="885.11" x2="5120.45" y2="885.11" gradientUnits="userSpaceOnUse"><stop offset="0" stop-color="#fc6ddb" stop-opacity="0.1"/><stop offset="0.09" stop-color="#fc6ddb"/><stop offset="0.36" stop-color="#fc863b"/><stop offset="0.67" stop-color="#fc8ddb"/><stop offset="0.89" stop-color="#fca27d"/><stop offset="1" stop-color="#fc905d" stop-opacity="0.1"/></linearGradient><linearGradient id="linear-gradient-2" x1="0.2" y1="884.62" x2="5120.45" y2="884.62" xlink:href="#linear-gradient"/><linearGradient id="linear-gradient-3" x1="0.25" y1="884.13" x2="5120.45" y2="884.13" xlink:href="#linear-gradient"/><linearGradient id="linear-gradient-4" x1="0.31" y1="883.64" x2="5120.45" y2="883.64" xlink:href="#linear-gradient"/><linearGradient id="linear-gradient-5" x1="0.36" y1="883.15" x2="5120.45" y2="883.15" xlink:href="#linear-gradient"/><linearGradient id="linear-gradient-6" x1="0.41" y1="882.61" x2="5120.45" y2="882.61" xlink:href="#linear-gradient"/><linearGradient id="linear-gradient-7" x1="0.46" y1="881.93" x2="5120.45" y2="881.93" xlink:href="#linear-gradient"/><linearGradient id="linear-gradient-8" x1="0.52" y1="881.42" x2="5120.45" y2="881.42" xlink:href="#linear-gradient"/><linearGradient id="linear-gradient-9" x1="0.57" y1="880.91" x2="5120.45" y2="880.91" xlink:href="#linear-gradient"/><linearGradient id="linear-gradient-10" x1="0.62" y1="880.39" x2="5120.45" y2="880.39" xlink:href="#linear-gradient"/><linearGradient id="linear-gradient-11" x1="0.68" y1="879.89" x2="5120.46" y2="879.89" xlink:href="#linear-gradient"/><linearGradient id="linear-gradient-12" x1="0.73" y1="879.38" x2="5120.46" y2="879.38" xlink:href="#linear-gradient"/><linearGradient id="linear-gradient-13" x1="0.78" y1="878.88" x2="5120.46" y2="878.88" xlink:href="#linear-gradient"/><linearGradient id="linear-gradient-14" x1="0.84" y1="878.38" x2="5120.46" y2="878.38" xlink:href="#linear-gradient"/><linearGradient id="linear-gradient-15" x1="0.89" y1="877.88" x2="5120.46" y2="877.88" xlink:href="#linear-gradient"/><linearGradient id="linear-gradient-16" x1="0.94" y1="877.38" x2="5120.46" y2="877.38" xlink:href="#linear-gradient"/><linearGradient id="linear-gradient-17" x1="1" y1="876.89" x2="5120.46" y2="876.89" xlink:href="#linear-gradient"/><linearGradient id="linear-gradient-18" x1="1.05" y1="876.39" x2="5120.46" y2="876.39" xlink:href="#linear-gradient"/><linearGradient id="linear-gradient-19" x1="1.1" y1="875.9" x2="5120.46" y2="875.9" xlink:href="#linear-gradient"/><linearGradient id="linear-gradient-20" x1="1.16" y1="884.95" x2="5120.46" y2="884.95" xlink:href="#linear-gradient"/><linearGradient id="linear-gradient-21" x1="1.21" y1="894.66" x2="5120.46" y2="894.66" xlink:href="#linear-gradient"/><linearGradient id="linear-gradient-22" x1="1.27" y1="904.39" x2="5120.46" y2="904.39" xlink:href="#linear-gradient"/><linearGradient id="linear-gradient-23" x1="1.32" y1="914.14" x2="5120.47" y2="914.14" xlink:href="#linear-gradient"/><linearGradient id="linear-gradient-24" x1="1.37" y1="923.92" x2="5120.47" y2="923.92" xlink:href="#linear-gradient"/><linearGradient id="linear-gradient-25" x1="1.43" y1="933.73" x2="5120.47" y2="933.73" xlink:href="#linear-gradient"/><linearGradient id="linear-gradient-26" x1="1.48" y1="943.57" x2="5120.47" y2="943.57" xlink:href="#linear-gradient"/><linearGradient id="linear-gradient-27" x1="1.54" y1="953.44" x2="5120.47" y2="953.44" xlink:href="#linear-gradient"/><linearGradient id="linear-gradient-28" x1="1.59" y1="963.35" x2="5120.47" y2="963.35" xlink:href="#linear-gradient"/><linearGradient id="linear-gradient-29" x1="1.65" y1="973.28" x2="5120.47" y2="973.28" xlink:href="#linear-gradient"/><linearGradient id="linear-gradient-30" x1="1.7" y1="983.26" x2="5120.47" y2="983.26" xlink:href="#linear-gradient"/><linearGradient id="linear-gradient-31" x1="1.76" y1="993.27" x2="5120.47" y2="993.27" xlink:href="#linear-gradient"/><linearGradient id="linear-gradient-32" x1="1.81" y1="1003.33" x2="5120.47" y2="1003.33" xlink:href="#linear-gradient"/><linearGradient id="linear-gradient-33" x1="1.87" y1="1013.43" x2="5120.47" y2="1013.43" xlink:href="#linear-gradient"/><linearGradient id="linear-gradient-34" x1="1.92" y1="1023.58" x2="5120.47" y2="1023.58" xlink:href="#linear-gradient"/><linearGradient id="linear-gradient-35" x1="1.98" y1="1033.79" x2="5120.48" y2="1033.79" xlink:href="#linear-gradient"/><linearGradient id="linear-gradient-36" x1="2.03" y1="1044.05" x2="5120.48" y2="1044.05" xlink:href="#linear-gradient"/><linearGradient id="linear-gradient-37" x1="2.09" y1="1054.33" x2="5120.48" y2="1054.33" xlink:href="#linear-gradient"/><linearGradient id="linear-gradient-38" x1="2.14" y1="1064.74" x2="5120.48" y2="1064.74" xlink:href="#linear-gradient"/><linearGradient id="linear-gradient-39" x1="2.2" y1="1075.23" x2="5120.48" y2="1075.23" xlink:href="#linear-gradient"/><linearGradient id="linear-gradient-40" x1="2.25" y1="1085.82" x2="5120.48" y2="1085.82" xlink:href="#linear-gradient"/><linearGradient id="linear-gradient-41" x1="2.31" y1="1096.54" x2="5120.48" y2="1096.54" xlink:href="#linear-gradient"/><linearGradient id="linear-gradient-42" x1="2.36" y1="1107.36" x2="5120.48" y2="1107.36" xlink:href="#linear-gradient"/></defs><title>Motivator</title><path class="cls-1" d="M5120,1334.85s-213.95,285-577.46,59.38c-180.25-111.89-750.08-960.1-1245.12-477.75C2854.23,1348.3,2403.8,980.83,1717,785c-289.35-82.5-381.78-98.82-741.81-470.86C827,161,354.6,775.81.56,382.77" transform="translate(-0.15 -288.52)"/><path class="cls-2" d="M5120,1324.24s-213.21,285.61-578.25,59.45c-162-100.15-603.65-713.4-1039.35-578.46-69.19,21.43-138.76,61.67-207,126.35-444.25,421.11-900.68,61.3-1582.56-133.89C1474,729.11,1363.76,706.41,1143.9,493.26c-49.17-47.67-103.5-104-167.48-169.93C828.45,171.21,356.32,781.86.61,394.45" transform="translate(-0.15 -288.52)"/><path class="cls-3" d="M5120,1313.63s-212.48,286.2-579,59.51c-168.44-103.72-605.8-684.94-1039.71-550.64-69.06,21.37-139.1,60.77-207.88,124.18-445.24,410.42-907.75,58.24-1584.69-136.3-240.35-69.47-355.84-92-566.81-306.45-48.29-49.08-100.9-106.41-164.2-171.41C829.89,181.39,358,787.91.66,406.14" transform="translate(-0.15 -288.52)"/><path class="cls-4" d="M5120,1303s-211.75,286.78-579.83,59.58c-174.86-107.28-607.95-656.48-1040.07-522.82-68.93,21.32-139.42,59.88-208.76,122-446.17,399.74-914.82,55.19-1586.83-138.71-241.82-70.36-362.51-93-564.68-308.47C1092.4,464,1041.53,405.8,978.9,341.7,831.34,191.58,359.77,794,.71,417.82" transform="translate(-0.15 -288.52)"/><path class="cls-5" d="M5120,1292.4s-211,287.37-580.63,59.65c-181.28-110.85-610.1-628-1040.42-495-68.81,21.26-139.74,59-209.63,119.83-447,389.09-921.89,52.13-1589-141.12-243.3-71.24-369.06-94.33-562.55-310.5-46.6-52.07-95.7-111.18-157.66-174.37C832.78,201.77,361.5,800,.76,429.51" transform="translate(-0.15 -288.52)"/><path class="cls-6" d="M5120,1281.79s-210.29,288-581.42,59.71c-187.7-114.42-612.25-599.56-1040.78-467.18-68.68,21.21-140,58.1-210.51,117.65-447.83,378.46-929,49.08-1591.11-143.53-244.77-72.13-375.49-95.91-560.42-312.52-45.79-53.64-92.95-113.71-154.39-175.85C834.58,211.6,363.22,806.05.81,441.19" transform="translate(-0.15 -288.52)"/><path class="cls-7" d="M5120,1271.18S4911,1558.9,4537.79,1331c-193.86-118.41-614.4-571.1-1041.14-439.36-68.55,21.16-140.34,57.21-211.39,115.48C2836.7,1374.93,2348.83,1054.45,1692,861.14c-246.39-72.52-381.78-97.77-558.29-314.54-45-55.26-90.32-116.12-151.11-177.33C836.09,221.73,364.95,812.1.86,452.87" transform="translate(-0.15 -288.52)"/><path class="cls-8" d="M5120,1260.57s-208.27,288.22-583,59.84c-200.25-122-616.55-542.64-1041.5-411.54-68.42,21.1-140.63,56.33-212.27,113.3-449.23,357.28-943.55,44.48-1595.38-148.35-247.89-73.33-387.92-99.9-556.16-316.56-44.21-56.94-87.7-118.53-147.84-178.81C837.6,231.85,366.67,818.15.91,464.56" transform="translate(-0.15 -288.52)"/><path class="cls-9" d="M5120,1250s-207.5,288.73-583.8,59.91c-206.64-125.65-618.7-514.18-1041.85-383.72-68.3,21-140.91,55.44-213.14,111.12-449.84,346.74-950.67,41.58-1597.52-150.76-249.39-74.16-393.9-102.28-554-318.58-43.43-58.66-85.07-120.93-144.57-180.29C839.1,242,368.4,824.2,1,476.24" transform="translate(-0.15 -288.52)"/><path class="cls-10" d="M5120,1239.35s-206.73,289.26-584.59,60c-213-129.27-620.85-485.73-1042.21-355.9a698.34,698.34,0,0,0-214,108.95C2828.81,1388.62,2321.4,1091,1679.52,899.21c-250.88-75-399.7-104.92-551.9-320.6-42.65-60.44-82.45-123.34-141.29-181.78C840.6,252.11,370.12,830.25,1,487.93" transform="translate(-0.15 -288.52)"/><path class="cls-11" d="M5120,1228.74s-206,289.8-585.38,60c-219.42-132.87-623-457.27-1042.57-328.08a730.12,730.12,0,0,0-214.9,106.77c-450.85,325.78-964.89,35.73-1601.8-155.58C1423,836.08,1270,804.1,1125.59,589.27c-41.87-62.27-79.83-125.74-138-183.26C842.1,262.24,371.85,836.3,1.05,499.61" transform="translate(-0.15 -288.52)"/><path class="cls-12" d="M5120,1218.13s-205.22,290.35-586.17,60.11C4308,1141.76,3908.67,849.43,3490.91,978c-67.91,20.89-141.69,52.82-215.77,104.6-451.26,315.36-972,32.79-1603.94-158-253.87-76.64-410.76-110.89-547.64-324.64-41.08-64.15-77.21-128.15-134.75-184.74C843.6,272.37,373.57,842.34,1.1,511.3" transform="translate(-0.15 -288.52)"/><path class="cls-13" d="M5120,1207.52s-204.47,290.9-587,60.18c-232.22-140.08-627.31-400.35-1043.28-272.44-67.79,20.83-141.93,52-216.65,102.42-451.61,305-979.1,29.83-1606.07-160.4-255.36-77.48-416-114.19-545.51-326.66-40.27-66.07-74.59-130.55-131.47-186.22-145-141.88-614.75,424-988.9,98.59" transform="translate(-0.15 -288.52)"/><path class="cls-14" d="M5120,1196.91s-203.72,291.46-587.76,60.24c-238.63-143.68-629.46-371.89-1043.64-244.62-67.66,20.78-142.16,51.1-217.53,100.25-451.89,294.66-986.2,26.86-1608.21-162.81C1406,871.64,1241.79,832.28,1119.48,621.28c-39.44-68-72-132.95-128.2-187.7C846.58,292.65,377,854.44,1.2,534.66" transform="translate(-0.15 -288.52)"/><path class="cls-15" d="M5120,1186.3s-203,292-588.55,60.31c-245-147.27-631.61-343.43-1044-216.8-67.53,20.72-142.38,50.25-218.4,98.07-452.12,284.39-993.29,23.88-1610.35-165.22-258.34-79.17-425.95-121.36-541.26-330.7-38.59-70.06-69.37-135.34-124.93-189.18C848.06,302.79,378.74,860.49,1.25,546.35" transform="translate(-0.15 -288.52)"/><path class="cls-16" d="M5120,1175.69s-202.25,292.61-589.34,60.37c-251.44-150.85-633.76-315-1044.35-189-67.4,20.67-142.59,49.41-219.28,95.89-452.29,274.17-1000.38,20.88-1612.49-167.63-259.83-80-430.63-125.21-539.13-332.73-37.71-72.12-66.75-137.74-121.65-190.66C849.54,312.93,380.47,866.54,1.3,558" transform="translate(-0.15 -288.52)"/><path class="cls-17" d="M5120,1165.07s-201.52,293.2-590.13,60.44C4272,1071.08,3894,939,3485.16,1064.36c-67.28,20.61-142.8,48.57-220.16,93.72-452.4,264-1007.47,17.87-1614.63-170-261.32-80.88-435.12-129.2-537-334.75-36.79-74.22-64.14-140.14-118.38-192.14C851,323.08,382.19,872.59,1.34,569.72" transform="translate(-0.15 -288.52)"/><path class="cls-18" d="M5120,1154.46s-200.79,293.79-590.93,60.51C4264.81,1057,3891,956.92,3484,1081.63c-67.15,20.56-143,47.75-221,91.54-452.46,253.91-1014.56,14.84-1616.76-172.45C1383.41,919,1206.79,867.4,1111.35,664c-35.82-76.36-61.54-142.53-115.11-193.63C852.5,333.24,383.92,878.64,1.39,581.4" transform="translate(-0.15 -288.52)"/><path class="cls-19" d="M5120,1143.85s-200.07,294.38-591.72,60.57c-270.68-161.59-640.21-229.6-1045.42-105.52-67,20.51-143.18,46.93-221.91,89.37-452.47,243.88-1021.63,11.81-1618.9-174.86-264.29-82.6-443.55-137.56-532.74-338.79-34.81-78.54-58.93-144.92-111.84-195.11C854,343.39,385.64,884.69,1.44,593.09" transform="translate(-0.15 -288.52)"/><path class="cls-20" d="M5120,1133.24s-199.34,295-592.51,60.64c-277.1-165.16-642.36-201.14-1045.78-77.7-66.89,20.45-143.36,46.12-222.79,87.19-452.43,233.91-1028.71,8.76-1621-177.27-265.77-83.47-447.49-141.91-530.61-340.81C1073.53,604.54,1051,538,998.71,488.7,855.43,353.55,387.37,890.74,1.49,604.77" transform="translate(-0.15 -288.52)"/><path class="cls-21" d="M5120,1122.63s-198.63,295.59-593.3,60.7c-283.52-168.73-644.51-172.68-1046.13-49.88-66.77,20.4-143.53,45.33-223.66,85-452.34,224-1035.78,5.7-1623.18-179.68C1366.47,954.44,1182.46,892.45,1105.24,696c-32.62-83-53.72-149.7-105.29-198.07C856.9,363.71,389.09,896.78,1.54,616.45" transform="translate(-0.15 -288.52)"/><path class="cls-22" d="M5120,1112s-197.91,296.2-594.09,60.77c-289.94-172.3-646.66-144.22-1046.49-22.06-66.64,20.34-143.69,44.55-224.54,82.84-452.22,214.17-1042.85,2.63-1625.32-182.09-268.73-85.23-454.85-150.85-526.35-344.85-31.42-85.27-51.12-152.09-102-199.55C858.36,373.88,390.82,902.83,1.59,628.14" transform="translate(-0.15 -288.52)"/><path class="cls-23" d="M5120,1101.41s-197.2,296.81-594.89,60.84c-296.37-175.86-648.82-115.76-1046.85,5.76-66.51,20.29-143.85,43.78-225.42,80.66-452.06,204.42-1049.92-.45-1627.45-184.5-270.21-86.11-458.29-155.42-524.22-346.87-30.16-87.56-48.52-154.47-98.74-201C859.81,384.05,392.54,908.88,1.64,639.82" transform="translate(-0.15 -288.52)"/><path class="cls-24" d="M5120,1090.8s-196.48,297.43-595.68,60.9c-302.8-179.41-651-87.3-1047.2,33.58-66.38,20.24-144,43-226.3,78.49-451.86,194.73-1057-3.54-1629.59-186.91-271.69-87-461.56-160-522.09-348.89-28.81-89.89-45.92-156.85-95.47-202.51C861.26,394.23,394.27,914.93,1.69,651.51" transform="translate(-0.15 -288.52)"/><path class="cls-25" d="M5120,1080.19s-195.77,298.05-596.47,61c-309.23-183-653.12-58.84-1047.56,61.4-66.26,20.18-144.15,42.28-227.17,76.31-451.63,185.12-1064-6.65-1631.73-189.32-273.16-87.9-464.68-164.68-520-350.91-27.38-92.23-43.32-159.23-92.2-204C862.7,404.41,396,921,1.74,663.19" transform="translate(-0.15 -288.52)"/><path class="cls-26" d="M5120,1069.58s-195.07,298.68-597.26,61c-315.66-186.51-655.27-30.38-1047.92,89.22-66.13,20.13-144.29,41.55-228,74.14-451.38,175.59-1071.09-9.76-1633.87-191.73-274.63-88.8-467.65-169.34-517.83-352.93-25.85-94.59-40.73-161.61-88.92-205.48C864.14,414.6,397.72,927,1.78,674.88" transform="translate(-0.15 -288.52)"/><path class="cls-27" d="M5120,1059s-194.36,299.31-598.06,61.1c-322.09-190.06-657.42-1.92-1048.28,117-66,20.07-144.43,40.84-228.93,72-451.11,166.13-1078.14-12.89-1636-194.14-276.1-89.71-470.48-174-515.7-355-24.23-97-38.14-164-85.65-207C865.58,424.79,399.44,933.08,1.83,686.56" transform="translate(-0.15 -288.52)"/><path class="cls-28" d="M5120,1048.36s-193.66,299.94-598.85,61.17c-328.53-193.6-659.57,26.53-1048.63,144.86-65.87,20-144.56,40.15-229.8,69.78-450.82,156.76-1085.19-16-1638.14-196.55C1327,1037,1131.39,948.94,1091,770.64c-22.51-99.34-35.54-166.37-82.38-208.44C867,435,401.17,939.13,1.88,698.24" transform="translate(-0.15 -288.52)"/><path class="cls-29" d="M5120,1037.74s-193,300.57-599.64,61.23c-335-197.13-661.72,55-1049,172.68-65.75,20-144.7,39.47-230.68,67.61-450.52,147.46-1092.23-19.17-1640.28-199-279-91.54-475.75-183.32-511.45-359-20.67-101.72-33-168.74-79.11-209.92C868.43,445.2,402.89,945.17,1.93,709.93" transform="translate(-0.15 -288.52)"/><path class="cls-30" d="M5120,1027.13s-192.72,302-600.43,61.3c-341.8-200-663.87,83.45-1049.35,200.5-65.62,19.91-144.82,38.8-231.56,65.43C2788.45,1492.61,2139.39,1332,1596.25,1153c-280.5-92.47-478.2-187.94-509.32-361-18.72-104.11-30.37-171.11-75.83-211.4C869.84,455.41,404.61,951.22,2,721.61" transform="translate(-0.15 -288.52)"/><path class="cls-31" d="M5120,1016.52s-192,302.59-601.22,61.37c-348.22-203.57-666,111.91-1049.7,228.32-65.49,19.86-145,38.15-232.43,63.26-449.91,129.1-1106.31-25.49-1644.56-203.78-282-93.4-480.53-192.5-507.19-363-16.64-106.48-27.78-173.48-72.56-212.88C871.26,465.63,406.34,957.27,2,733.3" transform="translate(-0.15 -288.52)"/><path class="cls-32" d="M5120,1005.91s-191.26,303.18-602,61.43c-354.64-207.13-668.17,140.37-1050.06,256.14-65.36,19.8-145.08,37.53-233.31,61.08-449.6,120-1113.34-28.67-1646.7-206.19-283.42-94.34-482.76-197-505.06-365.06-14.44-108.84-25.2-175.85-69.29-214.36C872.66,475.86,408.06,963.32,2.08,745" transform="translate(-0.15 -288.52)"/><path class="cls-33" d="M5120,995.3s-190.53,303.76-602.81,61.5c-361.06-210.7-670.32,168.83-1050.42,284-65.24,19.75-145.21,36.91-234.19,58.91-449.3,111-1120.37-31.85-1648.83-208.6-284.88-95.28-484.89-201.46-502.93-367.08-12.11-111.19-22.61-178.21-66-215.84-140.75-122-605,361.23-1012.69,148.53" transform="translate(-0.15 -288.52)"/><path class="cls-34" d="M5120,984.69s-189.8,304.35-603.6,61.56C4148.92,832,3843.92,1243.54,3465.63,1358c-65.11,19.69-145.34,36.32-235.06,56.73-449,102.14-1127.4-35-1651-211-286.34-96.24-486.93-205.82-500.8-369.1-9.64-113.5-20-180.58-62.74-217.32-140.6-121-604.54,358.09-1013.88,151" transform="translate(-0.15 -288.52)"/><path class="cls-35" d="M5120,974.08s-189.07,304.93-604.39,61.63c-373.9-217.83-674.63,225.75-1051.13,339.6-65,19.64-145.47,35.74-235.94,54.55-448.75,93.31-1134.42-38.25-1653.11-213.42-287.79-97.19-488.88-210.09-498.67-371.12-7-115.79-17.45-182.94-59.47-218.81C876.83,506.59,413.24,981.47,2.22,780" transform="translate(-0.15 -288.52)"/><path class="cls-36" d="M5120,963.47s-188.33,305.52-605.19,61.7c-380.32-221.4-676.78,254.21-1051.49,367.42-64.85,19.59-145.61,35.18-236.82,52.38-448.51,84.54-1141.44-41.46-1655.25-215.83C1282,1131,1080.51,1014.87,1074.72,856c-4.3-118-14.88-185.29-56.19-220.29C878.21,516.86,415,987.52,2.27,791.72" transform="translate(-0.15 -288.52)"/><path class="cls-37" d="M5120,952.86s-187.6,306.1-606,61.76c-386.74-225-678.93,282.67-1051.84,395.24-64.73,19.53-145.74,34.64-237.69,50.2-448.29,75.85-1148.14-45.63-1657.39-218.24-290.5-99.68-492.56-218.32-494.41-375.16-1.42-120.23-12.3-187.65-52.92-221.77C879.58,527.13,416.69,993.57,2.32,803.4" transform="translate(-0.15 -288.52)"/><path class="cls-38" d="M5120,942.25s-186.87,306.69-606.77,61.83C4120.07,775.55,3832.15,1315.2,3461,1427.14c-64.6,19.48-145.89,34.12-238.57,48-448.11,67.23-1155.21-48.69-1659.52-220.65-292-100.57-494.31-222.25-492.28-377.19,1.6-122.37-9.73-190-49.65-223.25C880.93,537.42,418.41,999.61,2.37,815.09" transform="translate(-0.15 -288.52)"/><path class="cls-39" d="M5120,931.64s-186.14,307.27-607.56,61.9c-399.58-232.09-683.23,339.58-1052.56,450.88-64.47,19.42-146,33.62-239.45,45.85-448,58.68-1162.28-51.74-1661.66-223.06-293.45-101.45-496-226.06-490.15-379.21,4.75-124.46-7.16-192.35-46.38-224.73-140-115.54-602.11,342.4-1019.82,163.51" transform="translate(-0.15 -288.52)"/><path class="cls-40" d="M5120,921s-185.41,307.86-608.35,62c-406-235.66-685.38,368-1052.91,478.7-64.34,19.37-146.19,33.13-240.32,43.67-447.85,50.19-1169.35-54.8-1663.8-225.47-294.92-102.34-497.65-229.72-488-381.23,8-126.47-4.59-194.7-43.1-226.21C883.63,558,421.86,1011.71,2.47,838.45" transform="translate(-0.15 -288.52)"/><path class="cls-41" d="M5120,910.41s-184.68,308.45-609.15,62c-412.42-239.23-687.53,396.5-1053.27,506.52-64.22,19.32-146.36,32.65-241.2,41.5-447.79,41.76-1176.42-57.85-1665.94-227.88-296.4-103.23-499.27-233.24-485.9-383.25,11.45-128.41-2.05-197-39.83-227.69C884.83,568.51,423.59,1017.76,2.52,850.14" transform="translate(-0.15 -288.52)"/><path class="cls-42" d="M5120,899.8s-183.94,309-609.94,62.09c-418.85-242.79-689.68,425-1053.63,534.34-549.05,165-2444.77-134.14-2393.92-576.24,71.38-620.64-524.9,146.84-1059.95-58.18" transform="translate(-0.15 -288.52)"/></svg>