<svg xmlns="http://www.w3.org/2000/svg" viewBox="0 0 79969 379" width="79969" height="379"><path d="M72.109 188.358c-3.89-36.643 32.891-41.931 54-63 21.11-21.07 19-74 63.5-80.5s74.5 25 84 59 9 65.5-4.5 84.5-30.5 11-46.5 33.5 0 90.642-33 92.499c-33 1.858-37-42.499-56.5-69.999-19.5-27.5-57.109-19.358-61-56zM451.109 188.358c-3.89-36.643 32.891-41.931 54-63 21.11-21.07 19-74 63.5-80.5s74.5 25 84 59 9 65.5-4.5 84.5-30.5 11-46.5 33.5 0 90.642-33 92.499c-33 1.858-37-42.499-56.5-69.999-19.5-27.5-57.109-19.358-61-56zM830.109 188.358c-3.89-36.643 32.891-41.931 54-63 21.11-21.07 19-74 63.5-80.5s74.5 25 84 59 9 65.5-4.5 84.5-30.5 11-46.5 33.5 0 90.642-33 92.499c-33 1.858-37-42.499-56.5-69.999-19.5-27.5-57.109-19.358-61-56zM1209.109 188.358c-3.89-36.643 32.891-41.931 54-63 21.11-21.07 19-74 63.5-80.5s74.5 25 84 59 9 65.5-4.5 84.5-30.5 11-46.5 33.5 0 90.642-33 92.499c-33 1.858-37-42.499-56.5-69.999-19.5-27.5-57.109-19.358-61-56zM1588.109 188.358c-3.89-36.643 32.891-41.931 54-63 21.11-21.07 19-74 63.5-80.5s74.5 25 84 59 9 65.5-4.5 84.5-30.5 11-46.5 33.5 0 90.642-33 92.499c-33 1.858-37-42.499-56.5-69.999-19.5-27.5-57.109-19.358-61-56zM1967.109 188.358c-3.89-36.643 32.891-41.931 54-63 21.11-21.07 19-74 63.5-80.5s74.5 25 84 59 9 65.5-4.5 84.5-30.5 11-46.5 33.5 0 90.642-33 92.499c-33 1.858-37-42.499-56.5-69.999-19.5-27.5-57.109-19.358-61-56zM2346.109 188.358c-3.89-36.643 32.891-41.931 54-63 21.11-21.07 19-74 63.5-80.5s74.5 25 84 59 9 65.5-4.5 84.5-30.5 11-46.5 33.5 0 90.642-33 92.499c-33 1.858-37-42.499-56.5-69.999-19.5-27.5-57.109-19.358-61-56zM2725.109 188.358c-3.89-36.643 32.891-41.931 54-63 21.11-21.07 19-74 63.5-80.5s74.5 25 84 59 9 65.5-4.5 84.5-30.5 11-46.5 33.5 0 90.642-33 92.499c-33 1.858-37-42.499-56.5-69.999-19.5-27.5-57.109-19.358-61-56zM3104.109 188.358c-3.89-36.643 32.891-41.931 54-63 21.11-21.07 19-74 63.5-80.5s74.5 25 84 59 9 65.5-4.5 84.5-30.5 11-46.5 33.5 0 90.642-33 92.499c-33 1.858-37-42.499-56.5-69.999-19.5-27.5-57.109-19.358-61-56zM3483.109 188.358c-3.89-36.643 32.891-41.931 54-63 21.11-21.07 19-74 63.5-80.5s74.5 25 84 59 9 65.5-4.5 84.5-30.5 11-46.5 33.5 0 90.642-33 92.499c-33 1.858-37-42.499-56.5-69.999-19.5-27.5-57.109-19.358-61-56zM3862.109 188.358c-3.89-36.643 32.891-41.931 54-63 21.11-21.07 19-74 63.5-80.5s74.5 25 84 59 9 65.5-4.5 84.5-30.5 11-46.5 33.5 0 90.642-33 92.499c-33 1.858-37-42.499-56.5-69.999-19.5-27.5-57.109-19.358-61-56zM4241.109 188.358c-3.89-36.643 32.891-41.931 54-63 21.11-21.07 19-74 63.5-80.5s74.5 25 84 59 9 65.5-4.5 84.5-30.5 11-46.5 33.5 0 90.642-33 92.499c-33 1.858-37-42.499-56.5-69.999-19.5-27.5-57.109-19.358-61-56zM4620.109 188.358c-3.89-36.643 32.891-41.931 54-63 21.11-21.07 19-74 63.5-80.5s74.5 25 84 59 9 65.5-4.5 84.5-30.5 11-46.5 33.5 0 90.642-33 92.499c-33 1.858-37-42.499-56.5-69.999-19.5-27.5-57.109-19.358-61-56zM4999.109 188.358c-3.89-36.643 32.891-41.931 54-63 21.11-21.07 19-74 63.5-80.5s74.5 25 84 59 9 65.5-4.5 84.5-30.5 11-46.5 33.5 0 90.642-33 92.499c-33 1.858-37-42.499-56.5-69.999-19.5-27.5-57.109-19.358-61-56zM5378.109 188.358c-3.89-36.643 32.891-41.931 54-63 21.11-21.07 19-74 63.5-80.5s74.5 25 84 59 9 65.5-4.5 84.5-30.5 11-46.5 33.5 0 90.642-33 92.499c-33 1.858-37-42.499-56.5-69.999-19.5-27.5-57.109-19.358-61-56zM5757.109 188.358c-3.89-36.643 32.891-41.931 54-63 21.11-21.07 19-74 63.5-80.5s74.5 25 84 59 9 65.5-4.5 84.5-30.5 11-46.5 33.5 0 90.642-33 92.499c-33 1.858-37-42.499-56.5-69.999-19.5-27.5-57.109-19.358-61-56zM6136.109 188.358c-3.89-36.643 32.891-41.931 54-63 21.11-21.07 19-74 63.5-80.5s74.5 25 84 59 9 65.5-4.5 84.5-30.5 11-46.5 33.5 0 90.642-33 92.499c-33 1.858-37-42.499-56.5-69.999-19.5-27.5-57.109-19.358-61-56zM6515.109 188.358c-3.89-36.643 32.891-41.931 54-63 21.11-21.07 19-74 63.5-80.5s74.5 25 84 59 9 65.5-4.5 84.5-30.5 11-46.5 33.5 0 90.642-33 92.499c-33 1.858-37-42.499-56.5-69.999-19.5-27.5-57.109-19.358-61-56zM6894.109 188.358c-3.89-36.643 32.891-41.931 54-63 21.11-21.07 19-74 63.5-80.5s74.5 25 84 59 9 65.5-4.5 84.5-30.5 11-46.5 33.5 0 90.642-33 92.499c-33 1.858-37-42.499-56.5-69.999-19.5-27.5-57.109-19.358-61-56zM7273.109 188.358c-3.89-36.643 32.891-41.931 54-63 21.11-21.07 19-74 63.5-80.5s74.5 25 84 59 9 65.5-4.5 84.5-30.5 11-46.5 33.5 0 90.642-33 92.499c-33 1.858-37-42.499-56.5-69.999-19.5-27.5-57.109-19.358-61-56zM7652.109 188.358c-3.89-36.643 32.891-41.931 54-63 21.11-21.07 19-74 63.5-80.5s74.5 25 84 59 9 65.5-4.5 84.5-30.5 11-46.5 33.5 0 90.642-33 92.499c-33 1.858-37-42.499-56.5-69.999-19.5-27.5-57.109-19.358-61-56zM8031.109 188.358c-3.89-36.643 32.891-41.931 54-63 21.11-21.07 19-74 63.5-80.5s74.5 25 84 59 9 65.5-4.5 84.5-30.5 11-46.5 33.5 0 90.642-33 92.499c-33 1.858-37-42.499-56.5-69.999-19.5-27.5-57.109-19.358-61-56zM8410.109 188.358c-3.89-36.643 32.891-41.931 54-63 21.11-21.07 19-74 63.5-80.5s74.5 25 84 59 9 65.5-4.5 84.5-30.5 11-46.5 33.5 0 90.642-33 92.499c-33 1.858-37-42.499-56.5-69.999-19.5-27.5-57.109-19.358-61-56zM8789.109 188.358c-3.89-36.643 32.891-41.931 54-63 21.11-21.07 19-74 63.5-80.5s74.5 25 84 59 9 65.5-4.5 84.5-30.5 11-46.5 33.5 0 90.642-33 92.499c-33 1.858-37-42.499-56.5-69.999-19.5-27.5-57.109-19.358-61-56zM9168.109 188.358c-3.89-36.643 32.891-41.931 54-63 21.11-21.07 19-74 63.5-80.5s74.5 25 84 59 9 65.5-4.5 84.5-30.5 11-46.5 33.5 0 90.642-33 92.499c-33 1.858-37-42.499-56.5-69.999-19.5-27.5-57.109-19.358-61-56zM9547.109 188.358c-3.89-36.643 32.891-41.931 54-63 21.11-21.07 19-74 63.5-80.5s74.5 25 84 59 9 65.5-4.5 84.5-30.5 11-46.5 33.5 0 90.642-33 92.499c-33 1.858-37-42.499-56.5-69.999-19.5-27.5-57.109-19.358-61-56zM9926.109 188.358c-3.89-36.643 32.891-41.931 54-63 21.11-21.07 19-74 63.5-80.5s74.5 25 84 59 9 65.5-4.5 84.5-30.5 11-46.5 33.5 0 90.642-33 92.499c-33 1.858-37-42.499-56.5-69.999-19.5-27.5-57.109-19.358-61-56zM10305.109 188.358c-3.89-36.643 32.891-41.931 54-63 21.11-21.07 19-74 63.5-80.5s74.5 25 84 59 9 65.5-4.5 84.5-30.5 11-46.5 33.5 0 90.642-33 92.499c-33 1.858-37-42.499-56.5-69.999-19.5-27.5-57.109-19.358-61-56zM10684.109 188.358c-3.89-36.643 32.891-41.931 54-63 21.11-21.07 19-74 63.5-80.5s74.5 25 84 59 9 65.5-4.5 84.5-30.5 11-46.5 33.5 0 90.642-33 92.499c-33 1.858-37-42.499-56.5-69.999-19.5-27.5-57.109-19.358-61-56zM11063.109 188.358c-3.89-36.643 32.891-41.931 54-63 21.11-21.07 19-74 63.5-80.5s74.5 25 84 59 9 65.5-4.5 84.5-30.5 11-46.5 33.5 0 90.642-33 92.499c-33 1.858-37-42.499-56.5-69.999-19.5-27.5-57.109-19.358-61-56zM11442.109 188.358c-3.89-36.643 32.891-41.931 54-63 21.11-21.07 19-74 63.5-80.5s74.5 25 84 59 9 65.5-4.5 84.5-30.5 11-46.5 33.5 0 90.642-33 92.499c-33 1.858-37-42.499-56.5-69.999-19.5-27.5-57.109-19.358-61-56zM11821.194 188.358c-3.888-36.619 32.873-41.903 53.961-62.954 21.113-21.077 18.963-74.109 63.454-80.606 44.485-6.496 74.42 25.108 83.976 59.085 9.547 33.969 9.176 65.411-4.316 84.475-13.488 19.048-30.579 11.018-46.626 33.533-16.007 22.481.01 90.561-33.034 92.413-33.066 1.853-37.143-42.31-56.641-69.8-19.503-27.496-56.875-19.423-60.774-56.146zM12200.447 188.358c-3.88-36.547 32.82-41.821 53.847-62.818 21.119-21.097 18.849-74.434 63.315-80.921 44.439-6.483 74.182 25.432 83.906 59.339 9.686 33.874 9.699 65.143-3.768 84.4-13.451 19.193-30.813 11.073-47.003 33.633-16.027 22.423.039 90.318-33.136 92.155-33.264 1.837-37.568-41.745-57.063-69.207-19.511-27.484-56.173-19.617-60.098-56.581zM12579.865 188.358c-3.867-36.428 32.733-41.685 53.657-62.593 21.132-21.129 18.664-74.971 63.087-81.442 44.363-6.463 73.787 25.967 83.789 59.759 9.916 33.718 10.565 64.701-2.86 84.276-13.39 19.432-31.201 11.164-47.626 33.797-16.061 22.329.086 89.917-33.306 91.728-33.59 1.813-38.272-40.808-57.76-68.225-19.524-27.463-55.013-19.936-58.981-57.3zM12959.444 188.358c-3.849-36.263 32.612-41.496 53.395-62.281 21.149-21.175 18.406-75.715 62.77-82.164 44.258-6.435 73.241 26.708 83.628 60.34 10.235 33.503 11.764 64.089-1.604 84.105-13.305 19.763-31.739 11.29-48.488 34.025-16.108 22.197.151 89.361-33.541 91.137-34.043 1.778-39.248-39.512-58.726-66.865-19.543-27.435-53.407-20.38-57.434-58.297zM13339.178 188.358c-3.827-36.055 32.459-41.257 53.062-61.885 21.17-21.233 18.079-76.658 62.369-83.079 44.124-6.4 72.548 27.646 83.423 61.076 10.639 33.23 13.283 63.313-.012 83.888-13.198 20.182-32.419 11.449-49.581 34.313-16.167 22.031.234 88.657-33.837 90.389-34.617 1.734-40.484-37.87-59.95-65.142-19.567-27.4-51.373-20.942-55.474-59.56zM13719.059 188.358c-3.801-35.804 32.274-40.97 52.663-61.411 21.195-21.302 17.687-77.789 61.887-84.176 43.964-6.357 71.718 28.772 83.178 61.96 11.123 32.902 15.106 62.382 1.898 83.627-13.07 20.685-33.237 11.64-50.893 34.659-16.238 21.832.334 87.812-34.193 89.492-35.305 1.68-41.966-35.901-61.418-63.076-19.596-27.357-48.932-21.616-53.122-61.075zM14099.076 188.358c-3.77-35.515 32.062-40.639 52.202-60.863 21.225-21.382 17.234-79.096 61.331-85.444 43.78-6.308 70.759 30.074 82.894 62.981 11.684 32.523 17.212 61.307 4.105 83.326-12.922 21.266-34.18 11.861-52.408 35.059-16.321 21.601.45 86.836-34.605 88.454-36.1 1.619-43.678-33.625-63.114-60.688-19.628-27.307-46.112-22.394-50.405-62.825zM14479.219 188.358c-3.735-35.19 31.823-40.266 51.684-60.247 21.258-21.472 16.725-80.565 60.706-86.869 43.572-6.252 69.68 31.536 82.576 64.128 12.312 32.098 19.578 60.099 6.584 82.988-12.756 21.919-35.241 12.109-54.11 35.509-16.414 21.342.579 85.738-35.068 87.288-36.993 1.55-45.603-31.068-65.02-58.005-19.665-27.252-42.942-23.27-47.352-64.792zM14859.476 188.358c-3.698-34.832 31.56-39.857 51.114-59.57 21.294-21.571 16.166-82.179 60.019-88.435 43.344-6.191 68.495 33.143 82.226 65.389 13.003 31.63 22.178 58.771 9.309 82.616-12.573 22.636-36.407 12.382-55.981 36.003-16.515 21.057.721 84.532-35.576 86.006-37.975 1.475-47.718-28.257-67.115-55.056-19.706-27.191-39.46-24.231-43.996-66.953zM15239.832 188.358c-3.657-34.447 31.277-39.415 50.5-58.84 21.332-21.677 15.562-83.92 59.277-90.124 43.098-6.125 67.217 34.877 81.848 66.75 13.75 31.124 24.985 57.337 12.25 82.214-12.375 23.41-37.665 12.676-58 36.535-16.625 20.75.875 83.232-36.125 84.625-39.034 1.393-50-25.225-69.375-51.874-19.75-27.126-35.701-25.269-40.375-69.286zM15620.272 188.358c-3.613-34.037 30.976-38.946 49.847-58.063 21.374-21.791 14.921-85.772 58.49-91.921 42.836-6.055 65.858 36.72 81.446 68.196 14.543 30.589 27.967 55.815 15.375 81.788-12.166 24.233-39.001 12.989-60.145 37.102-16.742 20.423 1.038 81.849-36.708 83.155-40.16 1.307-52.425-22.003-71.777-48.493-19.796-27.055-31.708-26.371-36.528-71.764zM16000.782 188.358c-3.568-33.608 30.66-38.454 49.163-57.25 21.417-21.91 14.249-87.71 57.664-93.802 42.562-5.982 64.435 38.65 81.026 69.71 15.373 30.027 31.09 54.22 18.648 81.342-11.946 25.095-40.401 13.317-62.393 37.695-16.864 20.082 1.209 80.401-37.319 81.616-41.338 1.216-54.965-18.627-74.292-44.951-19.846-26.982-27.524-27.526-32.497-74.36zM16381.343 188.358c-3.521-33.164 30.334-37.946 48.456-56.409 21.462-22.032 13.554-89.716 56.81-95.748 42.279-5.906 62.962 40.647 80.59 71.278 16.233 29.445 34.324 52.569 22.035 80.879-11.717 25.987-41.849 13.655-64.718 38.309-16.99 19.727 1.387 78.902-37.95 80.024-42.559 1.122-57.594-15.134-76.896-41.286-19.896-26.906-23.195-28.722-28.327-77.047zM16761.94 188.358c-3.473-32.71 30-37.425 47.732-55.549 21.508-22.158 12.843-91.767 55.937-97.738 41.989-5.828 61.456 42.69 80.145 72.88 17.112 28.851 37.629 50.882 25.499 80.407-11.485 26.899-43.331 14.002-67.096 38.936-17.119 19.366 1.567 77.371-38.597 78.396-43.806 1.026-60.282-11.562-79.558-37.538-19.948-26.829-18.769-29.944-24.062-79.794zM17142.555 188.358c-3.425-32.251 29.662-36.9 46.999-54.679 21.555-22.285 12.125-93.841 55.055-99.75 41.695-5.75 59.933 44.754 79.696 74.5 18 28.25 40.969 49.175 29 79.929-11.25 27.821-44.829 14.352-69.501 39.571-17.25 19 1.75 75.821-39.25 76.749-45.067.93-62.999-7.95-82.249-33.749-20-26.75-14.294-31.179-19.75-82.571zM17523.169 188.358c-3.375-31.791 29.325-36.374 46.268-53.809 21.602-22.412 11.406-95.915 54.172-101.762 41.402-5.672 58.411 46.819 79.246 76.12 18.888 27.649 44.311 47.468 32.501 79.451-11.015 28.743-46.326 14.703-71.904 40.206-17.381 18.634 1.933 74.271-39.903 75.103-46.33.832-65.718-4.34-84.942-29.961-20.052-26.671-9.817-32.414-15.438-85.348zM17903.766 188.358c-3.327-31.337 28.991-35.853 45.544-52.949 21.648-22.538 10.695-97.966 53.299-103.752 41.112-5.594 56.905 48.861 78.801 77.722 19.767 27.055 47.616 45.781 35.965 78.979-10.783 29.655-47.808 15.05-74.282 40.833-17.51 18.273 2.113 72.74-40.55 73.475-47.577.736-68.406-.768-87.604-26.213-20.104-26.594-5.391-33.636-11.173-88.095zM18284.327 188.358c-3.28-30.893 28.665-35.345 44.837-52.108 21.693-22.66 10-99.972 52.445-105.698 40.829-5.518 55.432 50.858 78.365 79.29 20.627 26.473 50.85 44.13 39.352 78.516-10.554 30.547-49.256 15.388-76.607 41.447-17.636 17.918 2.291 71.241-41.181 71.883-48.798.642-71.035 2.725-90.208-22.548-20.154-26.518-1.062-34.832-7.003-90.782zM18664.837 188.358c-3.235-30.464 28.349-34.853 44.153-51.295 21.736-22.779 9.328-101.911 51.619-107.579 40.555-5.445 54.009 52.789 77.945 80.804 21.457 25.911 53.973 42.535 42.625 78.07-10.334 31.409-50.656 15.716-78.855 42.04-17.758 17.577 2.462 69.793-41.792 70.344-49.976.551-73.575 6.101-92.723-19.006-20.204-26.445 3.122-35.987-2.972-93.378zM19045.277 188.358c-3.191-30.054 28.049-34.384 43.5-50.519 21.778-22.892 8.687-103.761 50.832-109.374 40.293-5.375 52.65 54.631 77.543 82.25 22.25 25.374 56.955 41.012 45.75 77.643-10.125 32.231-51.993 16.029-81 42.606-17.875 17.25 2.625 68.411-42.375 68.875-51.102.465-76 9.323-95.125-15.625-20.25-26.375 7.115-37.089.875-95.856zM19425.633 188.358c-3.15-29.669 27.765-33.942 42.886-49.788 21.816-22.999 8.083-105.504 50.09-111.065 40.047-5.309 51.372 56.365 77.165 83.611 22.997 24.87 59.762 39.579 48.691 77.242-9.927 33.006-53.25 16.323-83.019 43.139-17.985 16.943 2.779 67.11-42.924 67.493-52.161.383-78.282 12.355-97.385-12.443-20.294-26.309 10.874-38.127 4.496-98.189zM19805.89 188.358c-3.113-29.311 27.502-33.533 42.316-49.111 21.852-23.098 7.524-107.118 49.403-112.631 39.819-5.248 50.187 57.972 76.815 84.872 23.688 24.402 62.362 38.251 51.416 76.87-9.744 33.723-54.416 16.596-84.89 43.633-18.086 16.658 2.921 65.904-43.432 66.211-53.143.308-80.397 15.166-99.48-9.494-20.335-26.248 14.356-39.088 7.852-100.35zM20186.033 188.358c-3.078-28.986 27.263-33.16 41.798-48.495 21.885-23.188 7.015-108.586 48.778-114.056 39.611-5.192 49.108 59.434 76.497 86.019 24.316 23.977 64.728 37.043 53.895 76.532-9.578 34.376-55.477 16.844-86.592 44.083-18.179 16.399 3.05 64.806-43.895 65.045-54.036.239-82.322 17.723-101.386-6.811-20.372-26.193 17.526-39.964 10.905-102.317zM20566.05 188.358c-3.047-28.697 27.051-32.829 41.337-47.947 21.915-23.268 6.562-109.893 48.222-115.324 39.427-5.143 48.149 60.736 76.213 87.04 24.877 23.598 66.834 35.968 56.102 76.231-9.43 34.957-56.42 17.065-88.107 44.483-18.262 16.168 3.166 63.83-44.307 64.007-54.831.178-84.034 19.999-103.082-4.423-20.404-26.143 20.346-40.742 13.622-104.067zM20945.931 188.358c-3.021-28.446 26.866-32.542 40.938-47.473 21.94-23.337 6.17-111.024 47.74-116.421 39.267-5.1 47.319 61.862 75.968 87.924 25.361 23.27 68.657 35.037 58.012 75.97-9.302 35.46-57.238 17.256-89.419 44.829-18.333 15.969 3.266 62.985-44.663 63.11-55.519.124-85.516 21.968-104.55-2.357-20.433-26.1 22.787-41.416 15.974-105.582zM21325.665 188.358c-2.999-28.238 26.713-32.303 40.605-47.077 21.961-23.395 5.843-111.968 47.339-117.336 39.133-5.065 46.626 62.8 75.763 88.66 25.765 22.997 70.176 34.261 59.604 75.753-9.195 35.879-57.918 17.415-90.512 45.117-18.392 15.803 3.349 62.281-44.959 62.362-56.093.08-86.752 23.61-105.774-.634-20.457-26.065 24.821-41.978 17.934-106.845zM21705.244 188.358c-2.981-28.073 26.592-32.114 40.343-46.765 21.978-23.441 5.585-112.712 47.022-118.058 39.028-5.037 46.08 63.541 75.602 89.241 26.084 22.782 71.375 33.649 60.86 75.582-9.11 36.21-58.456 17.541-91.374 45.345-18.439 15.671 3.414 61.725-45.194 61.771-56.546.045-87.728 24.906-106.74.726-20.476-26.037 26.427-42.422 19.481-107.842zM22084.662 188.358c-2.968-27.954 26.505-31.978 40.153-46.54 21.991-23.473 5.4-113.249 46.794-118.579 38.952-5.017 45.685 64.076 75.485 89.661 26.314 22.626 72.241 33.207 61.768 75.458-9.049 36.449-58.844 17.632-91.997 45.509-18.473 15.577 3.461 61.324-45.364 61.344-56.872.021-88.432 25.843-107.437 1.708-20.489-26.016 27.587-42.741 20.598-108.561zM22463.915 188.358c-2.96-27.882 26.452-31.896 40.039-46.404 21.997-23.493 5.286-113.573 46.655-118.894 38.906-5.004 45.447 64.4 75.415 89.915 26.453 22.531 72.764 32.939 62.316 75.383-9.012 36.594-59.078 17.687-92.374 45.609-18.493 15.519 3.49 61.081-45.466 61.086-57.07.005-88.857 26.408-107.859 2.301-20.497-26.004 28.289-42.935 21.274-108.996zM22843 188.358c-2.958-27.858 26.434-31.868 40-46.358 22-23.5 5.249-113.683 46.609-119 38.891-5 45.367 64.508 75.391 90 26.5 22.5 72.94 32.85 62.5 75.358-9 36.642-59.157 17.705-92.5 45.642-18.5 15.5 3.5 61-45.5 61-57.136 0-89 26.597-108 2.5-20.5-26 28.523-43 21.5-109.142zM23222 188.358c-2.958-27.858 26.434-31.868 40-46.358 22-23.5 5.249-113.683 46.609-119 38.891-5 45.367 64.508 75.391 90 26.5 22.5 72.94 32.85 62.5 75.358-9 36.642-59.157 17.705-92.5 45.642-18.5 15.5 3.5 61-45.5 61-57.136 0-89 26.597-108 2.5-20.5-26 28.523-43 21.5-109.142zM23601 188.358c-2.958-27.858 26.434-31.868 40-46.358 22-23.5 5.249-113.683 46.609-119 38.891-5 45.367 64.508 75.391 90 26.5 22.5 72.94 32.85 62.5 75.358-9 36.642-59.157 17.705-92.5 45.642-18.5 15.5 3.5 61-45.5 61-57.136 0-89 26.597-108 2.5-20.5-26 28.523-43 21.5-109.142zM23980 188.358c-2.958-27.858 26.434-31.868 40-46.358 22-23.5 5.249-113.683 46.609-119 38.891-5 45.367 64.508 75.391 90 26.5 22.5 72.94 32.85 62.5 75.358-9 36.642-59.157 17.705-92.5 45.642-18.5 15.5 3.5 61-45.5 61-57.136 0-89 26.597-108 2.5-20.5-26 28.523-43 21.5-109.142zM24359 188.358c-2.958-27.858 26.434-31.868 40-46.358 22-23.5 5.249-113.683 46.609-119 38.891-5 45.367 64.508 75.391 90 26.5 22.5 72.94 32.85 62.5 75.358-9 36.642-59.157 17.705-92.5 45.642-18.5 15.5 3.5 61-45.5 61-57.136 0-89 26.597-108 2.5-20.5-26 28.523-43 21.5-109.142zM24738 188.358c-2.958-27.858 26.434-31.868 40-46.358 22-23.5 5.249-113.683 46.609-119 38.891-5 45.367 64.508 75.391 90 26.5 22.5 72.94 32.85 62.5 75.358-9 36.642-59.157 17.705-92.5 45.642-18.5 15.5 3.5 61-45.5 61-57.136 0-89 26.597-108 2.5-20.5-26 28.523-43 21.5-109.142zM25117 188.358c-2.958-27.858 26.434-31.868 40-46.358 22-23.5 5.249-113.683 46.609-119 38.891-5 45.367 64.508 75.391 90 26.5 22.5 72.94 32.85 62.5 75.358-9 36.642-59.157 17.705-92.5 45.642-18.5 15.5 3.5 61-45.5 61-57.136 0-89 26.597-108 2.5-20.5-26 28.523-43 21.5-109.142zM25496 188.358c-2.958-27.858 26.434-31.868 40-46.358 22-23.5 5.249-113.683 46.609-119 38.891-5 45.367 64.508 75.391 90 26.5 22.5 72.94 32.85 62.5 75.358-9 36.642-59.157 17.705-92.5 45.642-18.5 15.5 3.5 61-45.5 61-57.136 0-89 26.597-108 2.5-20.5-26 28.523-43 21.5-109.142zM25875 188.358c-2.958-27.858 26.434-31.868 40-46.358 22-23.5 5.249-113.683 46.609-119 38.891-5 45.367 64.508 75.391 90 26.5 22.5 72.94 32.85 62.5 75.358-9 36.642-59.157 17.705-92.5 45.642-18.5 15.5 3.5 61-45.5 61-57.136 0-89 26.597-108 2.5-20.5-26 28.523-43 21.5-109.142zM26254 188.358c-2.958-27.858 26.434-31.868 40-46.358 22-23.5 5.249-113.683 46.609-119 38.891-5 45.367 64.508 75.391 90 26.5 22.5 72.94 32.85 62.5 75.358-9 36.642-59.157 17.705-92.5 45.642-18.5 15.5 3.5 61-45.5 61-57.136 0-89 26.597-108 2.5-20.5-26 28.523-43 21.5-109.142zM26633 188.358c-2.958-27.858 26.434-31.868 40-46.358 22-23.5 5.249-113.683 46.609-119 38.891-5 45.367 64.508 75.391 90 26.5 22.5 72.94 32.85 62.5 75.358-9 36.642-59.157 17.705-92.5 45.642-18.5 15.5 3.5 61-45.5 61-57.136 0-89 26.597-108 2.5-20.5-26 28.523-43 21.5-109.142zM27012 188.358c-2.958-27.858 26.434-31.868 40-46.358 22-23.5 5.249-113.683 46.609-119 38.891-5 45.367 64.508 75.391 90 26.5 22.5 72.94 32.85 62.5 75.358-9 36.642-59.157 17.705-92.5 45.642-18.5 15.5 3.5 61-45.5 61-57.136 0-89 26.597-108 2.5-20.5-26 28.523-43 21.5-109.142zM27391 188.358c-2.958-27.858 26.434-31.868 40-46.358 22-23.5 5.249-113.683 46.609-119 38.891-5 45.367 64.508 75.391 90 26.5 22.5 72.94 32.85 62.5 75.358-9 36.642-59.157 17.705-92.5 45.642-18.5 15.5 3.5 61-45.5 61-57.136 0-89 26.597-108 2.5-20.5-26 28.523-43 21.5-109.142zM27770 188.358c-2.958-27.858 26.434-31.868 40-46.358 22-23.5 5.249-113.683 46.609-119 38.891-5 45.367 64.508 75.391 90 26.5 22.5 72.94 32.85 62.5 75.358-9 36.642-59.157 17.705-92.5 45.642-18.5 15.5 3.5 61-45.5 61-57.136 0-89 26.597-108 2.5-20.5-26 28.523-43 21.5-109.142zM28149 188.358c-2.958-27.858 26.434-31.868 40-46.358 22-23.5 5.249-113.683 46.609-119 38.891-5 45.367 64.508 75.391 90 26.5 22.5 72.94 32.85 62.5 75.358-9 36.642-59.157 17.705-92.5 45.642-18.5 15.5 3.5 61-45.5 61-57.136 0-89 26.597-108 2.5-20.5-26 28.523-43 21.5-109.142zM28528 188.358c-2.958-27.858 26.434-31.868 40-46.358 22-23.5 5.249-113.683 46.609-119 38.891-5 45.367 64.508 75.391 90 26.5 22.5 72.94 32.85 62.5 75.358-9 36.642-59.157 17.705-92.5 45.642-18.5 15.5 3.5 61-45.5 61-57.136 0-89 26.597-108 2.5-20.5-26 28.523-43 21.5-109.142zM28907 188.358c-2.958-27.858 26.434-31.868 40-46.358 22-23.5 5.249-113.683 46.609-119 38.891-5 45.367 64.508 75.391 90 26.5 22.5 72.94 32.85 62.5 75.358-9 36.642-59.157 17.705-92.5 45.642-18.5 15.5 3.5 61-45.5 61-57.136 0-89 26.597-108 2.5-20.5-26 28.523-43 21.5-109.142zM29286 188.358c-2.958-27.858 26.434-31.868 40-46.358 22-23.5 5.249-113.683 46.609-119 38.891-5 45.367 64.508 75.391 90 26.5 22.5 72.94 32.85 62.5 75.358-9 36.642-59.157 17.705-92.5 45.642-18.5 15.5 3.5 61-45.5 61-57.136 0-89 26.597-108 2.5-20.5-26 28.523-43 21.5-109.142zM29665 188.358c-2.958-27.858 26.434-31.868 40-46.358 22-23.5 5.249-113.683 46.609-119 38.891-5 45.367 64.508 75.391 90 26.5 22.5 72.94 32.85 62.5 75.358-9 36.642-59.157 17.705-92.5 45.642-18.5 15.5 3.5 61-45.5 61-57.136 0-89 26.597-108 2.5-20.5-26 28.523-43 21.5-109.142zM30044 188.358c-2.958-27.858 26.434-31.868 40-46.358 22-23.5 5.249-113.683 46.609-119 38.891-5 45.367 64.508 75.391 90 26.5 22.5 72.94 32.85 62.5 75.358-9 36.642-59.157 17.705-92.5 45.642-18.5 15.5 3.5 61-45.5 61-57.136 0-89 26.597-108 2.5-20.5-26 28.523-43 21.5-109.142zM30423 188.358c-2.958-27.858 26.434-31.868 40-46.358 22-23.5 5.249-113.683 46.609-119 38.891-5 45.367 64.508 75.391 90 26.5 22.5 72.94 32.85 62.5 75.358-9 36.642-59.157 17.705-92.5 45.642-18.5 15.5 3.5 61-45.5 61-57.136 0-89 26.597-108 2.5-20.5-26 28.523-43 21.5-109.142zM30802 188.358c-2.958-27.858 26.434-31.868 40-46.358 22-23.5 5.249-113.683 46.609-119 38.891-5 45.367 64.508 75.391 90 26.5 22.5 72.94 32.85 62.5 75.358-9 36.642-59.157 17.705-92.5 45.642-18.5 15.5 3.5 61-45.5 61-57.136 0-89 26.597-108 2.5-20.5-26 28.523-43 21.5-109.142zM31181 188.358c-2.958-27.858 26.434-31.868 40-46.358 22-23.5 5.249-113.683 46.609-119 38.891-5 45.367 64.508 75.391 90 26.5 22.5 72.94 32.85 62.5 75.358-9 36.642-59.157 17.705-92.5 45.642-18.5 15.5 3.5 61-45.5 61-57.136 0-89 26.597-108 2.5-20.5-26 28.523-43 21.5-109.142zM31560 188.358c-2.958-27.858 26.434-31.868 40-46.358 22-23.5 5.249-113.683 46.609-119 38.891-5 45.367 64.508 75.391 90 26.5 22.5 72.94 32.85 62.5 75.358-9 36.642-59.157 17.705-92.5 45.642-18.5 15.5 3.5 61-45.5 61-57.136 0-89 26.597-108 2.5-20.5-26 28.523-43 21.5-109.142zM31939 188.358c-2.958-27.858 26.434-31.868 40-46.358 22-23.5 5.249-113.683 46.609-119 38.891-5 45.367 64.508 75.391 90 26.5 22.5 72.94 32.85 62.5 75.358-9 36.642-59.157 17.705-92.5 45.642-18.5 15.5 3.5 61-45.5 61-57.136 0-89 26.597-108 2.5-20.5-26 28.523-43 21.5-109.142zM32318 188.358c-2.958-27.858 26.434-31.868 40-46.358 22-23.5 5.249-113.683 46.609-119 38.891-5 45.367 64.508 75.391 90 26.5 22.5 72.94 32.85 62.5 75.358-9 36.642-59.157 17.705-92.5 45.642-18.5 15.5 3.5 61-45.5 61-57.136 0-89 26.597-108 2.5-20.5-26 28.523-43 21.5-109.142zM32697 188.358c-2.958-27.858 26.434-31.868 40-46.358 22-23.5 5.249-113.683 46.609-119 38.891-5 45.367 64.508 75.391 90 26.5 22.5 72.94 32.85 62.5 75.358-9 36.642-59.157 17.705-92.5 45.642-18.5 15.5 3.5 61-45.5 61-57.136 0-89 26.597-108 2.5-20.5-26 28.523-43 21.5-109.142zM33076 188.358c-2.958-27.858 26.434-31.868 40-46.358 22-23.5 5.249-113.683 46.609-119 38.891-5 45.367 64.508 75.391 90 26.5 22.5 72.94 32.85 62.5 75.358-9 36.642-59.157 17.705-92.5 45.642-18.5 15.5 3.5 61-45.5 61-57.136 0-89 26.597-108 2.5-20.5-26 28.523-43 21.5-109.142zM33455 188.358c-2.958-27.858 26.434-31.868 40-46.358 22-23.5 5.249-113.683 46.609-119 38.891-5 45.367 64.508 75.391 90 26.5 22.5 72.94 32.85 62.5 75.358-9 36.642-59.157 17.705-92.5 45.642-18.5 15.5 3.5 61-45.5 61-57.136 0-89 26.597-108 2.5-20.5-26 28.523-43 21.5-109.142zM33834 188.358c-2.958-27.858 26.434-31.868 40-46.358 22-23.5 5.249-113.683 46.609-119 38.891-5 45.367 64.508 75.391 90 26.5 22.5 72.94 32.85 62.5 75.358-9 36.642-59.157 17.705-92.5 45.642-18.5 15.5 3.5 61-45.5 61-57.136 0-89 26.597-108 2.5-20.5-26 28.523-43 21.5-109.142zM34213 188.358c-2.958-27.858 26.434-31.868 40-46.358 22-23.5 5.249-113.683 46.609-119 38.891-5 45.367 64.508 75.391 90 26.5 22.5 72.94 32.85 62.5 75.358-9 36.642-59.157 17.705-92.5 45.642-18.5 15.5 3.5 61-45.5 61-57.136 0-89 26.597-108 2.5-20.5-26 28.523-43 21.5-109.142zM34591.835 188.358c-2.994-27.877 26.351-32.012 39.997-46.525 22.058-23.499 5.44-113.346 46.776-118.648 38.874-4.986 45.377 64.342 75.353 89.855 26.462 22.528 72.87 32.847 62.452 75.318-8.982 36.621-59.093 17.721-92.412 45.643-18.517 15.52 3.448 61.078-45.502 61.098-57.116.031-88.901 26.429-107.908 2.308-20.496-26.008 28.292-42.993 21.244-109.049zM34970.342 188.358c-3.1-27.932 26.102-32.442 39.989-47.024 22.23-23.495 6.011-112.338 47.275-117.596 38.821-4.946 45.406 63.846 75.239 89.42 26.347 22.615 72.662 32.841 62.309 75.2-8.929 36.557-58.904 17.77-92.151 45.647-18.565 15.577 3.293 61.312-45.505 61.388-57.058.126-88.607 25.928-107.634 1.736-20.484-26.033 27.599-42.973 20.478-108.771zM35348.527 188.358c-3.278-28.024 25.689-33.153 39.975-47.851 22.514-23.488 6.956-110.668 48.099-115.855 38.735-4.878 45.456 63.027 75.051 88.703 26.158 22.757 72.318 32.829 62.072 75.003-8.841 36.451-58.59 17.85-91.717 45.654-18.647 15.672 3.036 61.697-45.512 61.869-56.962.281-88.118 25.099-107.18.787-20.464-26.073 26.454-42.939 19.212-108.31zM35726.397 188.358c-3.522-28.151 25.119-34.137 39.957-48.995 22.908-23.478 8.264-108.358 49.241-113.445 38.615-4.784 45.524 61.892 74.791 87.709 25.895 22.954 71.84 32.813 61.743 74.731-8.719 36.305-58.156 17.962-91.117 45.664-18.759 15.802 2.68 62.231-45.521 62.534-56.828.497-87.442 23.951-106.552-.526-20.435-26.129 24.869-42.892 17.458-107.672zM36103.967 188.358c-3.832-28.313 24.395-35.384 39.933-50.444 23.406-23.467 9.921-105.432 50.688-110.392 38.462-4.665 45.61 60.454 74.46 86.449 25.562 23.204 71.236 32.793 61.328 74.387-8.565 36.121-57.606 18.103-90.357 45.675-18.902 15.969 2.229 62.908-45.533 63.379-56.658.77-86.586 22.495-105.756-2.19-20.4-26.201 22.861-42.832 15.237-106.864zM36481.25 188.358c-4.203-28.506 23.528-36.88 39.905-52.183 24.005-23.452 11.909-101.92 52.423-106.729 38.281-4.523 45.714 58.73 74.065 84.939 25.163 23.502 70.511 32.768 60.829 73.973-8.379 35.899-56.946 18.272-89.444 45.69-19.073 16.168 1.688 63.719-45.548 64.39-56.455 1.098-85.559 20.75-104.801-4.185-20.357-26.286 20.452-42.761 12.571-105.895zM36858.267 188.358c-4.633-28.729 22.526-38.609 39.872-54.192 24.697-23.436 14.207-97.863 54.429-102.497 38.07-4.358 45.833 56.737 73.607 83.193 24.702 23.849 69.673 32.741 60.252 73.496-8.165 35.642-56.183 18.467-88.39 45.706-19.27 16.399 1.063 64.658-45.564 65.559-56.22 1.477-84.372 18.735-103.698-6.49-20.307-26.385 17.668-42.678 9.492-104.775zM37235.039 188.358c-5.116-28.98 21.399-40.552 39.835-56.45 25.474-23.417 16.788-93.304 56.682-97.741 37.834-4.173 45.968 54.498 73.093 81.232 24.184 24.237 68.731 32.709 59.605 72.959-7.925 35.354-55.326 18.687-87.206 45.725-19.493 16.658.361 65.711-45.583 66.873-55.955 1.902-83.038 16.468-102.458-9.081-20.252-26.496 14.54-42.586 6.032-103.517zM37611.59 188.358c-5.646-29.256 20.161-42.687 39.794-58.931 26.328-23.396 19.625-88.294 59.159-92.515 37.574-3.969 46.116 52.037 72.528 79.077 23.615 24.664 67.697 32.674 58.893 72.369-7.66 35.037-54.384 18.929-85.904 45.745-19.737 16.943-.411 66.87-45.603 68.317-55.666 2.37-81.573 13.978-101.096-11.928-20.191-26.618 11.102-42.484 2.229-102.134zM37987.947 188.358c-6.218-29.554 18.826-44.99 39.75-61.608 27.25-23.375 22.687-82.887 61.832-86.875 37.293-3.75 46.275 49.381 71.918 76.75 23 25.125 66.58 32.637 58.125 71.733-7.375 34.696-53.368 19.189-84.5 45.767-20 17.25-1.243 68.12-45.625 69.875-55.352 2.875-79.99 11.291-99.625-15-20.125-26.75 7.392-42.375-1.875-100.642zM38364.139 188.358c-6.826-29.871 17.407-47.438 39.704-64.453 28.229-23.351 25.939-77.143 64.671-80.882 36.995-3.517 46.445 46.559 71.271 74.278 22.347 25.615 65.393 32.598 57.309 71.057-7.072 34.333-52.288 19.466-83.008 45.79-20.28 17.577-2.128 69.448-45.649 71.531-55.019 3.411-78.31 8.436-98.062-18.264-20.056-26.89 3.45-42.259-6.236-99.057zM38740.198 188.358c-7.464-30.202 15.919-50.003 39.654-67.433 29.255-23.327 29.347-71.124 67.646-74.604 36.683-3.273 46.623 43.603 70.592 71.689 21.663 26.127 64.151 32.556 56.454 70.348-6.754 33.952-51.156 19.756-81.444 45.815-20.573 17.918-3.055 70.839-45.673 73.265-54.67 3.973-76.549 5.444-96.426-21.685-19.982-27.036-.679-42.136-10.803-97.395zM39116.154 188.358c-8.124-30.545 14.38-52.656 39.604-70.517 30.317-23.302 32.873-64.897 70.724-68.108 36.36-3.02 46.806 40.544 69.89 69.01 20.955 26.658 62.864 32.513 55.569 69.615-6.426 33.559-49.986 20.056-79.827 45.84-20.876 18.272-4.014 72.279-45.698 75.06-54.309 4.554-74.727 2.349-94.732-25.224-19.906-27.188-4.952-42.009-15.53-95.676zM39492.041 188.358c-8.797-30.896 12.808-55.37 39.553-73.67 31.402-23.276 36.479-58.529 73.872-61.466 36.029-2.761 46.993 37.417 69.171 66.27 20.232 27.201 61.55 32.47 54.665 68.866-6.09 33.156-48.789 20.363-78.173 45.866-21.186 18.634-4.994 73.751-45.723 76.894-53.941 5.149-72.865-.815-93.001-28.841-19.829-27.343-9.321-41.881-20.364-93.919zM39867.894 188.357c-9.479-31.25 11.217-58.112 39.5-76.857 32.5-23.25 40.125-52.092 77.055-54.75 35.695-2.5 47.183 34.254 68.445 63.5 19.5 27.75 60.221 32.425 53.75 68.107-5.75 32.75-47.578 20.674-76.5 45.893-21.5 19-5.986 75.24-45.75 78.75-53.567 5.75-70.981-4.015-91.25-32.5-19.75-27.5-13.738-41.75-25.25-92.143zM40243.747 188.357c-10.16-31.604 9.627-60.855 39.448-80.045 33.598-23.224 43.77-45.654 80.237-48.034 35.362-2.239 47.374 31.091 67.72 60.73 18.768 28.299 58.89 32.38 52.835 67.349-5.41 32.344-46.368 20.985-74.827 45.919-21.814 19.366-6.979 76.728-45.777 80.606-53.195 6.351-69.098-7.215-89.499-36.159-19.671-27.657-18.156-41.619-30.137-90.366zM40619.635 188.357c-10.835-31.955 8.053-63.569 39.396-83.198 34.683-23.198 47.376-39.286 83.385-41.392 35.031-1.98 47.561 27.964 67.001 57.99 18.045 28.842 57.576 32.337 51.931 66.6-5.074 31.941-45.171 21.292-73.173 45.945-22.124 19.728-7.959 78.2-45.802 82.44-52.827 6.946-67.236-10.379-87.768-39.776-19.594-27.812-22.525-41.491-34.97-88.609zM40995.591 188.357c-11.494-32.298 6.515-66.222 39.346-86.282 35.745-23.173 50.902-33.059 86.463-34.896 34.708-1.727 47.744 24.905 66.299 55.311 17.337 29.373 56.289 32.294 51.046 65.867-4.746 31.548-44.001 21.592-71.556 45.97-22.427 20.082-8.918 79.64-45.827 84.235-52.466 7.527-65.414-13.474-86.074-43.315-19.519-27.964-26.798-41.364-39.697-86.89zM41371.649 188.357c-12.131-32.629 5.028-68.787 39.297-89.262 36.771-23.149 54.31-27.04 89.438-28.618 34.396-1.483 47.922 21.949 65.62 52.722 16.653 29.885 55.047 32.252 50.191 65.158-4.428 31.167-42.869 21.882-69.992 45.995-22.72 20.423-9.845 81.031-45.851 85.969-52.117 8.089-63.653-16.466-84.438-46.736-19.445-28.11-30.928-41.241-44.265-85.228zM41747.842 188.357c-12.74-32.946 3.608-71.234 39.25-92.107 37.75-23.125 57.562-21.296 92.277-22.625 34.098-1.25 48.092 19.127 64.973 50.25 16 30.375 53.86 32.213 49.375 64.482-4.125 30.804-41.789 22.159-68.5 46.018-23 20.75-10.73 82.359-45.875 87.625-51.784 8.625-61.972-19.321-82.875-50-19.375-28.25-34.87-41.125-48.625-83.643zM42124.199 188.357c-13.312-33.244 2.272-73.538 39.206-94.784 38.672-23.104 60.624-15.889 94.95-16.985 33.817-1.031 48.251 16.471 64.363 47.923 15.385 30.836 52.743 32.176 48.607 63.846-3.84 30.463-40.773 22.419-67.096 46.04-23.263 21.057-11.562 83.609-45.897 89.183-51.47 9.13-60.39-22.008-81.404-53.072-19.31-28.382-38.58-41.016-52.729-82.151zM42500.75 188.357c-13.843-33.52 1.035-75.673 39.165-97.265 39.526-23.083 63.461-10.879 97.427-11.759 33.557-.827 48.399 14.01 63.798 45.768 14.816 31.263 51.709 32.141 47.895 63.256-3.575 30.146-39.831 22.661-65.794 46.06-23.507 21.342-12.334 84.768-45.917 90.627-51.181 9.598-58.925-24.498-80.042-55.919-19.249-28.504-42.017-40.914-56.532-80.768zM42877.521 188.357c-14.324-33.771-.091-77.616 39.129-99.523 40.303-23.064 66.042-6.32 99.68-7.003 33.321-.642 48.534 11.771 63.284 43.807 14.298 31.651 50.767 32.109 47.248 62.719-3.335 29.858-38.974 22.881-64.61 46.079-23.73 21.601-13.036 85.821-45.936 91.941-50.916 10.023-57.591-26.765-78.802-58.51-19.193-28.615-45.145-40.822-59.993-79.51zM43254.538 188.357c-14.754-33.994-1.093-79.345 39.096-101.532 40.995-23.048 68.34-2.263 101.686-2.771 33.11-.477 48.653 9.778 62.826 42.061 13.837 31.998 49.929 32.082 46.671 62.242-3.121 29.601-38.211 23.076-63.556 46.095-23.927 21.832-13.661 86.76-45.952 93.11-50.681 10.402-56.404-28.78-77.699-60.815-19.143-28.714-47.929-40.739-63.072-78.39zM43631.822 188.357c-15.126-34.187-1.961-80.841 39.067-103.271 41.594-23.033 70.328 1.249 103.421.892 32.929-.335 48.757 8.054 62.431 40.551 13.438 32.296 49.204 32.057 46.172 61.828-2.935 29.379-37.551 23.245-62.643 46.11-24.098 22.031-14.202 87.571-45.967 94.121-50.478 10.73-55.377-30.525-76.744-62.81-19.101-28.799-50.338-40.668-65.737-77.421zM44009.391 188.357c-15.436-34.349-2.684-82.088 39.044-104.72 42.092-23.022 71.985 4.175 104.868 3.945 32.776-.216 48.843 6.616 62.1 39.291 13.105 32.546 48.6 32.037 45.757 61.484-2.781 29.195-37.001 23.386-61.883 46.121-24.241 22.198-14.653 88.248-45.979 94.966-50.308 11.003-54.521-31.981-75.948-64.474-19.065-28.871-52.347-40.608-67.959-76.613zM44387.262 188.357c-15.681-34.476-3.255-83.072 39.025-105.864 42.486-23.012 73.293 6.485 106.01 6.355 32.656-.122 48.911 5.481 61.84 38.297 12.842 32.743 48.122 32.021 45.428 61.212-2.659 29.049-36.567 23.498-61.283 46.131-24.353 22.328-15.009 88.782-45.988 95.631-50.174 11.219-53.845-33.129-75.32-65.787-19.037-28.927-53.932-40.561-69.712-75.975zM44765.447 188.357c-15.858-34.568-3.668-83.783 39.011-106.691 42.77-23.005 74.238 8.155 106.834 8.096 32.57-.054 48.961 4.662 61.652 37.58 12.653 32.885 47.778 32.009 45.191 61.015-2.571 28.943-36.253 23.578-60.849 46.138-24.435 22.423-15.266 89.167-45.995 96.112-50.078 11.374-53.356-33.958-74.866-66.736-19.016-28.967-55.077-40.527-70.978-75.514zM45143.954 188.357c-15.965-34.623-3.917-84.213 39.002-107.19 42.943-23.001 74.81 9.163 107.334 9.148 32.517-.014 48.99 4.166 61.538 37.145 12.538 32.972 47.57 32.003 45.048 60.897-2.518 28.879-36.064 23.627-60.588 46.142-24.483 22.48-15.421 89.401-45.998 96.402-50.02 11.469-53.062-34.459-74.592-67.308-19.005-28.992-55.769-40.507-71.744-75.236zM45522.789 188.357c-16-34.642-4-84.357 39-107.357s75 9.5 107.5 9.5 49 4 61.5 37 47.5 32 45 60.857c-2.5 28.858-36 23.643-60.5 46.143s-15.473 89.479-46 96.5c-50 11.5-52.963-34.627-74.5-67.5-19-29-56-40.5-72-75.143zM45901.789 188.357c-16-34.642-4-84.357 39-107.357s75 9.5 107.5 9.5 49 4 61.5 37 47.5 32 45 60.857c-2.5 28.858-36 23.643-60.5 46.143s-15.473 89.479-46 96.5c-50 11.5-52.963-34.627-74.5-67.5-19-29-56-40.5-72-75.143zM46280.789 188.357c-16-34.642-4-84.357 39-107.357s75 9.5 107.5 9.5 49 4 61.5 37 47.5 32 45 60.857c-2.5 28.858-36 23.643-60.5 46.143s-15.473 89.479-46 96.5c-50 11.5-52.963-34.627-74.5-67.5-19-29-56-40.5-72-75.143zM46659.789 188.357c-16-34.642-4-84.357 39-107.357s75 9.5 107.5 9.5 49 4 61.5 37 47.5 32 45 60.857c-2.5 28.858-36 23.643-60.5 46.143s-15.473 89.479-46 96.5c-50 11.5-52.963-34.627-74.5-67.5-19-29-56-40.5-72-75.143zM47038.789 188.357c-16-34.642-4-84.357 39-107.357s75 9.5 107.5 9.5 49 4 61.5 37 47.5 32 45 60.857c-2.5 28.858-36 23.643-60.5 46.143s-15.473 89.479-46 96.5c-50 11.5-52.963-34.627-74.5-67.5-19-29-56-40.5-72-75.143zM47417.789 188.357c-16-34.642-4-84.357 39-107.357s75 9.5 107.5 9.5 49 4 61.5 37 47.5 32 45 60.857c-2.5 28.858-36 23.643-60.5 46.143s-15.473 89.479-46 96.5c-50 11.5-52.963-34.627-74.5-67.5-19-29-56-40.5-72-75.143zM47796.789 188.357c-16-34.642-4-84.357 39-107.357s75 9.5 107.5 9.5 49 4 61.5 37 47.5 32 45 60.857c-2.5 28.858-36 23.643-60.5 46.143s-15.473 89.479-46 96.5c-50 11.5-52.963-34.627-74.5-67.5-19-29-56-40.5-72-75.143zM48175.789 188.357c-16-34.642-4-84.357 39-107.357s75 9.5 107.5 9.5 49 4 61.5 37 47.5 32 45 60.857c-2.5 28.858-36 23.643-60.5 46.143s-15.473 89.479-46 96.5c-50 11.5-52.963-34.627-74.5-67.5-19-29-56-40.5-72-75.143zM48554.789 188.357c-16-34.642-4-84.357 39-107.357s75 9.5 107.5 9.5 49 4 61.5 37 47.5 32 45 60.857c-2.5 28.858-36 23.643-60.5 46.143s-15.473 89.479-46 96.5c-50 11.5-52.963-34.627-74.5-67.5-19-29-56-40.5-72-75.143zM48933.789 188.357c-16-34.642-4-84.357 39-107.357s75 9.5 107.5 9.5 49 4 61.5 37 47.5 32 45 60.857c-2.5 28.858-36 23.643-60.5 46.143s-15.473 89.479-46 96.5c-50 11.5-52.963-34.627-74.5-67.5-19-29-56-40.5-72-75.143zM49312.789 188.357c-16-34.642-4-84.357 39-107.357s75 9.5 107.5 9.5 49 4 61.5 37 47.5 32 45 60.857c-2.5 28.858-36 23.643-60.5 46.143s-15.473 89.479-46 96.5c-50 11.5-52.963-34.627-74.5-67.5-19-29-56-40.5-72-75.143zM49691.789 188.357c-16-34.642-4-84.357 39-107.357s75 9.5 107.5 9.5 49 4 61.5 37 47.5 32 45 60.857c-2.5 28.858-36 23.643-60.5 46.143s-15.473 89.479-46 96.5c-50 11.5-52.963-34.627-74.5-67.5-19-29-56-40.5-72-75.143zM50070.789 188.357c-16-34.642-4-84.357 39-107.357s75 9.5 107.5 9.5 49 4 61.5 37 47.5 32 45 60.857c-2.5 28.858-36 23.643-60.5 46.143s-15.473 89.479-46 96.5c-50 11.5-52.963-34.627-74.5-67.5-19-29-56-40.5-72-75.143zM50449.789 188.357c-16-34.642-4-84.357 39-107.357s75 9.5 107.5 9.5 49 4 61.5 37 47.5 32 45 60.857c-2.5 28.858-36 23.643-60.5 46.143s-15.473 89.479-46 96.5c-50 11.5-52.963-34.627-74.5-67.5-19-29-56-40.5-72-75.143zM50828.789 188.357c-16-34.642-4-84.357 39-107.357s75 9.5 107.5 9.5 49 4 61.5 37 47.5 32 45 60.857c-2.5 28.858-36 23.643-60.5 46.143s-15.473 89.479-46 96.5c-50 11.5-52.963-34.627-74.5-67.5-19-29-56-40.5-72-75.143zM51207.789 188.357c-16-34.642-4-84.357 39-107.357s75 9.5 107.5 9.5 49 4 61.5 37 47.5 32 45 60.857c-2.5 28.858-36 23.643-60.5 46.143s-15.473 89.479-46 96.5c-50 11.5-52.963-34.627-74.5-67.5-19-29-56-40.5-72-75.143zM51586.789 188.357c-16-34.642-4-84.357 39-107.357s75 9.5 107.5 9.5 49 4 61.5 37 47.5 32 45 60.857c-2.5 28.858-36 23.643-60.5 46.143s-15.473 89.479-46 96.5c-50 11.5-52.963-34.627-74.5-67.5-19-29-56-40.5-72-75.143zM51965.789 188.357c-16-34.642-4-84.357 39-107.357s75 9.5 107.5 9.5 49 4 61.5 37 47.5 32 45 60.857c-2.5 28.858-36 23.643-60.5 46.143s-15.473 89.479-46 96.5c-50 11.5-52.963-34.627-74.5-67.5-19-29-56-40.5-72-75.143zM52344.789 188.357c-16-34.642-4-84.357 39-107.357s75 9.5 107.5 9.5 49 4 61.5 37 47.5 32 45 60.857c-2.5 28.858-36 23.643-60.5 46.143s-15.473 89.479-46 96.5c-50 11.5-52.963-34.627-74.5-67.5-19-29-56-40.5-72-75.143zM52723.789 188.357c-16-34.642-4-84.357 39-107.357s75 9.5 107.5 9.5 49 4 61.5 37 47.5 32 45 60.857c-2.5 28.858-36 23.643-60.5 46.143s-15.473 89.479-46 96.5c-50 11.5-52.963-34.627-74.5-67.5-19-29-56-40.5-72-75.143zM53102.789 188.357c-16-34.642-4-84.357 39-107.357s75 9.5 107.5 9.5 49 4 61.5 37 47.5 32 45 60.857c-2.5 28.858-36 23.643-60.5 46.143s-15.473 89.479-46 96.5c-50 11.5-52.963-34.627-74.5-67.5-19-29-56-40.5-72-75.143zM53481.789 188.357c-16-34.642-4-84.357 39-107.357s75 9.5 107.5 9.5 49 4 61.5 37 47.5 32 45 60.857c-2.5 28.858-36 23.643-60.5 46.143s-15.473 89.479-46 96.5c-50 11.5-52.963-34.627-74.5-67.5-19-29-56-40.5-72-75.143zM53860.789 188.357c-16-34.642-4-84.357 39-107.357s75 9.5 107.5 9.5 49 4 61.5 37 47.5 32 45 60.857c-2.5 28.858-36 23.643-60.5 46.143s-15.473 89.479-46 96.5c-50 11.5-52.963-34.627-74.5-67.5-19-29-56-40.5-72-75.143zM54239.789 188.357c-16-34.642-4-84.357 39-107.357s75 9.5 107.5 9.5 49 4 61.5 37 47.5 32 45 60.857c-2.5 28.858-36 23.643-60.5 46.143s-15.473 89.479-46 96.5c-50 11.5-52.963-34.627-74.5-67.5-19-29-56-40.5-72-75.143zM54618.789 188.357c-16-34.642-4-84.357 39-107.357s75 9.5 107.5 9.5 49 4 61.5 37 47.5 32 45 60.857c-2.5 28.858-36 23.643-60.5 46.143s-15.473 89.479-46 96.5c-50 11.5-52.963-34.627-74.5-67.5-19-29-56-40.5-72-75.143zM54997.789 188.357c-16-34.642-4-84.357 39-107.357s75 9.5 107.5 9.5 49 4 61.5 37 47.5 32 45 60.857c-2.5 28.858-36 23.643-60.5 46.143s-15.473 89.479-46 96.5c-50 11.5-52.963-34.627-74.5-67.5-19-29-56-40.5-72-75.143zM55376.789 188.357c-16-34.642-4-84.357 39-107.357s75 9.5 107.5 9.5 49 4 61.5 37 47.5 32 45 60.857c-2.5 28.858-36 23.643-60.5 46.143s-15.473 89.479-46 96.5c-50 11.5-52.963-34.627-74.5-67.5-19-29-56-40.5-72-75.143zM55755.789 188.357c-16-34.642-4-84.357 39-107.357s75 9.5 107.5 9.5 49 4 61.5 37 47.5 32 45 60.857c-2.5 28.858-36 23.643-60.5 46.143s-15.473 89.479-46 96.5c-50 11.5-52.963-34.627-74.5-67.5-19-29-56-40.5-72-75.143zM56134.789 188.357c-16-34.642-4-84.357 39-107.357s75 9.5 107.5 9.5 49 4 61.5 37 47.5 32 45 60.857c-2.5 28.858-36 23.643-60.5 46.143s-15.473 89.479-46 96.5c-50 11.5-52.963-34.627-74.5-67.5-19-29-56-40.5-72-75.143zM56513.789 188.357c-16-34.642-4-84.357 39-107.357s75 9.5 107.5 9.5 49 4 61.5 37 47.5 32 45 60.857c-2.5 28.858-36 23.643-60.5 46.143s-15.473 89.479-46 96.5c-50 11.5-52.963-34.627-74.5-67.5-19-29-56-40.5-72-75.143zM56892.789 188.357c-16-34.642-4-84.357 39-107.357s75 9.5 107.5 9.5 49 4 61.5 37 47.5 32 45 60.857c-2.5 28.858-36 23.643-60.5 46.143s-15.473 89.479-46 96.5c-50 11.5-52.963-34.627-74.5-67.5-19-29-56-40.5-72-75.143zM57271.869 188.357c-15.967-34.647-3.899-84.241 39.041-107.236 42.94-22.994 74.847 9.272 107.38 9.254 32.533-.018 49.07 4.058 61.562 37.06 12.491 33.003 47.394 32.092 44.864 60.922-2.53 28.831-35.985 23.608-60.462 46.108-24.476 22.5-15.43 89.483-45.964 96.489-49.954 11.474-52.919-34.648-74.451-67.506-19.001-28.996-56.003-40.443-71.97-75.091zM57651.109 188.357c-15.867-34.664-3.597-83.893 39.164-106.872s74.388 8.587 107.019 8.516c32.632-.071 49.279 4.23 61.746 37.241 12.468 33.011 47.08 32.366 44.459 61.115-2.62 28.75-35.939 23.505-60.347 46.005-24.407 22.5-15.303 89.492-45.858 96.456-49.814 11.395-52.788-34.713-74.303-67.527-19.005-28.984-56.012-40.269-71.88-74.934zM58030.507 188.357c-15.704-34.691-3.098-83.319 39.367-106.271 42.464-22.953 73.629 7.456 106.423 7.297 32.793-.159 49.624 4.514 62.05 37.538 12.427 33.025 46.558 32.82 43.789 61.436-2.769 28.617-35.865 23.334-60.157 45.834-24.292 22.5-15.095 89.507-45.682 96.402-49.584 11.264-52.573-34.82-74.06-67.561-19.012-28.964-56.027-39.983-71.73-74.675zM58410.056 188.357c-15.476-34.728-2.405-82.523 39.649-105.44 42.054-22.916 72.579 5.891 105.598 5.61 33.019-.281 50.102 4.908 62.472 37.951 12.371 33.043 45.836 33.448 42.861 61.879-2.976 28.432-35.763 23.097-59.895 45.597-24.133 22.5-14.804 89.529-45.438 96.327-49.265 11.083-52.273-34.968-73.722-67.608-19.022-28.936-56.048-39.587-71.525-74.316zM58789.753 188.357c-15.189-34.776-1.529-81.515 40.005-104.386 41.534-22.87 71.249 3.907 104.552 3.472 33.304-.436 50.709 5.406 63.008 38.473s44.921 34.244 41.684 62.441c-3.237 28.198-35.632 22.796-59.562 45.296-23.931 22.5-14.437 89.557-45.13 96.232-48.861 10.854-51.893-35.154-73.294-67.667-19.033-28.9-56.074-39.084-71.263-73.861zM59169.589 188.357c-14.844-34.833-.477-80.306 40.432-103.121 40.91-22.816 69.653 1.526 103.299.906 33.645-.621 51.435 6.005 63.648 39.1 12.214 33.096 43.824 35.199 40.273 63.115-3.55 27.917-35.475 22.436-59.163 44.936-23.688 22.5-13.995 89.59-44.758 96.118-48.377 10.579-51.439-35.379-72.782-67.739-19.047-28.857-56.105-38.481-70.949-73.315zM59549.554 188.357c-14.444-34.899.738-78.908 40.927-101.66 40.189-22.752 67.808-1.224 101.849-2.059 34.041-.834 52.275 6.697 64.39 39.826 12.114 33.128 42.555 36.302 38.643 63.893-3.913 27.592-35.294 22.019-58.702 44.519-23.409 22.5-13.486 89.629-44.331 95.987-47.817 10.261-50.913-35.638-72.188-67.821-19.064-28.808-56.143-37.785-70.588-72.685zM59929.64 188.357c-13.997-34.973 2.103-77.338 41.481-100.019 39.379-22.68 65.736-4.313 100.221-5.389 34.485-1.075 53.219 7.474 65.222 40.64 12.004 33.165 41.131 37.542 36.811 64.768-4.32 27.227-35.09 21.552-58.184 44.052-23.094 22.5-12.913 89.671-43.849 95.838-47.188 9.905-50.322-35.93-71.522-67.914-19.083-28.752-56.184-37.002-70.18-71.976zM60309.832 188.357c-13.504-35.054 3.604-75.612 42.092-98.214 38.488-22.603 63.458-7.71 98.431-9.05 34.973-1.34 54.256 8.328 66.137 41.534 11.882 33.206 39.565 38.905 34.798 65.73-4.767 26.826-34.866 21.037-57.614 43.537-22.749 22.5-12.284 89.719-43.321 95.676-46.496 9.512-49.673-36.25-70.79-68.015-19.103-28.691-56.229-36.143-69.733-71.198zM60690.119 188.357c-12.972-35.142 5.223-73.75 42.75-96.267 37.528-22.518 61-11.375 96.5-13s55.375 9.25 67.125 42.5c11.75 33.249 37.875 40.374 32.625 66.767-5.25 26.394-34.625 20.482-57 42.982s-11.605 89.77-42.75 95.5c-45.75 9.09-48.972-36.595-70-68.125-19.125-28.625-56.277-35.214-69.25-70.357zM61070.486 188.357c-12.408-35.235 6.943-71.772 43.45-94.199 36.506-22.428 58.388-15.269 94.448-17.197 36.06-1.928 56.564 10.229 68.174 43.526 11.61 33.297 36.08 41.937 30.317 67.87-5.763 25.934-34.369 19.893-56.347 42.393-21.979 22.5-10.884 89.824-42.144 95.313-44.957 8.64-48.228-36.962-69.161-68.241-19.148-28.555-56.329-34.229-68.737-69.465zM61450.919 188.357c-11.816-35.333 8.745-69.699 44.182-92.032 35.437-22.333 55.653-19.348 92.299-21.594 36.645-2.246 57.81 11.255 69.273 44.601 11.464 33.345 34.199 43.574 27.898 69.025-6.3 25.452-34.1 19.275-55.663 41.775-21.563 22.5-10.127 89.881-41.508 95.118-44.127 8.169-47.448-37.347-68.282-68.363-19.172-28.482-56.383-33.196-68.199-68.53zM61831.401 188.357c-11.204-35.434 10.61-67.554 44.941-89.789 34.33-22.236 52.821-23.57 90.074-26.144 37.252-2.575 59.099 12.317 70.411 45.713 11.312 33.396 32.252 45.267 25.396 70.22-6.857 24.954-33.822 18.636-54.956 41.136-21.133 22.5-9.345 89.94-40.851 94.916-43.268 7.681-46.641-37.745-67.371-68.49-19.198-28.406-56.44-32.127-67.644-67.562zM62211.917 188.357c-10.578-35.537 12.517-65.361 45.716-87.496 33.199-22.136 49.926-27.886 87.799-30.797 37.873-2.91 60.418 13.403 71.574 46.851 11.157 33.447 30.263 46.999 22.837 71.442-7.425 24.445-33.537 17.983-54.231 40.483-20.695 22.5-8.545 89.999-40.18 94.708-42.388 7.183-45.816-38.151-66.44-68.619-19.224-28.328-56.497-31.034-67.075-66.572zM62592.449 188.357c-9.945-35.642 14.445-63.144 46.5-85.178 32.055-22.035 47-32.25 85.5-35.5s61.75 14.5 72.75 48 28.25 48.75 20.25 72.678c-8 23.929-33.25 17.322-53.5 39.822-20.25 22.5-7.736 90.061-39.5 94.499-41.5 6.68-44.981-38.563-65.5-68.749-19.25-28.25-56.555-29.929-66.5-65.572zM62972.981 188.358c-9.312-35.748 16.374-60.927 47.284-82.861 30.911-21.934 44.074-36.614 83.201-40.203 39.127-3.59 63.082 15.597 73.926 49.149 10.843 33.553 26.237 50.501 17.663 73.915-8.575 23.413-32.963 16.66-52.769 39.16-19.805 22.5-6.928 90.122-38.82 94.291-40.612 6.175-44.147-38.975-64.56-68.88-19.276-28.172-56.612-28.824-65.925-64.571zM63353.497 188.358c-8.686-35.851 18.281-58.734 48.059-80.568 29.78-21.834 41.179-40.93 80.926-44.856 39.748-3.925 64.401 16.683 75.089 50.287 10.688 33.604 24.248 52.233 15.104 75.137-9.143 22.904-32.678 16.007-52.044 38.507-19.367 22.5-6.128 90.181-38.149 94.083-39.732 5.677-43.322-39.381-63.629-69.009-19.302-28.094-56.669-27.731-65.356-63.581zM63733.979 188.358c-8.074-35.952 20.146-56.589 48.818-78.325 28.673-21.737 38.347-45.152 78.701-49.406 40.355-4.254 65.69 17.745 76.227 51.399 10.536 33.655 22.301 53.926 12.602 76.332-9.7 22.406-32.4 15.368-51.337 37.868-18.937 22.5-5.346 90.24-37.492 93.881-38.873 5.189-42.515-39.779-62.718-69.136-19.328-28.018-56.726-26.662-64.801-62.613zM64114.412 188.358c-7.482-36.05 21.948-54.516 49.55-76.158 27.604-21.642 35.612-49.231 76.552-53.803 40.94-4.572 66.936 18.771 77.326 52.474 10.39 33.703 20.42 55.563 10.183 77.487-10.237 21.924-32.131 14.75-50.653 37.25-18.521 22.5-4.589 90.297-36.856 93.686-38.043 4.718-41.735-40.164-61.839-69.258-19.352-27.945-56.78-25.629-64.263-61.678zM64494.779 188.358c-6.918-36.143 23.668-52.538 50.25-74.089 26.583-21.553 33-53.125 74.5-58s68.125 19.75 78.375 53.5c10.25 33.749 18.625 57.124 7.875 78.589-10.75 21.464-31.875 14.16-50 36.66-18.125 22.5-3.868 90.352-36.25 93.5-37.25 4.268-40.991-40.531-61-69.375-19.375-27.875-56.832-24.643-63.75-60.785zM64875.066 188.358c-6.386-36.231 25.287-50.676 50.908-72.143 25.622-21.467 30.542-56.79 72.569-61.95 42.027-5.16 69.244 20.672 79.363 54.466 10.118 33.794 16.935 58.595 5.702 79.627-11.233 21.032-31.634 13.606-49.386 36.106-17.751 22.5-3.189 90.402-35.679 93.323-36.504 3.846-40.29-40.876-60.21-69.484-19.397-27.809-56.88-23.715-63.267-59.945zM65255.258 188.358c-5.893-36.312 26.788-48.95 51.519-70.338 24.731-21.39 28.264-60.187 70.779-65.611 42.515-5.425 70.281 21.526 80.278 55.36 9.996 33.835 15.369 59.958 3.689 80.589s-31.41 13.091-48.816 35.591c-17.406 22.5-2.56 90.45-35.151 93.161-35.812 3.453-39.641-41.196-59.478-69.585-19.417-27.748-56.925-22.856-62.82-59.167zM65635.344 188.358c-5.446-36.386 28.153-47.38 52.073-68.697 23.921-21.318 26.192-63.276 69.151-68.941 42.959-5.666 71.225 22.303 81.11 56.174 9.886 33.872 13.945 61.198 1.857 81.464-12.087 20.266-31.206 12.624-48.298 35.124-17.091 22.5-1.987 90.492-34.669 93.012-35.183 3.097-39.05-41.488-58.812-69.678-19.436-27.692-56.966-22.073-62.412-58.458zM66015.309 188.358c-5.046-36.452 29.368-45.982 52.568-67.236 23.2-21.254 24.347-66.026 67.701-71.906 43.355-5.879 72.065 22.995 81.852 56.9 9.786 33.904 12.676 62.301.227 82.242-12.45 19.941-31.025 12.207-47.837 34.707-16.812 22.5-1.478 90.531-34.242 92.881-34.623 2.779-38.524-41.747-58.218-69.76-19.453-27.643-57.004-21.377-62.051-57.828zM66395.145 188.358c-4.701-36.509 30.42-44.773 52.995-65.971 22.576-21.2 22.751-68.407 66.448-74.472 43.696-6.064 72.791 23.594 82.492 57.527 9.701 33.933 11.579 63.256-1.184 82.916-12.763 19.66-30.868 11.847-47.438 34.347-16.569 22.5-1.036 90.564-33.87 92.767-34.139 2.504-38.07-41.972-57.706-69.832-19.467-27.6-57.035-20.774-61.737-57.282zM66774.842 188.358c-4.414-36.557 31.296-43.765 53.351-64.917 22.056-21.154 21.421-70.391 65.402-76.61 43.981-6.219 73.398 24.092 83.028 58.049 9.629 33.957 10.664 64.052-2.361 83.478-13.024 19.426-30.737 11.546-47.105 34.046-16.367 22.5-.669 90.592-33.562 92.672-33.735 2.275-37.69-42.158-57.278-69.891-19.478-27.564-57.061-20.271-61.475-56.827zM67154.391 188.358c-4.186-36.594 31.989-42.969 53.633-64.086 21.646-21.117 20.371-71.956 64.577-78.297 44.207-6.341 73.876 24.486 83.45 58.462 9.573 33.975 9.942 64.68-3.289 83.921s-30.635 11.309-46.843 33.809c-16.208 22.5-.378 90.614-33.318 92.597-33.416 2.094-37.39-42.306-56.94-69.938-19.488-27.536-57.082-19.875-61.27-56.468zM67533.789 188.358c-4.023-36.621 32.488-42.395 53.836-63.485 21.349-21.091 19.612-73.087 63.981-79.516 44.368-6.429 74.221 24.77 83.754 58.759 9.532 33.989 9.42 65.134-3.959 84.242-13.38 19.108-30.561 11.138-46.653 33.638-16.093 22.5-.17 90.629-33.142 92.543-33.186 1.963-37.175-42.413-56.697-69.972-19.495-27.516-57.097-19.589-61.12-56.209zM67913.029 188.358c-3.923-36.638 32.79-42.047 53.959-63.121 21.17-21.076 19.153-73.772 63.62-80.254 44.467-6.482 74.43 24.942 83.938 58.94 9.509 33.997 9.106 65.408-4.364 84.435-13.47 19.027-30.515 11.035-46.538 33.535-16.024 22.5-.043 90.638-33.036 92.51-33.046 1.884-37.044-42.478-56.549-69.993-19.499-27.504-57.106-19.415-61.03-56.052zM68292.109 188.358c-3.89-36.643 32.891-41.931 54-63 21.11-21.07 19-74 63.5-80.5s74.5 25 84 59 9 65.5-4.5 84.5-30.5 11-46.5 33.5 0 90.642-33 92.499c-33 1.858-37-42.499-56.5-69.999-19.5-27.5-57.109-19.358-61-56zM68671.109 188.358c-3.89-36.643 32.891-41.931 54-63 21.11-21.07 19-74 63.5-80.5s74.5 25 84 59 9 65.5-4.5 84.5-30.5 11-46.5 33.5 0 90.642-33 92.499c-33 1.858-37-42.499-56.5-69.999-19.5-27.5-57.109-19.358-61-56zM69050.109 188.358c-3.89-36.643 32.891-41.931 54-63 21.11-21.07 19-74 63.5-80.5s74.5 25 84 59 9 65.5-4.5 84.5-30.5 11-46.5 33.5 0 90.642-33 92.499c-33 1.858-37-42.499-56.5-69.999-19.5-27.5-57.109-19.358-61-56zM69429.109 188.358c-3.89-36.643 32.891-41.931 54-63 21.11-21.07 19-74 63.5-80.5s74.5 25 84 59 9 65.5-4.5 84.5-30.5 11-46.5 33.5 0 90.642-33 92.499c-33 1.858-37-42.499-56.5-69.999-19.5-27.5-57.109-19.358-61-56zM69808.109 188.358c-3.89-36.643 32.891-41.931 54-63 21.11-21.07 19-74 63.5-80.5s74.5 25 84 59 9 65.5-4.5 84.5-30.5 11-46.5 33.5 0 90.642-33 92.499c-33 1.858-37-42.499-56.5-69.999-19.5-27.5-57.109-19.358-61-56zM70187.109 188.358c-3.89-36.643 32.891-41.931 54-63 21.11-21.07 19-74 63.5-80.5s74.5 25 84 59 9 65.5-4.5 84.5-30.5 11-46.5 33.5 0 90.642-33 92.499c-33 1.858-37-42.499-56.5-69.999-19.5-27.5-57.109-19.358-61-56zM70566.109 188.358c-3.89-36.643 32.891-41.931 54-63 21.11-21.07 19-74 63.5-80.5s74.5 25 84 59 9 65.5-4.5 84.5-30.5 11-46.5 33.5 0 90.642-33 92.499c-33 1.858-37-42.499-56.5-69.999-19.5-27.5-57.109-19.358-61-56zM70945.109 188.358c-3.89-36.643 32.891-41.931 54-63 21.11-21.07 19-74 63.5-80.5s74.5 25 84 59 9 65.5-4.5 84.5-30.5 11-46.5 33.5 0 90.642-33 92.499c-33 1.858-37-42.499-56.5-69.999-19.5-27.5-57.109-19.358-61-56zM71324.109 188.358c-3.89-36.643 32.891-41.931 54-63 21.11-21.07 19-74 63.5-80.5s74.5 25 84 59 9 65.5-4.5 84.5-30.5 11-46.5 33.5 0 90.642-33 92.499c-33 1.858-37-42.499-56.5-69.999-19.5-27.5-57.109-19.358-61-56zM71703.109 188.358c-3.89-36.643 32.891-41.931 54-63 21.11-21.07 19-74 63.5-80.5s74.5 25 84 59 9 65.5-4.5 84.5-30.5 11-46.5 33.5 0 90.642-33 92.499c-33 1.858-37-42.499-56.5-69.999-19.5-27.5-57.109-19.358-61-56zM72082.109 188.358c-3.89-36.643 32.891-41.931 54-63 21.11-21.07 19-74 63.5-80.5s74.5 25 84 59 9 65.5-4.5 84.5-30.5 11-46.5 33.5 0 90.642-33 92.499c-33 1.858-37-42.499-56.5-69.999-19.5-27.5-57.109-19.358-61-56zM72461.109 188.358c-3.89-36.643 32.891-41.931 54-63 21.11-21.07 19-74 63.5-80.5s74.5 25 84 59 9 65.5-4.5 84.5-30.5 11-46.5 33.5 0 90.642-33 92.499c-33 1.858-37-42.499-56.5-69.999-19.5-27.5-57.109-19.358-61-56zM72840.109 188.358c-3.89-36.643 32.891-41.931 54-63 21.11-21.07 19-74 63.5-80.5s74.5 25 84 59 9 65.5-4.5 84.5-30.5 11-46.5 33.5 0 90.642-33 92.499c-33 1.858-37-42.499-56.5-69.999-19.5-27.5-57.109-19.358-61-56zM73219.109 188.358c-3.89-36.643 32.891-41.931 54-63 21.11-21.07 19-74 63.5-80.5s74.5 25 84 59 9 65.5-4.5 84.5-30.5 11-46.5 33.5 0 90.642-33 92.499c-33 1.858-37-42.499-56.5-69.999-19.5-27.5-57.109-19.358-61-56zM73598.109 188.358c-3.89-36.643 32.891-41.931 54-63 21.11-21.07 19-74 63.5-80.5s74.5 25 84 59 9 65.5-4.5 84.5-30.5 11-46.5 33.5 0 90.642-33 92.499c-33 1.858-37-42.499-56.5-69.999-19.5-27.5-57.109-19.358-61-56zM73977.109 188.358c-3.89-36.643 32.891-41.931 54-63 21.11-21.07 19-74 63.5-80.5s74.5 25 84 59 9 65.5-4.5 84.5-30.5 11-46.5 33.5 0 90.642-33 92.499c-33 1.858-37-42.499-56.5-69.999-19.5-27.5-57.109-19.358-61-56zM74356.109 188.358c-3.89-36.643 32.891-41.931 54-63 21.11-21.07 19-74 63.5-80.5s74.5 25 84 59 9 65.5-4.5 84.5-30.5 11-46.5 33.5 0 90.642-33 92.499c-33 1.858-37-42.499-56.5-69.999-19.5-27.5-57.109-19.358-61-56zM74735.109 188.358c-3.89-36.643 32.891-41.931 54-63 21.11-21.07 19-74 63.5-80.5s74.5 25 84 59 9 65.5-4.5 84.5-30.5 11-46.5 33.5 0 90.642-33 92.499c-33 1.858-37-42.499-56.5-69.999-19.5-27.5-57.109-19.358-61-56zM75114.109 188.358c-3.89-36.643 32.891-41.931 54-63 21.11-21.07 19-74 63.5-80.5s74.5 25 84 59 9 65.5-4.5 84.5-30.5 11-46.5 33.5 0 90.642-33 92.499c-33 1.858-37-42.499-56.5-69.999-19.5-27.5-57.109-19.358-61-56zM75493.109 188.358c-3.89-36.643 32.891-41.931 54-63 21.11-21.07 19-74 63.5-80.5s74.5 25 84 59 9 65.5-4.5 84.5-30.5 11-46.5 33.5 0 90.642-33 92.499c-33 1.858-37-42.499-56.5-69.999-19.5-27.5-57.109-19.358-61-56zM75872.109 188.358c-3.89-36.643 32.891-41.931 54-63 21.11-21.07 19-74 63.5-80.5s74.5 25 84 59 9 65.5-4.5 84.5-30.5 11-46.5 33.5 0 90.642-33 92.499c-33 1.858-37-42.499-56.5-69.999-19.5-27.5-57.109-19.358-61-56zM76251.109 188.358c-3.89-36.643 32.891-41.931 54-63 21.11-21.07 19-74 63.5-80.5s74.5 25 84 59 9 65.5-4.5 84.5-30.5 11-46.5 33.5 0 90.642-33 92.499c-33 1.858-37-42.499-56.5-69.999-19.5-27.5-57.109-19.358-61-56zM76630.109 188.358c-3.89-36.643 32.891-41.931 54-63 21.11-21.07 19-74 63.5-80.5s74.5 25 84 59 9 65.5-4.5 84.5-30.5 11-46.5 33.5 0 90.642-33 92.499c-33 1.858-37-42.499-56.5-69.999-19.5-27.5-57.109-19.358-61-56zM77009.109 188.358c-3.89-36.643 32.891-41.931 54-63 21.11-21.07 19-74 63.5-80.5s74.5 25 84 59 9 65.5-4.5 84.5-30.5 11-46.5 33.5 0 90.642-33 92.499c-33 1.858-37-42.499-56.5-69.999-19.5-27.5-57.109-19.358-61-56zM77388.109 188.358c-3.89-36.643 32.891-41.931 54-63 21.11-21.07 19-74 63.5-80.5s74.5 25 84 59 9 65.5-4.5 84.5-30.5 11-46.5 33.5 0 90.642-33 92.499c-33 1.858-37-42.499-56.5-69.999-19.5-27.5-57.109-19.358-61-56zM77767.109 188.358c-3.89-36.643 32.891-41.931 54-63 21.11-21.07 19-74 63.5-80.5s74.5 25 84 59 9 65.5-4.5 84.5-30.5 11-46.5 33.5 0 90.642-33 92.499c-33 1.858-37-42.499-56.5-69.999-19.5-27.5-57.109-19.358-61-56zM78146.109 188.358c-3.89-36.643 32.891-41.931 54-63 21.11-21.07 19-74 63.5-80.5s74.5 25 84 59 9 65.5-4.5 84.5-30.5 11-46.5 33.5 0 90.642-33 92.499c-33 1.858-37-42.499-56.5-69.999-19.5-27.5-57.109-19.358-61-56zM78525.109 188.358c-3.89-36.643 32.891-41.931 54-63 21.11-21.07 19-74 63.5-80.5s74.5 25 84 59 9 65.5-4.5 84.5-30.5 11-46.5 33.5 0 90.642-33 92.499c-33 1.858-37-42.499-56.5-69.999-19.5-27.5-57.109-19.358-61-56zM78904.109 188.358c-3.89-36.643 32.891-41.931 54-63 21.11-21.07 19-74 63.5-80.5s74.5 25 84 59 9 65.5-4.5 84.5-30.5 11-46.5 33.5 0 90.642-33 92.499c-33 1.858-37-42.499-56.5-69.999-19.5-27.5-57.109-19.358-61-56zM79283.109 188.358c-3.89-36.643 32.891-41.931 54-63 21.11-21.07 19-74 63.5-80.5s74.5 25 84 59 9 65.5-4.5 84.5-30.5 11-46.5 33.5 0 90.642-33 92.499c-33 1.858-37-42.499-56.5-69.999-19.5-27.5-57.109-19.358-61-56zM79662.109 188.358c-3.89-36.643 32.891-41.931 54-63 21.11-21.07 19-74 63.5-80.5s74.5 25 84 59 9 65.5-4.5 84.5-30.5 11-46.5 33.5 0 90.642-33 92.499c-33 1.858-37-42.499-56.5-69.999-19.5-27.5-57.109-19.358-61-56z" fill="#02bdb2" fill-opacity=".4" stroke="#02bdb2" stroke-width="2" stroke-linecap="round" stroke-linejoin="round"/></svg>