<svg xmlns="http://www.w3.org/2000/svg" width="188" height="70" viewBox="0 0 188 70">
  <g fill="none" fill-rule="evenodd" transform="translate(2 2)">
    <text fill="#21222B" font-family="Effra-Bold, Effra" font-size="40.46" font-weight="bold" letter-spacing="-.91">
      <tspan x="39" y="56">bewerbl</tspan> <tspan x="177.234" y="56">i</tspan>
    </text>
    <g stroke="#21222B">
      <path stroke-width="3" d="M42.190505,11.7463835 C42.3612987,15.3149655 41.6936069,17.5502995 40.1874294,18.4523853 C37.9281631,19.8055141 36.2550228,19.7517555 33.5346134,20.1560571 C30.814204,20.5603587 27.265365,23.829954 27.1288896,25.1728318 C27.037906,26.0680837 27.037906,36.172284 27.1288896,55.4854327 L20,65.6348305"/>
      <path stroke-width="3" d="M21,64.6348305 L20.4074123,65.2361678 L13,54.4048772 C13.350573,43.6246314 13.558938,37.2627315 13.625095,35.3191775 C13.6912521,33.3756236 11.8162204,31.7351116 8,30.3976417 C5.30020811,30.0455154 3.73903642,29.2004849 3.31648493,27.86255"/>
      <path stroke-width="3" d="M20.2226603,54.3806399 L20.2226603,20.7452668 C20.1494656,18.6581186 19.0752455,16.8762988 17,15.3998076 C14.9247545,13.9233163 13.2932427,13.1233805 12.1054645,13 C9.86053433,13.0299698 8.8253795,13.0299698 9,13 C9.26193075,12.9550454 5.12238952,12.0689226 4.34542525,9.79741076 C3.56846098,7.52589893 2.34882373,7.21447299 2.71329725,5.33219817 C2.9562796,4.07734828 2.9562796,3.2999489 2.71329725,3"/>
      <circle cx="2" cy="2" r="2" stroke-width="3"/>
      <circle cx="42" cy="10" r="2" stroke-width="2.7"/>
      <circle cx="3" cy="25" r="2" stroke-width="3"/>
      <path stroke-linecap="square" stroke-width="3" d="M14 54.3806399L27.3118305 54.3806399M22.5 60L18.5 60"/>
    </g>
  </g>
</svg>
