<svg xmlns="http://www.w3.org/2000/svg" xmlns:xlink="http://www.w3.org/1999/xlink" width="570" height="520" viewBox="0 0 570 520"><defs><style>.a,.b{fill:none;}.a{stroke:#707070;}.c{clip-path:url(#a);}.d{opacity:0.78;fill:url(#b);}.e{opacity:0.8;fill:url(#c);}.f{clip-path:url(#d);}.g{fill:#f3f5ff;}.h{fill:#fff;}.i{clip-path:url(#e);}.j{fill:#edeeff;}.k{fill:url(#f);}.l{fill:#238ce6;}.m{fill:url(#g);}.n{fill:#2699fb;}.o{opacity:0.38;}.p{fill:#e2e7f5;}.q{opacity:0.16;}.ab,.r{fill:#5457ff;}.r{stroke:#5457ff;stroke-width:2px;}.s{fill:#ffc3a0;}.t{fill:url(#t);}.u{fill:url(#u);}.v{fill:url(#v);}.w{fill:url(#w);}.x{fill:#545489;}.y{fill:url(#x);}.z{fill:url(#y);}.aa{fill:#fefefe;}.ac{fill:#7878a6;}.ad{fill:#f9c053;}.ae{fill:#323293;}.af{fill:url(#af);}.ag{fill:url(#ag);}.ah{fill:url(#ah);}.ai{fill:url(#ai);}.aj{fill:url(#aj);}.ak{stroke:none;}.al{filter:url(#am);}.am{filter:url(#ak);}.an{filter:url(#ad);}.ao{filter:url(#ab);}.ap{filter:url(#z);}.aq{filter:url(#r);}.ar{filter:url(#p);}.as{filter:url(#n);}.at{filter:url(#l);}.au{filter:url(#j);}.av{filter:url(#h);}</style><clipPath id="a"><rect class="a" width="570" height="520" transform="translate(975 204)"/></clipPath><linearGradient id="b" x1="0.918" y1="0.161" x2="0.546" y2="0.706" gradientUnits="objectBoundingBox"><stop offset="0" stop-color="#fff" stop-opacity="0.765"/><stop offset="1" stop-color="#fff" stop-opacity="0"/></linearGradient><linearGradient id="c" x1="-0.035" y1="0.571" x2="0.972" y2="0.564" xlink:href="#b"/><clipPath id="d"><ellipse class="b" cx="156.361" cy="156.361" rx="156.361" ry="156.361"/></clipPath><clipPath id="e"><ellipse class="b" cx="115.173" cy="115.173" rx="115.173" ry="115.173" transform="translate(0 0)"/></clipPath><linearGradient id="f" x1="2.973" y1="3.043" x2="1.998" y2="2.117" gradientUnits="objectBoundingBox"><stop offset="0.282" stop-color="#2699fb"/><stop offset="0.447" stop-color="#5eaef3"/></linearGradient><linearGradient id="g" x1="-49.73" y1="24.371" x2="-50.799" y2="23.56" xlink:href="#f"/><filter id="h" x="85.557" y="133.511" width="369.156" height="225.696" filterUnits="userSpaceOnUse"><feOffset dx="3" dy="3" input="SourceAlpha"/><feGaussianBlur stdDeviation="10" result="i"/><feFlood flood-color="#282842" flood-opacity="0.22"/><feComposite operator="in" in2="i"/><feComposite in="SourceGraphic"/></filter><filter id="j" x="99.459" y="139.114" width="354.75" height="122.991" filterUnits="userSpaceOnUse"><feOffset dy="12" input="SourceAlpha"/><feGaussianBlur stdDeviation="15" result="k"/><feFlood flood-color="#021d67" flood-opacity="0.161"/><feComposite operator="in" in2="k"/><feComposite in="SourceGraphic"/></filter><filter id="l" x="99.459" y="94.68" width="354.75" height="122.991" filterUnits="userSpaceOnUse"><feOffset dy="12" input="SourceAlpha"/><feGaussianBlur stdDeviation="15" result="m"/><feFlood flood-color="#021d67" flood-opacity="0.161"/><feComposite operator="in" in2="m"/><feComposite in="SourceGraphic"/></filter><filter id="n" x="99.459" y="230.048" width="354.75" height="122.991" filterUnits="userSpaceOnUse"><feOffset dy="12" input="SourceAlpha"/><feGaussianBlur stdDeviation="15" result="o"/><feFlood flood-color="#021d67" flood-opacity="0.161"/><feComposite operator="in" in2="o"/><feComposite in="SourceGraphic"/></filter><filter id="p" x="67.558" y="183.548" width="373.454" height="125.321" filterUnits="userSpaceOnUse"><feOffset dy="12" input="SourceAlpha"/><feGaussianBlur stdDeviation="15" result="q"/><feFlood flood-color="#021d67" flood-opacity="0.161"/><feComposite operator="in" in2="q"/><feComposite in="SourceGraphic"/></filter><filter id="r" x="375.108" y="216.92" width="52.791" height="36.912" filterUnits="userSpaceOnUse"><feOffset dy="-3" input="SourceAlpha"/><feGaussianBlur stdDeviation="3.5" result="s"/><feFlood flood-color="#282842" flood-opacity="0.141"/><feComposite operator="in" in2="s"/><feComposite in="SourceGraphic"/></filter><linearGradient id="t" x1="0.43" y1="0.805" x2="1.205" y2="0.018" gradientUnits="objectBoundingBox"><stop offset="0.338" stop-color="#7878a6"/><stop offset="0.967" stop-color="#7c7ca9"/></linearGradient><linearGradient id="u" x1="0.13" y1="0.058" x2="0.602" y2="0.785" gradientUnits="objectBoundingBox"><stop offset="0.029" stop-color="#323293"/><stop offset="1" stop-color="#32325c"/></linearGradient><linearGradient id="v" x1="0.693" y1="0.369" x2="-0.008" y2="0.688" gradientUnits="objectBoundingBox"><stop offset="0.029" stop-color="#32325c"/><stop offset="0.033" stop-color="#31325d"/><stop offset="0.186" stop-color="#2d4d86"/><stop offset="0.342" stop-color="#2964a9"/><stop offset="0.5" stop-color="#2675c3"/><stop offset="0.66" stop-color="#2482d6"/><stop offset="0.825" stop-color="#2389e2"/><stop offset="1" stop-color="#238ce6"/></linearGradient><linearGradient id="w" x1="0.568" y1="0.318" x2="0.294" y2="1.032" gradientUnits="objectBoundingBox"><stop offset="0.264" stop-color="#7878a6"/><stop offset="0.967" stop-color="#8e8ec4"/></linearGradient><linearGradient id="x" x1="0.642" y1="0.417" x2="0.189" y2="0.514" xlink:href="#t"/><linearGradient id="y" x1="0.412" y1="0.206" x2="0.843" y2="0.899" gradientUnits="objectBoundingBox"><stop offset="0" stop-color="#cc9c80"/><stop offset="0.98" stop-color="#ffc3a0"/></linearGradient><filter id="z" x="34.353" y="76.201" width="103.01" height="93.591" filterUnits="userSpaceOnUse"><feOffset dx="2.835" dy="2.835" input="SourceAlpha"/><feGaussianBlur stdDeviation="5" result="aa"/><feFlood flood-color="#282842" flood-opacity="0.259"/><feComposite operator="in" in2="aa"/><feComposite in="SourceGraphic"/></filter><filter id="ab" x="1.232" y="56.279" width="163.581" height="151.766" filterUnits="userSpaceOnUse"><feOffset dy="12" input="SourceAlpha"/><feGaussianBlur stdDeviation="12" result="ac"/><feFlood flood-color="#32325c" flood-opacity="0.259"/><feComposite operator="in" in2="ac"/><feComposite in="SourceGraphic"/></filter><filter id="ad" x="45.901" y="62.782" width="79.234" height="100.946" filterUnits="userSpaceOnUse"><feOffset dx="2.835" dy="2.835" input="SourceAlpha"/><feGaussianBlur stdDeviation="2" result="ae"/><feFlood flood-color="#282842" flood-opacity="0.212"/><feComposite operator="in" in2="ae"/><feComposite in="SourceGraphic"/></filter><linearGradient id="af" x1="-53.069" y1="1.047" x2="-52.257" y2="-0.018" xlink:href="#t"/><linearGradient id="ag" x1="0.503" y1="0.514" x2="0.498" y2="0.955" xlink:href="#w"/><linearGradient id="ah" x1="-47.866" y1="1.368" x2="-48.841" y2="0.117" xlink:href="#t"/><linearGradient id="ai" x1="0.397" y1="0.512" x2="0.272" y2="0.765" xlink:href="#y"/><linearGradient id="aj" x1="0" y1="0.5" x2="1" y2="0.5" xlink:href="#u"/><filter id="ak" x="203.913" y="304.178" width="168.765" height="90.036" filterUnits="userSpaceOnUse"><feOffset dx="2.835" dy="2.835" input="SourceAlpha"/><feGaussianBlur stdDeviation="5" result="al"/><feFlood flood-color="#282842" flood-opacity="0.2"/><feComposite operator="in" in2="al"/><feComposite in="SourceGraphic"/></filter><filter id="am" x="191.21" y="318.605" width="60.884" height="60.884" filterUnits="userSpaceOnUse"><feOffset dx="2.835" dy="2.835" input="SourceAlpha"/><feGaussianBlur stdDeviation="3.5" result="an"/><feFlood flood-color="#282842" flood-opacity="0.439"/><feComposite operator="in" in2="an"/><feComposite in="SourceGraphic"/></filter></defs><g class="c" transform="translate(-975 -204)"><g transform="translate(3.284 12.534)"><g transform="translate(955.716 201)"><g transform="translate(18.982 -5.234)"><path class="d" d="M127.689,142.863c-21.59,36.2-10.278,62.27-.527,98.1,4.345,15.959,13.039,30.294,22.959,43.593,30.4,40.754,73.907,73.561,126.563,89.105s114.621,12.869,168.309-11.528c28.1-12.769,53.409-31.075,75.159-52.086,34.8-33.612,61.565-77.087,60.181-120.212s-37.959-82.85-86.116-80.727c-36.367,1.6-70.962,25.052-107.357,27.016-58.427,3.16-101.157-49.152-159.672-43.6C227.189,92.522,156.756,94.128,127.689,142.863Z" transform="translate(-14.367 -92.109)"/><path class="e" d="M764.842,257.953c41.436,10.476,52.021,37.283,70.718,69.965,8.329,14.559,12.372,31.072,14.8,47.722,7.426,51.02-.248,105.743-26.86,154.647S750.534,621.7,694.542,642.709c-29.3,10.991-60.58,16.015-91.241,16.545-49.056.851-99.424-11.129-129.353-43.046s-32.19-86.627,3.864-119.636c27.228-24.927,68.846-32.921,96.352-57.609,44.163-39.63,37.291-107.782,83.232-145.759C657.4,293.2,709.054,243.851,764.842,257.953Z" transform="translate(-451.135 -171.776)"/></g><g transform="translate(72.139 0)"><g class="f" transform="translate(0 -6)"><g transform="translate(-45.319 -80.327)"><rect class="g" width="439.64" height="439.64"/><g transform="translate(7.961 1.573)"><path class="h" d="M181.822,1781.428h0l-8.89-8.89v2.584l7.6,7.6h0l13.738,13.738a24.16,24.16,0,0,1,7.192,13.092h1.86a26.1,26.1,0,0,0-7.758-14.384Z" transform="translate(-172.934 -1369.912)"/><path class="h" d="M184.572,1807.652l-11.638-11.639v2.585l3.029,3.03a25.217,25.217,0,0,0-3.029-1.084v1.9a24.559,24.559,0,0,1,10.344,6.5l2.1,2.1h2.584l-3.393-3.393Z" transform="translate(-172.934 -1371.405)"/><path class="h" d="M245.023,1799.171l-13.741-13.74-13.737-13.738c-7.1-7.1-13.547-7.814-19.78-8.506-6.194-.688-12.047-1.338-18.69-7.981l-6.142-6.14v2.584l4.849,4.848,27.48,27.478c6.642,6.643,7.29,12.492,7.979,18.688.2,1.778.4,3.572.746,5.393h1.86c-.373-1.854-.58-3.71-.788-5.6a37.1,37.1,0,0,0-2.482-11.17l16.767,16.765h2.584l-25.376-25.375-20.163-20.16A37.113,37.113,0,0,0,197.562,1765c6.2.689,12.045,1.336,18.69,7.98l13.739,13.74,13.739,13.737a26.038,26.038,0,0,0,13.592,7.6H269.9a61.222,61.222,0,0,0-6.191-.908C257.515,1806.462,251.665,1805.813,245.023,1799.171Z" transform="translate(-172.934 -1368.419)"/><path class="h" d="M611.362,1342.566h-2.584l19.88,19.881c6.645,6.642,7.293,12.493,7.98,18.688.486,4.357.984,8.816,3.656,13.528v-4.33a39.447,39.447,0,0,1-1.838-9.4,37.084,37.084,0,0,0-2.479-11.171l4.318,4.321V1371.5l-10.344-10.346Z" transform="translate(-200.653 -1342.566)"/><path class="h" d="M615.176,1342.566a61.336,61.336,0,0,0,6.19.91c6.194.687,12.047,1.337,18.69,7.98l.645.647v-2.568a25.776,25.776,0,0,0-12.945-6.969Z" transform="translate(-201.06 -1342.566)"/><path class="h" d="M622.987,1391.924c-.695-6.234-1.412-12.682-8.506-19.777l-13.739-13.74h0L587,1344.668c-.71-.709-1.348-1.41-1.927-2.1h-2.333a32.529,32.529,0,0,0,2.966,3.394L599.45,1359.7h0l13.737,13.738c6.643,6.643,7.294,12.494,7.982,18.689a37.076,37.076,0,0,0,2.481,11.17l-20.162-20.16-27.478-27.478a24.182,24.182,0,0,1-7.191-13.093h-1.86a27.357,27.357,0,0,0,1.734,5.776l-5.774-5.776h-2.586l14.386,14.385,20.16,20.162a37.055,37.055,0,0,0-11.168-2.481c-6.2-.688-12.048-1.34-18.69-7.981l-13.741-13.738-10.344-10.346h-2.585L549.99,1354.2l13.739,13.74c7.1,7.1,13.545,7.812,19.78,8.505,6.194.688,12.047,1.339,18.69,7.981l27.478,27.478,6.139,6.141v-2.585l-4.847-4.85C624.326,1403.97,623.674,1398.12,622.987,1391.924Z" transform="translate(-196.174 -1342.566)"/><path class="h" d="M583,1407.866l-13.741-13.739c-7.1-7.1-13.542-7.812-19.781-8.506-6.194-.688-12.045-1.336-18.69-7.979l-27.475-27.478-7.6-7.6h-2.584l8.89,8.889c6.643,6.643,7.29,12.5,7.979,18.69.693,6.236,1.41,12.683,8.5,19.78l13.741,13.739h0l13.741,13.74c6.639,6.643,7.29,12.493,7.979,18.688a37.079,37.079,0,0,0,2.482,11.171l-20.162-20.16-27.476-27.478c-6.645-6.642-7.3-12.493-7.984-18.688-.693-6.238-1.409-12.684-8.5-19.782l-13.74-13.738h0l-4.85-4.849h-2.585l6.144,6.142h0l13.737,13.738c6.642,6.644,7.294,12.494,7.983,18.69a37,37,0,0,0,2.481,11.171l-20.164-20.162-27.478-27.477c-.708-.709-1.344-1.41-1.923-2.1h-2.761l3.393,3.394,20.163,20.16a37.089,37.089,0,0,0-11.171-2.48c-6.194-.689-12.047-1.338-18.69-7.982l-13.091-13.093h-2.585l.645.646,13.737,13.739c7.1,7.1,13.545,7.813,19.78,8.505,6.194.689,12.047,1.338,18.69,7.981l27.478,27.477,20.16,20.163a36.951,36.951,0,0,0-11.168-2.48c-6.2-.69-12.048-1.339-18.69-7.983l-13.737-13.739-13.741-13.738c-7.1-7.1-13.543-7.813-19.78-8.505-6.2-.688-12.048-1.34-18.69-7.982l-24.081-24.083h-2.761c4.851,5.794,5.439,11.054,6.054,16.587.695,6.236,1.409,12.683,8.508,19.779l13.736,13.741,13.741,13.739c6.641,6.641,7.292,12.492,7.98,18.688a37.081,37.081,0,0,0,2.481,11.17l-20.16-20.162-27.478-27.477c-6.643-6.643-7.294-12.494-7.983-18.689-.694-6.235-1.408-12.684-8.5-19.779l-7.6-7.6h-2.584l8.888,8.889c6.643,6.643,7.294,12.5,7.981,18.69a37.078,37.078,0,0,0,2.482,11.17l-20.163-20.161-18.587-18.587h-2.586L373.8,1355.13a37.131,37.131,0,0,0-11.169-2.482c-6.2-.687-12.047-1.339-18.69-7.98l-2.1-2.1h-2.584l3.393,3.394c7.1,7.1,13.547,7.813,19.781,8.505,6.2.687,12.046,1.338,18.69,7.98l27.478,27.478,20.161,20.161a37.131,37.131,0,0,0-11.171-2.481c-6.194-.687-12.045-1.338-18.69-7.98l-13.739-13.739-13.737-13.739c-7.1-7.1-13.543-7.812-19.781-8.506-6.194-.689-12.047-1.338-18.688-7.98l-13.093-13.093h-2.584l14.384,14.384,27.478,27.479c6.643,6.643,7.294,12.493,7.983,18.688.692,6.236,1.408,12.684,8.5,19.781l13.737,13.739,13.741,13.738c6.643,6.644,7.292,12.5,7.98,18.69a37.078,37.078,0,0,0,2.481,11.169l-20.16-20.16L365.924,1432.6c-6.643-6.642-7.294-12.495-7.983-18.69-.69-6.234-1.406-12.682-8.505-19.779L335.7,1380.389h0l-13.739-13.74c-6.643-6.644-7.292-12.494-7.982-18.688-.2-1.779-.4-3.573-.746-5.4h-1.86c.374,1.855.58,3.71.788,5.6.695,6.236,1.412,12.683,8.508,19.781l13.739,13.737v0l13.739,13.738c6.642,6.644,7.292,12.494,7.979,18.69a37.126,37.126,0,0,0,2.481,11.17l-20.16-20.161-27.48-27.479c-6.64-6.642-7.292-12.494-7.979-18.688-.58-5.228-1.18-10.6-5.538-16.386h-2.333c4.851,5.794,5.44,11.054,6.054,16.587a37.147,37.147,0,0,0,2.481,11.17l-20.16-20.161-7.6-7.6h-2.584l1.57,1.572a26.582,26.582,0,0,0-4.978-1.572h-12.58a61.128,61.128,0,0,0,6.186.908c6.194.688,12.047,1.337,18.69,7.981l27.478,27.477,20.16,20.162a37.052,37.052,0,0,0-11.169-2.481c-6.194-.689-12.047-1.338-18.69-7.981l-13.739-13.739L272.5,1361.153c-7.1-7.1-13.543-7.811-19.781-8.505-6.194-.687-12.045-1.339-18.688-7.982l-2.1-2.1h-2.586l3.394,3.394,27.478,27.477c6.643,6.643,7.294,12.493,7.982,18.689.691,6.234,1.408,12.683,8.5,19.78l13.739,13.738h0l13.738,13.738c6.645,6.643,7.294,12.493,7.98,18.689a37.176,37.176,0,0,0,2.481,11.171l-20.16-20.162h0L267,1421.6c-6.643-6.644-7.294-12.5-7.981-18.69-.691-6.235-1.408-12.683-8.506-19.779L236.78,1369.4h0l-13.741-13.738a24.19,24.19,0,0,1-7.192-13.092H213.99a26.092,26.092,0,0,0,7.758,14.384l13.739,13.738h0l13.741,13.739c6.641,6.644,7.29,12.5,7.979,18.69a37.054,37.054,0,0,0,2.482,11.173l-20.163-20.162v0l-27.475-27.476c-6.645-6.644-7.3-12.5-7.984-18.689-.2-1.778-.4-3.571-.746-5.394h-1.86c.374,1.855.58,3.71.79,5.6a37.051,37.051,0,0,0,2.481,11.171l-16.767-16.767h-2.584l25.375,25.376h0L230.92,1388.1a37.071,37.071,0,0,0-11.173-2.482c-6.194-.688-12.047-1.337-18.69-7.981L187.319,1363.9l-13.739-13.738q-.324-.323-.646-.63v2.569l13.092,13.093,13.741,13.738c7.094,7.1,13.542,7.813,19.778,8.505,6.194.688,12.047,1.34,18.69,7.982l27.477,27.478h0l20.164,20.162a37.06,37.06,0,0,0-11.173-2.482c-6.194-.688-12.047-1.338-18.69-7.982l-13.737-13.739-13.741-13.738c-7.1-7.1-13.543-7.814-19.78-8.506-6.194-.689-12.045-1.338-18.688-7.981L172.934,1371.5v2.585l15.84,15.841,27.478,27.477c6.643,6.644,7.294,12.5,7.981,18.69.694,6.236,1.408,12.684,8.506,19.78l13.739,13.74h0l13.739,13.739c6.643,6.641,7.294,12.492,7.982,18.688a37.012,37.012,0,0,0,2.48,11.17l-20.162-20.16v0l-27.478-27.477c-6.643-6.643-7.292-12.492-7.979-18.69-.694-6.234-1.41-12.684-8.506-19.779l-13.739-13.739h0l-13.739-13.738a24.977,24.977,0,0,1-6.142-9.291v4.33a29.24,29.24,0,0,0,4.851,6.252l13.737,13.739h0l13.739,13.739c6.642,6.643,7.292,12.5,7.981,18.69a36.967,36.967,0,0,0,2.481,11.171l-20.161-20.161h0l-22.629-22.628v2.585l14.021,14.02a37.079,37.079,0,0,0-11.173-2.481c-.956-.106-1.9-.212-2.848-.339v1.843c.886.115,1.769.215,2.646.313,6.2.687,12.048,1.339,18.69,7.98l27.478,27.479h0l20.162,20.161a37.1,37.1,0,0,0-11.172-2.481c-6.194-.688-12.047-1.339-18.688-7.981l-13.739-13.739-13.739-13.739a26.3,26.3,0,0,0-11.638-7.108v1.9a24.587,24.587,0,0,1,10.344,6.5l13.739,13.739,13.739,13.739c7.1,7.1,13.543,7.812,19.781,8.505,6.194.688,12.045,1.339,18.69,7.982l27.476,27.478,20.162,20.161a37.1,37.1,0,0,0-11.171-2.482c-6.2-.688-12.045-1.338-18.69-7.981l-13.739-13.739-13.739-13.739c-7.1-7.1-13.544-7.813-19.78-8.506-6.194-.688-12.047-1.337-18.69-7.981l-27.477-27.477-.646-.645v2.6c6.038,6.371,6.67,12.039,7.334,18.024.694,6.237,1.41,12.685,8.506,19.781l13.739,13.739h0l13.739,13.739c6.643,6.643,7.294,12.495,7.981,18.689a37.078,37.078,0,0,0,2.482,11.173l-20.162-20.164h0l-27.478-27.477a25.005,25.005,0,0,1-6.142-9.29v5.733l4.851,4.849,20.16,20.163a37.044,37.044,0,0,0-11.17-2.482c-4.647-.516-9.1-1.011-13.84-4.029v2.128c4.753,2.728,9.249,3.229,13.639,3.718,6.194.688,12.045,1.339,18.69,7.981l27.477,27.479h0l20.163,20.16a37.124,37.124,0,0,0-11.173-2.482c-6.194-.688-12.045-1.336-18.69-7.98l-13.737-13.74L195.563,1548c-7.1-7.1-13.545-7.812-19.781-8.505-.956-.108-1.9-.212-2.848-.339V1541c.886.117,1.769.216,2.646.313,6.2.687,12.048,1.338,18.69,7.98l13.739,13.74,13.739,13.737c7.1,7.1,13.545,7.814,19.78,8.505,6.194.688,12.045,1.339,18.69,7.983l27.476,27.476h0l20.164,20.163a37.026,37.026,0,0,0-11.172-2.482c-6.2-.687-12.046-1.337-18.69-7.98l-13.737-13.741-13.741-13.737c-7.094-7.1-13.543-7.814-19.78-8.505-6.194-.687-12.047-1.339-18.688-7.982l-27.478-27.477-11.638-11.639v2.584l10.344,10.346c6.643,6.643,7.294,12.493,7.982,18.688.693,6.237,1.409,12.683,8.5,19.781l13.738,13.74h0l13.741,13.737c6.643,6.643,7.292,12.495,7.98,18.69a37.1,37.1,0,0,0,2.481,11.172l-20.16-20.163-27.48-27.478c-6.641-6.643-7.292-12.5-7.979-18.69-.694-6.235-1.41-12.684-8.506-19.779l-.646-.646v2.6c6.038,6.369,6.67,12.036,7.334,18.024a37.134,37.134,0,0,0,2.482,11.169l-9.816-9.816v2.585l15.84,15.84h0l20.161,20.162a37.088,37.088,0,0,0-11.169-2.481c-6.194-.689-12.047-1.34-18.69-7.981l-6.142-6.142v2.584l4.849,4.849c7.1,7.1,13.545,7.814,19.78,8.505,6.2.689,12.045,1.34,18.69,7.983L243.73,1664.7h0l20.162,20.16a37.06,37.06,0,0,0-11.173-2.482c-6.194-.689-12.045-1.337-18.69-7.98l-13.737-13.74-13.738-13.738c-7.1-7.1-13.543-7.813-19.78-8.506-4.647-.515-9.1-1.01-13.84-4.028v3.481L194.27,1659.2c6.641,6.642,7.293,12.493,7.982,18.687.691,6.238,1.408,12.685,8.5,19.781l13.739,13.74h0l13.739,13.737c6.642,6.643,7.294,12.5,7.983,18.69a37.026,37.026,0,0,0,2.481,11.173l-20.163-20.163-27.478-27.477c-6.642-6.644-7.292-12.5-7.981-18.689-.691-6.235-1.408-12.684-8.5-19.779l-11.638-11.638v2.585l10.344,10.344c6.643,6.643,7.294,12.495,7.982,18.69a37.043,37.043,0,0,0,2.481,11.17l-20.162-20.162-.646-.645v2.584l26.831,26.832h0l20.16,20.162a37.072,37.072,0,0,0-11.171-2.482c-6.2-.689-12.045-1.34-18.69-7.982l-13.739-13.739-3.393-3.392v2.584l2.1,2.1,13.739,13.739c7.1,7.1,13.543,7.814,19.78,8.505,6.2.688,12.048,1.34,18.69,7.983l27.478,27.477h0l18.589,18.587h2.584l-19.882-19.88c-6.643-6.642-7.292-12.493-7.98-18.69-.695-6.234-1.411-12.683-8.506-19.778l-13.738-13.739h0l-13.739-13.737c-6.643-6.644-7.294-12.5-7.982-18.69a37.1,37.1,0,0,0-2.482-11.173l20.162,20.163,27.48,27.477c6.641,6.644,7.29,12.5,7.979,18.69.694,6.235,1.41,12.684,8.5,19.778l13.741,13.74h0l13.737,13.739c.712.71,1.348,1.409,1.928,2.1h2.333a32.422,32.422,0,0,0-2.968-3.392l-13.739-13.739v0L267,1751.335c-6.643-6.643-7.294-12.5-7.981-18.69a37.071,37.071,0,0,0-2.48-11.169l20.161,20.161,27.477,27.477a24.178,24.178,0,0,1,7.192,13.092h1.86a27.244,27.244,0,0,0-1.733-5.775l5.776,5.775h2.584l-14.387-14.384-20.16-20.161a37.09,37.09,0,0,0,11.169,2.482c6.194.687,12.047,1.338,18.69,7.982l13.741,13.737,10.343,10.344h2.584L330.2,1770.57l-13.736-13.74c-7.1-7.1-13.547-7.811-19.782-8.505-6.2-.687-12.046-1.338-18.69-7.98l-27.478-27.479-20.16-20.161a37.058,37.058,0,0,0,11.17,2.481c6.194.689,12.045,1.338,18.69,7.982l13.737,13.739,13.739,13.738c7.1,7.1,13.543,7.812,19.781,8.506,6.194.689,12.047,1.336,18.69,7.98l27.478,27.477,7.6,7.6h2.586l-8.89-8.887c-6.645-6.644-7.292-12.5-7.982-18.69-.693-6.235-1.41-12.684-8.5-19.781l-13.741-13.737v0l-13.739-13.738c-6.64-6.644-7.292-12.5-7.979-18.689a37.182,37.182,0,0,0-2.482-11.17l20.162,20.161,27.478,27.477c6.642,6.643,7.292,12.5,7.979,18.69.695,6.235,1.412,12.684,8.506,19.78l13.739,13.737h0l4.851,4.849H385.8l-6.143-6.141-13.737-13.74c-6.643-6.642-7.294-12.492-7.983-18.688a37.061,37.061,0,0,0-2.481-11.17l20.162,20.16,27.478,27.479c.708.71,1.347,1.409,1.926,2.1h2.761l-3.4-3.392-20.16-20.16a37.122,37.122,0,0,0,11.168,2.48c6.2.688,12.048,1.338,18.69,7.981l13.1,13.092h2.585l-.648-.646-13.739-13.738c-7.1-7.1-13.543-7.812-19.78-8.506-6.194-.688-12.047-1.337-18.69-7.98l-27.478-27.478-20.16-20.163a36.986,36.986,0,0,0,11.169,2.482c6.194.688,12.047,1.339,18.69,7.982l13.741,13.738,13.737,13.74c7.1,7.1,13.546,7.812,19.781,8.505,6.194.687,12.045,1.338,18.688,7.982l24.082,24.081h2.762c-4.852-5.793-5.441-11.052-6.056-16.587-.693-6.234-1.41-12.684-8.5-19.778l-13.741-13.74h0l-13.737-13.739c-6.643-6.642-7.294-12.494-7.983-18.688a36.982,36.982,0,0,0-2.482-11.172l20.164,20.162,27.477,27.479c6.643,6.643,7.292,12.492,7.98,18.688.693,6.236,1.41,12.684,8.5,19.779l7.6,7.6h2.585l-8.89-8.887c-6.645-6.644-7.3-12.5-7.984-18.69a37.065,37.065,0,0,0-2.478-11.171l20.16,20.161,18.587,18.587h2.584l-12.565-12.564a37.084,37.084,0,0,0,11.171,2.482c6.2.689,12.045,1.34,18.69,7.982l2.1,2.1H517.7l-3.393-3.392c-7.1-7.1-13.547-7.814-19.78-8.505-6.194-.688-12.047-1.34-18.69-7.983l-27.478-27.477-20.16-20.161a37.062,37.062,0,0,0,11.169,2.482c6.194.688,12.047,1.337,18.69,7.979l13.74,13.741,13.737,13.737c7.1,7.1,13.545,7.814,19.78,8.506,6.2.688,12.048,1.338,18.69,7.981l13.092,13.092h2.586l-14.387-14.384-27.477-27.479c-6.643-6.643-7.293-12.494-7.98-18.69-.693-6.234-1.41-12.683-8.5-19.777l-13.741-13.741L453.851,1674.4c-6.642-6.643-7.29-12.5-7.979-18.69a37.05,37.05,0,0,0-2.482-11.172L463.55,1664.7l27.481,27.477c6.639,6.643,7.291,12.494,7.98,18.689.693,6.236,1.408,12.684,8.5,19.778l13.741,13.74,13.737,13.739c6.642,6.642,7.294,12.494,7.983,18.688.2,1.78.4,3.574.744,5.4h1.86c-.371-1.854-.58-3.71-.787-5.595-.7-6.237-1.412-12.685-8.506-19.781l-13.739-13.739-13.737-13.738c-6.645-6.643-7.3-12.494-7.984-18.689a36.956,36.956,0,0,0-2.482-11.17l20.164,20.16,27.478,27.478c6.643,6.643,7.29,12.495,7.979,18.69.583,5.226,1.182,10.6,5.538,16.384h2.333c-4.849-5.793-5.438-11.052-6.054-16.587a37.056,37.056,0,0,0-2.481-11.17l20.161,20.161,7.6,7.6h2.585l-1.573-1.571a26.49,26.49,0,0,0,4.984,1.571h12.582a60.868,60.868,0,0,0-6.193-.908c-6.2-.688-12.046-1.337-18.69-7.979l-27.478-27.478-20.16-20.162a37.089,37.089,0,0,0,11.17,2.482c6.2.688,12.046,1.34,18.69,7.983l13.739,13.736,13.737,13.741c7.1,7.093,13.547,7.811,19.781,8.5a43.61,43.61,0,0,1,8.341,1.484v-1.9a47.545,47.545,0,0,0-8.138-1.4c-6.2-.688-12.047-1.34-18.69-7.983l-13.741-13.736-13.737-13.741c-7.1-7.1-13.547-7.811-19.781-8.5-6.194-.689-12.045-1.34-18.688-7.982l-27.478-27.478-20.162-20.161a37.09,37.09,0,0,0,11.171,2.482c6.194.688,12.045,1.337,18.69,7.98l13.739,13.739,13.739,13.739c7.1,7.095,13.542,7.812,19.78,8.506,6.194.688,12.047,1.337,18.69,7.979l27.477,27.478h0l17.13,17.132v-2.584l-15.838-15.839c-6.643-6.643-7.292-12.5-7.979-18.69-.695-6.236-1.412-12.683-8.506-19.78l-13.739-13.738h0l-13.739-13.74c-6.643-6.642-7.294-12.495-7.981-18.69a37.117,37.117,0,0,0-2.482-11.169l20.16,20.16,27.479,27.477c6.641,6.643,7.292,12.495,7.98,18.69.695,6.234,1.411,12.683,8.506,19.781l6.139,6.14v-2.584l-4.847-4.85c-6.642-6.643-7.294-12.494-7.981-18.69a37.073,37.073,0,0,0-2.482-11.17l15.309,15.311v-2.584l-21.334-21.334-20.16-20.162a37.051,37.051,0,0,0,11.169,2.48c6.2.688,12.048,1.34,18.69,7.983l11.636,11.635v-2.585l-10.341-10.344c-7.1-7.1-13.547-7.812-19.781-8.505-6.194-.689-12.045-1.338-18.69-7.98l-27.477-27.479-20.161-20.162a36.983,36.983,0,0,0,11.171,2.481c6.194.689,12.045,1.34,18.69,7.983l13.737,13.737,13.739,13.741c7.094,7.094,13.543,7.811,19.778,8.505,6.2.688,12.047,1.338,18.69,7.98l.645.647v-2.584l-26.828-26.833c-6.643-6.642-7.294-12.493-7.984-18.689-.691-6.236-1.407-12.683-8.5-19.781l-13.736-13.737-13.741-13.74c-6.643-6.643-7.294-12.5-7.984-18.69a37.086,37.086,0,0,0-2.478-11.17l20.16,20.16,27.478,27.478c6.643,6.643,7.294,12.495,7.983,18.689.69,6.237,1.406,12.684,8.5,19.781l13.737,13.739,3.393,3.394v-2.585l-2.1-2.1-13.739-13.741c-6.643-6.642-7.292-12.491-7.979-18.687a37.107,37.107,0,0,0-2.482-11.171l20.161,20.162,6.139,6.141v-3.481a28.977,28.977,0,0,1-4.847-3.952l-27.477-27.478-20.162-20.16a37.1,37.1,0,0,0,11.169,2.479c6.2.688,12.049,1.339,18.691,7.983L603.688,1607l8.886,8.888V1613.3l-7.593-7.6-13.741-13.738c-7.1-7.1-13.543-7.813-19.78-8.507-6.194-.688-12.047-1.336-18.69-7.98L525.293,1548l-20.16-20.162a37.013,37.013,0,0,0,11.169,2.482c6.194.688,12.047,1.339,18.69,7.981l13.741,13.739,13.736,13.74c7.1,7.094,13.547,7.811,19.78,8.505,6.2.687,12.048,1.34,18.69,7.98l11.636,11.637v-2.585l-10.344-10.344L574.753,1553.5c-6.643-6.644-7.291-12.5-7.98-18.69-.693-6.235-1.41-12.684-8.5-19.781l-13.741-13.739v0l-13.737-13.741c-6.642-6.643-7.294-12.493-7.983-18.689a37.072,37.072,0,0,0-2.481-11.17l20.162,20.161,27.479,27.478c6.64,6.642,7.292,12.495,7.979,18.689.695,6.235,1.408,12.683,8.5,19.779l13.741,13.739h0l13.737,13.74c.223.223.437.443.645.664v-2.6l-13.091-13.093h0l-13.737-13.739c-6.643-6.642-7.294-12.493-7.984-18.69a36.99,36.99,0,0,0-2.481-11.17l20.163,20.162,17.13,17.131v-2.584l-8.52-8.522a30.961,30.961,0,0,0,8.52,2.168v-1.843c-5.168-.694-10.222-2.024-15.838-7.642l-27.478-27.478-20.16-20.162a36.99,36.99,0,0,0,11.169,2.482c6.194.688,12.047,1.338,18.69,7.981l13.741,13.739,13.737,13.739a29.434,29.434,0,0,0,6.139,4.786v-2.128a28.7,28.7,0,0,1-4.847-3.952l-13.738-13.738-13.741-13.739c-7.094-7.1-13.543-7.812-19.778-8.506-6.2-.688-12.048-1.339-18.69-7.98L514.3,1449.084l-20.164-20.161a37.146,37.146,0,0,0,11.172,2.48c6.2.687,12.048,1.339,18.69,7.982l13.737,13.737,13.741,13.74c7.094,7.1,13.543,7.813,19.778,8.505,6.2.689,12.047,1.338,18.69,7.982l22.627,22.629v-5.732a39.483,39.483,0,0,1-1.838-9.4c-.691-6.235-1.408-12.683-8.506-19.78l-13.737-13.738h0l-13.74-13.739c-6.643-6.643-7.291-12.493-7.98-18.688a37.085,37.085,0,0,0-2.481-11.172l20.16,20.162,27.478,27.478q.334.334.645.664v-2.6l-19.515-19.515a37.1,37.1,0,0,0,11.173,2.48,43.751,43.751,0,0,1,8.341,1.483v-1.9a47.66,47.66,0,0,0-8.142-1.4c-6.194-.688-12.047-1.338-18.686-7.982l-27.478-27.477-20.164-20.162a37.06,37.06,0,0,0,11.173,2.482c6.194.688,12.047,1.338,18.69,7.98l13.736,13.739,13.741,13.739c6.1,6.1,11.714,7.484,17.13,8.194v-1.844c-5.168-.692-10.222-2.024-15.838-7.642ZM456.861,1424.9c-.691-6.237-1.408-12.684-8.5-19.78l-13.737-13.74-13.741-13.739c-6.642-6.642-7.292-12.494-7.983-18.688a37.1,37.1,0,0,0-2.478-11.171l20.16,20.162,27.478,27.477c6.642,6.644,7.294,12.494,7.981,18.69.691,6.234,1.408,12.683,8.506,19.778l13.737,13.739,13.741,13.739c6.643,6.643,7.29,12.493,7.979,18.689a37.055,37.055,0,0,0,2.483,11.171l-20.161-20.163-27.477-27.477C458.2,1436.944,457.549,1431.093,456.861,1424.9Zm29.965,216.525c-6.643-6.642-7.294-12.491-7.981-18.687-.692-6.236-1.408-12.685-8.506-19.779l-13.737-13.74h0l-13.741-13.738c-6.643-6.642-7.29-12.494-7.981-18.689a37.106,37.106,0,0,0-2.48-11.171l20.16,20.162,27.478,27.478c6.645,6.642,7.3,12.492,7.984,18.689.691,6.234,1.407,12.683,8.5,19.777l13.737,13.741L524,1659.2c6.643,6.641,7.292,12.494,7.98,18.688a37.015,37.015,0,0,0,2.485,11.172L514.3,1668.9h0ZM343.942,1674.4c-6.644-6.643-7.3-12.5-7.983-18.69-.691-6.235-1.408-12.683-8.5-19.779l-13.739-13.739h0l-13.739-13.739c-6.643-6.643-7.294-12.5-7.981-18.69a37.025,37.025,0,0,0-2.481-11.169l20.161,20.16,27.477,27.477c6.643,6.643,7.294,12.495,7.982,18.69.691,6.234,1.408,12.684,8.506,19.78l13.737,13.737h0l13.738,13.74c6.643,6.643,7.295,12.494,7.982,18.689a37.043,37.043,0,0,0,2.48,11.17l-20.16-20.16h0Zm87.929-87.929c-6.643-6.643-7.294-12.5-7.982-18.69-.691-6.235-1.408-12.683-8.506-19.779l-13.739-13.739h0l-13.738-13.739c-6.643-6.643-7.295-12.494-7.982-18.689a37.012,37.012,0,0,0-2.482-11.171l20.164,20.161,27.476,27.478c6.644,6.643,7.292,12.494,7.981,18.688.693,6.237,1.41,12.686,8.506,19.781l13.739,13.74,13.739,13.738c6.645,6.643,7.292,12.495,7.979,18.689a37.159,37.159,0,0,0,2.482,11.173l-20.161-20.163h0Zm18.87,21.454a37.077,37.077,0,0,0-11.173-2.482c-6.194-.688-12.047-1.339-18.69-7.981l-13.737-13.738-13.74-13.739c-7.1-7.1-13.543-7.812-19.781-8.506-6.2-.688-12.046-1.337-18.688-7.979l-27.478-27.48-20.162-20.161a37.116,37.116,0,0,0,11.17,2.481c6.2.688,12.048,1.339,18.69,7.983l13.739,13.736,13.739,13.74c7.1,7.1,13.545,7.812,19.78,8.505,6.194.689,12.047,1.34,18.69,7.983l27.478,27.477h0ZM371.42,1482.056l-20.162-20.162a37.084,37.084,0,0,0,11.17,2.482c6.2.687,12.046,1.338,18.69,7.98l13.739,13.739,13.739,13.739c7.1,7.1,13.541,7.812,19.78,8.505,6.2.688,12.048,1.339,18.69,7.983l27.478,27.476,20.16,20.162a37.078,37.078,0,0,0-11.168-2.482c-6.2-.688-12.048-1.337-18.69-7.979L451.1,1539.757l-13.737-13.737c-7.1-7.1-13.547-7.814-19.781-8.506-6.194-.688-12.045-1.338-18.69-7.981Zm-1.291,1.292c6.641,6.641,7.29,12.492,7.98,18.688.693,6.235,1.409,12.684,8.5,19.781l13.74,13.739h0l13.741,13.737c6.639,6.644,7.29,12.5,7.98,18.689a37.041,37.041,0,0,0,2.482,11.173l-20.164-20.163h0l-27.48-27.478c-6.643-6.644-7.292-12.5-7.979-18.69-.695-6.235-1.41-12.683-8.5-19.78l-13.741-13.738-13.739-13.739c-6.643-6.643-7.294-12.492-7.981-18.69a37.09,37.09,0,0,0-2.482-11.169l20.162,20.161Zm5.494,49.458,20.164,20.163a37.116,37.116,0,0,0-11.173-2.481c-6.2-.688-12.047-1.34-18.69-7.983l-13.741-13.737-13.737-13.74c-7.1-7.1-13.545-7.812-19.779-8.505-6.194-.688-12.047-1.339-18.69-7.981L272.5,1471.064,252.34,1450.9a37.039,37.039,0,0,0,11.169,2.482c6.194.688,12.047,1.338,18.69,7.981l13.739,13.739,13.739,13.739c7.1,7.1,13.542,7.812,19.78,8.506,6.194.687,12.047,1.338,18.69,7.98l27.477,27.478Zm-76.937-32.973,27.478,27.478c6.643,6.643,7.292,12.495,7.979,18.689.694,6.235,1.41,12.684,8.506,19.781l13.739,13.737,13.741,13.741c6.641,6.642,7.29,12.493,7.98,18.689a37.036,37.036,0,0,0,2.481,11.169l-20.16-20.16h0l-27.48-27.478c-6.643-6.642-7.294-12.494-7.981-18.689-.694-6.237-1.41-12.684-8.5-19.781l-13.741-13.739-13.737-13.738c-6.643-6.643-7.294-12.5-7.984-18.69a37.068,37.068,0,0,0-2.48-11.169Zm87.927,131.893h0l20.164,20.162a37.013,37.013,0,0,0-11.173-2.482c-6.194-.689-12.047-1.34-18.69-7.984l-13.737-13.737-13.741-13.74c-7.094-7.094-13.542-7.81-19.78-8.505-6.194-.688-12.045-1.339-18.69-7.981l-27.475-27.477-20.163-20.161A37.067,37.067,0,0,0,274.5,1552.3c6.2.689,12.045,1.338,18.69,7.982l13.739,13.738,13.739,13.74c7.094,7.1,13.543,7.812,19.778,8.506,6.194.687,12.047,1.337,18.69,7.979Zm-68.33-26.952a37,37,0,0,0,11.173,2.483c6.194.688,12.047,1.34,18.69,7.983l13.737,13.737,13.74,13.74c7.1,7.1,13.543,7.811,19.778,8.505,6.2.687,12.048,1.34,18.69,7.981l27.478,27.479,0,0,20.162,20.162a37.1,37.1,0,0,0-11.172-2.481c-6.2-.688-12.048-1.34-18.688-7.981l-13.739-13.739L404.392,1668.9c-7.094-7.1-13.543-7.814-19.778-8.507-6.2-.688-12.047-1.336-18.69-7.98l-27.478-27.476Zm97.1,53.136-27.477-27.477c-6.643-6.644-7.295-12.5-7.982-18.69-.691-6.234-1.408-12.683-8.5-19.781l-13.739-13.737-13.739-13.741c-6.644-6.643-7.3-12.493-7.983-18.689a37.09,37.09,0,0,0-2.479-11.17l20.161,20.161,27.477,27.478c6.643,6.642,7.295,12.494,7.982,18.689.691,6.237,1.408,12.683,8.506,19.779l13.737,13.739,13.739,13.739c6.644,6.643,7.292,12.5,7.981,18.69a37.029,37.029,0,0,0,2.483,11.173Zm-53.135-97.1a37.051,37.051,0,0,0,11.173,2.481c6.194.688,12.045,1.339,18.688,7.982l13.739,13.739,13.741,13.739c7.094,7.1,13.542,7.812,19.778,8.5,6.194.688,12.047,1.34,18.69,7.983l27.477,27.477h0l20.163,20.16a37.144,37.144,0,0,0-11.171-2.481c-6.194-.688-12.047-1.336-18.69-7.98L462.1,1638.677l-13.739-13.737c-7.094-7.1-13.543-7.814-19.782-8.506-6.194-.689-12.045-1.339-18.686-7.982l-27.48-27.478Zm64.126-23.8-20.161-20.161a37.08,37.08,0,0,0,11.169,2.48c6.2.689,12.047,1.338,18.69,7.982l13.741,13.74,13.737,13.737c7.1,7.1,13.547,7.813,19.781,8.505,6.194.688,12.045,1.339,18.69,7.982l27.478,27.478,20.16,20.16a37.059,37.059,0,0,0-11.171-2.479c-6.194-.689-12.045-1.339-18.688-7.982l-13.739-13.739-13.739-13.739c-7.1-7.1-13.543-7.813-19.781-8.5-6.194-.688-12.047-1.339-18.686-7.983Zm76.938,32.973-27.478-27.478c-6.645-6.642-7.292-12.494-7.98-18.69-.695-6.235-1.411-12.682-8.506-19.779L445.61,1490.3l-13.739-13.739c-6.643-6.642-7.294-12.493-7.982-18.688a37.077,37.077,0,0,0-2.481-11.171l20.16,20.161,27.48,27.478c6.641,6.643,7.292,12.494,7.979,18.688.7,6.237,1.412,12.685,8.506,19.781l13.739,13.739h0l13.739,13.739c6.643,6.643,7.294,12.493,7.982,18.688a37.1,37.1,0,0,0,2.481,11.172Zm-87.929-131.892-20.162-20.161a37.065,37.065,0,0,0,11.173,2.481c6.194.688,12.045,1.337,18.688,7.981l13.739,13.74,13.738,13.738c7.1,7.1,13.543,7.813,19.781,8.506,6.2.687,12.048,1.338,18.69,7.98l27.478,27.478,20.16,20.16a37.1,37.1,0,0,0-11.172-2.479c-6.194-.688-12.047-1.338-18.686-7.981l-13.741-13.739-13.737-13.738c-7.1-7.1-13.547-7.813-19.781-8.505-6.194-.689-12.047-1.34-18.69-7.983Zm-75.116-75.116a37.028,37.028,0,0,0,11.172,2.482c6.194.689,12.045,1.338,18.688,7.981l13.739,13.739,13.741,13.738c7.094,7.1,13.543,7.813,19.776,8.505,6.2.689,12.047,1.34,18.69,7.983l27.478,27.478,20.164,20.16a37.068,37.068,0,0,0-11.173-2.482c-6.194-.689-12.047-1.337-18.69-7.98l-13.737-13.741-13.74-13.737c-7.1-7.1-13.543-7.814-19.78-8.506-6.2-.688-12.044-1.337-18.688-7.981l-27.478-27.477ZM412.9,1468.861c-.691-6.235-1.408-12.683-8.5-19.779l-13.737-13.738L376.914,1421.6c-6.643-6.644-7.292-12.493-7.979-18.69a37.108,37.108,0,0,0-2.482-11.171l20.161,20.163,27.477,27.476c6.643,6.643,7.294,12.493,7.984,18.689.689,6.236,1.406,12.683,8.5,19.78l13.741,13.74,13.737,13.738c6.642,6.642,7.294,12.495,7.981,18.689a37.063,37.063,0,0,0,2.481,11.171l-20.162-20.162-27.478-27.478C414.237,1480.907,413.587,1475.057,412.9,1468.861Zm6.692,19.982L439.748,1509a37.108,37.108,0,0,0-11.173-2.482c-6.194-.688-12.045-1.338-18.686-7.981L396.149,1484.8l-13.739-13.739c-7.1-7.1-13.544-7.811-19.778-8.505-6.2-.689-12.047-1.338-18.69-7.982L316.466,1427.1,296.3,1406.938a37.035,37.035,0,0,0,11.169,2.481c6.194.689,12.047,1.34,18.69,7.983l13.737,13.737,13.741,13.741c7.094,7.1,13.543,7.81,19.778,8.5,6.2.688,12.047,1.338,18.69,7.981ZM241.347,1351.984a37.156,37.156,0,0,0,11.171,2.482c6.2.687,12.047,1.338,18.69,7.98l13.738,13.739,13.741,13.739c7.094,7.095,13.543,7.812,19.778,8.506,6.2.688,12.048,1.337,18.69,7.98l27.478,27.478,20.162,20.163a37.038,37.038,0,0,0-11.172-2.482c-6.2-.688-12.046-1.339-18.688-7.982l-13.739-13.737-13.739-13.741c-7.094-7.1-13.543-7.812-19.78-8.505-6.2-.687-12.045-1.339-18.688-7.98l-27.478-27.478Zm72.633,105.888c-.693-6.237-1.41-12.684-8.506-19.781l-13.739-13.739h0l-13.74-13.739c-6.641-6.643-7.291-12.494-7.98-18.69a37.055,37.055,0,0,0-2.481-11.169l20.16,20.16,27.478,27.478c6.644,6.643,7.3,12.5,7.983,18.69.693,6.236,1.408,12.683,8.5,19.779L345.4,1480.6l13.737,13.74c6.643,6.642,7.294,12.494,7.983,18.688A36.98,36.98,0,0,0,369.6,1524.2l-20.164-20.161h0l-27.477-27.478C315.317,1469.917,314.668,1464.066,313.979,1457.872Zm-116.6-61.923a37.116,37.116,0,0,0,11.17,2.481c6.2.688,12.048,1.338,18.69,7.981l13.737,13.739,13.741,13.739c7.1,7.1,13.543,7.813,19.779,8.505,6.194.689,12.045,1.338,18.688,7.981l27.48,27.478h0l20.16,20.163a37,37,0,0,0-11.171-2.484c-6.194-.688-12.047-1.337-18.69-7.981l-13.738-13.739-13.737-13.738c-7.1-7.1-13.545-7.813-19.78-8.505-6.2-.688-12.048-1.339-18.69-7.982l-27.478-27.478Zm80.611,124.575c-6.641-6.643-7.291-12.493-7.98-18.689-.693-6.237-1.41-12.683-8.5-19.779l-13.741-13.739v0l-13.739-13.737c-6.64-6.644-7.292-12.5-7.981-18.69a37.065,37.065,0,0,0-2.481-11.171l20.162,20.163,27.478,27.476c6.642,6.644,7.294,12.5,7.981,18.69.693,6.235,1.41,12.683,8.5,19.778l13.741,13.739,13.737,13.739c6.644,6.643,7.3,12.494,7.983,18.688a37.1,37.1,0,0,0,2.482,11.173L305.471,1548h0Zm-58.45-23.174c6.194.687,12.047,1.337,18.69,7.979l13.74,13.74,13.737,13.739c7.1,7.1,13.545,7.812,19.78,8.505,6.2.687,12.048,1.338,18.69,7.98l27.478,27.477h0l20.164,20.163a37.038,37.038,0,0,0-11.172-2.482c-6.2-.687-12.048-1.339-18.69-7.982l-13.739-13.739-13.739-13.738c-7.1-7.1-13.545-7.813-19.78-8.505-6.194-.688-12.047-1.34-18.69-7.983l-27.478-27.477-20.16-20.161A37.055,37.055,0,0,0,219.544,1497.349Zm41.964,94.617,0,0-27.48-27.478c-6.64-6.643-7.292-12.493-7.981-18.688-.693-6.235-1.408-12.684-8.5-19.781L203.8,1512.28h0l-13.737-13.739c-6.643-6.643-7.294-12.494-7.981-18.69a37.094,37.094,0,0,0-2.482-11.17l20.163,20.162,27.477,27.479c6.643,6.641,7.292,12.493,7.98,18.688.695,6.235,1.412,12.683,8.506,19.779l13.739,13.74h0l13.739,13.738c6.642,6.642,7.294,12.494,7.981,18.689a37.12,37.12,0,0,0,2.481,11.172Zm27.48,27.477c-6.643-6.643-7.294-12.494-7.984-18.688-.691-6.238-1.407-12.684-8.5-19.781l-13.738-13.739h0L245.023,1553.5c-6.643-6.644-7.294-12.5-7.984-18.69a37.028,37.028,0,0,0-2.48-11.171l20.162,20.161,27.478,27.478c6.643,6.643,7.292,12.5,7.981,18.689.692,6.235,1.408,12.684,8.506,19.779l13.737,13.739h0l13.741,13.74c6.643,6.644,7.292,12.493,7.979,18.688a37.081,37.081,0,0,0,2.482,11.172l-20.16-20.161h0Zm-58.45-23.174c6.194.687,12.045,1.337,18.69,7.979l13.737,13.74,13.739,13.739c7.094,7.1,13.543,7.812,19.778,8.506,6.194.688,12.047,1.336,18.69,7.979l27.477,27.478h0l20.163,20.161a37.016,37.016,0,0,0-11.173-2.48c-6.194-.689-12.047-1.34-18.688-7.983l-13.739-13.737-13.741-13.74c-7.094-7.1-13.543-7.812-19.778-8.5-6.2-.689-12.045-1.34-18.69-7.984l-27.478-27.477-20.16-20.16A37.134,37.134,0,0,0,230.538,1596.269Zm14.485,67.137c-6.643-6.643-7.294-12.494-7.984-18.69-.691-6.234-1.408-12.683-8.5-19.777L214.8,1611.2h0l-13.741-13.739c-6.642-6.641-7.292-12.493-7.981-18.688a37.124,37.124,0,0,0-2.48-11.172l20.16,20.162,27.478,27.478c6.642,6.643,7.294,12.494,7.983,18.689.691,6.234,1.408,12.683,8.5,19.778l13.737,13.74h0l13.739,13.739c6.643,6.642,7.292,12.494,7.981,18.688a37.1,37.1,0,0,0,2.481,11.173L272.5,1690.884Zm62.651,73.928c-6.194-.688-12.045-1.338-18.686-7.981l-13.741-13.738-13.739-13.739c-7.1-7.1-13.545-7.814-19.78-8.505-6.194-.689-12.045-1.34-18.69-7.983l-27.476-27.477L175.4,1637.751a37.038,37.038,0,0,0,11.171,2.482c6.194.688,12.045,1.336,18.69,7.979L219,1661.953l13.74,13.737c7.1,7.1,13.543,7.814,19.779,8.5,6.2.688,12.047,1.34,18.69,7.983l27.477,27.477h0l20.161,20.162A37.07,37.07,0,0,0,307.674,1737.334Zm-6.5-48.449c.693,6.234,1.407,12.682,8.506,19.779l13.738,13.739h0l13.737,13.74c6.643,6.643,7.294,12.492,7.982,18.689a37.09,37.09,0,0,0,2.48,11.169l-20.16-20.16h0l-27.478-27.479c-6.643-6.642-7.294-12.494-7.981-18.688-.694-6.237-1.41-12.683-8.5-19.781l-13.739-13.739h0l-13.741-13.738c-6.643-6.642-7.292-12.493-7.98-18.689a37.059,37.059,0,0,0-2.481-11.17l20.16,20.16,27.48,27.478C299.831,1676.838,300.482,1682.69,301.17,1688.885Zm105.426,59.44c-6.2-.687-12.046-1.338-18.69-7.982l-13.739-13.737-13.739-13.74c-7.1-7.094-13.545-7.811-19.78-8.505-6.2-.688-12.048-1.338-18.69-7.979L294.482,1668.9l-20.16-20.162a37.062,37.062,0,0,0,11.168,2.481c6.2.687,12.048,1.34,18.69,7.982l13.739,13.737,13.739,13.74c7.1,7.093,13.543,7.811,19.781,8.5,6.194.689,12.045,1.338,18.688,7.98l27.48,27.479,20.16,20.162A37.134,37.134,0,0,0,406.6,1748.325Zm-6.506-48.451c.695,6.237,1.408,12.683,8.506,19.78l13.739,13.738h0l13.737,13.739c6.645,6.643,7.3,12.495,7.983,18.69a37.006,37.006,0,0,0,2.482,11.171l-20.164-20.163h0L398.9,1729.354c-6.643-6.643-7.29-12.494-7.98-18.689-.693-6.236-1.409-12.684-8.506-19.781l-13.738-13.738h0l-13.739-13.74c-6.645-6.643-7.292-12.494-7.982-18.69a37.042,37.042,0,0,0-2.481-11.169l20.162,20.16,27.478,27.479C398.752,1687.828,399.4,1693.679,400.09,1699.874Zm96.435,41.763,20.16,20.16a37.073,37.073,0,0,0-11.169-2.482c-6.194-.688-12.047-1.337-18.69-7.98l-13.741-13.74-13.737-13.738c-7.1-7.1-13.544-7.813-19.78-8.506-6.194-.687-12.047-1.337-18.69-7.98L393.4,1679.894l-20.161-20.16a37.059,37.059,0,0,0,11.169,2.478c6.194.688,12.047,1.339,18.69,7.983l13.741,13.739,13.737,13.738c7.1,7.1,13.543,7.813,19.78,8.505,6.194.688,12.047,1.339,18.69,7.982l27.478,27.478Zm-52.47-85.727c.692,6.237,1.408,12.684,8.5,19.78l13.741,13.74,13.737,13.737c6.645,6.643,7.3,12.495,7.984,18.69a36.983,36.983,0,0,0,2.481,11.172l-20.163-20.163-27.478-27.477c-6.643-6.642-7.29-12.495-7.981-18.69-.692-6.235-1.408-12.684-8.506-19.779l-13.737-13.739L398.9,1619.443c-6.643-6.643-7.29-12.494-7.98-18.688a37.042,37.042,0,0,0-2.481-11.173l20.162,20.161,27.476,27.479C442.717,1643.866,443.368,1649.715,444.055,1655.91Zm105.422,59.443c-6.194-.689-12.045-1.339-18.686-7.982l-13.74-13.739-13.737-13.739c-7.1-7.1-13.545-7.814-19.78-8.505-6.2-.687-12.048-1.339-18.69-7.982l-27.478-27.477L417.2,1615.769a37.1,37.1,0,0,0,11.172,2.482c6.2.688,12.048,1.337,18.69,7.98l13.737,13.74,13.741,13.737c7.094,7.1,13.543,7.814,19.778,8.505,6.2.69,12.045,1.339,18.69,7.983l27.478,27.477h0l20.16,20.163A36.974,36.974,0,0,0,549.477,1715.353Zm-14.484-67.141c6.642,6.643,7.294,12.5,7.983,18.69.691,6.235,1.408,12.684,8.5,19.779l13.741,13.739,13.737,13.74c6.643,6.644,7.294,12.494,7.983,18.69a36.991,36.991,0,0,0,2.482,11.171l-20.164-20.162h0l-27.477-27.478c-6.643-6.642-7.292-12.493-7.984-18.688-.691-6.238-1.408-12.684-8.5-19.781l-13.737-13.74h0l-13.74-13.738c-6.643-6.644-7.293-12.5-7.98-18.69a37.093,37.093,0,0,0-2.481-11.17l20.16,20.159Zm69.622,25.658a37,37,0,0,0-11.172-2.482c-6.2-.687-12.046-1.339-18.69-7.982l-13.737-13.737-13.741-13.74c-7.094-7.1-13.543-7.812-19.779-8.505-6.194-.689-12.043-1.34-18.686-7.982l-27.478-27.478-20.164-20.16a37.1,37.1,0,0,0,11.172,2.482c6.2.687,12.048,1.338,18.69,7.98l13.737,13.739,13.741,13.739c7.094,7.1,13.543,7.813,19.778,8.507,6.2.688,12.046,1.337,18.69,7.98l27.476,27.477ZM524,1549.293c6.643,6.644,7.292,12.5,7.98,18.689.695,6.235,1.412,12.683,8.506,19.78l13.739,13.737,13.741,13.741c6.64,6.643,7.292,12.492,7.979,18.688a37.131,37.131,0,0,0,2.482,11.171l-20.16-20.16-27.478-27.48c-6.642-6.641-7.294-12.493-7.983-18.688-.693-6.237-1.41-12.683-8.5-19.78l-13.741-13.739h0l-13.737-13.739c-6.643-6.644-7.294-12.5-7.981-18.69a37.074,37.074,0,0,0-2.482-11.169l20.163,20.161Zm69.621,25.659a37.047,37.047,0,0,0-11.171-2.482c-6.194-.688-12.045-1.339-18.69-7.983l-13.739-13.737-13.738-13.74c-7.1-7.1-13.545-7.812-19.779-8.505-6.2-.688-12.048-1.339-18.69-7.981l-27.478-27.477-20.161-20.162a37.044,37.044,0,0,0,11.169,2.482c6.194.689,12.047,1.338,18.69,7.982l13.741,13.738,13.737,13.738c7.1,7.1,13.543,7.813,19.781,8.505,6.194.689,12.045,1.338,18.69,7.982l27.476,27.477Zm-80.613-124.578c6.643,6.644,7.294,12.5,7.982,18.69.691,6.234,1.407,12.683,8.506,19.78l13.738,13.738h0l13.739,13.741c6.643,6.642,7.294,12.493,7.982,18.688a36.979,36.979,0,0,0,2.481,11.17l-20.164-20.16L519.8,1498.542c-6.645-6.642-7.292-12.494-7.983-18.688-.692-6.236-1.408-12.683-8.5-19.781l-13.739-13.739L475.834,1432.6c-6.645-6.642-7.292-12.495-7.98-18.69a37.134,37.134,0,0,0-2.482-11.169l20.16,20.16Zm58.45,23.177c-6.194-.689-12.047-1.34-18.69-7.982l-13.737-13.739-13.741-13.739c-7.094-7.1-13.543-7.811-19.78-8.505-6.2-.688-12.047-1.338-18.688-7.981l-27.478-27.478-20.162-20.162a37.093,37.093,0,0,0,11.171,2.482c6.194.688,12.047,1.338,18.69,7.981l13.739,13.739,13.739,13.739c7.094,7.1,13.543,7.812,19.778,8.506,6.194.688,12.047,1.337,18.69,7.98l27.477,27.478,20.161,20.16A37.056,37.056,0,0,0,571.461,1473.551Zm-14.485-67.139c6.643,6.642,7.294,12.492,7.982,18.688.691,6.235,1.408,12.684,8.5,19.78l13.739,13.738h0l13.738,13.738c6.645,6.644,7.293,12.5,7.98,18.69a37.166,37.166,0,0,0,2.482,11.17l-20.16-20.16-27.478-27.478c-6.642-6.644-7.294-12.5-7.981-18.69-.691-6.235-1.408-12.683-8.506-19.779l-13.737-13.739h0l-13.739-13.74c-6.645-6.643-7.3-12.494-7.983-18.689a37.04,37.04,0,0,0-2.48-11.17l20.163,20.16Z" transform="translate(-172.934 -1342.566)"/></g></g></g><g class="i" transform="translate(221.328 226.251)"><g transform="translate(-33.381 -59.167)"><rect class="g" width="323.833" height="323.833"/><g transform="translate(5.864 1.159)"><path class="j" d="M179.481,1779.086h0l-6.548-6.548v1.9l5.6,5.6h0l10.119,10.119a17.8,17.8,0,0,1,5.3,9.643h1.37a19.223,19.223,0,0,0-5.714-10.595Z" transform="translate(-172.934 -1475.969)"/><path class="j" d="M181.506,1804.586l-8.572-8.573v1.9l2.231,2.232a18.6,18.6,0,0,0-2.231-.8v1.4a18.088,18.088,0,0,1,7.62,4.786l1.548,1.546h1.9l-2.5-2.5Z" transform="translate(-172.934 -1483.252)"/><path class="j" d="M226.034,1785.973l-10.121-10.121-10.118-10.119c-5.227-5.227-9.978-5.756-14.569-6.266-4.563-.507-8.873-.985-13.767-5.878l-4.524-4.523v1.9l3.571,3.571,20.241,20.24c4.892,4.893,5.37,9.2,5.877,13.765.146,1.31.294,2.631.55,3.973h1.37c-.275-1.366-.427-2.733-.58-4.121a27.329,27.329,0,0,0-1.828-8.228l12.35,12.349h1.9L197.7,1773.828l-14.851-14.849a27.338,27.338,0,0,0,8.229,1.828c4.564.508,8.872.984,13.767,5.878l10.12,10.121,10.12,10.119a19.179,19.179,0,0,0,10.012,5.6h9.266a45.115,45.115,0,0,0-4.56-.669C235.236,1791.343,230.926,1790.865,226.034,1785.973Z" transform="translate(-172.934 -1468.687)"/><path class="j" d="M610.682,1342.566h-1.9l14.643,14.645c4.894,4.892,5.372,9.2,5.878,13.765.358,3.209.725,6.494,2.693,9.964v-3.189a29.054,29.054,0,0,1-1.354-6.923,27.312,27.312,0,0,0-1.826-8.229l3.18,3.182v-1.9l-7.62-7.621Z" transform="translate(-308.159 -1342.566)"/><path class="j" d="M615.176,1342.566a45.24,45.24,0,0,0,4.559.67c4.563.506,8.873.985,13.766,5.878l.475.477V1347.7a18.984,18.984,0,0,0-9.535-5.133Z" transform="translate(-310.144 -1342.566)"/><path class="j" d="M600.693,1378.922c-.512-4.592-1.04-9.342-6.266-14.567l-10.12-10.121h0l-10.12-10.12c-.523-.523-.993-1.039-1.419-1.548H571.05a23.974,23.974,0,0,0,2.185,2.5l10.121,10.12h0l10.118,10.119c4.893,4.893,5.372,9.2,5.879,13.766a27.31,27.31,0,0,0,1.828,8.227l-14.851-14.849-20.24-20.24a17.811,17.811,0,0,1-5.3-9.644h-1.37a20.15,20.15,0,0,0,1.277,4.255l-4.253-4.255h-1.905l10.6,10.6,14.849,14.851a27.293,27.293,0,0,0-8.227-1.828c-4.563-.507-8.874-.987-13.766-5.879l-10.121-10.119-7.62-7.621h-1.9l8.572,8.571,10.12,10.12c5.227,5.227,9.977,5.755,14.569,6.265,4.563.507,8.873.986,13.766,5.879l20.24,20.24,4.522,4.523v-1.9l-3.57-3.572C601.679,1387.8,601.2,1383.486,600.693,1378.922Z" transform="translate(-286.308 -1342.566)"/><path class="j" d="M474.982,1390.665l-10.121-10.12c-5.228-5.226-9.975-5.754-14.571-6.266-4.563-.507-8.872-.984-13.767-5.878l-20.238-20.239-5.6-5.6h-1.9l6.548,6.547c4.893,4.893,5.37,9.2,5.877,13.766.51,4.593,1.039,9.342,6.264,14.57l10.121,10.12h0l10.121,10.12c4.89,4.893,5.37,9.2,5.877,13.765a27.313,27.313,0,0,0,1.829,8.228l-14.851-14.85-20.238-20.24c-4.894-4.892-5.374-9.2-5.881-13.765-.51-4.595-1.038-9.343-6.264-14.571l-10.12-10.119h0l-3.573-3.572h-1.9l4.525,4.524h0l10.119,10.119c4.892,4.894,5.372,9.2,5.88,13.767a27.256,27.256,0,0,0,1.828,8.228l-14.852-14.851-20.24-20.239c-.522-.523-.99-1.039-1.417-1.548H376.4l2.5,2.5,14.852,14.849a27.317,27.317,0,0,0-8.229-1.826c-4.563-.508-8.873-.986-13.767-5.88l-9.643-9.644h-1.9l.475.476,10.118,10.12c5.227,5.227,9.977,5.755,14.569,6.265,4.563.507,8.874.986,13.767,5.879l20.24,20.239,14.849,14.852a27.212,27.212,0,0,0-8.226-1.827c-4.563-.509-8.874-.986-13.767-5.88l-10.119-10.12L392,1372.45c-5.227-5.228-9.976-5.755-14.569-6.265-4.563-.507-8.874-.987-13.767-5.88l-17.738-17.739H343.89c3.573,4.268,4.006,8.142,4.459,12.218.512,4.594,1.038,9.342,6.267,14.569l10.118,10.121,10.121,10.12c4.892,4.891,5.371,9.2,5.878,13.765a27.317,27.317,0,0,0,1.828,8.228l-14.849-14.851-20.24-20.239c-4.893-4.893-5.372-9.2-5.88-13.766-.511-4.593-1.037-9.343-6.264-14.569l-5.6-5.6h-1.9l6.547,6.547c4.893,4.893,5.372,9.2,5.879,13.766a27.31,27.31,0,0,0,1.828,8.227l-14.851-14.85-13.691-13.691h-1.905l9.255,9.254a27.342,27.342,0,0,0-8.227-1.828c-4.564-.506-8.873-.986-13.766-5.878l-1.549-1.548h-1.9l2.5,2.5c5.229,5.226,9.979,5.755,14.571,6.265,4.563.506,8.873.986,13.767,5.878l20.24,20.24,14.85,14.85a27.358,27.358,0,0,0-8.229-1.828c-4.563-.506-8.872-.985-13.767-5.878l-10.12-10.12-10.118-10.12c-5.228-5.226-9.976-5.755-14.571-6.266-4.563-.508-8.873-.986-13.765-5.878l-9.644-9.644h-1.9l10.6,10.6,20.24,20.24c4.893,4.893,5.372,9.2,5.88,13.765.51,4.594,1.037,9.343,6.264,14.57l10.118,10.12,10.121,10.119c4.893,4.893,5.371,9.2,5.878,13.766a27.313,27.313,0,0,0,1.828,8.227l-14.849-14.849-20.24-20.24c-4.893-4.892-5.372-9.2-5.88-13.767-.508-4.591-1.036-9.341-6.265-14.569l-10.118-10.119h0l-10.12-10.12c-4.893-4.894-5.371-9.2-5.879-13.765-.146-1.31-.292-2.632-.55-3.974h-1.37c.275,1.366.427,2.733.581,4.122.512,4.594,1.04,9.343,6.267,14.57l10.12,10.118h0l10.12,10.119c4.892,4.894,5.371,9.2,5.877,13.767a27.347,27.347,0,0,0,1.828,8.228l-14.849-14.85L274.607,1368.4c-4.891-4.892-5.371-9.2-5.877-13.765-.427-3.851-.869-7.81-4.079-12.07h-1.719c3.574,4.268,4.007,8.142,4.459,12.218a27.362,27.362,0,0,0,1.828,8.228l-14.849-14.85-5.6-5.6h-1.9l1.157,1.158a19.576,19.576,0,0,0-3.667-1.158h-9.266a45.084,45.084,0,0,0,4.556.669c4.563.507,8.874.985,13.767,5.878l20.24,20.239,14.849,14.851a27.285,27.285,0,0,0-8.227-1.828c-4.563-.508-8.874-.986-13.767-5.879l-10.12-10.12-10.12-10.12c-5.228-5.227-9.976-5.754-14.571-6.265-4.563-.506-8.872-.986-13.765-5.879l-1.546-1.547h-1.905l2.5,2.5,20.24,20.239c4.893,4.893,5.372,9.2,5.879,13.766.509,4.592,1.037,9.343,6.264,14.569l10.12,10.119h0l10.119,10.119c4.894,4.894,5.372,9.2,5.878,13.767a27.384,27.384,0,0,0,1.828,8.229l-14.849-14.851h0l-20.24-20.239c-4.893-4.894-5.372-9.2-5.879-13.767-.509-4.593-1.037-9.343-6.266-14.569l-10.118-10.121h0l-10.121-10.119a17.818,17.818,0,0,1-5.3-9.643h-1.368a19.22,19.22,0,0,0,5.715,10.6l10.12,10.119h0l10.121,10.12c4.892,4.894,5.37,9.2,5.877,13.766a27.3,27.3,0,0,0,1.829,8.23l-14.851-14.852h0l-20.238-20.238c-4.894-4.894-5.374-9.2-5.881-13.766-.146-1.309-.292-2.631-.55-3.973h-1.37c.275,1.366.427,2.733.582,4.122a27.291,27.291,0,0,0,1.828,8.229l-12.351-12.35h-1.9l18.691,18.692h0l14.852,14.851a27.3,27.3,0,0,0-8.23-1.828c-4.563-.507-8.874-.985-13.767-5.879l-10.119-10.12-10.12-10.119q-.239-.238-.476-.464v1.892l9.643,9.644,10.121,10.119c5.225,5.228,9.975,5.755,14.568,6.265,4.563.507,8.873.987,13.767,5.879l20.239,20.24h0l14.853,14.851a27.3,27.3,0,0,0-8.23-1.828c-4.563-.507-8.874-.986-13.767-5.879l-10.118-10.12-10.121-10.119c-5.227-5.228-9.976-5.756-14.569-6.266-4.563-.508-8.872-.986-13.765-5.879l-12.62-12.62v1.9l11.668,11.668,20.24,20.239c4.893,4.894,5.372,9.2,5.879,13.767.511,4.594,1.037,9.343,6.266,14.569l10.12,10.121h0l10.12,10.12c4.893,4.891,5.372,9.2,5.879,13.765a27.264,27.264,0,0,0,1.826,8.228l-14.851-14.849h0l-20.24-20.239c-4.893-4.893-5.371-9.2-5.877-13.766-.511-4.592-1.039-9.343-6.266-14.569l-10.12-10.12h0l-10.12-10.119a18.4,18.4,0,0,1-4.524-6.844v3.189a21.532,21.532,0,0,0,3.573,4.605l10.118,10.12h0l10.12,10.12c4.892,4.893,5.371,9.2,5.879,13.766a27.231,27.231,0,0,0,1.827,8.229l-14.85-14.851h0l-16.668-16.668v1.9l10.327,10.327a27.313,27.313,0,0,0-8.23-1.828c-.7-.078-1.4-.156-2.1-.25v1.358c.652.085,1.3.158,1.949.23,4.563.506,8.874.986,13.767,5.878l20.24,20.24h0l14.851,14.85a27.327,27.327,0,0,0-8.229-1.828c-4.563-.507-8.873-.986-13.765-5.879l-10.12-10.12-10.12-10.12a19.371,19.371,0,0,0-8.572-5.235v1.4a18.108,18.108,0,0,1,7.62,4.786l10.12,10.12,10.12,10.12c5.227,5.227,9.976,5.754,14.571,6.265,4.563.507,8.872.986,13.767,5.879l20.238,20.24,14.851,14.85a27.323,27.323,0,0,0-8.229-1.828c-4.564-.507-8.872-.986-13.767-5.878l-10.12-10.12-10.12-10.12c-5.227-5.227-9.976-5.755-14.569-6.266-4.563-.507-8.874-.985-13.767-5.879L173.41,1429.12l-.476-.475v1.916c4.447,4.693,4.913,8.867,5.4,13.276.511,4.594,1.039,9.344,6.266,14.57l10.12,10.12h0l10.12,10.12c4.893,4.893,5.372,9.2,5.879,13.766a27.311,27.311,0,0,0,1.828,8.23L197.7,1485.791h0l-20.24-20.239a18.419,18.419,0,0,1-4.524-6.843v4.222l3.573,3.572,14.849,14.852a27.29,27.29,0,0,0-8.228-1.828c-3.423-.38-6.7-.745-10.194-2.968v1.567c3.5,2.009,6.813,2.379,10.046,2.739,4.563.507,8.872.986,13.767,5.879l20.239,20.241h0l14.852,14.849a27.342,27.342,0,0,0-8.23-1.828c-4.563-.507-8.872-.984-13.766-5.878l-10.119-10.121-10.12-10.119c-5.228-5.227-9.977-5.754-14.571-6.265-.7-.079-1.4-.156-2.1-.25v1.358c.652.086,1.3.159,1.949.23,4.563.506,8.874.986,13.767,5.878l10.12,10.121,10.12,10.119c5.227,5.228,9.977,5.756,14.569,6.265,4.563.507,8.872.986,13.767,5.88l20.238,20.238h0l14.852,14.852a27.276,27.276,0,0,0-8.229-1.828c-4.563-.506-8.873-.985-13.767-5.878L240.2,1544.485l-10.121-10.119c-5.225-5.227-9.976-5.756-14.569-6.265-4.563-.506-8.873-.986-13.765-5.879l-20.24-20.239-8.572-8.573v1.9l7.62,7.621c4.893,4.893,5.372,9.2,5.879,13.765.51,4.594,1.038,9.342,6.264,14.57l10.119,10.121h0l10.121,10.118c4.893,4.893,5.371,9.2,5.878,13.767a27.327,27.327,0,0,0,1.828,8.229l-14.849-14.851-20.241-20.24c-4.892-4.893-5.371-9.2-5.877-13.766-.511-4.592-1.039-9.343-6.266-14.569l-.476-.476v1.918c4.447,4.691,4.913,8.865,5.4,13.276a27.354,27.354,0,0,0,1.829,8.227l-7.231-7.23v1.9l11.668,11.668h0l14.85,14.851a27.313,27.313,0,0,0-8.227-1.828c-4.563-.507-8.873-.987-13.767-5.879l-4.524-4.524v1.9l3.571,3.571c5.227,5.229,9.977,5.755,14.569,6.265,4.564.508,8.872.987,13.767,5.88l20.24,20.24h0l14.851,14.85a27.3,27.3,0,0,0-8.23-1.828c-4.563-.508-8.872-.985-13.767-5.878l-10.118-10.12L197.7,1566.75c-5.226-5.227-9.976-5.755-14.569-6.266-3.423-.379-6.7-.744-10.194-2.967v2.564L188.65,1575.8c4.892,4.892,5.372,9.2,5.879,13.765.509,4.595,1.037,9.343,6.264,14.57l10.12,10.12h0l10.12,10.119c4.892,4.893,5.372,9.2,5.88,13.767a27.272,27.272,0,0,0,1.828,8.23l-14.852-14.852-20.24-20.239c-4.892-4.894-5.371-9.2-5.879-13.767-.509-4.592-1.037-9.343-6.264-14.568l-8.572-8.572v1.9l7.62,7.619c4.893,4.893,5.372,9.2,5.879,13.767a27.284,27.284,0,0,0,1.828,8.228l-14.851-14.851-.476-.475v1.9l19.763,19.764h0l14.849,14.851a27.305,27.305,0,0,0-8.229-1.828c-4.564-.508-8.872-.987-13.767-5.879l-10.12-10.12-2.5-2.5v1.9l1.548,1.547,10.12,10.12c5.227,5.228,9.976,5.756,14.569,6.265,4.563.507,8.874.987,13.767,5.88l20.24,20.239h0L246.87,1666.4h1.9l-14.645-14.644c-4.893-4.892-5.371-9.2-5.878-13.767-.512-4.592-1.039-9.342-6.266-14.568l-10.119-10.12h0l-10.12-10.118c-4.893-4.894-5.372-9.2-5.879-13.767a27.327,27.327,0,0,0-1.828-8.23l14.851,14.852,20.241,20.239c4.892,4.894,5.37,9.2,5.877,13.766.511,4.592,1.039,9.343,6.264,14.568l10.121,10.12h0l10.118,10.12c.524.523.993,1.038,1.42,1.547h1.719a23.885,23.885,0,0,0-2.186-2.5l-10.12-10.12h0l-10.12-10.118c-4.893-4.893-5.372-9.2-5.879-13.767a27.307,27.307,0,0,0-1.827-8.227l14.85,14.85,20.239,20.239a17.808,17.808,0,0,1,5.3,9.643h1.37a20.07,20.07,0,0,0-1.277-4.254l4.254,4.254h1.9l-10.6-10.6-14.849-14.851a27.324,27.324,0,0,0,8.227,1.828c4.563.506,8.874.986,13.767,5.879l10.121,10.118,7.619,7.62h1.9l-8.572-8.571-10.118-10.121c-5.229-5.228-9.978-5.754-14.571-6.265-4.563-.506-8.873-.985-13.767-5.878l-20.24-20.24-14.849-14.85a27.283,27.283,0,0,0,8.228,1.828c4.563.508,8.872.985,13.767,5.88l10.119,10.12,10.12,10.119c5.228,5.227,9.976,5.754,14.571,6.266,4.563.507,8.874.984,13.767,5.878l20.24,20.239,5.594,5.6h1.905l-6.548-6.546c-4.894-4.894-5.371-9.2-5.879-13.767-.51-4.593-1.039-9.343-6.264-14.57L284.727,1621.4h0l-10.12-10.119c-4.891-4.894-5.371-9.2-5.877-13.767a27.387,27.387,0,0,0-1.828-8.228l14.851,14.85,20.24,20.239c4.892,4.893,5.371,9.2,5.877,13.767.512,4.593,1.04,9.343,6.266,14.57l10.12,10.119h0l3.573,3.572h1.9l-4.525-4.523-10.118-10.12c-4.893-4.892-5.372-9.2-5.88-13.765a27.3,27.3,0,0,0-1.827-8.228l14.851,14.849,20.24,20.24c.521.523.992,1.038,1.419,1.547h2.034l-2.5-2.5-14.849-14.849a27.335,27.335,0,0,0,8.227,1.827c4.566.507,8.874.986,13.767,5.879l9.646,9.643h1.9l-.477-.476-10.12-10.119c-5.227-5.227-9.976-5.755-14.569-6.266-4.563-.507-8.873-.985-13.767-5.878l-20.24-20.24-14.849-14.852a27.259,27.259,0,0,0,8.227,1.829c4.563.507,8.874.986,13.767,5.879l10.121,10.119,10.119,10.12c5.228,5.228,9.978,5.754,14.571,6.265,4.563.506,8.872.986,13.765,5.879L376.4,1666.4h2.035c-3.574-4.267-4.008-8.141-4.461-12.218-.51-4.592-1.039-9.343-6.264-14.568l-10.121-10.12h0l-10.118-10.12c-4.893-4.892-5.372-9.2-5.88-13.765a27.238,27.238,0,0,0-1.828-8.229l14.853,14.851,20.239,20.241c4.893,4.893,5.371,9.2,5.878,13.765.51,4.594,1.039,9.343,6.264,14.569l5.6,5.6h1.9l-6.548-6.546c-4.894-4.894-5.374-9.2-5.881-13.767a27.3,27.3,0,0,0-1.825-8.229l14.849,14.851,13.691,13.691h1.9l-9.255-9.254a27.313,27.313,0,0,0,8.229,1.828c4.564.508,8.872.987,13.767,5.879l1.548,1.547h1.9l-2.5-2.5c-5.227-5.227-9.979-5.756-14.569-6.265-4.563-.507-8.873-.987-13.766-5.88l-20.24-20.239-14.849-14.85a27.3,27.3,0,0,0,8.227,1.828c4.563.507,8.874.985,13.767,5.877l10.121,10.121,10.118,10.119c5.227,5.227,9.977,5.756,14.569,6.266,4.563.507,8.874.986,13.767,5.879l9.643,9.643h1.905l-10.6-10.6-20.239-20.24c-4.893-4.893-5.372-9.2-5.878-13.767-.51-4.592-1.039-9.342-6.264-14.567l-10.121-10.121-10.121-10.118c-4.892-4.893-5.37-9.2-5.877-13.767a27.286,27.286,0,0,0-1.829-8.229L387,1579.846l20.242,20.239c4.89,4.893,5.37,9.2,5.878,13.766.51,4.593,1.037,9.343,6.264,14.568l10.121,10.12,10.118,10.12c4.892,4.892,5.372,9.2,5.88,13.765.144,1.311.292,2.633.548,3.974h1.37c-.273-1.366-.427-2.733-.58-4.121-.512-4.594-1.04-9.344-6.266-14.57l-10.12-10.12-10.118-10.119c-4.894-4.893-5.374-9.2-5.881-13.766a27.221,27.221,0,0,0-1.828-8.228l14.852,14.849,20.24,20.24c4.893,4.893,5.37,9.2,5.877,13.767.429,3.849.871,7.811,4.079,12.068h1.718c-3.571-4.267-4.005-8.141-4.459-12.218a27.294,27.294,0,0,0-1.827-8.228l14.85,14.85,5.6,5.6h1.9l-1.159-1.157a19.51,19.51,0,0,0,3.671,1.157h9.267a44.878,44.878,0,0,0-4.561-.669c-4.563-.507-8.873-.985-13.767-5.877l-20.24-20.24-14.849-14.851a27.315,27.315,0,0,0,8.228,1.828c4.563.507,8.873.987,13.767,5.88l10.12,10.117,10.118,10.121c5.228,5.225,9.979,5.753,14.571,6.264a32.145,32.145,0,0,1,6.144,1.093v-1.4a35.016,35.016,0,0,0-5.995-1.028c-4.565-.507-8.873-.987-13.767-5.88l-10.121-10.118-10.118-10.121c-5.228-5.226-9.978-5.754-14.571-6.264-4.563-.508-8.872-.987-13.765-5.879l-20.24-20.24-14.851-14.85a27.322,27.322,0,0,0,8.229,1.829c4.563.506,8.872.985,13.767,5.878l10.12,10.12,10.12,10.12c5.227,5.226,9.975,5.755,14.569,6.266,4.563.507,8.873.985,13.766,5.877l20.239,20.24h0l12.617,12.619v-1.9L485.1,1643.66c-4.893-4.893-5.371-9.2-5.877-13.767-.512-4.593-1.04-9.342-6.266-14.569l-10.12-10.119h0l-10.12-10.12c-4.893-4.892-5.372-9.2-5.879-13.766a27.338,27.338,0,0,0-1.828-8.227l14.849,14.85L480.1,1608.18c4.892,4.893,5.371,9.2,5.878,13.767.512,4.592,1.039,9.342,6.266,14.57l4.522,4.523v-1.9l-3.57-3.572c-4.892-4.893-5.372-9.2-5.879-13.767a27.305,27.305,0,0,0-1.828-8.227l11.277,11.278v-1.9l-15.714-15.714L466.2,1592.379a27.29,27.29,0,0,0,8.227,1.826c4.565.507,8.874.987,13.766,5.88l8.571,8.57v-1.9l-7.617-7.619c-5.228-5.226-9.978-5.754-14.571-6.265-4.563-.508-8.872-.985-13.766-5.878l-20.239-20.24-14.85-14.851a27.244,27.244,0,0,0,8.229,1.828c4.563.508,8.872.987,13.767,5.88l10.118,10.119,10.12,10.121c5.225,5.225,9.976,5.753,14.568,6.265,4.565.506,8.873.986,13.766,5.878l.475.476v-1.9L477.006,1570.8c-4.893-4.892-5.372-9.2-5.881-13.766-.509-4.594-1.037-9.342-6.264-14.57l-10.118-10.119-10.121-10.12c-4.893-4.893-5.372-9.2-5.881-13.767a27.318,27.318,0,0,0-1.825-8.227l14.849,14.849,20.24,20.24c4.893,4.893,5.372,9.2,5.88,13.766.508,4.594,1.036,9.343,6.264,14.57l10.118,10.12,2.5,2.5v-1.9l-1.546-1.548L485.1,1562.7c-4.893-4.893-5.371-9.2-5.877-13.765a27.332,27.332,0,0,0-1.829-8.229l14.85,14.851,4.522,4.523v-2.564a21.345,21.345,0,0,1-3.57-2.911l-20.239-20.24-14.851-14.849a27.319,27.319,0,0,0,8.227,1.826c4.565.507,8.875.986,13.768,5.88l10.12,10.12,6.546,6.547v-1.9l-5.593-5.6-10.121-10.119c-5.227-5.227-9.976-5.755-14.569-6.266-4.563-.507-8.873-.984-13.767-5.878l-20.24-20.24-14.849-14.851a27.272,27.272,0,0,0,8.227,1.828c4.563.507,8.873.986,13.767,5.879l10.121,10.12,10.118,10.121c5.227,5.225,9.978,5.754,14.569,6.265,4.565.506,8.874.987,13.766,5.878l8.571,8.572v-1.9l-7.62-7.62-20.239-20.238c-4.893-4.894-5.37-9.2-5.878-13.766-.51-4.593-1.039-9.343-6.264-14.57l-10.121-10.12h0l-10.119-10.121c-4.892-4.893-5.372-9.2-5.88-13.766a27.306,27.306,0,0,0-1.828-8.228l14.851,14.85,20.241,20.24c4.891,4.892,5.371,9.2,5.877,13.766.512,4.593,1.037,9.342,6.264,14.569l10.121,10.12h0l10.118,10.121c.164.164.322.326.475.489V1509.6l-9.643-9.644h0l-10.118-10.12c-4.893-4.892-5.372-9.2-5.881-13.767a27.246,27.246,0,0,0-1.828-8.228L484.15,1482.7l12.617,12.619v-1.9l-6.276-6.277a22.8,22.8,0,0,0,6.276,1.6v-1.358a18.3,18.3,0,0,1-11.666-5.629l-20.24-20.24-14.849-14.851a27.255,27.255,0,0,0,8.227,1.829c4.563.507,8.873.986,13.767,5.879l10.121,10.12,10.119,10.12a21.675,21.675,0,0,0,4.522,3.525v-1.567a21.129,21.129,0,0,1-3.57-2.911l-10.119-10.119-10.121-10.12c-5.226-5.227-9.976-5.754-14.568-6.265-4.563-.507-8.874-.986-13.767-5.878l-20.24-20.239-14.852-14.851a27.36,27.36,0,0,0,8.229,1.827c4.563.506,8.874.986,13.767,5.879L441.644,1424l10.121,10.121c5.225,5.227,9.976,5.755,14.568,6.265,4.565.508,8.873.986,13.767,5.879l16.667,16.668v-4.222a29.085,29.085,0,0,1-1.354-6.926c-.509-4.592-1.037-9.342-6.266-14.569L479.029,1427.1h0l-10.121-10.12c-4.893-4.893-5.37-9.2-5.878-13.766a27.316,27.316,0,0,0-1.828-8.229l14.849,14.851,20.24,20.24q.246.246.475.489v-1.916l-14.374-14.375a27.32,27.32,0,0,0,8.23,1.827,32.229,32.229,0,0,1,6.144,1.093v-1.4a35.111,35.111,0,0,0-6-1.029c-4.563-.507-8.874-.986-13.764-5.879l-20.24-20.239-14.852-14.851a27.3,27.3,0,0,0,8.23,1.828c4.563.506,8.873.986,13.766,5.878l10.118,10.12,10.121,10.12a19.773,19.773,0,0,0,12.617,6.035v-1.358a18.29,18.29,0,0,1-11.666-5.629Zm-92.911,12.546c-.509-4.594-1.037-9.343-6.264-14.569l-10.118-10.121-10.121-10.12c-4.892-4.892-5.371-9.2-5.88-13.765a27.326,27.326,0,0,0-1.825-8.229l14.849,14.851,20.24,20.239c4.892,4.894,5.372,9.2,5.879,13.767.509,4.592,1.037,9.342,6.266,14.569l10.118,10.12,10.121,10.12c4.893,4.893,5.37,9.2,5.877,13.766a27.3,27.3,0,0,0,1.829,8.229l-14.85-14.852-20.239-20.239C383.057,1412.084,382.578,1407.773,382.071,1403.211ZM404.143,1562.7c-4.893-4.893-5.372-9.2-5.879-13.765-.51-4.593-1.037-9.343-6.266-14.569l-10.118-10.12h0l-10.121-10.119c-4.893-4.892-5.37-9.2-5.879-13.766a27.329,27.329,0,0,0-1.827-8.229l14.849,14.851,20.24,20.24c4.894,4.892,5.374,9.2,5.881,13.766.509,4.592,1.037,9.342,6.264,14.568l10.118,10.121,10.121,10.119c4.893,4.892,5.371,9.2,5.878,13.765a27.265,27.265,0,0,0,1.831,8.229l-14.852-14.849h0ZM298.9,1586.99c-4.894-4.893-5.374-9.2-5.88-13.767-.509-4.593-1.037-9.342-6.264-14.569l-10.12-10.12h0l-10.12-10.12c-4.893-4.893-5.372-9.2-5.879-13.766a27.273,27.273,0,0,0-1.827-8.227l14.85,14.85,20.239,20.239c4.893,4.893,5.372,9.2,5.879,13.767.509,4.592,1.037,9.343,6.266,14.57l10.118,10.119h0l10.119,10.121c4.893,4.893,5.373,9.2,5.879,13.766a27.283,27.283,0,0,0,1.826,8.228l-14.849-14.849h0Zm64.767-64.767c-4.893-4.893-5.372-9.2-5.879-13.767-.509-4.592-1.037-9.342-6.266-14.569l-10.12-10.12h0l-10.119-10.12c-4.893-4.893-5.373-9.2-5.879-13.766a27.262,27.262,0,0,0-1.828-8.229l14.852,14.85,20.238,20.24c4.894,4.893,5.371,9.2,5.879,13.765.51,4.594,1.039,9.344,6.266,14.57l10.12,10.12,10.12,10.119c4.894,4.893,5.371,9.2,5.877,13.766a27.371,27.371,0,0,0,1.829,8.23l-14.85-14.852h0Zm13.9,15.8a27.31,27.31,0,0,0-8.23-1.829c-4.563-.507-8.874-.986-13.767-5.879L345.448,1520.2l-10.121-10.12c-5.228-5.227-9.976-5.754-14.571-6.265-4.563-.507-8.873-.985-13.765-5.877l-20.24-20.241-14.851-14.85a27.345,27.345,0,0,0,8.228,1.828c4.563.507,8.874.986,13.767,5.88l10.12,10.118,10.12,10.121c5.227,5.227,9.977,5.754,14.569,6.265,4.563.508,8.873.987,13.767,5.88l20.24,20.239h0Zm-58.427-92.713-14.851-14.851a27.309,27.309,0,0,0,8.228,1.828c4.563.506,8.873.986,13.767,5.878l10.12,10.12,10.12,10.12c5.227,5.227,9.974,5.754,14.569,6.265,4.563.507,8.874.986,13.767,5.88l20.24,20.239,14.849,14.851a27.317,27.317,0,0,0-8.227-1.828c-4.563-.507-8.874-.985-13.767-5.877l-10.121-10.121L367.712,1477.7c-5.228-5.227-9.979-5.756-14.571-6.266-4.563-.507-8.872-.986-13.767-5.879Zm-.951.952c4.892,4.891,5.37,9.2,5.878,13.765.51,4.593,1.038,9.343,6.264,14.57l10.121,10.12h0l10.121,10.119c4.89,4.894,5.37,9.2,5.878,13.766a27.285,27.285,0,0,0,1.828,8.23l-14.852-14.852h0l-20.241-20.24c-4.893-4.894-5.371-9.2-5.877-13.767-.512-4.593-1.039-9.342-6.264-14.57l-10.121-10.119-10.12-10.12c-4.893-4.893-5.372-9.2-5.879-13.766a27.319,27.319,0,0,0-1.828-8.227l14.851,14.85Zm4.047,36.43,14.853,14.852a27.338,27.338,0,0,0-8.23-1.828c-4.564-.507-8.873-.987-13.766-5.88l-10.121-10.118L294.848,1469.6c-5.227-5.226-9.977-5.754-14.569-6.265-4.563-.507-8.874-.986-13.767-5.879l-20.24-20.24-14.849-14.851a27.286,27.286,0,0,0,8.227,1.828c4.563.507,8.874.986,13.767,5.879l10.12,10.12,10.12,10.12c5.227,5.226,9.975,5.754,14.569,6.266,4.563.506,8.873.986,13.767,5.878l20.239,20.24Zm-56.67-24.287,20.24,20.24c4.893,4.893,5.371,9.2,5.877,13.766.511,4.592,1.039,9.343,6.266,14.57l10.12,10.118,10.121,10.121c4.892,4.892,5.37,9.2,5.878,13.766a27.283,27.283,0,0,0,1.828,8.227l-14.849-14.85h0l-20.241-20.24c-4.893-4.892-5.372-9.2-5.879-13.766-.511-4.594-1.039-9.343-6.264-14.57l-10.121-10.12-10.119-10.119c-4.893-4.893-5.372-9.2-5.881-13.767a27.3,27.3,0,0,0-1.826-8.227Zm64.766,97.151h0l14.852,14.851a27.254,27.254,0,0,0-8.23-1.828c-4.563-.508-8.873-.987-13.767-5.881l-10.118-10.118-10.121-10.121c-5.225-5.225-9.975-5.753-14.569-6.265-4.563-.507-8.872-.986-13.767-5.879l-20.238-20.239-14.851-14.851a27.3,27.3,0,0,0,8.229,1.828c4.564.508,8.872.986,13.767,5.879l10.12,10.119,10.12,10.12c5.226,5.226,9.976,5.754,14.568,6.266,4.563.506,8.874.985,13.767,5.877ZM280,1535.706a27.246,27.246,0,0,0,8.23,1.828c4.563.507,8.873.987,13.767,5.88l10.118,10.119,10.121,10.12c5.226,5.227,9.976,5.754,14.568,6.265,4.566.506,8.874.987,13.767,5.879l20.24,20.24h0l14.851,14.851a27.337,27.337,0,0,0-8.229-1.828c-4.563-.507-8.874-.987-13.765-5.879l-10.12-10.12-10.121-10.119c-5.225-5.227-9.976-5.755-14.568-6.266-4.565-.506-8.873-.984-13.766-5.878l-20.24-20.238Zm71.523,39.139-20.239-20.239c-4.893-4.894-5.373-9.2-5.879-13.767-.509-4.592-1.037-9.343-6.264-14.57l-10.12-10.118L298.9,1506.03c-4.894-4.893-5.374-9.2-5.88-13.766a27.319,27.319,0,0,0-1.826-8.228l14.85,14.85,20.239,20.24c4.893,4.892,5.373,9.2,5.879,13.766.509,4.594,1.037,9.343,6.266,14.569l10.118,10.12,10.12,10.12c4.894,4.893,5.371,9.2,5.879,13.767a27.275,27.275,0,0,0,1.829,8.23Zm-39.139-71.522a27.3,27.3,0,0,0,8.23,1.828c4.563.507,8.872.986,13.765,5.879l10.12,10.12,10.121,10.12c5.225,5.228,9.975,5.754,14.568,6.264,4.563.507,8.874.987,13.767,5.88l20.239,20.239h0l14.852,14.849a27.365,27.365,0,0,0-8.229-1.828c-4.563-.506-8.873-.984-13.766-5.878l-10.12-10.12-10.12-10.119c-5.225-5.228-9.976-5.756-14.571-6.266-4.563-.508-8.872-.986-13.764-5.88l-20.241-20.24Zm47.234-17.533-14.85-14.85a27.313,27.313,0,0,0,8.227,1.827c4.564.508,8.874.986,13.767,5.879l10.121,10.121L387,1498.886c5.228,5.227,9.979,5.755,14.571,6.265,4.563.507,8.872.986,13.767,5.879l20.24,20.24,14.849,14.849a27.3,27.3,0,0,0-8.229-1.826c-4.563-.508-8.872-.986-13.765-5.88l-10.12-10.12-10.12-10.12c-5.228-5.228-9.976-5.755-14.571-6.264-4.563-.507-8.874-.986-13.764-5.88Zm56.672,24.288-20.24-20.24c-4.894-4.892-5.371-9.2-5.878-13.767-.512-4.593-1.039-9.341-6.266-14.569l-10.119-10.12-10.12-10.12c-4.893-4.892-5.372-9.2-5.879-13.765a27.31,27.31,0,0,0-1.828-8.229l14.849,14.85,20.241,20.24c4.892,4.893,5.371,9.2,5.877,13.765.512,4.594,1.04,9.344,6.266,14.57l10.12,10.12h0l10.12,10.12c4.893,4.893,5.372,9.2,5.879,13.765a27.326,27.326,0,0,0,1.828,8.229Zm-64.767-97.15-14.851-14.85a27.3,27.3,0,0,0,8.23,1.827c4.563.507,8.872.985,13.765,5.879l10.12,10.121,10.119,10.119c5.226,5.227,9.976,5.755,14.571,6.266,4.563.506,8.874.986,13.767,5.878l20.24,20.24,14.849,14.849a27.33,27.33,0,0,0-8.229-1.826c-4.563-.507-8.874-.986-13.764-5.879l-10.121-10.12L400.1,1445.313c-5.228-5.228-9.978-5.755-14.571-6.265-4.563-.507-8.873-.987-13.767-5.88Zm-55.33-55.33a27.274,27.274,0,0,0,8.229,1.828c4.563.507,8.872.986,13.765,5.879l10.12,10.12,10.121,10.119c5.225,5.229,9.976,5.755,14.567,6.265,4.564.508,8.874.987,13.767,5.88l20.24,20.24,14.852,14.85a27.3,27.3,0,0,0-8.23-1.828c-4.563-.508-8.874-.985-13.767-5.878l-10.118-10.121-10.121-10.118c-5.226-5.228-9.976-5.755-14.569-6.266-4.563-.507-8.871-.985-13.765-5.879l-20.24-20.239Zm53.5,77.995c-.509-4.592-1.037-9.342-6.264-14.569L333.3,1410.9l-10.121-10.12c-4.893-4.894-5.371-9.2-5.877-13.767a27.332,27.332,0,0,0-1.828-8.229l14.85,14.852,20.239,20.238c4.893,4.894,5.372,9.2,5.881,13.767.508,4.594,1.036,9.343,6.264,14.569l10.121,10.12,10.118,10.119c4.892,4.892,5.372,9.2,5.879,13.766a27.3,27.3,0,0,0,1.828,8.228L375.807,1469.6l-20.24-20.24C350.675,1444.466,350.2,1440.157,349.687,1435.594Zm4.93,14.718,14.849,14.85a27.327,27.327,0,0,0-8.23-1.828c-4.563-.507-8.872-.986-13.764-5.879l-10.121-10.12-10.12-10.12c-5.227-5.226-9.976-5.754-14.568-6.265-4.564-.508-8.873-.986-13.766-5.88l-20.239-20.239-14.85-14.851a27.287,27.287,0,0,0,8.227,1.828c4.563.508,8.874.987,13.767,5.88l10.118,10.118,10.121,10.121c5.225,5.226,9.976,5.753,14.568,6.264,4.564.507,8.874.986,13.767,5.879ZM223.326,1349.5a27.362,27.362,0,0,0,8.229,1.828c4.564.506,8.874.986,13.767,5.878l10.119,10.12,10.121,10.12c5.225,5.226,9.976,5.755,14.568,6.266,4.563.507,8.874.985,13.767,5.878l20.24,20.24,14.851,14.851a27.284,27.284,0,0,0-8.229-1.829c-4.563-.507-8.873-.986-13.765-5.879l-10.12-10.118-10.12-10.121c-5.225-5.226-9.976-5.755-14.569-6.265-4.564-.506-8.872-.986-13.765-5.878l-20.24-20.24Zm53.5,78c-.51-4.594-1.039-9.342-6.266-14.57l-10.12-10.12h0l-10.121-10.12c-4.892-4.893-5.37-9.2-5.878-13.766a27.294,27.294,0,0,0-1.828-8.227l14.849,14.849,20.24,20.24c4.894,4.893,5.374,9.2,5.88,13.766.51,4.593,1.037,9.342,6.264,14.569l10.121,10.12,10.118,10.12c4.893,4.892,5.372,9.2,5.88,13.765a27.24,27.24,0,0,0,1.829,8.229l-14.853-14.85h0l-20.239-20.24C277.811,1436.371,277.333,1432.061,276.826,1427.5Zm-85.883-45.612a27.333,27.333,0,0,0,8.228,1.827c4.563.507,8.874.986,13.767,5.879l10.118,10.12,10.121,10.12c5.227,5.227,9.976,5.755,14.569,6.265,4.563.508,8.872.986,13.765,5.879l20.241,20.24h0l14.849,14.852a27.257,27.257,0,0,0-8.229-1.83c-4.563-.507-8.874-.985-13.767-5.879l-10.119-10.12L254.37,1429.12c-5.227-5.228-9.977-5.755-14.569-6.265-4.563-.507-8.874-.986-13.767-5.879l-20.24-20.24Zm59.377,91.76c-4.892-4.893-5.37-9.2-5.878-13.766-.51-4.594-1.039-9.342-6.264-14.569l-10.121-10.12h0l-10.12-10.118c-4.891-4.894-5.371-9.2-5.879-13.767a27.3,27.3,0,0,0-1.828-8.229l14.851,14.852,20.24,20.239c4.892,4.894,5.372,9.2,5.879,13.766.51,4.593,1.039,9.342,6.264,14.569l10.121,10.12,10.118,10.12c4.894,4.893,5.374,9.2,5.88,13.765a27.33,27.33,0,0,0,1.829,8.23l-14.853-14.851h0Zm-43.054-17.07c4.563.506,8.873.985,13.767,5.877l10.121,10.12,10.118,10.12c5.228,5.226,9.977,5.755,14.569,6.265,4.563.506,8.874.986,13.767,5.878l20.24,20.24h0l14.852,14.852a27.281,27.281,0,0,0-8.229-1.828c-4.563-.506-8.874-.986-13.767-5.879l-10.12-10.12-10.12-10.119c-5.227-5.228-9.977-5.755-14.569-6.265-4.563-.507-8.874-.987-13.767-5.88l-20.24-20.239-14.849-14.85A27.291,27.291,0,0,0,207.267,1456.577Zm30.91,69.694h0l-20.241-20.24c-4.891-4.893-5.371-9.2-5.879-13.765-.51-4.593-1.037-9.343-6.264-14.57l-10.121-10.119h0l-10.118-10.12c-4.893-4.893-5.372-9.2-5.879-13.767a27.325,27.325,0,0,0-1.828-8.228l14.852,14.851,20.239,20.24c4.893,4.892,5.371,9.2,5.878,13.765.512,4.593,1.04,9.343,6.266,14.569l10.12,10.12h0l10.12,10.119c4.892,4.892,5.372,9.2,5.879,13.766a27.343,27.343,0,0,0,1.828,8.229Zm20.241,20.239c-4.893-4.893-5.372-9.2-5.881-13.765-.509-4.6-1.037-9.342-6.264-14.571l-10.119-10.12h0l-10.12-10.119c-4.893-4.894-5.372-9.2-5.881-13.766a27.275,27.275,0,0,0-1.826-8.229l14.851,14.85,20.24,20.24c4.893,4.893,5.371,9.2,5.879,13.766.51,4.592,1.037,9.343,6.266,14.569l10.119,10.12h0l10.121,10.121c4.893,4.894,5.371,9.2,5.877,13.765a27.316,27.316,0,0,0,1.829,8.229l-14.849-14.851h0Zm-43.054-17.07c4.563.506,8.872.985,13.767,5.877l10.119,10.121,10.12,10.12c5.225,5.226,9.976,5.754,14.568,6.266,4.563.507,8.874.984,13.767,5.877l20.239,20.24h0l14.852,14.851a27.258,27.258,0,0,0-8.23-1.827c-4.563-.508-8.873-.987-13.765-5.88l-10.12-10.119-10.121-10.121c-5.225-5.227-9.976-5.755-14.568-6.264-4.564-.508-8.872-.987-13.767-5.881l-20.24-20.239-14.849-14.849A27.361,27.361,0,0,0,215.364,1529.44Zm10.67,49.452c-4.893-4.893-5.372-9.2-5.881-13.766-.509-4.592-1.037-9.342-6.264-14.568l-10.118-10.121h0l-10.121-10.12c-4.892-4.892-5.371-9.2-5.879-13.765a27.345,27.345,0,0,0-1.826-8.229l14.849,14.851,20.24,20.24c4.892,4.893,5.372,9.2,5.88,13.766.509,4.592,1.037,9.342,6.264,14.568l10.118,10.12h0l10.12,10.12c4.893,4.892,5.371,9.2,5.879,13.765a27.328,27.328,0,0,0,1.827,8.23l-14.85-14.851Zm46.148,54.454c-4.563-.507-8.872-.986-13.764-5.879L248.3,1617.349l-10.12-10.12c-5.227-5.228-9.977-5.756-14.569-6.265-4.563-.508-8.872-.987-13.766-5.88L189.6,1574.845,174.751,1560a27.285,27.285,0,0,0,8.229,1.828c4.563.507,8.872.984,13.767,5.877l10.118,10.121,10.121,10.119c5.226,5.228,9.976,5.756,14.569,6.264,4.564.507,8.874.987,13.767,5.88l20.239,20.239h0l14.85,14.851A27.3,27.3,0,0,0,272.181,1633.347Zm-4.79-35.687c.51,4.592,1.037,9.342,6.266,14.569l10.119,10.12h0l10.118,10.121c4.893,4.893,5.372,9.2,5.879,13.766a27.32,27.32,0,0,0,1.826,8.227l-14.849-14.849h0l-20.24-20.24c-4.893-4.892-5.372-9.2-5.879-13.765-.511-4.595-1.039-9.343-6.264-14.57l-10.12-10.12h0L234.128,1570.8c-4.893-4.892-5.371-9.2-5.878-13.766a27.3,27.3,0,0,0-1.828-8.227l14.849,14.849,20.241,20.24C266.4,1588.786,266.884,1593.1,267.391,1597.66Zm77.655,43.783c-4.565-.506-8.873-.985-13.767-5.879l-10.12-10.119-10.12-10.121c-5.227-5.226-9.977-5.754-14.569-6.265-4.563-.507-8.874-.986-13.767-5.877l-20.24-20.24-14.849-14.851a27.293,27.293,0,0,0,8.227,1.828c4.563.506,8.874.987,13.767,5.879l10.12,10.119,10.12,10.121c5.228,5.225,9.976,5.753,14.571,6.264,4.563.508,8.872.985,13.765,5.878l20.241,20.241,14.849,14.851A27.363,27.363,0,0,0,345.046,1641.443Zm-4.792-35.688c.512,4.594,1.037,9.342,6.266,14.57l10.12,10.119h0l10.118,10.12c4.894,4.893,5.374,9.2,5.88,13.767a27.262,27.262,0,0,0,1.829,8.229l-14.852-14.852h0l-20.24-20.239c-4.893-4.893-5.37-9.2-5.878-13.766-.51-4.593-1.038-9.342-6.266-14.57l-10.119-10.119h0l-10.12-10.121c-4.894-4.893-5.371-9.2-5.879-13.766a27.285,27.285,0,0,0-1.828-8.228l14.851,14.85,20.24,20.24C339.268,1596.881,339.748,1601.191,340.254,1605.754Zm71.033,30.762,14.849,14.849a27.307,27.307,0,0,0-8.227-1.828c-4.563-.507-8.873-.985-13.767-5.878l-10.121-10.121L383.9,1623.42c-5.227-5.227-9.976-5.755-14.569-6.266-4.563-.506-8.874-.985-13.767-5.878l-20.239-20.24-14.85-14.849a27.3,27.3,0,0,0,8.227,1.826c4.563.507,8.873.986,13.767,5.88l10.121,10.12,10.118,10.119c5.227,5.228,9.976,5.755,14.569,6.265,4.563.507,8.873.986,13.767,5.879l20.24,20.24Zm-38.649-63.145c.51,4.594,1.037,9.343,6.264,14.569l10.121,10.121,10.118,10.118c4.894,4.893,5.374,9.2,5.881,13.767a27.245,27.245,0,0,0,1.828,8.229L392,1615.324l-20.24-20.24c-4.893-4.892-5.37-9.2-5.879-13.766-.51-4.592-1.037-9.343-6.266-14.569l-10.118-10.12-10.121-10.119c-4.893-4.893-5.37-9.2-5.878-13.765a27.283,27.283,0,0,0-1.828-8.23l14.851,14.851,20.238,20.24C371.652,1564.5,372.132,1568.808,372.638,1573.371Zm77.652,43.785c-4.563-.507-8.872-.986-13.764-5.879l-10.121-10.12-10.118-10.12c-5.228-5.228-9.977-5.756-14.569-6.265-4.566-.506-8.874-.986-13.767-5.879l-20.24-20.239L352.86,1543.8a27.329,27.329,0,0,0,8.229,1.828c4.563.507,8.874.985,13.767,5.878l10.118,10.121,10.121,10.119c5.225,5.227,9.976,5.756,14.568,6.265,4.564.508,8.872.986,13.767,5.88l20.24,20.239h0l14.849,14.852A27.235,27.235,0,0,0,450.29,1617.156ZM439.621,1567.7c4.892,4.893,5.372,9.2,5.88,13.767.509,4.592,1.037,9.343,6.264,14.569l10.121,10.12,10.118,10.121c4.893,4.894,5.372,9.2,5.88,13.766a27.248,27.248,0,0,0,1.828,8.229l-14.853-14.851h0l-20.239-20.24c-4.893-4.892-5.371-9.2-5.881-13.765-.509-4.6-1.037-9.343-6.264-14.57l-10.118-10.12h0l-10.121-10.119c-4.893-4.894-5.372-9.2-5.878-13.767a27.325,27.325,0,0,0-1.828-8.228l14.849,14.849Zm51.283,18.9a27.254,27.254,0,0,0-8.229-1.829c-4.563-.506-8.873-.986-13.767-5.879l-10.118-10.119-10.121-10.12c-5.225-5.227-9.976-5.754-14.569-6.265-4.563-.507-8.871-.987-13.764-5.88l-20.24-20.24-14.852-14.849a27.336,27.336,0,0,0,8.229,1.828c4.563.506,8.874.985,13.767,5.878l10.118,10.12,10.121,10.12c5.225,5.226,9.976,5.755,14.568,6.266,4.563.507,8.873.985,13.767,5.878l20.238,20.239Zm-59.378-91.762c4.893,4.894,5.371,9.2,5.878,13.766.512,4.593,1.04,9.343,6.266,14.57l10.12,10.119,10.121,10.121c4.891,4.893,5.371,9.2,5.877,13.765a27.35,27.35,0,0,0,1.828,8.229l-14.849-14.849-20.24-20.241c-4.892-4.892-5.372-9.2-5.88-13.765-.51-4.594-1.039-9.343-6.264-14.569l-10.121-10.12h0l-10.118-10.12c-4.893-4.894-5.372-9.2-5.879-13.767a27.305,27.305,0,0,0-1.828-8.227l14.852,14.85Zm51.282,18.9a27.285,27.285,0,0,0-8.229-1.828c-4.563-.507-8.872-.986-13.766-5.88l-10.12-10.118-10.119-10.121c-5.228-5.227-9.977-5.755-14.569-6.265-4.563-.507-8.874-.986-13.767-5.879L392,1453.408l-14.85-14.851a27.285,27.285,0,0,0,8.227,1.828c4.563.508,8.874.986,13.767,5.879l10.121,10.119,10.118,10.119c5.228,5.228,9.976,5.755,14.571,6.265,4.563.508,8.872.986,13.767,5.879l20.238,20.239Zm-59.378-91.762c4.893,4.893,5.372,9.2,5.879,13.766.509,4.592,1.037,9.343,6.266,14.569l10.119,10.119h0l10.12,10.121c4.893,4.892,5.372,9.2,5.879,13.765a27.24,27.24,0,0,0,1.828,8.228L448.669,1477.7l-20.238-20.24c-4.894-4.892-5.371-9.2-5.88-13.765-.51-4.594-1.037-9.342-6.264-14.57L406.166,1419l-10.12-10.12c-4.894-4.892-5.371-9.2-5.878-13.767a27.348,27.348,0,0,0-1.828-8.226l14.849,14.849Zm43.054,17.072c-4.563-.507-8.873-.987-13.767-5.879l-10.118-10.12-10.121-10.12c-5.225-5.228-9.976-5.754-14.569-6.265-4.564-.507-8.873-.986-13.765-5.879l-20.24-20.24-14.851-14.851a27.319,27.319,0,0,0,8.229,1.829c4.563.507,8.873.985,13.767,5.879l10.12,10.12,10.12,10.12c5.225,5.226,9.976,5.754,14.568,6.266,4.563.506,8.873.985,13.767,5.878l20.239,20.24,14.85,14.849A27.3,27.3,0,0,0,466.483,1439.048Zm-10.67-49.453c4.893,4.892,5.372,9.2,5.879,13.765.509,4.593,1.037,9.343,6.264,14.57l10.12,10.119h0l10.119,10.119c4.894,4.894,5.372,9.2,5.878,13.766a27.376,27.376,0,0,0,1.828,8.228l-14.849-14.849-20.24-20.24c-4.892-4.894-5.372-9.2-5.879-13.767-.509-4.593-1.037-9.342-6.266-14.569l-10.118-10.12h0l-10.12-10.12c-4.894-4.893-5.374-9.2-5.88-13.766a27.283,27.283,0,0,0-1.827-8.228l14.851,14.849Z" transform="translate(-172.934 -1342.566)"/></g></g></g></g></g><g transform="translate(0 -19)"><g transform="translate(955.716 295.755)"><g transform="translate(22.272 64.493) rotate(8)"><path class="k" d="M81.713,157.537c-4.209-.752-8.493-1.744-12.048-4.12S63.387,147,63.688,142.735c.318-4.517,3.746-8.084,6.5-11.677s5.043-8.515,2.878-12.494c-1.438-2.644-4.419-4-7.244-5.042C54.905,109.5,43.2,107.474,32.9,102.059c-3.271-1.719-6.467-3.866-8.42-7s-2.381-7.456-.2-10.439c2.43-3.325,7.009-3.977,10.817-5.546s7.484-5.934,5.311-9.431c-1.231-1.982-3.766-2.611-6.029-3.187C20.97,63.04,8.068,54.858,2.426,42.229.381,37.651-.648,32.471.44,27.576S4.983,18.165,9.759,16.64c9.593-3.065,19.514,6.283,29.4,4.358,6.611-1.287,11.134-7.161,15.593-12.207S65.4-1.207,71.973.263a15.884,15.884,0,0,1,6.6,3.621C90.693,14.113,93.534,31.316,100.624,45.5a13.649,13.649,0,0,0,3.935,5.265c4.362,3.1,10.372.816,15.131-1.627s10.561-4.985,15.164-2.258c4.486,2.659,5.152,8.767,5.318,13.979l.631,19.852c.271,8.482,1.015,18.007,7.45,23.538,2.016,1.733,4.483,2.945,6.248,4.933,4.42,4.982,2.948,12.656,1.215,19.085-1.337,4.961-2.7,9.985-5.258,14.441C138.313,163.871,102.057,161.171,81.713,157.537Z" transform="translate(0 0)"/><path class="l" d="M135.316,125.7a1.021,1.021,0,0,1-.871-.486,115.231,115.231,0,0,0-9.761-13,131.759,131.759,0,0,1-9.579-12.6,10.5,10.5,0,0,0-1.136-.828,10.121,10.121,0,0,1-1.522-1.151l-.058-.064A442.039,442.039,0,0,0,.5,1.9,1.024,1.024,0,0,1,1.552.147a444.039,444.039,0,0,1,112.37,96.061,9.77,9.77,0,0,0,1.182.868,10.226,10.226,0,0,1,1.52,1.151l.138.17a128.892,128.892,0,0,0,9.5,12.507,118.2,118.2,0,0,1,9.926,13.233,1.022,1.022,0,0,1-.87,1.561Z" transform="translate(9.386 25.365)"/><path class="l" d="M10.148,61.826,2.039.887a1.024,1.024,0,0,0-2.03.271l8.009,60.18A7.238,7.238,0,0,1,10.148,61.826Z" transform="translate(65.843 12.307)"/><path class="l" d="M1.022,8.2A1.024,1.024,0,0,1,.766,6.19C9.457,3.927,17.238,2.025,26,.025a1.024,1.024,0,0,1,.456,2c-8.738,1.994-16.5,3.892-25.173,6.15A1.007,1.007,0,0,1,1.022,8.2Z" transform="translate(12.601 44.502)"/><path class="l" d="M4.369,12.642a1.022,1.022,0,0,1-.984-.751C2.337,8.111,1.373,5.062.06,1.367A1.023,1.023,0,1,1,1.987.681C3.319,4.425,4.3,7.515,5.356,11.346a1.024,1.024,0,0,1-.987,1.3Z" transform="translate(21.489 23.063)"/><path class="l" d="M1.023,7.226A1.023,1.023,0,0,1,.915,5.185C8.273,4.4,16.13,3.483,23.73,2.6S39.21.794,46.583.005A1.024,1.024,0,0,1,46.8,2.041c-7.364.788-15.228,1.7-22.834,2.59S8.5,6.433,1.133,7.221C1.1,7.224,1.06,7.226,1.023,7.226Z" transform="translate(48.372 92.166)"/><path class="l" d="M1.575,62.758a1.024,1.024,0,0,1-.993-.78A31.892,31.892,0,0,1,.1,52.986C.862,35.307,2.015,18.28,3.622.93a1.023,1.023,0,1,1,2.038.188C4.057,18.436,2.906,35.43,2.141,53.075A30.345,30.345,0,0,0,2.57,61.49a1.023,1.023,0,0,1-.751,1.237A.991.991,0,0,1,1.575,62.758Z" transform="translate(119.957 59.564)"/></g><g transform="translate(379.488 42.493)"><path class="m" d="M1814.4,953.868c-.755-3.635-1.342-7.409-.578-11.042s3.142-7.134,6.677-8.272c3.743-1.206,7.727.4,11.514,1.465s8.493,1.309,11-1.722c1.665-2.014,1.794-4.855,1.72-7.467-.288-10.1-2.443-20.193-1.411-30.248.327-3.191,1.023-6.463,2.919-9.052s5.239-4.329,8.348-3.537c3.465.882,5.473,4.362,7.968,6.924s7.2,4.113,9.318,1.231c1.2-1.635.886-3.881.62-5.891-1.584-11.907.838-24.951,9.19-33.583a20.628,20.628,0,0,1,11.168-6.341c4.3-.706,9.053.619,11.828,3.974,5.573,6.74,1.247,17.76,6,25.1,3.174,4.911,9.373,6.656,14.88,8.619s11.5,5.35,12.444,11.122a13.8,13.8,0,0,1-.783,6.493c-4.325,13.074-17.271,20.929-26.411,31.229a11.858,11.858,0,0,0-2.97,4.875c-1.085,4.517,2.7,8.624,6.2,11.67s7.434,6.9,6.725,11.49c-.692,4.476-5.4,6.988-9.545,8.808l-15.8,6.93c-6.748,2.96-14.185,6.641-16.561,13.616-.744,2.186-.923,4.567-1.955,6.632-2.585,5.174-9.246,6.469-14.988,7.152-4.43.526-8.921,1.052-13.339.433C1827.6,1001.535,1818.054,971.44,1814.4,953.868Z" transform="translate(-1809.864 -846.149)"/><path class="l" d="M1816.5,1029.521c-.256,0-4.853,2.417-5.053,2.223-.4-.394-.4-5.255,0-5.659,36.1-37.133,55-68.638,67.3-102.336,13.753-37.661,18.835-67.541,18.551-70.884a1.023,1.023,0,1,1,2.038-.174c.332,3.9-4.84,33.9-18.667,71.76-12.375,33.886-23.177,66.667-59.526,104.059A34.892,34.892,0,0,1,1816.5,1029.521Z" transform="translate(-1811.146 -844.942)"/><path class="l" d="M1914.942,886.238a1.024,1.024,0,0,0-1.4-.388l-45.273,25.559a8.41,8.41,0,0,1-.133,2.426l46.412-26.2A1.022,1.022,0,0,0,1914.942,886.238Z" transform="translate(-1798.089 -837.628)"/><path class="l" d="M1879.609,880.984a1.021,1.021,0,0,1-.842-.44c-4.439-6.4-8.477-12.048-13.1-18.295a1.024,1.024,0,0,1,1.647-1.217c4.629,6.265,8.68,11.923,13.131,18.345a1.024,1.024,0,0,1-.258,1.424A1.013,1.013,0,0,1,1879.609,880.984Z" transform="translate(-1798.664 -843.034)"/><path class="l" d="M1881.026,867.339a1.024,1.024,0,0,1-.622-1.838c2.708-2.066,4.852-3.826,7.4-6.077a1.023,1.023,0,0,1,1.355,1.534c-2.587,2.285-4.763,4.073-7.512,6.17A1.013,1.013,0,0,1,1881.026,867.339Z" transform="translate(-1795.535 -843.346)"/><path class="l" d="M1864,933.94a1.022,1.022,0,0,1-.9-.543c-3.011-5.671-6.288-11.7-9.457-17.535-3.178-5.852-6.466-11.9-9.488-17.595a1.024,1.024,0,0,1,1.808-.96c3.018,5.684,6.3,11.729,9.479,17.578s6.45,11.873,9.467,17.552a1.023,1.023,0,0,1-.9,1.5Z" transform="translate(-1803.282 -835.249)"/><path class="l" d="M1899.79,937.309a1.026,1.026,0,0,0-1.274-.689c-14.5,4.316-28.6,8.894-43.1,14a33.752,33.752,0,0,0-5.859,2.53,9.393,9.393,0,0,1-.175,1.069,5.834,5.834,0,0,1-.622,1.542.992.992,0,0,0,.13.032,1.024,1.024,0,0,0,.6-.192,26.274,26.274,0,0,1,6.609-3.05c14.47-5.091,28.539-9.66,43.006-13.966A1.024,1.024,0,0,0,1899.79,937.309Z" transform="translate(-1802.263 -826.674)"/></g><g class="av" transform="matrix(1, 0, 0, 1, 16, -85.29)"><path class="n" d="M1880.769,817.179H1595.337c-6.524,0-11.861,4.457-11.861,9.905V972.968c0,5.448,5.338,9.906,11.861,9.906h285.431c6.524,0,11.863-4.458,11.863-9.906V827.084C1892.631,821.636,1887.293,817.179,1880.769,817.179Z" transform="translate(-1470.92 -656.67)"/></g><rect class="j" width="242.733" height="345.186" rx="12" transform="translate(443.728 16.557) rotate(90)"/><g class="o" transform="translate(160.46 86.825)"><g class="au" transform="matrix(1, 0, 0, 1, -144.46, -172.11)"><rect class="h" width="264.75" height="32.991" rx="6" transform="translate(144.46 172.11)"/></g><rect class="j" width="63.507" height="9.072" rx="4.536" transform="translate(36.29 12.371)"/><rect class="p" width="14.846" height="14.846" rx="6" transform="translate(12.371 9.072)"/><rect class="g" width="119.591" height="9.072" rx="4.536" transform="translate(106.395 12.371)"/></g><g class="q" transform="translate(160.46 42.391)"><g class="at" transform="matrix(1, 0, 0, 1, -144.46, -127.68)"><rect class="h" width="264.75" height="32.991" rx="6" transform="translate(144.46 127.68)"/></g><rect class="j" width="63.507" height="9.072" rx="4.536" transform="translate(36.29 12.371)"/><rect class="p" width="14.846" height="14.846" rx="6" transform="translate(12.371 9.072)"/><rect class="g" width="119.591" height="9.072" rx="4.536" transform="translate(106.395 12.371)"/></g><g class="o" transform="translate(160.46 177.759)"><g class="as" transform="matrix(1, 0, 0, 1, -144.46, -263.05)"><rect class="h" width="264.75" height="32.991" rx="6" transform="translate(144.46 263.05)"/></g><rect class="j" width="63.507" height="9.072" rx="4.536" transform="translate(36.29 12.371)"/><rect class="p" width="14.846" height="14.846" rx="6" transform="translate(12.371 9.072)"/><rect class="g" width="119.591" height="9.072" rx="4.536" transform="translate(106.395 12.371)"/></g><g transform="translate(128.558 131.259)"><g class="ar" transform="matrix(1, 0, 0, 1, -112.56, -216.55)"><rect class="h" width="283.454" height="35.321" rx="6" transform="translate(112.56 216.55)"/></g><rect class="j" width="67.994" height="9.713" rx="4.857" transform="translate(38.853 13.245)"/><g class="r" transform="translate(13.245 9.713)"><rect class="ak" width="15.895" height="15.895" rx="6"/><rect class="b" x="1" y="1" width="13.895" height="13.895" rx="5"/></g><rect class="g" width="128.04" height="9.713" rx="4.857" transform="translate(113.911 13.245)"/></g><g class="aq" transform="matrix(1, 0, 0, 1, 16, -85.29)"><path class="s" d="M1861.776,908.394c-4.759-.457-8.519-.666-10.807-.677a55.019,55.019,0,0,0-6.671.306c-1.633-.08-4.321.237-8.55,1.826a13.931,13.931,0,0,0-4.741,2.717,2.37,2.37,0,0,0,2.128,4.036,48.88,48.88,0,0,1,8.617-1.15c.677.464,1.422.929,2.23,1.387,1.771,1,8.9,3.634,17.912,6.788A150.6,150.6,0,0,0,1861.776,908.394Z" transform="translate(-1444.65 -677.3)"/></g><g transform="translate(401.527 26.541)"><path class="s" d="M1920.216,928.21c1.566-14.712,2.72-28.25,2.72-34.648,0-16.634-10.027-32.576-19.3,0a129.414,129.414,0,0,0-4.093,23.4,4.216,4.216,0,0,1-5.119,3.746c-19.264-4.29-37.069-5.841-43.459-5.874a55.054,55.054,0,0,0-6.671.306c-1.633-.08-4.321.237-8.55,1.826a13.932,13.932,0,0,0-4.741,2.717,2.369,2.369,0,0,0,2.128,4.036,48.886,48.886,0,0,1,8.617-1.15c.677.464,1.422.929,2.23,1.387,4.63,2.624,45.9,16.362,61.56,21.536a9.518,9.518,0,0,0,10.543-3.271c2.929-3.826,6.128-9.076,5.755-13.4C1921.3,928.616,1920.757,928.414,1920.216,928.21Z" transform="translate(-1830.257 -796.247)"/><path class="t" d="M1909.414,893.563c0,3.629-.37,9.553-.977,16.685a22.681,22.681,0,0,0-12.771-5.689,28.8,28.8,0,0,0-8.111.512,109.3,109.3,0,0,1,2.564-11.507C1899.387,860.987,1909.414,876.929,1909.414,893.563Z" transform="translate(-1817.917 -796.247)"/><path class="u" d="M1916.673,810.73c16.939-2.446,34.569,2.04,34.569,26.224,0,28.8,12.392,26.914,26.726,31.62S2013.676,930,1954.955,930s-39.724-29.864-41.67-42.16-18.168-16.563-18.194-38.145S1899.734,813.177,1916.673,810.73Z" transform="translate(-1816.294 -810.14)"/><path class="s" d="M1918.668,1052.092c-2.851.324-1.5,1.993-4.454,1.318.136,1.246-.8,2.605-.668,3.851.223,2.073.438,4.145.668,6.216.287,2.573-4.695,8.269-6.367,10.175q-3.844,4.377-7.367,9.057a.742.742,0,0,0,.288,1.061c2.028,1.385,16.96-5.39,18.627-8.939,1.768-3.767.31-14.6.859-18.661C1920.544,1054.016,1918.609,1053.111,1918.668,1052.092Z" transform="translate(-1815.161 -758.032)"/><path class="l" d="M1907.667,1071.1q-3.745,4.28-7.188,8.844a.742.742,0,0,0,.289,1.061c2.029,1.386,16.959-5.39,18.625-8.939.715-1.522.9-4.2.906-7.113A13.638,13.638,0,0,1,1907.667,1071.1Z" transform="translate(-1815.161 -755.263)"/><path class="s" d="M1947.989,1052.092c-2.851.324-1.5,1.993-4.454,1.318.134,1.246-.8,2.605-.669,3.851.223,2.073.438,4.145.669,6.216.285,2.573-4.7,8.269-6.369,10.175q-3.845,4.377-7.367,9.057a.741.741,0,0,0,.288,1.061c2.029,1.385,16.959-5.39,18.627-8.939,1.769-3.767.309-14.6.859-18.661C1949.865,1054.016,1947.931,1053.111,1947.989,1052.092Z" transform="translate(-1808.847 -758.032)"/><path class="l" d="M1936.987,1071.1q-3.745,4.28-7.187,8.844a.743.743,0,0,0,.288,1.061c2.028,1.386,16.96-5.39,18.627-8.939.715-1.522.9-4.2.906-7.113A13.641,13.641,0,0,1,1936.987,1071.1Z" transform="translate(-1808.846 -755.263)"/><path class="l" d="M1936.426,928.192c-7.391-4.728-15.242-8.544-22.971-12.6a8.554,8.554,0,0,0-1.774,1.427c-28.375,30.34,1.326,168.878,1.326,168.878s.205,5.089,7.259.7a.959.959,0,0,0,.44-.757c2.72-45.622,24.343-113.219,27.589-148.523A78.436,78.436,0,0,0,1936.426,928.192Z" transform="translate(-1815.365 -787.43)"/><path class="v" d="M1936.438,928.193c-7.389-4.729-15.241-8.545-22.97-12.606a8.563,8.563,0,0,0-1.773,1.427c-12.573,13.443-14.351,54.631-10.631,88.906,7.231,9.057,15.6,11.924,22.35,22.273,3.745,5.785,1.025,14.509,2.12,21.177,5.943-39.522,20.351-85.7,22.775-112.054A78.307,78.307,0,0,0,1936.438,928.193Z" transform="translate(-1815.378 -787.43)"/><path class="n" d="M1903.036,918.362a1.4,1.4,0,0,1,1.084-1.32c5.623-1.158,33.132-9.5,39.6-.755,24.281,32.829,12.1,168.219,11.867,172.683a1.357,1.357,0,0,1-.04.276c-.2.807-2.863,2.366-7.079-.154a1.29,1.29,0,0,1-.516-1.189C1950.589,1033.037,1898.037,1012.974,1903.036,918.362Z" transform="translate(-1814.655 -788.131)"/><path class="w" d="M1954.166,881.12c-8.971-7.653-21.861-3.063-23.938-19.375-1.777-13.951-5.446-1.487-6.908,2.412-1.029-5.722-1.772-14.059-3.256-2.412-2.077,16.313-14.723,11.722-23.694,19.375s1.087,47.135,8.733,53.66c5.951,5.078,34.379,5.078,40.329,0C1953.078,928.256,1963.136,888.775,1954.166,881.12Z" transform="translate(-1816.778 -800.414)"/><path class="s" d="M1911.506,856.621s4.141,5.52,3.137,15.057,14.3,4.643,14.3,0-4.893-12.172-2.635-20.077S1911.506,856.621,1911.506,856.621Z" transform="translate(-1812.758 -801.762)"/><path class="x" d="M1931.534,871.028c0-.158-.007-.318-.016-.481a11.844,11.844,0,0,1-2.827-2.906c.017.211.038.424.038.626,0,4.643-15.308,9.536-14.3,0a27.972,27.972,0,0,0,.153-3.382,13.411,13.411,0,0,1-1.758,3.215c-.026.943-.084,1.917-.191,2.929C1911.3,883.631,1931.534,877.163,1931.534,871.028Z" transform="translate(-1812.531 -798.35)"/><g transform="translate(126.297 78.633)"><path class="s" d="M1935.547,901.255c.62-15.036,8.011-36.662,18.66-4.512,9.948,30.034,6.134,70.421,4.351,81.149-2.807,16.9-7.214,13.556-10.171,5.345S1934.927,916.29,1935.547,901.255Z" transform="translate(-1934.129 -874.664)"/><path class="y" d="M1934.211,894.077c.156,3.626.778,9.529,1.688,16.627a22.675,22.675,0,0,1,12.517-6.229,28.784,28.784,0,0,1,8.126.167,109.261,109.261,0,0,0-3.053-11.388C1942.841,861.1,1933.5,877.458,1934.211,894.077Z" transform="translate(-1934.174 -874.839)"/><path class="x" d="M1935.093,901.216c.185,1.567.389,3.218.609,4.942a22.671,22.671,0,0,1,12.517-6.229,28.791,28.791,0,0,1,8.126.167c-.267-1.24-.554-2.461-.852-3.673C1948.258,895.166,1940.078,896.3,1935.093,901.216Z" transform="translate(-1933.976 -870.292)"/></g><path class="s" d="M1954.73,964.047s1.5,2.583-3.066,10.393a13.947,13.947,0,0,1-3.48,4.213,2.369,2.369,0,0,1-3.618-2.779c1.646-4.107,3.927-10.93,2.556-14.413C1945.081,956.275,1954.73,964.047,1954.73,964.047Z" transform="translate(-1805.678 -777.935)"/><path class="z" d="M1926.514,861.813a19.585,19.585,0,0,1-.2-10.211c2.259-7.9-14.806,5.019-14.806,5.019s3.458,4.638,3.276,12.736A15.536,15.536,0,0,0,1926.514,861.813Z" transform="translate(-1812.758 -801.762)"/><path class="s" d="M1936.578,837.151c-.267,0-6.4-16.564-17.07-16.564-9.427,0-17.07,10.662-17.07,23.816s7.642,23.816,17.07,23.816c10.013,0,16.8-16.564,17.07-16.564,2.871,0,5.2-3.247,5.2-7.252S1939.449,837.151,1936.578,837.151Z" transform="translate(-1814.712 -807.89)"/><path class="x" d="M1895.756,899.577a27.573,27.573,0,0,1-7.754-1.77,37.942,37.942,0,0,0-.626,4.254,25.106,25.106,0,0,0,9.376,1.94C1896.412,902.552,1896,900.748,1895.756,899.577Z" transform="translate(-1817.956 -791.259)"/></g><path class="aa" d="M1586.99,808.38h310.432a12.938,12.938,0,0,1,12.9,12.9v15.7H1574.089v-15.7A12.938,12.938,0,0,1,1586.99,808.38Z" transform="translate(-1466.426 -808.38)"/><ellipse class="ab" cx="2.978" cy="2.978" rx="2.978" ry="2.978" transform="translate(415.165 11.54)"/><ellipse class="ac" cx="2.978" cy="2.978" rx="2.978" ry="2.978" transform="translate(402.442 11.54)"/><ellipse class="ad" cx="2.978" cy="2.978" rx="2.978" ry="2.978" transform="translate(389.719 11.54)"/><g transform="translate(53.232 -21.223)"><g transform="translate(0 16.213)"><g class="ap" transform="matrix(1, 0, 0, 1, -37.23, -80.28)"><rect class="h" width="73.01" height="63.591" rx="19.865" transform="translate(46.52 88.37)"/></g><g class="ao" transform="matrix(1, 0, 0, 1, -37.23, -80.28)"><rect class="j" width="91.581" height="79.766" rx="12" transform="translate(37.23 80.28)"/></g></g><g transform="translate(9.737)"><g class="an" transform="matrix(1, 0, 0, 1, -46.97, -64.07)"><path class="ae" d="M1569.3,1023.174h63.586c-.152-.585-.3-1.142-.456-1.679a53.026,53.026,0,0,0-4.89-12.437l-.093-.171a5.065,5.065,0,0,0-1.058-1.518l-.166-.174a4.315,4.315,0,0,0-2.025-1.53l-.289-.062-.258-.142a35.075,35.075,0,0,0-6.126-2.406c-3.883-1.248-7.9-2.54-10.64-6.347-.1-.133-.193-.271-.286-.412-.121-.183-.235-.364-.346-.551l-.16-.269a15.6,15.6,0,0,1-.938-1.977l-.145-.372.006-.4a24.772,24.772,0,0,1,1.042-6.85l.311-1.023,1.02-.324c6.217-1.984,10.731-10.117,10.731-19.339a26.878,26.878,0,0,0-1.784-9.75l-.895-2.274,2.4-.472a27.888,27.888,0,0,0,11.253-4.684,18.328,18.328,0,0,0,7.3-10.906,3.4,3.4,0,0,0-.139-2.462,2.064,2.064,0,0,0-1.873-.35,12.517,12.517,0,0,0-2.43.864c-.412.176-.825.354-1.241.515-4.7,1.82-9.588,1.625-14.32,1.434l-1.08-.042c-4.36-.165-9.345-.142-13.293,2.161a13.478,13.478,0,0,0-6,7.777l-.786,2.754-2.346-1.644c-1.081-.535-5.348.7-5.975,1.751-.818,1.575-.724,3.645-.543,5.8.157,1.871.5,2.159,1.01,2.593l1.68,1.42-1.544,1.568a5.707,5.707,0,0,0-1.383,3.943c0,2.717,1.437,4.61,2.727,4.61s1.74.894,2.266,1.931c.971,1.908,3.553,6.981,7.15,10.3l.758.7-.134,1.188c-.032.258-.064.5-.1.746-.026.173-.056.347-.087.52-.047.269-.1.537-.149.8l-.077.352c-.067.31-.135.617-.209.917-.322,1.3-.691,2.514-1.048,3.684a24.481,24.481,0,0,0-1.1,4.466l-.046.55-.29.415-4.427,7.027.26-3.129a31.373,31.373,0,0,1-6.828,2.78,35.579,35.579,0,0,0-6.172,2.4l-.283.154-.317.058c-.38.07-1.187.4-2.326,1.854l-.083.1a5.073,5.073,0,0,0-.645.918l-.066.113c-1.78,2.771-3.513,7.1-5.15,12.851C1569.605,1022.03,1569.454,1022.588,1569.3,1023.174Z" transform="translate(-1520.24 -868.28)"/></g><path class="af" d="M1630.852,1019.368c-.469-2.274-1.065-4.859-1.676-7.005-8.508-29.9-17.712-15.269-17.712,0,0,1.806.1,4.237.282,7.123H1629.3C1629.806,1019.462,1630.277,1019.448,1630.852,1019.368Z" transform="translate(-1561.076 -923.514)"/><path class="ag" d="M1630.35,1022.225c1.674-9.777,1.576-19.147-2.2-22.369-8.234-7.027-19.842-2.813-21.749-17.785-1.361-10.692-2.043-3.039-2.988,2.214-1.342-3.58-4.71-15.02-6.341-2.214-1.907,14.972-13.74,10.758-21.974,17.785-3.776,3.222-3.873,12.592-2.2,22.369Z" transform="translate(-1566.832 -926.253)"/><path class="s" d="M1607.687,977.016s-3.8,5.068-2.879,13.822-13.13,4.261-13.13,0,4.492-11.173,2.419-18.429S1607.687,977.016,1607.687,977.016Z" transform="translate(-1563.953 -927.139)"/><path class="x" d="M1589.422,991.13c0-.144.006-.293.014-.441a10.923,10.923,0,0,0,2.6-2.668c-.016.194-.034.39-.034.575,0,4.261,14.051,8.753,13.13,0a25.561,25.561,0,0,1-.141-3.1,12.352,12.352,0,0,0,1.614,2.952c.024.865.078,1.758.175,2.688C1607.993,1002.7,1589.422,996.761,1589.422,991.13Z" transform="translate(-1564.281 -924.896)"/><path class="ah" d="M1568.9,1012.363c-.537,1.889-1,3.848-1.426,5.838a13.335,13.335,0,0,0,2.978,1.285h15.878c.18-2.886.28-5.317.28-7.123C1586.607,997.095,1577.4,982.462,1568.9,1012.363Z" transform="translate(-1567.471 -923.514)"/><path class="ai" d="M1593.627,981.783a17.963,17.963,0,0,0,.186-9.374c-2.073-7.256,13.591,4.607,13.591,4.607s-3.175,4.257-3.006,11.691A14.261,14.261,0,0,1,1593.627,981.783Z" transform="translate(-1563.67 -927.139)"/><path class="s" d="M1587.731,957.549c.246,0,5.875-15.2,15.67-15.2,8.653,0,15.668,9.787,15.668,21.861s-7.016,21.861-15.668,21.861c-9.19,0-15.424-15.206-15.67-15.206-2.634,0-4.77-2.98-4.77-6.656S1585.1,957.549,1587.731,957.549Z" transform="translate(-1565.219 -931.167)"/><path class="aj" d="M1592.922,946.851a15.467,15.467,0,0,1,6.943-8.988c4.343-2.536,9.52-2.624,14.414-2.441s9.951.544,14.6-1.258a24.21,24.21,0,0,1,4.027-1.481,3.943,3.943,0,0,1,3.855,1.079,5.1,5.1,0,0,1,.548,4.131,20.422,20.422,0,0,1-8.1,12.171,30.9,30.9,0,0,1-13.535,5.314,34.753,34.753,0,0,1-13.934-.568,11.4,11.4,0,0,0-3.547,1.761,19.034,19.034,0,0,0-2.677,2.714c-1.195,1.75-4.524,3.633-3.214,12.747a2.036,2.036,0,0,1-.138,1.238,1.4,1.4,0,0,1-1.806.492,2.95,2.95,0,0,1-1.277-1.537,13.251,13.251,0,0,1-1.043-4.051c-1.049-10.353-4.327-5.7-4.849-11.918-.2-2.332-.326-4.821.77-6.928S1591.07,945.552,1592.922,946.851Z" transform="translate(-1565.205 -932.586)"/></g></g></g><g transform="translate(-60.57 1.27)"><g class="am" transform="matrix(1, 0, 0, 1, 1032.29, 209.2)"><rect class="h" width="138.765" height="60.036" rx="12" transform="translate(216.08 316.34)"/></g><g transform="translate(1224.716 529.021)"><g class="al" transform="matrix(1, 0, 0, 1, -192.43, -319.82)"><ellipse class="ad" cx="19.942" cy="19.942" rx="19.942" ry="19.942" transform="translate(198.88 326.27)"/></g><ellipse class="n" cx="26.388" cy="26.388" rx="26.388" ry="26.388"/></g><g transform="translate(1292.827 543.264)"><rect class="j" width="71.627" height="4.694" rx="2.347"/><rect class="j" width="71.627" height="4.694" rx="2.347" transform="translate(0 11.408)"/><rect class="j" width="71.627" height="4.694" rx="2.347" transform="translate(0 22.817)"/></g><path class="h" d="M98.7,35.231A16.206,16.206,0,1,0,82.5,51.436h0a16.3,16.3,0,0,0,7.047-1.606,1.134,1.134,0,0,0-.987-2.043,13.941,13.941,0,1,1,7.876-12.557,12.027,12.027,0,0,1-1.288,5.939h0a3.566,3.566,0,0,1-3.7,1.265c-.924-.2-1.855-.744-1.855-1.521,0-.571-.027-2.985-.027-3.539V31.228a1.959,1.959,0,0,0-.187-.776,8.455,8.455,0,0,0-8.522-3.6A8.668,8.668,0,0,0,74.341,32.3a8.526,8.526,0,0,0,1.148,7.963,8.652,8.652,0,0,0,6.779,3.482h.15a8.652,8.652,0,0,0,5.076-1.785,4.437,4.437,0,0,0,3.476,2.694,6.555,6.555,0,0,0,1.364.142,5.125,5.125,0,0,0,4.813-2.625A13.591,13.591,0,0,0,98.7,35.231Zm-16.33,6.245A6.331,6.331,0,0,1,77.3,38.9a6.235,6.235,0,0,1-.832-5.824,6.416,6.416,0,0,1,4.839-4,6.194,6.194,0,0,1,5.7,2.016c.1.112.193.23.284.351,0,1.694.014,5.275.02,7.522A6.42,6.42,0,0,1,82.372,41.476Z" transform="translate(1168.339 520.515)"/></g></g></g></g></svg>