<svg xmlns="http://www.w3.org/2000/svg" width="485" height="417" viewBox="0 0 485 417">
  <defs>
    <linearGradient id="costumized-a" x1="49.999%" x2="49.999%" y1="93.571%" y2="-1.237%">
      <stop offset="0%" stop-color="#250D32"/>
      <stop offset="27%" stop-color="#260E36"/>
      <stop offset="52%" stop-color="#2A1241"/>
      <stop offset="76%" stop-color="#301854"/>
      <stop offset="99%" stop-color="#39216E"/>
      <stop offset="100%" stop-color="#39216F"/>
    </linearGradient>
    <linearGradient id="costumized-b" x1="0%" y1="49.932%" y2="49.932%">
      <stop offset="0%" stop-color="#250D32"/>
      <stop offset="27%" stop-color="#260E36"/>
      <stop offset="52%" stop-color="#2A1241"/>
      <stop offset="76%" stop-color="#301854"/>
      <stop offset="99%" stop-color="#39216E"/>
      <stop offset="100%" stop-color="#39216F"/>
    </linearGradient>
    <linearGradient id="costumized-c" x1="0%" y1="50.19%" y2="50.19%">
      <stop offset="0%" stop-color="#67E4CF"/>
      <stop offset="50%" stop-color="#39C9E4"/>
      <stop offset="100%" stop-color="#07C8D4"/>
    </linearGradient>
    <linearGradient id="costumized-d" x1="0%" x2="100.003%" y1="49.972%" y2="49.972%">
      <stop offset="0%" stop-color="#67E4CF"/>
      <stop offset="50%" stop-color="#39C9E4"/>
      <stop offset="100%" stop-color="#07C8D4"/>
    </linearGradient>
    <linearGradient id="costumized-e" x1="-.068%" x2="100.013%" y1="49.979%" y2="49.979%">
      <stop offset="0%" stop-color="#251647"/>
      <stop offset="100%" stop-color="#512E9E"/>
    </linearGradient>
    <linearGradient id="costumized-f" x1="0%" y1="49.979%" y2="49.979%">
      <stop offset="0%" stop-color="#251647"/>
      <stop offset="100%" stop-color="#512E9E"/>
    </linearGradient>
    <linearGradient id="costumized-g" x1="0%" y1="50.021%" y2="50.021%">
      <stop offset="0%" stop-color="#251647"/>
      <stop offset="100%" stop-color="#512E9E"/>
    </linearGradient>
    <linearGradient id="costumized-h" x1="0%" y1="50%" y2="50%">
      <stop offset="0%" stop-color="#251647"/>
      <stop offset="100%" stop-color="#512E9E"/>
    </linearGradient>
  </defs>
  <g fill="none" fill-rule="evenodd" transform="translate(0 -1)">
    <ellipse cx="242.14" cy="355.79" fill="#734FB1" rx="122.73" ry="36.33"/>
    <path fill="#2B1345" d="M217.42,302.39 C217.42,302.39 218.42,317.7 215.11,328.25 C209.69,345.6 194.54,347.42 194.54,356.64 C194.54,356.81 289.75,356.85 289.75,356.64 C289.75,347.84 275.39,345.05 270.4,328.88 C266.67,316.77 268.83,302.39 268.83,302.39 L217.42,302.39 Z"/>
    <rect width="95.19" height="4.21" x="194.55" y="356.48" fill="#CEB7EB"/>
    <rect width="335.57" height="229.6" x="74.59" y="81.51" fill="url(#costumized-a)" rx="15"/>
    <rect width="306.55" height="179.14" x="88.87" y="96.76" fill="#FFF"/>
    <circle cx="242.14" cy="293.56" r="7.57" fill="#CEB7EB"/>
    <path fill="#07C8D4" d="M109,107.26 L374.13,107.26 C381.167727,107.259998 386.87448,112.962275 386.88,120 L386.88,275.4 L96.49,275.4 L96.49,119.76 C96.4899989,116.443061 97.8083321,113.26212 100.1547,110.917628 C102.501068,108.573135 105.683062,107.257346 109,107.26 Z"/>
    <path fill="url(#costumized-b)" d="M109,107.26 L374.13,107.26 C381.167727,107.259998 386.87448,112.962275 386.88,120 L386.88,122 L96.489984,122 L96.49,119.78 C96.4846863,116.459597 97.800674,113.273514 100.147619,110.924693 C102.494563,108.575873 105.679593,107.257339 109,107.26 Z"/>
    <circle cx="104.54" cy="114.28" r="2.23" fill="#37206C"/>
    <circle cx="111.39" cy="114.28" r="2.23" fill="#37206C"/>
    <circle cx="118.24" cy="114.28" r="2.23" fill="#37206C"/>
    <ellipse cx="21.04" cy="358.92" fill="#9271C5" rx="21.04" ry="8.96"/>
    <path fill="#9271C5" d="M40,320.23 C40,323.43 31.29,326.01 20.53,326.01 C9.77,326.01 0.5,323.73 0.5,320.54 C0.5,317.35 9.82,314.45 20.57,314.45 C31.32,314.45 40,317 40,320.23 Z"/>
    <path fill="#795DAF" d="M17.53,331.49 C21.18,319.32 16.07,301.59 14.2,295.95 C11.78,288.62 12.14,280.68 10.87,273.07 C9.39,264.19 5.7,255.85 2.05,247.61 C-0.56,261.31 2.68,275.35 5.65,288.97 C8.62,302.59 7.8,315.67 12.06,330.27"/>
    <path fill="#795DAF" d="M25.94,328 C30.53,323.25 31.5,316.08 31.22,309.48 C30.94,302.88 29.66,296.25 30.72,289.74 C31.52,284.85 33.6,280.27 34.89,275.49 C36.92,268 37,260.1 37,252.31 C33.8685577,257.478228 31.1918361,262.908627 29,268.54 C26.77,274.26 25.05,280.16 23.34,286.06 C22.0592073,289.937298 21.194345,293.939801 20.76,298 C20.37,303.52 21.56,309 21.97,314.55 C22.38,320.1 21.87,326.01 18.55,330.45"/>
    <path fill="#795DAF" d="M21.18,283.42 C21.18,264.56 15.1,242.66 8.92,232.21 C7.38,241.83 13.92,259.69 13.66,281.74 C13.48,300.01 19.28,318.9 19.13,333.55 C24.9,317.49 21.18,300.5 21.18,283.42 Z"/>
    <path fill="#251A3E" d="M37 253C35.19 258.82 33.55 264.68 32 270.57L27.4 288.26C26.99 289.74 26.58 291.19 26.29 292.67 26 294.15 25.77 295.67 25.61 297.16 25.3315997 300.185041 25.208105 303.222342 25.24 306.26 25.24 309.26 25.31 312.35 25.18 315.4 25.1224356 318.462041 24.596339 321.497214 23.62 324.4 24.4782741 321.477848 24.9028025 318.445503 24.88 315.4 24.95 312.4 24.83 309.32 24.78 306.27 24.6884183 303.217144 24.781923 300.161544 25.06 297.12 25.21 295.59 25.42 294.07 25.72 292.57 26.02 291.07 26.42 289.57 26.81 288.11 28.43 282.24 29.9 276.33 31.55 270.46 33.2 264.59 35 258.74 37 253zM2 248.44C2.38 251.62 2.89 254.78 3.49 257.92 4.09 261.06 4.7 264.2 5.36 267.34 6.69 273.6 8 279.87 9.13 286.19 9.68 289.34 10.13 292.53 10.56 295.69 10.99 298.85 11.56 302.02 12.03 305.18 13.03 311.5 14.19 317.81 14.79 324.18 14.39 321 13.79 317.85 13.25 314.7L11.56 305.25C11 302.09 10.49 298.93 10.01 295.76 9.53 292.59 9.09 289.43 8.53 286.28 7.47 279.97 6.13 273.71 4.93 267.42 3.61464576 261.150278 2.63657381 254.814508 2 248.44zM9.17 232.77C10.97 240.32 12.8 247.84 14.48 255.43 15.26 259.24 15.81 263.09 16.29 266.94 16.77 270.79 17.15 274.66 17.4 278.54 17.6583045 282.418366 17.6816806 286.30881 17.47 290.19 17.4067832 292.120605 17.443499 294.053189 17.58 295.98 17.69 297.91 17.86 299.84 18.03 301.77 18.39 305.63 18.84 309.48 19.23 313.34 19.62 317.2 20 321.07 20 325 19.9 321.12 19.43 317.27 19 313.42 18.57 309.57 18.05 305.72 17.64 301.86 17.44 299.93 17.24 298 17.12 296.06 16.976635 294.116847 16.9332444 292.167608 16.99 290.22 17.181674 286.35427 17.1382607 282.480464 16.86 278.62 16.63 274.76 16.27 270.9 15.86 267.06 15.45 263.22 14.86 259.37 14.13 255.57L9.17 232.77z"/>
    <path fill="#795DAF" d="M37.83 279.89C35.63 290.95 31.48 298.58 28.77 308.07 27.32 313.16 26.01 319.64 27.5 324.72L30.5 323.9C30.86 318.01 34.35 312.9 36.6 307.4 40.1693301 298.646042 40.6038529 288.927569 37.83 279.89zM8.13 306.79C5.23 300.73 2.3 294.11 3.61 287.52 1.35126435 290.927739.396255743 295.035341.92 299.09 1.45546811 303.107437 2.57390138 307.025322 4.24 310.72 6.31 315.78 8.69 321.27 7.17 326.52L13 326C14.06 319.39 11 312.85 8.13 306.79z"/>
    <path fill="#251A3E" d="M37.84 280.23C38.3280118 282.227676 38.5134104 284.287286 38.39 286.34 38.2470176 288.393419 37.9122253 290.428956 37.39 292.42 36.2192023 296.358703 34.7516689 300.203039 33 303.92 32.17 305.78 31.36 307.66 30.67 309.57 29.9856229 311.482659 29.4637736 313.44963 29.11 315.45 28.7665861 317.454171 28.6225495 319.487432 28.68 321.52 28.7281892 323.562056 28.9726478 325.594746 29.41 327.59 28.3033856 323.614889 28.0444574 319.451596 28.65 315.37 29.3799794 311.315659 30.6583788 307.379534 32.45 303.67 34.196889 299.983871 35.6871015 296.18149 36.91 292.29 38.1758341 288.401394 38.4946783 284.266706 37.84 280.23zM3.39 287.68C2.22797652 290.908192 2.002638 294.399206 2.74 297.75 3.05500426 299.421679 3.47585118 301.071666 4 302.69 4.54 304.3 5.19 305.88 5.86 307.46 7.30414259 310.58691 8.45572246 313.840792 9.3 317.18 9.65276486 318.870592 9.87674113 320.585515 9.97 322.31 10.04 324.03 10.03 325.75 9.97 327.46 9.98486114 324.040072 9.6192802 320.629101 8.88 317.29 7.97457496 313.995338 6.79029851 310.78374 5.34 307.69 4.68 306.11 4.04 304.51 3.51 302.86 2.98279504 301.226453 2.58161921 299.554887 2.31 297.86 2.03665008 296.151007 1.96282159 294.416037 2.09 292.69 2.17495268 291.829796 2.32538896 290.977323 2.54 290.14 2.74660846 289.295467 3.0311624 288.471934 3.39 287.68z"/>
    <path fill="#CEB7EB" d="M35.18,358.87 C35.18,358.87 30.61,363.43 20.27,363.43 C9.93,363.43 6.58,358.87 6.58,358.87 L0.5,319.93 C0.5,319.93 6.58,324.8 21.18,324.8 C32.74,324.8 40.04,319.93 40.04,319.93 L35.18,358.87 Z"/>
    <ellipse cx="461.5" cy="360.7" fill="#9271C5" rx="15.72" ry="5.71"/>
    <path fill="#CEB7EB" d="M461,331 C460.446667,331 459.906667,331 459.38,331 L458.85,331 L457.8,331 L457.19,331 L456.27,330.94 L455.64,330.88 L454.81,330.8 L454.17,330.72 L453.42,330.62 L452.78,330.53 L452.41,330.47 C451.84,330.38 451.29,330.27 450.76,330.16 L450.41,330.09 L449.61,329.9 L449.32,329.82 L448.54,329.6 L448.34,329.54 L447.56,329.28 C446.437345,328.94338 445.409651,328.347317 444.56,327.54 C444.56,343.75 450.32,360.19 450.61,360.33 C460.83,365.44 471.73,361.01 471.73,361.01 C471.73,361.01 477.86,343.52 477.56,327.54 C475.65,329.42 469,331 461,331 Z"/>
    <path fill="#9271C5" d="M477.63,326.39 C477.63,329.03 470.41,330.96 461,330.96 C451.59,330.96 444.51,329.54 444.51,326.9 C444.51,324.26 451.59,321.42 461,321.42 C470.41,321.42 477.63,323.76 477.63,326.39 Z"/>
    <path fill="#CEB7EB" d="M473.45 353.07C472.293887 353.070226 471.143192 352.912089 470.03 352.6L470.71 350.19C471.84 350.51 475.76 351.34 478.56 348.62 481.36 345.9 481.99 340.31 481.25 336.41 480.79 333.98 479.98 332.92 479.67 332.79 479.67 332.79 478.11 332.4 473.59 339.63L471.46 338.3C475.52 331.82 478.26 329.49 480.63 330.48 482.56 331.29 483.39 334.25 483.71 335.94 484.6 340.63 483.89 346.94 480.3 350.42 478.460613 352.180201 475.995104 353.134012 473.45 353.07zM475.59 294.44C473.94 292.94 471.91 291.44 471.64 289.23 471.31 286.52 473.85 283.93 473.11 281.3 472.24 278.18 467.44 277.4 466.81 274.23 466.48 272.58 467.46 270.98 467.87 269.35 468.614264 266.012027 467.028062 262.589602 464 261 464.46 263.8 462.66 266.41 461.05 268.75 459.44 271.09 457.9 273.98 458.9 276.64 459.64 278.64 461.74 280.24 461.4 282.33 460.92 285.33 456.16 285.59 454.92 288.33 453.35 291.84 458.66 295.33 457.92 299.07 457.49 301.14 455.38 302.37 454.27 304.18 452.83 306.5 453.27 309.6 454.6 311.98 455.926932 314.122299 458.060834 315.63982 460.52 316.19 462.769145 316.52659 465.06683 316.126688 467.07 315.05 469.07 314.05 470.59 311.75 470.01 309.59 469.64 308.22 468.49 307.04 468.6 305.59 468.75 303.72 470.92 302.79 472.76 302.46 474.6 302.13 476.76 301.83 477.68 300.19 478.74 298.33 477.24 295.94 475.59 294.44z"/>
    <path fill="#251A3E" fill-rule="nonzero" d="M307,269.42 L381.72,417.49 L385.39,415.64 L373.21,391.51 L424.21,391.51 L437.32,417.51 L440.99,415.66 L366.28,267.57 L362.61,269.42 L380.19,304.26 L329.19,304.26 L310.7,267.57 L307,269.42 Z M382.24,308.37 L393.18,330 L342.18,330 L331.27,308.37 L382.24,308.37 Z M395.24,334.11 L406.73,356.88 L355.73,356.88 L344.23,334.11 L395.24,334.11 Z M371.17,387.4 L357.84,361 L408.84,361 L422.17,387.41 L371.17,387.4 Z"/>
    <path fill="#F2C9A5" d="M177.57 42.32C177.18 45.68 175.29 57.43 176.71 61.03 177.751154 63.4379096 179.248717 65.6214323 181.12 67.46 182.33 66.94 185.85 58.46 187.07 57.96L185.72 43.66C183.23 43.21 180.06 42.77 177.57 42.32zM221.46 42.42C221.9 45.95 223.46 58.07 221.7 61.51 220.52 63.8 217.44 66.94 215.47 68.61 214.31 67.97 211.89 57.71 210.74 57.07 211.666667 52.4033333 212.6 47.71 213.54 42.99L221.46 42.42z"/>
    <path fill="#CEB7EB" d="M212.11,68.13 L185.92,68.13 C185.92,68.13 182.61,46.13 187.36,41.13 C192.47,35.73 208.04,36 211.72,40.55 C216.06,46 212.11,68.13 212.11,68.13 Z"/>
    <path fill="#251A3E" d="M174.64,69.78 C182.168209,71.2827379 189.834012,71.9866376 197.51,71.88 C212.59,71.67 220.51,68.39 221.41,71.01 C222.41,74.01 213.86,83.12 203.91,85.1 C199.66,85.95 194.18,84 183.21,80.1 C180.04,78.97 176.15,77.42 174.94,73.49 C174.592642,72.2858871 174.490625,71.02428 174.64,69.78 Z"/>
    <path fill="#CEB7EB" d="M177.38,43.18 C177.460224,40.1963404 178.322287,37.2860147 179.88,34.74 C182.09,33.14 184.46,32.12 189.49,30.74 C193.641124,29.6591505 197.944999,29.2872524 202.22,29.64 C210.29,30.34 215.99,32.82 218.82,34.82 C220.446888,37.1972416 221.438341,39.9512762 221.7,42.82 C222,46.18 177.61,45.28 177.38,43.18 Z"/>
    <path fill="#FFF" d="M178.94,69.63 C179.069297,71.3075684 180.457586,72.60909 182.14,72.63 L216.55,72.54 C218.220861,72.5167654 219.590634,71.2080659 219.69,69.54 L220.69,51.09 C220.711656,50.3000634 220.412221,49.5350784 219.860076,48.9697424 C219.307931,48.4044063 218.550228,48.0869969 217.76,48.09 L180.53,48.19 C179.744855,48.186313 178.992723,48.5055714 178.449964,49.0729153 C177.907205,49.6402592 177.621557,50.4057879 177.66,51.19 L178.94,69.63 Z"/>
    <rect width="20.06" height="15.51" x="188.99" y="15.61" fill="#251A3E"/>
    <path fill="#F2C9A5" d="M204.57,25 C204.2,27.63 203.26,30.67 204.22,33.44 C201.92,33.62 198.65,33.05 196.34,33.23 C196.506759,30.2732319 196.08529,27.3127566 195.1,24.52 C198.37,24.78 201.3,24.72 204.57,25 Z"/>
    <path fill="#F4D2BE" d="M208.28,17.72 C208.28,23.72 204.48,28.52 199.8,28.52 C195.12,28.52 191.32,23.68 191.32,17.72 C191.32,11.76 195.11,6.91 199.8,6.91 C204.49,6.91 208.28,11.75 208.28,17.72 Z"/>
    <path fill="#F2C9A5" d="M202.22,29.63 C198.399508,29.3222715 194.554506,29.5817502 190.81,30.4 C190.81,33.45 194.81,35.92 199.63,35.92 C204.32,35.92 208.15,33.61 208.43,30.69 C206.393208,30.1639842 204.315954,29.8094126 202.22,29.63 Z"/>
    <path fill="#251A3E" d="M202.09,7.51 C201.849899,8.97632148 201.14944,10.3282068 200.09,11.37 C196.94,14.57 194.21,15.12 192.41,17.37 C190.83,19.37 190.9,25.21 194.93,33.82 C191.32,35.82 188.04,33.7 187.23,33.13 C184.01,30.85 184.88,19.66 187.23,12.87 C188.63,8.81 190.23,4.11 194.91,2.01 C195.39,1.8 199.8,-0.11 203.97,1.87 C208.14,3.85 209.69,8.43 211.44,14.87 C212.51,18.8 213.62,28.87 212.38,31.37 C210.96,34.27 207.61,34.5 205.21,33.86 C208.92,30.28 208.63,19.29 208.21,16.05 C207.809974,12.3266136 205.487281,9.08547091 202.09,7.51 Z"/>
    <path fill="url(#costumized-c)" d="M201.82,59.44 C201.814482,60.8911943 200.634559,62.0636667 199.183359,62.0599916 C197.732158,62.0563165 196.558189,60.877883 196.560021,59.4266793 C196.561853,57.9754757 197.738795,56.8000105 199.19,56.8 C199.889255,56.7999949 200.559726,57.0784557 201.053235,57.5738413 C201.546744,58.0692269 201.822659,58.7407496 201.82,59.44 Z"/>
    <path fill="#F2C9A5" d="M200,91.46 C200.12096,92.2132443 200.469981,92.9112851 201,93.46 C202.08,94.78 204,94.92 204.41,95.26 C205.88,96.37 208.97,98.45 216.35,101.16 C217.17,101.46 221.26,102.69 222.56,99.63 C223.86,96.57 220.77,94.4 217.27,92.94 C213.92,91.53 212.17,91.86 209.98,90.47 C208.98,89.84 208.31,88.74 207.69,88.66 C207.078543,88.5227256 206.445845,88.7773964 206.1,89.3"/>
    <path fill="#251A3E" d="M189.72,76.92 C187.05,74.58 183.1,70.92 177.5,68.67 C174.285943,67.2424156 170.782965,66.5849652 167.27,66.75 C164.949092,67.8011032 163.38257,70.0302368 163.18,72.57 C163.05,77.43 170.28,84.43 177.06,87.22 C186.9,91.22 202.48,95.98 204.31,95.53 C206.67,94.96 208.31,90.16 208.31,90.16 C200,84.85 193.84,80.54 189.72,76.92 Z"/>
    <path fill="#F2C9A5" d="M196,93.08 C195.840923,93.8139127 195.464594,94.4829407 194.92,95 C193.73,96.22 191.85,96.2 191.37,96.5 C189.81,97.5 186.55,99.3 178.97,101.38 C178.13,101.61 173.97,102.49 172.91,99.33 C171.85,96.17 175.13,94.27 178.74,93.11 C182.35,91.95 183.92,92.46 186.22,91.26 C187.22,90.72 188.03,89.68 188.65,89.65 C189.275997,89.5620131 189.890544,89.8732772 190.19,90.43"/>
    <path fill="#251A3E" d="M231,66.75 C227.483795,66.5848773 223.977551,67.2422981 220.76,68.67 C215.17,70.92 211.21,74.58 208.55,76.92 C202.964791,82.0744481 196.847025,86.6200314 190.3,90.48 C190.3,90.48 190.94,96.48 193.62,96.05 C197.79,95.35 211.35,91.27 221.19,87.22 C227.97,84.43 235.19,77.43 235.07,72.57 C234.871237,70.0347229 233.313133,67.8066714 231,66.75 Z"/>
    <path fill="#9271C5" d="M179 101.37L180.93 100.82C179.656505 100.018475 178.756862 98.7405145 178.431832 97.2713019 178.106802 95.8020892 178.383435 94.2639036 179.2 93L178.74 93.14C175.13 94.3 171.91 96.31 172.91 99.36 173.91 102.41 178.13 101.6 179 101.37zM219.43 94.09L217.65 93.16C218.119301 95.0370603 217.599041 97.0238527 216.27 98.43 215.514309 99.2290817 214.540763 99.7888705 213.47 100.04L213.9 100.25C217.32 101.89 221.04 102.64 222.41 99.75 223.78 96.86 220.19 94.5 219.43 94.09z"/>
    <rect width="290.21" height="17.75" x="96.49" y="121.82" fill="url(#costumized-d)"/>
    <path fill="#3F247A" d="M111.1 130.49C111.099996 132.40806 109.944047 134.137065 108.171602 134.870138 106.399158 135.60321 104.359617 135.195839 103.004776 133.838134 101.649936 132.48043 101.246874 130.440033 101.983688 128.669141 102.720501 126.898248 104.451944 125.745953 106.37 125.75 108.983924 125.755515 111.100006 127.876071 111.1 130.49zM286.2 135.68L185.3 135.68C184.027881 135.682656 182.806955 135.179169 181.906492 134.280582 181.006029 133.381995 180.499997 132.162121 180.5 130.89 180.499997 129.617879 181.006029 128.398005 181.906492 127.499418 182.806955 126.600831 184.027881 126.097344 185.3 126.1L286.2 126.1C287.472119 126.097344 288.693045 126.600831 289.593508 127.499418 290.493971 128.398005 291.000003 129.617879 291 130.89 291.000003 132.162121 290.493971 133.381995 289.593508 134.280582 288.693045 135.179169 287.472119 135.682656 286.2 135.68z"/>
    <rect width="28.76" height="9.59" x="351.95" y="126.1" fill="#3F247A"/>
    <path stroke="#FFF" stroke-width="5" d="M184 152.5L282.62 152.5M184 163.5L246.32 163.5M184 173.5L246.32 173.5M184 184.5L246.32 184.5M184 195.5L281.46 196.12M184 207.5L281.46 208.12M184 218.5L281.46 219.12M184 230.5L281.46 231.12"/>
    <circle cx="221.48" cy="260.67" r="2.74" fill="#CEB7EB"/>
    <circle cx="235.18" cy="260.67" r="2.74" fill="#CEB7EB" opacity=".5"/>
    <circle cx="248.88" cy="260.67" r="2.74" fill="#CEB7EB" opacity=".5"/>
    <circle cx="262.57" cy="260.67" r="2.74" fill="#CEB7EB" opacity=".5"/>
    <path fill="#D09475" d="M113.76,221.27 C115.11,217.58 116.88,214.35 118.53,210.45 C119.59,207.96 121.06,204.75 122.15,202.45 C122.44,199.95 121.01,198.45 121.33,195.75 C121.81,191.68 123.11,189.87 124.33,189.21 C124.89,191.21 122.7,196.54 125.22,196.8 C125.88,196.87 126.67,193.06 127.09,193.2 C128.19,193.56 125.33,200.09 124.96,202.66 C124.74,204.2 123.72,207.95 122.91,212.28 C121.2,221.45 121.81,223.68 119.56,224.41 C118.67,224.66 116.92,224.54 113.76,221.27 Z"/>
    <path fill="#CEB7EB" d="M130.74,197.24 C130.53,197.82 131.3,198.65 132.49,199.08 C133.68,199.51 134.76,199.6 134.97,199.02 C135.18,198.44 134.52,197.85 133.33,197.42 C132.14,196.99 131,196.65 130.74,197.24 Z"/>
    <path fill="#251A3E" d="M105.65,357.35 C102.39,364.44 103.23,367.75 103.23,367.75 C103.23,367.75 106.7,370.23 113.01,370.64 C120.21,371.12 122.24,369.56 122.24,369.56 C122.426412,368.879653 122.33387,368.15306 121.982872,367.541159 C121.631874,366.929259 121.051391,366.482558 120.37,366.3 C116.69,365.3 111.97,364.54 111.22,364.01 C110.22,363.32 111,361.55 112.6,357.22 L105.65,357.35 Z"/>
    <path fill="#FFAE91" d="M105.65,357.35 C104.721792,359.303917 104.007639,361.352497 103.52,363.46 C104.91078,364.223515 106.473451,364.619345 108.06,364.61 C109.127228,364.688358 110.195606,364.473991 111.15,363.99 C110.58,362.99 111.26,360.85 112.6,357.22 L105.65,357.35 Z"/>
    <path fill="#251A3E" d="M103.17 368.65C102.9 368.5 103.17 366.87 103.17 366.87 103.17 366.87 106.28 369.05 113.97 369.74 116.720111 369.793657 119.471072 369.693501 122.21 369.44 122.21 369.44 122.36 370.44 121.91 370.64 121.46 370.84 118.91 371.41 113.7 371.25 110.034202 371.224864 106.426202 370.334 103.17 368.65zM117.87 292.24L117.23 293.14C119.942316 303.374418 121.072066 313.963713 120.58 324.54 119.88 339.43 115.12 354.06 112.01 361.68 109.84 362.95 105.01 362.23 103.01 361.23 103.01 355.05 107.57 335.89 108.31 330.23 109.01 324.84 106.92 316.79 106.12 313.76L117.87 292.24z"/>
    <path fill="#9271C5" d="M125.38,203 C124.117473,203.183262 122.829573,202.951651 121.71,202.34 L113.49,220.62 L114.59,226.56 L122.89,217.56 C122.89,217.56 125.45,203 125.38,203 Z"/>
    <path fill="#251A3E" d="M80.85,366.63 C79.76,368.05 78.67,370.68 79.79,372.86 C81.56,376.3 90.26,375.7 86.79,381.69 C83.7176414,381.719046 80.7407075,380.623591 78.42,378.61 C75.01,375.44 69.57,377.31 69.67,373.23 C69.67,371.01 73.67,365.93 74.04,363.23 C75.44,363.81 79.47,366.1 80.85,366.63 Z"/>
    <path fill="#D09475" d="M115.32,227.27 C115.68,226.15 116.72,222.93 114.93,219.93 C113.14,216.93 109.52,216.25 108.37,216.07 C107.73,215.97 102.63,215.18 100.65,218 C98.42,221.17 101.78,226.54 104.12,229 C105.24,230.18 108.23,233.33 111.27,232.48 C113.87,231.75 114.91,228.53 115.32,227.27 Z"/>
    <path fill="url(#costumized-e)" d="M106.42,217.09 C108.42,214.26 104.5,211.09 104.5,211.09 C103.296476,212.276996 101.877859,213.223871 100.32,213.88 C96.9117146,215.46985 94.572244,218.714067 94.14,222.45 C93.84,226.59 95.76,230.83 99.26,232.7 C101.91,234.12 105.77,233.7 106.85,233.62 C107.634948,232.662977 108.031186,231.445706 107.96,230.21 C108.08,227.55 105.11,226.38 104.49,223.39 C104.22,222.11 104.3,220.05 106.42,217.09 Z"/>
    <path fill="#FFAE91" d="M74.06,363.28 C73.82,364.86 72.33,367.28 71.16,369.5 C73.0421711,371.297267 75.5580029,372.278441 78.16,372.23 C78.6183866,372.227279 79.0760768,372.193871 79.53,372.13 C79.1263792,370.188433 79.6185493,368.168332 80.87,366.63 C79.47,366.1 75.44,363.81 74.06,363.28 Z"/>
    <path fill="#251A3E" d="M100.5,281.94 C99.58,284.67 97.67,285.94 96.13,291.34 C93.04,302.15 93.73,313.34 90.33,322.34 C87.14,330.81 85.5,330.65 80.33,341.64 C76.4920974,349.77832 73.2859711,358.199834 70.74,366.83 C73.8049932,369.048487 77.4590242,370.308258 81.24,370.45 C87.4392652,357.431539 94.3531371,344.765566 101.95,332.51 C107.4,323.62 112.12,316.83 115.95,305.87 C118.624298,298.223478 120.30473,290.264948 120.95,282.19 C114.44,282.07 107,282.07 100.5,281.94 Z"/>
    <path fill="#D09475" d="M106.37,226.13 C106.192672,225.904037 105.932635,225.758022 105.647392,225.724243 C105.362149,225.690464 105.075201,225.771705 104.85,225.95 C104.416568,226.347788 104.266444,226.968037 104.47,227.52 C104.677669,228.058954 105.086347,228.496311 105.61,228.74 C106.1546,229.032375 106.784525,229.124387 107.39,229 C108.00007,228.865087 108.504816,228.438857 108.74,227.86"/>
    <path fill="#251A3E" d="M69.7,372.73 C69.7,372.73 68.9,374.97 69.34,375.67 C69.66,376.16 73.77,378.56 77.34,380.06 C79.46,380.94 85.53,382.77 86.21,382.54 C86.62,382.41 87.21,381.1 87.21,381.1 C87.21,381.1 80.15,378.92 77.93,377.93 C74.8995454,376.699328 72.1126479,374.93847 69.7,372.73 Z"/>
    <path fill="#9271C5" d="M122.78,253.68 C122.64,247.39 121.02,239.24 119.86,234.41 L120.08,234.55 C123.073112,238.762486 125.119888,243.572408 126.08,248.65 C129.4,263.56 122.71,280.95 120.58,287.55 C118.725938,287.81549 116.851003,287.905889 114.98,287.82 C118.6,279.32 123.1,268.23 122.78,253.68 Z"/>
    <path fill="#CEB7EB" d="M120.79,204.36 C122.054331,205.14563 123.563916,205.437578 125.03,205.18 L124.97,205.53 L124.57,205.58 C123.201197,205.708169 121.82804,205.385074 120.66,204.66 L120.79,204.36 Z"/>
    <path fill="#D09475" d="M98.59,285.73 C98.59,285.73 106.85,290.73 120.06,290.02 C120.319931,289.120331 120.503909,288.200437 120.61,287.27 C107.73,287.11 99.52,282.7 99.52,282.7 L98.59,285.73 Z"/>
    <path stroke="#EEF0F3" stroke-width="2" d="M314.97 157.6L364.62 157.6M314.97 163.08L364.62 163.08M314.97 168.56L364.62 168.56M314.97 174.04L364.62 174.04M314.97 179.52L364.62 179.52"/>
    <rect width="17.12" height="23.63" x="314.97" y="193.56" fill="url(#costumized-f)"/>
    <rect width="17.12" height="23.63" x="337.57" y="193.56" fill="url(#costumized-f)"/>
    <rect width="17.12" height="23.63" x="314.97" y="223" fill="url(#costumized-g)"/>
    <rect width="17.12" height="23.63" x="337.57" y="223" fill="url(#costumized-g)"/>
    <path fill="#FCCDAC" d="M333.76 180.21C331.76 179.11 331.53 178.1 329.54 175.45 327.657211 172.954146 325.51895 170.661716 323.16 168.61 323.579664 167.34622 323.658993 165.994186 323.39 164.69 323.12 163.37 322.76 162.16 322.16 161.85 322.159556 160.870017 322.011219 159.895713 321.72 158.96 321.59 158.55 321.35 158.08 320.92 158.04 320.596061 158.049248 320.310626 158.255396 320.2 158.56 320.103818 158.863472 320.066483 159.182521 320.09 159.5L320.15 161.88C319.079775 162.155529 318.139115 162.795602 317.49 163.69 316.32 165.48 317.41 168.03 318.56 170.38 321.396659 176.018627 324.851196 181.324528 328.86 186.2 330.86 187.28 333.86 188.71 336.54 190.12 337.909076 190.916913 339.348456 191.586392 340.84 192.12 340.99 188.56 341.15 185 341.3 181.44 338.83 181.36 336.2 181.53 333.76 180.21zM355.35 162.54C353.84 162.8 353.94 167.16 353.98 170.06 353.98 173.4 355.15 177.42 357.57 178.69 358.87 179.37 360.12 179.07 361.37 177.94 367.26 172.64 363.62 167.39 361.37 165.13 360.35 164.14 357 162.26 355.35 162.54z"/>
    <path fill="#251A3E" d="M376.91 297.29C377.05 298.29 376.19 299.64 376.75 301.14 377.83 303.98 377.19 305.01 376.91 305.21 374.45 306.9 370.74 305.12 367.67 304.09 363.96 302.86 357.91 301.02 357.91 301.02 357.721685 300.348947 357.804273 299.630789 358.14 299.02 358.6 298.02 362.19 298.58 364.62 298.56 365.978533 298.685868 367.343032 298.392727 368.53 297.72 369.4 297.14 369.23 296.17 369.53 295.64L376.91 297.29zM351.41 298.37C350.88 300.29 353.05 303.89 351.03 305.82 349.26 307.51 346.03 305.89 342.27 305.2 337.34 304.3 335.8 304.43 334.51 302.98 333.22 301.53 332.41 300.3 333.14 299.36 333.62 298.76 335.27 298.13 337.97 298.29 340.83 298.45 341.73 299.24 342.88 298.8 344.03 298.36 344.56 296.93 345.04 296.14 347.09 296.93 349.36 297.57 351.41 298.37z"/>
    <path fill="#FCCDAC" d="M384.06 203.33C384.31 205.95 383.75 209.33 384.11 212.76 384.42 215.76 383.24 218.47 382.52 220.54 380.29 226.95 379.81 227.97 378.12 231.2 376.85 233.61 378.12 234.94 377.3 237.75 376.61 239.98 375.4 241.99 373.76 242.04 371.66 240.65 373.04 238.46 373.03 233.25 373.020644 231.329881 373.466133 229.43484 374.33 227.72 375.646386 223.511049 376.570328 219.189278 377.09 214.81 377.356034 211.821647 376.77008 208.819065 375.4 206.15 378.2 205.3 381.26 204.19 384.06 203.33zM360.81 182.21C360.5 180.75 361.72 178.83 359.11 177.83 359.6 177.05 359.49 175.15 362.91 173.94 365.386218 173.076642 368.087259 173.112042 370.54 174.04 370.102997 175.074917 369.924525 176.200666 370.02 177.32 370.21 179.32 372.02 181.19 372.41 181.67 368.77 181.72 364.44 182.16 360.81 182.21z"/>
    <path fill="#251A3E" d="M353.9,155.41 C356.51,151.88 361.76,151.81 364.45,152.68 C367.596531,153.793329 370.084787,156.248603 371.24,159.38 C371.24,159.38 373.83,160.32 374.48,162.46 C375.42,165.53 374.42,167.95 372.25,170.68 C371.1,172.14 371.3,176.27 369.87,177.15 C368.76,177.83 366.01,177.02 364.15,176.3 C364.019041,174.832917 364.019041,173.357083 364.15,171.89 C364.33,170.89 362.36,168.29 361.92,167.79 C360.894399,166.826244 359.613665,166.1772 358.23,165.92 C355.930642,165.248648 353.989714,163.695906 352.83,161.6 C352.53,160.92 351.68,158.4 353.9,155.41 Z"/>
    <path fill="#FCCDAC" d="M362,167.84 C362.134452,167.257189 362.65189,166.843239 363.25,166.84 C363.846748,166.858507 364.397884,167.163866 364.73,167.66 C365.057241,168.151813 365.250285,168.720602 365.29,169.31 C365.36648,169.87632 365.304721,170.452737 365.11,170.99 C364.904776,171.526807 364.478549,171.949392 363.94,172.15 C363.382839,172.334802 362.769981,172.141268 362.42,171.67"/>
    <path fill="#251A3E" d="M377.38 304.44C377.38 304.44 377.04 306.23 376.54 306.44 375.77 306.74 370.09 305.9 366.17 304.75 364.09 304.13 359.17 302.59 358.17 301.9 357.83 301.67 357.82 300.33 357.82 300.33 360.693135 301.498573 363.63136 302.500241 366.62 303.33 370.121834 304.285916 373.756766 304.660895 377.38 304.44zM351.74 304.79C351.74 304.79 351.84 306.68 351.38 307 349.89 308 343.72 307 341.38 306.23 339.2 305.54 333.95 304.08 333.29 302.95 333.027845 302.050762 332.906408 301.116375 332.93 300.18 332.93 300.18 333.74 302.84 342.15 304.64 348.87 306.07 351.74 304.79 351.74 304.79z"/>
    <path fill="#502E9D" d="M378.07,203.86 C378.60256,201.616983 378.937178,199.331543 379.07,197.03 C379.300242,194.737968 379.280123,192.427675 379.01,190.14 C378.76,188.61 378.34,186.38 377.93,184.9 C378.37,185.18 379.45,185.85 379.93,186.23 C381.75,187.66 383.05,190.23 384.13,194.53 C384.43,195.72 385.13,209.62 384.45,214.53 C384.11,217.04 379.6,229.53 378.06,232.1 C377.54,232.48 372.59,232.26 373.38,229.71 C376.12,220.8 377.55,209.56 375.78,209.85 C376.14,208.87 377.82,204.88 378.07,203.86 Z"/>
    <path fill="#251A3E" d="M361.9,246.8 C363.041576,245.837028 364.003158,244.679066 364.74,243.38 C365.849738,242.012404 366.771267,240.502307 367.48,238.89 C368.10724,237.363693 368.582862,235.779403 368.9,234.16 C369.08,233.16 369.32,229.98 369.41,228.93 C371.11,228.93 373.8,228.01 375.35,228.01 C377.71,234.01 377.11,242.12 377.3,245.84 C377.63,252.58 375.82,263.35 378.07,272.6 C380.12,281.03 376.82,300.5 376.59,300.73 C375.59,301.23 371.3,301.07 367.82,298 C367.82,298 369.19,281 366.91,273.28 C364.25,264.24 362.25,249.52 361.9,246.8 Z"/>
    <path fill="#251A3E" d="M345.11,269.71 C344.87,260.6 344.51,255.84 346.41,248.12 C348.41,239.21 348.29,233.87 348.81,229.21 C355,229.21 362.9,229.21 369.7,229.38 C369.632423,232.636072 369.192904,235.87375 368.39,239.03 C367.464431,242.527161 365.123507,245.480493 361.93,247.18 C359.370505,253.489934 357.606929,260.094106 356.68,266.84 C355.68,273.61 356.36,276.13 355.04,286 C354.39,290.92 353.34,297.06 352.45,301.42 C350.25,302.16 344.81,300.14 343.68,298.42 C344.65,286.57 345.27,276.23 345.11,269.71 Z"/>
    <path fill="#502E9D" d="M323.58,168.89 C325.73,170.51 332.75,178.89 333.8,179.67 C335.06,180.59 350.02,181.46 351.59,181.52 C353,181.52 355.81,181.75 358.88,181.8 C359.98,181.8 359.88,180.69 360.13,179.62 C362.127441,180.073152 364.172095,180.284667 366.22,180.25 C367.811625,180.112057 369.360805,179.663611 370.78,178.93 C371.13,180.43 374.07,182.14 375.71,183.36 C376.87,184.22 377.71,184.69 378.41,185.16 C378.74,186.71 379.05,188.27 379.26,189.85 C379.585812,192.168193 379.682946,194.512801 379.55,196.85 C379.429364,199.203466 379.125106,201.543915 378.64,203.85 C378.42,204.93 378.14,205.99 377.84,207.04 C376.674279,209.876742 375.816041,212.830286 375.28,215.85 C374.02,222.85 376.64,229.98 376.12,230.32 C374.82,231.42 369.04,232.32 362.77,232.03 C357.34,231.73 350.15,231.17 347.7,230.32 C347.87,228.09 349.07,221.06 349.58,214.05 C350.15,206.34 350.84,200.18 350.03,195.05 C338.45,192.63 330.61,188.39 328.81,187.15 C326.64,185.67 319.66,173.77 319.15,171.76 C319.93,170.46 321.87,169.46 323.58,168.89 Z"/>
    <path fill="#CEB7EB" d="M325.65 170.85C323.630302 171.644479 321.849628 172.946403 320.48 174.63L320.74 175.12C322.125918 173.378581 323.95734 172.044753 326.04 171.26L325.65 170.85zM361.66 182.05C361.043869 181.893526 360.441799 181.686147 359.86 181.43 359.632859 181.576896 359.391672 181.700839 359.14 181.8 359.912415 182.121574 360.712343 182.372598 361.53 182.55 362.599103 182.768548 363.688956 182.869149 364.78 182.85 366.56217 182.913026 368.340986 182.652133 370.03 182.08 370.774741 181.744631 371.424274 181.229128 371.92 180.58L371.52 180.25C371.072602 180.835069 370.489008 181.301943 369.82 181.61 368.17 182.36 363.89 182.59 361.66 182.05z"/>
    <rect width="40" height="8" x="126.56" y="181" fill="url(#costumized-h)"/>
    <rect width="46" height="9" x="151.56" y="200" fill="url(#costumized-h)"/>
    <rect width="44" height="8" x="128.56" y="222" fill="url(#costumized-h)"/>
    <rect width="40" height="8" x="164.56" y="242" fill="url(#costumized-h)"/>
    <path fill="#D09475" d="M122.5,230.55 C128.57,222.87 128.39,221.65 130.05,217.22 C131.91,212.22 133.5,203.49 134.28,200.01 C134.69,198.19 134.7,197.69 135.28,196.94 C136.606004,195.423537 137.731871,193.743139 138.63,191.94 C139.22,190.64 140.52,186.27 138.75,185.39 C136.4,184.21 134.75,188.39 134.11,191.03 C133.94,191.73 131.81,192.35 131.81,192.35 C131.81,192.35 131.74,195.55 131.63,195.99 C130.46,200.74 128.27,203.43 123.57,214.67 C121.91,218.67 120.13,217.67 116.83,223.88 L122.5,230.55 Z"/>
    <path fill="#9271C5" d="M130.74,197.18 C131.18,198.8 133.68,199.46 135,199.02 C134.44,200.09 132.91,211.94 129.35,220.3 C127.070713,225.491471 123.880383,230.232938 119.93,234.3 C122.979176,238.581444 125.051278,243.480071 126,248.65 C129.32,263.56 122.7,280.76 120.57,287.36 C116.222629,287.952122 111.811599,287.898206 107.48,287.2 C104.13,286.69 100.25,285.95 98.99,284.68 C101.76,274.21 100.4,264.87 100.33,259.42 C100.24,251.9 99.93,245.63 99.82,241.15 C100.048157,238.418282 101.165141,235.836574 103,233.8 C105,231.47 106.57,231.68 109,230.47 C110.37,229.79 116.67,223.47 122,216.34 C123.77,214 130.48,199 130.74,197.18 Z"/>
    <path fill="#CEB7EB" d="M130,199.5 C131.273423,200.567502 132.928799,201.066283 134.58,200.88 C134.58,200.99 134.53,201.1 134.51,201.22 L133.95,201.22 C132.467606,201.235434 131.026961,200.729261 129.88,199.79 L130,199.5 Z"/>
  </g>
</svg>
