<svg xmlns="http://www.w3.org/2000/svg" width="953" height="209" viewBox="0 0 953 209">
  <defs>
    <linearGradient id="cypher3-a" x1="32.338%" x2="142.272%" y1="32.021%" y2="139.064%">
      <stop offset="0%" stop-color="#3023AE"/>
      <stop offset="100%" stop-color="#D428E8"/>
    </linearGradient>
    <linearGradient id="cypher3-b" x1="49.987%" x2="49.987%" y1="100.011%" y2="-.02%">
      <stop offset="0%" stop-color="#CACFE5"/>
      <stop offset="38%" stop-color="#E5E8F2"/>
      <stop offset="74%" stop-color="#F8F9FC"/>
      <stop offset="99%" stop-color="#FFF"/>
    </linearGradient>
    <linearGradient id="cypher3-c" x1="0%" x2="85.613%" y1="0%" y2="89.677%">
      <stop offset="0%" stop-color="#3023AE"/>
      <stop offset="100%" stop-color="#C86DD7"/>
    </linearGradient>
  </defs>
  <g fill="none" fill-rule="evenodd">
    <path fill="#FFF" d="M299.3186,66.7815126 C310.917127,66.7815126 320.438306,71.0532213 328.228361,79.767507 C336.018416,88.3109244 340,99.0756303 340,111.890756 C340,124.705882 336.018416,135.470588 328.228361,144.184874 C320.438306,152.728291 310.917127,157 299.3186,157 C288.758748,157 280.622468,153.582633 274.736648,146.747899 L274.736648,154.607843 L246,154.607843 L246,35 L274.736648,35 L274.736648,77.0336134 C280.622468,70.1988796 288.758748,66.7815126 299.3186,66.7815126 Z M280.833333,125.770642 C284,129.256881 288.333333,131 293.5,131 C298.666667,131 303,129.256881 306.166667,125.770642 C309.333333,122.284404 311,117.752294 311,112 C311,106.247706 309.333333,101.715596 306.166667,98.2293578 C303,94.7431193 298.666667,93 293.5,93 C288.333333,93 284,94.7431193 280.833333,98.2293578 C277.666667,101.715596 276,106.247706 276,112 C276,117.752294 277.666667,122.284404 280.833333,125.770642 Z M442.770992,122.397727 L382.198473,122.397727 C385.183206,129.386364 391.679389,132.795455 401.862595,132.795455 C408.183206,132.795455 413.450382,130.75 417.839695,126.829545 L438.908397,141.147727 C430.305344,151.715909 417.664122,157 401.160305,157 C386.236641,157 374.29771,152.738636 365.343511,144.386364 C356.389313,135.863636 352,125.125 352,112.170455 C352,99.3863636 356.389313,88.6477273 365.167939,79.9545455 C373.946565,71.2613636 385.183206,67 398.70229,67 C411.870229,67 422.580153,71.2613636 431.183206,79.7840909 C439.78626,88.3068182 444,99.0454545 444,111.829545 C444,115.579545 443.648855,119.159091 442.770992,122.397727 Z M381,103 L414,103 C411.765625,94.9428571 406.265625,91 397.84375,91 C389.078125,91 383.40625,94.9428571 381,103 Z M540.416021,116.784 L551.757106,70 L582,70 L555.709302,156 L527.872093,156 L515.5,112.312 L503.127907,156 L475.290698,156 L449,70 L479.242894,70 L490.583979,116.784 L503.471576,70 L527.528424,70 L540.416021,116.784 Z M677.770992,122.397727 L617.198473,122.397727 C620.183206,129.386364 626.679389,132.795455 636.862595,132.795455 C643.183206,132.795455 648.450382,130.75 652.839695,126.829545 L673.908397,141.147727 C665.305344,151.715909 652.664122,157 636.160305,157 C621.236641,157 609.29771,152.738636 600.343511,144.386364 C591.389313,135.863636 587,125.125 587,112.170455 C587,99.3863636 591.389313,88.6477273 600.167939,79.9545455 C608.946565,71.2613636 620.183206,67 633.70229,67 C646.870229,67 657.580153,71.2613636 666.183206,79.7840909 C674.78626,88.3068182 679,99.0454545 679,111.829545 C679,115.579545 678.648855,119.159091 677.770992,122.397727 Z M618,103 L651,103 C648.765625,94.9428571 643.265625,91 634.84375,91 C626.078125,91 620.40625,94.9428571 618,103 Z M722.892405,69.7058824 L722.892405,85.5705882 C726.199367,74.4823529 736.990506,68 749,68 L749,99.3882353 C742.386076,98.3647059 736.294304,99.5588235 730.898734,102.970588 C725.503165,106.382353 722.892405,112.011765 722.892405,119.688235 L722.892405,155 L694,155 L694,69.7058824 L722.892405,69.7058824 Z M816.3186,66.7815126 C827.917127,66.7815126 837.438306,71.0532213 845.228361,79.767507 C853.018416,88.3109244 857,99.0756303 857,111.890756 C857,124.705882 853.018416,135.470588 845.228361,144.184874 C837.438306,152.728291 827.917127,157 816.3186,157 C805.758748,157 797.622468,153.582633 791.736648,146.747899 L791.736648,154.607843 L763,154.607843 L763,35 L791.736648,35 L791.736648,77.0336134 C797.622468,70.1988796 805.758748,66.7815126 816.3186,66.7815126 Z M796.833333,125.770642 C800,129.256881 804.333333,131 809.5,131 C814.666667,131 819,129.256881 822.166667,125.770642 C825.333333,122.284404 827,117.752294 827,112 C827,106.247706 825.333333,101.715596 822.166667,98.2293578 C819,94.7431193 814.666667,93 809.5,93 C804.333333,93 800,94.7431193 796.833333,98.2293578 C793.666667,101.715596 792,106.247706 792,112 C792,117.752294 793.666667,122.284404 796.833333,125.770642 Z M902,155 L873,155 L873,29 L902,29 L902,155 Z M947.972656,57.1929134 C941.613281,63.6023622 931.472656,63.6023622 924.769531,57.1929134 C918.410156,50.4370079 918.410156,40.2165354 924.769531,33.8070866 C931.472656,27.3976378 941.613281,27.3976378 947.972656,33.8070866 C954.675781,40.2165354 954.675781,50.4370079 947.972656,57.1929134 Z M952,156 L923,156 L923,70 L952,70 L952,156 Z"/>
    <path fill="url(#cypher3-a)" d="M101.4454,84.0136106 L5.6126,139.33808 C-1.3804,143.385956 -1.3804,153.546195 5.6126,157.594071 L88.8111,205.535885 C96.681887,210.060231 106.368513,210.060231 114.2393,205.535885 L197.358,157.594071 C204.351,153.546195 204.351,143.385956 197.358,139.33808 L101.4454,84.0136106 Z"/>
    <path fill="url(#cypher3-b)" fill-rule="nonzero" d="M101.4454,55.3953363 L192.9879,108.100221 C193.6235,108.417619 193.8615,108.973416 193.8615,109.687212 C193.8615,110.402407 193.5437,110.878504 192.9879,111.274903 L109.8685,159.217416 C107.3261,160.646407 104.4652,161.439903 101.5245,161.439903 C98.5845,161.439903 95.7243,160.646407 93.1812,159.217416 L9.9036,111.274903 C9.268,110.957504 9.03,110.402407 9.03,109.687912 C9.03,108.973416 9.3478,108.497319 9.9036,108.100221 L101.4454,55.3953363 Z M101.4454,45.3147965 L5.6126,100.560265 C-1.3804,104.608142 -1.4595,114.768381 5.6126,118.816257 L88.8111,166.75877 C92.6722223,168.999676 97.0594842,170.17743 101.5252,170.17185 C105.990916,170.17743 110.378178,168.999676 114.2393,166.75877 L197.358,118.816257 C204.351,114.768381 204.351,104.608142 197.358,100.560265 L101.4454,45.3161947 L101.4454,45.3147965 Z" opacity=".345"/>
    <path fill="url(#cypher3-c)" d="M5.5335,51.8669027 C-1.4595,55.9147788 -1.4595,66.0750177 5.5335,70.1235929 L88.7313,118.065407 C96.602087,122.589753 106.288713,122.589753 114.1595,118.065407 L197.2789,70.1235929 C204.2719,66.0757168 204.2719,55.9154779 197.2789,51.8669027 L114.0804,3.9250885 C106.209613,-0.599257625 96.522987,-0.599257625 88.6522,3.9250885 L5.5335,51.8669027 Z"/>
    <polygon fill="#FFF" points="126.794 54.565 101.445 69.568 86.666 60.995 112.014 46.073 101.445 39.961 64.972 60.995 101.445 82.03 137.92 60.995"/>
  </g>
</svg>
