<svg id="Layer_4" data-name="Layer 4" xmlns="http://www.w3.org/2000/svg" xmlns:xlink="http://www.w3.org/1999/xlink" viewBox="0 0 5120.78 1201.6"><defs><style>.cls-1,.cls-10,.cls-11,.cls-12,.cls-13,.cls-14,.cls-15,.cls-16,.cls-17,.cls-18,.cls-19,.cls-2,.cls-20,.cls-21,.cls-22,.cls-23,.cls-24,.cls-25,.cls-26,.cls-27,.cls-28,.cls-29,.cls-3,.cls-30,.cls-31,.cls-32,.cls-33,.cls-34,.cls-35,.cls-36,.cls-37,.cls-4,.cls-5,.cls-6,.cls-7,.cls-8,.cls-9{fill:none;stroke-miterlimit:10;stroke-width:0.98px;}.cls-1{stroke:url(#linear-gradient);}.cls-2{stroke:url(#linear-gradient-2);}.cls-3{stroke:url(#linear-gradient-3);}.cls-4{stroke:url(#linear-gradient-4);}.cls-5{stroke:url(#linear-gradient-5);}.cls-6{stroke:url(#linear-gradient-6);}.cls-7{stroke:url(#linear-gradient-7);}.cls-8{stroke:url(#linear-gradient-8);}.cls-9{stroke:url(#linear-gradient-9);}.cls-10{stroke:url(#linear-gradient-10);}.cls-11{stroke:url(#linear-gradient-11);}.cls-12{stroke:url(#linear-gradient-12);}.cls-13{stroke:url(#linear-gradient-13);}.cls-14{stroke:url(#linear-gradient-14);}.cls-15{stroke:url(#linear-gradient-15);}.cls-16{stroke:url(#linear-gradient-16);}.cls-17{stroke:url(#linear-gradient-17);}.cls-18{stroke:url(#linear-gradient-18);}.cls-19{stroke:url(#linear-gradient-19);}.cls-20{stroke:url(#linear-gradient-20);}.cls-21{stroke:url(#linear-gradient-21);}.cls-22{stroke:url(#linear-gradient-22);}.cls-23{stroke:url(#linear-gradient-23);}.cls-24{stroke:url(#linear-gradient-24);}.cls-25{stroke:url(#linear-gradient-25);}.cls-26{stroke:url(#linear-gradient-26);}.cls-27{stroke:url(#linear-gradient-27);}.cls-28{stroke:url(#linear-gradient-28);}.cls-29{stroke:url(#linear-gradient-29);}.cls-30{stroke:url(#linear-gradient-30);}.cls-31{stroke:url(#linear-gradient-31);}.cls-32{stroke:url(#linear-gradient-32);}.cls-33{stroke:url(#linear-gradient-33);}.cls-34{stroke:url(#linear-gradient-34);}.cls-35{stroke:url(#linear-gradient-35);}.cls-36{stroke:url(#linear-gradient-36);}.cls-37{stroke:url(#linear-gradient-37);}</style><linearGradient id="linear-gradient" x1="-94.58" y1="670.9" x2="5196.43" y2="536.91" gradientTransform="matrix(0.97, 0.03, -0.03, 1, 110.54, -63.76)" gradientUnits="userSpaceOnUse"><stop offset="0" stop-color="#fff"/><stop offset="0.09" stop-color="#f2a46c"/><stop offset="0.47" stop-color="#ee8a41"/><stop offset="0.88" stop-color="#f580a0"/><stop offset="0.99" stop-color="#fff"/></linearGradient><linearGradient id="linear-gradient-2" x1="-94.47" y1="670.34" x2="5196.5" y2="536.35" xlink:href="#linear-gradient"/><linearGradient id="linear-gradient-3" x1="-94.36" y1="669.85" x2="5196.57" y2="535.85" xlink:href="#linear-gradient"/><linearGradient id="linear-gradient-4" x1="-94.24" y1="669.85" x2="5196.66" y2="535.86" xlink:href="#linear-gradient"/><linearGradient id="linear-gradient-5" x1="-94.11" y1="669.95" x2="5196.74" y2="535.96" xlink:href="#linear-gradient"/><linearGradient id="linear-gradient-6" x1="-93.98" y1="670.59" x2="5196.84" y2="536.61" xlink:href="#linear-gradient"/><linearGradient id="linear-gradient-7" x1="-93.82" y1="671.99" x2="5196.96" y2="538.01" xlink:href="#linear-gradient"/><linearGradient id="linear-gradient-8" x1="-93.64" y1="674.29" x2="5197.1" y2="540.3" xlink:href="#linear-gradient"/><linearGradient id="linear-gradient-9" x1="-93.44" y1="677.49" x2="5197.26" y2="543.51" xlink:href="#linear-gradient"/><linearGradient id="linear-gradient-10" x1="-93.21" y1="681.52" x2="5197.44" y2="547.54" xlink:href="#linear-gradient"/><linearGradient id="linear-gradient-11" x1="-92.98" y1="686.21" x2="5197.65" y2="552.23" xlink:href="#linear-gradient"/><linearGradient id="linear-gradient-12" x1="-92.73" y1="691.28" x2="5197.86" y2="557.3" xlink:href="#linear-gradient"/><linearGradient id="linear-gradient-13" x1="-92.48" y1="696.31" x2="5198.07" y2="562.32" xlink:href="#linear-gradient"/><linearGradient id="linear-gradient-14" x1="-92.25" y1="700.63" x2="5198.26" y2="566.65" xlink:href="#linear-gradient"/><linearGradient id="linear-gradient-15" x1="-92.06" y1="703.45" x2="5198.41" y2="569.47" xlink:href="#linear-gradient"/><linearGradient id="linear-gradient-16" x1="-91.92" y1="704.41" x2="5198.52" y2="570.43" xlink:href="#linear-gradient"/><linearGradient id="linear-gradient-17" x1="-91.81" y1="703.9" x2="5198.58" y2="569.92" xlink:href="#linear-gradient"/><linearGradient id="linear-gradient-18" x1="-91.73" y1="702.55" x2="5198.63" y2="568.57" xlink:href="#linear-gradient"/><linearGradient id="linear-gradient-19" x1="-91.65" y1="700.81" x2="5198.67" y2="566.83" xlink:href="#linear-gradient"/><linearGradient id="linear-gradient-20" x1="-91.58" y1="698.94" x2="5198.7" y2="564.97" xlink:href="#linear-gradient"/><linearGradient id="linear-gradient-21" x1="-91.51" y1="697.09" x2="5198.73" y2="563.12" xlink:href="#linear-gradient"/><linearGradient id="linear-gradient-22" x1="-91.44" y1="695.33" x2="5198.77" y2="561.35" xlink:href="#linear-gradient"/><linearGradient id="linear-gradient-23" x1="-91.36" y1="693.69" x2="5198.81" y2="559.72" xlink:href="#linear-gradient"/><linearGradient id="linear-gradient-24" x1="-91.28" y1="692.2" x2="5198.85" y2="558.23" xlink:href="#linear-gradient"/><linearGradient id="linear-gradient-25" x1="-91.2" y1="690.87" x2="5198.9" y2="556.9" xlink:href="#linear-gradient"/><linearGradient id="linear-gradient-26" x1="-91.12" y1="689.74" x2="5198.95" y2="555.77" xlink:href="#linear-gradient"/><linearGradient id="linear-gradient-27" x1="-91.04" y1="688.82" x2="5199" y2="554.85" xlink:href="#linear-gradient"/><linearGradient id="linear-gradient-28" x1="-90.95" y1="688.09" x2="5199.06" y2="554.12" xlink:href="#linear-gradient"/><linearGradient id="linear-gradient-29" x1="-90.86" y1="687.53" x2="5199.12" y2="553.57" xlink:href="#linear-gradient"/><linearGradient id="linear-gradient-30" x1="-90.76" y1="687.14" x2="5199.19" y2="553.18" xlink:href="#linear-gradient"/><linearGradient id="linear-gradient-31" x1="-90.66" y1="686.9" x2="5199.26" y2="552.93" xlink:href="#linear-gradient"/><linearGradient id="linear-gradient-32" x1="-90.56" y1="686.79" x2="5199.33" y2="552.83" xlink:href="#linear-gradient"/><linearGradient id="linear-gradient-33" x1="-90.45" y1="686.81" x2="5199.41" y2="552.85" xlink:href="#linear-gradient"/><linearGradient id="linear-gradient-34" x1="-90.34" y1="686.95" x2="5199.48" y2="552.99" xlink:href="#linear-gradient"/><linearGradient id="linear-gradient-35" x1="-90.23" y1="687.2" x2="5199.56" y2="553.24" xlink:href="#linear-gradient"/><linearGradient id="linear-gradient-36" x1="-90.11" y1="687.55" x2="5199.64" y2="553.59" xlink:href="#linear-gradient"/><linearGradient id="linear-gradient-37" x1="-89.99" y1="688" x2="5199.72" y2="554.04" xlink:href="#linear-gradient"/></defs><title>Forms</title><path class="cls-1" d="M-.4,497c261.12-121.13,301.82-451.47,742-391.27,351,48,367,906.09,883.1,966.1,416.21,48.4,919.86-23.54,1617.51,25.56,614,43.21,882.45-8,1877.75-386.91" transform="translate(0.61 -20.77)"/><path class="cls-2" d="M-.22,483.81c267.7-116,304.94-422,745.19-362.05,352.42,47.93,371.23,864.11,891.59,932.92,414.28,54.78,913.87-13.7,1610.6,27.19,615.81,35,897.35,11.22,1872.84-357.17" transform="translate(0.61 -20.77)"/><path class="cls-3" d="M0,470.6C274.25,359.69,308,78.15,748.3,137.76c353.81,47.85,375.38,822,900.09,899.74,412.31,61,907.89-3.85,1603.69,28.83,617.64,26.8,912.24,30.44,1867.92-327.42" transform="translate(0.61 -20.77)"/><path class="cls-4" d="M.15,457.38C281,351.59,311.33,94.44,751.64,153.76c355.2,47.77,379.49,779.88,908.58,866.56,410.34,67.22,901.85,7.8,1596.78,30.47,619.41,20.21,927.14,49.66,1863-297.67" transform="translate(0.61 -20.77)"/><path class="cls-5" d="M.33,444.17C287.78,343.48,314.63,110.74,755,169.77c356.59,47.69,383.57,737.62,917.08,833.37,408.34,73.29,895.88,18.17,1589.87,32.11,621.25,12.48,942,68.88,1858.09-267.93" transform="translate(0.61 -20.77)"/><path class="cls-6" d="M.51,431c294-95.57,317.42-303.92,757.79-245.18,358,47.61,387.62,695.27,925.57,800.19,406.34,79.26,889.92,28.5,1583,33.74,623.1,4.72,956.93,88.1,1853.17-238.18" transform="translate(0.61 -20.77)"/><path class="cls-7" d="M.7,417.73c300.62-90.46,320.54-274.41,760.94-216,359.37,47.53,391.66,652.81,934.06,767,404.33,85.13,884,38.79,1576,35.38,625-3.08,971.83,107.33,1848.25-208.44" transform="translate(0.61 -20.77)"/><path class="cls-8" d="M.88,404.52C308.08,319.17,324.54,159.62,765,217.77,1125.73,265.22,1160.66,828,1707.53,951.6c402.32,90.91,878,49,1569.13,37,626.83-10.9,986.73,126.55,1843.34-178.69" transform="translate(0.61 -20.77)"/><path class="cls-9" d="M1.06,391.3c313.79-80.24,326.78-215.39,767.24-157.53,362.15,47.37,399.7,567.6,951.05,700.65,400.31,96.6,872.11,59.25,1562.22,38.66C3910.3,954.33,4283.2,1118.85,5120,824.14" transform="translate(0.61 -20.77)"/><path class="cls-10" d="M1.25,378.09C321.62,303,331.14,192.21,771.64,249.77c363.54,47.29,403.71,524.85,959.55,667.47,398.31,102.2,866.19,69.42,1555.31,40.3,630.6-26.65,1016.52,165,1833.5-119.2" transform="translate(0.61 -20.77)"/><path class="cls-11" d="M1.43,364.87c327-70,333-156.37,773.54-99.09,364.93,47.21,407.73,482,968,634.29,396.31,107.72,860.28,79.55,1548.4,41.93,632.49-34.57,1031.41,184.21,1828.58-89.45" transform="translate(0.61 -20.77)"/><path class="cls-12" d="M1.61,351.65c333.53-64.9,336.13-126.86,776.69-69.88,366.32,47.13,411.75,439,976.54,601.11,394.32,113.15,854.37,89.64,1541.49,43.57,634.39-42.53,1046.31,203.43,1823.67-59.71" transform="translate(0.61 -20.77)"/><path class="cls-13" d="M1.8,338.44C341.92,278.65,341,241.09,781.64,297.78c367.71,47,415.79,396,985,567.93C2159,984.22,2615.14,965.4,3301.25,910.92c636.29-50.53,1061.21,222.65,1818.75-30" transform="translate(0.61 -20.77)"/><path class="cls-14" d="M2,325.22c346.7-54.68,342.37-67.84,783-11.44,369.1,47,419.84,352.83,993.53,534.75,390.38,123.79,842.56,109.7,1527.66,46.85,638.19-58.55,1076.1,241.87,1813.83-.21" transform="translate(0.61 -20.77)"/><path class="cls-15" d="M2.16,312c353.28-49.56,345.49-38.33,786.14,17.78,370.49,46.89,423.92,309.58,1002,501.57C2178.76,960.35,2627,951,3311.08,879.84c640.09-66.62,1091,261.09,1808.92,29.53" transform="translate(0.61 -20.77)"/><path class="cls-16" d="M2.35,298.79c359.87-44.45,348.61-8.82,789.29,47,371.88,46.81,428,266.23,1010.52,468.39,386.5,134.14,830.75,129.62,1513.84,50.12,642-74.71,1105.9,280.31,1804,59.28" transform="translate(0.61 -20.77)"/><path class="cls-17" d="M2.53,285.57C369,246.23,354.26,306.27,795,361.79,1168.24,408.51,1227.13,584.57,1814,797c384.6,139.21,824.84,139.52,1506.93,51.76,643.89-82.84,1120.79,299.53,1799.08,89" transform="translate(0.61 -20.77)"/><path class="cls-18" d="M2.71,272.36c373-34.23,354.85,50.2,795.59,105.43C1173,424.44,1234.63,557,1825.82,779.82c382.71,144.22,818.93,149.38,1500,53.4C3971.62,742.2,4461.52,1152,5120,952" transform="translate(0.61 -20.77)"/><path class="cls-19" d="M2.9,259.14c379.62-29.11,358,79.71,798.75,134.65,376,46.57,440.52,135.61,1036,368.85,380.85,149.17,813,159.21,1493.11,55,647.68-99.21,1150.59,338,1789.25,148.52" transform="translate(0.61 -20.77)"/><path class="cls-20" d="M3.08,245.92c386.2-24,361.08,109.22,801.9,163.87,377.43,46.49,444.77,91.88,1044.5,335.67,379,154.07,807.09,169,1486.19,56.67C3985.23,694.69,4501.15,1159.33,5120,980.39" transform="translate(0.61 -20.77)"/><path class="cls-21" d="M3.26,232.71c392.78-18.89,364.2,138.73,805,193.08,378.82,46.41,449.06,48.07,1053,302.49C2238.51,887.19,2662.46,907,3340.58,786.59,3992,670.88,4521,1163,5120,994.6" transform="translate(0.61 -20.77)"/><path class="cls-22" d="M3.45,219.49c399.37-13.78,367.32,168.24,808.2,222.3C1191.86,488.12,1265,446,1873.13,711.1,2248.56,874.8,2668.35,899.58,3345.5,771,3998.82,647,4540.77,1166.68,5120,1008.8" transform="translate(0.61 -20.77)"/><path class="cls-23" d="M3.63,206.28C409.58,197.61,374.07,404,815,457.79,1196.58,504,1272.77,418,1885,693.92c373.68,168.45,789.28,198.17,1465.46,61.58C4005.59,623.16,4560.59,1170.36,5120,1023" transform="translate(0.61 -20.77)"/><path class="cls-24" d="M3.81,193.06c412.53-3.55,373.56,227.27,814.5,280.74,383,46.17,462.23-83.91,1078.47,202.95,372,173.15,783.32,207.83,1458.55,63.22C4012.36,599.26,4580.4,1174,5120,1037.21" transform="translate(0.61 -20.77)"/><path class="cls-25" d="M4,179.84c419.12,1.56,376.68,256.78,817.65,310,384.38,46.09,466.73-128.08,1087,169.77C2278.88,837.37,2686,877,3360.25,724.42c658.87-149.11,1240,453.3,1759.75,327" transform="translate(0.61 -20.77)"/><path class="cls-26" d="M4.18,166.63C429.88,173.3,384,452.91,825,505.8c385.77,46,471.28-172.32,1095.46,136.59,368.61,182.42,771.37,227.05,1444.72,66.5C4025.86,551.35,4620,1181.4,5120,1065.62" transform="translate(0.61 -20.77)"/><path class="cls-27" d="M4.37,153.41C436.65,165.2,387.28,469.21,828.31,521.8c387.16,45.93,475.9-216.64,1104,103.41,367,187,765.37,236.62,1437.81,68.13,662.51-166,1269.76,491.74,1749.92,386.49" transform="translate(0.61 -20.77)"/><path class="cls-28" d="M4.55,140.2c438.87,16.9,386,345.31,827.1,397.61,388.55,45.85,480.58-261,1112.45,70.23C2309.49,799.58,2703.46,854.19,3375,677.8c664.3-174.49,1284.65,511,1745,416.23" transform="translate(0.61 -20.77)"/><path class="cls-29" d="M4.73,127C450.18,149,393.89,501.8,835,553.8c389.94,45.77,485.32-305.51,1120.95,37,363.82,196.07,753.34,255.67,1424,71.41,666.09-183,1299.55,530.18,1740.08,446" transform="translate(0.61 -20.77)"/><path class="cls-30" d="M4.92,113.76c452,27.12,392.27,404.33,833.4,456,391.33,45.69,490.13-350.06,1129.44,3.86,362.29,200.56,747.3,265.15,1417.08,73,667.86-191.55,1314.45,549.4,1735.17,475.73" transform="translate(0.61 -20.77)"/><path class="cls-31" d="M5.1,100.55c458.62,32.23,395.39,433.84,836.55,485.26,392.72,45.61,495-394.67,1137.94-29.32,360.8,205,741.24,274.61,1410.17,74.68C4059.36,431,4719.09,1199.8,5120,1136.65" transform="translate(0.61 -20.77)"/><path class="cls-32" d="M5.28,87.33C470.48,124.68,403.79,550.68,845,601.81c394.11,45.53,499.94-439.35,1146.43-62.5,359.33,209.46,735.17,284,1403.25,76.32C4066,406.9,4738.91,1203.48,5120,1150.85" transform="translate(0.61 -20.77)"/><path class="cls-33" d="M5.47,74.11C477.25,116.57,407.09,567,848.31,617.81c395.5,45.45,504.95-484.09,1154.93-95.68,357.9,213.88,729.07,293.46,1396.34,78,673.06-217.37,1359.14,607.07,1720.42,565" transform="translate(0.61 -20.77)"/><path class="cls-34" d="M5.65,60.9C484,108.47,410.4,583.27,851.65,633.81c396.89,45.37,510-528.9,1163.42-128.86,356.51,218.27,723,302.85,1389.43,79.6,674.75-226,1374,626.29,1715.5,594.71" transform="translate(0.61 -20.77)"/><path class="cls-35" d="M5.83,47.68C490.78,100.36,413.7,599.56,855,649.81c398.28,45.29,515.18-573.77,1171.92-162C2382,710.43,2743.38,799,3409.42,569,4085.49,333.27,4798.35,1214.52,5120,1193.47" transform="translate(0.61 -20.77)"/><path class="cls-36" d="M6,34.47c491.53,57.79,411,581.39,852.3,631.35C1258,711,1378.71,47.13,2038.73,470.6c353.81,227,710.5,321,1375.61,82.87,677.9-243.95,1403.82,664.73,1705.67,654.2" transform="translate(0.61 -20.77)"/><path class="cls-37" d="M6.2,21.25C504.32,84.16,420.3,632.15,861.65,681.82,1262.7,727,1387.33,18.15,2050.56,453.42c352.51,231.35,704.52,330.89,1368.7,84.51C4099,285.78,4838,1221.88,5120,1221.88" transform="translate(0.61 -20.77)"/></svg>