<?xml version="1.0" encoding="UTF-8"?>
<svg width="637px" height="791px" viewBox="0 0 637 791" version="1.1" xmlns="http://www.w3.org/2000/svg" xmlns:xlink="http://www.w3.org/1999/xlink">
    <!-- Generator: Sketch 52.6 (67491) - http://www.bohemiancoding.com/sketch -->
    <title>Group</title>
    <desc>Created with Sketch.</desc>
    <g id="Page-1" stroke="none" stroke-width="1" fill="none" fill-rule="evenodd">
        <g id="Job-Search" transform="translate(-1532.000000, 0.000000)">
            <g id="Group" transform="translate(597.000000, 0.000000)">
                <g>
                    <g transform="translate(935.000000, 0.000000)">
                        <rect id="Rectangle" fill="#FFFFFF" transform="translate(318.626245, 395.842135) rotate(7.805165) translate(-318.626245, -395.842135) " x="47.485989" y="34.3051275" width="542.280512" height="723.074015"></rect>
                        <rect id="Rectangle" fill="#DAD90F" transform="translate(468.903025, 202.695970) rotate(7.805165) translate(-468.903025, -202.695970) " x="404.75533" y="131.098543" width="128.295389" height="143.194854"></rect>
                        <ellipse id="Oval" fill="#FFFFFF" transform="translate(472.878110, 173.759850) rotate(7.805165) translate(-472.878110, -173.759850) " cx="472.87811" cy="173.75985" rx="22.5991879" ry="24.599116"></ellipse>
                        <path d="M513.9,250.7 C516.6,230.8 502.7,212.5 482.8,209.7 L453.8,205.7 C433.9,203 415.6,216.9 412.8,236.8 C412.8,236.8 411.8,243.7 462.4,250.7 C513,257.6 513.9,250.7 513.9,250.7 Z" id="Path" fill="#FFFFFF"></path>
                        <g transform="translate(247.392402, 96.160006) rotate(7.805165) translate(-247.392402, -96.160006) translate(158.392402, 76.160006)" fill="#346667" font-family="MetronicProBold" font-size="30.28" font-weight="bold" id="LEBENSLAUF" letter-spacing="-0.899999976">
                            <text>
                                <tspan x="0.942561087" y="23.6712979">LEBENSLAUF</tspan>
                            </text>
                        </g>
                        <rect id="Rectangle" fill="#C6C6C6" transform="translate(225.761750, 135.855105) rotate(7.805165) translate(-225.761750, -135.855105) " x="153.464348" y="131.805251" width="144.594804" height="8.09970892"></rect>
                        <rect id="Rectangle" fill="#C6C6C6" transform="translate(206.573150, 154.541135) rotate(7.805165) translate(-206.573150, -154.541135) " x="150.775155" y="150.491281" width="111.59599" height="8.09970892"></rect>
                        <rect id="Rectangle" fill="#C6C6C6" transform="translate(203.766470, 175.450525) rotate(7.805165) translate(-203.766470, -175.450525) " x="147.968475" y="171.400671" width="111.59599" height="8.09970892"></rect>
                        <rect id="Rectangle" fill="#C6C6C6" transform="translate(217.163090, 199.162035) rotate(7.805165) translate(-217.163090, -199.162035) " x="144.865688" y="195.112181" width="144.594804" height="8.09970892"></rect>
                        <rect id="Rectangle" fill="#C6C6C6" transform="translate(233.416165, 282.132285) rotate(7.805165) translate(-233.416165, -282.132285) " x="133.66975" y="278.082431" width="199.492831" height="8.09970892"></rect>
                        <rect id="Rectangle" fill="#C6C6C6" transform="translate(181.072700, 395.037085) rotate(7.805165) translate(-181.072700, -395.037085) " x="117.874971" y="390.987231" width="126.395458" height="8.09970892"></rect>
                        <rect id="Rectangle" fill="#C6C6C6" transform="translate(302.737275, 411.618375) rotate(7.805165) translate(-302.737275, -411.618375) " x="265.088628" y="407.568521" width="75.297294" height="8.09970892"></rect>
                        <rect id="Rectangle" fill="#C6C6C6" transform="translate(178.478460, 414.445885) rotate(7.805165) translate(-178.478460, -414.445885) " x="115.280731" y="410.396031" width="126.395458" height="8.09970892"></rect>
                        <rect id="Rectangle" fill="#C6C6C6" transform="translate(300.126855, 431.129745) rotate(7.805165) translate(-300.126855, -431.129745) " x="262.478208" y="427.079891" width="75.297294" height="8.09970892"></rect>
                        <rect id="Rectangle" fill="#C6C6C6" transform="translate(175.760850, 433.869505) rotate(7.805165) translate(-175.760850, -433.869505) " x="112.563121" y="429.819651" width="126.395458" height="8.09970892"></rect>
                        <rect id="Rectangle" fill="#C6C6C6" transform="translate(297.412645, 450.550265) rotate(7.805165) translate(-297.412645, -450.550265) " x="259.763998" y="446.500411" width="75.297294" height="8.09970892"></rect>
                        <rect id="Rectangle" fill="#C6C6C6" transform="translate(173.054060, 453.363795) rotate(7.805165) translate(-173.054060, -453.363795) " x="109.856331" y="449.313941" width="126.395458" height="8.09970892"></rect>
                        <rect id="Rectangle" fill="#C6C6C6" transform="translate(294.685155, 470.069855) rotate(7.805165) translate(-294.685155, -470.069855) " x="257.036508" y="466.020001" width="75.297294" height="8.09970892"></rect>
                        <rect id="Rectangle" fill="#C6C6C6" transform="translate(170.473320, 472.756295) rotate(7.805165) translate(-170.473320, -472.756295) " x="107.275591" y="468.706441" width="126.395458" height="8.09970892"></rect>
                        <rect id="Rectangle" fill="#C6C6C6" transform="translate(292.132315, 489.428055) rotate(7.805165) translate(-292.132315, -489.428055) " x="254.483668" y="485.378201" width="75.297294" height="8.09970892"></rect>
                        <rect id="Rectangle" fill="#C6C6C6" transform="translate(167.777230, 492.238485) rotate(7.805165) translate(-167.777230, -492.238485) " x="104.579501" y="488.188631" width="126.395458" height="8.09970892"></rect>
                        <rect id="Rectangle" fill="#C6C6C6" transform="translate(289.428625, 508.918645) rotate(7.805165) translate(-289.428625, -508.918645) " x="251.779978" y="504.868791" width="75.297294" height="8.09970892"></rect>
                        <rect id="Rectangle" fill="#C6C6C6" transform="translate(165.071420, 511.647605) rotate(7.805165) translate(-165.071420, -511.647605) " x="101.873691" y="507.597751" width="126.395458" height="8.09970892"></rect>
                        <rect id="Rectangle" fill="#C6C6C6" transform="translate(155.257780, 583.256785) rotate(7.805165) translate(-155.257780, -583.256785) " x="92.0600511" y="579.206931" width="126.395458" height="8.09970892"></rect>
                        <rect id="Rectangle" fill="#C6C6C6" transform="translate(131.286660, 602.125915) rotate(7.805165) translate(-131.286660, -602.125915) " x="89.2881693" y="598.076061" width="83.9969814" height="8.09970892"></rect>
                        <rect id="Rectangle" fill="#C6C6C6" transform="translate(286.735315, 528.313965) rotate(7.805165) translate(-286.735315, -528.313965) " x="249.086668" y="524.264111" width="75.297294" height="8.09970892"></rect>
                        <rect id="Rectangle" fill="#C6C6C6" transform="translate(187.078600, 297.042385) rotate(7.805165) translate(-187.078600, -297.042385) " x="131.280605" y="292.992531" width="111.59599" height="8.09970892"></rect>
                        <rect id="Rectangle" fill="#C6C6C6" transform="translate(184.162150, 317.952195) rotate(7.805165) translate(-184.162150, -317.952195) " x="128.364155" y="313.902341" width="111.59599" height="8.09970892"></rect>
                        <rect id="Rectangle" fill="#C6C6C6" transform="translate(312.559150, 335.548235) rotate(7.805165) translate(-312.559150, -335.548235) " x="256.761155" y="331.498381" width="111.59599" height="8.09970892"></rect>
                        <rect id="Rectangle" fill="#C6C6C6" transform="translate(224.804005, 345.457115) rotate(7.805165) translate(-224.804005, -345.457115) " x="125.05759" y="341.407261" width="199.492831" height="8.09970892"></rect>
                    </g>
                </g>
            </g>
        </g>
    </g>
</svg>