<svg xmlns="http://www.w3.org/2000/svg" width="486" height="322" viewBox="0 0 486 322">
  <g fill="none" fill-rule="evenodd">
    <path fill="#6B47B3" fill-rule="nonzero" d="M179,270 C179.552285,270 180,269.552285 180,269 C180,268.447715 179.552285,268 179,268 C178.447715,268 178,268.447715 178,269 C178,269.552285 178.447715,270 179,270 Z M179,271 C177.895431,271 177,270.104569 177,269 C177,267.895431 177.895431,267 179,267 C180.104569,267 181,267.895431 181,269 C181,270.104569 180.104569,271 179,271 Z M196,182 C196.552285,182 197,181.552285 197,181 C197,180.447715 196.552285,180 196,180 C195.447715,180 195,180.447715 195,181 C195,181.552285 195.447715,182 196,182 Z M196,183 C194.895431,183 194,182.104569 194,181 C194,179.895431 194.895431,179 196,179 C197.104569,179 198,179.895431 198,181 C198,182.104569 197.104569,183 196,183 Z"/>
    <polygon fill="#6B47B3" points="362 268 362 266 363 266 363 268 365 268 365 269 363 269 363 271 362 271 362 269 360 269 360 268"/>
    <path fill="#96F" fill-rule="nonzero" d="M61.776461,3.77646095 C62.3287457,3.77646095 62.776461,3.32874565 62.776461,2.77646095 C62.776461,2.22417625 62.3287457,1.77646095 61.776461,1.77646095 C61.2241763,1.77646095 60.776461,2.22417625 60.776461,2.77646095 C60.776461,3.32874565 61.2241763,3.77646095 61.776461,3.77646095 Z M61.776461,4.77646095 C60.6718915,4.77646095 59.776461,3.88103045 59.776461,2.77646095 C59.776461,1.67189145 60.6718915,0.776460952 61.776461,0.776460952 C62.8810305,0.776460952 63.776461,1.67189145 63.776461,2.77646095 C63.776461,3.88103045 62.8810305,4.77646095 61.776461,4.77646095 Z" transform="rotate(34 61.776 2.776)"/>
    <g fill="#96F" fill-rule="nonzero" transform="translate(66 53)">
      <path d="M8.06145088,2.72289465 C8.31976078,2.98120445 8.31976078,3.40000735 8.06145088,3.65831715 L6.65831708,5.06145095 C6.40000728,5.31976075 5.98120438,5.31976075 5.72289458,5.06145095 C5.46458478,4.80314115 5.46458478,4.38433825 5.72289458,4.12602845 L7.12602838,2.72289465 C7.38433818,2.46458475 7.80314108,2.46458475 8.06145088,2.72289465 Z" transform="rotate(34 6.892 3.892)"/>
      <path d="M3.06145095,3.72289458 C3.31976075,3.98120438 3.31976075,4.40000728 3.06145095,4.65831708 L1.65831715,6.06145088 C1.40000735,6.31976078 0.981204455,6.31976078 0.722894655,6.06145088 C0.464584755,5.80314108 0.464584755,5.38433818 0.722894655,5.12602838 L2.12602845,3.72289458 C2.38433825,3.46458478 2.80314115,3.46458478 3.06145095,3.72289458 Z" transform="rotate(34 1.892 4.892)"/>
      <path d="M6.06145088,8.06145088 C5.80314108,8.31976078 5.38433818,8.31976078 5.12602838,8.06145088 L3.72289458,6.65831708 C3.46458478,6.40000728 3.46458478,5.98120438 3.72289458,5.72289458 C3.98120438,5.46458478 4.40000728,5.46458478 4.65831708,5.72289458 L6.06145088,7.12602838 C6.31976078,7.38433818 6.31976078,7.80314108 6.06145088,8.06145088 Z" transform="rotate(34 4.892 6.892)"/>
      <path d="M5.06145095,3.06145095 C4.80314115,3.31976075 4.38433825,3.31976075 4.12602845,3.06145095 L2.72289465,1.65831715 C2.46458475,1.40000735 2.46458475,0.981204455 2.72289465,0.722894655 C2.98120445,0.464584755 3.40000735,0.464584755 3.65831715,0.722894655 L5.06145095,2.12602845 C5.31976075,2.38433825 5.31976075,2.80314115 5.06145095,3.06145095 Z" transform="rotate(34 3.892 1.892)"/>
    </g>
    <path fill="#96F" fill-rule="nonzero" d="M263.306268,274.693732 C263.564578,274.952042 263.564578,275.370845 263.306268,275.629155 L261.903134,277.032289 C261.644824,277.290599 261.226021,277.290599 260.967711,277.032289 C260.709402,276.773979 260.709402,276.355176 260.967711,276.096866 L262.370845,274.693732 C262.629155,274.435423 263.047958,274.435423 263.306268,274.693732 Z M260.032289,277.967711 C260.290599,278.226021 260.290599,278.644824 260.032289,278.903134 L258.629155,280.306268 C258.370845,280.564578 257.952042,280.564578 257.693732,280.306268 C257.435423,280.047958 257.435423,279.629155 257.693732,279.370845 L259.096866,277.967711 C259.355176,277.709402 259.773979,277.709402 260.032289,277.967711 Z M263.306268,280.306268 C263.047958,280.564578 262.629155,280.564578 262.370845,280.306268 L260.967711,278.903134 C260.709402,278.644824 260.709402,278.226021 260.967711,277.967711 C261.226021,277.709402 261.644824,277.709402 261.903134,277.967711 L263.306268,279.370845 C263.564578,279.629155 263.564578,280.047958 263.306268,280.306268 Z M260.032289,277.032289 C259.773979,277.290599 259.355176,277.290599 259.096866,277.032289 L257.693732,275.629155 C257.435423,275.370845 257.435423,274.952042 257.693732,274.693732 C257.952042,274.435423 258.370845,274.435423 258.629155,274.693732 L260.032289,276.096866 C260.290599,276.355176 260.290599,276.773979 260.032289,277.032289 Z M249.306268,343.693732 C249.564578,343.952042 249.564578,344.370845 249.306268,344.629155 L247.903134,346.032289 C247.644824,346.290599 247.226021,346.290599 246.967711,346.032289 C246.709402,345.773979 246.709402,345.355176 246.967711,345.096866 L248.370845,343.693732 C248.629155,343.435423 249.047958,343.435423 249.306268,343.693732 Z M246.032289,346.967711 C246.290599,347.226021 246.290599,347.644824 246.032289,347.903134 L244.629155,349.306268 C244.370845,349.564578 243.952042,349.564578 243.693732,349.306268 C243.435423,349.047958 243.435423,348.629155 243.693732,348.370845 L245.096866,346.967711 C245.355176,346.709402 245.773979,346.709402 246.032289,346.967711 Z M249.306268,349.306268 C249.047958,349.564578 248.629155,349.564578 248.370845,349.306268 L246.967711,347.903134 C246.709402,347.644824 246.709402,347.226021 246.967711,346.967711 C247.226021,346.709402 247.644824,346.709402 247.903134,346.967711 L249.306268,348.370845 C249.564578,348.629155 249.564578,349.047958 249.306268,349.306268 Z M246.032289,346.032289 C245.773979,346.290599 245.355176,346.290599 245.096866,346.032289 L243.693732,344.629155 C243.435423,344.370845 243.435423,343.952042 243.693732,343.693732 C243.952042,343.435423 244.370845,343.435423 244.629155,343.693732 L246.032289,345.096866 C246.290599,345.355176 246.290599,345.773979 246.032289,346.032289 Z" transform="rotate(90 253.5 312)"/>
    <path fill="#E667E6" fill-rule="nonzero" d="M458,200 C458.552285,200 459,199.552285 459,199 C459,198.447715 458.552285,198 458,198 C457.447715,198 457,198.447715 457,199 C457,199.552285 457.447715,200 458,200 Z M458,201 C456.895431,201 456,200.104569 456,199 C456,197.895431 456.895431,197 458,197 C459.104569,197 460,197.895431 460,199 C460,200.104569 459.104569,201 458,201 Z M481,114 C481.552285,114 482,113.552285 482,113 C482,112.447715 481.552285,112 481,112 C480.447715,112 480,112.447715 480,113 C480,113.552285 480.447715,114 481,114 Z M481,115 C479.895431,115 479,114.104569 479,113 C479,111.895431 479.895431,111 481,111 C482.104569,111 483,111.895431 483,113 C483,114.104569 482.104569,115 481,115 Z"/>
    <polygon fill="#E667E6" points="298 6 298 4 299 4 299 6 301 6 301 7 299 7 299 9 298 9 298 7 296 7 296 6"/>
    <path fill="#E667E6" fill-rule="nonzero" d="M416,23 C416.552285,23 417,22.5522847 417,22 C417,21.4477153 416.552285,21 416,21 C415.447715,21 415,21.4477153 415,22 C415,22.5522847 415.447715,23 416,23 Z"/>
    <path fill="#E667E6" fill-rule="nonzero" d="M416,24 C414.89543,24 414,23.1045695 414,22 C414,20.8954305 414.89543,20 416,20 C417.10457,20 418,20.8954305 418,22 C418,23.1045695 417.10457,24 416,24 Z"/>
    <g fill="#E667E6" fill-rule="nonzero" transform="translate(5 45)">
      <path d="M2,3 C2.552285,3 3,2.5522847 3,2 C3,1.4477153 2.552285,1 2,1 C1.447715,1 1,1.4477153 1,2 C1,2.5522847 1.447715,3 2,3 Z"/>
      <path d="M2,4 C0.895431,4 0,3.1045695 0,2 C0,0.8954305 0.895431,0 2,0 C3.104569,0 4,0.8954305 4,2 C4,3.1045695 3.104569,4 2,4 Z"/>
    </g>
    <path fill="#E667E6" fill-rule="nonzero" d="M247 59C247.552285 59 248 58.5522847 248 58 248 57.4477153 247.552285 57 247 57 246.447715 57 246 57.4477153 246 58 246 58.5522847 246.447715 59 247 59zM247 60C245.895431 60 245 59.1045695 245 58 245 56.8954305 245.895431 56 247 56 248.104569 56 249 56.8954305 249 58 249 59.1045695 248.104569 60 247 60zM449 72C449.552285 72 450 71.5522847 450 71 450 70.4477153 449.552285 70 449 70 448.447715 70 448 70.4477153 448 71 448 71.5522847 448.447715 72 449 72zM449 73C447.895431 73 447 72.1045695 447 71 447 69.8954305 447.895431 69 449 69 450.104569 69 451 69.8954305 451 71 451 72.1045695 450.104569 73 449 73zM234.806268 97.1937324C235.064577 97.4520422 235.064577 97.8708451 234.806268 98.1291549L233.403134 99.5322887C233.144824 99.7905985 232.726021 99.7905985 232.467711 99.5322887 232.209401 99.2739789 232.209401 98.855176 232.467711 98.5968662L233.870845 97.1937324C234.129155 96.9354225 234.547958 96.9354225 234.806268 97.1937324zM231.532289 100.467711C231.790599 100.726021 231.790599 101.144824 231.532289 101.403134L230.129155 102.806268C229.870845 103.064578 229.452042 103.064578 229.193732 102.806268 228.935423 102.547958 228.935423 102.129155 229.193732 101.870845L230.596866 100.467711C230.855176 100.209402 231.273979 100.209402 231.532289 100.467711zM234.806268 102.806268C234.547958 103.064578 234.129155 103.064578 233.870845 102.806268L232.467711 101.403134C232.209401 101.144824 232.209401 100.726021 232.467711 100.467711 232.726021 100.209402 233.144824 100.209402 233.403134 100.467711L234.806268 101.870845C235.064577 102.129155 235.064577 102.547958 234.806268 102.806268zM231.532289 99.5322887C231.273979 99.7905985 230.855176 99.7905985 230.596866 99.5322887L229.193732 98.1291549C228.935423 97.8708451 228.935423 97.4520422 229.193732 97.1937324 229.452042 96.9354225 229.870845 96.9354225 230.129155 97.1937324L231.532289 98.5968662C231.790599 98.855176 231.790599 99.2739789 231.532289 99.5322887z"/>
    <path fill="#E667E6" fill-rule="nonzero" d="M5.80626763.193732025C6.06457753.452042025 6.06457753.870845025 5.80626763 1.12915503L4.40313383 2.53228903C4.14482403 2.79059903 3.72602113 2.79059903 3.46771133 2.53228903 3.20940153 2.27397903 3.20940153 1.85517603 3.46771133 1.59686603L4.87084513.193732025C5.12915493-.064576975 5.54795783-.064576975 5.80626763.193732025zM2.53228873 3.46771103C2.79059853 3.72602103 2.79059853 4.14482403 2.53228873 4.40313403L1.12915493 5.80626803C.870845125 6.06457703.452042225 6.06457703.193732425 5.80626803-.064577475 5.54795803-.064577475 5.12915503.193732425 4.87084503L1.59686623 3.46771103C1.85517603 3.20940103 2.27397893 3.20940103 2.53228873 3.46771103zM5.80626763 5.80626803C5.54795783 6.06457703 5.12915493 6.06457703 4.87084513 5.80626803L3.46771133 4.40313403C3.20940153 4.14482403 3.20940153 3.72602103 3.46771133 3.46771103 3.72602113 3.20940103 4.14482403 3.20940103 4.40313383 3.46771103L5.80626763 4.87084503C6.06457753 5.12915503 6.06457753 5.54795803 5.80626763 5.80626803zM2.53228873 2.53228903C2.27397893 2.79059903 1.85517603 2.79059903 1.59686623 2.53228903L.193732425 1.12915503C-.064577475.870845025-.064577475.452042025.193732425.193732025.452042225-.064576975.870845125-.064576975 1.12915493.193732025L2.53228873 1.59686603C2.79059853 1.85517603 2.79059853 2.27397903 2.53228873 2.53228903z" transform="translate(53 254)"/>
    <path fill="#E667E6" fill-rule="nonzero" d="M5.80626763 159.193732C6.06457753 159.452042 6.06457753 159.870845 5.80626763 160.129155L4.40313383 161.532289C4.14482403 161.790599 3.72602113 161.790599 3.46771133 161.532289 3.20940153 161.273979 3.20940153 160.855176 3.46771133 160.596866L4.87084513 159.193732C5.12915493 158.935423 5.54795783 158.935423 5.80626763 159.193732zM2.53228872 162.467711C2.79059853 162.726021 2.79059853 163.144824 2.53228872 163.403134L1.12915492 164.806268C.870845125 165.064578.452042225 165.064578.193732425 164.806268-.064577475 164.547958-.064577475 164.129155.193732425 163.870845L1.59686623 162.467711C1.85517602 162.209402 2.27397892 162.209402 2.53228872 162.467711zM5.80626763 164.806268C5.54795783 165.064578 5.12915493 165.064578 4.87084513 164.806268L3.46771133 163.403134C3.20940153 163.144824 3.20940153 162.726021 3.46771133 162.467711 3.72602113 162.209402 4.14482403 162.209402 4.40313383 162.467711L5.80626763 163.870845C6.06457753 164.129155 6.06457753 164.547958 5.80626763 164.806268zM2.53228872 161.532289C2.27397892 161.790599 1.85517602 161.790599 1.59686623 161.532289L.193732425 160.129155C-.064577475 159.870845-.064577475 159.452042.193732425 159.193732.452042225 158.935423.870845125 158.935423 1.12915492 159.193732L2.53228872 160.596866C2.79059853 160.855176 2.79059853 161.273979 2.53228872 161.532289zM49.6666667 134.490738C49.312829 134.807431 48.8455696 135 48.3333333 135L44.3333333 135 44.3333333 133.666667 48.3333333 133.666667C48.7015232 133.666667 49 133.36819 49 133L49 113C49 112.63181 48.7015232 112.333333 48.3333333 112.333333L44.3333333 112.333333 44.3333333 111 48.3333333 111C48.8455696 111 49.312829 111.192569 49.6666667 111.509262 50.0205043 111.192569 50.4877637 111 51 111L55 111 55 112.333333 51 112.333333C50.6318102 112.333333 50.3333333 112.63181 50.3333333 113L50.3333333 133C50.3333333 133.36819 50.6318102 133.666667 51 133.666667L55 133.666667 55 135 51 135C50.4877637 135 50.0205043 134.807431 49.6666667 134.490738zM40.5213148 124.662182L38.2059579 117.750374 35.8433487 124.662182 40.5213148 124.662182zM46.3333333 130.019432L46.3333333 131 39.9070365 131 39.9070365 130.019432 42.2223934 129.732437 40.8993323 125.786248 35.4653313 125.786248 34.1422702 129.70852 36.434001 130.019432 36.434001 131 31 131 31 130.019432 33.0082178 129.70852 38.0642013 115 39.4817668 115 44.5613765 129.804185 46.3333333 130.019432zM50 175C50.5522847 175 51 174.552285 51 174 51 173.447715 50.5522847 173 50 173 49.4477153 173 49 173.447715 49 174 49 174.552285 49.4477153 175 50 175zM50 176C48.8954305 176 48 175.104569 48 174 48 172.895431 48.8954305 172 50 172 51.1045695 172 52 172.895431 52 174 52 175.104569 51.1045695 176 50 176zM368.033218 50.4998901L378 50.4998901 378 51.4998901 367.613293 51.4998901C366.861871 53.1248174 366.02885 54.0742716 365.082898 54.3513564 364.368281 54.5606796 363.783267 54.4002596 363.497495 53.8536711 363.280206 53.4380672 363.285227 52.8687423 363.456512 52.1786317 363.510366 51.9616539 363.580808 51.734052 363.665704 51.4998901L360 51.4998901 360 50.4998901 364.096015 50.4998901C364.483768 49.7152626 364.989917 48.9210511 365.543999 48.251502 365.70958 48.0514161 365.875601 47.8618375 366.042834 47.6817977 366.762997 46.906484 367.479877 46.3191981 368.354462 45.7921971 368.574763 44.7892662 368.787875 43.8582339 368.993914 42.9988538 367.924036 43.4045227 366.676948 43.7503744 365.256195 44.0364903L365.058775 43.0561713C366.753565 42.714869 368.160074 42.299448 369.285925 41.810083 369.902053 39.3655972 370.451092 37.604972 370.936467 36.5209245 371.855111 34.4692057 373.062212 34.4827276 373.585428 36.6257813 374.203278 39.1564486 373.021141 41.1162268 370.142783 42.507494 369.941982 43.3206028 369.733591 44.2071797 369.517702 45.1670963 369.809646 45.0257132 370.119532 44.8849753 370.45102 44.7419781 370.883633 44.5553576 371.102939 44.465385 372.160236 44.036551 373.593392 43.4552706 374.469687 43.4455133 374.380761 44.459767 374.343478 44.8849926 374.073294 45.3109461 373.358344 46.2603339 373.329353 46.2988115 373.329353 46.2988115 373.300404 46.3371749 372.990935 46.747167 372.993571 46.7436609 372.893074 46.8808368 372.645633 47.2185883 372.401505 47.5480083 372.160414 47.8694451 372.582278 47.6224822 373.076977 47.3255977 373.643867 46.9791014 375.000957 46.1496161 376.0296 45.728577 376.780514 45.728577 377.721586 45.728577 378.227467 46.3729581 378.204526 47.4167077L377.204768 47.3947343C377.216324 46.8689586 377.106115 46.728577 376.780514 46.728577 376.264754 46.728577 375.376139 47.0923006 374.165386 47.8323406 372.871157 48.6234034 371.944371 49.1616482 371.37775 49.4505864 371.053487 49.6159384 370.83964 49.7061507 370.676228 49.7324042 370.373428 49.7810516 370.040734 49.6651296 370.026177 49.2307357 370.019876 49.0427176 370.083463 48.9283147 370.198477 48.7865608 370.803941 48.0136071 371.433261 47.1813593 372.086392 46.289851 372.191152 46.1468553 372.188228 46.1507448 372.502253 45.7347173 372.530937 45.6967061 372.530937 45.6967061 372.559521 45.6587686 372.866758 45.2507854 373.085364 44.9395983 373.220107 44.7202468 373.040829 44.7710768 372.812011 44.8513177 372.536092 44.9632292 371.487173 45.3886651 371.270051 45.4777417 370.847117 45.6601869 370.237479 45.9231725 369.709882 46.175232 369.236957 46.4372961 369.217728 46.5257558 369.198443 46.614764 369.179102 46.7043205 368.817172 48.1816426 368.437042 49.4466511 368.033218 50.4998901zM366.95632 50.4998901C367.319514 49.6104598 367.674116 48.5197016 368.014467 47.228611 367.578717 47.5604946 367.178096 47.9289591 366.77552 48.3623647 366.621426 48.5282591 366.467968 48.7034922 366.314409 48.8890515 365.913275 49.3737786 365.538384 49.9335365 365.224661 50.4998901L366.95632 50.4998901zM366.50177 51.4998901L364.738455 51.4998901C364.604105 51.8227483 364.497955 52.1339037 364.427065 52.4195225 364.309258 52.8941661 364.306189 53.2421247 364.383684 53.390347 364.418365 53.4566798 364.501788 53.4795559 364.801793 53.3916795 365.369696 53.2253313 365.942891 52.5935851 366.50177 51.4998901zM372.613962 36.86296C372.330078 35.7001952 372.399258 35.7009701 371.849158 36.9295757 371.446587 37.8286848 370.987832 39.2544298 370.474617 41.2043631 372.35359 40.0728641 373.044207 38.6252141 372.613962 36.86296zM362.666667 46.4998901L364 47.8332234 363.333333 48.4998901 362 47.1665568 360.666667 48.4998901 360 47.8332234 361.333333 46.4998901 360 45.1665568 360.666667 44.4998901 362 45.8332234 363.333333 44.4998901 364 45.1665568 362.666667 46.4998901zM465.909091 157.454545L483.636364 139.727273 481.272727 137.363636 463.545455 155.090909 465.909091 157.454545zM464.727273 158.636364L462.363636 156.272727 461.671343 156.96502 461.671343 159.328657 464.03498 159.328657 464.727273 158.636364zM481.272727 135L486 139.727273 464.727273 161 460 161 460 156.272727 481.272727 135z"/>
    <g transform="translate(68 13)">
      <g transform="translate(224 12)">
        <circle cx="22.9" cy="23" r="22.59" fill="#F2F2F1"/>
        <circle cx="22.9" cy="5.1" r="1.28" fill="#030303" fill-opacity=".1"/>
        <circle cx="40.8" cy="23" r="1.28" fill="#030303" fill-opacity=".1"/>
        <circle cx="22.9" cy="40.9" r="1.28" fill="#030303" fill-opacity=".1"/>
        <polygon fill="#AFB9C6" points="22.9 7.66 23.75 22.57 22.05 22.57"/>
        <polygon fill="#AFB9C6" points="30.44 30.54 22.61 23.91 23.81 22.71"/>
        <circle cx="22.9" cy="23" r="1.7" fill="#C5CFD6"/>
      </g>
      <path fill="#61237B" d="M201.52,155.85 C198.58,123 40.9,59.63 11.63,90.73 C-17.64,121.83 10.5,180.22 71.84,195.16 C133.18,210.1 204.46,188.69 201.52,155.85 Z" opacity=".34"/>
      <path fill="#F2A14C" d="M188.48,149 C191.11,121.1 332.35,67.25 358.57,93.68 C384.79,120.11 378.15,175.68 323.2,188.39 C268.25,201.1 185.85,176.9 188.48,149 Z" opacity=".34"/>
      <rect width="25.15" height="2.98" x="337.5" y="208.91" fill="#AFB9C6" rx="1.28"/>
      <g transform="translate(2 110)">
        <g transform="translate(10)">
          <path fill="#DEE3E9" d="M10.53,0.53 C11.7631948,0.34115977 13.0242882,0.475538568 14.19,0.92 C16.6,1.92 17.29,4.8 17.26,7.12 C17.26,9.62 16.69,12.34 18.59,14.35 C19.46,15.27 20.59,15.98 21.4,16.92 C22.3030766,17.9223481 23.0330478,19.0679974 23.56,20.31 C24.6679569,22.5907584 24.8681254,25.2072462 24.12,27.63 C23.33,29.73 21.36,31.63 21.78,34 C22.2,36.37 24.78,38.39 26.3,40.24 C28.2449616,42.3329279 29.5316499,44.9515127 30,47.77 C30.1473717,50.4596444 29.1901706,53.0928504 27.35,55.06 C23.7042836,58.9728339 18.556324,61.1354138 13.21,61 C10.95,61 8.38,60.89 6.43,59.68 C5.89266514,59.336642 5.45204473,58.8615981 5.15,58.3 C4.82803158,57.7878933 4.40633293,57.3457898 3.91,57 C2.85159116,56.1840768 2.03566679,55.0950252 1.55,53.85 C-0.38,49.06 1.16,43.14 3.87,38.85 C4.612247,37.9690333 4.92705096,36.8049907 4.73,35.67 C4.30939132,34.4260374 3.69150568,33.2577946 2.9,32.21 C2.160564,31.1801293 1.49234192,30.1009506 0.9,28.98 C0.356759428,27.795152 0.139288907,26.4868769 0.27,25.19 C0.523587048,22.7453352 1.47080691,20.424126 3,18.5 C4.46,16.58 6.17,14.74 6.18,12.23 C6.18,9.56 4.4,7.23 5.18,4.48 C5.47593824,3.29069495 6.18475103,2.24519608 7.18,1.53 C8.20928456,0.953762738 9.35326438,0.612276224 10.53,0.53 Z"/>
          <path fill="#C5CFD6" d="M9.73,4.79 C9.75965938,4.61723001 9.86221257,4.46557009 10.011506,4.37369722 C10.1607994,4.28182435 10.3424017,4.25861933 10.51,4.31 C10.95,4.43 10.94,4.84 10.93,5.21 C10.9100863,6.32649845 11.0446951,7.44038598 11.33,8.52 C12.0099105,10.7494151 12.8213326,12.9365817 13.76,15.07 C14.6505589,17.1986557 14.9041502,19.540033 14.49,21.81 C14.03,23.99 13.32,26.11 12.85,28.28 C12.44,30.2 12,32.23 12.63,34.14 C13.26,36.05 14.56,37.49 15.52,39.14 C17.43624,42.5692158 18.4673309,46.4220587 18.52,50.35 C18.6197934,52.1838545 18.4785888,54.0228768 18.1,55.82 C17.9518582,57.0088337 17.4341785,58.1211456 16.62,59 C16.431206,59.1987308 16.1691115,59.3112511 15.895,59.3112511 C15.6208885,59.3112511 15.358794,59.1987308 15.17,59 C14.85,58.54 15.17,57.84 15.23,57.35 C15.6475564,55.2439815 15.792079,53.0929471 15.66,50.95 C15.6031223,48.8743387 15.2667615,46.815811 14.66,44.83 C14.0296281,43.0207745 13.1512517,41.3077723 12.05,39.74 C10.8370547,38.1790798 9.91871938,36.4101831 9.34,34.52 C8.99553129,32.5452479 9.13972817,30.5161918 9.76,28.61 C10.29,26.61 10.99,24.61 11.71,22.61 C12.4369322,20.7674488 12.6309873,18.7575917 12.27,16.81 C11.51,12.72 9.46,9 9.73,4.79 Z"/>
        </g>
        <g transform="translate(13 4)">
          <path fill="#DEE3E9" d="M39.77,1.39 C41.3161551,1.80570501 42.7263461,2.61940938 43.86,3.75 C46.15,6.22 45.45,9.95 44.18,12.67 C42.82,15.6 40.76,18.55 41.92,21.91 C42.45,23.46 43.35,24.86 43.86,26.42 C44.393301,28.0798888 44.6467605,29.816931 44.61,31.56 C44.55,34.75 43.71,38.16 41.4,40.56 C39.4,42.63 36.05,43.84 35.29,46.88 C34.53,49.92 36.43,53.61 37.29,56.61 C38.29,60.01 38.76,64.03 37.62,67.42 C36.3639508,70.682056 33.8378766,73.2947385 30.62,74.66 C24.39,77.54 17.16,77.09 10.91,74.31 C8.26,73.13 5.31,71.67 3.66,69.22 C3.21067093,68.5318918 2.94553991,67.739942 2.89,66.92 C2.76429753,66.1710059 2.49246927,65.4540588 2.09,64.81 C1.27172316,63.2757542 0.891178863,61.5460074 0.99,59.81 C1.25,53.14 6.2,46.94 11.62,43.32 C12.9,42.46 14.03,41.59 14.3,40.01 C14.4587528,38.3369032 14.3507404,36.6492093 13.98,35.01 C13.6387908,33.4010057 13.4082507,31.7705191 13.29,30.13 C13.2788661,28.4436559 13.7135381,26.7843128 14.55,25.32 C16.1533542,22.5283685 18.5237358,20.255162 21.38,18.77 C24.11,17.26 27.09,15.98 28.38,13 C29.79,9.85 28.96,6.11 31.28,3.3 C32.2391518,2.0535649 33.6051059,1.18303453 35.14,0.84 C36.7050957,0.66413293 38.2896617,0.852364314 39.77,1.39 Z"/>
          <path fill="#C5CFD6" d="M36.68,6.6 C36.8035446,6.40986171 37.0037146,6.28289668 37.2283742,6.252174 C37.4530338,6.22145132 37.6799425,6.29001242 37.85,6.44 C38.3,6.82 38.07,7.3 37.85,7.73 C37.2402431,9.0422846 36.8129453,10.4318436 36.58,11.86 C36.2081512,14.8459425 36.0111486,17.8510671 35.99,20.86 C35.9148072,23.8456648 34.9846849,26.7470911 33.31,29.22 C31.64,31.56 29.69,33.69 28.01,36.03 C26.52,38.09 24.95,40.26 24.68,42.85 C24.41,45.44 25.19,47.85 25.44,50.3 C25.8728223,55.3678293 25.0520285,60.4643064 23.05,65.14 C22.2095565,67.3631256 21.083438,69.4674546 19.7,71.4 C18.87,72.49 17.76,73.98 16.35,74.4 C16.0213991,74.5204512 15.6579603,74.5022184 15.3430644,74.3494844 C15.0281685,74.1967505 14.7888451,73.9226257 14.68,73.59 C14.54,72.88 15.24,72.19 15.62,71.67 C17.2109692,69.3902934 18.5047371,66.9170122 19.47,64.31 C20.4783697,61.82018 21.150939,59.2072482 21.47,56.54 C21.6828692,54.0675715 21.5550067,51.5776186 21.09,49.14 C20.4908272,46.6531342 20.3451616,44.0785796 20.66,41.54 C21.2862035,39.0232553 22.5148096,36.6964537 24.24,34.76 C25.93,32.62 27.79,30.63 29.67,28.65 C31.4897439,26.8462617 32.7709772,24.5712069 33.37,22.08 C34.61,16.93 34.18,11.4 36.68,6.6 Z"/>
        </g>
        <g transform="translate(0 24)">
          <path fill="#C5CFD6" d="M6.06,0.32 C8.52092483,0.390563568 10.8165641,1.57517227 12.3,3.54 C14.08,5.75 14.44,8.45 15.16,11.09 C15.4685788,12.444318 16.1880551,13.6702217 17.22,14.6 C18.266156,15.2762281 19.4294484,15.7510413 20.65,16 C23.0027581,16.7996688 24.8503312,18.6472419 25.65,21 C26.57,23.84 25.6,26.7 25.76,29.58 C25.91,32.22 28.52,33.87 30.61,35.14 C32.7,36.41 34.54,37.56 35.16,39.99 C35.9451468,42.598874 35.9451468,45.381126 35.16,47.99 C33.64,52.23 29.16,54.1 24.88,54.39 C20.97,54.65 16.06,54.24 13.13,51.39 C11.4842599,49.686146 10.6407371,47.3628223 10.81,45 C10.8861156,43.53087 11.1276413,42.0750068 11.53,40.66 C11.8519211,39.6807743 12.0960131,38.6776564 12.26,37.66 C12.53,34.9 9.98,34.37 7.8,33.61 C5.18052223,32.6907686 3.02619718,30.7806004 1.8,28.29 C0.47972943,25.9796096 0.120570458,23.2428182 0.8,20.67 C1.18141654,19.3442275 1.86614376,18.1254131 2.8,17.11 C3.22,16.66 3.8,16.28 4.18,15.81 C4.46187005,15.3499505 4.51715613,14.7860325 4.33,14.28 C3.77,11.88 2.04,9.9 1.41,7.51 C0.85,5.35 1.18,2.67 3.15,1.27 C4.00129092,0.665706962 5.01613272,0.33440122 6.06,0.32 Z"/>
          <path fill="#AFB9C6" d="M9.48,6.56 C12.14,9.4 12.87,13.24 13.08,16.97 C13.0338311,19.0966415 13.2385779,21.2213096 13.69,23.3 C14.3123473,24.9685616 15.343922,26.4540291 16.69,27.62 C19.25,30.15 22.1,32.71 22.85,36.37 C23.29,38.51 22.99,40.73 23.6,42.85 C24.1812214,44.8078953 25.0945061,46.6513773 26.3,48.3 C27.3,49.61 28.49,50.61 29.53,51.84 C29.85,52.21 30.3,52.76 30.17,53.29 C30.04,53.82 29.23,54.1 28.67,54.01 C27.37,53.78 26.28,52.54 25.43,51.64 C24.1908855,50.341868 23.1283907,48.8859812 22.27,47.31 C21.2977463,45.5563204 20.621976,43.6540269 20.27,41.68 C19.93,39.62 20.1,37.48 19.32,35.5 C18.01,32.18 14.84,30.22 12.55,27.63 C9.69,24.4 10.12,20.39 10.41,16.42 C10.57,14.24 10.73,11.78 9.63,9.78 C9.21,9.02 8.27,8.31 8.09,7.45 C7.91,6.59 8.82,5.85 9.48,6.56 Z"/>
        </g>
        <path fill="#8AC6CD" d="M12.32,77.17 C12.32,93.39 14.97,101.89 28.94,101.89 C42.91,101.89 45.56,93.39 45.56,77.17 L12.32,77.17 Z"/>
      </g>
      <g transform="translate(289 91)">
        <path fill="#C2DEE1" d="M2.43,0.79 C6.19,9.74 12.59,15.95 15.98,25.25 C17.9441525,30.9288571 18.9248935,36.9012316 18.88,42.91 C18.88,46.25 18.88,49.59 18.88,52.91 C18.88,56.23 18.78,59.4 18.5,62.63 C18.22,65.86 17.91,69.09 17.77,72.36 C17.66,74.91 17.61,77.87 16.77,80.2 C16.08,82.05 14.34,82.32 13.87,80.08 C13.6600002,78.7845982 13.5929313,77.4700481 13.67,76.16 C13.67,74.52 13.8,72.88 13.85,71.23 C14.05,64.64 13.79,58.04 13.92,51.45 C14.05,45.01 14.92,38.57 13.92,32.17 C13.0843075,27.2046751 11.4212083,22.4148141 9,18 C6.87,13.81 4.56,9.73 3.12,5 C2.69274301,3.61098986 2.39809223,2.18461225 2.24,0.74 C2.32666667,0.686666667 2.39,0.703333333 2.43,0.79 Z"/>
        <path fill="#8AC6CD" d="M1.41,18.44 C2.09384737,19.0286813 2.66043233,19.7411534 3.08,20.54 C3.71,21.54 4.44,22.38 5.08,23.34 C6.39,25.34 7.53,27.49 8.72,29.59 C11.0386449,33.5652852 12.6714649,37.902569 13.55,42.42 C14.2910076,47.2509156 14.775022,52.1177646 15,57 C15.39,62.13 15.79,67.3 15.84,72.46 C15.9469305,74.8103694 15.9035086,77.1651706 15.71,79.51 C15.54,80.94 14.89,82.15 13.44,82.14 C10.36,82.14 8.91,78.7 8.3,75.9 C7.47449501,71.7101377 7.16219719,67.4353514 7.37,63.17 C7.54,58.08 8.42,53.07 8.81,48 C9.21,42.64 8.99,37.36 7.14,32.31 C6.21,29.76 5.14,27.31 4.14,24.73 C3.77880322,23.6372169 3.34105246,22.5712436 2.83,21.54 C2.13429056,20.4669638 1.50639737,19.3514514 0.95,18.2 L1.41,18.44 Z"/>
        <path fill="#C2DEE1" d="M36.94 7.74L37.22 7.52C36.902008 8.58488531 36.521344 9.63004162 36.08 10.65 35.7730122 11.6341485 35.5258934 12.6359815 35.34 13.65 34.81 16.07 34.19 18.44 33.68 20.88 32.7993438 25.9716094 32.7486886 31.1722026 33.53 36.28 34.15 41.34 35.13 46.4 35.6 51.46 36.0366467 55.6261017 36.0968905 59.8230819 35.78 64 35.53 66.72 34.71 70 32.47 69.69 31.42 69.56 30.87 68.29 30.64 66.86 30.28 64.56 30.21 62.14 30.07 59.86 29.76 54.75 29.7 49.66 29.64 44.61 29.58 39.84 29.42 34.98 29.74 30.33 30.026945 26.1377968 30.9160692 22.0087577 32.38 18.07 33.1 16.07 33.79 14.07 34.61 12.22 35 11.32 35.48 10.53 35.87 9.63 36.0984731 8.93557327 36.4621267 8.2932319 36.94 7.74zM2.36 33.22C2.77 32.54 3.67 34.79 3.8 35.08L3.63 34.66C4.47483368 35.9999791 5.14683072 37.4414128 5.63 38.95 6.09 40.48 6.48 42.04 6.9 43.58 7.7 46.47 8.74 49.27 9.46 52.19 10.1398979 54.9925434 10.382762 57.8833008 10.18 60.76 9.96039493 63.8219532 9.93367547 66.8946909 10.1 69.96 10.2860889 71.3885701 10.5870642 72.7998096 11 74.18 11.32 75.58 11.58 77.01 12 78.39 12.09 78.21 12.1 78.81 12.1 78.86 12.1055247 79.2001229 12.0513715 79.5385805 11.94 79.86 11.7254592 80.6947327 11.1112147 81.3689035 10.3 81.66 8.83 82.08 7.46 80.74 6.98 79.33 6.33963637 77.2361829 5.8779824 75.0918337 5.6 72.92 5.31351452 70.9639072 5.21973153 68.9844162 5.32 67.01 5.49 63.1 6.2 59.24 6.39 55.33 6.6 51.07 5.75 47.07 5.05 42.93 4.767041 40.9189821 4.31544947 38.9353245 3.7 37 3.41903767 36.2568915 3.08483709 35.5350183 2.7 34.84 2.51 34.42 2.09 33.7 2.36 33.22z"/>
        <path fill="#69A1AC" d="M14.31,26.57 C14.14,31.45 13.85,36.29 13.2,41.12 C12.55,45.95 11.77,50.95 11.14,55.88 C10.4061053,60.6924012 10.0250894,65.5520254 10,70.42 C10.06,74 9.47,80.07 13.45,81.84 C17.43,83.61 18.35,75.98 18.61,73.46 C19.0200352,68.5998653 19.0534683,63.7152922 18.71,58.85 C18.46,53.85 18.04,48.85 17.51,43.85 C16.93,38.32 16.51,32.76 16.11,27.21 C15.93,24.47 15.88,21.73 15.93,18.98 C16.0849239,16.383092 15.7455866,13.7803746 14.93,11.31 L14.79,11.41"/>
        <path fill="#8AC6CD" d="M35.13,42 C34.4,43.06 33.67,44.1 32.99,45.22 C31.5780144,47.3524062 30.6653533,49.7759143 30.32,52.31 C29.62,58.31 30.18,64.77 30.32,70.94 C30.2061222,72.182344 30.3317272,73.4349991 30.69,74.63 C31.14,75.72 31.98,76.55 32.79,76.54 C34.51,76.54 34.25,72.32 34.25,70.46 C34.25,67.21 33.89,63.93 33.92,60.68 C33.9272994,57.5010843 34.1578667,54.3266067 34.61,51.18 C35.0576943,48.1841607 35.7534187,45.2306768 36.69,42.35 C36.82,41.97 37.69,38.99 36.87,39.51"/>
        <path fill="#69A1AC" d="M27.53,10.08 C26.4,10.08 26.41,15.72 26.37,16.44 C26.25,19.05 26.28,21.67 26.2,24.28 C26.1440332,29.9956147 25.7433053,35.7026478 25,41.37 C24.54,44.37 24,47.43 23.43,50.44 C22.86,53.45 22.08,56.44 21.7,59.54 C21.4563278,62.4971547 21.4195716,65.4677214 21.59,68.43 C21.5965254,71.4043548 21.7734821,74.375892 22.12,77.33 C22.22,78.06 22.33,78.78 22.45,79.51 C22.4840662,80.1534214 22.5541762,80.7944271 22.66,81.43 C23.067233,82.2586556 23.988794,82.7008396 24.89,82.5 C27.02,82.11 28.38,79.44 29.1,77.5 C29.9594642,74.9528487 30.5984811,72.3365599 31.01,69.68 C31.5418265,66.7053909 31.8758921,63.6988001 32.01,60.68 C32.2078467,54.5216124 32.0308531,48.3568919 31.48,42.22 C31.23,38.81 30.95,35.41 30.48,32.01 C30.01,28.61 29.48,25.27 29.13,21.88 C28.87,19.42 28.61,16.95 28.44,14.48 C28.44,13.89 28.37,10.11 27.5,10.11"/>
        <path fill="#8AC6CD" d="M26.11,51.05 C25.93,45.13 23.55,19.13 23.01,11.98 C22.87,10.19 21.57,2.73 21.4,0.7 C20.94,1.27 20.98,10.21 20.99,12.26 C21,14.31 20.74,16.26 20.61,18.26 C20.48,20.26 17.43,47 17,49 C16.21,52.94 15.69,57 15.28,61 C14.87,65 14.28,69.07 14.8,73 C14.9099926,73.9009023 15.1213306,74.7865092 15.43,75.64 C15.77,76.54 16,77.38 16.27,78.32 C16.578867,79.7624064 17.4592311,81.0180076 18.71,81.8 C21.2,83.09 22.54,80.17 23.22,77.64 C24.3069309,73.5743832 25.0133074,69.4164705 25.33,65.22 C25.8342149,60.5169022 26.084578,55.7900466 26.08,51.06"/>
      </g>
      <g transform="translate(294 163)">
        <rect width="38.79" height="38.79" x="4.71" y=".47" fill="#FFF" rx=".85"/>
        <rect width="4.26" height="48.16" x=".45" y="4.73" fill="#C5CFD6" rx=".85"/>
        <rect width="4.26" height="48.16" x="21.76" y="4.73" fill="#C5CFD6" rx=".85"/>
        <rect width="4.26" height="48.16" x="43.5" y="4.73" fill="#C5CFD6" rx=".85"/>
      </g>
      <g transform="translate(36)">
        <path fill="#E28700" d="M3.44,0 L169.5,0 C171.156854,1.01453063e-16 172.5,1.34314575 172.5,3 L172.5,16.53 L0.5,16.53 L0.5,3 C0.5,1.34314575 1.84314575,3.04359188e-16 3.5,0 L3.44,0 Z"/>
        <path fill="#F2F2F1" d="M0.47,15.43 L172.47,15.43 L172.47,152 C172.47,152.977544 171.677544,153.77 170.7,153.77 L2.23,153.77 C1.2563635,153.764499 0.469984461,152.973652 0.47,152 L0.47,15.43 Z"/>
        <circle cx="6.63" cy="7.41" r="1.9" fill="#FFF"/>
        <circle cx="11.74" cy="7.41" r="1.9" fill="#FFF"/>
        <circle cx="17.34" cy="7.41" r="1.9" fill="#FFF"/>
        <rect width="52.25" height="64.55" x="4.43" y="23.71" fill="#FFF" rx="2.62"/>
        <rect width="51.55" height="56.92" x="115.88" y="23.18" fill="#FFF" rx="2.62"/>
        <rect width="52.25" height="32.27" x="60.35" y="23.71" fill="#FFF" rx="2.62"/>
        <rect width="9.09" height="6.55" x="64.42" y="27.88" fill="#AFB9C6" rx=".8"/>
        <rect width="9.09" height="6.55" x="10.22" y="77.44" fill="#AFB9C6" rx=".8"/>
        <rect width="9.09" height="6.55" x="26.01" y="77.44" fill="#AFB9C6" rx=".8"/>
        <rect width="9.09" height="6.55" x="42.1" y="77.47" fill="#AFB9C6" rx=".8"/>
        <rect width="6.55" height="5.58" x="119.04" y="27.88" fill="#AFB9C6" rx=".8"/>
        <rect width="6.55" height="5.58" x="157.63" y="27.88" fill="#AFB9C6" rx=".8"/>
        <rect width="31.12" height="5.58" x="77.56" y="28.36" fill="#DEE3E9" rx=".8"/>
        <rect width="26.42" height="5.58" x="128.44" y="27.88" fill="#DEE3E9" rx=".8"/>
        <rect width="43.33" height="2.13" x="64.42" y="43.17" fill="#DEE3E9" rx=".71"/>
        <rect width="31.8" height="2.13" x="64.8" y="47.85" fill="#DEE3E9" rx=".71"/>
        <rect width="25" height="2.13" x="77.56" y="36.28" fill="#DEE3E9" rx=".71"/>
        <g transform="translate(60 61)">
          <rect width="52.25" height="32.27" x=".35" y=".25" fill="#FFF" rx="2.62"/>
          <rect width="9.09" height="6.55" x="4.42" y="4.42" fill="#AFB9C6" rx=".8"/>
          <rect width="31.12" height="5.58" x="17.56" y="4.9" fill="#DEE3E9" rx=".8"/>
          <rect width="43.33" height="2.13" x="4.42" y="19.71" fill="#DEE3E9" rx=".71"/>
          <rect width="31.8" height="2.13" x="4.8" y="24.4" fill="#DEE3E9" rx=".71"/>
          <rect width="25" height="2.13" x="17.56" y="12.83" fill="#DEE3E9" rx=".71"/>
        </g>
        <g transform="translate(60 98)">
          <rect width="52.25" height="32.27" x=".35" y=".45" fill="#FFF" rx="2.62"/>
          <rect width="9.09" height="6.55" x="4.42" y="4.62" fill="#AFB9C6" rx=".8"/>
          <rect width="31.12" height="5.58" x="17.56" y="5.11" fill="#DEE3E9" rx=".8"/>
          <rect width="43.33" height="2.13" x="4.42" y="19.91" fill="#DEE3E9" rx=".71"/>
          <rect width="31.8" height="2.13" x="4.8" y="24.6" fill="#DEE3E9" rx=".71"/>
          <rect width="25" height="2.13" x="17.56" y="13.03" fill="#DEE3E9" rx=".71"/>
        </g>
        <g transform="translate(4 94)">
          <rect width="52.25" height="32.27" x=".43" fill="#FFF" rx="2.62"/>
          <rect width="9.09" height="6.55" x="4.51" y="4.17" fill="#AFB9C6" rx=".8"/>
          <rect width="31.12" height="5.58" x="17.65" y="4.66" fill="#DEE3E9" rx=".8"/>
          <rect width="43.33" height="2.13" x="4.51" y="19.46" fill="#DEE3E9" rx=".71"/>
          <rect width="31.8" height="2.13" x="4.89" y="24.15" fill="#DEE3E9" rx=".71"/>
          <rect width="25" height="2.13" x="17.65" y="12.58" fill="#DEE3E9" rx=".71"/>
        </g>
        <g transform="translate(115 85)">
          <rect width="52.25" height="32.27" x=".53" y=".65" fill="#FFF" rx="2.62"/>
          <rect width="9.09" height="6.55" x="4.61" y="4.82" fill="#AFB9C6" rx=".8"/>
          <rect width="31.12" height="5.58" x="17.74" y="5.3" fill="#DEE3E9" rx=".8"/>
          <rect width="43.33" height="2.13" x="4.61" y="20.11" fill="#DEE3E9" rx=".71"/>
          <rect width="31.8" height="2.13" x="4.99" y="24.8" fill="#DEE3E9" rx=".71"/>
          <rect width="25" height="2.13" x="17.74" y="13.22" fill="#DEE3E9" rx=".71"/>
        </g>
        <g transform="translate(121 38)">
          <circle cx="2.78" cy="3.17" r="2.55" fill="#DEE3E9"/>
          <circle cx="2.78" cy="12.96" r="2.55" fill="#DEE3E9"/>
          <circle cx="2.78" cy="22.34" r="2.55" fill="#DEE3E9"/>
          <circle cx="2.78" cy="31.72" r="2.55" fill="#DEE3E9"/>
          <circle cx="11.72" cy="3.17" r="2.55" fill="#DEE3E9"/>
          <circle cx="11.72" cy="12.96" r="2.55" fill="#AFB9C6"/>
          <circle cx="11.72" cy="22.34" r="2.55" fill="#DEE3E9"/>
          <circle cx="11.72" cy="31.72" r="2.55" fill="#DEE3E9"/>
          <circle cx="20.65" cy="3.17" r="2.55" fill="#AFB9C6"/>
          <circle cx="20.65" cy="12.96" r="2.55" fill="#DEE3E9"/>
          <circle cx="20.65" cy="22.34" r="2.55" fill="#DEE3E9"/>
          <circle cx="20.65" cy="31.72" r="2.55" fill="#DEE3E9"/>
          <circle cx="29.59" cy="3.17" r="2.55" fill="#DEE3E9"/>
          <circle cx="29.59" cy="12.96" r="2.55" fill="#DEE3E9"/>
          <circle cx="29.59" cy="22.34" r="2.55" fill="#AFB9C6"/>
          <circle cx="29.59" cy="31.72" r="2.55" fill="#DEE3E9"/>
          <circle cx="38.53" cy="3.17" r="2.55" fill="#DEE3E9"/>
          <circle cx="38.53" cy="12.96" r="2.55" fill="#DEE3E9"/>
          <circle cx="38.53" cy="22.34" r="2.55" fill="#DEE3E9"/>
          <circle cx="38.53" cy="31.72" r="2.55" fill="#DEE3E9"/>
        </g>
        <g transform="translate(10 28)">
          <path fill="#F2F2F1" d="M25.9,26 C23.6482638,28.4245871 20.037913,29.0111096 17.1344556,27.4240137 C14.2309981,25.8369178 12.7755138,22.4812947 13.6006958,19.2769206 C14.4258779,16.0725465 17.3211063,13.8373075 20.63,13.85 L20.63,0.48 C9.23912703,0.48 0.005,9.71412703 0.005,21.105 C0.005,32.495873 9.23912703,41.73 20.63,41.73 C26.3426455,41.7568825 31.8050855,39.3883744 35.69,35.2 L25.9,26 Z"/>
          <path fill="#AFB9C6" d="M20.56,0.48 L20.56,13.88 C24.5474959,13.88 27.78,17.1125041 27.78,21.1 L41.18,21.1 C41.1415895,9.72783662 31.9321634,0.51841053 20.56,0.48 Z"/>
          <path fill="#C5CFD6" d="M27.5,21.1 C27.5004519,23.3553786 26.4597855,25.4846854 24.68,26.87 L33.11,37.6 C38.2009708,33.6391175 41.1789484,27.5503157 41.18,21.1 L27.5,21.1 Z"/>
        </g>
      </g>
      <g transform="translate(137 54)">
        <path fill="#3884B2" d="M3.43,0.41 L170.13,0.41 C171.786854,0.41 173.13,1.75314575 173.13,3.41 L173.13,17 L0.46,17 L0.46,3.38 C0.476254987,1.7464947 1.7964947,0.426254987 3.43,0.41 Z"/>
        <path fill="#F2F2F1" d="M0.46,15.89 L173.1,15.89 L173.1,152.89 C173.1,153.380651 172.90509,153.851205 172.558148,154.198148 C172.211205,154.54509 171.740651,154.74 171.25,154.74 L2.31,154.74 C1.28827321,154.74 0.46,153.911727 0.46,152.89 L0.46,15.89 Z"/>
        <circle cx="6.65" cy="7.84" r="1.91" fill="#FFF"/>
        <circle cx="11.77" cy="7.84" r="1.91" fill="#FFF"/>
        <circle cx="17.39" cy="7.84" r="1.91" fill="#FFF"/>
        <rect width="52.14" height="4.93" x="5.2" y="22.34" fill="#C5CFD6" rx=".8"/>
        <rect width="40.38" height="125.34" x="126.59" y="22.56" fill="#FFF" rx="3.32"/>
        <path fill="#AFB9C6" d="M129.76,22.5 L163.76,22.5 C164.612798,22.4811639 165.437201,22.806811 166.046918,23.4033552 C166.656635,23.9998993 167.000208,24.8169937 167,25.67 L167,30.08 L126.59,30.08 L126.59,25.67 C126.59,24.8292637 126.923981,24.0229618 127.518472,23.4284715 C128.112962,22.8339812 128.919264,22.5 129.76,22.5 Z"/>
        <rect width="9.12" height="6.57" x="102.78" y="23.13" fill="#AFB9C6" rx=".8"/>
        <rect width="9.12" height="6.57" x="114.68" y="23.13" fill="#AFB9C6" rx=".8"/>
        <rect width="39.35" height="3.23" x="5.2" y="30.09" fill="#C5CFD6" rx=".8"/>
        <rect width="118.66" height="109.43" x="4.93" y="38.7" fill="#FFF" rx="3.32"/>
        <rect width="39.9" height="4.93" x="48.02" y="44.13" fill="#DEE3E9" rx=".8"/>
        <rect width="102.03" height="2.14" x="9.97" y="53.64" fill="#AFB9C6" rx=".8"/>
        <rect width="59.69" height="2.14" x="9.97" y="59.05" fill="#DEE3E9" rx=".8"/>
        <rect width="29.85" height="2.14" x="133.71" y="34.92" fill="#DEE3E9" rx=".8"/>
        <rect width="29.85" height="2.14" x="133.71" y="42.39" fill="#AFB9C6" rx=".8"/>
        <rect width="29.85" height="2.14" x="133.71" y="49.85" fill="#DEE3E9" rx=".8"/>
        <rect width="29.85" height="2.14" x="133.71" y="57.82" fill="#AFB9C6" rx=".8"/>
        <rect width="75.89" height="2.14" x="9.97" y="64.47" fill="#DEE3E9" rx=".8"/>
        <rect width="102.03" height="2.14" x="9.97" y="72.37" fill="#AFB9C6" rx=".8"/>
        <rect width="59.69" height="2.14" x="9.97" y="77.78" fill="#DEE3E9" rx=".8"/>
        <rect width="81.13" height="2.14" x="9.97" y="83.2" fill="#DEE3E9" rx=".8"/>
        <rect width="73.67" height="2.14" x="9.97" y="88.61" fill="#AFB9C6" rx=".8"/>
        <rect width="75.89" height="2.14" x="9.97" y="94.03" fill="#DEE3E9" rx=".8"/>
        <circle cx="129.93" cy="35.99" r="1.22" fill="#DEE3E9"/>
        <circle cx="129.93" cy="43.46" r="1.22" fill="#DEE3E9"/>
        <circle cx="129.928" cy="50.922" r="1.22" fill="#DEE3E9" transform="rotate(-45 129.928 50.922)"/>
        <rect width="29.85" height="2.14" x="133.71" y="64.47" fill="#DEE3E9" rx=".8"/>
        <circle cx="129.936" cy="65.54" r="1.22" fill="#DEE3E9" transform="rotate(-45 129.936 65.54)"/>
        <circle cx="129.933" cy="58.887" r="1.22" fill="#DEE3E9" transform="rotate(-45 129.933 58.887)"/>
      </g>
      <path fill="#E87134" d="M347.85,58.45 C347.772251,58.3097579 347.61988,58.2277122 347.46,58.24 L318.32,60.53 C318.163772,60.5444854 318.029511,60.6468586 317.974187,60.7936791 C317.918863,60.9404996 317.95218,61.1060183 318.06,61.22 L323.8,67.29 C323.90557,67.4000695 324.063512,67.442444 324.21,67.4 L333,64.83 L325.58,68.35 C325.472436,68.4006668 325.392164,68.4955332 325.36,68.61 L323.3,75.77 C323.256256,75.9284382 323.31136,76.0976868 323.44,76.2 L323.55,76.26 C323.657992,76.3092065 323.782008,76.3092065 323.89,76.26 L329.23,73.33 L333,77.22 C333.077878,77.3099727 333.191004,77.3616718 333.31,77.3616718 C333.428996,77.3616718 333.542122,77.3099727 333.62,77.22 L347.84,58.93 C347.946459,58.7888851 347.950489,58.5954263 347.85,58.45 Z"/>
      <g transform="translate(13 94)">
        <path fill="#915C3C" d="M4.15,13 C2.21665881,11.3666817 1.01157533,9.03205725 0.8,6.51 C0.41,-1.03 11.02,-0.67 13.51,2.86 C16,6.39 16.93,15.99 14.4,16.99 C13.4,17.39 11.08,16.99 8.65,15.91 L11.3,25.79 L2.91,26.79 L4.15,13 Z" transform="translate(44 10)"/>
        <path fill="#1C1C45" d="M52.19,9.05 C51.06,9.05 48.07,9.25 47.52,9.31 C47.17,9.31 46.8,9.48 46.52,9.18 C46.24,8.88 46.32,8.48 46.24,8.18 C46.16,7.88 46.01,7.49 45.88,7.18 C45.5239883,6.21524857 45.0323853,5.30611976 44.42,4.48 C43.2846048,2.93013814 41.6721869,1.79547366 39.83,1.25 C37.7418164,0.705146581 35.5527216,0.674265933 33.45,1.16 C31.2906818,1.71088611 29.205642,2.52005614 27.24,3.57 C25.3141598,4.51009279 23.1926769,4.9796294 21.05,4.94 C18.88,4.87 17.12,3.94 15.19,3.04 C13.2310366,2.06980391 11.0163589,1.74092602 8.86,2.1 C6.87238026,2.56017969 5.03676559,3.52448008 3.53,4.9 C2.05883471,6.05848865 0.977131844,7.63917059 0.43,9.43 C-0.227296237,11.3866923 0.236813871,13.5461467 1.64,15.06 C3.82,17.28 7.38,17.48 10.28,17.06 C11.9493655,16.8174631 13.5695753,16.3111476 15.08,15.56 C17.0118926,14.440779 18.8630824,13.1877174 20.62,11.81 C21.4832737,11.2150126 22.4046527,10.7090917 23.37,10.3 C24.2418237,9.81322561 25.2890188,9.7542287 26.21,10.14 C27.1541936,10.6871432 28.1616436,11.1169885 29.21,11.42 C30.2805562,11.6744409 31.3879847,11.7354003 32.48,11.6 C34.5885901,11.1794008 36.6491203,10.5461647 38.63,9.71 C40.2608709,9.03014807 42.0132136,8.68988736 43.78,8.71 C44.51,8.77 45.6,8.94 45.95,9.65 C41.69,10.97 40.64,16.57 42.36,20.37 C43.28,22.42 47.57,24.43 48.98,23.12 C49.87,22.29 49.16,21.43 48.7,20.86 C47.82,19.77 47.38,18.29 48.64,17.3 C49.73,16.45 51.18,17.98 51.2,17.97 C53.0292264,16.7993378 54.5873157,15.2514766 55.77,13.43 C57.69,13.31 57.77,12.02 57.24,11.05 C56.71,10.08 53.75,9.12 52.19,9.05 Z"/>
        <g transform="translate(34 65)">
          <polygon fill="#794A31" points="15.79 .57 28.69 45.03 34.76 78.4 40.85 78.4 34.77 .57"/>
          <path fill="#915C3C" d="M10,0.57 C10.9,23.66 10.55,36.26 10.34,38.36 C10.13,40.46 9,54.51 1.2,79.11 L7.53,79.11 C17.85,55.51 21.45,41.46 22.64,38.36 C23.83,35.26 27.32,22.67 32.42,0.57 L10,0.57 Z"/>
          <path fill="#69A1AC" d="M15.51,0.57 C18.8433333,15.8633333 24.6466667,40.28 32.92,73.82 L41.83,73.82 C42.49,39.4 39.69,16.74 34.83,0.57 L15.51,0.57 Z"/>
          <path fill="#69A1AC" d="M9.95,0.57 C10.83,23.66 8.55,46.41 1.47,74.18 L11,74.18 C21.6194427,50.6806777 29.2845686,25.9554402 33.82,0.57 L9.95,0.57 Z"/>
          <path fill="#1C1C45" d="M0.29,6.68 L0.64,1.05 C2.68666667,1.65 5.25,1.41666667 8.33,0.35 C12.0859805,2.87223997 16.3617569,4.51624352 20.84,5.16 C21.0248789,5.18938135 21.1902867,5.29159013 21.2992716,5.44379319 C21.4082565,5.59599626 21.4517371,5.78551087 21.42,5.97 L21.42,6.04 L20.94,7.74 L1,7.74 L0.29,6.68 Z" transform="translate(0 77)"/>
          <path fill="#1C1C45" d="M0.4,6.68 L0.75,1.05 C2.79666667,1.65 5.36,1.41666667 8.44,0.35 C12.1959805,2.87223997 16.4717569,4.51624352 20.95,5.16 C21.1348789,5.18938135 21.3002867,5.29159013 21.4092716,5.44379319 C21.5182565,5.59599626 21.5617371,5.78551087 21.53,5.97 L21.53,6.04 L21.05,7.74 L1.1,7.74 L0.4,6.68 Z" transform="translate(33 77)"/>
        </g>
        <g transform="translate(29 29)">
          <path fill="#915C3C" fill-rule="nonzero" d="M49.87,28.58 L62.37,34.75 C65.1182504,34.9472819 67.8266453,35.5192411 70.42,36.45 C70.97,36.8 71.7,37.58 69.7,37.77 C67.7,37.96 65.61,38.26 65.45,38.98 C65.29,39.7 66.63,40.29 66.24,41.3 C65.98,41.9666667 63.98,40.7533333 60.24,37.66 L48.48,35.05 L49.87,28.58 Z M7.44,36.35 L14.69,35.1 C12.77,50.3666667 11.71,58.4566667 11.51,59.37 C11.06,61.5 13.29,64.23 14.3,65.73 C12.12,67.21 11.68,63.24 8.94,65.16 C6.44,66.91 4.77,69.57 1.28,68.16 C0.85,67.99 0.28,67.16 1.17,66.28 C3.41,64.08 6.55,60.37 6.87,59.28 C7.31,57.7933333 7.50333333,50.15 7.45,36.35 L7.44,36.35 Z"/>
          <path fill="#2B3A8C" d="M22.68,2.3 L25.59,1.3 C38.41,8.95 46.24,26.61 61.59,33.99 L59,38.6 C34.86,39.84 25,18.35 22.68,2.3 Z"/>
          <path fill="#DEE3E9" d="M16.25,42.3 L42.79,37.62 C44,37.41 43.47,35.7 43.13,34.84 C39.31,25 29.47,15.4 26.91,0.84 L19.04,0.99 C14.52,12.34 14.54,25.26 16.25,42.3 Z"/>
          <path fill="#324898" d="M11.26,12.73 C10.0606528,12.5732597 8.97716339,11.934001 8.26,10.96 C4.57,6.41 5.09,3.45 7.92,1.96 C10.75,0.47 13.75,1.96 18.51,1.09 C18.747681,1.04549511 18.9883467,1.01875448 19.23,1.01 L21.65,0.72 C32.63,22.8066667 37.2666667,38.0166667 35.56,46.35 L14.67,50.03 C14.0564099,52.7284728 13.288481,55.3895133 12.37,58 L6.68,59 C3.09333333,41.78 4.62,26.3566667 11.26,12.73 Z"/>
          <path fill="#030303" fill-opacity=".1" d="M17.08,37.32 C18.7066667,42.7 20.4766667,46.5 22.39,48.72 L14.64,50.09 C15.4933333,46.47 16.3066667,42.2133333 17.08,37.32 Z"/>
        </g>
      </g>
      <g transform="translate(302 89)">
        <g transform="translate(29)">
          <path fill="#B28B67" d="M12.31,13 C13.9828763,11.0624119 14.8490093,8.55706853 14.73,6 C14.23,-1.63 4.22,1.42108547e-14 2.28,3.9 C0.34,7.8 0.57,17.52 3.08,18.21 C4.08,18.48 6.22,17.81 8.39,16.42 L7,26.7 L15.06,26.7 L12.31,13 Z" transform="translate(0 1)"/>
          <path fill="#1C1C45" d="M8,7.86 C7.69333333,12.4266667 6.87666667,14.71 5.55,14.71 C3.55,14.71 1.88,13.37 1.01,13.37 C0.37,13.37 0.52,14.21 0.94,14.84 C1.36,15.47 2.94,15.84 2.94,16.65 C2.94,17.46 1.6,16.83 1.6,17.31 C1.6,18.1 1.37,19.57 2.6,19.57 C3.83,19.57 7.6,19.07 8.26,17.02 C8.82552475,14.3207355 9.09379004,11.567663 9.06,8.81 L9.3,8.81 C10.4410607,8.8534194 11.3337648,9.80861283 11.3,10.95 C11.3024565,11.5197478 11.0837809,12.0682292 10.69,12.48 C11.16,13.18 11.69,13.91 12.28,14.66 C14.53,13.23 16.2,9.03 14,5 C13.5013802,3.27228896 12.1297464,1.934851 10.39,1.48 C9.18730941,0.923061314 7.82459212,0.816599026 6.55,1.18 C4.85422004,1.28608278 3.20066178,1.75317037 1.7,2.55 C1.7,4.82 2.11,5.5 5.7,5.44 C6.65693935,6.04168138 7.44772243,6.87372271 8,7.86 Z"/>
        </g>
        <g transform="translate(6 57)">
          <polygon fill="#1C1C45" points="40.77 .3 28.6 45.68 19.71 79.12 13.24 79.12 22.68 .3"/>
          <path fill="#2F3778" d="M44,0.3 C44.28,23.69 45.24,36.44 45.54,38.57 C45.84,40.7 50.31,54.21 58.95,79.12 L52.24,79.12 C41.2333333,55.22 35.09,41.7033333 33.81,38.57 C32.53,35.43 28.57,22.68 22.62,0.3 L44,0.3 Z"/>
          <path fill="#1C1C45" d="M20.57,7.54 L20.23,0.05 L13.18,0.05 C9.21531639,2.83852967 4.7813925,4.89120949 0.09,6.11 L0.09,7.54 L12.85,7.54 L17.21,6.83 L17.21,7.54 L20.57,7.54 Z" transform="translate(39 78)"/>
          <path fill="#1C1C45" d="M20.62,7.54 L20.28,0.05 L13.23,0.05 C9.26531639,2.83852967 4.8313925,4.89120949 0.14,6.11 L0.14,7.54 L12.9,7.54 L17.26,6.83 L17.26,7.54 L20.62,7.54 Z" transform="translate(0 78)"/>
        </g>
        <g transform="translate(0 19)">
          <path fill="#B28B67" fill-rule="nonzero" d="M18.45,32.45 L8.31,41.58 C5.7965576,42.4537921 3.41960039,43.6793055 1.25,45.22 C0.82,45.7 0.32,46.64 2.25,46.34 C4.18,46.04 6.15,45.82 6.46,46.49 C6.77,47.16 5.67,48.07 6.26,48.96 C6.65333333,49.5533333 8.22333333,47.8866667 10.97,43.96 L21.24,38.51 L18.45,32.45 Z M64.35,28.5 L58.4,29.42 C64.7866667,44.1333333 68.21,51.9133333 68.67,52.76 C69.67,54.67 68.49,58 68.01,59.76 C70.42,60.5 69.65,56.54 72.7,57.53 C75.48,58.43 77.78,60.47 80.53,58.04 C80.7916922,57.7613543 80.8947671,57.3692941 80.8039549,56.997973 C80.7131427,56.6266519 80.4407563,56.3264164 80.08,56.2 C77.4,54.78 73.46,52.2 72.85,51.2 C72.01,49.9266667 69.1733333,42.36 64.34,28.5 L64.35,28.5 Z"/>
          <path fill="#C5CFD6" d="M39.49,2.75 L35.8,1.46 C30.8,14.72 23.35,27.56 10.89,38.4 L14,44 C24.95,37.15 35.31,31.83 39.51,21.55 C40.9,18.14 39.6,6.88 39.49,2.75 Z"/>
          <path fill="#323337" d="M52.14,40.08 C41.5866667,41.2666667 33.2766667,41.2666667 27.21,40.08 C26.46,39.93 26.34,38.6 26.69,37.69 C32.11,23.57 35.83,11.26 35.83,1.45 C36.8233333,1.98333333 38.5633333,2.06333333 41.05,1.69 C47.75,11.8 50.82,23.39 52.14,40.08 Z"/>
          <path fill="#DEE3E9" d="M42.72,0.85 L39.93,0.85 C39.28,4.9 37.23,59.79 30.93,77.75 L65.11,77.75 C64.37,61.3 58.52,41.54 52.6,25.01 C57.8333333,30.0966667 62.3966667,38.72 66.29,50.88 L72.69,49.13 C67.93,27.3366667 58.1433333,11.3366667 43.33,1.13 L43.23,0.89 L43,0.89 L42.73,0.71 L42.72,0.85 Z"/>
        </g>
      </g>
      <g transform="translate(28 180)">
        <g transform="translate(4 2)">
          <g transform="translate(4)">
            <path fill="#FFF" d="M27.25,5.64 L26.63,29.06 L0.45,23.35 L2.94,0.35 C2.94,0.35 4.35,0.66 8.32,4.02 C12.29,7.38 27.25,5.64 27.25,5.64 Z"/>
            <path fill="#DEE3E9" d="M24.39,8.71 L24.61,25.22 L22.79,24.82 C23.1446929,21.9070763 23.3117041,18.9743586 23.29,16.04 C23.2708372,13.472836 23.1072453,10.9087837 22.8,8.36 L24.39,8.71 Z"/>
            <rect width="16.08" height="1.4" x="12.179" y="15.826" fill="#DEE3E9" transform="rotate(91 20.22 16.526)"/>
            <rect width="16.08" height="1.4" x="9.368" y="15.778" fill="#DEE3E9" transform="rotate(91 17.408 16.478)"/>
            <rect width="16.08" height="1.4" x="5.505" y="14.933" fill="#DEE3E9" transform="rotate(91 13.545 15.633)"/>
            <rect width="16.08" height="1.4" x="1.908" y="14.875" fill="#DEE3E9" transform="rotate(91 9.948 15.575)"/>
            <rect width="16.08" height="1.4" x="-2.328" y="13.951" fill="#DEE3E9" transform="rotate(91 5.712 14.651)"/>
          </g>
          <path fill="#FFF" d="M31.15,13.08 L23.37,35.18 L0.21,21.72 L9.65,0.58 C9.65,0.58 10.9,1.31 13.65,5.73 C16.4,10.15 31.15,13.08 31.15,13.08 Z"/>
          <path fill="#DEE3E9" d="M27.49,15.13 L22.62,30.9 L21,30 C22.2312849,27.3374174 23.2901349,24.5984364 24.17,21.8 C24.9394179,19.3507495 25.5704151,16.8601465 26.06,14.34 L27.49,15.13 Z"/>
          <rect width="16.08" height="1.4" x="13.072" y="20.577" fill="#DEE3E9" transform="rotate(108.88 21.112 21.277)"/>
          <rect width="16.08" height="1.4" x="10.431" y="19.674" fill="#DEE3E9" transform="rotate(108.88 18.47 20.374)"/>
          <rect width="16.08" height="1.4" x="7" y="17.682" fill="#DEE3E9" transform="rotate(108.88 15.04 18.382)"/>
          <rect width="16.08" height="1.4" x="3.591" y="16.521" fill="#DEE3E9" transform="rotate(108.88 11.631 17.221)"/>
          <rect width="16.08" height="1.4" x="-.146" y="14.348" fill="#DEE3E9" transform="rotate(108.88 7.894 15.048)"/>
        </g>
        <path fill="#FFF" d="M29.83,15 L19.59,33.74 L0.7,18.22 L12.29,0.56 C12.29,0.56 13.29,1.4 15.14,5.78 C16.99,10.16 29.83,15 29.83,15 Z"/>
        <path fill="#DEE3E9" d="M26.23,16.27 L19.55,29.77 L18.23,28.69 C19.7268138,26.4724536 21.0796003,24.1610257 22.28,21.77 C23.3333841,19.6775497 24.2681949,17.5274847 25.08,15.33 L26.23,16.27 Z"/>
        <rect width="14.68" height="1.28" x="12.256" y="20.269" fill="#DEE3E9" transform="rotate(118.09 19.596 20.909)"/>
        <rect width="14.68" height="1.28" x="9.994" y="19.069" fill="#DEE3E9" transform="rotate(118.09 17.334 19.709)"/>
        <rect width="14.68" height="1.28" x="7.198" y="16.776" fill="#DEE3E9" transform="rotate(118.09 14.538 17.416)"/>
        <rect width="14.68" height="1.28" x="4.301" y="15.227" fill="#DEE3E9" transform="rotate(118.09 11.641 15.867)"/>
        <rect width="14.68" height="1.28" x="1.251" y="12.718" fill="#DEE3E9" transform="rotate(118.09 8.591 13.358)"/>
      </g>
      <path fill="#915C3C" d="M47,185.11 L43.2,189.3 C43.2,189.3 41.66,192.75 45.28,191.86 C47.63,191.28 51.45,187.55 53.45,187.99 C55.45,188.43 47,185.11 47,185.11 Z"/>
      <g transform="translate(150 131)">
        <g transform="translate(28)">
          <path fill="#915C3C" d="M3.5,13.28 C1.78236884,11.2919832 0.885052472,8.72515785 0.99,6.1 C1.51,-1.8 11.89,-0.06 13.91,3.93 C15.93,7.92 15.69,18.03 13.08,18.74 C12.08,19.02 9.82,18.33 7.57,16.89 L9,27.49 L0.64,27.49 L3.5,13.28 Z" transform="translate(1 3)"/>
          <path fill="#1C1C45" d="M3.86,18.06 C2.86,13.11 -0.14,9.74 0.28,7.53 C0.453433124,6.20357288 1.415005,5.11537426 2.71,4.78 C3.37666667,1.86 5.57333333,0.616666667 9.3,1.05 C14.87,1.7 18.3,4.16 16.8,9.55 C15.45,9.55 13.8,9.03 11.57,9.92 C10.8566667,10.2 10.3466667,11.0733333 10.04,12.54 L9.04,12.54 C8.05333333,10.8066667 7.08,10.17 6.12,10.63 C5.16,11.09 4.94,12.2066667 5.46,13.98 L4.96,18.06 L3.86,18.06 Z"/>
        </g>
        <g transform="translate(0 61)">
          <path fill="#AE5A77" fill-rule="nonzero" d="M6.29,0.63 L46.34,0.63 C49.508284,0.727958541 51.9997171,3.37147193 51.91,6.54 L51.91,40.54 C51.9997171,43.7085281 49.508284,46.3520415 46.34,46.45 L6.29,46.45 C3.12171601,46.3520415 0.630282922,43.7085281 0.72,40.54 L0.72,6.54 C0.630282922,3.37147193 3.12171601,0.727958541 6.29,0.63 Z M11.86,11 C11.0685237,11.0271793 10.4475351,11.6883759 10.47,12.48 L10.47,34.63 C10.4475351,35.4216241 11.0685237,36.0828207 11.86,36.11 L40.77,36.11 C41.5614763,36.0828207 42.1824649,35.4216241 42.16,34.63 L42.16,12.44 C42.1824649,11.6483759 41.5614763,10.9871793 40.77,10.96 L11.86,11 Z" transform="translate(0 15)"/>
          <path fill="#B28B67" d="M86.45,59.55 C79.5833333,50.6633333 74.9366667,44.0766667 72.51,39.79 C68.36,32.45 64.96,25.91 63.89,23.41 C61.33,17.41 69.78,14.67 71.69,17.41 C74.5833333,21.61 80.7633333,34.8333333 90.23,57.08 L86.45,59.55 Z"/>
          <path fill="#2F3778" d="M72.38,57 L59.6,22.88 C56.87,16.67 70.07,12.58 72.07,15.47 C76.63,22.04 87.47,47.94 88.83,49.89 L72.38,57 Z"/>
          <path fill="#915C3C" d="M1.34,28.13 C3.83,24.28 12.88,11.34 17.81,5.98 C19.23,4.44 20.61,2.98 21.92,1.59 C25.81,-2.5 33.55,4.38 29.67,8.1 C20.01,17.38 5.91,29.91 4.73,31.03 C3.08,32.6 -0.22,30.55 1.34,28.13 Z" transform="translate(37 22)"/>
          <path fill="#E4E4E5" d="M2.93,0.39 C2.27880408,0.906502382 1.71493436,1.52439554 1.26,2.22 C0.825548949,3.08742931 0.457818064,3.98669847 0.16,4.91 L17.16,15.32 C18.4466667,14.04 18.6466667,13.04 17.76,12.32 C16.8733333,11.6 16.1433333,11.0033333 15.57,10.53 L9.7,2 C9.64762176,1.92184745 9.56520183,1.86889171 9.47234984,1.8537322 C9.37949786,1.8385727 9.28451503,1.86256472 9.21,1.92 L7.99,2.92 C7.11520226,2.88575334 6.25849628,2.66048404 5.48,2.26 C4.85778856,1.79837924 4.3341863,1.21697673 3.94,0.55 C3.83923802,0.383318205 3.67093076,0.268733974 3.47891449,0.236091208 C3.28689823,0.203448443 3.09018152,0.2559786 2.94,0.38 L2.93,0.39 Z" transform="translate(36 48)"/>
          <path fill="#E4E4E5" d="M1.49,3.22 C1.17152763,4.0088397 0.97592042,4.84185661 0.91,5.69 C0.940635415,6.66637236 1.0442578,7.63908575 1.22,8.6 L20.86,8.6 C21.3733333,6.81333333 21.08,5.84666667 19.98,5.7 C18.88,5.55333333 17.9666667,5.42333333 17.24,5.31 L8.11,1 C8.02418059,0.960702477 7.92588726,0.958848836 7.83864723,0.994882761 C7.7514072,1.03091669 7.68307267,1.10159488 7.65,1.19 L7.06,2.7 C6.29863547,3.13112711 5.45219218,3.39052102 4.58,3.46 C3.82826841,3.39254419 3.09914119,3.16767317 2.44,2.8 C2.27092628,2.72038143 2.07653714,2.71385543 1.90250423,2.78195526 C1.72847132,2.85005509 1.59013597,2.98677764 1.52,3.16 L1.49,3.22 Z" transform="translate(82 55)"/>
          <path fill="#5D64AC" d="M55,24.58 C44.38,22.7466667 37.2666667,21.4933333 33.66,20.82 C23.38,18.9 20.38,13.03 22.15,0.24 L41.1,0.24 C43.6066667,1.00666667 54.08,5.75333333 72.52,14.48 C75.84,16.23 75.22,21.37 74.61,23.07 C74.61,23.1366667 69.0166667,33.2966667 57.83,53.55 L42.33,43.09 L55,25.81 C55.3533333,25.0966667 55.3533333,24.6866667 55,24.58 Z"/>
        </g>
        <g transform="translate(1 21)">
          <path fill="#915C3C" d="M1.46 65.48C4.02 63.62 7.72 60.36 8.21 59.29 8.87666667 57.83 10.3766667 49.97 12.71 35.71L19.99 35.71C15.4966667 51.0833333 13.07 59.24 12.71 60.18 11.9 62.3 13.61 65.52 14.34 67.25 11.96 68.38 12.22 64.25 9.22 65.68 6.49 67.03 4.4 69.47 1.22 67.41.929360744 67.1520346.784367339 66.7675083.832322476 66.3818691.880277613 65.9962299 1.11503226 65.6589262 1.46 65.48zM79.6 42.23C80.24 42.16 81.23 41.82 79.53 40.87 77.83 39.92 76.1 38.87 76.27 38.2 76.44 37.53 77.89 37.59 77.97 36.62 78.03 35.9533333 75.7266667 36.1533333 71.06 37.22L59.47 34.71 57.91 40.54 71.69 40.43C74.2400591 41.3616781 76.8978915 41.9664945 79.6 42.23z"/>
          <path fill="#E87713" d="M27.45,7.09 L30.19,5.66 C43.64,12.13 53.28,29.6 69.19,35.49 L67.19,40.63 C43.56,44.76 31.52,23.53 27.45,7.09 Z"/>
          <path fill="#DEE3E9" d="M20.27,43.45 L46.92,43.45 C48.14,43.45 47.92,41.59 47.73,40.65 C45.73,29.8 37.73,18.1 37.73,2.65 L30.04,1.37 C23.72,12.21 21.52,25.55 20.27,43.45 Z"/>
          <path fill="#F19828" d="M20.48,12 C19.3050849,11.6080634 18.3454562,10.7462081 17.83,9.62 C15.02,4.25 16.04,1.29 19.04,0.32 C22.04,-0.65 24.72,1.32 29.5,1.32 C29.7376092,1.31810177 29.975002,1.33481957 30.21,1.37 L32.62,1.52 C39.5266667,26.3133333 41.43,42.8566667 38.33,51.15 L17.33,51.15 C16.2826664,53.7966941 15.0908744,56.3839176 13.76,58.9 L8.05,58.9 C7.53,40.5066667 11.6733333,24.8733333 20.48,12 Z"/>
          <path fill="#030303" fill-opacity=".1" d="M21.93,38.47 C22.5966667,44.3166667 23.67,48.56 25.15,51.2 L17.37,51.2 C18.81,47.62 20.33,43.3766667 21.93,38.47 Z"/>
        </g>
        <g transform="translate(60 40)">
          <path fill="#949BA1" d="M39.79,22.13 L25.79,24.04 L0.61,22.2 C0.436691815,22.1708104 0.309791304,22.0207491 0.309791304,21.845 C0.309791304,21.6692509 0.436691815,21.5191896 0.61,21.49 L21.39,19 L39.79,22.13 Z"/>
          <path fill="#C5CFD6" d="M39.61,21.86 L25.61,23.77 L0.43,21.93 C0.256691815,21.9008104 0.129791304,21.7507491 0.129791304,21.575 C0.129791304,21.3992509 0.256691815,21.2491896 0.43,21.22 L21.21,18.71 L39.61,21.86 Z"/>
          <polygon fill="#C5CFD6" points="25.37 23.3 33.16 1.33 52.28 .75 45.32 21.15"/>
          <path fill="#DEE3E9" d="M36.84,21.84 L25.95,23.3 L6.15,21.82 C6.09913976,21.80484 6.06427827,21.7580716 6.06427827,21.705 C6.06427827,21.6519284 6.09913976,21.60516 6.15,21.59 L25,20.08 L36.84,21.84 Z"/>
          <polygon fill="#AFB9C6" points="25.7 23.57 33.5 1.6 52.61 1.01 45.65 21.42"/>
          <path fill="#FFF" d="M39.81,12.56 C40.81,12.56 42.26,11.91 42.28,11.1 C42.3,10.29 40.91,9.68 39.91,9.64 C38.91,9.6 37.73,10.29 37.7,11.1 C37.67,11.91 38.81,12.52 39.81,12.56 Z"/>
        </g>
      </g>
    </g>
  </g>
</svg>
