<svg xmlns="http://www.w3.org/2000/svg" width="162" height="120" viewBox="0 0 162 120">
  <g fill="none" fill-rule="evenodd">
    <g transform="translate(12)">
      <path fill="#FFF" d="M8.29999999e-05,8 L24.000083,32 L1.000083,32 C0.447798,32 8.29999999e-05,31.5522847 8.29999999e-05,31 L8.29999999e-05,8 Z" opacity=".3"/>
      <path fill="#5342A6" d="M36.875,0 L123.125,0 C124.160533,0 125,0.781725106 125,1.74603189 L125,108.254041 C125,109.218347 124.160533,110.000073 123.125,110.000073 L36.875,110.000073 C35.8394666,110.000073 35,109.218347 35,108.254041 L35,1.74603189 C35,0.781725106 35.8394666,0 36.875,0 Z"/>
      <path fill="#7961F2" d="M33,9 L94.000083,9 L118.000083,33 L118.000083,118.000073 C118.000083,119.104643 117.104652,120.000073 116.000083,120.000073 L33,120.000073 C31.8954305,120.000073 31,119.104643 31,118.000073 L31,11 C31,9.8954305 31.8954305,9 33,9 Z"/>
      <path fill="#6B47B3" d="M11,81 L65,81 C65.552285,81 66,81.447715 66,82 L66,108 C66,108.552285 65.552285,109 65,109 L11,109 C10.4477153,109 10,108.552285 10,108 L10,82 C10,81.447715 10.4477153,81 11,81 Z"/>
      <path fill="#FFF" d="M93,8 L117,32 L94,32 C93.447715,32 93,31.5522847 93,31 L93,8 Z" opacity=".3"/>
      <path fill="#FFF" fill-rule="nonzero" d="M24.256 94.592L23.704 96.512 27.712 96.512 27.16 94.592C26.656 92.936 26.2 91.136 25.744 89.408L25.648 89.408C25.216 91.16 24.76 92.936 24.256 94.592zM19 102.944L24.112 87.248 27.376 87.248 32.488 102.944 29.56 102.944 28.336 98.696 23.056 98.696 21.832 102.944 19 102.944zM39.904 103.232C38.824 103.232 37.672 102.68 36.688 101.696L36.616 101.696 36.376 102.944 34.192 102.944 34.192 86 36.952 86 36.952 90.368 36.88 92.336C37.864 91.472 39.088 90.872 40.288 90.872 43.24 90.872 44.944 93.224 44.944 96.848 44.944 100.904 42.52 103.232 39.904 103.232zM39.328 100.952C40.888 100.952 42.088 99.56 42.088 96.896 42.088 94.544 41.32 93.152 39.544 93.152 38.68 93.152 37.864 93.584 36.952 94.472L36.952 99.968C37.792 100.688 38.632 100.952 39.328 100.952zM52.624 103.232C49.408 103.232 46.936 100.976 46.936 97.064 46.936 93.128 49.696 90.872 52.84 90.872 54.352 90.872 55.432 91.448 56.296 92.192L54.952 93.992C54.328 93.44 53.728 93.128 52.984 93.128 51.088 93.128 49.768 94.688 49.768 97.064 49.768 99.416 51.064 100.976 52.912 100.976 53.824 100.976 54.664 100.52 55.336 99.968L56.464 101.792C55.36 102.752 53.968 103.232 52.624 103.232zM57 55.9405084L64.959888 49.3853063 72.927703 54.3651904 78.944259 48.3486342 87 54.0350396 87 36 57 36 57 55.9405084zM57 57.2359622L57 59 87 59 87 55.259078 79.055741 49.6513658 73.072297 55.6348096 65.040112 50.6146937 57 57.2359622zM57 35L87 35C87.552285 35 88 35.4477153 88 36L88 59C88 59.552285 87.552285 60 87 60L57 60C56.447715 60 56 59.552285 56 59L56 36C56 35.4477153 56.447715 35 57 35zM81 45C79.343146 45 78 43.6568542 78 42 78 40.3431458 79.343146 39 81 39 82.656854 39 84 40.3431458 84 42 84 43.6568542 82.656854 45 81 45z"/>
      <g fill="#FFF" transform="translate(45 27)">
        <rect width="7" height="7"/>
        <rect width="4" height="1" x="1.5" y="10.5" transform="rotate(90 3.5 11)"/>
        <rect width="4" height="1" x="46.5" y="10.5" transform="rotate(90 48.5 11)"/>
        <rect width="4" height="1" x="1.5" y="16.5" transform="rotate(90 3.5 17)"/>
        <rect width="4" height="1" x="46.5" y="16.5" transform="rotate(90 48.5 17)"/>
        <rect width="4" height="1" x="1.5" y="22.5" transform="rotate(90 3.5 23)"/>
        <rect width="4" height="1" x="46.5" y="22.5" transform="rotate(90 48.5 23)"/>
        <rect width="4" height="1" x="1.5" y="28.5" transform="rotate(90 3.5 29)"/>
        <rect width="4" height="1" x="15" y="3"/>
        <rect width="4" height="1" x="15" y="36"/>
        <rect width="4" height="1" x="27" y="3"/>
        <rect width="4" height="1" x="27" y="36"/>
        <rect width="4" height="1" x="9" y="3"/>
        <rect width="4" height="1" x="9" y="36"/>
        <rect width="4" height="1" x="21" y="3"/>
        <rect width="4" height="1" x="21" y="36"/>
        <rect width="4" height="1" x="33" y="3"/>
        <rect width="4" height="1" x="33" y="36"/>
        <rect width="4" height="1" x="39" y="3"/>
        <rect width="4" height="1" x="39" y="36"/>
        <rect width="7" height="7" y="33"/>
        <rect width="7" height="7" x="45" y="32"/>
      </g>
    </g>
    <path fill="#5342A6" fill-rule="nonzero" d="M143,114 C143.552285,114 144,113.552285 144,113 C144,112.447715 143.552285,112 143,112 C142.447715,112 142,112.447715 142,113 C142,113.552285 142.447715,114 143,114 Z M143,115 C141.895431,115 141,114.104569 141,113 C141,111.895431 141.895431,111 143,111 C144.104569,111 145,111.895431 145,113 C145,114.104569 144.104569,115 143,115 Z M160,26 C160.552285,26 161,25.5522847 161,25 C161,24.4477153 160.552285,24 160,24 C159.447715,24 159,24.4477153 159,25 C159,25.5522847 159.447715,26 160,26 Z M160,27 C158.895431,27 158,26.1045695 158,25 C158,23.8954305 158.895431,23 160,23 C161.104569,23 162,23.8954305 162,25 C162,26.1045695 161.104569,27 160,27 Z"/>
    <path fill="#7961F2" fill-rule="nonzero" d="M9 48C9.5522847 48 10 47.5522847 10 47 10 46.4477153 9.5522847 46 9 46 8.4477153 46 8 46.4477153 8 47 8 47.5522847 8.4477153 48 9 48zM9 49C7.8954305 49 7 48.1045695 7 47 7 45.8954305 7.8954305 45 9 45 10.1045695 45 11 45.8954305 11 47 11 48.1045695 10.1045695 49 9 49zM19.8062676 18.1937324C20.0645775 18.4520422 20.0645775 18.8708451 19.8062676 19.1291549L18.4031338 20.5322887C18.144824 20.7905985 17.7260211 20.7905985 17.4677113 20.5322887 17.2094015 20.2739789 17.2094015 19.855176 17.4677113 19.5968662L18.8708451 18.1937324C19.1291549 17.9354225 19.5479578 17.9354225 19.8062676 18.1937324zM16.5322887 21.4677113C16.7905985 21.7260211 16.7905985 22.144824 16.5322887 22.4031338L15.1291549 23.8062676C14.8708451 24.0645775 14.4520422 24.0645775 14.1937324 23.8062676 13.9354225 23.5479578 13.9354225 23.1291549 14.1937324 22.8708451L15.5968662 21.4677113C15.855176 21.2094015 16.2739789 21.2094015 16.5322887 21.4677113zM19.8062676 23.8062676C19.5479578 24.0645775 19.1291549 24.0645775 18.8708451 23.8062676L17.4677113 22.4031338C17.2094015 22.144824 17.2094015 21.7260211 17.4677113 21.4677113 17.7260211 21.2094015 18.144824 21.2094015 18.4031338 21.4677113L19.8062676 22.8708451C20.0645775 23.1291549 20.0645775 23.5479578 19.8062676 23.8062676zM16.5322887 20.5322887C16.2739789 20.7905985 15.855176 20.7905985 15.5968662 20.5322887L14.1937324 19.1291549C13.9354225 18.8708451 13.9354225 18.4520422 14.1937324 18.1937324 14.4520422 17.9354225 14.8708451 17.9354225 15.1291549 18.1937324L16.5322887 19.5968662C16.7905985 19.855176 16.7905985 20.2739789 16.5322887 20.5322887zM5.80626762 87.1937324C6.06457752 87.4520422 6.06457752 87.8708451 5.80626762 88.1291549L4.40313382 89.5322887C4.14482402 89.7905985 3.72602112 89.7905985 3.46771133 89.5322887 3.20940152 89.2739789 3.20940152 88.855176 3.46771133 88.5968662L4.87084512 87.1937324C5.12915493 86.9354225 5.54795782 86.9354225 5.80626762 87.1937324zM2.53228872 90.4677113C2.79059852 90.7260211 2.79059852 91.144824 2.53228872 91.4031338L1.12915492 92.8062676C.870845125 93.0645775.452042225 93.0645775.193732425 92.8062676-.064577475 92.5479578-.064577475 92.1291549.193732425 91.8708451L1.59686622 90.4677113C1.85517602 90.2094015 2.27397892 90.2094015 2.53228872 90.4677113zM5.80626762 92.8062676C5.54795782 93.0645775 5.12915493 93.0645775 4.87084512 92.8062676L3.46771133 91.4031338C3.20940152 91.144824 3.20940152 90.7260211 3.46771133 90.4677113 3.72602112 90.2094015 4.14482402 90.2094015 4.40313382 90.4677113L5.80626762 91.8708451C6.06457752 92.1291549 6.06457752 92.5479578 5.80626762 92.8062676zM2.53228872 89.5322887C2.27397892 89.7905985 1.85517602 89.7905985 1.59686622 89.5322887L.193732425 88.1291549C-.064577475 87.8708451-.064577475 87.4520422.193732425 87.1937324.452042225 86.9354225.870845125 86.9354225 1.12915492 87.1937324L2.53228872 88.5968662C2.79059852 88.855176 2.79059852 89.2739789 2.53228872 89.5322887z"/>
  </g>
</svg>
