<svg xmlns="http://www.w3.org/2000/svg" xmlns:xlink="http://www.w3.org/1999/xlink" width="306" height="208" viewBox="0 0 306 208">
  <defs>
    <linearGradient id="lebenslauf2-a" x1="50%" x2="50%" y1="11.426%" y2="66.279%">
      <stop offset="0%" stop-color="#44C2DF"/>
      <stop offset="100%" stop-color="#85DAEE"/>
    </linearGradient>
    <polygon id="lebenslauf2-b" points="0 .014 35.232 .014 35.232 65.42 0 65.42"/>
    <polygon id="lebenslauf2-d" points=".232 .021 30.844 .021 30.844 1.499 .232 1.499"/>
  </defs>
  <g fill="none" fill-rule="evenodd">
    <path fill="#E5E1D6" d="M302.985912,169.571381 L290.144421,191.941878 C290.120507,191.989628 290.120507,192.037377 290.120507,192.109001 L291.627051,196.645174 C291.674878,196.812296 291.890097,196.836171 291.985752,196.669049 L305.975084,172.030465 C306.022911,171.958841 305.998997,171.839468 305.927258,171.791719 L303.296784,169.523632 C303.201131,169.452008 303.057652,169.475883 302.985912,169.571381 Z"/>
    <path fill="url(#lebenslauf2-a)" d="M292.199483,194.479625 C291.902906,194.179837 291.598406,193.87172 291.285563,193.567351 C284.956187,187.409433 275.247117,179.348621 267.347192,176.417353 C262.007578,174.418761 256.209961,174.002388 250.578778,173.169641 C233.851659,170.75426 217.458657,164.716848 204.069371,154.432845 C199.605719,150.935309 195.935439,147.521048 191.764191,144.814622 C184.630941,140.150825 176.16331,137.777914 167.654382,136.945167 C167.06999,136.90353 166.486016,136.861893 165.943754,136.819839 C159.228463,136.320607 152.470625,136.736981 145.79663,135.987092 C132.031514,134.40529 119.225785,128.118054 109.631916,118.166733 C107.00403,115.418669 104.501282,112.29587 101.164284,110.463828 C98.2861234,108.881609 94.9074131,108.340324 91.8206901,107.174479 C88.4006843,105.883722 79.5155107,104.093317 68.5872601,100.13777 C51.5264415,93.9333925 29.4188312,82.4002695 14.9867328,59.1662248 C10.6069231,52.0466584 7.14437079,44.3437528 4.80847233,36.3493862 C2.55599881,28.8130301 1.01305445,20.40229 0.345237766,11.1171662 C0.0866204366,7.55259468 -0.0218319922,3.84312525 0.00361261609,0 L261.432362,0 C268.47301,14.9894376 265.89518,31.1780301 270.705046,46.7458102 C273.220308,54.8817439 278.851492,59.262407 284.286209,65.4538774 C296.750313,79.6480422 302.031113,95.9032545 302.510807,114.631308 C302.907073,130.304014 294.036445,159.201396 304.973874,172.296335 L292.199483,194.479625 Z" opacity=".203"/>
    <polygon fill="#E73D34" points="246.824 84.504 249.086 86.232 248.222 89.027 245.426 89.027 244.562 86.232" opacity=".594" transform="rotate(15 246.824 86.766)"/>
    <circle cx="279.5" cy="123.5" r="1.5" fill="#E73D34" opacity=".752"/>
    <polygon fill="#E73D34" points="252.665 47.846 251.352 50.113 250.039 52.369 252.664 52.369 255.277 52.368 253.965 50.113" opacity=".702" transform="scale(1 -1) rotate(28 453.628 0)"/>
    <polygon fill="#E73D34" points="181.5 99 178 102.5 181.5 106 185 102.5" opacity=".499"/>
    <polygon fill="#E73D34" points="137.17 32.135 135.858 34.402 134.545 36.658 137.17 36.658 139.784 36.658 138.471 34.403" opacity=".513" transform="scale(1 -1) rotate(-21 -48.424 0)"/>
    <polygon fill="#E73D34" points="131.931 109.974 130.619 112.242 129.306 114.497 131.932 114.497 134.545 114.498 133.232 112.242" opacity=".819" transform="scale(1 -1) rotate(-21 -473.646 0)"/>
    <circle cx="30.5" cy="36.5" r="1.5" fill="#E73D34" opacity=".709"/>
    <polygon fill="#E73D34" points="257.659 157.345 260.755 157.345 260.755 160.439 257.659 160.439" opacity=".622" transform="rotate(-5 259.207 158.892)"/>
    <g transform="translate(188 113)">
      <polygon fill="#E5E1D6" points="100.394 78.578 102.023 83.932 71.519 84.208 72.821 78.578"/>
      <polygon fill="#356B93" points="16.805 32.374 17.98 29.146 31.903 39.859 29.879 43.966 16.828 33.606"/>
      <g transform="translate(0 .118)">
        <path fill="#A06A45" d="M14.5439898,43.3927696 C14.5135204,48.7547262 17.7527619,54.8767786 20.0192823,58.2572114 C22.3010374,61.6591478 27.7090671,68.1060543 32.5266807,73.3619247 C36.3957187,77.5761397 39.8801525,81.023665 41.0698959,81.5153902 C43.7402795,82.6175432 54.9926839,80.9089769 58.4164664,80.8071912 C61.8379493,80.7031116 73.3553797,80.7226087 73.3553797,80.7226087 C73.3553797,80.7226087 73.5137631,80.0599981 73.6594988,79.0484487 C73.9394723,77.054022 74.4330189,74.5500936 73.2429879,72.1809236 C63.1084653,70.9480263 43.9986945,68.5977798 43.9986945,68.5977798 C43.9986945,68.5977798 36.2266997,64.3244999 33.1610765,56.5044898 C32.7419786,55.4370301 32.3924428,54.3302898 32.0863116,53.2066327 C31.2417921,50.1229556 30.7100149,46.9111148 29.8956774,44.0181067 C29.2512208,42.8680715 28.4388954,41.798318 27.4296685,40.8389518 C24.3511101,37.9135442 25.4730163,35.2610945 23.4019598,33.6847062 C16.7584823,35.159309 14.5678479,39.0248722 14.5439898,43.3927696"/>
        <path fill="#BC1531" d="M18.1874681,27.9011846 C18.1207804,28.1526383 18.044032,28.396924 17.9552108,28.6380558 C17.8982963,28.5569139 17.8439688,28.4754855 17.7870543,28.3943437 L18.1874681,27.9011846 Z"/>
        <g transform="translate(0 28.624)">
          <mask id="lebenslauf2-c" fill="#fff">
            <use xlink:href="#lebenslauf2-b"/>
          </mask>
          <path fill="#4077A8" d="M0.244243804,62.552938 C-0.422633477,52.8847286 0.459829131,43.0817608 0.712782582,33.3275354 C0.899623199,26.0591753 0.767397532,17.8733101 5.76035371,12.4887025 C7.96794747,10.111791 9.68400668,8.73266626 12.2882774,6.77436645 C13.0960038,6.17225377 13.8836089,5.52139865 14.6194734,4.81893386 C14.9011716,4.55228397 15.1713719,4.27703246 15.4300743,3.99317932 C16.0164664,3.35952742 16.545369,2.69146908 16.9909121,1.98040267 C17.2294931,1.59906464 17.442204,1.209125 17.6290446,0.801982147 C17.6606638,0.738903676 17.6894085,0.672958001 17.7181532,0.607012326 C17.8043874,0.412042508 17.8819981,0.214205486 17.9538599,0.0135012607 C18.1407005,0.283018363 18.3304155,0.552535466 18.5201306,0.819185365 C18.7673352,1.16324975 19.0174141,1.50731414 19.2674931,1.84851132 C19.4370869,2.07502038 19.6066807,2.29866223 19.779149,2.52230408 C20.5265114,3.50288757 21.3026186,4.46053345 22.1074705,5.39524171 C23.1106609,6.56219342 24.1569684,7.69473869 25.2435184,8.79001033 C25.7091827,9.26023164 26.1834704,9.72471856 26.6635071,10.1806039 C26.7439924,10.2580184 26.827352,10.3411673 26.9107117,10.4271834 C26.9768243,10.493129 27.0458118,10.5648091 27.1119245,10.6364892 C27.6379527,11.2099298 28.1956,11.9353323 28.750373,12.7324147 C28.957335,13.0248695 29.1642968,13.328793 29.3683843,13.6413182 C29.4603675,13.7818111 29.5494759,13.9194369 29.6385846,14.0599298 C29.7938061,14.3007749 29.946153,14.54162 30.0956255,14.7853322 C31.1390586,16.4712477 32.0847594,18.1973041 32.7056452,19.3929278 C33.6369739,21.1935314 33.9617891,22.3174751 34.1888723,24.3245174 C34.4332022,26.4777869 34.4878173,28.5249701 34.4332022,30.5148092 C34.3699639,32.7512275 34.1658765,34.9159661 33.9359187,37.0835718 C33.6484717,39.8160163 33.3150331,42.5513281 33.1655606,45.4271331 C33.0879499,46.9295475 33.0592052,48.4692358 33.1138201,50.0691352 C33.1655606,51.605956 33.277665,53.1370425 33.4443843,54.6652618 C33.4702544,54.9089741 33.4989991,55.1526864 33.5248695,55.3963985 C33.7548271,57.3546983 34.0623955,59.3043966 34.4188301,61.2512277 C34.4964407,61.6841754 34.576926,62.1199903 34.6602856,62.552938 C34.8413773,63.5105837 35.0339667,64.4653623 35.2323053,65.4201412 C11.9510062,64.147103 0.288319027,63.1913684 0.244243804,62.552938 Z" mask="url(#lebenslauf2-c)"/>
        </g>
        <g transform="translate(71.287 83.436)">
          <mask id="lebenslauf2-e" fill="#fff">
            <use xlink:href="#lebenslauf2-d"/>
          </mask>
          <path fill="#EDEBE6" d="M30.8437066,0.759923542 C30.8437066,0.345612677 30.5022194,0.012443662 30.0868583,0.021331992 C30.0868583,0.021331992 1.9687827,0.221462777 0.231739855,0.654697184 C0.231739855,1.52059256 30.0813969,1.49851509 30.0813969,1.49851509 C30.4987701,1.51055734 30.8437066,1.17652817 30.8437066,0.759923542" mask="url(#lebenslauf2-e)"/>
        </g>
        <path fill="#A06A45" d="M69.7960085,78.7677209 C73.4302022,78.6842852 74.1962488,79.6075246 76.501862,80.0373185 C78.8077626,80.4668254 81.0018464,79.8222782 81.0018464,79.8222782 L84.6958291,79.1060508 L87.1931695,79.7663677 L90.9607388,81.0442803 C91.4163423,81.1988224 91.920812,81.1750247 92.3442217,80.9473687 C92.5707299,80.8257992 92.7388866,80.6712571 92.6704741,80.4943507 C92.6704741,80.4943507 92.8817477,80.514421 93.3045824,80.5542752 C93.7274172,80.5941292 95.0758314,79.8698738 92.8498412,78.5965488 L92.6664498,77.3946173 C92.6138471,77.0485458 92.4885201,76.7176704 92.2985175,76.4229219 L91.0179407,74.4385307 C90.7106599,73.9625749 90.2346474,73.6202308 89.6847611,73.4797379 L87.0204139,72.7993507 C86.7657358,72.7342651 86.5265797,72.6210106 86.3107069,72.4710559 C85.9950901,72.2520014 85.334824,71.8514532 83.9953205,71.2040386 C83.5753603,71.0010407 83.0996354,70.9356684 82.6405823,71.0193909 C78.9589599,71.6914633 75.1568969,72.4509854 69.6085929,71.728737 L69.7960085,78.7677209 Z"/>
        <path fill="#E0DDDC" d="M38.9964826,29.7867149 C39.0140167,29.8257087 39.0312637,29.8624089 39.0508101,29.899396 C39.3221601,30.436423 39.7409706,30.9321624 40.2555008,31.034235 C40.2753346,31.038249 40.2948811,31.0425497 40.3121278,31.0471373 C40.3707672,30.841272 40.4380297,30.5488173 40.4012365,30.4298284 C40.3684675,30.3280427 40.3055166,30.2305579 40.1948496,30.20676 C40.1580564,30.1981585 40.1189635,30.1981585 40.0798706,30.1892701 C40.0103084,30.172067 39.9559809,30.1201706 39.8973417,30.0768758 C39.7803509,29.9945869 39.6326031,29.9403968 39.4914664,29.9707893 C39.4742196,29.97509 39.4566853,29.9816846 39.4394385,29.9793908 C39.3049133,29.9619009 39.2267277,29.673747 39.0421865,29.7649239 L38.9964826,29.7867149 Z"/>
        <path fill="#FFF" d="M39.0508101,29.8992811 C39.1830357,29.8754834 39.3221601,29.8255941 39.4132808,29.8774904 C39.4371391,29.8929734 39.4546732,29.9144772 39.4719202,29.9339744 C39.6196679,30.0982651 39.8496255,30.1656444 40.0689478,30.1679382 C40.1796147,30.1679382 40.2948811,30.152742 40.3969249,30.1937431 C40.4509649,30.2155338 40.4989685,30.252234 40.553296,30.2760317 C40.7136916,30.345418 40.8786862,30.2803325 41.0111993,30.1828475 C41.2305213,30.0182702 41.5041712,29.2148797 41.5625229,29.0373999 C41.3107192,29.0718064 41.0155111,29.0308053 40.6898334,28.8682348 C39.8214556,28.435574 38.9530781,28.0023394 38.7360555,28.435574 C38.6230889,28.6629432 38.746691,29.3077771 39.0508101,29.8992811"/>
        <path fill="#BF8258" d="M44.5993152,21.0714205 C44.5993152,21.9390362 46.3369329,26.0543329 45.0342226,26.919655 C43.7982002,27.7408219 43.3434589,26.8064005 42.740395,27.2697404 C42.7082007,27.2921047 42.6762942,27.3216368 42.6441001,27.3537494 C42.609319,27.3881559 42.582299,27.4202685 42.5572909,27.4498008 C42.3796488,27.6840514 42.4538102,27.8540764 42.4834172,28.0490462 L42.4834172,28.0542072 C42.4857166,28.0613754 42.4857166,28.0711237 42.4857166,28.0785785 C42.5006639,28.1723361 42.4957774,28.2732616 42.4463364,28.3916771 C42.4437494,28.404006 42.4339761,28.421496 42.4288023,28.4361187 C42.3968956,28.5000574 42.3523413,28.5668631 42.3003134,28.6282212 C42.1519907,28.8059879 41.9320935,28.9588098 41.6503955,29.0204547 C41.6182014,29.0279095 41.5911814,29.0327837 41.5635865,29.0376578 C41.4552188,29.0525674 41.3388028,29.0525674 41.215488,29.0350775 C41.1387396,29.0253289 41.0571045,29.0081258 40.9731699,28.9808873 C40.8814745,28.9539356 40.7851797,28.9169488 40.6888848,28.867346 C40.1499214,28.5989758 39.6109583,28.3326128 39.2303783,28.268674 L39.2254916,28.268674 C38.9932344,28.2316872 38.8201912,28.2732616 38.7359693,28.4361187 C38.6816417,28.5470794 38.6839414,28.769001 38.7359693,29.0327837 C38.7486169,29.0895544 38.7632768,29.1486188 38.7805236,29.2102635 C38.8325514,29.3926177 38.9041257,29.590168 38.9981211,29.787145 C39.0153679,29.8267122 39.0326146,29.8611186 39.0524484,29.8981057 C39.1884111,30.1670493 39.361454,30.4259578 39.5641042,30.6306761 C39.7667545,30.8351075 39.9990117,30.9830553 40.2562771,31.0349517 C40.2758233,31.0372455 40.2933576,31.0472806 40.3131914,31.0472806 C41.0053642,31.204977 40.8099002,31.5573562 40.4859473,31.9742476 C40.4390933,32.0333119 40.3896524,32.0923762 40.3427984,32.1540212 C40.3131914,32.1912948 40.2832971,32.2257013 40.25369,32.2626881 C40.177229,32.3564457 40.1030677,32.4524971 40.0386795,32.5485482 C39.7196131,33.0245039 39.6356786,33.2687897 39.7000669,33.7051782 C39.7196131,33.8628743 39.764455,34.0478089 39.8236691,34.2820594 C39.8458025,34.3683623 39.8607498,34.4595393 39.8682234,34.5555906 C39.8828831,34.7453994 39.8682234,34.9501177 39.8161955,35.1499618 C39.6307921,35.8722102 38.9659268,36.5379749 37.433259,36.2323311 C36.55827,36.054851 35.715475,35.7735785 34.9540276,35.5444889 C34.7416044,35.4828442 34.5386666,35.4237796 34.3409031,35.3718832 L34.3386034,35.3718832 C34.3360163,35.3718832 34.3360163,35.3718832 34.3337169,35.3693029 C34.2768023,35.3543933 34.2198877,35.3397706 34.1655604,35.3274416 C34.1187064,35.3151127 34.0741521,35.3053641 34.0295978,35.2930352 C33.7749197,35.2362647 33.5351889,35.1918228 33.3104052,35.1746197 C33.2782111,35.1697455 33.2486041,35.1671649 33.2189971,35.1671649 C32.8358299,35.1450874 32.502104,35.1969838 32.2227054,35.3647153 C32.2178187,35.3667223 32.2126446,35.3718832 32.2054584,35.3770442 C32.0002214,35.5000473 31.8421255,35.6259175 31.7136366,35.751501 L31.6368882,35.8280552 C31.5900342,35.8773712 31.5477796,35.9289808 31.5058123,35.9782968 C31.5009256,35.9834578 31.4983385,35.9880454 31.490865,35.9957867 C31.0930383,36.4766168 29.4839094,40.1429095 28.7497693,41.3608974 L27.0193378,39.1416821 L16.8848153,30.5122606 C16.8848153,30.5122606 18.3482085,25.8693984 18.5114785,23.7069537 C18.5732796,22.9178994 18.592826,22.0379547 18.5384985,21.1084074 C18.4718108,19.9222455 18.2812333,18.6575221 17.8957668,17.3902183 C16.3754591,12.4095996 17.0256644,1.1492324 31.5724999,1.1492324 C40.8222602,1.1492324 44.1914279,5.9647002 45.4173896,9.47071631 C45.6349871,10.0946197 45.7856095,10.6763753 45.8870784,11.1818632 C45.9810735,11.628 46.0354011,12.0150724 46.0698946,12.3232968 C46.119623,12.7869236 46.119623,13.0607414 46.119623,13.0607414 C46.119623,13.0607414 46.1811367,14.1677686 46.2380513,15.3659728 C46.2900791,16.4165161 46.3369329,17.5355855 46.3369329,18.0413602 C46.3369329,19.1234427 44.5993152,20.2058119 44.5993152,21.0714205"/>
        <path fill="#9B643E" d="M43.7084878,20.5584492 C43.623691,20.6255418 43.5751125,20.6413114 43.5107243,20.6676896 C43.4500729,20.690914 43.3902839,20.7098375 43.3304949,20.7233134 C43.2112044,20.7542792 43.0927763,20.7691886 42.9749229,20.7815176 C42.7395037,20.8038818 42.5072464,20.8013013 42.2770013,20.7906927 C41.8162237,20.7631675 41.3643568,20.6917742 40.917664,20.6031776 C41.371543,20.6393043 41.8271465,20.6573677 42.276714,20.6318496 C42.5009228,20.61608 42.7239817,20.5922822 42.938417,20.5466937 C43.04506,20.5226092 43.1511281,20.4959442 43.2485725,20.4578104 C43.2983009,20.4408939 43.3451549,20.4191031 43.3882718,20.3967389 C43.428227,20.3783888 43.4808297,20.3388214 43.4834168,20.3339472 L43.7084878,20.5584492 Z"/>
        <path fill="#9B643E" d="M42.7556296,20.7113571 C42.7921352,20.8392344 42.7863865,20.9378662 42.7705769,21.0296167 C42.7524676,21.1199336 42.7179739,21.1990684 42.6702578,21.2687415 C42.6225416,21.3387012 42.5601656,21.3986257 42.4822673,21.4476549 C42.4020697,21.4949638 42.3112362,21.5353913 42.1778609,21.5462867 C42.1407801,21.4181227 42.1465291,21.3192042 42.1623386,21.2274537 C42.1807352,21.1371368 42.2149414,21.0582887 42.2635202,20.9889024 C42.3118112,20.9195161 42.3738998,20.8595916 42.451798,20.8105624 C42.5322831,20.7632535 42.6228289,20.7225392 42.7556296,20.7113571"/>
        <path fill="#665142" d="M45.5485518,19.7758748 C45.3180193,19.5955277 45.0345965,19.4593355 44.7212791,19.3695921 C44.406812,19.280422 44.0644625,19.2480226 43.7192384,19.2371273 C43.3725773,19.2270921 43.0193047,19.2571977 42.6674695,19.3042198 C42.3176464,19.3535357 41.9594873,19.4234955 41.6246114,19.5189733 L41.4920982,19.1611464 C41.8479579,19.0146323 42.2009429,18.9036715 42.5683003,18.8076202 C42.9342205,18.7152963 43.3081891,18.6393154 43.6933682,18.6060558 C44.0785473,18.5742299 44.4732122,18.5641947 44.876213,18.6287067 C45.2774892,18.6946524 45.686239,18.8256836 46.0625073,19.0579271 L45.5485518,19.7758748 Z"/>
        <path fill="#F0AF9A" d="M42.4462789 28.3917631C42.4436918 28.404092 42.4339189 28.4215819 42.4287448 28.4359181 42.3968381 28.5001434 42.3522837 28.5666625 42.3005432 28.6283074 42.0855327 28.8037803 41.8455146 28.9611896 41.6503379 29.0202541 41.6181439 29.0279955 41.5911239 29.0325831 41.5638163 29.037744 41.5126507 29.0446252 41.4594731 29.0474924 41.4051455 29.0477792 41.3933602 29.0477792 41.3815748 29.046919 41.3697895 29.0466322 41.3260977 29.0454854 41.2815434 29.0426182 41.2358392 29.0368838 41.2289406 29.0360236 41.2223291 29.0363105 41.2154305 29.0351634 41.1981837 29.0328696 41.1797871 29.0291423 41.1622528 29.0259885 41.1481677 29.0234079 41.1346579 29.0216877 41.1202855 29.0188205 41.0722819 29.0087852 41.0234157 28.9970296 40.9731127 28.9809733 40.8817043 28.9540216 40.7851222 28.9170348 40.6888273 28.8674322 40.1498642 28.599062 39.6111881 28.3326987 39.2303208 28.2684734 40.0831763 28.1130709 41.4451007 27.8593234 42.3448102 28.0465518 42.3425105 28.0514259 42.4043116 28.0514259 42.4833597 28.0491324L42.4833597 28.0540066C42.4856591 28.0614613 42.4856591 28.0712097 42.4856591 28.0786644 42.5006064 28.1721352 42.4957199 28.2733476 42.4462789 28.3917631M40.4860908 31.9743622C40.4392371 32.0334265 40.3897962 32.0924909 40.3426549 32.1541358 40.3130479 32.1914094 40.2834406 32.2258159 40.2538336 32.2628027 39.5987418 31.7696439 38.736113 30.6353783 38.736113 29.0845081L38.736113 29.0326117C38.7484731 29.0893823 38.763133 29.1487334 38.7803798 29.2100915 38.8301082 29.3927323 38.9042695 29.5902827 38.9956776 29.7872596 39.0129246 29.826827 39.0301714 29.8612335 39.0500052 29.8982203 39.1859676 30.1668774 39.3613105 30.4280794 39.5639607 30.6305041 39.7668983 30.8349356 39.9991555 30.9831699 40.2561333 31.0350663 40.2759671 31.0370735 40.2935014 31.0473955 40.3130479 31.0473955 41.0052204 31.2048048 40.8097564 31.5574708 40.4860908 31.9743622"/>
        <path fill="#295D84" d="M26.5569792,47.6636121 C25.8771669,46.7744925 25.2436334,45.8612883 24.5342138,45.0140296 C23.8360049,44.1610367 23.0987031,43.3421635 22.2599324,42.6640699 C21.4205869,41.9874099 20.4720115,41.4799149 19.4294408,41.2144121 C18.3874451,40.9414543 17.2776118,40.8766553 16.157143,40.7788838 C17.2592152,40.5681443 18.4023923,40.4978978 19.545282,40.6968817 C20.6927708,40.8861173 21.7603494,41.4724603 22.6364881,42.2067511 C23.5206754,42.9453424 24.2372811,43.8353223 24.8791504,44.7562681 C25.5227444,45.6795074 26.0617078,46.6629584 26.5569792,47.6636121"/>
        <path fill="#BF8258" d="M70.2160837,75.4278879 L71.0844615,82.5743919 C74.7752821,82.1411574 75.6436599,83.0073396 78.0317705,83.2238135 C80.4201685,83.4402873 82.590969,82.5743919 82.590969,82.5743919 L86.2817899,81.4914493 L88.8872102,81.924397 L92.8450695,82.8645528 C93.3225192,82.9792409 93.8347499,82.9055539 94.2429248,82.632596 C94.4625344,82.4875157 94.6186182,82.3146232 94.531809,82.1411574 L95.1831641,82.1411574 C95.6065738,82.1411574 96.8506448,81.3205638 94.7143381,80.2786222 C94.6554114,80.2505237 94.5947599,80.220418 94.531809,80.1920328 L94.5013397,80.0730437 C94.2363135,79.0116051 93.7493782,78.0181193 93.0718653,77.1576715 L92.2673008,76.136087 C91.9091417,75.681062 91.3914495,75.3777117 90.8185675,75.2873949 L89.9119593,75.1443215 L88.040391,74.849573 C87.7753648,74.808572 87.521549,74.7153878 87.2869923,74.5834964 C86.9440679,74.3905336 86.2340736,74.0464693 84.8077609,73.5157501 C84.3604934,73.3488788 83.8698212,73.3296685 83.4116304,73.4572591 C79.7297205,74.4946132 75.9325441,75.6314592 70.2160837,75.4278879"/>
        <path fill="#295D84" d="M34.4176802,89.8739471 C28.8854732,82.0287058 18.1999146,72.1119099 15.070478,68.2827601 C12.086777,64.6262158 7.48934804,57.5032228 8.06769162,51.5116284 C8.55462701,56.973077 12.440337,62.8927048 15.070478,66.1154412 C18.0564785,69.7696916 27.3013522,78.0022923 33.4438093,83.288268 C33.6809533,85.4928606 34.0195659,87.6871314 34.4176802,89.8739471"/>
        <path fill="#A5704C" d="M86.7174733 76.5005659C87.4656982 76.5513155 88.2119108 76.6158274 88.9569737 76.6912348L90.0731309 76.8116575 90.6304907 76.877603C90.8184812 76.9045549 90.9935365 76.9114361 91.205385 76.9590317 91.4077477 77.0072007 91.6000498 77.0960841 91.7713682 77.2139262 91.8555903 77.2721303 91.9392373 77.3438104 92.0082248 77.4114763L92.2103001 77.605586C92.48165 77.8622007 92.7463889 78.1259833 93.0114151 78.3897662 93.5339941 78.923926 94.0416254 79.4738556 94.501541 80.0731012 93.8872664 79.6326987 93.3209957 79.1429803 92.769672 78.6377791 92.4977472 78.3817378 92.2255348 78.1256968 91.9596463 77.8627741L91.7592955 77.6669442C91.6949074 77.6035791 91.6365556 77.5528295 91.5675684 77.5038003 91.4321806 77.4083225 91.2795464 77.338076 91.1194384 77.2933476 90.9673788 77.2523466 90.7673156 77.2334231 90.5859364 77.2024572L90.031451 77.1173014 88.9233425 76.935234C88.1854657 76.8085035 87.4490262 76.6720247 86.714599 76.5206364L86.7174733 76.5005659zM93.0121336 81.0584156C92.5464695 80.8319064 92.0994891 80.5778723 91.6585453 80.3146631 91.4363487 80.1853522 91.2204759 80.0468662 91.0020161 79.9121076 90.8922114 79.8453019 90.7864307 79.7730482 90.6783508 79.7036619 90.5783191 79.6374296 90.4788625 79.5869668 90.3702074 79.5476862 90.2629898 79.5084054 90.15146 79.4791599 90.0373438 79.4659708L89.6599256 79.4332847C89.4046726 79.405186 89.1488447 79.3848289 88.893879 79.3507093 88.3836606 79.2899245 87.8743042 79.216524 87.3672475 79.1092907 87.8846523 79.0751711 88.3991826 79.0748843 88.9128505 79.0869266 89.1701156 79.089507 89.4262311 79.1052768 89.6829213 79.1135915L90.0732745 79.1382494C90.2146986 79.1525856 90.3546852 79.1829778 90.4877732 79.233154 90.6197114 79.2830432 90.7490628 79.3530031 90.861167 79.4304175 90.9666601 79.5035312 91.0741653 79.5732043 91.1782213 79.6486118 91.3869078 79.7979929 91.5981814 79.9430735 91.8031311 80.0979024 92.2164803 80.402686 92.6232179 80.7169317 93.0121336 81.0584156M88.1098097 75.0084446C88.1129716 74.9295965 88.1095221 74.8983441 88.1031984 74.8854417 88.0960122 74.8797074 88.0873888 74.8822877 88.0799151 74.8799939L88.0321988 74.8736862 87.9370538 74.8616438C87.8735282 74.8527554 87.8100024 74.8461609 87.7461889 74.8398531 87.6191375 74.8252304 87.4909359 74.8177756 87.363022 74.8077405 87.107769 74.7865232 86.8510788 74.7739074 86.5969756 74.7446619 86.0887691 74.6824436 85.5837245 74.5998682 85.0878782 74.4533542 85.6049955 74.451347 86.113202 74.512992 86.6182466 74.5955674 86.8703377 74.6382888 87.1204166 74.6979265 87.3716453 74.7489627 87.4972599 74.7750544 87.6222994 74.8031529 87.7484886 74.824657 87.811152 74.8366991 87.8743905 74.8478813 87.9376287 74.857343L88.0324864 74.8719658 88.0799151 74.8794205C88.0879635 74.8797074 88.0951497 74.8842947 88.1037733 74.8808541 88.1135463 74.8702454 88.1256192 74.8412867 88.1448781 74.7644456L88.1098097 75.0084446z"/>
        <path fill="#A56D47" d="M34.3336306 35.3693602C34.276716 35.3544506 34.2198014 35.3395413 34.1657615 35.327499 34.1186201 35.31517 34.0740658 35.3051349 34.0295115 35.2928059 33.775121 35.236322 33.53539 35.1918804 33.3103189 35.1743905 33.2781249 35.1698029 33.2485178 35.1698029 33.2189108 35.1672223 32.8357439 35.145145 32.5020177 35.1967545 32.2226191 35.364486 32.2177324 35.3667796 32.2128459 35.3719406 32.2053724 35.376815 32.0001351 35.5001046 31.8420392 35.6259749 31.7135503 35.7515583 31.6862427 35.7762164 31.6592228 35.8008743 31.6370893 35.8281128 31.5873609 35.877142 31.5430941 35.9290383 31.5034263 35.9783541 31.4985398 35.9835151 31.4959528 35.9881027 31.4910663 35.995844 31.0932394 36.4763873 29.4838232 40.14268 28.7496833 41.3606681 28.6657487 39.6050794 28.8485649 32.1443299 28.7496833 31.7449285 28.5668669 31.0149387 30.4875884 33.8308189 34.3336306 35.3693602M28.833934 18.9050478C28.8592292 18.8342279 28.9112573 18.8107168 28.9578237 18.777744 29.0041026 18.7447711 29.0529687 18.7155256 29.1012596 18.6859935 29.1987043 18.6280759 29.2975862 18.5701584 29.3904315 18.50708 29.4818398 18.4451484 29.5680738 18.3792027 29.6232636 18.3026484 29.6790284 18.2272409 29.7008743 18.1438053 29.7017368 18.0460337 29.703174 17.9488355 29.6859272 17.842749 29.6727047 17.7257671 29.6577574 17.6084985 29.6566075 17.4734532 29.6747168 17.3467228 29.691676 17.2205659 29.7299066 17.0875277 29.777048 16.9751333 29.7991812 16.9229502 29.8141285 16.8816625 29.8175778 16.8555709 29.8204524 16.8280458 29.8164282 16.8251786 29.809817 16.8105558 29.776473 16.7423164 29.6485591 16.6881263 29.4444717 16.6987349 29.2444085 16.7073365 29.0440577 16.7417429 28.8531928 16.8048214 28.4726129 16.9306917 28.1219274 17.1655156 27.9097915 17.4981112 27.708866 17.823252 27.5478955 18.2731162 27.5185761 18.7129452 27.4996045 19.1559281 27.5746281 19.6075126 27.7594567 20.0077742 27.8500025 20.2081917 27.9652689 20.3957068 28.1023811 20.5634381 28.1348625 20.6070196 28.1739554 20.6448667 28.2093115 20.685581 28.2449548 20.7331766 28.2895091 20.7561142 28.2619142 20.740918 28.2337444 20.7477993 28.3033066 20.7179804 28.3653953 20.6913154 28.4269087 20.6672309 28.4910095 20.6503144 28.5559726 20.6399925 28.8135252 20.5981313 29.0937861 20.6646504 29.2967237 20.8395498 29.4956373 21.011582 29.6005555 21.2885538 29.5355922 21.5285387L29.4847142 21.5299723C29.3338045 21.1122208 28.9926048 20.8470045 28.5944905 20.9000478 28.5467743 20.9060689 28.4999205 20.9163908 28.4553662 20.9321605 28.4312206 20.9410488 28.4148361 20.9470699 28.3849415 20.9605458 28.3553344 20.9731615 28.3073308 20.9952389 28.2386309 20.9889311 28.1687814 20.9809029 28.1210651 20.9424824 28.0928953 20.915244 28.0630009 20.8854251 28.0489159 20.8642078 28.0299443 20.84041 27.994301 20.7928144 27.9549207 20.7483727 27.9227267 20.6981967 27.7864767 20.504087 27.6775342 20.2936343 27.5961867 20.0742933 27.4380908 19.6338909 27.3699658 19.1722711 27.3650793 18.7103647 27.3616298 18.4798416 27.3547312 18.245591 27.3708281 18.0099069 27.385488 17.7759431 27.4231435 17.523916 27.5458834 17.2925327 27.7864767 16.8332067 28.2179348 16.5003244 28.6950969 16.3380407 28.9351153 16.2586192 29.1874939 16.2133174 29.4418846 16.2179049 29.5683612 16.2201987 29.7135221 16.2302339 29.8641443 16.291592 30.0173537 16.3555307 30.1584902 16.4773868 30.2231659 16.6628949 30.2559348 16.7549321 30.254785 16.8704804 30.230352 16.9524824 30.2073563 17.0367782 30.1734375 17.0987098 30.1472797 17.1491725 30.0938145 17.2397762 30.0567339 17.3223516 30.0285641 17.4184029 30.0006818 17.5135941 29.9877467 17.6067782 29.9819977 17.7160186 29.9756737 17.8246856 29.9765362 17.9456816 29.9529656 18.074419 29.9311194 18.2011494 29.872193 18.3410689 29.7744609 18.4345397 29.679316 18.5294442 29.5697986 18.5865015 29.4657427 18.6375377 29.3608245 18.6862802 29.2616552 18.7384633 29.1607613 18.7915065 29.1101706 18.8173114 29.0598673 18.8436896 29.0072645 18.8660538 28.9546617 18.888418 28.9075204 18.9205307 28.833934 18.9050478"/>
        <path fill="#BF8258" d="M73.4161749 82.3514381C73.6237116 82.3118707 73.7375406 82.2897932 73.7375406 82.2897932 73.7375406 82.2897932 73.4926357 82.6940688 73.4161749 82.3514381M73.4161749 82.3514381C71.312637 82.7511262 59.4821765 84.9947127 56.3208331 85.38924 52.8478973 85.8230479 41.5586998 88.6389281 38.7359693 87.7707389 36.2369041 87.0043355 23.3684722 75.2158294 17.1320198 68.4604119 19.4752886 65.5089131 23.9666497 60.9231082 31.1646126 60.3926755 31.4267642 61.0139986 31.7035758 61.6229925 32.0051079 62.2173637 35.8761579 69.8831183 40.473587 74.3456333 40.473587 74.3456333 40.473587 74.3456333 42.8961912 74.0179119 46.0526478 74.1532439 53.1790364 74.4614684 65.6099738 75.3861413 73.4903363 75.3861413 74.929009 77.6842048 73.4903363 79.8366142 73.3963409 81.8952661 73.3865677 82.114894 73.3937539 82.2602611 73.4161749 82.3514381"/>
        <path fill="#665142" d="M45.8870784,11.1818058 C43.3880132,10.6961016 39.6259056,12.0201761 39.6259056,12.0201761 L39.6259056,15.2254225 C39.6259056,15.2254225 33.6935722,13.4993662 33.1991631,17.1977716 C33.1991631,17.1977716 32.9519585,19.4169869 32.4575497,22.6222334 C31.9631406,25.8274798 37.4013523,26.8137977 37.1541477,30.2656237 C36.9586839,33.0098239 39.1041889,33.5720824 39.8682234,34.5555331 C40.076335,34.8239033 39.6716095,35.7402615 39.5405336,35.9782395 C39.2763699,36.4573492 38.8339886,36.863345 38.2774911,36.946494 C37.9190447,37.0003974 37.5528369,36.9450604 37.1998519,36.8639186 C35.2015197,36.4057394 33.2606768,35.2029477 31.5380063,34.1197182 C30.2519679,33.3108804 28.5163625,32.113823 28.4065575,30.4390896 C28.3740761,29.9453572 28.5106135,29.4622335 28.7497693,29.0327264 C29.9857921,26.8137977 31.715936,16.7048994 31.715936,16.7048994 C31.715936,16.7048994 32.4575497,14.9788431 31.221527,14.4856841 C26.0305198,11.7733099 25.2891938,16.9511921 23.5587622,20.4030181 C22.2684121,22.9774799 19.73974,21.8480885 18.5384985,21.1083501 C18.4718108,19.9221881 18.2812333,18.6574648 17.8957668,17.390161 C16.3757465,12.4095422 17.3792244,0.678380282 31.4687315,0.185221328 C40.7133178,-0.137625754 44.3322768,4.32259556 45.5582387,7.82861168 C45.7758363,8.45222838 46.2998524,10.2941197 45.8870784,11.1818058"/>
        <path fill="#665142" d="M42.7404522 27.2697977C42.7082582 27.292162 42.6760641 27.3216941 42.6441576 27.3538068 42.6093765 27.3882132 42.5823563 27.4200393 42.5573485 27.4498581 42.3771193 27.6864025 42.4561671 27.8567144 42.4831871 28.0539779 42.4857742 28.0614327 42.4857742 28.071181 42.4857742 28.0786358 41.0890687 27.7210955 39.6480963 27.5461961 38.2045371 27.5631126 38.0734612 27.5631126 37.9202518 27.5585251 37.8386169 27.4550191 37.7520953 27.3437716 37.7992367 27.1685856 37.9055921 27.0751146 38.0093604 26.9813572 38.1550961 26.9469508 38.2936455 26.9197123 39.7716987 26.6263974 41.3265 26.7519808 42.7404522 27.2697977M40.038622 32.5486342C39.7198432 33.0245901 39.6359086 33.2688756 39.7000094 33.7049773 39.7198432 33.8629602 39.7643975 34.0478948 39.8236115 34.2821454 39.8460324 34.3684482 39.8606923 34.4596252 39.8681659 34.5556766 39.8828256 34.7454854 39.8681659 34.9502037 39.816138 35.149761 39.8014781 35.1523416 39.789118 35.1523416 39.7741707 35.154922 39.6284351 35.1721253 39.4726386 35.1867481 39.3392633 35.1251031L39.1883535 35.0413809C39.3415627 34.7701433 39.2576282 34.4375477 39.2007138 34.1316173 39.1512728 33.8655409 39.1288519 33.5940166 39.131439 33.3204854 39.134026 32.9778545 39.19324 32.6028244 39.4505051 32.373735 39.6853494 32.1641423 40.0213753 32.1346103 40.3427412 32.1541072 40.2363855 32.2822712 40.1277307 32.415596 40.038622 32.5486342"/>
        <path fill="#4077A8" d="M31.1646701,60.3927042 C23.9667072,60.9231369 19.4753461,65.5089417 17.1320773,68.4604405 C16.3188895,67.582503 15.6192432,66.7885745 15.0705067,66.115355 C12.4403657,62.8929054 8.55465574,56.972991 8.06772035,51.5115421 C7.67219316,47.0613561 9.53111356,42.9165271 16.1579191,40.7790271 C27.1059169,40.7790271 27.4568898,51.6225031 31.1646701,60.3927042"/>
        <path fill="#356B93" d="M29.6395906,42.6849144 L28.7398813,44.4278874 L14.6181799,33.4439186 C14.8998781,33.1775554 15.171803,32.9014436 15.4313678,32.6178772 L15.1545562,33.2242908 L28.6260521,43.7030584 L29.3676658,42.268023 C29.4593612,42.4062222 29.5481825,42.5444214 29.6395906,42.6849144"/>
        <polygon fill="#4077A8" points="30.628 39.825 28.626 43.703 15.155 33.224 15.773 31.868 16.929 28.867"/>
        <polygon fill="#4077A8" points="30.727 39.635 30.628 39.825 28.626 43.703 15.154 33.224 15.772 31.868 16.929 28.867 17.009 28.663"/>
        <path fill="#A56D47" d="M41.2138207,25.3896006 C41.0853318,25.6347466 40.9982353,25.9475584 41.1290239,26.1935643 C41.2692981,26.4367032 41.5705426,26.485159 41.8321196,26.4986347 C42.1014573,26.5078099 42.3932162,26.5187053 42.6844001,26.5688812 C42.8304234,26.5943993 42.9888066,26.6362606 43.1276437,26.7251437 C43.266768,26.814314 43.3639251,26.9427646 43.426876,27.0772364 C43.4314752,27.0866982 43.4271634,27.0981669 43.4176777,27.1027545 C43.4116414,27.1053351 43.4044552,27.1044749 43.3989936,27.1010341 C43.2759663,27.0187455 43.1572507,26.948499 43.0368102,26.9126589 C42.9157951,26.8768189 42.7875936,26.8664969 42.6493315,26.8587556 C42.3699331,26.8412657 42.0859354,26.8383985 41.7872777,26.7595502 C41.4998306,26.6786952 41.1859385,26.5144045 41.0654981,26.2230966 C40.9499444,25.9269145 41.0792955,25.6344598 41.1888129,25.3772717 C41.1916872,25.3703903 41.2000233,25.3669497 41.2072095,25.3698169 C41.2141083,25.3726841 41.2175576,25.3809991 41.2143957,25.388167 L41.2138207,25.3896006 Z"/>
      </g>
    </g>
  </g>
</svg>
