<svg xmlns="http://www.w3.org/2000/svg" width="357" height="66" viewBox="0 0 357 66">
  <defs>
    <linearGradient id="logo-a" x1="100%" x2="0%" y1="50%" y2="50%">
      <stop offset="0%" stop-color="#D728EA"/>
      <stop offset="100%" stop-color="#422FAE"/>
    </linearGradient>
  </defs>
  <path fill="url(#logo-a)" fill-rule="evenodd" d="M27.07168,19.13808 C32.91944,19.13808 37.71984,21.32008 41.64744,25.77136 C45.57504,30.13536 47.58248,35.634 47.58248,42.18 C47.58248,48.726 45.57504,54.22464 41.64744,58.67592 C37.71984,63.03992 32.91944,65.22192 27.07168,65.22192 C21.7476,65.22192 17.64544,63.47632 14.67792,59.98512 L14.67792,64 L0.18944,64 L0.18944,2.904 L14.67792,2.904 L14.67792,24.37488 C17.64544,20.88368 21.7476,19.13808 27.07168,19.13808 Z M17.20904,49.07512 C18.86736,50.82072 21.13664,51.69352 23.84232,51.69352 C26.548,51.69352 28.81728,50.82072 30.4756,49.07512 C32.13392,47.32952 33.00672,45.06024 33.00672,42.18 C33.00672,39.29976 32.13392,37.03048 30.4756,35.28488 C28.81728,33.53928 26.548,32.66648 23.84232,32.66648 C21.13664,32.66648 18.86736,33.53928 17.20904,35.28488 C15.55072,37.03048 14.67792,39.29976 14.67792,42.18 C14.67792,45.06024 15.55072,47.32952 17.20904,49.07512 Z M98.56515,47.50408 L68.45355,47.50408 C69.93731,51.08256 73.16667,52.82816 78.22891,52.82816 C81.37099,52.82816 83.98939,51.7808 86.17139,49.77336 L96.64499,57.10488 C92.36827,62.51624 86.08411,65.22192 77.87979,65.22192 C70.46099,65.22192 64.52595,63.03992 60.07467,58.7632 C55.62339,54.3992 53.44139,48.90056 53.44139,42.26728 C53.44139,35.72128 55.62339,30.22264 59.98739,25.77136 C64.35139,21.32008 69.93731,19.13808 76.65787,19.13808 C83.20387,19.13808 88.52795,21.32008 92.80467,25.68408 C97.08139,30.04808 99.17611,35.54672 99.17611,42.09272 C99.17611,44.01288 99.00155,45.84576 98.56515,47.50408 Z M68.27899,37.46688 L85.03675,37.46688 C83.90211,33.36472 81.10915,31.35728 76.83243,31.35728 C72.38115,31.35728 69.50091,33.36472 68.27899,37.46688 Z M148.58774,44.10016 L154.34822,20.36 L169.7095,20.36 L156.35566,64 L142.2163,64 L135.93214,41.83088 L129.64798,64 L115.50862,64 L102.15478,20.36 L117.51606,20.36 L123.27654,44.10016 L129.82254,20.36 L142.04174,20.36 L148.58774,44.10016 Z M217.63737,47.50408 L187.52577,47.50408 C189.00953,51.08256 192.23889,52.82816 197.30113,52.82816 C200.44321,52.82816 203.06161,51.7808 205.24361,49.77336 L215.71721,57.10488 C211.44049,62.51624 205.15633,65.22192 196.95201,65.22192 C189.53321,65.22192 183.59817,63.03992 179.14689,58.7632 C174.69561,54.3992 172.51361,48.90056 172.51361,42.26728 C172.51361,35.72128 174.69561,30.22264 179.05961,25.77136 C183.42361,21.32008 189.00953,19.13808 195.73009,19.13808 C202.27609,19.13808 207.60017,21.32008 211.87689,25.68408 C216.15361,30.04808 218.24833,35.54672 218.24833,42.09272 C218.24833,44.01288 218.07377,45.84576 217.63737,47.50408 Z M187.35121,37.46688 L204.10897,37.46688 C202.97433,33.36472 200.18137,31.35728 195.90465,31.35728 C191.45337,31.35728 188.57313,33.36472 187.35121,37.46688 Z M240.60316,20.36 L240.60316,28.47704 C242.26148,22.80384 247.67284,19.4872 253.69516,19.4872 L253.69516,35.54672 C250.37852,35.02304 247.32372,35.634 244.61804,37.3796 C241.91236,39.1252 240.60316,42.00544 240.60316,45.93304 L240.60316,64 L226.11468,64 L226.11468,20.36 L240.60316,20.36 Z M287.74551,19.13808 C293.59327,19.13808 298.39367,21.32008 302.32127,25.77136 C306.24887,30.13536 308.25631,35.634 308.25631,42.18 C308.25631,48.726 306.24887,54.22464 302.32127,58.67592 C298.39367,63.03992 293.59327,65.22192 287.74551,65.22192 C282.42143,65.22192 278.31927,63.47632 275.35175,59.98512 L275.35175,64 L260.86327,64 L260.86327,2.904 L275.35175,2.904 L275.35175,24.37488 C278.31927,20.88368 282.42143,19.13808 287.74551,19.13808 Z M277.88287,49.07512 C279.54119,50.82072 281.81047,51.69352 284.51615,51.69352 C287.22183,51.69352 289.49111,50.82072 291.14943,49.07512 C292.80775,47.32952 293.68055,45.06024 293.68055,42.18 C293.68055,39.29976 292.80775,37.03048 291.14943,35.28488 C289.49111,33.53928 287.22183,32.66648 284.51615,32.66648 C281.81047,32.66648 279.54119,33.53928 277.88287,35.28488 C276.22455,37.03048 275.35175,39.29976 275.35175,42.18 C275.35175,45.06024 276.22455,47.32952 277.88287,49.07512 Z M330.69842,64 L316.20994,64 L316.20994,0.2856 L330.69842,0.2856 L330.69842,64 Z M353.83877,14.33768 C350.60941,17.56704 345.45989,17.56704 342.05597,14.33768 C338.82661,10.93376 338.82661,5.78424 342.05597,2.55488 C345.45989,-0.67448 350.60941,-0.67448 353.83877,2.55488 C357.24269,5.78424 357.24269,10.93376 353.83877,14.33768 Z M355.23525,64 L340.74677,64 L340.74677,20.36 L355.23525,20.36 L355.23525,64 Z"/>
</svg>
