<?xml version="1.0" encoding="UTF-8"?>
<svg width="198px" height="36px" viewBox="0 0 198 36" version="1.1" xmlns="http://www.w3.org/2000/svg" xmlns:xlink="http://www.w3.org/1999/xlink">
    <!-- Generator: Sketch 52.6 (67491) - http://www.bohemiancoding.com/sketch -->
    <title>Group 9</title>
    <desc>Created with Sketch.</desc>
    <defs>
        <linearGradient x1="-0.186389567%" y1="49.9137413%" x2="99.9820122%" y2="49.9137413%" id="linearGradient-1">
            <stop stop-color="#FFFFFF" offset="0%"></stop>
            <stop stop-color="#E0C4E7" offset="100%"></stop>
        </linearGradient>
        <linearGradient x1="73.0530434%" y1="58.2511936%" x2="33.6536601%" y2="44.1010011%" id="linearGradient-2">
            <stop stop-color="#FFFFFF" offset="0%"></stop>
            <stop stop-color="#E1C1E9" offset="100%"></stop>
        </linearGradient>
    </defs>
    <g id="Page-1" stroke="none" stroke-width="1" fill="none" fill-rule="evenodd">
        <g id="Group-9">
            <g id="bewerbl-copy-9" transform="translate(56.000000, 7.000000)" fill="#FFFFFF" font-family="UniSansRegular, Uni Sans" font-size="36.28" font-weight="normal" letter-spacing="4.7">
                <text id="bewerbl">
                    <tspan x="0" y="27">b</tspan>
                    <tspan x="23.23908" y="27" letter-spacing="4">ewerbl</tspan>
                </text>
            </g>
            <g id="Group">
                <path d="M24.6607208,0 C24.6607208,0 24.6607208,7.245 28.9123307,10.53 C33.1417968,13.815 35.6219026,16.38 32.787496,20.1375 C29.9530894,23.895 27.6279902,27 27.6279902,27 C27.6279902,27 18.5933192,17.9775 18.0397241,13.815 C17.5082729,9.675 22.4463406,2.97 24.6607208,0 Z" id="Path" fill="#FFFFFF"></path>
                <path d="M33,20.345172 C33,20.345172 26.0445479,29.6522769 24.0917553,32.2475273 C22.1389628,34.8651506 15.46875,38.2434507 9.96143617,33.9478638 C4.45412234,29.6522769 0,26.1844854 0,26.1844854 C0,26.1844854 7.08710106,17.839413 13.2526596,19.1370382 C19.4182181,20.4794091 27.6462766,27.5044835 33,20.345172 Z" id="Path" fill="#FFFFFF"></path>
                <path d="M24,23.8322368 C26.0272277,26.2039474 27.7871287,28 27.7871287,28 C27.7871287,28 27.8094059,27.9769737 27.8094059,27.9769737 C27.8316832,27.9539474 27.8762376,27.8848684 27.9207921,27.8157895 C27.9876238,27.7236842 28.0767327,27.6085526 28.1435644,27.5164474 C28.2326733,27.3782895 28.3663366,27.2171053 28.5,27.0328947 C28.5222772,26.9868421 28.5445545,26.9638158 28.5891089,26.9177632 C28.6559406,26.8026316 28.7450495,26.7105263 28.8341584,26.5953947 C29.0123762,26.3421053 29.2128713,26.0888158 29.3910891,25.8585526 C29.5247525,25.6743421 29.6584158,25.4901316 29.8143564,25.2828947 C29.970297,25.0756579 30.1262376,24.8684211 30.2821782,24.6611842 C30.3267327,24.6151316 30.3490099,24.5690789 30.3935644,24.5230263 C30.6608911,24.1546053 30.9282178,23.7861842 31.1732673,23.4638158 C31.2623762,23.3486842 31.3292079,23.2565789 31.4183168,23.1414474 C31.7747525,22.6578947 32.0866337,22.2203947 32.3539604,21.875 C32.5321782,21.6447368 32.6881188,21.4144737 32.8663366,21.1842105 C32.8886139,21.1611842 32.8886139,21.1381579 32.9108911,21.1381579 C32.9108911,21.1151316 32.9331683,21.1151316 32.9331683,21.0921053 C32.9777228,21.0230263 33,21 33,21 C30.4381188,24.4078947 27.2747525,24.6611842 24,23.8322368 Z" id="Path" fill="#FFFFFF"></path>
                <path d="M28.2877734,21.1166282 C32.0529622,16.7944573 29.1394233,13.5692841 24.0967597,9.35681293 C22.953756,8.41339492 22.1021062,7.25057737 21.4745747,6 C19.502333,8.98383372 17.6869741,12.4942263 18.0455635,15.017321 C18.4041529,17.5842956 22.2141654,22.0600462 24.9484096,25 C25.9121186,23.8371824 27.0551223,22.5207852 28.2877734,21.1166282 Z" id="Path" fill="url(#linearGradient-1)"></path>
                <path d="M24.7629567,22.6304348 C19.9031436,24.4565217 14.3806287,21.3478261 9.27782498,19 C4.39592184,20.5434783 0,25.5217391 0,25.5217391 C0,25.5217391 4.48428207,28.8913043 10.028887,33.0652174 C11.6193713,34.2608696 13.3203059,34.8478261 14.9770603,35 C15.7502124,34.4782609 16.3908241,33.9347826 16.8547154,33.4130435 C18.55565,31.4565217 23.0841121,26.2173913 26,22.8478261 C25.6023789,22.7826087 25.1826678,22.7173913 24.7629567,22.6304348 Z" id="Path" fill="#FFFFFF"></path>
                <path d="M46,11.0112103 C46,11.0112103 40.1220159,12.4460245 38,17 C38.0212202,17 39.1034483,10.6992942 46,11.0112103 Z" id="Path" fill="#FFFFFF"></path>
                <path d="M42,9 C42,9 38.1676819,12.3898305 38.1676819,17 C38.1475118,17 36.8162855,11.3050847 42,9 Z" id="Path" fill="#FFFFFF"></path>
                <path d="M36,19 C36,19 33.5434783,23.4817927 24,35 C24,35 34.5869565,30.5406162 36,19 Z" id="Path" fill="url(#linearGradient-2)"></path>
                <circle id="Oval" fill="#FFFFFF" cx="37" cy="17" r="2"></circle>
                <g transform="translate(37.000000, 15.000000)" id="Path">
                    <path d="M1.43333333,0.45 C1.63333333,0.55 1.83333333,0.65 2,0.775 C1.36666667,1.4 0.766666667,2.075 0.3,2.85 C0.333333333,2.825 0.566666667,1.75 1.43333333,0.45 Z" fill="#E9E7E9"></path>
                    <path d="M0.0666666667,0.175 C0.3,0.175 0.566666667,0.2 0.8,0.25 C0.466666667,1.05 0.266666667,1.9 0.266666667,2.775 C0.266666667,2.775 -0.1,1.65 0.0666666667,0.175 Z" fill="#FFFFFF"></path>
                </g>
            </g>
        </g>
    </g>
</svg>