<?xml version="1.0" encoding="UTF-8"?>
<svg width="206px" height="31px" viewBox="0 0 206 31" version="1.1" xmlns="http://www.w3.org/2000/svg" xmlns:xlink="http://www.w3.org/1999/xlink">
    <!-- Generator: Sketch 52.6 (67491) - http://www.bohemiancoding.com/sketch -->
    <title>Group 8</title>
    <desc>Created with Sketch.</desc>
    <g id="Page-1" stroke="none" stroke-width="1" fill="none" fill-rule="evenodd">
        <g id="Group-8" transform="translate(-2.000000, -1.000000)">
            <g id="bewerbl-copy-5" transform="translate(51.000000, 2.000000)" fill="#665772" font-family="UniSansRegular, Uni Sans" font-size="36.28" font-weight="normal" letter-spacing="6.57490683">
                <text>
                    <tspan x="0" y="27">bewerbl</tspan>
                </text>
            </g>
            <g id="firebase-seeklogo.com" transform="translate(22.557415, 17.107448) scale(-1, 1) rotate(-93.000000) translate(-22.557415, -17.107448) translate(6.557415, -3.892552)">
                <path d="M1.39024528,33.2760246 L1.63815488,32.929461 L13.3654766,10.7138943 L13.3902453,10.4787182 L8.22058997,0.784219336 C7.78747337,-0.0278697276 6.5681568,0.177454546 6.42601602,1.08652499 L1.39024528,33.2760246 Z" id="Path" fill="#FFC24A"></path>
                <g id="Group" transform="translate(1.390245, 0.276025)" fill="#6572D7">
                    <g id="path-1-link">
                        <path d="M0.0297334553,32.968372 L0.218628862,32.5993868 L11.9071973,10.3812525 L6.71309725,0.543109675 C6.28141189,-0.269073253 5.18519112,-0.0620312317 5.04352004,0.84714428 L0.0297334553,32.968372 Z" id="path-1"></path>
                    </g>
                </g>
                <path d="M16.7788773,17.6109882 L20.8015364,13.607101 L16.7777113,6.14173968 C16.3957336,5.43509133 15.3292214,5.4330516 14.9512858,6.14173965 L12.8015364,10.1263533 L12.8015364,10.4657114 L16.7788773,17.6109882 Z" id="Path" fill="#7762F4"></path>
                <polygon id="Path" fill="#4B5582" points="0.977278857 32.7490844 1.09167547 32.6404591 1.50731586 32.4808902 16.7837396 18.105678 16.9772789 17.6080526 13.1664368 10.7490844"></polygon>
                <path d="M16.8704331,40.77391 L30.5286461,33.1059039 L26.6283193,8.92515228 C26.5063148,8.16860018 25.5842875,7.86950343 25.0463757,8.41197396 L0.528646094,33.1406931 L14.10854,40.7732323 C14.96676,41.2556124 16.0119887,41.2558383 16.8704331,40.77391" id="Path" fill="#FDE068"></path>
                <path d="M30.0199199,32.6084294 L26.243761,8.43505404 C26.1256406,7.67873273 25.3776336,7.36576305 24.8568465,7.90806809 L1.01991989,32.6609528 L14.1225521,40.2734189 C14.9534504,40.7556518 15.965404,40.7558776 16.7965196,40.2740964 L30.0199199,32.6084294 Z" id="Path" fill="#6E5B8A"></path>
                <path d="M17.5797857,40.054308 C16.7213413,40.522402 15.6761126,40.5221825 14.8178926,40.0536498 L1.34737695,32.746694 L1.23799882,32.8596309 L14.8178926,40.2730687 C15.6761126,40.7416016 16.7213413,40.741821 17.5797857,40.2737271 L31.2379988,32.8258403 L31.2045616,32.624633 L17.5797857,40.054308 Z" id="Path" fill="#EEAB37"></path>
            </g>
        </g>
    </g>
</svg>