<svg xmlns="http://www.w3.org/2000/svg" width="397" height="74" viewBox="0 0 397 74">
  <defs>
    <linearGradient id="logo2-a" x1="100%" x2="0%" y1="50%" y2="50%">
      <stop offset="0%" stop-color="#D928EB"/>
      <stop offset="100%" stop-color="#402FAD"/>
    </linearGradient>
  </defs>
  <g fill="none" fill-rule="evenodd">
    <path fill="url(#logo2-a)" d="M26.89712,19.13808 C32.6576,19.13808 37.54528,21.40736 41.64744,25.85864 C45.7496,30.30992 47.75704,35.72128 47.75704,42.18 C47.75704,48.63872 45.7496,54.13736 41.64744,58.58864 C37.54528,63.03992 32.6576,65.22192 26.89712,65.22192 C21.3112,65.22192 16.9472,63.47632 13.8924,59.89784 L13.8924,64 L0.8004,64 L0.8004,2.904 L13.8924,2.904 L13.8924,24.46216 C16.9472,20.88368 21.3112,19.13808 26.89712,19.13808 Z M16.77264,49.94792 C18.78008,51.86808 21.22392,52.82816 24.27872,52.82816 C27.33352,52.82816 29.77736,51.86808 31.69752,49.94792 C33.70496,48.02776 34.66504,45.40936 34.66504,42.18 C34.66504,38.95064 33.70496,36.33224 31.69752,34.41208 C29.77736,32.49192 27.33352,31.53184 24.27872,31.53184 C21.22392,31.53184 18.78008,32.49192 16.77264,34.41208 C14.85248,36.33224 13.8924,38.95064 13.8924,42.18 C13.8924,45.40936 14.85248,48.02776 16.77264,49.94792 Z M99.52523,47.4168 L68.54083,47.4168 C70.02459,51.51896 73.51579,53.5264 79.01443,53.5264 C82.59291,53.5264 85.38587,52.39176 87.39331,50.20976 L97.86691,56.23208 C93.59019,62.2544 87.21875,65.22192 78.83987,65.22192 C71.50835,65.22192 65.66059,63.03992 61.20931,58.67592 C56.84531,54.31192 54.66331,48.81328 54.66331,42.18 C54.66331,35.634 56.84531,30.13536 61.12203,25.77136 C65.48603,21.32008 71.07195,19.13808 77.87979,19.13808 C84.25123,19.13808 89.48803,21.32008 93.67747,25.77136 C97.95419,30.13536 100.04891,35.634 100.04891,42.18 C100.04891,44.01288 99.87435,45.75848 99.52523,47.4168 Z M68.27899,37.64144 L87.04419,37.64144 C85.73499,33.0156 82.68019,30.74632 77.79251,30.74632 C72.73027,30.74632 69.58819,33.0156 68.27899,37.64144 Z M149.11142,43.75104 L155.39558,20.36 L169.36038,20.36 L155.39558,64 L143.17638,64 L136.19398,40.69624 L129.21158,64 L116.99238,64 L103.02758,20.36 L116.99238,20.36 L123.27654,43.75104 L130.08438,20.36 L142.30358,20.36 L149.11142,43.75104 Z M217.20097,47.4168 L186.21657,47.4168 C187.70033,51.51896 191.19153,53.5264 196.69017,53.5264 C200.26865,53.5264 203.06161,52.39176 205.06905,50.20976 L215.54265,56.23208 C211.26593,62.2544 204.89449,65.22192 196.51561,65.22192 C189.18409,65.22192 183.33633,63.03992 178.88505,58.67592 C174.52105,54.31192 172.33905,48.81328 172.33905,42.18 C172.33905,35.634 174.52105,30.13536 178.79777,25.77136 C183.16177,21.32008 188.74769,19.13808 195.55553,19.13808 C201.92697,19.13808 207.16377,21.32008 211.35321,25.77136 C215.62993,30.13536 217.72465,35.634 217.72465,42.18 C217.72465,44.01288 217.55009,45.75848 217.20097,47.4168 Z M185.95473,37.64144 L204.71993,37.64144 C203.41073,33.0156 200.35593,30.74632 195.46825,30.74632 C190.40601,30.74632 187.26393,33.0156 185.95473,37.64144 Z M239.90492,20.36 L239.90492,28.12792 C241.56324,22.542 247.06188,19.4872 252.99692,19.4872 L252.99692,34.3248 C249.76756,33.80112 246.80004,34.3248 244.00708,35.98312 C241.3014,37.55416 239.90492,40.34712 239.90492,44.27472 L239.90492,64 L226.81292,64 L226.81292,20.36 L239.90492,20.36 Z M286.87271,19.13808 C292.63319,19.13808 297.52087,21.40736 301.62303,25.85864 C305.72519,30.30992 307.73263,35.72128 307.73263,42.18 C307.73263,48.63872 305.72519,54.13736 301.62303,58.58864 C297.52087,63.03992 292.63319,65.22192 286.87271,65.22192 C281.28679,65.22192 276.92279,63.47632 273.86799,59.89784 L273.86799,64 L260.77599,64 L260.77599,2.904 L273.86799,2.904 L273.86799,24.46216 C276.92279,20.88368 281.28679,19.13808 286.87271,19.13808 Z M276.74823,49.94792 C278.75567,51.86808 281.19951,52.82816 284.25431,52.82816 C287.30911,52.82816 289.75295,51.86808 291.67311,49.94792 C293.68055,48.02776 294.64063,45.40936 294.64063,42.18 C294.64063,38.95064 293.68055,36.33224 291.67311,34.41208 C289.75295,32.49192 287.30911,31.53184 284.25431,31.53184 C281.19951,31.53184 278.75567,32.49192 276.74823,34.41208 C274.82807,36.33224 273.86799,38.95064 273.86799,42.18 C273.86799,45.40936 274.82807,48.02776 276.74823,49.94792 Z M329.9129,64 L316.8209,64 L316.8209,0.2856 L329.9129,0.2856 L329.9129,64 Z M353.22781,14.2504 C350.17301,17.3052 345.28533,17.3052 342.14325,14.2504 C339.08845,11.10832 339.08845,6.22064 342.14325,3.16584 C345.28533,0.02376 350.17301,0.02376 353.22781,3.16584 C356.36989,6.22064 356.36989,11.10832 353.22781,14.2504 Z M354.27517,64 L341.18317,64 L341.18317,20.36 L354.27517,20.36 L354.27517,64 Z"/>
    <text fill="#D728EA" font-family="Gilroy-Medium, Gilroy" font-size="24" font-weight="400" letter-spacing="1.064">
      <tspan x="365" y="74">TM</tspan>
    </text>
  </g>
</svg>
