<svg xmlns="http://www.w3.org/2000/svg" width="129" height="192" viewBox="0 0 129 192">
  <defs>
    <radialGradient id="presenter-a" cx="52.32%" cy="96.912%" r="66.36%" fx="52.32%" fy="96.912%" gradientTransform="matrix(1 0 0 .85423 0 .141)">
      <stop offset="0%" stop-color="#A6A6DC"/>
      <stop offset="100%" stop-color="#FFF" stop-opacity=".239"/>
    </radialGradient>
    <linearGradient id="presenter-b" x1="12113.5%" x2="12205.5%" y1="505.8%" y2="527.2%">
      <stop offset="33.8%" stop-color="#7878A6"/>
      <stop offset="96.7%" stop-color="#7C7CA9"/>
    </linearGradient>
    <radialGradient id="presenter-c" cx="49.992%" cy="50.008%" r="144.214%" fx="49.992%" fy="50.008%" gradientTransform="matrix(0 .25134 -1 0 1 .374)">
      <stop offset="0%" stop-color="#6D6E70"/>
      <stop offset="26.4%" stop-color="#6F7173" stop-opacity=".976"/>
      <stop offset="44.4%" stop-color="#777B7D" stop-opacity=".894"/>
      <stop offset="59.9%" stop-color="#858D8F" stop-opacity=".757"/>
      <stop offset="74.1%" stop-color="#98A7A8" stop-opacity=".565"/>
      <stop offset="87.1%" stop-color="#B1C7C8" stop-opacity=".318"/>
      <stop offset="99.4%" stop-color="#CFEEEF" stop-opacity=".016"/>
      <stop offset="100%" stop-color="#D1F1F2" stop-opacity="0"/>
    </radialGradient>
    <linearGradient id="presenter-d" x1="0%" y1="50%" y2="50%">
      <stop offset="0%" stop-color="#2699FB"/>
      <stop offset="100%" stop-color="#238CE6"/>
    </linearGradient>
    <linearGradient id="presenter-e" x1="46.3%" x2="62.5%" y1="49.4%" y2="50.5%">
      <stop offset="0%" stop-color="#2A63A7"/>
      <stop offset="59.3%" stop-color="#267ACA"/>
      <stop offset="100%" stop-color="#238CE6"/>
    </linearGradient>
    <linearGradient id="presenter-f" x1="19.2%" x2="51.8%" y1="78.1%" y2="11.3%">
      <stop offset="0%" stop-color="#2699FB"/>
      <stop offset="100%" stop-color="#238CE6"/>
    </linearGradient>
    <linearGradient id="presenter-g" x1="3622.9%" x2="3704.9%" y1="497.3%" y2="641%">
      <stop offset="2.9%" stop-color="#323293"/>
      <stop offset="100%" stop-color="#32325C"/>
    </linearGradient>
    <linearGradient id="presenter-h" x1="18.2%" x2="89.8%" y1="49.8%" y2="50.2%">
      <stop offset="0%" stop-color="#7878A6"/>
      <stop offset="100%" stop-color="#7C7CA9"/>
    </linearGradient>
    <linearGradient id="presenter-i" x1="37.4%" x2="53.5%" y1="59%" y2="41.7%">
      <stop offset="0%" stop-color="#545489"/>
      <stop offset="100%" stop-color="#7878A6" stop-opacity="0"/>
    </linearGradient>
    <linearGradient id="presenter-j" x1="48.9%" x2="45.8%" y1="71.5%" y2="93.8%">
      <stop offset="0%" stop-color="#96767A"/>
      <stop offset="100%" stop-color="#C2959B"/>
    </linearGradient>
    <linearGradient id="presenter-k" x1="15960.3%" x2="16072.7%" y1="342%" y2="351.2%">
      <stop offset="33.8%" stop-color="#7878A6"/>
      <stop offset="96.7%" stop-color="#7C7CA9"/>
    </linearGradient>
    <linearGradient id="presenter-l" x1="0%" y1="50%" y2="50%">
      <stop offset="0%" stop-color="#FFF"/>
      <stop offset="100%" stop-color="#FFF"/>
    </linearGradient>
    <radialGradient id="presenter-m" r="49.602%" fx="50%" fy="50%" gradientTransform="scale(1 .99995) rotate(-70.301 .5 .5)">
      <stop offset="0%" stop-color="#FFF" stop-opacity=".239"/>
      <stop offset="67.8%" stop-color="#FFF" stop-opacity="0"/>
      <stop offset="100%" stop-color="#FFF" stop-opacity="0"/>
    </radialGradient>
  </defs>
  <g fill="none" fill-rule="evenodd">
    <path fill="#EDEEFF" d="M2.13815324,1 L128.716825,1 L128.716825,192 L2.13815324,192 C1.42963158,192 0.855261294,191.562217 0.855261294,191.022184 L0.855261294,1.9778157 C0.855261294,1.437783 1.42963158,1 2.13815324,1 Z"/>
    <g transform="translate(0 .01)">
      <g opacity=".48">
        <polygon fill="url(#presenter-a)" points=".05 0 128.34 0 128.34 150.181 .05 150.181" opacity=".7" transform="translate(.377)"/>
      </g>
      <g transform="translate(14.485 12.004)">
        <g transform="translate(.006 .062)">
          <path fill="url(#presenter-b)" d="M9.30481525,0 C10.4846482,6.71203072 11.3369161,8.83788396 20.4403173,8.43643345 C22.5895889,8.34172355 27.0258293,8.94581911 28.5097076,7.23250853 C30.4383218,5.00725256 30.1406909,9.74530717 29.9230269,12.2717577 C29.7900338,13.8101536 21.7753802,14.3984642 18.4347296,14.7888225 C7.79955537,16.0354096 2.95065147,13.2824232 0,5.15145051 L9.30481525,0 Z" transform="rotate(-20 200.212 -32.945)"/>
          <ellipse cx="32.419" cy="163.479" fill="url(#presenter-c)" opacity=".1" rx="3.383" ry="13.459" transform="rotate(-88.466 32.419 163.479)"/>
          <g transform="translate(8.585 81.518)">
            <g transform="translate(4.079 69.39)">
              <path fill="#C2959B" d="M0.781708823,-3.25928135e-14 C2.44733019,0.0635665529 1.73874621,1.0866041 3.41890702,0.567406143 C3.39453208,1.29266212 3.99749129,2.03796928 3.97482687,2.76365188 C3.93591248,3.97056314 4.9771931,5.50725256 5.0789692,6.70989761 C5.19442947,8.07508532 7.3283064,10.2436007 8.38027779,11.2713311 C9.9920177,12.8459898 11.159877,15.1996587 12.6527356,16.8976109 C12.726028,16.9945447 12.7547825,17.1178931 12.7318862,17.2371442 C12.7089899,17.3563954 12.6365812,17.460412 12.5325714,17.5234642 C11.4181659,18.4125427 2.47469856,15.1476109 1.35473389,13.1693686 C0.165920691,11.0699659 0.537959354,4.74616041 0.0423354341,2.4253413 C-0.221512675,1.19325939 0.859965232,0.587030717 0.781708823,-5.68434189e-14 Z"/>
              <path fill="url(#presenter-d)" d="M9.02899349,11.9709898 C10.5996809,13.5110922 14.4265475,13.793942 15.1163157,15.5972696 C15.806084,17.4005973 14.4321067,17.9863481 14.2272716,18.149744 C13.1128662,19.0388225 2.47298803,15.1463311 1.35302337,13.1685154 C0.873221782,12.3203925 0.649570953,10.78157 0.518288344,9.09854949 C2.30663971,11.4061433 6.15702606,12.4744027 9.02899349,11.9709898 Z"/>
            </g>
            <g transform="translate(12.46 65.917)">
              <path fill="#C2959B" d="M1.11355021,-1.8973538e-19 C2.78130973,-0.0149317406 2.12062038,1.04052901 3.77469572,0.442832765 C3.78495886,1.16808874 4.42170089,1.88481229 4.43281929,2.6109215 C4.45120741,3.81868601 5.56390235,5.30375427 5.72255332,6.50085324 C5.90215819,7.86006826 8.13610069,9.92448805 9.23511146,10.9018771 C10.9195486,12.3993174 12.1955984,14.6953925 13.7679963,16.3199659 C13.8454166,16.4134608 13.8797142,16.5351987 13.8624547,16.6552423 C13.8451953,16.7752858 13.7779802,16.8824974 13.6773386,16.9505119 C12.608262,17.8890785 3.51854497,15.0494881 2.30621208,13.1267065 C1.01947146,11.0853242 1.0925963,4.75127986 0.487926568,2.45605802 C0.167631214,1.23933447 1.21917498,0.581484642 1.11355021,-1.8973538e-19 Z"/>
              <path fill="url(#presenter-d)" d="M9.91718234,11.5699659 C11.5584288,13.0349829 15.3947033,13.1369454 16.1687148,14.9078498 C16.9427262,16.6787543 15.5974002,17.3267918 15.3989796,17.4991468 C14.329903,18.4377133 3.51597918,15.0516212 2.30407393,13.1279863 C1.78450269,12.3037543 1.48858228,10.7773038 1.27776037,9.10196246 C3.17601282,11.3216724 7.07215564,12.2077645 9.91718234,11.5699659 Z"/>
            </g>
            <path fill="#238CE6" d="M24.2748813,9.63182594 C23.7557377,5.47013652 10.7899765,9.29735495 8.71596785,13.084471 C0.933090072,27.2947952 12.747242,71.6062287 13.0812215,73.3476962 C13.0879284,73.3840368 13.0982423,73.4196215 13.1120109,73.4539249 C13.2355962,73.7598123 17.1467061,74.3690273 18.6712093,73.1510239 C18.8089064,73.0409556 18.8101893,72.6561433 18.8101893,72.6561433 C17.630784,34.475256 25.9926736,23.3980375 24.2748813,9.63182594 Z"/>
            <path fill="url(#presenter-e)" d="M17.6004222,5.88011945 C17.832198,6.08105802 21.8309722,-0.235494881 22.0075836,0.00682593857 C29.1537194,9.81186007 14.5847709,47.8643345 10.9156999,61.037116 C7.49465472,64.116041 9.75211691,45.6885666 6.43755176,49.3050341"/>
            <path fill="url(#presenter-f)" d="M18.861505,13.4419795 C22.4249511,0.0324232082 21.4662032,11.0797782 21.228013,11.0238908 C19.0043336,10.5051195 4.17324749,8.07039249 2.6957836,12.1262799 C-4.12962916,30.8686007 4.15314885,75.9756826 4.19847769,77.7482935 C4.19932869,77.7851827 4.20376838,77.8219022 4.21173424,77.8579352 C4.28400382,78.1800341 8.08093634,78.899744 9.78376158,77.9453925 C9.93472072,77.840403 10.0177721,77.6628095 10.0014256,77.4799488 C9.53787396,55.7022184 11.1243837,42.5580205 18.861505,13.4419795 Z"/>
          </g>
          <path fill="url(#presenter-g)" d="M24.2517893,37.3920648 C27.9927022,38.6424915 40.5911287,33.1493174 37.5010696,28.871587 C32.7612115,22.3110068 33.7379199,20.7828498 35.2418969,15.7743174 C37.805115,7.23421502 27.0313885,7.23506826 24.1153751,3.38609215 C20.2051205,-1.77602389 12.4885254,-0.6471843 9.00034223,4.15998294 C5.2269294,9.36049488 8.9678423,13.2022184 5.52840901,17.1437713 C3.77512335,19.1552901 -1.44966789,21.315273 0.384867582,27.8489761 C2.21940306,34.3826792 9.09869728,30.746587 7.16238571,37.0251706 C5.6622574,41.8886519 17.5409815,40.262372 20.2051205,39.6275597 C22.8692594,38.9927474 21.7018277,37.7730375 23.7480404,37.2862628 C23.2323178,32.6787543 23.5256724,28.0712457 22.9411013,23.480802 C23.6496853,28.0567406 23.6073499,33.0221843 24.2517893,37.3920648 Z" transform="translate(0 23.59)"/>
          <path fill="url(#presenter-h)" d="M30.8313144,55.6356655 C39.6674465,61.3263652 33.6878871,89.3165529 31.378254,94.0110922 C29.0686209,98.7056314 10.796391,94.5115188 10.796391,94.5115188 C12.7344844,90.4703279 13.4372135,85.9493528 12.8169458,81.512372 C11.7051061,74.3613481 6.53462392,68.5750853 7.20172773,63.6587031 C7.86883154,58.7423208 17.1454232,53.6651024 19.3892012,51.709471 C21.6329792,49.7538396 30.8313144,55.6356655 30.8313144,55.6356655 Z"/>
          <path fill="#545489" d="M16.9683841,54.7111775 C16.9683841,54.6412116 16.9726604,53.5418089 16.9782196,53.4697099 C17.4658785,53.1344295 17.9480249,52.7912383 18.4244664,52.440273 C18.4142033,52.5345563 18.2534142,53.4215017 18.2534142,53.5068259 C18.203809,55.5793515 25.0001429,57.9261945 24.6529068,53.6591297 C24.6116641,53.1565406 24.6008112,52.651929 24.6204069,52.1480375 C24.8036811,52.6645058 25.0569047,53.1535378 25.3730368,53.6015358 C25.3730368,54.0226109 25.390142,54.4577645 25.4269183,54.9108362 C25.8840554,60.5520478 16.9016737,57.4500853 16.9683841,54.7111775 Z"/>
          <path fill="url(#presenter-i)" d="M22.7957069,80.0695392 L32.6534486,90.2969283 C32.6534486,90.2969283 31.7396019,94.3549488 30.6033873,94.9197952 C30.3677628,95.065273 30.1757566,95.5200512 28.0585573,95.9266212 C25.1596491,96.4812287 25.7895491,94.9987201 22.9038975,95.2563993 C21.1040762,93.9226169 19.5012898,92.3428586 18.1426578,90.5635666 C16.7833303,88.8672982 15.6471547,87.004475 14.7618099,85.0204778 C14.4107252,84.2393345 13.0538531,83.5793515 12.956781,82.6505973 C12.7728998,80.8801195 12.857143,80.6424915 11.5212249,76.5102389 C11.3074096,75.8545222 11.8877044,74.0959898 11.9873423,73.3903584 C12.8917811,69.116041 22.7957069,80.0695392 22.7957069,80.0695392 Z" opacity=".22"/>
          <path fill="#C2959B" d="M26.2193179,46.9744027 C26.2193179,46.9744027 24.3078089,49.394198 24.655045,53.6612628 C25.0022811,57.9283276 18.2059472,55.581058 18.2555523,53.508959 C18.3051575,51.4368601 20.575021,48.1288396 19.648773,44.5763652 C18.722525,41.0238908 26.2193179,46.9744027 26.2193179,46.9744027 Z"/>
          <path fill="url(#presenter-j)" d="M18.6340055,51.7103242 C19.018873,50.3024744 20.0661405,46.1749147 19.6492006,44.5767918 C18.7229526,41.0243174 26.2193179,46.9748294 26.2193179,46.9748294 C26.2193179,46.9748294 24.622545,49.0076792 24.6182687,52.6241468 C22.4741287,52.3532423 19.5974573,53.5610068 18.6340055,51.7103242 Z"/>
          <path fill="url(#presenter-k)" d="M4.77962774,0 C-2.04877843,15.3412969 -2.53841552,21.7922355 9.79744576,27.8540956 C12.524874,29.1941126 18.8957154,32.6749147 19.7539701,31.5716724 C21.1621578,29.7615188 23.7202444,26.3127133 21.1617302,27.056314 C19.1920634,27.6288396 16.1246688,24.9974403 14.447929,24.0166382 C4.74071336,18.3391638 7.19146459,18.0204778 12.8438865,4.54991468" transform="translate(3.113 61.686)"/>
          <path fill="#C2959B" d="M14.7793428,39.7598123 C14.8768426,39.741041 15.9429258,33.3084471 19.8193976,32.5614334 C23.2442915,31.9018771 26.7688233,35.2316553 27.6912226,39.9995734 C28.6136219,44.7674915 26.5849421,49.1663823 23.1583377,49.8259386 C19.5209114,50.5264505 15.8924654,44.9978669 15.7949656,45.0166382 C14.7519744,45.2175768 13.6790491,44.2034983 13.3980958,42.7517065 C13.1171425,41.2999147 13.7380622,39.9607509 14.7793428,39.7598123 Z"/>
          <g transform="rotate(-25 81.185 -29.64)">
            <path fill="#5457FF" d="M43.3694837,6.07356737 L9.16771236,6.04174155 C8.36858876,6.05826983 7.73404048,6.71613489 7.74743146,7.51421138 L7.78389735,46.6454782 C7.77199379,47.4435312 8.40776928,48.1025783 9.20692507,48.1205938 L43.4091239,48.15242 C44.2080791,48.1356605 44.8423707,47.4778634 44.8289774,46.6799498 L44.7925115,7.54868299 C44.804415,6.75063004 44.1686395,6.0915829 43.3694837,6.07356737 Z" transform="rotate(-.2 2646.738 -2822.142)"/>
            <g transform="translate(18.519 10.807)">
              <path fill="#F8F8FC" d="M6.99284973,3.68069575 L18.1146455,3.69104493 C20.3208748,3.69309789 22.1088657,5.48108632 22.1109217,7.68731565 L22.1195171,16.9110039 C22.1215757,19.120142 20.3323844,20.9126711 18.1232464,20.9147297 C18.1207631,20.914732 18.1182799,20.914732 18.1157967,20.9147297 L6.99400091,20.9043806 C4.78777159,20.9023276 2.99978073,19.1143392 2.99772477,16.9081098 L2.98912935,7.68442156 C2.98707068,5.47528352 4.77626202,3.68275442 6.98540006,3.68069575 C6.98788329,3.68069344 6.99036651,3.68069343 6.99284973,3.68069575 Z" transform="rotate(-.2 1240.548 -1487.076)"/>
              <polygon fill="#2699FB" points="25.063 24.021 8.668 24.021 7.984 23.578 13.693 17.844 16.661 20.943 16.799 20.943 22.732 15.188 26.538 18.985 26.538 22.475 25.821 23.803"/>
              <polygon fill="#FFF" points="24.309 16.802 22.732 15.188 16.98 21.009 18.496 22.602" opacity=".4"/>
              <path fill="#FFF" d="M13.6929329,17.8438567 L7.98406373,23.5772184 C8.02041234,23.6032423 8.05633331,23.625 8.09439244,23.6552901 C8.1063661,23.6651024 8.1371555,23.6877133 8.15126731,23.6979522 C8.21070797,23.7406143 8.27228679,23.7794369 8.33472086,23.8178328 C8.42461393,23.8737157 8.49982592,23.9502128 8.55409538,24.0409556 L10.7717879,24.0409556 C12.2938679,22.5261661 13.8163756,21.0115188 15.3393109,19.4970137 L13.6929329,17.8438567 Z" opacity=".4"/>
              <rect width="19.13" height="17.216" x="7.414" y="6.826" stroke="#F8F8FC" rx="4"/>
              <polyline stroke="#F8F8FC" points="26.537 18.985 22.732 15.188 16.98 20.927"/>
              <polyline stroke="#F8F8FC" points="7.927 23.596 13.693 17.844 19.905 24.042"/>
            </g>
            <rect width="24.456" height="2.253" x="23.27" y="40.101" fill="#2699FB" rx="1.126"/>
            <rect width="24.456" height="1.211" x="23.27" y="45.539" fill="#2699FB" rx=".606"/>
            <rect width="24.456" height="1.211" x="23.27" y="48.399" fill="#2699FB" rx=".606"/>
          </g>
          <path fill="#C2959B" d="M54.0529359,62.3692595 C55.0711851,62.2573731 55.882076,62.6881414 56.0238899,63.0923709 C56.2659581,63.7813114 54.0294569,63.5389333 53.8483449,64.3026586 C53.2980337,64.1673915 53.2391139,62.5815846 54.0529359,62.3692595 Z" transform="rotate(-20 54.74 63.327)"/>
          <path fill="#5457FF" d="M46.3701292,11.7312287 L15.0936513,0.499146758 C14.3570163,0.25185353 13.5586189,0.645341446 13.3078657,1.37926621 L12.1660919,4.54351536 L1.54973347,33.9658703 L0.407959637,37.1301195 C0.132529623,37.8545811 0.495650228,38.6649072 1.22045787,38.9432594 L32.4969358,50.1749147 C33.2334477,50.4222466 34.0317906,50.0289763 34.2827214,49.2952218 L35.4244952,46.1309727 L46.040426,16.7081911 L47.1821998,13.543942 C47.4573934,12.8197225 47.0945377,12.0097519 46.3701292,11.7312287 Z" transform="translate(16.744 77.413)"/>
          <g transform="translate(22.29 87.877)">
            <path fill="#FFF" stroke="#FFF" d="M7.54511514.28668942C7.46824056.25876887 7.42860902.173962749 7.45659562.0972696347 7.48458222.0205765201 7.56958901-.0189614751 7.6464636.00895904437L12.7887221 1.87329352C12.8655967 1.90121407 12.9052283 1.98602019 12.8772417 2.0627133 12.8492551 2.13940642 12.7642483 2.17894441 12.6873737 2.15102389L7.54511514.28668942zM.524702804 19.383959C.474011088 19.3666677.436648042 19.3233901.427020521 19.2708138.417393 19.2182374.437005062 19.164576.478294471 19.130521.51958388 19.0964659.576100208 19.0873374.626051268 19.1066553L5.76788217 20.9709898C5.84475677 20.9989103 5.88438832 21.0837164 5.85640171 21.1604096 5.82841511 21.2371027 5.74340831 21.2766407 5.66653371 21.2487201L.524702804 19.3843857.524702804 19.383959z"/>
            <path fill="url(#presenter-l)" stroke="#FFF" d="M7.29751699,8.66552901 C7.22241035,8.63648251 7.1843944,8.55283283 7.21198808,8.47733261 C7.23958177,8.40183238 7.32264516,8.36222588 7.39886546,8.38822526 L10.2212277,9.403157 C10.2963344,9.43220349 10.3343503,9.51585317 10.3067566,9.5913534 C10.279163,9.66685363 10.1960996,9.70646013 10.1198793,9.68046075 L7.29751699,8.66552901 Z"/>
            <path fill="#2699FB" stroke="#2699FB" d="M0.0966445263,0.287542662 C0.0215378862,0.258496164 -0.016478069,0.174846484 0.0111156142,0.0993462574 C0.0387092975,0.0238460307 0.121772694,-0.0157604711 0.19799299,0.0102389078 L13.5469113,4.85068259 C13.6220179,4.87972909 13.6600339,4.96337877 13.6324402,5.038879 C13.6048465,5.11437923 13.5217831,5.15398573 13.4455628,5.12798635 L0.0974997876,0.287542662 L0.0966445263,0.287542662 Z" transform="translate(7.962 6.308)"/>
            <path fill="#2699FB" stroke="#2699FB" d="M0.524702804,0.28668942 C0.447828205,0.258768881 0.408196655,0.17396275 0.43618326,0.0972696246 C0.464169866,0.0205764991 0.549176668,-0.0189614944 0.626051268,0.00895904437 L13.9745419,4.84897611 C14.0496486,4.87802261 14.0876645,4.96167229 14.0600708,5.03717251 C14.0324771,5.11267274 13.9494138,5.15227924 13.8731935,5.12627986 L0.524702804,0.285836177 L0.524702804,0.28668942 Z" transform="translate(3.704 16.724)"/>
            <g transform="translate(8.728 3.798)">
              <path fill="url(#presenter-l)" stroke="#FFF" d="M15.5764463,6.36220137 C15.5013397,6.33315487 15.4633237,6.24950519 15.4909174,6.17400496 C15.5185111,6.09850473 15.6015745,6.05889823 15.6777948,6.08489761 L18.5001571,7.09940273 C18.5752637,7.12844923 18.6132797,7.21209891 18.585686,7.28759914 C18.5580923,7.36309936 18.4750289,7.40270586 18.3988086,7.37670648 L15.5764463,6.36177474 L15.5764463,6.36220137 Z"/>
              <path fill="#2699FB" stroke="#2699FB" d="M0.0970721569,0.711604096 C0.0219655169,0.682557597 -0.0160504384,0.598907918 0.0115432449,0.523407691 C0.0391369281,0.447907464 0.122200325,0.408300962 0.19842062,0.434300341 L13.5473389,5.27645051 C13.6224455,5.30549701 13.6604615,5.38914669 13.6328678,5.46464692 C13.6052741,5.54014714 13.5222107,5.57975365 13.4459904,5.55375427 L0.0996379408,0.711604096 L0.0970721569,0.711604096 Z"/>
            </g>
            <g transform="translate(4.898 14.64)">
              <path fill="url(#presenter-l)" stroke="#FFF" d="M15.5764463,5.93728669 C15.4995717,5.90936615 15.4599402,5.82456002 15.4879268,5.74786689 C15.5159134,5.67117377 15.6009202,5.63163578 15.6777948,5.65955631 L18.5001571,6.67448805 C18.5508488,6.69177942 18.5882118,6.735057 18.5978393,6.78763334 C18.6074669,6.84020968 18.5878548,6.89387106 18.5465654,6.92792613 C18.505276,6.9619812 18.4487597,6.97110972 18.3988086,6.95179181 L15.5764463,5.93728669 Z"/>
              <path fill="#2699FB" stroke="#2699FB" d="M.0970721569.286262799C.0219655169.2572163-.0160504384.173566621.0115432449.098066394.0391369281.0225661673.122200325-.0170403346.19842062.00895904437L13.5469113 4.84940273C13.6237859 4.87732328 13.6634174 4.9621294 13.6354308 5.03882252 13.6074442 5.11551563 13.5224374 5.15505363 13.4455628 5.12713311L.0970721569.287116041.0970721569.286262799zM20.5271263 7.76365188C20.4502517 7.73573133 20.4106202 7.65092521 20.4386068 7.57423209 20.4665934 7.49753898 20.5516002 7.45800098 20.6284748 7.4859215L24.8397814 8.99616041C24.8904731 9.01345178 24.9278362 9.05672935 24.9374637 9.1093057 24.9470912 9.16188204 24.9274791 9.21554342 24.8861897 9.24959849 24.8449003 9.28365356 24.788384 9.29278207 24.7384329 9.27346416L20.527554 7.76365188 20.5271263 7.76365188z"/>
            </g>
            <g transform="translate(6 10.05)">
              <path fill="#2699FB" stroke="#2699FB" d="M.524702804.712883959C.474011088.695592592.436648042.652315015.427020521.599738674.417393.547162332.437005062.493500953.478294471.459445882.51958388.425390812.576100208.416262294.626051268.435580205L3.44841354 1.45008532C3.52352018 1.47913182 3.56153613 1.5627815 3.53394245 1.63828173 3.50634877 1.71378196 3.42328537 1.75338846 3.34706508 1.72738908L.524702804.712457338.524702804.712883959zM5.48008674 2.52645051C5.4049801 2.49740401 5.36696415 2.41375433 5.39455783 2.33825411 5.42215152 2.26275388 5.50521491 2.22314738 5.58143521 2.24914676L8.40379748 3.2640785C8.48067206 3.29199905 8.5203036 3.37680517 8.492317 3.45349828 8.46433039 3.5301914 8.37932361 3.56972939 8.30244902 3.54180887L5.48008674 2.52687713 5.48008674 2.52645051zM10.4495825 4.3447099C10.3744759 4.3156634 10.3364599 4.23201372 10.3640536 4.15651349 10.3916473 4.08101327 10.4747107 4.04140676 10.550931 4.06740614L13.3732932 5.08191126C13.4483999 5.11095776 13.4864158 5.19460744 13.4588221 5.27010767 13.4312285 5.34560789 13.3481651 5.3852144 13.2719448 5.35921502L10.4495825 4.34428328 10.4495825 4.3447099z"/>
              <path fill="url(#presenter-l)" stroke="#FFF" d="M15.4075322,6.15273038 C15.3324256,6.12368388 15.2944096,6.0400342 15.3220033,5.96453397 C15.349597,5.88903374 15.4326604,5.84942724 15.5088807,5.87542662 L21.7625513,8.11945392 C21.8376579,8.14850042 21.8756739,8.2321501 21.8480802,8.30765033 C21.8204865,8.38315056 21.7374231,8.42275706 21.6612028,8.39675768 L15.4071046,6.153157 L15.4075322,6.15273038 Z"/>
            </g>
            <g transform="translate(5.498 12.497)">
              <path fill="url(#presenter-l)" stroke="#FFF" d="M16.8601935 6.40699659C16.7850869 6.37795009 16.7470709 6.29430041 16.7746646 6.21880018 16.8022583 6.14329996 16.8853217 6.10369345 16.961542 6.12969283L19.7839043 7.14462457C19.8590109 7.17367107 19.8970269 7.25732075 19.8694332 7.33282098 19.8418395 7.4083212 19.7587761 7.44792771 19.6825558 7.42192833L16.8601935 6.40699659zM.0970721569.287542662C.0219655169.258496164-.0160504384.174846484.0115432449.0993462574.0391369281.0238460307.122200325-.0157604711.19842062.0102389078L6.45209121 2.25426621C6.52896579 2.28218676 6.56859732 2.36699288 6.54061072 2.443686 6.51262412 2.52037911 6.42761734 2.55991711 6.35074274 2.53199659L.0974997876.287542662.0970721569.287542662z"/>
              <path fill="#2699FB" stroke="#2699FB" d="M8.47606706,3.3528157 C8.40096042,3.3237692 8.36294446,3.24011952 8.39053815,3.16461929 C8.41813183,3.08911907 8.50119523,3.04951257 8.57741552,3.07551195 L14.8310861,5.31911263 C14.9061927,5.34815913 14.9442087,5.43180881 14.916615,5.50730903 C14.8890213,5.58280926 14.8059579,5.62241576 14.7297376,5.59641638 L8.47563943,3.35238908 L8.47606706,3.3528157 Z"/>
            </g>
          </g>
          <path fill="#C2959B" d="M24.2804405,94.6156143 C25.1554343,94.9433973 26.0956669,95.0603383 27.0245464,94.9569113 C28.3074383,94.8511092 29.0575025,91.9705631 27.9247089,91.3596416 C26.8505007,90.7802901 25.0476099,90.2444539 25.9233975,88.2696246 C23.5795539,89.0699659 22.6267928,90.2593857 22.2077148,92.5857509 C22.0849848,93.8451365 23.511133,94.3447099 24.2804405,94.6156143 Z"/>
        </g>
        <ellipse cx="16.13" cy="16.085" fill="url(#presenter-m)" rx="11.092" ry="11.092" transform="rotate(-45.65 57.602 -33.025)"/>
        <ellipse cx="16.13" cy="16.085" fill="url(#presenter-m)" rx="11.092" ry="11.092" transform="rotate(-45.65 108.5 34.704)"/>
      </g>
      <g transform="translate(24 13)">
        <rect width="56.05" height="10.539" x=".278" y=".371" fill="#FFF" rx="5.269" transform="translate(.15 .055)"/>
        <rect width="39.484" height="2.898" x="12.048" y="4.378" fill="#EDEEFF" rx="1.449"/>
        <g transform="translate(4.389 3.325)">
          <rect width="4.754" height="4.742" fill="#5457FF" rx="2.371"/>
          <rect width="3.898" height="3.889" x=".428" y=".427" stroke="#5457FF" stroke-width="2" rx="1.945"/>
        </g>
      </g>
      <g transform="translate(88.372 110.023)">
        <rect width="34.24" height="10.539" x=".278" y=".371" fill="#FFF" rx="5.269" transform="translate(.15 .055)"/>
        <rect width="17.674" height="2.898" x="12.048" y="4.378" fill="#EDEEFF" rx="1.449"/>
        <g transform="translate(4.389 3.325)">
          <rect width="4.754" height="4.742" fill="#5457FF" rx="2.371"/>
          <rect width="3.898" height="3.889" x=".428" y=".427" stroke="#5457FF" stroke-width="2" rx="1.945"/>
        </g>
      </g>
    </g>
  </g>
</svg>
