<svg width="271px" height="56px" viewBox="0 0 271 56" version="1.1" xmlns="http://www.w3.org/2000/svg" xmlns:xlink="http://www.w3.org/1999/xlink">
    <defs>
        <polygon id="path-1" points="0.0217305977 0.126399643 270.143925 0.126399643 270.143925 55.0508475 0.0217305977 55.0508475"></polygon>
    </defs>
    <g id="Page-1" stroke="none" stroke-width="1" fill="none" fill-rule="evenodd">
        <g id="1590x1418---Web" transform="translate(-337.000000, -1020.000000)">
            <g id="Brand-Logos" transform="translate(337.500000, 1020.000000)">
                <g id="RM_Logo_NoStrap_Colour">
                    <mask id="mask-2" fill="white">
                        <use xlink:href="#path-1"></use>
                    </mask>
                    <g id="Clip-2"></g>
                    <path d="M266.631898,34.3970009 L259.955897,34.3970009 L253.320096,28.7792792 L246.657857,34.3970009 L240.000689,34.3970009 C239.063376,34.3970009 238.182562,34.0319269 237.520141,33.3684193 C236.857358,32.7052739 236.493732,31.8230116 236.494819,30.8856985 L236.51329,15.881083 C236.514376,14.9557217 236.871483,14.0825138 237.519054,13.4211793 L237.662839,13.2875361 L253.319372,0.126399643 L269.124036,13.4248011 C269.769434,14.0836004 270.125092,14.954273 270.125454,15.8763747 L270.143925,30.8791793 C270.145736,31.8175789 269.781024,32.7012899 269.117154,33.3662462 C268.453647,34.0308403 267.571022,34.3970009 266.631898,34.3970009 M261.443356,30.3373631 L266.083925,30.3373631 L266.066541,16.1454719 L253.319372,5.43011418 L240.572203,16.1447475 L240.555543,30.3373631 L245.175106,30.3373631 L253.325167,23.4646994 L261.443356,30.3373631" id="Fill-1" fill="#55B89B" mask="url(#mask-2)"></path>
                    <path d="M25.8883854,10.8725424 C25.506289,10.5541891 25.0691418,10.3108064 24.577306,10.1405834 C24.0861945,9.97036039 23.5780607,9.88524888 23.0536289,9.88524888 C22.5291971,9.88524888 22.0210633,9.97036039 21.5292275,10.1405834 C21.038116,10.3108064 20.595174,10.5541891 20.2022123,10.8725424 C19.8085263,11.1898091 19.4974166,11.5921873 19.2681588,12.0811258 C19.038901,12.5686155 18.924091,13.1187618 18.924091,13.7315647 C18.924091,14.3447297 19.038901,14.8894434 19.2681588,15.3660678 C19.4974166,15.8419679 19.8085263,16.2450705 20.2022123,16.5739269 C20.595174,16.9031454 21.038116,17.1468903 21.5292275,17.3058858 C22.0210633,17.464157 22.5291971,17.5445602 23.0536289,17.5445602 C23.5780607,17.5445602 24.0861945,17.464157 24.577306,17.3058858 C25.0691418,17.1468903 25.506289,16.9031454 25.8883854,16.5739269 C26.2704817,16.2450705 26.576521,15.8419679 26.8061409,15.3660678 C27.0353988,14.8894434 27.1505709,14.3447297 27.1505709,13.7315647 C27.1505709,13.1187618 27.0353988,12.5686155 26.8061409,12.0811258 C26.576521,11.5921873 26.2704817,11.1898091 25.8883854,10.8725424 L25.8883854,10.8725424 Z M73.7514755,19.6687261 C72.3712203,19.6687261 71.0076253,19.916455 69.6625013,20.4101017 C68.3170152,20.904835 67.2373666,21.6114416 66.4231936,22.5324567 L66.4231936,10.1076253 L58.829074,10.1076253 L58.829074,44.2116253 L66.4757092,44.2116253 L66.4757092,31.3261053 C66.4757092,30.6104442 66.5825513,29.9378822 66.7947868,29.3066084 C67.0077467,28.6764211 67.3260999,28.1230152 67.7509331,27.644942 C68.1761285,27.1683176 68.7067172,26.7844103 69.3437859,26.494669 C69.9812168,26.2052899 70.7066566,26.0596949 71.5211918,26.0596949 C72.760198,26.0596949 73.7514755,26.4522944 74.4950241,27.2360446 C75.2385727,28.0208814 75.6105281,29.111033 75.6105281,30.5083104 L75.6105281,44.2116253 L83.2046476,44.2116253 L83.2046476,29.383752 C83.2046476,26.1795754 82.3455647,23.7595112 80.6284853,22.1231971 C78.9114059,20.486521 76.6195522,19.6687261 73.7514755,19.6687261 L73.7514755,19.6687261 Z M43.9548421,19.719793 C41.7948207,19.719793 39.8387047,20.0265566 38.0868564,20.640446 C36.3339215,21.2536111 34.8287154,22.1315272 33.5723247,23.2734701 C32.3155718,24.4157752 31.342041,25.779008 30.6520946,27.363893 C29.9610616,28.9487779 29.6159072,30.7129402 29.6159072,32.6556557 C29.6159072,34.3263764 29.8723283,35.8609188 30.3862569,37.2578341 C30.899099,38.6554737 31.6339554,39.8651436 32.5897395,40.8875682 C33.546248,41.9099929 34.7225977,42.7024353 36.121686,43.26562 C37.5193256,43.8280803 39.1034862,44.1091293 40.8745299,44.1091293 C43.5300089,44.1091293 45.6541748,43.4445352 47.2470277,42.1149848 L47.2470277,43.8023657 C47.2470277,45.5741338 46.7508457,46.903322 45.7602926,47.7902926 C44.7682908,48.676901 43.405058,49.119843 41.6713185,49.119843 C40.3254701,49.119843 39.0951561,48.95795 37.9803764,48.6341641 C36.8652346,48.3100161 35.8113006,47.8580196 34.8207475,47.2796236 L31.7400731,52.4946048 C33.1214148,53.3804888 34.6425566,54.0284228 36.3071204,54.4376824 C37.9709599,54.8465798 39.9187458,55.0508475 42.1490294,55.0508475 C46.0793702,55.0508475 49.1763426,54.1052043 51.4424817,52.2135558 C53.7075343,50.3211829 54.8415094,47.3984175 54.8415094,43.4445352 L54.8415094,21.5093078 C53.35405,20.9982765 51.6815183,20.5719946 49.82319,20.2311864 C47.9641374,19.8911026 46.0080214,19.719793 43.9548421,19.719793 L43.9548421,19.719793 Z M47.2999054,33.5252417 C47.2999054,35.0938287 46.8754344,36.2437395 46.0257681,36.9764228 C45.1757395,37.7101927 43.9722266,38.0756289 42.4145049,38.0756289 C40.7499411,38.0756289 39.484496,37.5642355 38.6174451,36.5418109 C37.7496699,35.5193863 37.3165067,34.138769 37.3165067,32.4003211 C37.3165067,31.5144371 37.4490633,30.6705656 37.7145388,29.8690687 C37.9803764,29.0690205 38.3871008,28.3696574 38.9361606,27.7731525 C39.484496,27.1770098 40.165388,26.6992988 40.9806476,26.3414683 C41.7948207,25.9836378 42.7506048,25.8043604 43.8483622,25.8043604 C44.6628974,25.8043604 45.3169884,25.8474594 45.8135326,25.9322087 C46.308628,26.0176824 46.8044478,26.1455308 47.2999054,26.3157538 L47.2999054,33.5252417 Z M19.2073131,44.2116253 L26.8546726,44.2116253 L26.8546726,20.2315486 L19.2073131,20.2315486 L19.2073131,44.2116253 Z M14.5508082,19.7712221 C12.7801267,19.7712221 11.3379393,20.1464371 10.2224353,20.8957806 C9.10729349,21.6462105 8.2315504,22.4299607 7.59375736,23.2477556 L7.32900624,20.2311864 L0,20.2311864 L0,44.2116253 L7.6473595,44.2116253 L7.6473595,32.3492542 C7.6473595,30.4402212 8.20474933,28.9665245 9.31989117,27.9259911 C10.4353952,26.8869063 11.8953292,26.3671829 13.7007797,26.3671829 C14.5623979,26.3671829 15.3251418,26.4497591 15.9995147,26.6062194 L17.2258448,20.088851 C16.9132864,19.9968582 16.5974683,19.9193524 16.276942,19.8733559 C15.7988689,19.8056289 15.223008,19.7712221 14.5508082,19.7712221 L14.5508082,19.7712221 Z M101.255169,38.7148707 C100.688724,38.9702052 100.015076,39.0984157 99.2363961,39.0984157 C98.2096253,39.0984157 97.4577467,38.783322 96.9796735,38.1527725 C96.5019625,37.5214987 96.262926,36.6269224 96.262926,35.4683194 L96.262926,26.0093524 L102.688664,26.0093524 L102.688664,20.2311864 L96.262926,20.2311864 L96.262926,12.9706316 L88.6155665,12.9706316 L88.6155665,20.2311864 L84.68595,20.2311864 L84.68595,26.0093524 L88.6155665,26.0093524 L88.6155665,35.0590598 C88.6155665,36.5591954 88.7749242,37.9224282 89.0940018,39.1494826 C89.412355,40.3768992 89.9429438,41.4246762 90.6868546,42.2942623 C91.4304032,43.1634862 92.4035718,43.8458269 93.6078091,44.3391115 C94.8105977,44.8331204 96.2980571,45.0804871 98.0683764,45.0804871 C100.620997,45.0804871 102.999049,44.3260731 105.206516,42.8313702 L102.792608,37.854339 C102.312362,38.1799358 101.800607,38.4678662 101.255169,38.7148707 L101.255169,38.7148707 Z M228.37337,33.1674112 C228.37337,31.1558822 228.107533,29.3066084 227.576219,27.6192275 C227.045631,25.9322087 226.257534,24.4835022 225.213017,23.2734701 C224.168862,22.0638002 222.884583,21.118157 221.363442,20.4361784 C219.840851,19.7538376 218.070532,19.4133916 216.052846,19.4133916 C214.034073,19.4133916 212.229347,19.7632542 210.636132,20.4611686 C209.042555,21.1605317 207.696707,22.0891525 206.599674,23.2477556 C205.502278,24.407083 204.661304,25.7619857 204.077113,27.3124639 C203.492922,28.8640285 203.20137,30.4749902 203.20137,32.1449866 C203.20137,34.0543818 203.510669,35.8007975 204.129991,37.3856824 C204.749675,38.9702052 205.652219,40.3254701 206.83871,41.4503907 C208.024839,42.5749492 209.46775,43.4532275 211.166721,44.083777 C212.866054,44.7139643 214.778346,45.029058 216.90215,45.029058 C218.495727,45.029058 219.911113,44.8841873 221.150844,44.594446 C222.38985,44.3047047 223.461169,43.9736753 224.363713,43.5973738 C225.266619,43.2232453 226.000389,42.8397003 226.567558,42.4471008 C227.133277,42.0563122 227.558473,41.7745388 227.842057,41.6039536 L224.708867,36.9510705 C224.142061,37.3603301 223.239879,37.8460089 222.00051,38.408107 C220.76078,38.9702052 219.149818,39.2519786 217.167988,39.2519786 C215.149577,39.2519786 213.565054,38.7659376 212.414781,37.7942177 C211.264508,36.8232221 210.670901,35.6899715 210.636132,34.3941035 L228.37337,34.3941035 L228.37337,33.1674112 Z M210.636132,29.6905156 C210.636132,29.17876 210.750218,28.6597609 210.980924,28.1309831 C211.210906,27.6025674 211.547368,27.1168885 211.99031,26.6739465 C212.432166,26.2310045 212.989556,25.8641195 213.662842,25.5743782 C214.33468,25.2853613 215.114084,25.1397663 215.999968,25.1397663 C216.884041,25.1397663 217.646061,25.2853613 218.282767,25.5743782 C218.920198,25.8641195 219.451511,26.2310045 219.875982,26.6739465 C220.301178,27.1168885 220.619893,27.6025674 220.831766,28.1309831 C221.044726,28.6597609 221.150844,29.17876 221.150844,29.6905156 L210.636132,29.6905156 Z M195.915463,20.2311864 L190.232912,35.9789884 L184.337401,20.2311864 L175.841099,20.2311864 L186.356173,44.2116253 L193.578337,44.2116253 L204.252769,20.2311864 L195.915463,20.2311864 Z M173.181274,23.1456218 C172.012892,21.9877431 170.613442,21.0743336 168.98582,20.4101017 C167.356749,19.7455076 165.551299,19.4133916 163.568382,19.4133916 C161.585465,19.4133916 159.771684,19.7455076 158.125591,20.4101017 C156.478774,21.0743336 155.07208,21.9877431 153.903336,23.1456218 C152.734955,24.3049492 151.823356,25.6598519 151.168178,27.2110544 C150.513001,28.7615326 150.185593,30.4235611 150.185593,32.1956913 C150.185593,33.9685459 150.513001,35.6302123 151.168178,37.1810526 C151.823356,38.7329795 152.734955,40.0875201 153.903336,41.2453988 C155.07208,42.4050883 156.478774,43.3250169 158.125591,44.0066334 C159.771684,44.688612 161.585465,45.029058 163.568382,45.029058 C165.551299,45.029058 167.356749,44.688612 168.98582,44.0066334 C170.613442,43.3250169 172.012892,42.4050883 173.181274,41.2453988 C174.349293,40.0875201 175.26053,38.7329795 175.915707,37.1810526 C176.570523,35.6302123 176.898293,33.9685459 176.898293,32.1956913 C176.898293,30.4235611 176.570523,28.7615326 175.915707,27.2110544 C175.26053,25.6598519 174.349293,24.3049492 173.181274,23.1456218 L173.181274,23.1456218 Z M169.144815,34.5733809 C168.896362,35.3401088 168.516077,36.0304175 168.003235,36.6443069 C167.489668,37.2578341 166.861292,37.7435129 166.117743,38.1013434 C165.374557,38.459174 164.524166,38.6380892 163.568382,38.6380892 C162.612598,38.6380892 161.754239,38.459174 160.993306,38.1013434 C160.231286,37.7435129 159.603634,37.2578341 159.107814,36.6443069 C158.61127,36.0304175 158.231709,35.3401088 157.966234,34.5733809 C157.700396,33.8062908 157.567839,33.0138483 157.567839,32.1956913 C157.567839,31.3775343 157.700396,30.5854541 157.966234,29.818364 C158.231709,29.0512739 158.61127,28.3696574 159.107814,27.7731525 C159.603634,27.1770098 160.231286,26.6992988 160.993306,26.3414683 C161.754239,25.9836378 162.612598,25.8043604 163.568382,25.8043604 C164.524166,25.8043604 165.374557,25.9836378 166.117743,26.3414683 C166.861292,26.6992988 167.489668,27.1770098 168.003235,27.7731525 C168.516077,28.3696574 168.896362,29.0512739 169.144815,29.818364 C169.39182,30.5854541 169.516409,31.3775343 169.516409,32.1956913 C169.516409,33.0138483 169.39182,33.8062908 169.144815,34.5733809 L169.144815,34.5733809 Z M137.791547,19.6687261 C136.198332,19.6687261 134.666687,19.9588296 133.198061,20.5383122 C131.728348,21.118157 130.479925,21.9359518 129.454241,22.9924211 C129.169932,22.6175682 128.807393,22.2340232 128.365176,21.8414237 C127.922596,21.4506351 127.409754,21.0928046 126.825563,20.7679322 C126.241372,20.4445085 125.559393,20.1793952 124.780714,19.9758519 C124.00131,19.7712221 123.116512,19.6687261 122.125597,19.6687261 C120.496526,19.6687261 119.080054,19.9758519 117.876903,20.5890169 C116.673028,21.2032685 115.681388,21.9692721 114.902708,22.8902872 L114.637957,20.2311864 L107.308589,20.2311864 L107.308589,44.2116253 L114.955948,44.2116253 L114.955948,31.3261053 C114.955948,29.7930116 115.40722,28.5319126 116.310489,27.542446 C117.213395,26.5547904 118.390107,26.0596949 119.842073,26.0596949 C121.151342,26.0596949 122.133927,26.4522944 122.789829,27.2360446 C123.44392,28.0208814 123.77169,29.1276931 123.77169,30.5597395 L123.77169,44.2116253 L131.153574,44.2116253 L131.153574,31.3261053 C131.153574,29.7930116 131.595429,28.5319126 132.481313,27.542446 C133.365748,26.5547904 134.552239,26.0596949 136.038974,26.0596949 C137.348605,26.0596949 138.33119,26.4522944 138.986368,27.2360446 C139.641183,28.0208814 139.968953,29.1276931 139.968953,30.5597395 L139.968953,44.2116253 L147.616674,44.2116253 L147.616674,29.383752 C147.616674,26.3845674 146.774976,24.0148457 145.09339,22.2760357 C143.411442,20.5383122 140.977615,19.6687261 137.791547,19.6687261 L137.791547,19.6687261 Z" id="Fill-3" fill="#21222B" mask="url(#mask-2)"></path>
                </g>
            </g>
        </g>
    </g>
</svg>
