<?xml version="1.0" encoding="UTF-8"?>
<svg width="128px" height="186px" viewBox="0 0 128 186" version="1.1" xmlns="http://www.w3.org/2000/svg" xmlns:xlink="http://www.w3.org/1999/xlink">
    <!-- Generator: Sketch 52.6 (67491) - http://www.bohemiancoding.com/sketch -->
    <title>s2 2</title>
    <desc>Created with Sketch.</desc>
    <g id="Page-1" stroke="none" stroke-width="1" fill="none" fill-rule="evenodd">
        <g id="s2">
            <polygon id="Path" fill="#BCC5FF" points="0.721 161.93 110.934 161.93 110.934 5.274 0.721 5.274"></polygon>
            <path d="M15.104,30.395 C14.529,30.395 14.063,29.93 14.063,29.355 L14.063,5.467 C14.063,4.894 14.529,4.428 15.104,4.428 C15.678,4.428 16.143,4.894 16.143,5.467 L16.143,29.355 C16.143,29.93 15.678,30.395 15.104,30.395" id="Fill-24" fill="#CC6D5C"></path>
            <path d="M8.546,30.396 C7.972,30.396 7.506,29.93 7.506,29.356 L7.506,12.229 C7.506,11.655 7.972,11.19 8.546,11.19 C9.121,11.19 9.586,11.655 9.586,12.229 L9.586,29.356 C9.586,29.93 9.121,30.396 8.546,30.396" id="Fill-25" fill="#CC6D5C"></path>
            <path d="M15.104,7.812 C14.529,7.812 14.063,7.346 14.063,6.772 L14.063,5.467 C14.063,3.977 12.729,2.762 11.088,2.762 C9.828,2.762 8.701,3.491 8.282,4.578 C8.077,5.114 7.474,5.38 6.939,5.174 C6.404,4.968 6.136,4.367 6.343,3.831 C7.067,1.948 8.975,0.683 11.088,0.683 C13.875,0.683 16.143,2.83 16.143,5.467 L16.143,6.772 C16.143,7.346 15.678,7.812 15.104,7.812" id="Fill-26" fill="#CC6D5C"></path>
            <path d="M11.825,33.453 C9.444,33.453 7.506,31.615 7.506,29.356 C7.506,28.782 7.972,28.316 8.546,28.316 C9.121,28.316 9.586,28.782 9.586,29.356 C9.586,30.469 10.59,31.374 11.825,31.374 C13.06,31.374 14.063,30.469 14.063,29.356 C14.063,28.782 14.529,28.316 15.104,28.316 C15.678,28.316 16.143,28.782 16.143,29.356 C16.143,31.615 14.206,33.453 11.825,33.453" id="Fill-27" fill="#CC6D5C"></path>
            <polygon id="Fill-28" fill="#FFFFFF" points="16.5 98.825 91.666 98.825 91.666 93.626 16.5 93.626"></polygon>
            <polygon id="Fill-29" fill="#FFFFFF" points="16.5 112.92 91.666 112.92 91.666 107.722 16.5 107.722"></polygon>
            <polygon id="Fill-30" fill="#FFFFFF" points="16.5 127.016 91.644 127.016 91.644 121.817 16.5 121.817"></polygon>
            <polygon id="Fill-31" fill="#FFFFFF" points="16.5 84.729 90.68 84.729 90.68 79.531 16.5 79.531"></polygon>
            <path d="M35,41.8180085 C35,30.3210785 44.5142078,21 56.2524466,21 C67.9897922,21 77.504,30.3210785 77.504,41.8180085 C77.504,53.3140637 67.9897922,62.6351422 56.2524466,62.6351422 C44.5142078,62.6351422 35,53.3140637 35,41.8180085" id="Fill-32" fill="#92BAD8"></path>
            <path d="M66.0356114,45.783449 C64.7583567,45.4903608 63.4391223,45.1920233 62.2002745,44.3040099 C60.7354509,43.2541419 60.9694654,42.6933374 62.1967018,40.4886145 C63.2810285,38.5402344 64.7663954,35.8718197 64.7663954,31.7108427 C64.7663954,25.2830256 60.5309116,23.0013123 56.9019004,23.0013123 C56.5499855,22.9995626 56.6142948,22.9995626 56.4562011,23.0013123 C52.8289763,23.0013123 48.5925993,25.2830256 48.5925993,31.7108427 C48.5925993,35.8718197 50.0779662,38.5376097 51.1613997,40.4877396 C52.3895292,42.6933374 52.6208642,43.2541419 51.1551474,44.3040099 C49.918086,45.1920233 48.5988516,45.4903608 47.3233833,45.783449 C44.7054577,46.3783742 42,46.9960466 42,52.7396997 C42,53.2261386 42.4037197,53.6189642 42.897651,53.6189642 L70.4604505,53.6189642 C70.955275,53.6189642 71.3581015,53.2261386 71.3581015,52.7396997 C71.3581015,46.9960466 68.6526438,46.3783742 66.0356114,45.783449" id="Fill-33" fill="#304049"></path>
        </g>
        <path d="M78.312,109 C66.56,109 57,118.559 57,130.31 C57,142.061 66.56,151.621 78.312,151.621 C90.063,151.621 99.624,142.061 99.624,130.31 C99.624,118.559 90.063,109 78.312,109" id="Fill-80" fill="#FFFFFE"></path>
        <path d="M78.011,149.414 C67.309,149.414 58.608,140.709 58.608,130.01 C58.608,119.311 67.309,110.607 78.011,110.607 C88.71,110.607 97.418,119.311 97.418,130.01 C97.418,140.709 88.71,149.414 78.011,149.414 Z M78.011,103 C63.118,103 51,115.117 51,130.01 C51,144.905 63.118,157.02 78.011,157.02 C92.907,157.02 105.022,144.905 105.022,130.01 C105.022,115.117 92.907,103 78.011,103 Z" id="Fill-81" fill="#99B8DD"></path>
        <path d="M121.67175,182.4745 C120.69975,182.4745 119.72775,182.1015 118.98375,181.3605 L89.11375,151.4905 C87.62875,150.0055 87.62875,147.5985 89.11375,146.1145 C90.59775,144.6285 93.00675,144.6285 94.49075,146.1145 L124.36275,175.9835 C125.84775,177.4675 125.84775,179.8755 124.36275,181.3605 C123.61975,182.1015 122.64475,182.4745 121.67175,182.4745" id="Fill-82" fill="#99B8DD"></path>
        <g id="Fill-83" transform="translate(95.000000, 153.000000)">
            <g id="path-3-link" fill="#000000">
                <path d="M26.22,32.676 C24.518,32.676 22.814,32.024 21.516,30.726 L2.619,11.828 C0.021,9.232 0.021,5.017 2.619,2.42 C5.22,-0.18 9.432,-0.18 12.031,2.42 L30.928,21.315 C33.525,23.914 33.525,28.127 30.928,30.726 C29.628,32.024 27.925,32.676 26.22,32.676" id="path-3"></path>
            </g>
            <g id="path-3-link" fill="#875CCC">
                <path d="M26.22,32.676 C24.518,32.676 22.814,32.024 21.516,30.726 L2.619,11.828 C0.021,9.232 0.021,5.017 2.619,2.42 C5.22,-0.18 9.432,-0.18 12.031,2.42 L30.928,21.315 C33.525,23.914 33.525,28.127 30.928,30.726 C29.628,32.024 27.925,32.676 26.22,32.676" id="path-3"></path>
            </g>
        </g>
        <path d="M77.786,123.907729 C74.497,119.715729 65,119.115729 65,128.499729 C65,137.884729 77.786,142.776729 77.786,142.776729 C77.786,142.776729 90.572,137.884729 90.572,128.499729 C90.572,119.115729 81.074,119.715729 77.786,123.907729" id="Fill-84" fill="#A65CCC"></path>
    </g>
</svg>