<svg id="Layer_11" data-name="Layer 11" xmlns="http://www.w3.org/2000/svg" xmlns:xlink="http://www.w3.org/1999/xlink" viewBox="0 0 5123.01 1528.98"><defs><style>.cls-1,.cls-10,.cls-11,.cls-12,.cls-13,.cls-14,.cls-15,.cls-16,.cls-17,.cls-18,.cls-19,.cls-2,.cls-20,.cls-21,.cls-22,.cls-23,.cls-24,.cls-25,.cls-26,.cls-27,.cls-28,.cls-29,.cls-3,.cls-30,.cls-31,.cls-32,.cls-33,.cls-34,.cls-35,.cls-36,.cls-37,.cls-38,.cls-39,.cls-4,.cls-40,.cls-41,.cls-42,.cls-43,.cls-44,.cls-45,.cls-46,.cls-47,.cls-48,.cls-49,.cls-5,.cls-50,.cls-51,.cls-52,.cls-6,.cls-7,.cls-8,.cls-9{fill:none;stroke-miterlimit:10;stroke-width:1.52px;}.cls-1{stroke:url(#linear-gradient);}.cls-2{stroke:url(#linear-gradient-2);}.cls-3{stroke:url(#linear-gradient-3);}.cls-4{stroke:url(#linear-gradient-4);}.cls-5{stroke:url(#linear-gradient-5);}.cls-6{stroke:url(#linear-gradient-6);}.cls-7{stroke:url(#linear-gradient-7);}.cls-8{stroke:url(#linear-gradient-8);}.cls-9{stroke:url(#linear-gradient-9);}.cls-10{stroke:url(#linear-gradient-10);}.cls-11{stroke:url(#linear-gradient-11);}.cls-12{stroke:url(#linear-gradient-12);}.cls-13{stroke:url(#linear-gradient-13);}.cls-14{stroke:url(#linear-gradient-14);}.cls-15{stroke:url(#linear-gradient-15);}.cls-16{stroke:url(#linear-gradient-16);}.cls-17{stroke:url(#linear-gradient-17);}.cls-18{stroke:url(#linear-gradient-18);}.cls-19{stroke:url(#linear-gradient-19);}.cls-20{stroke:url(#linear-gradient-20);}.cls-21{stroke:url(#linear-gradient-21);}.cls-22{stroke:url(#linear-gradient-22);}.cls-23{stroke:url(#linear-gradient-23);}.cls-24{stroke:url(#linear-gradient-24);}.cls-25{stroke:url(#linear-gradient-25);}.cls-26{stroke:url(#linear-gradient-26);}.cls-27{stroke:url(#linear-gradient-27);}.cls-28{stroke:url(#linear-gradient-28);}.cls-29{stroke:url(#linear-gradient-29);}.cls-30{stroke:url(#linear-gradient-30);}.cls-31{stroke:url(#linear-gradient-31);}.cls-32{stroke:url(#linear-gradient-32);}.cls-33{stroke:url(#linear-gradient-33);}.cls-34{stroke:url(#linear-gradient-34);}.cls-35{stroke:url(#linear-gradient-35);}.cls-36{stroke:url(#linear-gradient-36);}.cls-37{stroke:url(#linear-gradient-37);}.cls-38{stroke:url(#linear-gradient-38);}.cls-39{stroke:url(#linear-gradient-39);}.cls-40{stroke:url(#linear-gradient-40);}.cls-41{stroke:url(#linear-gradient-41);}.cls-42{stroke:url(#linear-gradient-42);}.cls-43{stroke:url(#linear-gradient-43);}.cls-44{stroke:url(#linear-gradient-44);}.cls-45{stroke:url(#linear-gradient-45);}.cls-46{stroke:url(#linear-gradient-46);}.cls-47{stroke:url(#linear-gradient-47);}.cls-48{stroke:url(#linear-gradient-48);}.cls-49{stroke:url(#linear-gradient-49);}.cls-50{stroke:url(#linear-gradient-50);}.cls-51{stroke:url(#linear-gradient-51);}.cls-52{stroke:url(#linear-gradient-52);}</style><linearGradient id="linear-gradient" x1="-29.16" y1="1099.5" x2="5149.29" y2="1099.5" gradientTransform="translate(102.79 -223.01) rotate(5.09)" gradientUnits="userSpaceOnUse"><stop offset="0" stop-color="#1396f1" stop-opacity="0.1"/><stop offset="0.11" stop-color="#139ce8"/><stop offset="0.31" stop-color="#16d191"/><stop offset="0.74" stop-color="#12bf4b"/><stop offset="0.87" stop-color="#00b927"/><stop offset="1" stop-color="#00b927" stop-opacity="0.1"/></linearGradient><linearGradient id="linear-gradient-2" x1="-29.94" y1="1089.6" x2="5148.38" y2="1089.6" xlink:href="#linear-gradient"/><linearGradient id="linear-gradient-3" x1="-30.72" y1="1079.72" x2="5147.47" y2="1079.72" xlink:href="#linear-gradient"/><linearGradient id="linear-gradient-4" x1="-31.5" y1="1069.87" x2="5146.56" y2="1069.87" xlink:href="#linear-gradient"/><linearGradient id="linear-gradient-5" x1="-32.29" y1="1060.05" x2="5145.66" y2="1060.05" xlink:href="#linear-gradient"/><linearGradient id="linear-gradient-6" x1="-33.07" y1="1050.26" x2="5144.75" y2="1050.26" xlink:href="#linear-gradient"/><linearGradient id="linear-gradient-7" x1="-33.85" y1="1040.49" x2="5143.84" y2="1040.49" xlink:href="#linear-gradient"/><linearGradient id="linear-gradient-8" x1="-34.63" y1="1030.76" x2="5142.93" y2="1030.76" xlink:href="#linear-gradient"/><linearGradient id="linear-gradient-9" x1="-35.41" y1="1021.04" x2="5142.02" y2="1021.04" xlink:href="#linear-gradient"/><linearGradient id="linear-gradient-10" x1="-36.19" y1="1011.35" x2="5141.11" y2="1011.35" xlink:href="#linear-gradient"/><linearGradient id="linear-gradient-11" x1="-36.97" y1="1001.69" x2="5140.21" y2="1001.69" xlink:href="#linear-gradient"/><linearGradient id="linear-gradient-12" x1="-37.75" y1="992.05" x2="5139.3" y2="992.05" xlink:href="#linear-gradient"/><linearGradient id="linear-gradient-13" x1="-38.54" y1="982.43" x2="5138.39" y2="982.43" xlink:href="#linear-gradient"/><linearGradient id="linear-gradient-14" x1="-39.32" y1="972.83" x2="5137.48" y2="972.83" xlink:href="#linear-gradient"/><linearGradient id="linear-gradient-15" x1="-40.1" y1="963.24" x2="5136.57" y2="963.24" xlink:href="#linear-gradient"/><linearGradient id="linear-gradient-16" x1="-40.88" y1="953.68" x2="5135.67" y2="953.68" xlink:href="#linear-gradient"/><linearGradient id="linear-gradient-17" x1="-41.66" y1="944.12" x2="5134.76" y2="944.12" xlink:href="#linear-gradient"/><linearGradient id="linear-gradient-18" x1="-42.44" y1="934.58" x2="5133.85" y2="934.58" xlink:href="#linear-gradient"/><linearGradient id="linear-gradient-19" x1="-43.22" y1="925.05" x2="5132.94" y2="925.05" xlink:href="#linear-gradient"/><linearGradient id="linear-gradient-20" x1="-44" y1="915.52" x2="5132.03" y2="915.52" xlink:href="#linear-gradient"/><linearGradient id="linear-gradient-21" x1="-44.78" y1="906" x2="5131.13" y2="906" xlink:href="#linear-gradient"/><linearGradient id="linear-gradient-22" x1="-45.57" y1="896.48" x2="5130.22" y2="896.48" xlink:href="#linear-gradient"/><linearGradient id="linear-gradient-23" x1="-46.35" y1="886.97" x2="5129.31" y2="886.97" xlink:href="#linear-gradient"/><linearGradient id="linear-gradient-24" x1="-47.13" y1="877.45" x2="5128.4" y2="877.45" xlink:href="#linear-gradient"/><linearGradient id="linear-gradient-25" x1="-47.91" y1="867.92" x2="5127.49" y2="867.92" xlink:href="#linear-gradient"/><linearGradient id="linear-gradient-26" x1="-48.69" y1="858.39" x2="5126.58" y2="858.39" xlink:href="#linear-gradient"/><linearGradient id="linear-gradient-27" x1="-49.47" y1="848.85" x2="5125.68" y2="848.85" xlink:href="#linear-gradient"/><linearGradient id="linear-gradient-28" x1="-50.25" y1="839.29" x2="5124.77" y2="839.29" xlink:href="#linear-gradient"/><linearGradient id="linear-gradient-29" x1="-51.03" y1="829.73" x2="5123.86" y2="829.73" xlink:href="#linear-gradient"/><linearGradient id="linear-gradient-30" x1="-51.81" y1="820.15" x2="5122.95" y2="820.15" xlink:href="#linear-gradient"/><linearGradient id="linear-gradient-31" x1="-52.59" y1="810.55" x2="5122.04" y2="810.55" xlink:href="#linear-gradient"/><linearGradient id="linear-gradient-32" x1="-53.37" y1="800.94" x2="5121.13" y2="800.94" xlink:href="#linear-gradient"/><linearGradient id="linear-gradient-33" x1="-54.16" y1="791.31" x2="5120.23" y2="791.31" xlink:href="#linear-gradient"/><linearGradient id="linear-gradient-34" x1="-54.94" y1="781.65" x2="5119.32" y2="781.65" xlink:href="#linear-gradient"/><linearGradient id="linear-gradient-35" x1="-55.72" y1="771.98" x2="5118.41" y2="771.98" xlink:href="#linear-gradient"/><linearGradient id="linear-gradient-36" x1="-56.5" y1="762.28" x2="5117.5" y2="762.28" xlink:href="#linear-gradient"/><linearGradient id="linear-gradient-37" x1="-57.28" y1="752.56" x2="5116.59" y2="752.56" xlink:href="#linear-gradient"/><linearGradient id="linear-gradient-38" x1="-58.06" y1="742.82" x2="5115.68" y2="742.82" xlink:href="#linear-gradient"/><linearGradient id="linear-gradient-39" x1="-58.84" y1="733.05" x2="5114.77" y2="733.05" xlink:href="#linear-gradient"/><linearGradient id="linear-gradient-40" x1="-59.62" y1="723.26" x2="5113.86" y2="723.26" xlink:href="#linear-gradient"/><linearGradient id="linear-gradient-41" x1="-60.4" y1="713.45" x2="5112.95" y2="713.45" xlink:href="#linear-gradient"/><linearGradient id="linear-gradient-42" x1="-61.18" y1="703.61" x2="5112.04" y2="703.61" xlink:href="#linear-gradient"/><linearGradient id="linear-gradient-43" x1="-61.96" y1="693.74" x2="5111.14" y2="693.74" xlink:href="#linear-gradient"/><linearGradient id="linear-gradient-44" x1="-62.75" y1="683.86" x2="5110.23" y2="683.86" xlink:href="#linear-gradient"/><linearGradient id="linear-gradient-45" x1="-63.53" y1="673.94" x2="5109.32" y2="673.94" xlink:href="#linear-gradient"/><linearGradient id="linear-gradient-46" x1="-64.31" y1="664.01" x2="5108.41" y2="664.01" xlink:href="#linear-gradient"/><linearGradient id="linear-gradient-47" x1="-65.09" y1="654.05" x2="5107.5" y2="654.05" xlink:href="#linear-gradient"/><linearGradient id="linear-gradient-48" x1="-65.87" y1="644.07" x2="5106.59" y2="644.07" xlink:href="#linear-gradient"/><linearGradient id="linear-gradient-49" x1="-66.65" y1="634.06" x2="5105.68" y2="634.06" xlink:href="#linear-gradient"/><linearGradient id="linear-gradient-50" x1="-67.43" y1="624.03" x2="5104.77" y2="624.03" xlink:href="#linear-gradient"/><linearGradient id="linear-gradient-51" x1="-68.21" y1="613.98" x2="5103.86" y2="613.98" xlink:href="#linear-gradient"/><linearGradient id="linear-gradient-52" x1="-68.99" y1="603.91" x2="5102.95" y2="603.91" xlink:href="#linear-gradient"/></defs><title>SalesInbox</title><path class="cls-1" d="M5.83,538.88S1247.07,437.69,1016.16,869.17c-121,226.05,824.12,275.07,1484.18,146.06,474.11-92.67,1331.75,83.79,1416.14,522.05,46.27,240.29,1210.64-131,1210.64-131" transform="translate(-4.35 -89.99)"/><path class="cls-2" d="M5.8,530.38s1240.71-101.46,1014.71,326.9c-120.05,227.56,821.32,270.49,1481.89,150.35,475.17-86,1345.7,83.78,1418.57,518.61,40.26,240.24,1205.94-127.91,1205.94-127.91" transform="translate(-4.35 -89.99)"/><path class="cls-3" d="M5.77,521.89S1246,420.19,1024.87,845.4C905.74,1074.48,1843.38,1111.32,2504.46,1000c476.23-79.27,1359.57,83.93,1421,515.16,34.24,240.3,1201.24-124.78,1201.24-124.78" transform="translate(-4.35 -89.99)"/><path class="cls-4" d="M5.74,513.39s1239.77-101.9,1023.48,320.12C911,1064.12,1844.94,1094.85,2506.52,992.46c477.29-72.57,1373.33,84.24,1423.44,511.72,28.19,240.48,1196.55-121.65,1196.55-121.65" transform="translate(-4.35 -89.99)"/><path class="cls-5" d="M5.72,504.89S1245.08,402.83,1033.57,821.63c-117.25,232.16,812.92,256.76,1475,163.24,478.34-65.87,1387,84.7,1425.87,508.28,22.12,240.76,1191.85-118.52,1191.85-118.52" transform="translate(-4.35 -89.99)"/><path class="cls-6" d="M5.69,496.4s1239-102.19,1032.24,313.35c-116.29,233.72,809.94,250.77,1472.71,167.53,479.27-60.19,1400.46,85.32,1428.3,504.83,16,241.16,1187.15-115.39,1187.15-115.39" transform="translate(-4.35 -89.99)"/><path class="cls-7" d="M5.66,487.9s1238.7-102.29,1036.62,310c-115.33,235.29,807.13,245.94,1470.42,171.83C2993,916,3926.5,1055.77,3943.43,1471.08c9.85,241.66,1182.45-112.26,1182.45-112.26" transform="translate(-4.35 -89.99)"/><path class="cls-8" d="M5.63,479.4S1244.06,377,1046.63,786C932.27,1022.86,1851,1027.11,2514.75,962.1c481.38-47.15,1427,87,1433.17,497.94,3.64,242.26,1177.76-109.14,1177.76-109.14" transform="translate(-4.35 -89.99)"/><path class="cls-9" d="M5.6,470.91S1243.81,368.52,1051,774.1c-113.38,238.48,801.54,236.33,1465.83,180.41,482.45-40.61,1440,88,1435.6,494.5-2.63,243,1173.06-106,1173.06-106" transform="translate(-4.35 -89.99)"/><path class="cls-10" d="M5.58,462.41s1238-102.39,1049.77,299.8C943,1002.3,1854.09,993.76,2518.87,946.92c483.52-34.07,1452.81,89.14,1438,491.06-9,243.76,1168.36-102.88,1168.36-102.88" transform="translate(-4.35 -89.99)"/><path class="cls-11" d="M5.55,453.92S1243.44,351.55,1059.7,750.33c-111.38,241.72,796,226.77,1461.24,189,484.59-27.51,1465.43,90.39,1440.46,487.61-15.38,244.64,1163.66-99.75,1163.66-99.75" transform="translate(-4.35 -89.99)"/><path class="cls-12" d="M5.52,445.42s1237.81-102.3,1058.53,293c-110.36,243.36,793.2,222,1458.94,193.3,485.67-20.95,1477.84,91.73,1442.89,484.17-21.87,245.59,1159-96.62,1159-96.62" transform="translate(-4.35 -89.99)"/><path class="cls-13" d="M5.49,436.92S1243.26,334.71,1068.4,726.56c-109.33,245,790.43,217.27,1456.65,197.59,486.75-14.37,1490,93.15,1445.33,480.72-28.45,246.61,1154.27-93.49,1154.27-93.49" transform="translate(-4.35 -89.99)"/><path class="cls-14" d="M5.46,428.43s1237.77-102.1,1067.29,286.25C964.47,961.36,1860.42,927.21,2527.11,916.57c487.83-7.79,1502,94.64,1447.76,477.28-35.13,247.7,1149.57-90.36,1149.57-90.36" transform="translate(-4.35 -89.99)"/><path class="cls-15" d="M5.44,419.93S1243.25,318,1077.11,702.8C969.89,951.15,1862,904.26,2529.17,909c488.91,3.46,1513.8,96.19,1450.19,473.83-41.91,248.83,1144.87-87.24,1144.87-87.24" transform="translate(-4.35 -89.99)"/><path class="cls-16" d="M5.41,411.43s1237.9-101.79,1076.06,279.48C975.32,941,1863.61,894,2531.23,901.39c490,5.4,1525.36,97.77,1452.62,470.39-48.8,250,1140.17-84.11,1140.17-84.11" transform="translate(-4.35 -89.99)"/><path class="cls-17" d="M5.38,402.94s1238-101.6,1080.44,276.09c-105,251.76,779.4,198.42,1447.47,214.77,491.1,12,1536.7,99.38,1455.05,466.95-55.8,251.21,1135.48-81,1135.48-81" transform="translate(-4.35 -89.99)"/><path class="cls-18" d="M5.35,394.44S1243.56,293.06,1090.17,667.15C986.24,920.62,1866.82,860.89,2535.35,886.21c492.2,18.64,1547.83,101,1457.49,463.5-62.92,252.44,1130.78-77.85,1130.78-77.85" transform="translate(-4.35 -89.99)"/><path class="cls-19" d="M5.32,385.94S1243.75,284.8,1094.52,655.26c-102.8,255.21,773.9,189.08,1442.88,223.36,493.29,25.27,1558.76,102.63,1459.92,460.06C3927.17,1592.35,5123.4,1264,5123.4,1264" transform="translate(-4.35 -89.99)"/><path class="cls-20" d="M5.3,377.45S1244,276.57,1098.88,643.38C997.23,900.33,1870,827.81,2539.46,871,3033.85,902.95,4109,975.26,4001.81,1327.65c-77.51,254.9,1121.38-71.59,1121.38-71.59" transform="translate(-4.35 -89.99)"/><path class="cls-21" d="M5.27,369s1239-100.59,1098,262.54c-100.48,258.71,768.4,179.8,1438.29,231.95C3037,902,4121.56,969.26,4006.3,1316.61c-85,256.12,1116.69-68.47,1116.69-68.47" transform="translate(-4.35 -89.99)"/><path class="cls-22" d="M5.24,360.45S1244.59,260.17,1107.59,619.61c-99.28,260.47,765.66,175.18,1436,236.24C3040.17,901.09,4134,963.21,4010.79,1305.58c-92.58,257.32,1112-65.34,1112-65.34" transform="translate(-4.35 -89.99)"/><path class="cls-23" d="M5.21,352S1245,252,1111.94,607.73C1013.88,870,1874.85,778.3,2545.64,848.27c497.68,51.91,1600.58,108.85,1469.65,446.28C3915,1553,5122.58,1232.34,5122.58,1232.34" transform="translate(-4.35 -89.99)"/><path class="cls-24" d="M5.18,343.46s1240.17-99.6,1111.11,252.38c-96.82,264,760.16,166,1431.41,244.83C3046.48,899.27,4158.3,951,4019.78,1283.51c-108.14,259.6,1102.59-59.08,1102.59-59.08" transform="translate(-4.35 -89.99)"/><path class="cls-25" d="M5.16,335S1245.8,235.73,1120.65,584c-95.55,265.85,757.41,161.4,1429.11,249.13,499.88,65.28,1620.48,111.65,1474.51,439.39-116.1,260.67,1097.9-56,1097.9-56" transform="translate(-4.35 -89.99)"/><path class="cls-26" d="M5.13,326.47S1246.29,227.61,1125,572.08c-94.25,267.67,754.66,156.83,1426.82,253.42,501,72,1630.22,112.95,1476.94,435.95-124.18,261.67,1093.2-52.82,1093.2-52.82" transform="translate(-4.35 -89.99)"/><path class="cls-27" d="M5.1,318s1241.73-98.46,1124.26,242.22c-92.93,269.5,751.91,152.28,1424.52,257.72,502.06,78.7,1639.83,114.16,1479.37,432.5-132.37,262.6,1088.5-49.7,1088.5-49.7" transform="translate(-4.35 -89.99)"/><path class="cls-28" d="M5.07,309.48s1242.33-98,1128.64,238.83c-91.57,271.34,749.15,147.74,1422.23,262,503.15,85.42,1649.33,115.29,1481.81,429.06-140.66,263.46,1083.8-46.57,1083.8-46.57" transform="translate(-4.35 -89.99)"/><path class="cls-29" d="M5,301s1243-97.61,1133,235.45C1047.88,809.61,1884.45,679.64,2558,802.73c504.24,92.15,1658.73,116.32,1484.24,425.62-149.07,264.23,1079.11-43.44,1079.11-43.44" transform="translate(-4.35 -89.99)"/><path class="cls-30" d="M5,292.48s1243.65-97.17,1137.4,232.06c-88.77,275,743.63,138.69,1417.64,270.6,505.33,98.9,1668,117.26,1486.67,422.17C3889.15,1482.22,5121.13,1177,5121.13,1177" transform="translate(-4.35 -89.99)"/><path class="cls-31" d="M5,284s1244.38-96.71,1141.78,228.67c-87.31,276.92,740.86,134.19,1415.34,274.89,506.41,105.64,1677.27,118.09,1489.1,418.73C3885,1471.77,5120.92,1169.1,5120.92,1169.1" transform="translate(-4.35 -89.99)"/><path class="cls-32" d="M5,275.49S1250.1,179.25,1151.12,500.78c-85.82,278.81,738.09,129.69,1413,279.19,507.49,112.4,1686.43,118.83,1491.53,415.28-174.85,266,1065-34.05,1065-34.05" transform="translate(-4.35 -89.99)"/><path class="cls-33" d="M4.93,267s1245.94-95.76,1150.55,221.9c-84.3,280.7,735.31,125.21,1410.75,283.48,508.56,119.17,1695.53,119.46,1494,411.84-183.62,266.34,1060.31-30.93,1060.31-30.93" transform="translate(-4.35 -89.99)"/><path class="cls-34" d="M4.9,258.5S1251.69,163.22,1159.83,477c-82.73,282.6,732.53,120.74,1408.46,287.78,509.64,125.94,1704.59,120,1496.4,408.4-192.46,266.61,1055.62-27.8,1055.62-27.8" transform="translate(-4.35 -89.99)"/><path class="cls-35" d="M4.87,250s1247.67-94.78,1159.31,215.13C1083.07,749.64,1893.93,581.4,2570.35,757.2c510.7,132.73,1713.61,120.41,1498.83,405-201.37,266.77,1050.92-24.67,1050.92-24.67" transform="translate(-4.35 -89.99)"/><path class="cls-36" d="M4.85,241.5s1248.59-94.27,1163.69,211.74c-79.47,286.44,727,111.82,1403.87,296.37C3084.17,889.13,4295,870.34,4073.67,1151.12c-210.34,266.81,1046.22-21.54,1046.22-21.54" transform="translate(-4.35 -89.99)"/><path class="cls-37" d="M4.82,233s1249.55-93.76,1168.07,208.35C1095.12,729.73,1897,548.74,2574.47,742,3087.29,888.34,4306.05,863,4078.16,1140.08c-219.36,266.75,1041.52-18.41,1041.52-18.41" transform="translate(-4.35 -89.99)"/><path class="cls-38" d="M4.79,224.51s1250.54-93.24,1172.46,205c-76,290.31,721.35,102.95,1399.28,305,513.88,153.12,1740.55,121.06,1506.13,394.62-228.44,266.57,1036.83-15.28,1036.83-15.28" transform="translate(-4.35 -89.99)"/><path class="cls-39" d="M4.76,216S1256.34,123.29,1181.6,417.59c-74.22,292.26,718.54,98.52,1397,309.25C3093.51,886.78,4328.1,847.91,4087.14,1118c-237.55,266.28,1032.13-12.16,1032.13-12.16" transform="translate(-4.35 -89.99)"/><path class="cls-40" d="M4.73,207.52S1257.39,115.32,1186,405.71c-72.37,294.22,715.72,94.11,1394.69,313.55,516,166.76,1758.48,121,1511,387.73-246.7,265.88,1027.43-9,1027.43-9" transform="translate(-4.35 -89.99)"/><path class="cls-41" d="M4.71,199s1253.76-91.68,1185.6,194.8C1119.84,690,1903.2,483.52,2582.7,711.66c517,173.58,1767.46,120.81,1513.42,384.29-255.88,265.38,1022.73-5.9,1022.73-5.9" transform="translate(-4.35 -89.99)"/><path class="cls-42" d="M4.68,190.52s1254.91-91.15,1190,191.42c-68.51,298.15,710.06,85.3,1390.1,322.13,518,180.41,1776.46,120.54,1515.85,380.84-265.08,264.77,1018-2.77,1018-2.77" transform="translate(-4.35 -89.99)"/><path class="cls-43" d="M4.65,182S1260.74,91.4,1199,370.06C1132.53,670.18,1906.24,451,2586.82,696.49c519.07,187.25,1785.47,120.19,1518.29,377.4-274.3,264.06,1013.34.36,1013.34.36" transform="translate(-4.35 -89.99)"/><path class="cls-44" d="M4.62,173.53S1261.93,83.42,1203.37,358.17C1139,660.28,1907.74,434.7,2588.88,688.9,3109,883,4383.39,808.64,4109.6,1062.85c-283.53,263.25,1008.64,3.49,1008.64,3.49" transform="translate(-4.35 -89.99)"/><path class="cls-45" d="M4.59,165s1258.56-89.6,1203.13,181.25c-62.24,304.09,701.52,72.15,1383.22,335C3112,882.25,4394.52,800.52,4114.09,1051.82c-292.76,262.34,1003.94,6.61,1003.94,6.61" transform="translate(-4.35 -89.99)"/><path class="cls-46" d="M4.57,156.54S1264.42,67.45,1212.08,334.41c-60,306.08,698.13,69.11,1380.92,339.31,521.71,208.83,1812.69,118.61,1525.58,367.07-302,261.34,999.25,9.74,999.25,9.74" transform="translate(-4.35 -89.99)"/><path class="cls-47" d="M4.54,148S1265.72,59.46,1216.43,322.52c-57.72,308.08,695.33,64.54,1378.63,343.61,522.76,215.53,1821.83,117.93,1528,363.62-311.23,260.26,994.55,12.87,994.55,12.87" transform="translate(-4.35 -89.99)"/><path class="cls-48" d="M4.51,139.55S1267,51.45,1220.78,310.64c-55.35,310.07,692.53,60,1376.33,347.9,523.82,222.23,1831,117.18,1530.44,360.18-320.46,259.09,989.85,16,989.85,16" transform="translate(-4.35 -89.99)"/><path class="cls-49" d="M4.48,131S1268.41,43.44,1225.14,298.76c-52.89,312.06,689.73,55.38,1374,352.2,524.88,228.93,1840.22,116.36,1532.88,356.73-329.68,257.84,985.15,19.13,985.15,19.13" transform="translate(-4.35 -89.99)"/><path class="cls-50" d="M4.45,122.55s1265.36-87.14,1225,164.32c-50.36,314.06,686.93,50.8,1371.74,356.49C3127.17,879,4450.72,758.84,4136.54,996.65c-338.89,256.51,980.45,22.26,980.45,22.26" transform="translate(-4.35 -89.99)"/><path class="cls-51" d="M4.43,114.06S1271.24,27.38,1233.84,275C1186.11,591,1918,321.22,2603.29,635.77,3130.29,878.1,4462.08,750.31,4141,985.62,3793,1240.73,5116.79,1011,5116.79,1011" transform="translate(-4.35 -89.99)"/><path class="cls-52" d="M4.4,105.56S1272.71,19.32,1238.2,263.1c-45,318,681.33,41.65,1367.15,365.08,528.05,249,1868.14,113.54,1540.17,346.4-357.24,253.65,971.06,28.51,971.06,28.51" transform="translate(-4.35 -89.99)"/></svg>