<?xml version="1.0" encoding="UTF-8"?>
<svg width="1285px" height="800px" viewBox="0 0 1285 800" version="1.1" xmlns="http://www.w3.org/2000/svg" xmlns:xlink="http://www.w3.org/1999/xlink">
    <!-- Generator: Sketch 49.3 (51167) - http://www.bohemiancoding.com/sketch -->
    <title>banner-3</title>
    <desc>Created with Sketch.</desc>
    <defs>
        <linearGradient x1="50%" y1="11.4264097%" x2="50%" y2="66.2785912%" id="linearGradient-1">
            <stop stop-color="#44C2DF" offset="0%"></stop>
            <stop stop-color="#85DAEE" offset="100%"></stop>
        </linearGradient>
        <polygon id="path-2" points="0 0.0565349544 147.014781 0.0565349544 147.014781 273.93921 0 273.93921"></polygon>
        <polygon id="path-4" points="0.966987079 0.0885974675 128.702118 0.0885974675 128.702118 6.27617901 0.966987079 6.27617901"></polygon>
    </defs>
    <g id="banner-3" stroke="none" stroke-width="1" fill="none" fill-rule="evenodd">
        <g id="Page-1" transform="translate(-597.000000, -3.000000)">
            <g id="Tim-final" transform="translate(594.000000, -100.000000)">
                <g id="Layer_5">
                    <path d="M1272.3428,712.716263 L1218.41693,806.740484 C1218.31651,806.941176 1218.31651,807.141869 1218.31651,807.442907 L1224.64301,826.508651 C1224.84385,827.211073 1225.74763,827.311419 1226.14932,826.608997 L1284.89537,723.051903 C1285.09621,722.750865 1284.99579,722.249135 1284.69453,722.048443 L1273.64826,712.515571 C1273.24658,712.214533 1272.64406,712.314879 1272.3428,712.716263 Z" id="Shape" fill="#E5E1D6" fill-rule="nonzero"></path>
                    <path d="M1227.04685,817.40675 C1225.80142,816.146724 1224.52272,814.851697 1223.20898,813.572421 C1196.62974,787.690409 1155.85799,753.810446 1122.68347,741.490194 C1100.26058,733.090022 1075.91438,731.339986 1052.26709,727.839914 C982.024124,717.687956 913.184231,692.312436 856.957979,649.088301 C838.213559,634.387999 822.80078,620.037705 805.284268,608.662472 C775.32928,589.06032 739.770761,579.086866 704.038828,575.586794 C701.584764,575.411791 699.132453,575.236787 696.855306,575.060034 C668.655473,572.961741 640.276972,574.711776 612.250552,571.559962 C554.446062,564.911576 500.67037,538.486034 460.382392,496.660177 C449.346989,485.10994 438.837082,471.984671 424.823872,464.284514 C412.737479,457.634377 398.549104,455.359331 385.586885,450.45923 C371.225096,445.034119 333.913174,437.508965 288.021664,420.883624 C216.377377,394.80634 123.539863,346.332097 62.9344823,248.678346 C44.5421446,218.754483 30.0016878,186.378819 20.192441,152.778131 C10.7335244,121.102482 4.25416657,85.7517571 1.44977297,46.7259575 C0.363749219,31.7439005 -0.0916800978,16.152831 0.0151706264,0 L1097.84505,0 C1127.41117,63.001291 1116.58597,131.042685 1136.78426,196.474776 C1147.34672,230.670477 1170.99401,249.082604 1193.81627,275.105637 C1246.15736,334.76436 1268.33327,403.08576 1270.34767,481.800623 C1272.01173,547.673722 1234.76089,669.13074 1280.69094,724.169368 L1227.04685,817.40675 Z" id="Fill-1" fill="url(#linearGradient-1)" opacity="0.202898551"></path>
                </g>
            </g>
        </g>
        <polygon id="Polygon-2" fill="#E73D34" opacity="0.594089674" transform="translate(1033.500000, 261.500000) rotate(15.000000) translate(-1033.500000, -261.500000) " points="1033.5 252 1043 259.257354 1039.37132 271 1027.62868 271 1024 259.257354"></polygon>
        <circle id="Oval" fill="#E73D34" opacity="0.752321105" cx="1171" cy="415" r="5"></circle>
        <polygon id="Page-1" fill="#E73D34" opacity="0.702162591" transform="translate(1058.000000, 107.500000) scale(1, -1) rotate(28.000000) translate(-1058.000000, -107.500000) " points="1058.02503 98 1052.51301 107.525 1047 117 1058.02503 117 1069 117 1063.48699 107.525"></polygon>
        <polygon id="Page-1" fill="#E73D34" opacity="0.498697917" points="761.999505 315 748 329.00099 761.999505 343 776 329.00099"></polygon>
        <polygon id="Page-1" fill="#E73D34" opacity="0.513360507" transform="translate(573.000000, 41.500000) scale(1, -1) rotate(-21.000000) translate(-573.000000, -41.500000) " points="573.025027 32 567.513014 41.525 562 51 573.025027 51 584 51 578.486986 41.525"></polygon>
        <polygon id="Page-1" fill="#E73D34" opacity="0.819067029" transform="translate(551.000000, 368.500000) scale(1, -1) rotate(-21.000000) translate(-551.000000, -368.500000) " points="551.025027 359 545.513014 368.525 540 378 551.025027 378 562 378 556.486986 368.525"></polygon>
        <circle id="Oval" fill="#E73D34" opacity="0.708899457" cx="127" cy="50" r="5"></circle>
        <rect id="Rectangle-16" fill="#E73D34" opacity="0.622112772" transform="translate(1085.500000, 564.500000) rotate(-5.000000) translate(-1085.500000, -564.500000) " x="1079" y="558" width="13" height="13"></rect>
        <g id="Page-1" transform="translate(791.000000, 373.000000)">
            <polygon id="Fill-1" fill="#E5E1D6" points="418.915427 329.0356 425.715042 351.456953 298.428261 352.613138 303.864115 329.0356"></polygon>
            <polygon id="Fill-2" fill="#356B93" points="70.1231154 135.560638 75.0276183 122.044195 133.122408 166.904909 124.675964 184.102416 70.2202699 140.722052"></polygon>
            <g id="Group-69" transform="translate(0.000000, 0.494650)">
                <path d="M60.6880947,181.702161 C60.5609542,204.154729 74.0774233,229.790109 83.5349935,243.945277 C93.056134,258.190489 115.622364,285.186158 135.724949,307.194502 C151.869387,324.841036 166.408977,339.277146 171.373451,341.336188 C182.516232,345.951325 229.46944,338.796903 243.755949,338.370687 C258.032862,337.934866 306.091951,338.016508 306.091951,338.016508 C306.091951,338.016508 306.752842,335.241903 307.360957,331.006158 C308.52921,322.654729 310.588645,312.169821 305.622971,302.249198 C263.334378,297.086584 183.594527,287.245201 183.594527,287.245201 C183.594527,287.245201 151.164117,269.35134 138.372109,236.60596 C136.623328,232.136097 135.164811,227.501751 133.887409,222.796568 C130.36346,209.88403 128.144499,196.434821 124.746491,184.320687 C122.05735,179.505049 118.667738,175.025581 114.45651,171.008347 C101.610527,158.758544 106.291935,147.65172 97.6499823,141.050778 C69.9285666,147.225505 60.787648,163.4121 60.6880947,181.702161" id="Fill-3" fill="#A06A45"></path>
                <path d="M75.8913337,116.832956 C75.613064,117.885889 75.292814,118.908807 74.9221876,119.918518 C74.6846989,119.578746 74.4580051,119.237774 74.2205163,118.898002 L75.8913337,116.832956 Z" id="Fill-5" fill="#BC1531"></path>
                <g id="Group-9" transform="translate(0.000000, 119.860182)">
                    <mask id="mask-3" fill="white">
                        <use xlink:href="#path-2"></use>
                    </mask>
                    <g id="Clip-8"></g>
                    <path d="M1.01916264,261.933131 C-1.76353399,221.448632 1.91874129,180.399848 2.97424691,139.555167 C3.75388174,109.119757 3.20214017,74.8424012 24.0363817,52.2949848 C33.2480671,42.3419453 40.4087132,36.5670213 51.2756233,28.3668693 C54.6460447,25.8455927 57.9325053,23.1202128 61.0030671,20.1787234 C62.1785166,19.0621581 63.3059885,17.9095745 64.3854829,16.7209726 C66.8323368,14.0676292 69.0393031,11.2702128 70.8984323,8.29270517 C71.893966,6.69589666 72.7815503,5.06306991 73.5611851,3.35820669 C73.6931233,3.09407295 73.8130671,2.81793313 73.933011,2.54179331 C74.2928424,1.72537994 74.6166907,0.896960486 74.9165503,0.0565349544 C75.6961851,1.18510638 76.4878143,2.31367781 77.2794435,3.43024316 C78.3109604,4.87097264 79.3544716,6.31170213 80.3979829,7.74042553 C81.1056514,8.68890578 81.8133199,9.62537994 82.5329829,10.5618541 C85.6515222,14.6679331 88.8900053,18.6779635 92.2484323,22.5919453 C96.4344716,27.4784195 100.800427,32.2208207 105.334303,36.8071429 C107.277393,38.7761398 109.256466,40.7211246 111.259528,42.6300912 C111.595371,42.9542553 111.943208,43.3024316 112.291045,43.662614 C112.566915,43.9387538 112.854781,44.2389058 113.130651,44.5390578 C115.325623,46.9402736 117.652533,49.9778116 119.967449,53.3155015 C120.831045,54.5401216 121.69464,55.812766 122.546241,57.1214286 C122.930062,57.7097264 123.301887,58.2860182 123.673713,58.8743161 C124.32141,59.8828267 124.957112,60.8913374 125.58082,61.9118541 C129.934781,68.9714286 133.880932,76.1990881 136.471719,81.2056231 C140.357899,88.7454407 141.713264,93.4518237 142.66082,101.856079 C143.680342,110.872644 143.908236,119.444985 143.680342,127.777204 C143.416466,137.141945 142.564865,146.206535 141.605314,155.283131 C140.405876,166.724924 139.014528,178.178723 138.39082,190.220821 C138.066972,196.512006 137.947028,202.959271 138.174921,209.658663 C138.39082,216.093921 138.858601,222.505167 139.554275,228.904407 C139.662224,229.924924 139.782168,230.945441 139.890118,231.965957 C140.849668,240.166109 142.133067,248.330243 143.620371,256.482371 C143.944219,258.295289 144.280062,260.120213 144.627899,261.933131 C145.383545,265.943161 146.187168,269.941185 147.014781,273.93921 C49.8682825,268.608511 1.2030765,264.606484 1.01916264,261.933131 Z" id="Fill-7" fill="#4077A8" mask="url(#mask-3)"></path>
                </g>
                <g id="Group-12" transform="translate(297.460674, 349.376900)">
                    <mask id="mask-5" fill="white">
                        <use xlink:href="#path-4"></use>
                    </mask>
                    <g id="Clip-11"></g>
                    <path d="M128.702358,3.18209119 C128.702358,1.44721277 127.277425,0.052106383 125.544237,0.089325228 C125.544237,0.089325228 8.21519213,0.927349544 0.966987079,2.74146809 C0.966987079,6.36730395 125.521448,6.27485714 125.521448,6.27485714 C127.263032,6.32528267 128.702358,4.92657447 128.702358,3.18209119" id="Fill-10" fill="#EDEBE6" mask="url(#mask-5)"></path>
                </g>
                <path d="M291.239668,329.830643 C306.404165,329.481266 309.600668,333.347223 319.221362,335.146935 C328.843255,336.945445 337.998567,334.246479 337.998567,334.246479 L353.412547,331.24736 L363.833266,334.01236 L379.554303,339.36347 C381.455412,340.010597 383.560426,339.910947 385.327199,338.957664 C386.272356,338.448606 386.974028,337.801479 386.688561,337.060704 C386.688561,337.060704 387.570148,337.144746 389.334522,337.311631 C391.098896,337.478515 396.72546,334.44578 387.437011,329.11388 L386.671769,324.080932 C386.452272,322.631798 385.929317,321.246296 385.136488,320.012071 L379.792991,311.702664 C378.510792,309.709655 376.524522,308.276129 374.229997,307.687831 L363.112404,304.838789 C362.049702,304.566251 361.051769,304.092011 360.150991,303.464093 C358.834008,302.546828 356.078898,300.869579 350.489516,298.158606 C348.737137,297.308576 346.752067,297.034837 344.836564,297.385415 C329.47416,300.19964 313.60919,303.38005 290.457634,300.355719 L291.239668,329.830643 Z" id="Fill-13" fill="#A06A45"></path>
                <path d="M162.721664,124.728394 C162.794829,124.891676 162.866796,125.045354 162.948358,125.200233 C164.080627,127.448971 165.828209,129.524822 167.975203,129.952239 C168.057964,129.969047 168.139526,129.987056 168.211492,130.006266 C168.456178,129.144229 168.736846,127.919609 168.583318,127.421357 C168.446582,126.995141 168.183905,126.586935 167.722122,126.487284 C167.568594,126.451266 167.40547,126.451266 167.242346,126.414047 C166.952082,126.342011 166.725388,126.124701 166.480703,125.943409 C165.992532,125.598834 165.376021,125.371919 164.787096,125.499184 C164.71513,125.517193 164.641964,125.544807 164.569998,125.535202 C164.008661,125.461965 163.682414,124.255354 162.912374,124.637147 L162.721664,124.728394 Z" id="Fill-15" fill="#E0DDDC"></path>
                <path d="M162.948358,125.199752 C163.500099,125.100102 164.080627,124.891196 164.460849,125.108506 C164.560403,125.173339 164.633568,125.263384 164.705535,125.345026 C165.322046,126.032974 166.281596,126.315117 167.196768,126.324722 C167.658551,126.324722 168.139526,126.26109 168.565327,126.432777 C168.790821,126.524023 168.991127,126.677701 169.217821,126.777351 C169.887108,127.067898 170.575585,126.79536 171.128526,126.387153 C172.043697,125.698005 173.185563,122.333901 173.429049,121.590725 C172.378341,121.734798 171.146518,121.563111 169.787554,120.882366 C166.164051,119.070649 162.540549,117.25653 161.634973,119.070649 C161.163594,120.022731 161.679352,122.722898 162.948358,125.199752" id="Fill-17" fill="#FFFFFF"></path>
                <path d="M186.100753,88.2341155 C186.100753,91.867155 193.351357,109.09948 187.915503,112.722915 C182.757919,116.161456 180.860408,112.248675 178.343987,114.188857 C178.209649,114.282505 178.076512,114.406167 177.942175,114.540635 C177.797043,114.684708 177.684296,114.819176 177.579944,114.942839 C176.838692,115.923736 177.148147,116.635696 177.271689,117.452109 L177.271689,117.47372 C177.281284,117.503736 177.281284,117.544556 177.281284,117.575772 C177.343655,117.968371 177.323265,118.390985 177.116961,118.886836 C177.106166,118.938462 177.065385,119.011699 177.043796,119.07293 C176.910658,119.340666 176.724745,119.620407 176.507647,119.877337 C175.888737,120.621714 174.971166,121.261638 173.795717,121.519769 C173.66138,121.550985 173.548633,121.571395 173.433487,121.591805 C172.981298,121.654237 172.495526,121.654237 171.980967,121.581 C171.660717,121.540179 171.320076,121.468143 170.96984,121.354085 C170.58722,121.241228 170.185408,121.08635 169.783596,120.878644 C167.534649,119.754875 165.285703,118.639511 163.697647,118.371775 L163.677256,118.371775 C162.70811,118.216897 161.986048,118.390985 161.634613,119.07293 C161.407919,119.537565 161.417515,120.466836 161.634613,121.571395 C161.687388,121.809116 161.74856,122.056441 161.820526,122.314571 C162.037624,123.078158 162.336284,123.905377 162.728501,124.730195 C162.800467,124.895878 162.872433,125.039951 162.955194,125.19483 C163.522529,126.321 164.24459,127.405149 165.090194,128.262383 C165.935798,129.118416 166.904944,129.73793 167.978442,129.95524 C168.060003,129.964845 168.133169,130.006866 168.21593,130.006866 C171.104178,130.667201 170.28856,132.142748 168.936793,133.888432 C168.741284,134.135757 168.534981,134.383082 168.339472,134.641213 C168.21593,134.797292 168.091189,134.941365 167.967647,135.096243 C167.648596,135.488842 167.339141,135.891046 167.070467,136.293249 C165.73909,138.286258 165.388854,139.309176 165.657529,141.136502 C165.73909,141.796836 165.926203,142.571228 166.173287,143.552125 C166.265644,143.913508 166.328015,144.295301 166.3592,144.697505 C166.420371,145.492307 166.3592,146.349541 166.142102,147.186365 C165.368464,150.210696 162.594163,152.998508 156.198759,151.71866 C152.547669,150.975483 149.030916,149.797687 145.853604,148.838401 C144.96722,148.580271 144.120416,148.332945 143.295203,148.115635 L143.285607,148.115635 C143.274812,148.115635 143.274812,148.115635 143.265217,148.10483 C143.027728,148.042398 142.790239,147.981167 142.563546,147.929541 C142.368037,147.877915 142.182124,147.837094 141.996211,147.785468 C140.933509,147.547748 139.933178,147.361653 138.995217,147.289617 C138.86088,147.269207 138.737338,147.258401 138.613796,147.258401 C137.014944,147.165954 135.622397,147.383264 134.456543,148.08562 C134.436152,148.094024 134.414562,148.115635 134.384576,148.137246 C133.528178,148.652307 132.868487,149.179374 132.332338,149.70524 L132.012088,150.025802 C131.816579,150.232307 131.640262,150.448416 131.465144,150.654921 C131.444753,150.676532 131.433958,150.695742 131.402773,150.728158 C129.742751,152.741578 123.028296,168.093751 119.96493,173.193933 L112.744312,163.901228 L70.4557197,127.766532 C70.4557197,127.766532 76.5620596,108.325088 77.2433404,99.2701033 C77.5012197,95.9660304 77.5827815,92.2813647 77.3560876,88.3889939 C77.077818,83.422079 76.2825904,78.1261976 74.6741438,72.8195106 C68.3303152,51.9637508 71.0434444,4.8122766 131.743413,4.8122766 C170.340135,4.8122766 184.398751,24.9764863 189.514354,39.6575198 C190.422329,42.2700426 191.050835,44.706076 191.474237,46.8227477 C191.866453,48.6908936 192.093147,50.3117143 192.237079,51.6023678 C192.444582,53.5437508 192.444582,54.6903313 192.444582,54.6903313 C192.444582,54.6903313 192.701262,59.3258784 192.938751,64.3432188 C193.155849,68.7422462 193.351357,73.4282188 193.351357,75.5460912 C193.351357,80.0771854 186.100753,84.6094802 186.100753,88.2341155" id="Fill-19" fill="#BF8258"></path>
                <path d="M182.383574,86.0861079 C182.02974,86.3670502 181.827035,86.4330836 181.558361,86.5435395 C181.305279,86.6407888 181.055796,86.7200289 180.806313,86.7764574 C180.308546,86.9061231 179.814378,86.9685547 179.322608,87.0201809 C178.340268,87.1138283 177.371122,87.1030228 176.410372,87.0586003 C174.487673,86.9433419 172.602156,86.6443906 170.738229,86.2734027 C172.632142,86.4246793 174.533251,86.5003176 176.409173,86.3934635 C177.344735,86.3274301 178.275499,86.2277796 179.170279,86.036883 C179.615271,85.9360319 180.057864,85.8243754 180.464473,85.6646945 C180.671976,85.5938587 180.867485,85.5026125 181.0474,85.408965 C181.214122,85.3321261 181.433619,85.1664422 181.444414,85.1460319 L182.383574,86.0861079 Z" id="Fill-21" fill="#9B643E"></path>
                <path d="M178.407557,86.7263921 C178.559885,87.2618632 178.535897,87.6748723 178.469928,88.0590669 C178.394363,88.4372584 178.25043,88.7686261 178.051324,89.0603739 C177.852217,89.3533222 177.591939,89.6042492 177.266891,89.8095532 C176.932248,90.0076535 176.553225,90.1769392 175.996686,90.2225623 C175.841958,89.6858906 175.865947,89.2716809 175.931916,88.8874863 C176.00868,88.5092948 176.151413,88.1791277 176.354119,87.8885805 C176.555624,87.5980334 176.814703,87.3471064 177.139751,87.1418024 C177.475593,86.9437021 177.853416,86.7732158 178.407557,86.7263921" id="Fill-23" fill="#9B643E"></path>
                <path d="M190.061658,82.8091687 C189.099709,82.0539863 187.917063,81.4836976 186.609675,81.1079073 C185.29749,80.7345182 183.868959,80.5988495 182.428433,80.5532264 C180.981911,80.5112052 179.507801,80.637269 178.039689,80.8341687 C176.579973,81.0406733 175.085473,81.3336216 173.688127,81.733424 L173.135186,80.2350653 C174.620091,79.6215547 176.093001,79.1569195 177.625883,78.7547158 C179.152768,78.3681201 180.713237,78.049959 182.320484,77.9106884 C183.927731,77.777421 185.57456,77.7353997 187.256172,78.0055365 C188.930588,78.2816763 190.636189,78.8303541 192.206254,79.8028465 L190.061658,82.8091687 Z" id="Fill-25" fill="#665142"></path>
                <path d="M177.116721,118.887196 C177.105926,118.938822 177.065146,119.012059 177.043556,119.07209 C176.910418,119.341026 176.724505,119.619567 176.508606,119.877698 C175.611426,120.61247 174.609896,121.271603 173.795477,121.518929 C173.66114,121.551345 173.548393,121.570555 173.434446,121.592166 C173.220946,121.62098 172.99905,121.632986 172.772356,121.634187 C172.723179,121.634187 172.674002,121.630585 172.624825,121.629384 C172.442511,121.624582 172.256598,121.612576 172.065887,121.588564 C172.037101,121.584962 172.009513,121.586163 171.980727,121.58136 C171.908761,121.571755 171.831997,121.556147 171.758831,121.542941 C171.700058,121.532135 171.643685,121.524932 171.583713,121.512926 C171.383407,121.470904 171.179502,121.421679 170.969601,121.354445 C170.588179,121.241588 170.185168,121.08671 169.783356,120.879005 C167.53441,119.755236 165.286662,118.639871 163.697407,118.370935 C167.25614,117.720205 172.939078,116.657667 176.69332,117.441664 C176.683724,117.462074 176.941603,117.462074 177.271449,117.45247 L177.271449,117.47288 C177.281044,117.504096 177.281044,117.544916 177.281044,117.576132 C177.343415,117.96753 177.323025,118.391345 177.116721,118.887196" id="Fill-27" fill="#F0AF9A"></path>
                <path d="M168.937392,133.888912 C168.741884,134.136237 168.535581,134.383562 168.338873,134.641693 C168.215331,134.797772 168.091788,134.941845 167.968246,135.096723 C165.234727,133.031678 161.635213,128.282073 161.635213,121.787985 L161.635213,121.570675 C161.686788,121.808395 161.74796,122.056921 161.819926,122.313851 C162.027429,123.078638 162.336884,123.905857 162.718305,124.730675 C162.790272,124.896359 162.862238,125.040432 162.944999,125.19531 C163.512333,126.32028 164.243991,127.414033 165.089595,128.261663 C165.936398,129.117696 166.905544,129.73841 167.977842,129.95572 C168.060603,129.964125 168.133769,130.007347 168.215331,130.007347 C171.103578,130.66648 170.28796,132.143228 168.937392,133.888912" id="Fill-29" fill="#F0AF9A"></path>
                <path d="M110.815016,199.585816 C107.978345,195.862731 105.334783,192.038795 102.374569,188.490998 C99.461134,184.91919 96.384575,181.490254 92.8846143,178.650816 C89.3822548,175.817381 85.4241087,173.692305 81.0737463,172.580543 C76.7257829,171.437564 72.094752,171.166226 67.4193419,170.756819 C72.0179879,169.874372 76.7881537,169.580223 81.5571199,170.413445 C86.3452772,171.205847 90.7999907,173.66109 94.4558784,176.735847 C98.1453503,179.828612 101.13555,183.555299 103.813895,187.411652 C106.499437,191.277609 108.748384,195.395695 110.815016,199.585816" id="Fill-31" fill="#295D84"></path>
                <path d="M292.992527,315.845482 L296.61603,345.770634 C312.016816,343.956515 315.640319,347.583552 325.605252,348.490011 C335.571384,349.39647 344.629541,345.770634 344.629541,345.770634 L360.030328,341.235938 L370.902035,343.048856 L387.4171,346.985649 C389.409367,347.465892 391.546766,347.157336 393.249968,346.014357 C394.166339,345.40685 394.817634,344.682883 394.455403,343.956515 L397.17333,343.956515 C398.940103,343.956515 404.131271,340.520375 395.217047,336.157366 C394.971162,336.039707 394.71808,335.913643 394.455403,335.794783 L394.328263,335.29653 C393.222381,330.85188 391.190533,326.691774 388.363457,323.088749 L385.006229,318.810983 C383.511729,316.905619 381.351541,315.635375 378.961061,315.257184 L375.178033,314.658081 L367.36849,313.423856 C366.262608,313.252169 365.203504,312.861971 364.224763,312.309691 C362.793833,311.501682 359.831221,310.060953 353.879608,307.838628 C352.013283,307.139874 349.965842,307.059433 348.053937,307.593704 C332.690333,311.937503 316.845754,316.697913 292.992527,315.845482" id="Fill-33" fill="#BF8258"></path>
                <path d="M143.615573,376.33667 C120.531185,343.485637 75.9432694,301.960211 62.8849857,285.926093 C50.4348171,270.61474 31.2510025,240.788038 33.6642722,215.698935 C35.6961205,238.568114 51.9101261,263.355865 62.8849857,276.850698 C75.3447497,292.152445 113.921081,326.6255 139.551876,348.759907 C140.541413,357.991381 141.954351,367.179634 143.615573,376.33667" id="Fill-35" fill="#295D84"></path>
                <path d="M361.848316,320.337196 C364.970454,320.549704 368.084195,320.81984 371.193139,321.1356 L375.850558,321.639856 L378.176268,321.915995 C378.960701,322.028853 379.691159,322.057667 380.575145,322.256968 C381.419549,322.45867 382.221973,322.830859 382.936838,323.324309 C383.288274,323.568032 383.63731,323.868184 383.925176,324.151527 L384.768381,324.964339 C385.90065,326.038883 387.005333,327.143442 388.111215,328.248002 C390.291794,330.484734 392.410001,332.7875 394.329103,335.296771 C391.765903,333.452637 389.40301,331.401998 387.102487,329.286527 C385.967819,328.214384 384.831951,327.142242 383.722471,326.041284 L382.886462,325.221269 C382.617788,324.955935 382.374302,324.743427 382.086437,324.538123 C381.521501,324.138321 380.8846,323.844172 380.216513,323.656877 C379.58201,323.48519 378.747201,323.40595 377.990355,323.276284 L375.676639,322.919704 L371.052805,322.157318 C367.973847,321.626649 364.900886,321.05516 361.836322,320.421239 L361.848316,320.337196 Z" id="Fill-37" fill="#A5704C"></path>
                <path d="M388.114213,339.42266 C386.171124,338.474179 384.305997,337.410441 382.466059,336.308283 C381.538893,335.766809 380.638115,335.186915 379.726542,334.622629 C379.268357,334.342888 378.826963,334.040334 378.375975,333.749787 C377.95857,333.472447 377.543565,333.26114 377.090177,333.096657 C376.642787,332.932173 376.177404,332.809711 375.701228,332.754483 L374.126365,332.617614 C373.061264,332.499954 371.993764,332.414711 370.929862,332.271839 C368.80086,332.01731 366.675455,331.709954 364.559646,331.260927 C366.718635,331.118055 368.865629,331.116854 371.009025,331.16728 C372.082522,331.178085 373.151222,331.244119 374.22232,331.278936 L375.851157,331.382188 C376.441281,331.442219 377.025407,331.569483 377.580747,331.77959 C378.131289,331.988495 378.671037,332.281444 379.138817,332.605608 C379.579011,332.911763 380.027601,333.203511 380.461798,333.519271 C381.33259,334.144787 382.214177,334.752295 383.069376,335.400623 C384.794169,336.676869 386.491374,337.992736 388.114213,339.42266" id="Fill-39" fill="#A5704C"></path>
                <path d="M367.658155,314.089112 C367.671349,313.758945 367.656955,313.628079 367.630568,313.574052 C367.600582,313.55004 367.564599,313.560845 367.533413,313.55124 L367.334306,313.524827 L366.937292,313.474401 C366.672217,313.437182 366.407141,313.409568 366.140865,313.383155 C365.610714,313.321924 365.075764,313.290708 364.542014,313.248687 C363.476913,313.159842 362.405815,313.107015 361.345512,312.984553 C359.224905,312.724021 357.117492,312.378246 355.048461,311.764736 C357.20625,311.756331 359.326857,312.014462 361.43427,312.360237 C362.486177,312.539128 363.529688,312.788854 364.577997,313.002562 C365.102152,313.111818 365.623908,313.229477 366.150461,313.319523 C366.411938,313.369948 366.675815,313.416772 366.939691,313.456392 L367.335506,313.517623 L367.533413,313.548839 C367.566997,313.55004 367.596983,313.569249 367.632967,313.554842 C367.673747,313.510419 367.724124,313.389158 367.804486,313.067395 L367.658155,314.089112 Z" id="Fill-41" fill="#A5704C"></path>
                <path d="M143.264857,148.10507 C143.027368,148.042638 142.789879,147.980207 142.564385,147.929781 C142.367677,147.878155 142.181764,147.836134 141.995851,147.784508 C140.934349,147.547988 139.934017,147.361894 138.994857,147.288657 C138.86052,147.269447 138.736978,147.269447 138.613436,147.258641 C137.014585,147.166195 135.622037,147.382304 134.456183,148.08466 C134.435792,148.094264 134.415402,148.115875 134.384217,148.136286 C133.527818,148.652547 132.868127,149.179614 132.331978,149.70548 C132.218031,149.808733 132.105284,149.911985 132.012927,150.026043 C131.805424,150.231347 131.620711,150.448657 131.455188,150.655161 C131.434798,150.676772 131.424003,150.695982 131.403613,150.728398 C129.74359,152.740617 123.027936,168.09279 119.964571,173.192973 C119.614335,165.84165 120.377177,134.600632 119.964571,132.928185 C119.201728,129.871438 127.216374,141.662608 143.264857,148.10507" id="Fill-43" fill="#A56D47"></path>
                <path d="M120.316126,79.1626824 C120.421676,78.8661322 120.638775,78.7676824 120.833084,78.6296125 C121.026193,78.4915426 121.230098,78.3690805 121.431603,78.2454179 C121.838213,78.0028951 122.25082,77.7603723 122.638238,77.4962386 C123.01966,77.2369073 123.379491,76.9607675 123.609783,76.6402052 C123.842474,76.3244453 123.933631,75.9750684 123.93723,75.5656611 C123.943227,75.158655 123.871261,74.7144301 123.816087,74.2245821 C123.753716,73.7335334 123.748918,73.1680471 123.824483,72.6373784 C123.895249,72.1091109 124.054775,71.5520289 124.251483,71.0813906 C124.343839,70.8628799 124.40621,70.6899924 124.420603,70.5807371 C124.432598,70.4654787 124.415806,70.4534726 124.388219,70.3922416 C124.249084,70.106497 123.715334,69.8795821 122.863733,69.9240046 C122.028924,69.9600228 121.192915,70.1040957 120.396488,70.3682295 C118.808432,70.8952964 117.345117,71.8785942 116.459932,73.2712994 C115.621525,74.6327888 114.949839,76.5165426 114.827497,78.3582751 C114.748334,80.2132143 115.061387,82.1041717 115.832626,83.7802204 C116.210449,84.6194453 116.691424,85.4046429 117.263556,86.1069985 C117.399092,86.2894909 117.562216,86.4479711 117.709747,86.6184574 C117.858477,86.8177584 118.04439,86.913807 117.929244,86.8501748 C117.811699,86.8789894 118.101963,86.7541261 118.361042,86.6424696 C118.617721,86.5416185 118.885196,86.4707827 119.156269,86.4275608 C120.230966,86.252272 121.400418,86.5308131 122.247221,87.2631839 C123.077233,87.9835486 123.515028,89.1433359 123.243954,90.1482447 L123.031654,90.1542477 C122.401949,88.404962 120.978216,87.2943997 119.316994,87.5165122 C119.117887,87.5417249 118.922379,87.5849468 118.736466,87.6509802 C118.635713,87.6881991 118.567345,87.7134119 118.442603,87.7698404 C118.319061,87.8226672 118.118755,87.915114 117.832089,87.8887006 C117.540626,87.8550836 117.341519,87.6942021 117.223974,87.5801444 C117.099233,87.4552812 117.04046,87.3664362 116.961297,87.2667857 C116.812567,87.0674848 116.648244,86.8813906 116.513907,86.6712842 C115.945373,85.8584726 115.490786,84.9772264 115.151345,84.0587614 C114.491654,82.2146277 114.207387,80.2816489 114.186997,78.3474696 C114.172603,77.3821809 114.143817,76.4012842 114.210985,75.4143845 C114.272157,74.4346884 114.429283,73.3793541 114.941443,72.4104635 C115.945373,70.4870897 117.74573,69.0931839 119.736797,68.4136398 C120.738328,68.0810714 121.791435,67.8913754 122.852938,67.9105851 C123.38069,67.92019 123.986407,67.9622112 124.614912,68.2191413 C125.254213,68.4868769 125.843137,68.9971353 126.113011,69.7739286 C126.249747,70.1593237 126.244949,70.6431687 126.142997,70.9865426 C126.047042,71.3395213 125.905508,71.5988526 125.796359,71.8101596 C125.573263,72.1895517 125.418536,72.5353267 125.300991,72.9375304 C125.184646,73.3361322 125.130671,73.7263298 125.106682,74.1837614 C125.080294,74.6387918 125.083893,75.1454483 124.985539,75.6845213 C124.894381,76.21519 124.648497,76.8010866 124.240688,77.1924848 C123.843674,77.589886 123.386688,77.828807 122.952491,78.0425152 C122.514696,78.2466185 122.10089,78.4651292 121.679887,78.6872416 C121.468786,78.7952964 121.258884,78.9057523 121.039387,78.9993997 C120.81989,79.0930471 120.623182,79.2275152 120.316126,79.1626824" id="Fill-45" fill="#A56D47"></path>
                <path d="M306.345633,344.837041 C307.211627,344.671357 307.686604,344.57891 307.686604,344.57891 C307.686604,344.57891 306.664683,346.271767 306.345633,344.837041" id="Fill-47" fill="#BF8258"></path>
                <path d="M306.345633,344.837041 C297.568144,346.510688 248.202866,355.905445 235.011444,357.557482 C220.519832,359.374002 173.413096,371.165172 161.634613,367.529731 C151.206697,364.320506 97.5102478,314.957512 71.4872365,286.669989 C81.2650567,274.310932 100.006279,255.108409 130.041411,252.887284 C131.135298,255.489002 132.290357,258.039093 133.548568,260.527953 C149.701402,292.627406 168.885217,311.313667 168.885217,311.313667 C168.885217,311.313667 178.994082,309.941372 192.165113,310.508059 C221.901585,311.798713 273.772489,315.670673 306.655088,315.670673 C312.658276,325.293546 306.655088,334.306509 306.262871,342.926874 C306.22209,343.84654 306.252076,344.455248 306.345633,344.837041" id="Fill-49" fill="#BF8258"></path>
                <path d="M191.474237,46.8225076 C181.046321,44.7886778 165.348074,50.3330851 165.348074,50.3330851 L165.348074,63.7546809 C165.348074,63.7546809 140.594068,56.5270213 138.531034,72.0136626 C138.531034,72.0136626 137.499517,81.3063678 135.436484,94.7279635 C133.37345,108.149559 156.065621,112.27965 155.034104,126.733769 C154.218487,138.224787 163.171093,140.579179 166.3592,144.697264 C167.227593,145.821033 165.538784,149.658176 164.99184,150.654681 C163.889557,152.660897 162.043621,154.360957 159.721509,154.709134 C158.22581,154.934848 156.697725,154.703131 155.224815,154.363359 C146.886321,152.444787 138.787714,147.408237 131.599481,142.87234 C126.233194,139.485426 118.990987,134.472888 118.532801,127.460137 C118.397265,125.39269 118.966998,123.369666 119.96493,121.571155 C125.122515,112.27965 132.341933,69.9498176 132.341933,69.9498176 C132.341933,69.9498176 135.436484,62.7221581 130.278899,60.6571125 C108.618245,49.2993617 105.524894,70.9811398 98.3042758,85.4352584 C92.9199978,96.2155167 82.3685399,91.4863222 77.3560876,88.3887538 C77.077818,83.4218389 76.2825904,78.1259574 74.6741438,72.8192705 C68.3315146,51.9635106 72.5187534,2.8406383 131.310416,0.775592705 C169.885548,-0.576291793 184.986475,18.1003647 190.102079,32.7813982 C191.010054,35.3927204 193.19663,43.1054255 191.474237,46.8225076" id="Fill-51" fill="#665142"></path>
                <path d="M178.344226,114.189097 C178.209889,114.282745 178.075552,114.406407 177.942415,114.540875 C177.797283,114.684948 177.684535,114.818216 177.580184,114.943079 C176.828137,115.933581 177.157982,116.646742 177.270729,117.47276 C177.281524,117.503976 177.281524,117.544796 177.281524,117.576012 C171.453454,116.078854 165.44067,115.346483 159.417092,115.417319 C158.870148,115.417319 158.230847,115.398109 157.890207,114.96469 C157.529176,114.498854 157.725884,113.765283 158.169676,113.373884 C158.602673,112.981286 159.210788,112.837213 159.788917,112.723155 C165.956429,111.494933 172.44419,112.020799 178.344226,114.189097" id="Fill-53" fill="#665142"></path>
                <path d="M167.070227,136.293609 C165.74005,138.286619 165.389814,139.309536 165.657289,141.135661 C165.74005,141.797196 165.925963,142.571588 166.173047,143.552485 C166.266603,143.913868 166.327775,144.295661 166.35896,144.697865 C166.420131,145.492667 166.35896,146.349901 166.141862,147.185524 C166.08069,147.19633 166.029115,147.19633 165.966744,147.207135 C165.358629,147.279172 164.708533,147.340403 164.151994,147.082272 L163.522289,146.731695 C164.161589,145.595919 163.811353,144.203214 163.573865,142.922166 C163.367561,141.808002 163.274005,140.671026 163.2848,139.525646 C163.295595,138.090919 163.542679,136.520524 164.616176,135.561239 C165.596117,134.683594 166.998261,134.559932 168.339233,134.641573 C167.89544,135.178245 167.442053,135.736527 167.070227,136.293609" id="Fill-55" fill="#665142"></path>
                <path d="M130.041651,252.887404 C100.006519,255.108529 81.2652966,274.311052 71.4874764,286.670109 C68.0942657,282.993848 65.1748331,279.669365 62.8851056,276.850337 C51.9102461,263.356705 35.6962404,238.567754 33.6643921,215.698574 C32.0139652,197.063939 39.770732,179.707951 67.4225803,170.757419 C113.105583,170.757419 114.570097,216.16321 130.041651,252.887404" id="Fill-59" fill="#4077A8"></path>
                <path d="M123.677911,178.7381 L119.92367,186.036596 L60.9976697,140.042508 C62.1731191,138.927143 63.3077876,137.770957 64.3908803,136.583556 L63.2358213,139.122842 L119.448692,183.001459 L122.543243,176.992416 C122.925863,177.571109 123.29649,178.149802 123.677911,178.7381" id="Fill-61" fill="#356B93"></path>
                <polygon id="Fill-63" fill="#4077A8" points="127.803859 166.761436 119.448572 183.000859 63.2357014 139.122242 65.8144935 133.444567 70.6410329 120.879005"></polygon>
                <polygon id="Fill-65" fill="#4077A8" points="128.216226 165.966514 127.803619 166.761316 119.448332 183.000739 63.2354615 139.123322 65.8142537 133.444447 70.6419924 120.878884 70.9718379 120.022851"></polygon>
                <path d="M171.97401,106.315991 C171.437861,107.342511 171.074431,108.652374 171.620176,109.682495 C172.205502,110.700611 173.462513,110.903514 174.554002,110.959942 C175.677875,110.998362 176.895305,111.043985 178.110336,111.254091 C178.719651,111.360945 179.380541,111.536234 179.95987,111.908422 C180.540398,112.281812 180.945808,112.819684 181.208485,113.382769 C181.227676,113.422389 181.209684,113.470413 181.170103,113.489623 C181.144915,113.500429 181.114929,113.496827 181.092139,113.482419 C180.57878,113.137845 180.083412,112.843696 179.580847,112.69362 C179.075884,112.543544 178.540934,112.500322 177.964004,112.467906 C176.798151,112.394669 175.613106,112.382663 174.366889,112.052495 C173.167451,111.713924 171.857665,111.025976 171.3551,109.806158 C170.872926,108.56593 171.412673,107.34131 171.869659,106.264365 C171.881653,106.23555 171.916437,106.221143 171.946423,106.233149 C171.97521,106.245155 171.989603,106.279973 171.976409,106.309988 L171.97401,106.315991 Z" id="Fill-67" fill="#A56D47"></path>
            </g>
        </g>
    </g>
</svg>