<?xml version="1.0" encoding="UTF-8"?>
<svg width="242px" height="232px" viewBox="0 0 242 232" version="1.1" xmlns="http://www.w3.org/2000/svg" xmlns:xlink="http://www.w3.org/1999/xlink">
    <!-- Generator: Sketch 52.6 (67491) - http://www.bohemiancoding.com/sketch -->
    <title>Slice 1</title>
    <desc>Created with Sketch.</desc>
    <g id="Page-1" stroke="none" stroke-width="1" fill="none" fill-rule="evenodd">
        <path d="M0,115.757 C0,51.827 51.826,0 115.758,0 C179.69,0 231.517,51.827 231.517,115.757 C231.517,179.69 179.69,231.516 115.758,231.516 C51.826,231.516 0,179.69 0,115.757" id="Fill-47" fill="#E996EF"></path>
        <path d="M10.402,115.757 C10.402,51.827 62.228,0 126.161,0 C190.093,0 241.918,51.827 241.918,115.757 C241.918,179.69 190.093,231.516 126.161,231.516 C62.228,231.516 10.402,179.69 10.402,115.757" id="Fill-48" fill="#EB7F7F"></path>
        <polygon id="Fill-49" fill="#FFFFFE" points="60.478 194.606 170.691 194.606 170.691 37.952 60.478 37.952"></polygon>
        <path d="M74.862,63.072 C74.288,63.072 73.822,62.607 73.822,62.032 L73.822,38.144 C73.822,37.57 74.288,37.104 74.862,37.104 C75.435,37.104 75.902,37.57 75.902,38.144 L75.902,62.032 C75.902,62.607 75.435,63.072 74.862,63.072" id="Fill-50" fill="#CC6D5C"></path>
        <path d="M68.305,63.072 C67.731,63.072 67.265,62.607 67.265,62.032 L67.265,44.906 C67.265,44.33 67.731,43.866 68.305,43.866 C68.878,43.866 69.344,44.33 69.344,44.906 L69.344,62.032 C69.344,62.607 68.878,63.072 68.305,63.072" id="Fill-51" fill="#CC6D5C"></path>
        <path d="M74.862,40.488 C74.288,40.488 73.822,40.023 73.822,39.448 L73.822,38.144 C73.822,36.653 72.487,35.439 70.845,35.439 C69.585,35.439 68.458,36.168 68.039,37.253 C67.834,37.79 67.231,38.055 66.696,37.851 C66.16,37.644 65.893,37.042 66.1,36.506 C66.824,34.623 68.732,33.36 70.845,33.36 C73.633,33.36 75.902,35.506 75.902,38.144 L75.902,39.448 C75.902,40.023 75.435,40.488 74.862,40.488" id="Fill-52" fill="#CC6D5C"></path>
        <path d="M71.582,66.13 C69.201,66.13 67.265,64.291 67.265,62.032 C67.265,61.457 67.731,60.993 68.305,60.993 C68.878,60.993 69.344,61.457 69.344,62.032 C69.344,63.145 70.349,64.05 71.582,64.05 C72.818,64.05 73.822,63.145 73.822,62.032 C73.822,61.457 74.288,60.993 74.862,60.993 C75.435,60.993 75.902,61.457 75.902,62.032 C75.902,64.291 73.963,66.13 71.582,66.13" id="Fill-53" fill="#CC6D5C"></path>
        <polygon id="Fill-54" fill="#304049" points="78.002 117.407 153.166 117.407 153.166 112.207 78.002 112.207"></polygon>
        <polygon id="Fill-55" fill="#304049" points="78.002 131.502 153.166 131.502 153.166 126.303 78.002 126.303"></polygon>
        <polygon id="Fill-56" fill="#304049" points="78.002 145.597 153.144 145.597 153.144 140.399 78.002 140.399"></polygon>
        <polygon id="Fill-57" fill="#304049" points="78.002 103.311 152.181 103.311 152.181 98.112 78.002 98.112"></polygon>
        <path d="M212.142,134.945 C213.397,133.196 214.539,131.436 215.567,129.702 C201.267,125.522 218.38,124.44 218.38,124.44 C219.163,122.775 219.834,121.201 220.378,119.755 C220.92,118.304 221.351,116.999 221.665,115.885 C222.308,113.668 222.51,112.238 222.51,112.239 C222.602,111.556 222.61,110.816 222.511,110.099 C221.919,105.92 218.053,103.01 213.873,103.602 C213.874,103.601 212.442,103.804 210.226,104.446 C209.111,104.761 207.808,105.193 206.358,105.733 C204.91,106.278 203.336,106.948 201.671,107.732 C198.347,109.31 194.733,111.411 191.166,113.97 C188.756,115.685 186.384,117.626 184.093,119.705 C184.14,120.089 187.261,145.606 178.225,125.561 C175.973,128.037 173.878,130.614 172.032,133.22 C169.49,136.802 167.383,140.411 165.803,143.731 C164.209,147.037 163.127,150.039 162.479,152.248 C161.821,154.452 161.606,155.87 161.606,155.868 C161.5,156.594 161.491,157.381 161.606,158.145 C162.234,162.285 166.1,165.134 170.243,164.504 C170.241,164.504 171.661,164.291 173.862,163.632 C176.073,162.985 179.074,161.903 182.379,160.31 C185.699,158.73 189.31,156.623 192.892,154.079 C196.477,151.54 200.01,148.539 203.294,145.29 C206.578,142.038 209.595,138.522 212.142,134.945" id="Fill-58" fill="#CC6D5C"></path>
        <path d="M199.074,127.182 C199.074,127.182 199.214,126.907 199.135,126.918 C199.147,126.839 198.87,126.981 198.87,126.981 C192.758,128.81 158.47,164.321 155.821,167.259 C153.152,170.22 153.613,172.32 153.636,172.412 L153.632,172.415 L153.636,172.416 L153.638,172.421 L153.64,172.418 C153.733,172.439 155.833,172.901 158.794,170.233 C161.732,167.583 197.243,133.294 199.074,127.182" id="Fill-59" fill="#A7ACAE"></path>
        <path d="M105.034,172.461 C105.034,172.461 105.556,171.598 106.672,170.243 C107.225,169.559 107.939,168.768 108.811,167.893 C109.701,167.037 110.736,166.087 112.066,165.203 C112.73,164.751 113.47,164.319 114.366,163.971 C114.807,163.791 115.309,163.646 115.86,163.537 C116.152,163.5 116.433,163.45 116.766,163.454 L117.099,163.454 L117.23,163.47 L117.309,163.477 C117.309,163.463 117.795,163.554 118.021,163.648 C118.522,163.819 119.042,164.181 119.387,164.602 C119.74,165.022 119.943,165.457 120.071,165.83 C120.326,166.588 120.361,167.196 120.378,167.758 C120.403,168.871 120.276,169.835 120.137,170.784 C119.858,172.652 119.43,174.488 119.356,176.079 C119.297,176.841 119.492,177.575 119.521,177.517 C119.463,177.354 119.104,177.463 120.128,177.384 C121.201,177.268 122.46,176.378 123.668,175.133 C124.885,173.904 126.107,172.422 127.516,171.069 C128.917,169.71 130.524,168.442 132.307,167.562 C132.747,167.337 133.203,167.143 133.653,166.96 C133.903,166.868 134.151,166.776 134.397,166.685 L134.975,166.525 C136.011,166.243 136.987,166.077 138.23,166.219 C138.828,166.293 139.487,166.495 140.05,166.818 C140.617,167.129 141.072,167.563 141.384,167.954 C142.014,168.752 142.247,169.408 142.469,169.901 C142.877,170.877 143.109,171.36 143.723,171.769 C144.315,172.137 145.004,172.305 145.458,172.405 C145.935,172.498 146.19,172.549 146.19,172.549 C146.19,172.549 145.98,172.705 145.543,172.957 C145.098,173.177 144.423,173.54 143.332,173.572 C142.789,173.598 142.122,173.473 141.471,173.157 C140.826,172.836 140.233,172.344 139.749,171.875 C139.269,171.409 138.831,170.977 138.522,170.821 C138.369,170.735 138.262,170.755 138.196,170.77 C138.113,170.8 138.027,170.83 137.94,170.862 C137.715,170.909 137.175,171.102 136.718,171.318 L136.173,171.568 C136.107,171.593 136.243,171.542 136.224,171.55 L136.21,171.557 L136.183,171.572 L136.129,171.599 L136.019,171.655 L135.8,171.766 C135.509,171.924 135.217,172.089 134.929,172.28 C133.769,173.028 132.589,173.987 131.323,175.134 C130.05,176.277 128.712,177.594 127.067,178.937 C126.247,179.605 125.334,180.282 124.246,180.862 C123.152,181.432 121.899,181.894 120.456,181.985 C120.27,181.995 120.048,182.005 119.894,182.004 L119.527,181.989 C119.1,181.978 118.713,181.918 118.257,181.803 C117.369,181.602 116.34,180.92 115.799,180.081 C115.236,179.246 115.058,178.453 114.95,177.774 C114.85,177.089 114.853,176.483 114.87,175.911 C114.978,173.653 115.416,171.783 115.734,170.04 C115.895,169.183 116.039,168.36 116.093,167.709 C116.119,167.392 116.101,167.12 116.108,167.049 C116.114,167.009 116.131,167.051 116.217,167.137 C116.298,167.225 116.465,167.329 116.575,167.352 C116.863,167.395 116.478,167.291 116.28,167.292 C116.022,167.295 115.736,167.311 115.425,167.38 C114.814,167.503 114.162,167.718 113.533,167.954 C112.28,168.456 111.103,169.045 110.075,169.599 C109.037,170.143 108.142,170.668 107.392,171.09 C105.891,171.962 105.034,172.461 105.034,172.461" id="Fill-60" fill="#304049"></path>
        <path d="M112.505,66.787 L112.336,66.923 C111.624,65.805 110.643,64.924 109.39,64.281 C108.136,63.637 106.815,63.332 105.392,63.332 C104.173,63.332 103.055,63.536 102.005,63.942 C100.955,64.348 100.075,64.924 99.329,65.704 C98.584,66.482 98.007,67.397 97.601,68.447 C97.195,69.496 96.992,70.65 96.992,71.936 C96.992,73.222 97.195,74.409 97.636,75.458 C98.077,76.508 98.685,77.423 99.431,78.168 C100.176,78.913 101.057,79.49 102.073,79.895 C103.088,80.301 104.207,80.505 105.392,80.505 C106.984,80.505 108.44,80.133 109.761,79.353 C111.083,78.576 112.099,77.558 112.776,76.305 L116.536,77.322 C116.028,78.371 115.419,79.321 114.674,80.167 C113.929,81.014 113.081,81.725 112.133,82.334 C111.185,82.944 110.134,83.418 109.016,83.723 C107.899,84.063 106.713,84.231 105.46,84.231 C103.766,84.231 102.175,83.926 100.684,83.351 C99.193,82.741 97.906,81.894 96.789,80.81 C95.67,79.727 94.791,78.405 94.147,76.881 C93.503,75.357 93.199,73.698 93.199,71.903 C93.199,70.107 93.537,68.447 94.181,66.923 C94.824,65.398 95.704,64.078 96.823,62.994 C97.94,61.909 99.261,61.062 100.751,60.453 C102.242,59.844 103.833,59.539 105.527,59.539 C106.679,59.539 107.798,59.674 108.881,59.979 C109.964,60.285 110.981,60.691 111.896,61.233 C112.809,61.774 113.656,62.417 114.402,63.197 C115.147,63.976 115.79,64.823 116.333,65.772 L112.505,66.787" id="Fill-61" fill="#304049"></path>
        <path d="M112.505,66.787 L112.336,66.923 C111.624,65.805 110.643,64.924 109.39,64.281 C108.136,63.637 106.815,63.332 105.392,63.332 C104.173,63.332 103.055,63.536 102.005,63.942 C100.955,64.348 100.075,64.924 99.329,65.704 C98.584,66.482 98.007,67.397 97.601,68.447 C97.195,69.496 96.992,70.65 96.992,71.936 C96.992,73.222 97.195,74.409 97.636,75.458 C98.077,76.508 98.685,77.423 99.431,78.168 C100.176,78.913 101.057,79.49 102.073,79.895 C103.088,80.301 104.207,80.505 105.392,80.505 C106.984,80.505 108.44,80.133 109.761,79.353 C111.083,78.576 112.099,77.558 112.776,76.305 L116.536,77.322 C116.028,78.371 115.419,79.321 114.674,80.167 C113.929,81.014 113.081,81.725 112.133,82.334 C111.185,82.944 110.134,83.418 109.016,83.723 C107.899,84.063 106.713,84.231 105.46,84.231 C103.766,84.231 102.175,83.926 100.684,83.351 C99.193,82.741 97.906,81.894 96.789,80.81 C95.67,79.727 94.791,78.405 94.147,76.881 C93.503,75.357 93.199,73.698 93.199,71.903 C93.199,70.107 93.537,68.447 94.181,66.923 C94.824,65.398 95.704,64.078 96.823,62.994 C97.94,61.909 99.261,61.062 100.751,60.453 C102.242,59.844 103.833,59.539 105.527,59.539 C106.679,59.539 107.798,59.674 108.881,59.979 C109.964,60.285 110.981,60.691 111.896,61.233 C112.809,61.774 113.656,62.417 114.402,63.197 C115.147,63.976 115.79,64.823 116.333,65.772 L112.505,66.787 Z" id="Stroke-62" stroke="#304049"></path>
        <path d="M141.461,60.012 L131.673,83.723 L127.744,83.723 L117.954,60.047 L122.054,60.047 L128.353,75.729 C128.556,76.238 128.692,76.711 128.861,77.186 C129.031,77.66 129.166,78.067 129.268,78.405 C129.37,78.744 129.471,79.015 129.539,79.218 L129.674,79.524 L129.707,79.524 L129.809,79.185 C129.878,78.982 129.979,78.71 130.115,78.371 C130.249,78.034 130.386,77.627 130.554,77.152 C130.725,76.679 130.893,76.204 131.097,75.696 L137.397,60.012 L141.461,60.012" id="Fill-63" fill="#304049"></path>
        <path d="M141.461,60.012 L131.673,83.723 L127.744,83.723 L117.954,60.047 L122.054,60.047 L128.353,75.729 C128.556,76.238 128.692,76.711 128.861,77.186 C129.031,77.66 129.166,78.067 129.268,78.405 C129.37,78.744 129.471,79.015 129.539,79.218 L129.674,79.524 L129.707,79.524 L129.809,79.185 C129.878,78.982 129.979,78.71 130.115,78.371 C130.249,78.034 130.386,77.627 130.554,77.152 C130.725,76.679 130.893,76.204 131.097,75.696 L137.397,60.012 L141.461,60.012 Z" id="Stroke-64" stroke="#304049"></path>
    </g>
</svg>