<svg xmlns="http://www.w3.org/2000/svg" width="271" height="246" viewBox="0 0 271 246">
  <defs>
    <linearGradient id="store-a" x1="0%" y1="52.258%" y2="52.258%">
      <stop offset="0%" stop-color="#251647"/>
      <stop offset="100%" stop-color="#512E9E"/>
    </linearGradient>
    <linearGradient id="store-b" x1=".007%" x2="99.993%" y1="49.958%" y2="49.958%">
      <stop offset="0%" stop-color="#251647"/>
      <stop offset="100%" stop-color="#512E9E"/>
    </linearGradient>
  </defs>
  <g fill="none" fill-rule="evenodd">
    <path fill="#5035A5" d="M150 103.556654L148.886012 104C148.886012 104 143.780234 96.5472032 141.521314 94.7203125 141.521314 94.7203125 130.188033 101.23291 123.488633 94.0935132 123.488633 94.0935132 130.50521 86.2585217 140.801863 93.4820016 137.450887 88.7686875 133.698136 84.3471486 129.584623 80.2657086 129.584623 80.2657086 121.987843 86.6942236 116.371487 80.1051869 118.724342 76.8962825 122.940015 75.6095678 126.714556 76.9482586 126.714556 76.9482586 122.07294 71.9262201 118.932112 69.8012175 118.932112 69.8012175 113.11462 74.532788 107.444111 69.3808033 107.444111 69.3808033 111.768551 66.009846 116.727344 67.6227077L110.801547 62.8987811C110.801547 62.8987811 103.18156 61.9127187 101 55.033214 105.558897 54.6593077 109.765118 57.4756718 111.103252 61.7980603L117.292075 67.0799912C117.292075 67.0799912 114.522577 60.3304327 119.024945 57.6550697 119.024945 57.6550697 123.720714 65.1613738 119.713451 69.0521159 119.713451 69.0521159 125.546416 73.814262 128.826492 77.8502381 128.826492 77.8502381 123.743922 69.9540954 129.816704 64.786823 129.816704 64.786823 135.580044 69.9005881 130.288601 78.7904371 134.300434 83.1328012 138.021612 87.7288762 141.428481 92.5494465 137.680311 87.9939091 137.258251 81.5942925 140.376381 76.5966394 140.376381 76.5966394 148.886012 80.9536591 143.169087 94.177596 145.725663 97.0955588 148.011819 100.234523 150 103.556654zM151.71851 79L150.715122 79C150.715122 79 148.965028 71.5792246 147.751629 69.4623263 147.751629 69.4623263 136.862151 71.2225311 133.789762 63.5691295 133.789762 63.5691295 141.676856 59.4671544 147.557174 68.2216533 146.348691 63.4977942 144.737943 58.8853921 142.742469 54.4346745 142.742469 54.4346745 134.839819 57.2882224 132.45969 50.4257498 135.277075 48.5865954 138.975 48.826883 141.52907 51.0150695 141.52907 51.0150695 139.405622 45.6569129 137.593301 43.0359912 137.593301 43.0359912 131.59631 45.0443307 128.710599 39.2752012 128.710599 39.2752012 133.128615 37.8949525 136.535466 40.6554499L133.32307 35.1499634C133.32307 35.1499634 127.637207 32.0948061 128.018339 26 131.706782 27.0639736 134.151996 30.5477458 133.890879 34.3667886L137.126609 40.3840527C137.126609 40.3840527 137.002158 34.1806876 141.342393 33.405267 141.342393 33.405267 142.750247 40.7485004 138.433347 42.6405267 140.190132 45.7373821 141.686087 48.9742401 142.905811 52.3177762 142.905811 52.3177762 141.350171 44.5635699 147.650512 42.237308 147.650512 42.237308 150.621784 48.0064375 143.761413 53.4653987 145.592969 58.1021643 147.120707 62.8525544 148.334993 67.686613 146.773221 62.9624156 148.380296 57.7703092 152.340766 54.7448427 152.340766 54.7448427 157.668832 60.7233358 149.229486 69.4778347 150.345377 72.5706063 151.178444 75.757639 151.71851 79z"/>
    <path fill="#251547" d="M204.101044 110.400006L204 109.06183C204 109.06183 213.490371 106.206536 216.140835 104.432675 216.140835 104.432675 213.031787 90.1562024 222.700928 85.4881461 222.700928 85.4881461 228.623666 95.602268 217.679814 104.09035 223.718662 102.139196 229.575594 99.6634866 235.183759 96.6914812 235.183759 96.6914812 230.924362 86.4139773 239.676334 82.6873123 239.676334 82.6873123 244.145592 88.4834822 239.606381 94.7542378 239.606381 94.7542378 246.391879 91.5488392 249.648608 88.9502878 249.648608 88.9502878 246.586195 81.170194 253.845824 76.8911424 253.845824 76.8911424 255.967749 82.6484119 252.64884 87.3709288L259.543155 82.7028725C259.543155 82.7028725 263.071926 74.9227787 271 75.0005796 271 75.0005796 269.515429 83.1541179 260.600232 83.403081L253.045244 88.1255979C253.045244 88.1255979 261.035499 87.5031904 262.37239 93.2059991 262.37239 93.2059991 252.967517 95.6178282 250.184919 90.0239408 250.184919 90.0239408 243.282831 94.5830757 237.981903 96.6681409 237.981903 96.6681409 247.930858 93.9995687 251.358585 102.223128 251.358585 102.223128 244.106729 106.57998 236.512877 97.9051758 230.645067 100.686612 224.600398 103.077695 218.418213 105.062862 224.459331 102.632439 231.377263 104.398207 235.517981 109.427495 235.517981 109.427495 228.172854 116.927505 216.187471 106.315457 212.29379 108.048856 208.247578 109.416254 204.101044 110.400006zM43.0844648 205L44 203.852516C44 203.852516 37.0171046 195.465872 35.6670781 192.239055 35.6670781 192.239055 47.3052372 181.110771 41.2301181 170.960544 41.2301181 170.960544 29.5919591 176.61325 34.4644683 190.983754 30.103924 185.526812 26.2305867 179.703203 22.8883795 173.578964 22.8883795 173.578964 33.1066831 166.794177 27.3186387 158.091782 27.3186387 158.091782 19.66073 160.663994 19.9865985 169.143053 19.9865985 169.143053 15.7115147 162.088722 14.3071769 157.737525 14.3071769 157.737525 21.9107741 152.477582 17.8374184 144.183353 17.8374184 144.183353 12.3597249 148.141787 12.5149004 154.472202L9.03121143 146.000844C9.03121143 146.000844 10.5441721 136.759363 3.21989067 132 3.21989067 132-.411214953 140.348138 7.63463234 145.993143L11.6924705 154.903471C11.6924705 154.903471 4.70957503 149.512607 0 153.863804 0 153.863804 7.18462352 161.788374 13.1899136 158.376728 13.1899136 158.376728 16.7434315 166.740268 20.343502 171.86929 20.343502 171.86929 12.8330101 163.397932 4.63974608 168.788796 4.63974608 168.788796 8.63551402 177.183142 20.9331688 173.887013 24.6249899 179.998725 28.7229379 185.859507 33.1997884 191.430425 29.1309268 185.546798 21.6926939 182.954935 14.8114971 185.022998 14.8114971 185.022998 16.9684359 196.32841 34.4722271 193.971832 36.9940161 197.903768 39.8770601 201.595572 43.0844648 205z"/>
    <path fill="#07C8D4" d="M56.6153268,232.94609 L86.0083438,178.335639 L124.304351,178.335639 L155.623384,121.553399 L201.066535,121.553399 L235,47.3044401 L215.500054,37 L178.812927,93.5588998 L140.43957,93.5588998 L104.85855,145.366051 L66.1835273,145.366051 L19,232.892181 L19.2011101,233 C31.4688272,232.969194 43.9917995,232.953792 56.6153268,232.94609 Z"/>
    <path fill="#2A5877" d="M87 148C93.7380093 148 99.5244972 147.173913 102 146L72 146C74.4755028 147.173913 80.2619907 148 87 148zM143 93C144.273556 94.7039275 150.955886 96 159.003836 96 167.051786 96 173.726444 94.7039275 175 93L143 93z" opacity=".1"/>
    <polygon fill="#07C8D4" points="250 66 247.662 0 192 35.023"/>
    <polygon fill="#2A5877" points="56.936 233 86.333 178.32 124.635 178.32 155.959 121.466 201.409 121.466 231.317 55.921 250 65.807 247.671 0 247.254 61.766 228.617 51.881 198.701 117.425 153.22 117.425 121.858 174.272 83.564 174.272 52 233" opacity=".1"/>
    <polygon fill="#2A5877" points="231 55.672 229.74 55 200.36 119.592 154.914 119.592 123.269 176.508 85.331 176.508 55 233 56.701 233 86.081 178.246 124.359 178.246 155.664 121.314 201.087 121.314 230.977 55.68" opacity=".1"/>
    <path fill="#201244" d="M157.262586,50.4098479 C153.720087,50.0025064 151.676042,54.0683786 151.676042,56.6632951 C149.822051,59.6026518 148.89437,63.0143341 149.009563,66.4696658 C149.009563,68.9363452 153.466503,66.0698677 154.334838,66.4696658 C155.427685,66.0387689 156.63898,65.9934458 157.762071,66.3414287 C159.537163,66.952441 168.082193,71.5086317 168.335777,67.0957649 C170.518141,65.7002429 166.798901,55.9466757 164.724119,52.7633769 C162.580177,49.5046445 159.275894,49.7460321 157.262586,50.4098479 Z"/>
    <polygon fill="#E5A173" points="161.599 61.534 162 63.641 158.778 68 155 63.641 155.717 61"/>
    <path fill="#291E56" d="M166.25623,85 C165.832176,85.0791727 161.961723,87.0109868 158.677234,87.0109868 C156.280993,86.8829249 153.942426,86.2095551 151.830695,85.0395864 C151.792145,85.0395864 151.013428,86.4092742 151.013428,86.4092742 C150.995524,86.4411192 150.995524,86.4803538 151.013428,86.5121987 L157.266292,94.8965886 C158.427029,95.051056 159.603417,95.0323893 160.758952,94.8411677 L166.988686,86.5992887 C167.003771,86.5695139 167.003771,86.5340562 166.988686,86.5042815 C166.783101,85.9840111 166.538202,85.4810501 166.25623,85 Z"/>
    <path fill="#291E56" d="M175.613882 81.1980009C173.874697 81.8108869 165.383378 84.3818243 163.951107 86.3557948 161.590221 89.5396182 161.480047 92.8985518 161 94.7610885 162.322096 95.3421363 166.044426 94.7610885 167.382261 94.1084047 170.057931 92.7791585 178.14003 85.7508683 178.926992 84.0236442 179.273255 83.2913648 178.423336 80.1950965 175.613882 81.1980009zM142.392172 81.1980009C139.583882 80.1950965 138.726449 83.2913648 139.072568 84.0236442 139.859204 85.7508683 147.945821 92.7791585 150.620383 94.1084047 151.957664 94.7610885 155.670585 95.3421363 157 94.7610885 156.771876 93.0418239 156.095369 88.6242689 154.050115 86.3557948 152.374581 84.548975 144.099172 81.8108869 142.392172 81.1980009z"/>
    <path fill="#E8A577" d="M166.374529,92.7996815 C164.465109,92.6988237 162.56697,92.437513 160.699205,92.0183776 C158.170067,90.4557697 143.696085,82.1505088 143.696085,82.1505088 C141.090768,81.4395223 140.54228,83.4005951 141.33454,84.8303813 C143.391369,88.5415751 144.945418,89.5963354 150.780718,90.4401436 C152.951815,90.7526652 157.057856,92.7840555 159.282278,93.6278637 C159.434636,94.1435243 159.96027,94.7373153 161.179131,94.8545109 C161.819034,94.9248282 164.271993,96.1358494 165.986017,95.9874016 C166.913666,95.7433938 167.650017,95.0207565 167.928578,94.08102 C167.936196,93.4637899 168.492301,92.901251 166.374529,92.7996815 Z"/>
    <path fill="#512D9F" d="M166.321897,93 C165.535442,96.1777462 161.555979,94.5014122 159,93.7871481 C159.157291,94.2681831 159.699945,94.8221022 160.958273,94.9314283 C161.618895,94.997024 164.151281,96.1267273 165.920805,95.9882476 C166.882346,95.7579323 167.643369,95.0775522 167.926265,94.195299 C167.93413,93.6195147 168.508242,93.0947493 166.321897,93 Z"/>
    <path fill="#000" d="M161.693431,92.3093525 L161.59854,92.3093525 L161.364964,92.2661871 L161.291971,92.2661871 L161.065693,92.2230216 L161.007299,92.2230216 L160.781022,92.1798561 L160.715328,92.1798561 L160.518248,92.1798561 L160.437956,92.1798561 L160.277372,92.1798561 L160.182482,92.1798561 L160.058394,92.1798561 L159.868613,92.1438849 L157.941606,91 C157.335766,91.3309353 156.715328,91.6690647 156.569343,91.7194245 C156.423358,91.7697842 155.839416,91.9640288 155,92.1870504 C156.313869,92.7194245 157.583942,93.2661871 158.510949,93.6258993 C158.510949,93.6258993 158.510949,93.6906475 158.547445,93.7266187 L158.591241,93.8057554 L158.649635,93.8992806 L158.722628,94 C159.554745,93.6690647 160.751825,93.0791367 162,92.4820144 L161.905109,92.4820144 L161.693431,92.3093525 Z" opacity=".05"/>
    <path fill="#261548" d="M140.280695,84.9745071 C142.286953,89.2545308 145.300154,90.8254759 149.953453,92.3403157 C158.51247,95.1936648 157.368216,93.4864644 158.291248,93.5585996 C158.500826,93.5791738 158.707862,93.6221427 158.909145,93.68684 C159.38391,93.1288785 159.754025,92.4816599 160,91.7792639 C155.377215,89.0381251 142.927735,81.1032498 142.927735,81.1032498 C140.280695,80.3979275 139.517859,83.4837124 140.280695,84.9745071 Z"/>
    <path fill="#000" d="M158.070522,92.5915856 C158.278133,92.6107862 158.483225,92.6508865 158.682617,92.7112645 L159,92.3148281 C151.503725,90.0708481 143.780749,84.6329365 140.304654,82 C139.912095,82.8055991 139.898272,83.7415232 140.26687,84.5581372 C142.25429,88.5524216 145.239198,90.0184885 149.848802,91.4321959 C158.289668,94.117492 157.156158,92.5242662 158.070522,92.5915856 Z" opacity=".04"/>
    <path fill="#F1F2F2" d="M158,92.8832117 C158.2453,92.9019485 158.487624,92.9410803 158.723214,93 C159.278901,92.4918654 159.7121,91.9024446 160,91.2627737 L159.4375,91 C159.075072,91.682478 158.590615,92.3171449 158,92.8832117 Z"/>
    <path fill="#000" d="M156.352332,91.9799427 C154.936193,92.5518735 153.479563,92.9718995 152,93.234957 C152.899482,93.5272206 153.632124,93.7335244 154.226943,93.8710602 C155.06114,93.8710602 155.909845,93.9484241 156.613472,94 C156.990674,93.8538682 157.041451,93.6131805 157.37513,93.6389685 C157.57442,93.661034 157.771292,93.7071175 157.962694,93.7765043 C158.414154,93.1780994 158.7661,92.4839677 159,91.730659 L157.911917,91 C157.230052,91.4297994 156.511917,91.8939828 156.352332,91.9799427 Z" opacity=".05"/>
    <path fill="#F2AF81" d="M175.051543,82.1428244 C175.051543,82.1428244 158.864892,91.4207021 156.871615,92.2978283 C155.157292,92.669825 153.408018,92.8674796 151.651866,92.88762 C149.487959,92.88762 150.054142,93.5303418 150.100678,94.0898878 C150.363738,95.0194529 151.114152,95.7424066 152.070687,95.9878073 C153.815774,96.1314745 156.313187,94.9594525 156.972442,94.8913996 C158.345244,94.7628552 158.84938,94.0823263 158.934696,93.5379032 C161.044312,92.7061456 165.643585,90.8838404 167.559303,90.6191902 C173.492598,89.8025555 175.625482,88.3507605 177.719586,84.7439572 C178.487425,83.360215 177.704075,81.4622955 175.051543,82.1428244 Z"/>
    <path fill="#512D9F" d="M151.66394,93 C149.484216,93 150.054538,93.6195147 150.101414,94.158857 C150.366397,95.0548579 151.122295,95.7517077 152.085822,95.9882476 C153.843664,96.1267273 156.359331,94.997024 157.023405,94.9314283 C158.40624,94.8075254 158.914061,94.1515686 159,93.6268031 C156.47652,94.2973367 151.851443,96.5931855 151.66394,93 Z"/>
    <path fill="#261548" d="M176.095495,81.1020411 C176.095495,81.1020411 163.621436,88.474431 159,91.0212566 C159.405876,92.0723879 159.939285,93.072408 160.588857,94 C160.840936,93.9255314 163.644353,93.2553142 169.060218,91.5499836 C173.719848,90.1425273 176.737149,88.6829431 178.746137,84.7063206 C179.45654,83.2914175 178.707944,80.424377 176.095495,81.1020411 Z"/>
    <path fill="#000" d="M159,93.4107579 C159.261997,93.9697269 159.577133,94.5019475 159.941014,95 C160.201967,94.9205379 163.104086,94.205379 168.710632,92.3856968 C173.534317,90.8838631 176.657851,89.3264059 178.737571,85.0831296 C179.168128,84.0741987 179.064087,82.9152176 178.460802,82 C174.10367,87.443154 162.95384,91.9327628 159,93.4107579 Z" opacity=".04"/>
    <path fill="#4F2D9B" d="M171,77.2372117 C170.554966,70.387528 169.539975,64.1498435 166.502811,63.3966136 C164.912465,63.1062184 163.359481,62.6377613 161.872892,62 L158.36727,68.4024535 L155.244222,62.0078461 C153.720798,62.6939102 152.118331,63.1867743 150.473766,63.4750751 C148.13148,63.9458437 146.421611,68.4181458 146,77.1116734 L149.856964,77.3313654 C150.063679,75.9369706 150.36365,74.5581572 150.754841,73.2042937 C150.754307,73.4976118 150.788378,73.7899592 150.85634,74.0752157 C151.028985,74.7562861 151.457025,75.343879 152.050906,75.7150598 C152.050906,75.8249058 152.105559,75.9190595 152.121174,75.9896748 C152.292942,76.5624433 152.488132,82.2195132 151.426296,84.5498179 C156.680824,87.7353524 159.952217,87.9158137 166.003123,84.4948949 C165.308245,83.1453582 165.167708,76.6958278 165.222361,76.2642898 C165.222361,76.052444 165.29263,75.8484442 165.331668,75.6601368 C165.879516,75.2906674 166.273876,74.7324897 166.44035,74.090908 C166.497092,73.8541116 166.531081,73.6123876 166.541849,73.3690627 C166.99534,74.8023995 167.32449,76.2725027 167.525609,77.7629034 C167.525609,77.7629034 167.814491,77.5981343 171,77.2372117 Z"/>
    <path fill="#000" d="M156.151515,58.1852198 C156.151515,58.1852198 156.098485,59.4252387 156,60.648035 C156.66361,61.3516657 157.492579,61.8213079 158.386364,62 C159.36306,61.8124203 160.270939,61.3069039 161,60.5447001 C160.893939,59.9419132 160.810606,59.3391262 160.772727,58.8741192 C160.659091,57.4618755 156.151515,58.1852198 156.151515,58.1852198 Z" opacity=".05"/>
    <path fill="#F2AF81" d="M163.704318,58 L163,61 C163.278153,60.8891904 163.540683,60.7273132 163.778457,60.52 C163.94813,59.8296701 164.021223,59.1096827 163.994695,58.39 C164.001545,58.2907314 163.974206,58.1924543 163.919181,58.1185516 C163.864156,58.0446488 163.786366,58.0017276 163.704318,58 Z"/>
    <path fill="#000" d="M162.63,58 C162.38,58 162.11,58.3959617 162.04,58.942766 C161.97,59.4895703 162.11,59.970381 162.37,59.998664 C162.63,60.026947 162.89,59.6027023 162.96,59.055898 C163.03,58.5090937 162.89,58.028283 162.63,58 Z" opacity=".05"/>
    <path fill="#F2AF81" d="M154.005338,58.390005 C153.978645,59.1096863 154.052193,59.8296724 154.222921,60.5200009 C154.460211,60.7267373 154.722251,60.8885984 155,61 L154.29752,58.0000057 C154.21433,57.999436 154.134883,58.041676 154.0791,58.1161346 C154.023316,58.1905931 153.996487,58.2902091 154.005338,58.390005 Z"/>
    <path fill="#000" d="M154.364641,58.0013639 C154.114641,58.0013639 153.964641,58.5010229 154.034641,59.0572471 C154.104641,59.6134713 154.374641,60 154.634641,60 C154.894641,60 155.034641,59.500341 154.964641,58.9441168 C154.894641,58.3878926 154.624641,57.9730813 154.364641,58.0013639 Z" opacity=".05"/>
    <path fill="#F2AF81" d="M162.048836,57.9463571 C161.123703,57.4819856 160.792197,55.9927942 158.857127,56.3450761 C157.739257,56.5372298 157.222724,55.6965572 156.289882,55 C154.940729,55.6645316 155.218269,57.0416333 154.501291,57.6821457 C154.14426,57.9817142 153.958376,58.4492424 154.007886,58.9231385 C154.12002,59.8129281 154.282196,60.6951406 154.493581,61.5652522 C154.624265,62.1349393 154.920295,62.6491899 155.34162,63.0384307 C156.158821,63.8390713 157.577359,65 158.564168,65 C159.550976,65 160.807616,64.0152122 161.57856,63.3426741 C162.009767,62.9654254 162.32365,62.4639269 162.480565,61.9015212 C162.695562,61.18842 162.862996,60.4607831 162.981679,59.723779 C163.090188,58.9810084 162.708729,58.2541817 162.048836,57.9463571 Z"/>
    <path fill="#734FB1" d="M149.508867,85.0044346 L151.960678,87 L165.977641,87 L168.491133,85.0044346 C168.814577,84.7448155 168.998821,84.3811435 169,84 L149,84 C149.001179,84.3811435 149.185423,84.7448155 149.508867,85.0044346 Z"/>
    <polygon fill="#8E72CC" points="149 84 152.716 87 165.708 87 169 84"/>
    <path fill="#E5A173" d="M149.356964 77.1959184L146.082065 77C146.082065 77.2530612 146.012715 77.4571429 146.005009 77.6040816 145.835485 80.1183673 150.019649 83.8571429 150.874976 85 151.237141 84.6979592 151.560778 84.3469388 151.907532 84.0285714L151.961472 84.0285714C151.961472 83.8163265 151.961472 83.5959184 152 83.3836735 151.429782 81.644898 149.495666 77.6693878 149.495666 77.6693878 149.4351 77.5166829 149.388649 77.3581184 149.356964 77.1959184zM170.995 77.6046987C170.995 77.4576098 170.995 77.2533197 170.917943 77L170.917943 77.1307457C167.774036 77.4821246 167.504338 77.6618999 167.504338 77.6618999 167.504338 77.6618999 165.562513 81.6169561 165 83.3820225 165 83.5944842 165 83.8151175 165.038528 84.0275792L165.092468 84.0275792C165.431517 84.3462717 165.76286 84.6976507 166.125026 85 166.972648 83.8641471 171.164524 80.1215526 170.995 77.6046987z"/>
    <path fill="url(#store-a)" d="M152.197219,88 L164.802781,88 C165.462233,87.9964803 165.995786,87.5508202 166,87 L151,87 C151.004214,87.5508202 151.537767,87.9964803 152.197219,88 Z"/>
    <path fill="#734FB1" d="M166.654009,86 L151.345991,86 L149.027312,77.8811795 C148.965373,77.6717131 149.010104,77.446627 149.148096,77.2733935 C149.286088,77.10016 149.501302,76.9989153 149.729225,77.0000088 L168.270775,77.0000088 C168.498698,76.9989153 168.713912,77.10016 168.851904,77.2733935 C168.989896,77.446627 169.034627,77.6717131 168.972688,77.8811795 L166.654009,86 Z"/>
    <path fill="url(#store-b)" d="M166.655679,87 L151.344321,87 L149.025136,78.8736414 C148.96614,78.6652019 149.01229,78.4424185 149.149953,78.2711137 C149.287615,78.099809 149.501052,77.9995657 149.727202,78.0000014 L168.272798,78.0000014 C168.498948,77.9995657 168.712385,78.099809 168.850047,78.2711137 C168.98771,78.4424185 169.03386,78.6652019 168.974864,78.8736414 L166.655679,87 Z"/>
    <path fill="#4F2D9B" d="M160,82.5154639 C160,82.7835052 159.328729,83 158.5,83 C157.671271,83 157,82.7835052 157,82.5154639 C157,82.2474227 157.671271,82 158.5,82 C159.328729,82 160,82.242268 160,82.5154639 Z"/>
    <path fill="#261548" d="M91.0165198,137.315246 L87.4317181,137.638814 L84.0011013,137.329953 C80.5165198,137.013739 77.0088106,136.660755 73.7709251,137.940321 L73,138.256536 L76.6696035,145 L98.2555066,145 L101,137.82266 C97.8160793,136.616632 94.4008811,137.006385 91.0165198,137.315246 Z"/>
    <path fill="#000" d="M91.0165198,137.34373 L87.4317181,137.697445 L84.0011013,137.359808 C80.5165198,137.014132 77.0088106,136.628261 73.7709251,138.027043 L73,138.372719 C73,138.372719 76.5077093,133.187581 87.4625551,144 C96.7136564,134.546167 101,137.906458 101,137.906458 C97.8160793,136.580027 94.4008811,137.006093 91.0165198,137.34373 Z" opacity=".07"/>
    <path fill="#FCCA97" d="M99.5247181 125C99.5247181 125 100.594102 134.124675 99.5247181 135.324675 98.4553339 136.524675 92 140 92 140L92 125 99.5247181 125zM74.2207619 125C74.2207619 125 73.5768428 134.151484 74.4884586 135.642894 75.4000744 137.134305 81 140 81 140L81 125 74.2207619 125z"/>
    <path fill="#734FB1" d="M73,125.196141 L86.6346537,129 L100,125.196141 L99.2690225,121.189711 C98.9544417,119.240864 97.491691,117.655776 95.5371901,117.145766 L86.6346537,115 L77.5859219,117.168274 C75.6945994,117.671903 74.2637388,119.183602 73.9002565,121.062165 L73,125.196141 Z"/>
    <path fill="#000" d="M73.8704708,122.047411 C74.2341687,120.027266 75.6826973,118.406102 77.5911555,117.883297 L86.6194009,115.235594 L95.532097,117.84318 C97.4877506,118.390414 98.9513871,120.084594 99.2681883,122.167761 L99.7457917,124.983953 L100,124.90372 L99.2681883,120.619256 C98.9532485,118.535166 97.4888284,116.840078 95.532097,116.294675 L86.6194009,114 L77.5603424,116.318745 C75.6646956,116.858594 74.2317043,118.478877 73.8704708,120.490883 L73,124.911743 L73.2850214,125 L73.8704708,122.047411 Z" opacity=".1"/>
    <path fill="#734FB1" d="M96,137.270394 C96,137.270394 89.7524458,141.131328 86.7664823,140.996552 C83.7805189,140.861776 78,138.388241 78,138.388241 L78,123 L95.2956189,123 L96,137.270394 Z"/>
    <path fill="#FCCA97" d="M86.9999578 121C85.3431268 121 84 119.687052 84 118.067449L84 116 89.9999155 116 89.9999155 118.045455C90.0059121 118.827019 89.6924953 119.578588 89.1292429 120.133314 88.5659904 120.68804 87.7995097 121.000022 86.9999578 121zM82.3797909 112L91.4020906 112C91.7323068 112 92 112.280121 92 112.625668L92 113.55615C92 114.353566 91.3822466 115 90.6202091 115L82.3797909 115C81.6177534 115 81 114.353566 81 113.55615L81 113.44385C81 112.646434 81.6177534 112 82.3797909 112z"/>
    <path fill="#EFB378" d="M84,118.517328 L85.4086957,119.58535 C86.3958081,120.138217 87.6041919,120.138217 88.5913043,119.58535 L90,118.583619 L90,117 L84.0372671,117 L84,118.517328 Z" opacity=".5"/>
    <path fill="#FCCA97" d="M89.8546074,118.118269 L87.8893691,119.600249 C87.0000072,120.13325 85.9081581,120.13325 85.0187963,119.600249 L83.1639646,118.11055 C82.8385268,117.848957 82.6243564,117.463545 82.5677687,117.037659 L82.0451772,113.132026 C81.6624342,110.291565 83.7601605,106 86.4982453,106 L86.4540827,106 C89.1627258,106 91.2972543,110.237535 90.9660343,113.054839 L90.494966,116.991347 C90.4424767,117.444831 90.2099513,117.854036 89.8546074,118.118269 Z"/>
    <path fill="#EFB378" d="M85,109.098361 C85,109.098361 87.1585903,110.827869 91.784141,111 C92.5550661,110.377049 91.0132159,107 91.0132159,107 L85,109.098361 Z" opacity=".5"/>
    <path fill="#251547" d="M91.0521303,105.405724 C90.4840445,104.528167 89.500344,103.998001 88.4445595,104.000371 L85.7508527,104.000371 C84.1649397,103.981523 82.6580663,104.68179 81.6633093,105.899914 C81.1888894,106.715536 80.960677,107.647849 81.0055436,108.587073 L81.342257,111.181572 L82.0235142,113.884174 C82.0235142,113.948143 82.076102,114 82.1409724,114 C82.2058427,114 82.2584305,113.948143 82.2584305,113.884174 C82.3258268,112.990097 82.3467357,112.093202 82.3210749,111.197015 C82.3210749,111.197015 83.9341667,110.092809 84.3961688,109.652671 C86.2187431,110.213666 88.1101369,110.527981 90.0184986,110.586999 L90.9111805,110.586999 C90.9111805,110.586999 91.0442998,112.509708 91.2322328,113.8224 C91.2479823,113.888753 91.3079911,113.935677 91.3770978,113.935677 C91.4462046,113.935677 91.5062134,113.888753 91.5219629,113.8224 L92.0779314,110.586999 C93.4399697,109.980684 94.2107947,108.539968 93.9494312,107.089059 L92.6417305,106.618034 C91.9912198,106.397059 91.4325907,105.97102 91.0521303,105.405724 Z"/>
    <polygon fill="#9F8ACE" points="96.118 141 97.783 137.843 98 137 76 137 76.209 137.843 77.58 140.783"/>
    <path fill="#734FB1" d="M98,137 L76,137 C76.1499129,138.173115 76.9444641,139.025268 77.8642757,138.999428 L96.4296765,138.999428 C97.2841255,138.999428 97.9767932,138.104253 97.9767932,137 L98,137 Z"/>
    <path fill="#9F8ACE" d="M96.9573648,129.000013 L77.0426352,129.000013 C76.7381705,128.998517 76.4484173,129.131268 76.2501492,129.363092 C76.0518811,129.594916 75.9651111,129.902412 76.0128299,130.204106 L77.282665,138.368634 C77.4281682,139.310149 78.2377808,140.003553 79.1874175,139.999986 L94.8125825,139.999986 C95.7622192,140.003553 96.5718318,139.310149 96.717335,138.368634 L97.9871701,130.204106 C98.0348889,129.902412 97.9481189,129.594916 97.7498508,129.363092 C97.5515827,129.131268 97.2618295,128.998517 96.9573648,129.000013 Z"/>
    <path fill="#734FB1" d="M96,140 L96,140.0875 C96,140.59146 95.4916242,141 94.8645108,141 L78.1354892,141 C77.8343387,141 77.5455226,140.903862 77.3325771,140.732735 C77.1196315,140.561608 77,140.32951 77,140.0875 L77,140 L96,140"/>
    <path fill="#2F1B5B" d="M96.9574533,130 L77.0425467,130 C76.7373971,130.000808 76.4478355,130.135261 76.2498597,130.368069 C76.051884,130.600878 75.9652634,130.908795 76.0127323,131.211005 L77.429695,140.332357 C77.484089,140.718183 77.8153473,141.003797 78.2039915,140.999962 L95.7882655,140.999962 C96.1769098,141.003797 96.5081681,140.718183 96.5625621,140.332357 L97.9872677,131.211005 C98.0347366,130.908795 97.948116,130.600878 97.7501403,130.368069 C97.5521645,130.135261 97.2626029,130.000808 96.9574533,130 Z"/>
    <circle cx="87" cy="135" r="1" fill="#4F2D9B"/>
    <path fill="#4C2C95" d="M92.8088515,157 L92.0347462,160.104309 C91.9241796,160.551572 92.0825924,161.023865 92.437281,161.304428 L95.6885233,163.848681 C96.9245156,164.811618 98.3277911,165.520502 99.8222458,165.936888 C100.435053,166.102642 101.087399,165.937093 101.556242,165.496844 C101.827935,165.239152 101.98766,164.87915 101.999315,164.498212 C102.010969,164.117274 101.873568,163.747561 101.61817,163.472643 L97.7476435,159.31223 L92.8088515,157 Z"/>
    <path fill="#FFF" d="M100.038849,165.061759 C98.5420037,164.654209 97.1375554,163.948449 95.9052018,162.984527 L92.0347455,160 L92.0347455,160.135299 C91.924181,160.580211 92.0825909,161.050021 92.437273,161.32911 L95.6884563,163.859989 C96.924426,164.817865 98.327676,165.523023 99.8221036,165.93722 C100.4349,166.102102 101.087234,165.937424 101.556068,165.499489 C101.861161,165.210305 102.023245,164.795153 101.9973,164.369348 C101.927632,164.464853 101.679923,165.348273 100.038849,165.061759 Z"/>
    <path fill="#261548" d="M100.918203,138.082841 C100.300586,137.91666 99.6421552,138.002605 99.0880397,138.321732 C98.5339242,138.640859 98.1296128,139.166971 97.9642224,139.784103 L97.3197175,142.198056 L93,158.291075 L94.5345355,159.86206 L99.3529771,160 L103.672695,143.906981 L103.856839,143.209617 C104.144906,142.138478 103.994571,140.996885 103.438985,140.036575 C102.8834,139.076265 101.968195,138.37611 100.895185,138.090504 L100.918203,138.082841 Z"/>
    <polygon fill="#261548" points="97 142 93 158.401 94.442 160" opacity=".07"/>
    <path fill="#4C2C95" d="M81.1860634,157 L81.9617629,160.112317 C82.0786245,160.559257 81.9222448,161.034877 81.5661562,161.315533 L78.3314893,163.850306 C77.092476,164.817959 75.68282,165.52638 74.1814971,165.93588 C73.5674398,166.103586 72.9130448,165.937431 72.4439302,165.494701 C72.170784,165.236409 72.0107598,164.874502 72.0005229,164.491899 C71.9902861,164.109296 72.1307139,163.738792 72.3896313,163.465277 L76.2681287,159.302152 L81.1860634,157 Z"/>
    <path fill="#FFF" d="M73.9402935,165.0573 C75.4387021,164.648995 76.8465779,163.946392 78.0866741,162.988041 L81.9617962,160 L81.9617962,160.13582 C82.078556,160.580976 81.9223125,161.054697 81.5665337,161.334232 L78.3269317,163.858888 C77.0889967,164.822678 75.6805674,165.528271 74.1805511,165.936136 C73.5670282,166.103172 72.9132027,165.937681 72.4444964,165.496718 C72.1387279,165.203285 71.9766177,164.784036 72.0027325,164.354231 C72.049234,164.450104 72.2894915,165.33693 73.9402935,165.0573 Z"/>
    <path fill="#261548" d="M73.0690103,138.088021 C73.6957098,137.914836 74.3659618,137.999357 74.9295666,138.322644 C75.4931715,138.645932 75.9030019,139.180953 76.0672173,139.807812 L76.7069375,142.21859 L81,158.34163 L79.4585054,159.877158 L74.6182123,160 L70.3251499,143.87696 L70.1401705,143.178295 C69.548027,140.941792 70.8862714,138.650158 73.13067,138.05731 L73.0690103,138.088021 Z"/>
    <polygon fill="#261548" points="77 142 81 158.409 79.535 160" opacity=".07"/>
    <path fill="#F1F2F2" stroke="#502D9F" stroke-linecap="round" stroke-width="1.92" d="M226 138.5L203 138.5M233 131.5L225 131.5M218 143.5L210 143.5M179 135.5L171 135.5"/>
    <path fill="#734FB1" stroke="#261548" stroke-linecap="round" stroke-width="1.92" d="M181.000017,145.72244 C180.996351,140.925424 184.773899,137.027138 189.452166,137.000141 C194.130434,136.973144 197.950533,140.827588 197.999524,145.624342 C198.048515,150.421096 194.307978,154.356726 189.630185,154.430195 L189.630185,159 L185.801362,153.58219 C182.860185,152.126811 180.993476,149.071028 181.000017,145.72244 Z"/>
    <circle cx="190" cy="146" r="1" fill="#FFF"/>
    <circle cx="185" cy="146" r="1" fill="#FFF"/>
    <path fill="#FFF" d="M193.000027,145.992605 C192.997033,146.398394 193.239567,146.765758 193.613901,146.922433 C193.988236,147.079108 194.420138,146.994026 194.707082,146.707082 C194.994026,146.420138 195.079108,145.988236 194.922433,145.613901 C194.765758,145.239567 194.398394,144.997033 193.992605,145.000027 C193.44442,145.000027 193.000027,145.44442 193.000027,145.992605 Z"/>
    <path fill="#FFB380" d="M214,197.898262 L207.578876,193 L199.974099,194.749925 C199.974099,194.749925 197.459804,207.549595 197.490749,212.325592 C197.486738,213.040884 197.44024,213.755327 197.351496,214.465238 C197.250933,215.160541 197.301035,215.869012 197.498485,216.543752 C197.73831,217.39961 195.100234,233.637998 193.916581,236.557087 C193.483349,237.603986 190.953581,241.447708 190.953581,241.447708 L189.537839,241.692239 C189.259445,241.733778 189.042079,241.951595 189.004035,242.22715 C188.98424,242.395441 189.037887,242.564101 189.151565,242.69097 C189.265244,242.817839 189.42821,242.890929 189.599729,242.891969 L191.03868,242.891969 C191.546116,242.888483 192.025511,242.661526 192.346114,242.273 L193.336359,241.065628 C194.269131,239.929253 195.628587,239.215107 197.103934,239.086455 C197.505043,238.850539 197.751653,238.424253 197.753783,237.963141 C197.751923,237.465036 197.601212,236.978561 197.320551,236.564729 C197.271471,236.498107 197.229961,236.426354 197.19677,236.350764 C196.792376,235.499027 196.835723,234.505697 197.312814,233.691489 C198.597039,231.399011 201.428523,226.049895 202.078371,223.275996 C202.534813,221.312107 201.977799,219.042553 202.720484,216.474978 C203.285233,213.983818 205.21157,208.474228 205.969727,203.377285 L206.9445,212.050494 C207.176589,213.532964 207.331315,216.482619 207.679448,217.873389 C208.027581,219.264159 207.369996,224.15478 207.749075,227.547648 C208.25967,232.094396 208.631012,237.48172 208.391187,239.544951 C208.267406,240.591849 207.9038,243.32754 207.9038,243.32754 L208.228725,244 L210.820383,244 L211.145308,243.61792 C211.298784,243.431968 211.363632,243.189678 211.323242,242.953102 C211.011794,241.776567 210.809811,240.574388 210.719811,239.361552 C210.642448,233.79083 212.568786,227.08151 212.68483,224.536859 C212.802794,222.474711 212.709485,220.406066 212.406323,218.362451 C212.313462,217.759688 212.313462,217.146515 212.406323,216.543752 C213.721493,209.383578 214,197.898262 214,197.898262 Z"/>
    <path fill="#D89C73" d="M202.653307,217.610322 C202.179566,219.902055 202.590141,221.895863 202.17167,223.660498 C201.508433,226.448774 198.618614,231.765595 197.307932,234.080246 C197.167557,234.319095 197.063828,234.576424 197,234.844157 C197.789568,230.26069 200.055628,229.076628 201.579494,223.12576 C202.029548,221.361126 201.9348,220.390958 201.9348,217.877691 C201.9348,217.258923 205.985283,197 205.985283,197 C205.985283,197 208.78825,218.099225 208.882998,218.618685 C209.017224,219.329122 208.227656,223.255625 208.559275,226.73906 C209.546235,237.204642 208.559275,240.596407 208.614545,239.916527 C208.859311,237.884523 208.480318,232.468393 207.959203,227.923122 C207.572315,224.531357 208.251343,219.634686 207.888142,218.252007 C207.524941,216.869328 207.374923,213.912992 207.138052,212.431005 L206.143197,203.760613 C205.353629,208.855901 203.403396,214.3637 202.827011,216.85405 C202.749208,217.101472 202.691136,217.354305 202.653307,217.610322 Z" opacity=".5"/>
    <path fill="#4F2D9B" d="M207.510638,244.794958 L210.497872,244.794958 C210.77519,244.794958 211,244.530806 211,244.204958 L207,244.204958 C206.999981,244.363183 207.05405,244.514788 207.150066,244.625726 C207.246082,244.736665 207.375997,244.797639 207.510638,244.794958 Z"/>
    <path fill="#000" d="M208,243.377246 L208.311679,244 L210.797689,244 L210.909003,243.872618 C210.998243,243.770358 211.023999,243.630668 210.97669,243.505512 C210.929382,243.380355 210.816089,243.288463 210.678954,243.264018 L209.246716,243.016332 C208.964099,242.971735 208.673966,243.019094 208.422993,243.15079 L208,243.377246 Z" opacity=".15"/>
    <path fill="#251547" d="M210.991998 243.648366C210.882169 242.755365 210.686262 241.870075 210.405939 241L210.575811 242.853856C209.51541 242.618985 208.385898 242.658479 207.356732 242.966412L207.484136 241.403876 207.084936 243.443118C207.03298 243.580862 207.004425 243.723323 207 243.866857 207 243.939989 207.076054 243.999275 207.169872 243.999275 207.263302 243.999275 210.711709 243.999275 210.805138 243.999275 210.850238 244.002968 210.895359 243.992452 210.930456 243.970067 210.965553 243.947683 210.987711 243.915289 210.991998 243.880098 211.002667 243.803078 211.002667 243.725386 210.991998 243.648366zM197.96421 238.922612C198.082389 238.244167 197.905086 237.54884 197.47396 237 196.086175 237.26844 195.87499 238.29867 194.457036 239.902056 192.51112 242.158404 191.244012 242.035067 190.791473 241.70133 190.482238 241.70133 190.112665 241.824667 189.856226 241.860943 189.581521 241.891024 189.333406 242.032955 189.174759 242.250766 189.016111 242.468578 188.962158 242.741366 189.026572 243L192.646881 243 194.411782 240.92503 195.920244 239.931076 197.722856 239.430472"/>
    <path fill="#4F2D9B" d="M193.762913 241.843133L192.962743 242.937903C192.649004 243.356103 192.17545 243.599432 191.674852 243.599666L189 243.599666 189 244 192.330229 243.999992C192.709293 244.001477 193.059327 243.782574 193.244708 243.428098 193.938188 242.080061 194.692633 240.887252 196.003387 240.372547 196.376799 240.838233 196.399661 243.999992 196.399661 243.999992L197.093141 243.999992 198 239 197.634208 239C196.323455 239.228758 194.601185 240.732024 193.762913 241.843133zM202.10496 168.002433C202.10496 168.002433 197.949342 167.863675 196.875418 171.856814L193.560262 181.061075 185 182.541158 185.56809 184.20625C185.56809 184.20625 194.945468 185.879051 196.182815 184.630232L198.369573 180.945444 199.007702 182.132593C199.354797 186.611251 199.153596 191.115059 198.408483 195.545839L195.770366 215.58862C200.954519 217.87834 206.717391 218.558318 212.299454 217.538937 215.287764 202.892289 213.60684 192.577966 212.73525 190.288463 212.501788 189.679471 212.260544 189.085896 212.042647 188.492322 211.214167 186.296783 211.15116 183.88977 211.863659 181.65465L213.622404 176.11205 213.404506 170.361314C213.404506 170.361314 212.937583 169.8217 210.361722 168.865814 207.785862 167.909927 202.10496 168.002433 202.10496 168.002433z"/>
    <path fill="#000" d="M212.589399 181.598548L214 177.154564 212.625943 176C212.625943 176 211.507694 180.8361 212.260502 183 212.334497 182.525295 212.444441 182.056814 212.589399 181.598548zM197.805759 183L199 181.327648C198.097511 179.71021 197.876966 177.889996 198.373513 176.157092L199 174 198.021114 175.745063C196.738921 178.035147 196.66098 180.660844 197.805759 183zM208 182.721405C208 182.721405 204.918931 182.172293 203.594071 182.02694 202.269212 181.881587 200.898136 182.366097 201.005973 182.487225 203.295665 183.08005 205.678891 183.159848 208 182.721405z" opacity=".15"/>
    <polygon fill="#F0F0EA" points="197.736 176.493 208.043 176.495 208.046 191.325 197.739 191.323" transform="rotate(-9.4 202.891 183.909)"/>
    <polygon fill="#F0F0EA" points="197.787 176.864 208.094 176.865 208.095 191.694 197.788 191.693" transform="rotate(-4.7 202.941 184.28)"/>
    <polygon fill="#F0F0EA" points="196.928 177.364 207.235 177.365 207.237 192.195 196.93 192.194" transform="rotate(-4.7 202.082 184.78)"/>
    <polygon fill="#734FB1" points="196.928 177.367 207.234 177.371 207.239 192.202 196.933 192.198" transform="rotate(-18.95 202.083 184.785)"/>
    <path fill="#F0F0EA" d="M200.829291,179.929033 L206.788403,179.930393 C207.622174,179.930519 208.298048,180.606393 208.298174,181.440164 L208.30025,189.100937 C208.300377,189.934887 207.624429,190.61104 206.790479,190.611166 C206.790327,190.611166 206.790174,190.611166 206.790022,190.611166 L200.83091,190.609349 C199.997138,190.609223 199.321264,189.933349 199.321138,189.099578 L199.319062,181.438805 C199.318936,180.604855 199.994883,179.928702 200.828833,179.928576 C200.828986,179.928576 200.829138,179.928576 200.829291,179.928576 Z" transform="rotate(-7.36 203.81 185.27)"/>
    <path fill="#FFF" d="M200.876192,180.23674 L206.835304,180.2381 C207.669076,180.238226 208.344949,180.914099 208.345076,181.747871 L208.347152,189.408644 C208.347278,190.242594 207.67133,190.918746 206.83738,190.918873 C206.837228,190.918873 206.837076,190.918873 206.836923,190.918873 L200.877811,190.917056 C200.04404,190.91693 199.368166,190.241056 199.36804,189.407285 L199.365964,181.746512 C199.365837,180.912562 200.041785,180.236409 200.875735,180.236283 C200.875887,180.236283 200.87604,180.236283 200.876192,180.236283 Z" transform="rotate(-7.36 203.857 185.578)"/>
    <path fill="#5C5247" d="M199.763994,181.446977 C199.781794,181.59292 199.679553,181.726278 199.533994,181.746977 C199.463378,181.758359 199.391193,181.740147 199.334429,181.696628 C199.277664,181.653109 199.241336,181.588127 199.233994,181.516977 C199.235363,181.382579 199.335378,181.269652 199.468627,181.252053 C199.601875,181.234454 199.727779,181.317543 199.763994,181.446977 Z"/>
    <path fill="#EDF2F9" d="M204.940514,185.670709 C205.084548,186.066558 204.961275,186.509513 204.632941,186.775908 C204.304607,187.042304 203.842642,187.074185 203.48031,186.855454 C203.117978,186.636722 202.934106,186.214964 203.021537,185.803141 C203.108969,185.391318 203.448683,185.079024 203.869146,185.023948 C204.344416,184.912474 204.82175,185.20063 204.940514,185.670709 Z"/>
    <path fill="#FFB380" d="M217,186.608048 L210.128797,185.907601 C209.858197,185.623606 209.627277,185.308071 209.441677,184.968703 C209.365476,184.837516 209.260461,184.723193 209.133657,184.633383 L208.256987,184 C208.256987,184 208.256987,184.551416 208.256987,184.61848 C208.170109,185.274218 207.340826,185.438152 206.6774,185.363636 L205.26367,185.020864 C204.544957,184.76006 204.426488,184.767511 204.181652,185.125186 L206.053463,185.937407 C206.378106,186.056436 206.713945,186.146254 207.056501,186.205663 C207.222357,186.578241 205.753341,186.078987 205.753341,186.078987 L204.616039,185.736215 C204.409373,185.673958 204.18654,185.770991 204.102673,185.959762 L204,186.220566 C204.03949,186.377049 205.105711,186.913562 205.105711,186.913562 L205.042527,187.152012 L207.001215,188.150522 C207.001215,188.150522 207.530377,188.411326 209.947145,187.979136 L215.704739,189 L217,186.608048 Z"/>
    <path fill="#4F2D9B" d="M217.112331,177.039436 C217.654453,178.781275 219.908132,186.465404 219.908132,186.465404 C220.434765,188.207242 218.568316,189.085869 217.584751,188.993382 L213.092882,188.515533 L213.565303,185.478876 L215.780259,185.478876 C215.780259,185.478876 214.58759,183.1667 213.518835,180.854525 C211.830512,177.270654 210.31257,174.264826 211.327112,171.413143 L211.977659,170.010423 C213.573047,169.833156 215.509198,171.906407 217.112331,177.039436 Z"/>
    <path fill="#251547" d="M204.955519,153.484709 C204.955519,153.484709 200.376134,151.276091 198.443276,156.287956 C196.792913,160.56619 199.996996,169.524224 203.98909,168.97593 C210.144497,168.134184 204.955519,153.484709 204.955519,153.484709 Z"/>
    <path fill="#FFB380" d="M203.348225,165.115292 L203.465949,168.496725 L202.332863,168.625614 C201.756346,169.945163 201.312567,171.322113 201.008477,172.73489 C200.765673,174.433189 205.805697,175.214103 207.512683,169.823521 C209.219669,164.432939 205.893989,163 205.893989,163 L203.348225,165.115292 Z"/>
    <path fill="#D89C73" d="M206.44523,163 L204,165.081481 L204.106007,168 L204.169611,167.962963 L208,165.614815 L207.943463,164.733333 C207.551585,164.062653 207.043428,163.474758 206.44523,163 Z"/>
    <path fill="#FFB380" d="M199.409025,158.724967 C199.735058,159.702771 198.756958,161.355726 199.058539,162.294728 C199.609258,163.603665 200.306076,164.852486 201.137001,166.019695 C201.451993,166.544773 202.001015,166.904679 202.628603,166.997499 C203.027794,167.016698 203.424242,166.92503 203.769719,166.733647 L208,164.405543 L207.494649,157.475551 L200.713157,155 L199.898074,155.845878 C199.345493,156.416388 199.106975,157.201148 199.254159,157.964453 L199.409025,158.724967 Z"/>
    <path fill="#251547" d="M201,155.444585 C201.570779,156.816721 202.677153,157.905885 204.07097,158.467785 C205.744648,159.019519 205.783036,161.490985 207.14194,161.097969 C207.717747,164.801389 206.12852,166.267641 207.103553,169.714088 C207.664378,172.107442 207.703627,174.590627 207.218714,177 C207.218714,177 212.754137,173.9768 212.98446,165.526957 C213.138008,159.609043 212.147621,157.394549 210.282006,155.195171 C208.601087,153.331087 205.988835,152.571624 203.548905,153.23765 C202.441219,153.620931 201.527581,154.411992 201,155.444585 Z"/>
    <path fill="#251547" d="M210.176346,155.199061 C208.866645,153.792732 206.979525,152.991057 205,153 C206.028889,153.355238 209.163409,155.010145 209.976949,156.717948 C213.964889,165.105831 208.828422,165.989959 209.833383,168.513881 C212.002823,173.962226 206.99397,177 206.99397,177 C206.99397,177 212.744579,173.977339 212.983856,165.529003 C213.143373,159.612145 212.114485,157.398046 210.176346,155.199061 Z" opacity=".15"/>
    <path fill="#FFB380" d="M207.212557,161.662202 C207.316814,161.343816 207.665245,161.095216 208.111486,161.02083 C208.318389,160.983236 208.537045,160.996802 208.731747,161.059313 C209.432912,161.29662 208.659833,162.880808 207.563139,162.983427 C206.718146,163.137356 207.023782,162.181713 207.212557,161.662202 Z"/>
    <path fill="#F0F0EA" d="M207.98089,162.636477 C207.925624,162.831283 207.758323,162.973515 207.557178,162.996699 C207.356033,163.019884 207.160766,162.919442 207.062638,162.742316 C206.96451,162.56519 206.982899,162.346361 207.109211,162.188099 C207.235523,162.029838 207.444813,161.963399 207.639268,162.019833 C207.903316,162.096465 208.055937,162.371952 207.98089,162.636477 Z"/>
    <path fill="#D89C73" d="M200.498861,160.45 C200.501898,160.483264 200.501898,160.516736 200.498861,160.55 C200.501898,160.516736 200.501898,160.483264 200.498861,160.45 Z"/>
    <path fill="#000" d="M215,183 C215.772059,184.584767 216.433824,185.874693 216.433824,185.874693 L218,186 C216.850206,185.162774 215.837994,184.150561 215,183 Z" opacity=".15"/>
    <g transform="translate(148 147)">
      <path fill="#4F2D9B" d="M3.22065574,84.5951163 C2.28593466,84.8095743 1.4100012,85.2261573 0.654918033,85.8153488 L0.208032787,86.1683721 C0.0778566637,86.2710856 0.0390825013,86.4513154 0.11557377,86.5981395 C0.400655738,87.1430233 4.8695082,92.8067442 5.66311475,94.2188372 C6.45672131,95.6309302 8.03622951,96.9739535 8.85295082,96.3369767 C6.47213115,90.3739535 6.15622951,88.3172093 6.15622951,88.3172093 L3.22065574,84.5951163 Z"/>
      <path fill="#8554D3" d="M6.16393443,94.2418605 C5.44737705,92.967907 1.35606557,87.5190698 0.339016393,86.0455814 L0.184918033,86.1683721 C0.0547419096,86.2710856 0.0159677472,86.4513154 0.0924590164,86.5981395 C0.377540984,87.1430233 4.84639344,92.8067442 5.64,94.2188372 C6.35655738,95.4851163 7.6895082,96.69 8.5447541,96.4751163 C7.51640201,96.0263351 6.67533454,95.2373972 6.16393443,94.2418605 Z"/>
      <path fill="#261548" d="M24.3244262,74.8716279 L6.35655738,89.1844186 C5.16054713,89.1519752 4.03694154,88.6063858 3.27459016,87.687907 C2.4202612,86.902578 1.8308435,85.8731695 1.58721311,84.7409302 L15.8798361,71.28 L19.6090164,68.7474419 L24.3244262,74.8716279 Z"/>
      <path fill="#271949" d="M21.5737705,69.4074419 C21.5737705,69.4074419 2.25754098,82.315814 3.29770492,87.687907 C2.44337596,86.902578 1.85395825,85.8731695 1.61032787,84.7409302 L15.9029508,71.28 L19.6321311,68.7474419 L21.5737705,69.4074419 Z"/>
      <path fill="#215266" d="M12.4434426,16.9374419 C12.0813115,19.1860465 17.8368852,23.3993023 17.8368852,23.3993023 C17.8368852,23.3993023 22.3134426,27.1674419 22.7911475,24.0976744 C23.2688525,21.027907 21.5737705,17.6511628 21.5737705,17.6511628 C21.5737705,17.6511628 16.0801639,13.7602326 12.4434426,16.9374419 Z"/>
      <path fill="#FCCA97" d="M14.4313115,10.6827907 L19.4934426,12.9851163 L19.6398361,15.1186047 C19.6539784,16.2573829 20.1834062,17.3289669 21.0806557,18.0348837 C21.0806557,18.0348837 26.9672131,23.8060465 22.1670492,24.1360465 C17.3668852,24.4660465 12.4742623,17.9581395 12.4742623,17.9581395 C13.8465656,15.7843446 14.5286243,13.2487848 14.4313115,10.6827907 Z"/>
      <path fill="#4F2D9B" d="M25.3491803,52.47 C26.276006,52.3110074 27.1210033,51.8428214 27.7454098,51.1423256 C27.8840984,50.965814 26.7360656,48.5867442 25.0563934,44.2353488 C23.6463934,40.6130233 25.3491803,52.47 25.3491803,52.47 Z"/>
      <path fill="#215266" d="M25.5418033,50.7893023 C26.4678073,50.6279943 27.3120845,50.1602073 27.9380328,49.4616279 C28.0767213,49.2851163 26.9209836,46.9060465 25.2490164,42.5546512 C23.8313115,38.9323256 25.5418033,50.7893023 25.5418033,50.7893023 Z"/>
      <path fill="#FCCA97" d="M26.9672131,26.8604651 L26.0888525,39.5462791 L26.79,46.3381395 L27.2985246,47.5583721 L26.2737705,51.3955814 L24.9408197,47.9727907 C24.9408197,47.9727907 23.1686885,32.9309302 23.2072131,32.5472093 C23.2457377,32.1634884 23.2072131,26.2925581 23.2072131,26.2925581 L26.9672131,26.8604651 Z"/>
      <path fill="#261548" d="M24.5632787,45.1255814 L24.91,47.9497674 L26.2429508,51.3725581 L25.5109836,52.7155814 L27.1521311,63.6209302 C27.4832268,65.8173129 27.5916415,68.0413016 27.4757377,70.2593023 C27.3907549,71.8998036 26.5341245,73.4043492 25.1642623,74.3190698 L24.3321311,74.8716279 L19.4472131,74.3113953 L19.7554098,69.8295349 L13.5144262,46.2 L24.5632787,45.1255814 Z"/>
      <path fill="#271949" d="M19.1313115,51.902093 L21.1885246,67.8648837 C21.2927973,68.7372992 20.9479573,69.6032025 20.2716393,70.1672093 L19.6860656,70.6583721 L13.5221311,46.1693023 L19.1313115,51.902093 Z"/>
      <path fill="#4F2D9B" d="M14.855082,92.4076744 C14.762623,93.7890698 15.887541,94.71 16.3190164,96.4137209 C16.5963934,97.5495349 16.7042623,98.7160465 13.915082,98.815814 C11.3416393,98.9002326 11.3416393,97.2809302 11.3647541,97.0430233 C11.3878689,96.8051163 12.3047541,93.7660465 12.3047541,93.7660465 L14.855082,92.4076744 Z"/>
      <path fill="#8554D3" d="M13.8688525,98.1865116 C13.1375479,98.2997583 12.3921294,98.2867781 11.6652459,98.1481395 C11.9734426,98.6623256 12.6129508,98.8618605 13.9767213,98.815814 C15.5947541,98.7544186 16.2342623,98.5395349 16.4345902,97.8948837 C15.7796721,98.2325581 14.9398361,98.1481395 13.8688525,98.1865116 Z"/>
      <path fill="#261548" d="M22.5985246,45.5476744 L22.0129508,50.5130233 C21.898841,51.4793685 21.3485236,52.3411334 20.5181967,52.8537209 C20.0232382,53.161997 19.6713119,53.6532957 19.5396721,54.2197674 L16.9508197,71.6023256 L15.8952459,94.4567442 C15.8952459,94.4567442 16.0031148,94.8404651 13.7070492,95.0016279 C11.4109836,95.1627907 11.1490164,94.4260465 11.1490164,94.4260465 L9.93163934,83.7355814 C9.6542623,80.9727907 9.21508197,77.9030233 9.66196721,75.1632558 L10.1627869,72.0934884 L9.24590164,62.7383721 C8.94847299,60.608251 8.83505172,58.4566421 8.90688525,56.3072093 L9.09180328,53.9511628 C9.12546611,53.5129723 9.07312562,53.0724459 8.93770492,52.654186 C8.52813391,51.3844283 8.38391554,50.0445889 8.51393443,48.7172093 L8.87606557,44.9874419 L22.5985246,45.5476744 Z"/>
      <path fill="#271949" d="M11.472623,72.0013953 C10.7550882,65.6612714 10.843105,59.2563271 11.7345902,52.9381395 C11.7345902,52.9381395 17.5672131,52.9381395 17.8214754,47.6504651 L8.96081967,44.9951163 L8.87606557,44.9951163 L8.51393443,48.7248837 C8.38391554,50.0522633 8.52813391,51.3921027 8.93770492,52.6618605 C9.07312562,53.0801203 9.12546611,53.5206467 9.09180328,53.9588372 L8.90688525,56.3148837 C8.83505172,58.4643165 8.94847299,60.6159254 9.24590164,62.7460465 L10.155082,72.0934884 L9.6542623,75.1632558 C9.20737705,77.9030233 9.6542623,80.9727907 9.92393443,83.7355814 L11.1413115,94.3953488 C11.1413115,94.3953488 9.10721311,80.3665116 11.472623,72.0013953 Z"/>
      <path fill="#894437" d="M12.4280328,47.5813953 C12.2662295,49.2851163 11.9118033,51.7409302 11.9118033,51.7409302 C11.9118033,51.7409302 15.3636066,52.0939535 16.2959016,49.0395349 C17.2281967,45.9851163 12.4280328,47.5813953 12.4280328,47.5813953 Z"/>
      <path fill="#734FB1" d="M7.3504918,19.7616279 L12.4742623,17.9504651 C12.4742623,17.9504651 15.6178689,21.3886047 20.2331148,20.7439535 C20.8584146,20.6915908 21.3893857,20.2667951 21.575591,19.6699249 C21.7617962,19.0730547 21.5660413,18.4233341 21.0806557,18.0272093 C22.0045859,18.2559554 22.8953209,18.6015543 23.7311475,19.0555814 C24.9514445,19.6855803 25.8732978,20.7692267 26.2968852,22.0716279 C26.8705022,23.5995533 27.0993616,25.2345293 26.9672131,26.8604651 C26.395764,27.0837564 25.85475,27.3776869 25.3568852,27.7353488 C25.4572371,28.8723113 25.3555156,30.0179928 25.0563934,31.1197674 C24.6189112,33.1431396 24.3253946,35.1947517 24.1780328,37.2593023 C24.3937705,41.6030233 25.0332787,47.282093 24.9485246,47.9113953 C24.2859016,48.6251163 18.607377,50.8123256 8.49081967,48.5483721 C8.34367756,42.6869174 7.29919125,36.8821685 5.39344262,31.3346512 L4.22229508,28.2648837 C3.55595241,26.5198135 3.55595241,24.5918144 4.22229508,22.8467442 C4.69070727,21.3676344 5.86093896,20.2135188 7.3504918,19.7616279 Z"/>
      <path fill="#22485B" d="M26.9672131,26.8604651 L26.8901639,39.5462791 L26.79,45.2790698 C26.79,45.2790698 24.8714754,46.5376744 24.7559016,45.5553488 C24.3013115,41.672093 23.1763934,32.8311628 23.214918,32.5088372 C23.2534426,32.1865116 23.214918,26.254186 23.214918,26.254186 C23.214918,26.254186 24.0932787,20.3909302 23.7696721,19.0402326 C27.7916393,20.0762791 26.9672131,26.8604651 26.9672131,26.8604651 Z"/>
      <path fill="#261548" d="M26.9672131,26.8604651 L26.8901639,39.5462791 L27.0596721,46.3381395 C27.0596721,46.3381395 24.8714754,47.5967442 24.7481967,46.6144186 C24.2936066,42.7311628 23.1686885,32.8004651 23.2072131,32.524186 C23.2457377,32.247907 23.2072131,26.2695349 23.2072131,26.2695349 C23.2072131,26.2695349 24.0855738,20.4062791 23.7619672,19.0555814 C27.7916393,20.0762791 26.9672131,26.8604651 26.9672131,26.8604651 Z"/>
      <path fill="#261548" d="M22.6755738,18.5567442 C24.0239344,25.4023256 20.5181967,34.8265116 20.5181967,34.8265116 L21.0806557,40.9660465 L24.9331148,47.9497674 L25.0795082,44.2583721 L24.3090164,36.8218605 C24.3090164,36.8218605 26.3662295,28.6869767 25.7113115,25.7093023 C25.0563934,22.7316279 24.2319672,19.3088372 23.7157377,19.0555814 C23.1995082,18.8023256 22.6755738,18.5567442 22.6755738,18.5567442 Z"/>
      <path fill="#22485B" d="M21.5737705,17.6511628 C21.5737705,17.6511628 23.6078689,24.7346512 20.5104918,34.8265116 C23.6463934,26.2618605 23.9083607,23.5144186 23.9083607,23.5144186 L23.1378689,22.6472093 L23.4768852,21.7186047 L22.6370492,18.5567442 L21.5737705,17.6511628 Z"/>
      <path fill="#261548" d="M21.5737705,17.6511628 C21.5737705,17.6511628 23.6078689,24.7346512 20.5104918,34.8265116 C23.6463934,26.2618605 23.9083607,23.5144186 23.9083607,23.5144186 L23.1378689,22.6472093 L23.4768852,21.7186047 L22.6370492,18.5567442 L21.5737705,17.6511628 Z"/>
      <path fill="#261548" d="M11.1567213,18.4186047 C10.1011475,18.7869767 7.36590164,19.1476744 5.60147541,20.0762791 C3.83704918,21.0048837 8.35983607,42.2169767 8.26737705,45.1255814 C8.19803279,47.5123256 7.04229508,51.2113953 6.63393443,52.4546512 C6.60133519,52.5608869 6.61655805,52.6759808 6.67566809,52.7701825 C6.73477814,52.8643842 6.83197377,52.9284479 6.94213115,52.945814 C8.96081967,53.2297674 16.7659016,54.8106977 21.0113115,53.4216279 C22.467541,47.6197674 21.997541,36.8218605 21.997541,36.8218605 C21.997541,36.8218605 18.8693443,28.7637209 16.45,24.8881395 C14.96568,22.5185337 13.1872181,20.3448675 11.1567213,18.4186047 Z"/>
      <path fill="#30225B" d="M11.4340984,45.1102326 C11.9888525,45.9390698 17.3591803,46.6451163 18.1142623,45.7702326 C18.1693593,45.7017838 18.211166,45.6237065 18.237541,45.54 C18.237541,44.9951163 18.237541,44.642093 18.237541,44.642093 L11.5496721,43.982093 C11.5496721,43.982093 11.472623,44.3427907 11.372459,44.8876744 C11.377912,44.9652102 11.398869,45.0408784 11.4340984,45.1102326 Z"/>
      <path fill="#261548" d="M18.237541,45.7855814 C18.2003596,45.8737809 18.1510938,45.9564264 18.0911475,46.0311628 C17.3206557,46.8983721 11.9657377,46.2 11.4032787,45.3711628 C11.3580553,45.2981875 11.3267128,45.2175399 11.3108197,45.1332558 C11.002623,46.767907 10.5403279,49.6381395 10.9255738,50.2213953 C11.4803279,51.0502326 16.8506557,51.7562791 17.6057377,50.8813953 C18.137377,50.2751163 18.2298361,47.4125581 18.237541,45.7855814 Z"/>
      <path fill="#22485B" d="M21.7663934 37.5202326C21.7663934 37.8348837 21.5891803 38.095814 21.3657377 38.095814 21.1422951 38.095814 20.9727869 37.8348837 20.9727869 37.5202326 20.9727869 37.2055814 21.15 36.9446512 21.3657377 36.9446512 21.5814754 36.9446512 21.7663934 37.197907 21.7663934 37.5202326zM22.0129508 40.8432558C22.0129508 41.1655814 21.8280328 41.4188372 21.6122951 41.4188372 21.3965574 41.4188372 21.2116393 41.1655814 21.2116393 40.8432558 21.2116393 40.5209302 21.3888525 40.2676744 21.6122951 40.2676744 21.8357377 40.2676744 22.0129508 40.5286047 22.0129508 40.8432558z"/>
      <path fill="#261548" d="M12.4434426,16.9374419 L11.1567213,18.4186047 L13.1445902,22.6472093 L14.1539344,22.6472093 L13.5067213,24.182093 C13.5067213,24.182093 22.1285246,37.5509302 21.9821311,36.8602326 C21.0498361,31.7183721 17.952459,25.8551163 15.8181967,22.6855814 C14.5538659,20.8541877 13.4259294,18.9329998 12.4434426,16.9374419 Z"/>
      <path fill="#E0B885" d="M23.4614754,23.8827907 C23.4614754,24.0286047 23.3998361,24.1437209 23.3227869,24.1437209 C23.2457377,24.1437209 23.1840984,24.0286047 23.1840984,23.8827907 C23.1840984,23.7369767 23.2457377,23.6218605 23.3227869,23.6218605 C23.3998361,23.6218605 23.4614754,23.7369767 23.4614754,23.8827907 Z"/>
      <path fill="#FCCA97" d="M11.557377,38.095814 L11.1567213,30.8972093 C9.89311475,32.1711628 6.67245902,32.854186 5.41655738,32.432093 C5.41655738,32.432093 6.18704918,38.5102326 7.65868852,41.487907 C7.94377049,42.0634884 8.85295082,42.1325581 9.50016393,42.1402326 C9.50016393,42.1402326 22.2672131,44.4425581 24.8252459,44.1509302 C27.3832787,43.8593023 23.6463934,41.1655814 23.6463934,41.1655814 L11.557377,38.095814 Z"/>
      <path fill="#261548" d="M12.1429508,37.1134884 L11.6267213,26.2695349 C11.3570492,23.9134884 10.8022951,21.8644186 9.77754098,20.8974419 C6.69557377,17.9504651 2.58114754,20.6518605 3.72147541,26.2695349 C3.72147541,26.2695349 5.68622951,38.4872093 7.16557377,41.4648837 C7.45836066,42.0481395 8.35983607,42.1095349 9.00704918,42.1172093 C9.00704918,42.1172093 18.2529508,44.6497674 19.7939344,44.1048837 C20.5644262,43.8439535 20.4796721,40.0988372 20.4796721,40.0988372 L12.1429508,37.1134884 Z"/>
      <path fill="#EDF2F9" d="M43.9796721,38.9169767 L26.1504918,38.9169767 L23.4460656,30.4213953 C23.3995089,30.1857826 23.466358,29.9420466 23.6267153,29.7627354 C23.7870726,29.5834243 24.0224498,29.4892115 24.2627869,29.5081395 L45.8365574,29.5081395 C46.0768944,29.4892115 46.3122716,29.5834243 46.4726289,29.7627354 C46.6329862,29.9420466 46.6998354,30.1857826 46.6532787,30.4213953 L43.9796721,38.9169767 Z"/>
      <path fill="#FFF" d="M43.9796721,39.2162791 L26.1504918,39.2162791 L23.4460656,30.6976744 C23.3967158,30.4609119 23.4622841,30.2148298 23.6230077,30.0335988 C23.7837313,29.8523677 24.02081,29.7571869 24.2627869,29.7767442 L45.8365574,29.7767442 C46.0785342,29.7571869 46.315613,29.8523677 46.4763366,30.0335988 C46.6370602,30.2148298 46.7026285,30.4609119 46.6532787,30.6976744 L43.9796721,39.2162791 Z"/>
      <path fill="#FFF" d="M36.3595082,35.4097674 C36.3595082,35.824186 35.7431148,36.1772093 34.9803279,36.1772093 C34.217541,36.1772093 33.5934426,35.8395349 33.5934426,35.4097674 C33.5934426,34.98 34.2098361,34.6423256 34.9803279,34.6423256 C35.7508197,34.6423256 36.3595082,35.0030233 36.3595082,35.4097674 Z"/>
      <path fill="#C5C8C9" d="M25.4262295,40.0988372 L44.8811475,40.0988372 C45.1167771,40.1009051 45.3433596,40.0085858 45.5099813,39.8426237 C45.676603,39.6766615 45.7692893,39.4509759 45.7672473,39.2162791 L24.5247541,39.2162791 C24.5247181,39.4530318 24.6201836,39.6798717 24.789701,39.8458319 C24.9592184,40.011792 25.1885718,40.1029547 25.4262295,40.0988372 Z"/>
      <path fill="#CFDCE2" d="M26.9672131,40.0988372 L43.147541,40.0988372 C43.6369015,40.0988372 44.0336066,39.7037025 44.0336066,39.2162791 L26.0580327,39.2162791 C26.0579514,39.4543922 26.1544708,39.6824352 26.3256737,39.848625 C26.4968765,40.0148148 26.728235,40.1050489 26.9672131,40.0988372 Z"/>
      <path fill="#FCCA97" d="M31.2511475,40.0988372 L26.9672131,40.0988372 C26.671143,40.071089 26.4083195,39.8984847 26.2660656,39.6383721 C26.1896773,39.5115532 26.1571949,39.363265 26.1736066,39.2162791 L25.8191803,38.095814 L24.5709836,38.5255814 C24.4002775,38.5841224 24.2628699,38.7126067 24.1934426,38.8786047 L22.837377,42.1018605 L22.1670492,43.8976744 L24.5632787,44.1048837 C25.7021295,44.1331142 26.8347737,43.9294185 27.8918033,43.5062791 C28.6083607,43.467907 28.8163934,42.6160465 28.8163934,42.6160465 C28.8163934,42.4702326 29.2247541,42.1632558 29.3018033,42.0404651 L29.4790164,41.7488372 C29.590007,41.5673719 29.590007,41.3393723 29.4790164,41.157907 C30.0056102,41.1199928 30.5242941,41.0089172 31.02,40.827907 C31.5208197,40.3904651 31.2511475,40.0988372 31.2511475,40.0988372 Z"/>
      <path fill="#251547" d="M21.2578689,1.46581395 C20.2458978,0.849574678 19.0663597,0.562563314 17.8831148,0.644651163 L14.9937705,0.844186047 C14.4242983,0.893863251 13.8991397,1.17062503 13.537541,1.61162791 L12.3278689,3.06976744 C11.8198848,3.67649565 11.6977405,4.51625235 12.0119672,5.24162791 L14.6470492,7.11418605 L22.8527869,7.78953488 L24.7636066,9.66976744 L23.8852459,5.26465116 C23.5884789,3.68515762 22.6338033,2.30482386 21.2578689,1.46581395 Z"/>
      <path fill="#251547" d="M14.6393443,7.11418605 L12.0042623,5.24162791 L11.8578689,6.91465116 C11.8173452,7.40922444 11.8589971,7.90706878 11.9811475,8.38813953 C12.4434426,10.1916279 14.1077049,13.6604651 14.1539344,14.8883721 C14.2001639,16.1162791 14.7009836,13.1462791 14.7009836,13.1462791 L16.357541,10.8439535 L14.6393443,7.11418605 Z" opacity=".38"/>
      <path fill="#FCCA97" d="M22.8142623,7.78953488 L22.6832787,13.8676744 C22.6732996,14.0956634 22.5833183,14.3129364 22.4290164,14.4816279 L21.6585246,15.3027907 C21.0690006,15.9307906 20.1673514,16.1612978 19.3470492,15.8937209 L15.1093443,14.5506977 C14.7325719,14.4241928 14.4437155,14.119217 14.3388525,13.7372093 L13.6839344,11.4348837 L13.445082,11.4348837 C13.1582713,11.4617945 12.8747425,11.3573041 12.6745902,11.1509302 C12.5497496,11.0101415 12.4670053,10.8373322 12.4357377,10.652093 L12.127541,8.94837209 C12.0799699,8.75467467 12.1285795,8.55000409 12.2582395,8.39806678 C12.3878995,8.24612947 12.5828682,8.16537164 12.782459,8.18093023 C13.059253,8.19801493 13.2915261,8.39497822 13.352623,8.6644186 L13.7532787,10.4295349 L14.6547541,9.99209302 L14.6547541,7.08348837 C15.6563934,3.8372093 22.2672131,6.96837209 22.8142623,7.78953488 Z"/>
      <path fill="#251547" d="M20.302459,12.4325581 C20.7687174,12.5622163 21.2651507,12.5324942 21.712459,12.3481395 C22.09,12.1946512 22.7063934,13.2690698 22.7063934,13.2690698 C22.7290584,14.6481279 22.3862209,16.0087551 21.712459,17.2137209 C21.1189625,17.8350129 20.2215238,18.0644437 19.4009836,17.8046512 C19.4009836,17.8046512 14.9937705,16.7686047 14.385082,15.6481395 C13.7763934,14.5276744 13.6608197,11.404186 13.6608197,11.404186 L13.7147541,10.4602326 L14.6162295,10.0227907 C14.6162295,10.0227907 15.04,13.86 16.257377,13.86 C16.5655738,13.86 18.0063934,11.9644186 18.5688525,12.025814 C19.1543612,12.1267736 19.7332681,12.2625986 20.302459,12.4325581 Z"/>
    </g>
  </g>
</svg>
