<svg xmlns="http://www.w3.org/2000/svg" width="455" height="341" viewBox="0 0 455 341">
  <defs>
    <linearGradient id="store1-a" x1="-.237%" x2="99.52%" y1="96.643%" y2="7.004%">
      <stop offset="0%" stop-color="#9271C5"/>
      <stop offset="50%" stop-color="#734FB1"/>
      <stop offset="100%" stop-color="#512E9E"/>
    </linearGradient>
    <linearGradient id="store1-b" x1="-.284%" x2="99.55%" y1="95.095%" y2="8.365%">
      <stop offset="0%" stop-color="#9271C5"/>
      <stop offset="50%" stop-color="#734FB1"/>
      <stop offset="100%" stop-color="#512E9E"/>
    </linearGradient>
  </defs>
  <g fill="none" fill-rule="evenodd">
    <g opacity=".15" transform="translate(17 236)">
      <path fill="#8184C4" d="M31.9457005,38.8286538 C27.2608696,27.7068269 22.5356522,16.4615385 15.7204348,6.59490385 C13.4789855,3.33346154 10.0461353,-0.144038462 6.28009662,0.925961538 C2.82705314,1.90336538 1.44381643,6.07019231 1.06014493,9.75346154 C-0.767342995,26.8323077 7.11811594,43.4481731 16.6897101,57.6050962 C27.4076682,73.4789889 40.3940659,87.6311063 55.2184058,99.5923077 L57.964686,100.621154 C49.180628,79.7767308 40.7196618,59.6730769 31.9457005,38.8286538 Z" transform="translate(29.28)"/>
      <path fill="#575A8F" d="M47.0502415,85.2090385 C24.736715,62.7596154 9.32927536,31.8119231 2.25154589,0.905384615 C1.99913043,-0.205769231 0.363478261,0.411538462 0.61589372,1.50211538 C4.34990967,17.3485824 10.1855904,32.6026587 17.9618841,46.8433654 C25.847343,61.2472115 35.8631884,73.4081731 46.9896618,85.2913462 C46.9896618,85.2913462 47.090628,85.2913462 47.0502415,85.2090385 Z" transform="translate(35.338 10.288)"/>
      <path fill="#575A8F" d="M0.656280193,0.853942308 C3.37138624,4.49199899 6.9840517,7.33196718 11.1264734,9.08471154 C11.3068321,9.16741509 11.5167896,9.14578783 11.6772568,9.02797655 C11.837724,8.91016527 11.9243222,8.71406831 11.9044307,8.51355348 C11.8845392,8.31303865 11.76118,8.13856893 11.5808213,8.05586538 C7.64682381,6.32015883 4.18290247,3.64108739 1.4842029,0.246923077 C1.08033816,-0.2675 0.272608696,0.308653846 0.666376812,0.833365385 L0.656280193,0.853942308 Z" transform="translate(31.3 23.663)"/>
      <path fill="#575A8F" d="M1.00966184,0.555576923 C3.58429952,4.44461538 7.49169082,9.33163462 11.7827536,11.2761538 C11.8987222,11.3183696 12.0279007,11.2727666 12.093386,11.1664936 C12.1588713,11.0602205 12.1430589,10.9218469 12.0553623,10.83375 C10.4399034,9.13615385 8.36,7.87067308 6.63347826,6.26567308 C4.7039075,4.42968533 2.8832965,2.47828561 1.18130435,0.421826923 C1.09043478,0.318942308 0.918792271,0.421826923 1.00966184,0.555576923 Z" transform="translate(37.357 39.096)"/>
      <path fill="#575A8F" d="M0.292801932,0.843653846 C2.51592471,3.50313514 5.26944551,5.64960253 8.37009662,7.14019231 C8.79415459,7.35625 9.10714976,6.66692308 8.68309179,6.45086538 C5.70651327,4.91475381 2.96239132,2.95009369 0.535120773,0.617307692 C0.473782479,0.549121777 0.369813056,0.54451548 0.30289856,0.607019241 C0.235984064,0.669523002 0.23146365,0.77546792 0.292801932,0.843653846 Z" transform="translate(48.464 57.615)"/>
      <path fill="#575A8F" d="M2.38280193,1.20375 C2.25154589,6.58461538 2.22125604,11.3378846 0.767342995,16.5747115 C0.514927536,17.52125 1.95874396,17.7578846 2.22125604,16.8525 C3.66507246,11.9963462 4.48289855,5.99817308 3.23091787,1.00826923 C3.09966184,0.473269231 2.38280193,0.730480769 2.37270531,1.20375 L2.38280193,1.20375 Z" transform="translate(43.415 20.577)"/>
      <path fill="#575A8F" d="M0.565410628,0.306634615 C1.99973655,5.673152 2.22409605,11.3007826 1.22169082,16.7681731 C1.16592877,17.0948973 1.38064824,17.4058226 1.7012802,17.4626442 C2.02191216,17.5194658 2.32703982,17.3006665 2.38280193,16.9739423 C3.45534521,11.3368811 2.95871915,5.50647304 0.949082126,0.142019231 C0.910048667,0.034058183 0.792518007,-0.0212174305 0.686570048,0.0185576923 C0.58062209,0.0583328152 0.52637717,0.178096645 0.565410628,0.286057692 L0.565410628,0.306634615 Z" transform="translate(51.493 34.952)"/>
      <path fill="#575A8F" d="M0.383671498,0.709903846 C2.07990338,7.31509615 3.412657,13.0560577 2.71599034,19.9081731 C2.60492754,21.0399038 4.32135266,21.3588462 4.42231884,20.2271154 C5.0584058,13.6939423 4.42231884,6.11134615 1.13082126,0.318942308 C0.868309179,-0.144038462 0.272608696,0.318942308 0.383671498,0.709903846 Z" transform="translate(60.58 50.413)"/>
      <path fill="#8184C4" d="M76.9665217,45.3618269 L36.7617874,12.7268269 C32.0264734,8.88923077 27.2305797,5.01048077 21.6976329,2.53096154 C16.164686,0.0514423077 9.72304348,-0.925961538 4.03864734,1.22432692 C3.22370912,1.48712063 2.47563823,1.92973761 1.84768116,2.52067308 C0.0100966184,4.46519231 0.898599034,7.66490385 2.10009662,10.0826923 C11.6010145,29.1575 31.8952174,39.7854808 51.4927536,47.3269231 C63.2149275,51.8024038 75.8962802,55.6605769 88.0828986,52.7592308 C84.2173507,50.5527434 80.503344,48.081254 76.9665217,45.3618269 Z" transform="translate(0 48.356)"/>
      <path fill="#575A8F" d="M0.61589372,0.946538462 C10.025942,9.99009615 21.0211594,16.8936538 32.2183092,23.3959615 C44.6169565,30.5978846 57.0862802,37.6969231 69.4243478,45.0017308 C70.3835266,45.5778846 71.3225121,44.0551923 70.3431401,43.5099038 C58.3281643,36.7709615 46.4242512,29.82625 34.5001449,22.9329808 C22.8688406,16.2146154 11.2779227,9.45509615 1.34285024,0.216057692 C0.878405797,-0.226346154 0.141352657,0.452692308 0.61589372,0.905384615 L0.61589372,0.946538462 Z" transform="translate(6.058 54.529)"/>
      <path fill="#575A8F" d="M0.131256039,0.504134615 C4.3326264,2.04465355 8.609177,3.36332837 12.9438647,4.45490385 C13.9535266,4.69153846 14.4886473,3.14826923 13.4486957,2.83961538 C9.12259339,1.68189575 4.74179582,0.747882077 0.323091787,0.0411538462 C0.207706426,0.0280893315 0.0994397974,0.100253155 0.0649517174,0.213214016 C0.0304636374,0.326174877 0.0794454922,0.44819 0.18173913,0.504134615 L0.131256039,0.504134615 Z" transform="translate(9.087 64.817)"/>
      <path fill="#575A8F" d="M0.787536232,1.90336538 L9.37975845,3.08653846 C12.2068116,3.4775 15.1348309,4.11538462 17.9921739,3.91990385 C18.5373913,3.91990385 18.7797101,3.08653846 18.173913,2.89105769 C15.4924151,2.20992581 12.7476423,1.82021855 9.98555556,1.72846154 L0.838019324,0.843653846 C0.171642512,0.771634615 0.141352657,1.80048077 0.838019324,1.8725 L0.787536232,1.90336538 Z" transform="translate(24.232 76.135)"/>
      <path fill="#575A8F" d="M1.12072464,2.72644231 C3.60421896,2.35652591 6.1129523,2.19137483 8.62251208,2.23259615 C10.7024155,2.35605769 12.7924155,3.26144231 14.8319324,3.04538462 C15.397343,3.04538462 15.3569565,2.25317308 15.0136715,2.01653846 C13.2871498,0.607019231 10.0562319,0.565865385 7.94603865,0.607019231 C5.52272388,0.586749935 3.12547946,1.11748644 0.928888889,2.16057692 C0.595700483,2.32519231 0.807729469,2.78817308 1.14091787,2.75730769 L1.12072464,2.72644231 Z" transform="translate(44.425 87.452)"/>
      <path fill="#575A8F" d="M0.85821256,1.02884615 C1.96048706,3.62195064 2.87499217,6.29380242 3.59439614,9.02298077 C4.12951691,11.0806731 4.26077295,13.3955769 5.18966184,15.3400962 C5.25112759,15.4472816 5.37306572,15.5022868 5.49225712,15.4765942 C5.61144851,15.4509016 5.70108164,15.3502905 5.71468599,15.2269231 C5.96710145,12.7576923 4.92714976,10.1341346 4.21028986,7.78836538 C3.47153161,5.34245092 2.60535931,2.93839977 1.61545894,0.586442308 C1.40342995,0.0720192308 0.605797101,0.483557692 0.85821256,0.987692308 L0.85821256,1.02884615 Z" transform="translate(18.174 54.529)"/>
      <path fill="#575A8F" d="M1.00966184,1.10086538 C2.9684058,4.5475 4.68483092,8.58057692 7.16859903,11.6568269 C7.33014493,11.8625962 7.61285024,11.6568269 7.52198068,11.3996154 C5.98729469,7.7575 3.26120773,4.36230769 1.17120773,1.01855769 C1.11062802,0.915673077 0.949082126,1.01855769 1.00966184,1.10086538 Z" transform="translate(31.3 64.817)"/>
      <path fill="#575A8F" d="M0.848115942,1.38894231 C1.85777778,3.44663462 3.00879227,5.50432692 3.9578744,7.56201923 C4.79589372,9.39336538 5.34111111,11.4510577 6.82531401,12.84 C6.93486809,12.9496258 7.10135592,12.9746188 7.23728018,12.901844 C7.37320445,12.8290691 7.44745697,12.675182 7.42101449,12.5210577 C7.1484058,10.4633654 5.78536232,8.85836538 4.81608696,7.10932692 C3.69536232,5.11336538 2.6957971,2.99394231 1.63565217,0.997980769 C1.51298664,0.799486426 1.26184301,0.729353916 1.05700866,0.836393072 C0.852174309,0.943432227 0.761510412,1.19218121 0.848115942,1.40951923 L0.848115942,1.38894231 Z" transform="translate(45.435 73.048)"/>
      <path fill="#8184C4" d="M14.2261353,3.40548077 C12.3582609,0.925961538 8.8547343,-0.545288462 6.14884058,0.884807692 C3.66507246,2.19144231 2.71599034,5.25740385 2.11019324,8.08673077 C-2.93811594,33.2214423 6.01758454,62.1834615 13.9131401,86.5465385 L16.3161353,87.6679808 C18.5878744,62.5538462 20.8596135,37.1310577 17.1137681,12.2021154 C16.6998068,9.07442308 16.083913,5.87471154 14.2261353,3.40548077 Z" transform="translate(71.686 13.375)"/>
      <path fill="#575A8F" d="M6.29019324,69.2001923 C3.26120773,46.7404808 2.44338164,24.1881731 1.58516908,1.57413462 C1.58516908,0.823076923 0.393768116,0.771634615 0.444251208,1.52269231 C1.85777778,24.0647115 2.22125604,46.9668269 5.92671498,69.2722115 C5.92671498,69.5191346 6.32048309,69.4368269 6.29019324,69.2001923 Z" transform="translate(79.763 22.635)"/>
      <path fill="#575A8F" d="M0.908695652,1.32721154 L3.37227053,6.25538462 C3.96613546,7.76969354 4.77954877,9.18466616 5.78536232,10.4530769 C5.9134896,10.5795518 6.10671682,10.6081644 6.26487104,10.5240813 C6.42302526,10.4399982 6.51053321,10.262132 6.48202899,10.0826923 C6.03315315,8.51534449 5.3522089,7.02696611 4.46270531,5.66894231 L1.89816425,0.781923077 C1.73195021,0.538346835 1.41340195,0.459627621 1.15615541,0.59855886 C0.898908873,0.737490098 0.784004048,1.05030449 0.888502415,1.32721154 L0.908695652,1.32721154 Z" transform="translate(74.715 29.837)"/>
      <path fill="#575A8F" d="M0.413961353,0.720192308 C1.78710145,4.11538462 2.92801932,8.23076923 4.97763285,11.3173077 C5.04210252,11.4258166 5.17249497,11.4732675 5.28983419,11.4309202 C5.40717341,11.3885729 5.47919231,11.2680726 5.46227053,11.1424038 C5.12908213,7.43855769 2.82705314,3.51865385 0.908695652,0.452692308 C0.825466203,0.343454728 0.677801823,0.309898199 0.556910214,0.372749545 C0.436018606,0.435600891 0.376014828,0.57712375 0.413961353,0.709903846 L0.413961353,0.720192308 Z" transform="translate(75.725 43.212)"/>
      <path fill="#575A8F" d="M0.888502415,1.02884615 C1.07024155,3.08653846 2.04961353,5.14423077 2.70589372,7.05788462 C3.18855896,8.82629457 3.82375466,10.5477437 4.60405797,12.2021154 C4.66852765,12.3106243 4.79892009,12.3580752 4.91625931,12.3157279 C5.03359853,12.2733806 5.10561743,12.1528803 5.08869565,12.0272115 C4.70532144,9.96110871 4.14448404,7.93333882 3.412657,5.96730769 C3.02241382,4.15771099 2.41897241,2.40280718 1.61545894,0.740769231 C1.51868793,0.576119993 1.32104688,0.504352379 1.14390175,0.569536913 C0.966756622,0.634721447 0.859712571,0.818604794 0.888502415,1.00826923 L0.888502415,1.02884615 Z" transform="translate(76.734 58.644)"/>
      <path fill="#575A8F" d="M6.28009662,0.483557692 C4.73672349,2.2771902 3.47024084,4.29974062 2.52415459,6.48173077 C1.78710145,8.13817308 0.625990338,10.5971154 1.02985507,12.4181731 C1.06565818,12.5760308 1.19111414,12.696458 1.34788842,12.7234585 C1.5046627,12.750459 1.6619895,12.6787342 1.74671498,12.5416346 C2.75637681,11.0703846 2.9684058,8.72461538 3.63478261,7.00644231 C4.46733728,4.86335468 5.48079958,2.79791702 6.66376812,0.833365385 C6.81521739,0.576153846 6.45173913,0.226346154 6.23971014,0.473269231 L6.28009662,0.483557692 Z" transform="translate(80.773 39.096)"/>
      <path fill="#575A8F" d="M3.51362319,1.02884615 C2.75637681,3.25115385 2.13038647,5.46317308 1.49429952,7.72663462 C0.792577465,9.72234434 0.318289499,11.7936291 0.0807729469,13.8997115 C0.0807729469,14.3215385 0.686570048,14.5890385 0.898599034,14.1672115 C1.90826087,12.1815385 2.12028986,9.80490385 2.60492754,7.66490385 C3.08956522,5.52490385 3.54391304,3.31288462 3.88719807,1.09057692 C3.88719807,0.853942308 3.56410628,0.812788462 3.48333333,1.01855769 L3.51362319,1.02884615 Z" transform="translate(84.812 56.587)"/>
    </g>
    <g opacity=".15" transform="translate(381 252)">
      <path fill="#8184C4" d="M0.538153846,66.93 C1.55353846,58.16 2.96492308,51.65 9.48369231,45.36 C12.5298462,42.41 16.5913846,40.36 18.9775385,36.89 C21.912,32.7 22.1455385,26.89 26.1766154,23.58 C30.5021538,20.07 37.4473846,21.03 41.8947692,17.66 C45.0729231,15.26 46.2406154,11.24 48.5252308,8.05 C52.4979179,2.76751918 59.1222745,0.0970387703 65.7156923,1.12 C59.2273846,2.62 54.648,9.41 55.9273846,15.64 C56.7498462,19.64 59.6030769,23.27 59.2476923,27.31 C58.5572308,35.31 46.2101538,38.79 45.2556923,46.8 C45.0018462,48.98 46.6975385,51.36 45.7633846,53.36 C35.5283077,75.14 8.27538462,77.36 1.08646154,77.64 L0.538153846,66.93 Z"/>
      <path fill="#575A8F" d="M30.7966154,0.12 C24.3649339,6.04260574 18.644733,12.6726579 13.7483077,19.88 C9.05723077,26.81 5.74707692,34.16 1.92923077,41.51 C1.59415385,42.18 0.467076923,41.71 0.680307692,41.01 C5.68615385,25.23 18.0738462,10.92 30.7763077,0.1 C30.7763077,0.1 30.7763077,0.1 30.7763077,0.1 L30.7966154,0.12 Z" transform="translate(18.277 21)"/>
      <path fill="#575A8F" d="M10.956,1.26 C9.18209999,1.03811964 7.38074987,1.18113383 5.66584615,1.68 C3.86861538,2.23 2.61969231,3.34 0.995076923,4.09 C0.812307692,4.17 0.558461538,3.99 0.690461538,3.8 C2.72123077,0.97 7.79815385,0.46 10.9966154,0.97 C11.1692308,0.97 11.1286154,1.28 10.9966154,1.26 L10.956,1.26 Z" transform="translate(37.57 28)"/>
      <path fill="#575A8F" d="M14.0732308,1.08 C11.6344784,0.47049797 9.08367401,0.439652946 6.63046154,0.99 C4.38646154,1.52 2.64,2.71 0.649846154,3.73 C0.511641256,3.81006605 0.334794303,3.7788719 0.233397052,3.65654226 C0.131999801,3.53421262 0.136371727,3.35732611 0.243692308,3.24 C3.57415385,-0.18 9.75784615,-0.46 14.124,0.93 C14.1596176,0.948059508 14.1765483,0.988995975 14.16388,1.02642524 C14.1512116,1.0638545 14.1127273,1.08659918 14.0732308,1.08 Z" transform="translate(30.462 37)"/>
      <path fill="#575A8F" d="M17.7895385,1.77 C10.956,0.98 6.42738462,2.28 1.25907692,6.65 C0.954461538,6.91 0.406153846,6.57 0.66,6.21 C4.02092308,1.38 12.3166154,-0.95 17.9215385,1.46 C17.9828975,1.50151888 18.0103158,1.57710269 17.9895595,1.64751334 C17.9688032,1.71792399 17.9045492,1.76729652 17.8301538,1.77 L17.7895385,1.77 Z" transform="translate(22.338 48)"/>
      <path fill="#575A8F" d="M1.23876923,0.3 C3.99046154,3.17 2.97507692,8.85 0.314769231,11.46 C0.223384615,11.56 0.0406153846,11.46 0.121846154,11.31 C1.36366142,9.69363919 2.09468148,7.75292059 2.22369231,5.73 C2.28461538,3.73 1.48246154,2.29 0.893538462,0.49 C0.867484463,0.400705066 0.907300187,0.305498503 0.989651773,0.260175772 C1.07200336,0.214853041 1.1752023,0.231350552 1.23876923,0.3 Z" transform="translate(34.523 25)"/>
      <path fill="#575A8F" d="M2.18307692,0.74 C3.59446154,4.44 3.44215385,9.37 1.16769231,12.74 C1.056,12.9 0.751384615,12.8 0.812307692,12.6 C2.14246154,8.47 2.73138462,5.14 1.82769231,0.83 C1.81955739,0.738776987 1.87865019,0.654818096 1.96824095,0.630308837 C2.05783172,0.605799578 2.15242727,0.647714099 2.19323077,0.73 L2.18307692,0.74 Z" transform="translate(28.43 31)"/>
      <path fill="#575A8F" d="M1.35046154,0.82 C3.66785247,5.97524318 3.60117664,11.8669055 1.16769231,16.97 C0.954461538,17.45 0.152307692,17.24 0.335076923,16.75 C2.55876923,11.55 2.43692308,6.37 0.852923077,1.02 C0.781846154,0.75 1.22861538,0.55 1.35046154,0.82 Z" transform="translate(21.323 38)"/>
    </g>
    <path fill="#FFF" d="M158.700599,325.939065 L10.3730539,325.939065 C4.63595106,325.911118 -6.83928163e-05,321.263278 0,315.539564 L0,11.1713396 C0.0167051428,5.45951532 4.64784419,0.830170868 10.3730539,0.802305296 L158.700599,0.802305296 C164.447346,0.80226164 169.112304,5.43811523 169.134731,11.1713396 L169.134731,315.539564 C169.129112,321.284692 164.459238,325.939068 158.700599,325.939065 Z" transform="translate(211)"/>
    <rect width="168.616" height="246.987" x=".967" y=".723" fill="#E0E3FD" transform="translate(211 37)"/>
    <path fill="#F0F1F1" d="M24.2019231,12.44 C24.2019231,19.1336912 18.9843184,24.56 12.5480769,24.56 C6.11183542,24.56 0.894230769,19.1336912 0.894230769,12.44 C0.894230769,5.74630883 6.11183542,0.32 12.5480769,0.32 C15.6388691,0.32 18.6030705,1.59692491 20.7885906,3.86986581 C22.9741107,6.14280672 24.2019231,9.22557614 24.2019231,12.44 Z" transform="translate(281 293)"/>
    <path fill="#FFF" d="M15,0.802305296 L29,0.802305296 C25.0005353,0.802305296 21.1648783,2.41583382 18.3368297,5.28793301 C15.5087812,8.16003219 13.92,12.0554346 13.92,16.1171963 L13.92,310.63433 C13.9255203,319.088545 20.6754497,325.939067 29,325.939065 L15,325.939065 C6.70441855,325.899932 -8.94938987e-05,319.059217 0,310.63433 L0,16.1171963 C-0.000116758296,7.69064279 6.70280491,0.847008497 15,0.802305296 Z" opacity=".1" transform="translate(211)"/>
    <rect width="31.84" height="2.64" x=".23" y=".62" fill="#191C3C" transform="translate(273 21)"/>
    <rect width="7.048" height="2.64" x=".256" y=".62" fill="#191C3C" transform="translate(310 21)"/>
    <polygon fill="#FFF" points="69.24 106.408 .32 106.408 .32 .738 69.24 .738 69.24 106.408" transform="translate(219 50)"/>
    <rect width="56.128" height="64.936" x=".967" y=".896" fill="#B093D8" transform="translate(227 58)"/>
    <polygon fill="#F0F1F1" points="61.868 3.48 .447 3.48 .447 .368 61.868 .368 61.868 3.48" transform="translate(223 128)"/>
    <polygon fill="#F0F1F1" points="61.868 3.4 .447 3.4 .447 .288 61.868 .288 61.868 3.4" transform="translate(223 136)"/>
    <polygon fill="#F0F1F1" points="32.637 3.32 .484 3.32 .484 .208 32.637 .208 32.637 3.32" transform="translate(223 145)"/>
    <polygon fill="#FFF" points="69.16 106.408 .24 106.408 .24 .738 69.16 .738 69.16 106.408" transform="translate(298 50)"/>
    <rect width="56.128" height="64.936" x=".895" y=".896" fill="#734FB1" transform="translate(306 58)"/>
    <polygon fill="#F0F1F1" points="61.787 3.48 .376 3.48 .376 .368 61.787 .368 61.787 3.48" transform="translate(302 128)"/>
    <polygon fill="#F0F1F1" points="61.787 3.4 .376 3.4 .376 .288 61.787 .288 61.787 3.4" transform="translate(302 136)"/>
    <polygon fill="#F0F1F1" points="32.56 3.32 .407 3.32 .407 .208 32.56 .208 32.56 3.32" transform="translate(302 145)"/>
    <polygon fill="#FFF" points="69.36 106.304 .44 106.304 .44 .623 69.36 .623 69.36 106.294" transform="translate(228 165)"/>
    <rect width="57.13" height="64.936" x=".072" y=".798" fill="#734FB1" transform="translate(232 169)"/>
    <polygon fill="#F0F1F1" points="61.98 3.392 .569 3.392 .569 .28 61.98 .28 61.98 3.392" transform="translate(232 244)"/>
    <polygon fill="#F0F1F1" points="61.98 3.32 .569 3.32 .569 .2 61.98 .2 61.98 3.312" transform="translate(232 252)"/>
    <polygon fill="#F0F1F1" points="32.769 3.24 .616 3.24 .616 .128 32.769 .128 32.769 3.24" transform="translate(228 260)"/>
    <polygon fill="#FFF" points="69.28 106.304 .36 106.304 .36 .623 69.28 .623 69.28 106.294" transform="translate(306 165)"/>
    <rect width="57.13" height="64.936" y=".798" fill="#B093D8" transform="translate(314 169)"/>
    <polygon fill="#F0F1F1" points="61.909 3.392 .498 3.392 .498 .28 61.909 .28 61.909 3.392" transform="translate(310 244)"/>
    <polygon fill="#F0F1F1" points="61.909 3.32 .498 3.32 .498 .2 61.909 .2 61.909 3.312" transform="translate(310 252)"/>
    <polygon fill="#F0F1F1" points="32.681 3.24 .539 3.24 .539 .128 32.681 .128 32.681 3.24" transform="translate(306 260)"/>
    <path fill="#FFF" d="M107.496416,136 L265.4933,136 C266.423335,136 267.315278,136.368097 267.972911,137.023315 C268.630545,137.678533 269,138.567199 269,139.493816 L269,334 L104,334 L104,139.463079 C104.01689,137.549499 105.575714,136.005538 107.496416,136 Z"/>
    <rect width="66" height="66" x="116" y="182" fill="#F0F1F1"/>
    <rect width="128" height="70" x="116" y="260" fill="#F0F1F1"/>
    <path fill="url(#store1-a)" d="M264,161 L264,141.760464 C264,138.579048 261.440591,136 258.2834,136 L104.7166,136 C101.559409,136 99,138.579048 99,141.760464 L99,161 L264,161 Z"/>
    <path fill="#FFF" d="M120 148.999942C120 150.617767 119.025446 152.076291 117.53077 152.695406 116.036094 153.314521 114.315648 152.972303 113.171673 151.828327 112.027697 150.684352 111.685479 148.963906 112.304594 147.46923 112.923709 145.974554 114.382233 145 116.000058 145 118.209165 145 120 146.790835 120 148.999942zM132 149C132 151.209139 130.209139 153 128 153 125.790861 153 124 151.209139 124 149 124 146.790861 125.790861 145 128 145 130.209139 145 132 146.790861 132 149z"/>
    <path fill="#FFF" d="M139.999981,148.987539 C140.005004,150.607614 139.032296,152.070729 137.536497,152.693028 C136.040699,153.315327 134.317244,152.973899 133.171673,151.828327 C132.026101,150.682756 131.684673,148.959301 132.306972,147.463503 C132.929271,145.967704 134.392386,144.994996 136.012461,145.000019 C137.070017,145.000019 138.084258,145.420132 138.832063,146.167937 C139.579868,146.915742 139.999981,147.929983 139.999981,148.987539 Z"/>
    <path fill="#414042" d="M263.729858,136 L257,136 C258.397729,136 259.73821,136.600182 260.726553,137.668514 C261.714897,138.736845 262.270142,140.185814 262.270142,141.696662 L262.270142,334 L269,334 L269,141.696662 C269,140.185814 268.444754,138.736845 267.456411,137.668514 C266.468068,136.600182 265.127586,136 263.729858,136 Z" opacity=".2"/>
    <rect width="66" height="4" x="190" y="186" fill="#F0F1F1"/>
    <rect width="66" height="4" x="190" y="198" fill="#F0F1F1"/>
    <rect width="66" height="4" x="190" y="211" fill="#F0F1F1"/>
    <rect width="66" height="4" x="190" y="223" fill="#F0F1F1"/>
    <rect width="33" height="4" x="190" y="231" fill="#F0F1F1"/>
    <path fill="#FFF" d="M62,59.4373333 L59.055,43.4826667 C65.2379688,29.7404699 60.4208471,13.5427493 47.7331497,5.41259499 C35.0454522,-2.71755931 18.3166607,-0.326252372 8.41488337,11.0329677 C-1.48689398,22.3921877 -1.57303968,39.2908088 8.21241209,50.7503903 C17.9978639,62.2099718 34.7014058,64.7717099 47.4713333,56.7713333 L62,59.4373333 Z" transform="translate(54 50)"/>
    <path fill="#F76341" d="M0.74,8.21153846 C0.690168913,5.04326809 2.66590694,2.16976849 5.71713006,0.97283523 C8.76835319,-0.224098033 12.2707088,0.50045595 14.54,2.79807692 C17.635556,-0.26604122 22.7283169,-0.337072901 25.9149999,2.63942322 C29.1016828,5.61591934 29.1755559,10.5128048 26.08,13.5769231 L14.57,24.5865385 L2.77,13.3365385 C2.64,13.1923077 2.31,12.7884615 2.31,12.7884615 C1.29029866,11.4639138 0.739943741,9.85949837 0.74,8.21153846 Z" transform="translate(70 70)"/>
    <polygon fill="#B093D8" points="62 281 8.906 274.55 8 198 61.615 198"/>
    <polygon fill="#525D7A" points="41.797 278.653 62 281 61.596 198 41 198" opacity=".25"/>
    <polygon fill="#B093D8" points="90.555 281 45.873 275.01 45 178 99 178 99 254.94"/>
    <path fill="#E0E3FD" fill-rule="nonzero" d="M94.2767812,285 L6.00217275,274.02497 C3.30458271,273.701122 1.24565052,271.451921 1.15338709,268.728101 L0.00282778354,227.507333 C-0.0877052624,224.652961 2.00570067,222.199987 4.83106774,221.849782 L120,207 L94.2767812,285 Z M116.784598,209.669045 L5.13925327,224.096314 C3.42943826,224.294502 2.16149408,225.782173 2.23203644,227.507333 L3.38259575,268.64566 C3.42783703,270.278805 4.66181082,271.630792 6.27953973,271.819659 L92.7461264,282.567975 L116.784598,209.669045 Z"/>
    <polygon fill="#E0E3FD" points="10.549 222.567 12.758 222.566 12.755 273.409 10.546 273.409" transform="rotate(-1.146 11.652 247.988)"/>
    <polygon fill="#E0E3FD" points="24.312 224.891 26.521 224.891 26.518 275.723 24.309 275.723" transform="rotate(-1 25.415 250.307)"/>
    <polygon fill="#E0E3FD" points="25.251 220.975 27.46 220.975 27.456 275.674 25.247 275.674" transform="rotate(-1.146 26.353 248.324)"/>
    <polygon fill="#E0E3FD" points="38.717 218.553 40.926 218.553 40.923 277.097 38.715 277.097" transform="rotate(-.87 39.82 247.825)"/>
    <polygon fill="#E0E3FD" points="53.113 217.041 55.321 217.041 55.319 278.476 53.11 278.477" transform="rotate(-.83 54.216 247.759)"/>
    <polygon fill="#E0E3FD" points="67.503 215.52 69.712 215.52 69.709 280.811 67.501 280.811" transform="rotate(-.78 68.606 248.165)"/>
    <polygon fill="#E0E3FD" points="95.431 211.249 97.64 211.249 97.637 275.156 95.428 275.156" transform="rotate(-.8 96.534 243.202)"/>
    <polygon fill="#E0E3FD" points="81.913 213.035 84.122 213.035 84.119 282.192 81.911 282.192" transform="rotate(-.74 83.016 247.613)"/>
    <polygon fill="#E0E3FD" points="1.803 224.846 116.028 224.804 116.028 227.029 1.802 227.072" transform="rotate(-7.4 58.915 225.938)"/>
    <rect width="103" height="4" x="4" y="244" fill="#E0E3FD"/>
    <polygon fill="#E0E3FD" points="48.9 218.239 51.125 218.239 51.093 312.78 48.868 312.781" transform="rotate(-83.44 49.997 265.51)"/>
    <path fill="#E0E3FD" d="M90.4699764,297 L87,295.786916 L116.078014,202.451444 C116.9017,199.787335 119.25022,197.989723 121.893617,198.000044 L128,198 L128,201.865463 L121.893617,201.865463 C120.827803,201.866022 119.882364,202.591161 119.547991,203.664528 L90.4699764,297 Z"/>
    <polygon fill="#E0E3FD" points="112 322 108.266 322 108.266 318.765 87.366 300.859 16.734 312.889 16.734 321.914 13 321.914 13 309.855 88.496 297 112 317.132"/>
    <path fill="#E0E3FD" d="M139.999991 201.991289C140.003494 203.609896 139.031164 205.071073 137.536769 205.692916 136.042375 206.314759 134.32051 205.974682 133.174739 204.831392 132.028968 203.688102 131.685161 201.966981 132.303765 200.471243 132.922369 198.975506 134.381437 198.000013 136.00005 198.000009 137.060103 197.99771 138.077527 198.417203 138.827911 199.165963 139.578296 199.914722 139.999993 200.931234 139.999991 201.991289zM94.9999943 297.488152C95.0033425 300.927094 93.5436357 304.030054 91.3018894 305.349368 89.0601431 306.668683 86.4781179 305.944366 84.7604387 303.514343 83.0427596 301.08432 82.527914 297.427454 83.4560993 294.249828 84.3842847 291.072202 86.572592 289.000003 89.0000824 289 92.310513 288.999996 94.9954281 292.798379 94.9999943 297.488152z"/>
    <path fill="#E0E3FD" d="M95 297C95 299.209139 93.209139 301 91 301 88.790861 301 87 299.209139 87 297 87 294.790861 88.790861 293 91 293 92.060866 293 93.0782816 293.421427 93.8284271 294.171573 94.5785726 294.921718 95 295.939134 95 297zM120 326.5C120 331.19442 117.313708 335 114 335 110.686292 335 108 331.19442 108 326.5 108 321.80558 110.686292 318 114 318 117.313708 318 120 321.80558 120 326.5zM20 326.499883C19.9999977 329.938828 18.5372688 333.03893 16.2942389 334.353859 14.051209 335.668789 11.4698915 334.939424 9.75458131 332.506045 8.03927112 330.072666 7.5279888 326.414797 8.45926939 323.23899 9.39054998 320.063183 11.5808745 317.995265 14.008363 318.000008 17.318791 318.006477 20.0000031 321.810107 20 326.499883z"/>
    <path fill="#E0E3FD" d="M16.994852 330C14.7868917 329.994436 12.9999927 328.23834 13 326.074012L13 318 21 318 21 326.074012C21 328.242275 19.2068342 330 16.994852 330zM111.994852 330C109.786892 329.994436 107.999993 328.23834 108 326.074012L108 318 116 318 116 326.074012C116 328.242275 114.206834 330 111.994852 330z"/>
    <path fill="#E0E3FD" d="M16,324 C16,325.104569 15.1045695,326 14,326 C12.8954305,326 12,325.104569 12,324 C12,322.895431 12.8954305,322 14,322 C14.530433,322 15.0391408,322.210714 15.4142136,322.585786 C15.7892863,322.960859 16,323.469567 16,324 Z"/>
    <circle cx="114" cy="324" r="2" fill="#E0E3FD"/>
    <path fill="#FFF" d="M0.905614035,55.6596491 L3.65298246,40.7933333 C-2.07473139,28.0146293 2.42087152,12.968484 14.2201206,5.42662063 C26.0193697,-2.11524272 41.5625173,0.122501262 50.7550618,10.6865491 C59.9476063,21.250597 60.0162239,36.9538523 50.9163508,47.5978314 C41.8164778,58.2418106 26.2934796,60.6153025 14.4287719,53.1768421 L0.905614035,55.6596491 Z" transform="translate(397 21)"/>
    <path fill="#56408B" d="M224.945805,315.633857 L221.360446,311.513578 L219.920174,312.780564 L219.920174,314.840703 L218.296037,312.924774 L218.633122,312.656956 L183.811217,258.279575 L176.589426,217.076787 C180.570951,213.965745 182.907559,209.177176 182.922539,204.097909 L182.922539,200.389658 C183.279784,200.125666 183.620895,199.840161 183.944008,199.5347 L184.189161,199.287483 C184.536116,198.938185 184.860261,198.566581 185.159557,198.175008 L183.014471,183.352305 C181.25658,175.9497 181.013286,168.263464 182.299442,160.762876 L184.710111,146.723026 C184.891974,145.703664 184.936641,144.664221 184.842902,143.632817 C184.761184,142.674852 184.587534,141.716887 184.424099,140.542607 C184.424099,140.542607 184.424099,140.4293 184.362811,140.264489 C184.168732,139.512538 183.637567,137.411196 183.280053,136 L181.655916,136 C181.604843,136 181.584413,136 181.543554,136.051503 L147.947413,136.051503 L146.711435,141.75809 C146.537898,142.56035 146.445493,143.37829 146.435638,144.199355 L147.058735,170.455832 L147.058735,170.847258 L129.520098,192.313911 L125.434219,191.685569 C124.340488,191.499913 123.228217,191.888022 122.482172,192.715638 L120,195.538029 L120,198.082302 L121.920363,200.266049 L125.526152,196.629903 L129.734607,197.567267 L130.449636,200.266049 L130.030833,202.480699 L131.052303,202.480699 L133.69791,198.607637 L135.495697,196.547498 L145.383524,188.131828 L143.902393,203.933097 C144.923863,203.644678 145.894259,203.407762 146.864655,203.191447 L146.864655,212.369368 L155.567578,261.421288 L162.717866,319.888045 L164.505438,319.888045 L164.505438,323.112163 L160.480847,319.888045 L158.713705,323.596296 L151.992434,327.150036 L142.390618,328.468526 C141.404987,328.603847 140.508828,329.11656 139.888017,329.900323 C139.747071,330.069005 139.623836,330.251961 139.520288,330.446259 C139.417155,330.631352 139.328363,330.824206 139.254705,331.023099 C139.250081,331.074496 139.250081,331.126211 139.254705,331.177609 C139.199701,331.335793 139.155337,331.497538 139.121914,331.661742 C139.080803,331.889444 139.060289,332.120443 139.060626,332.351888 L139.060626,333.917594 L180.532299,333.917594 L180.532299,319.888045 L178.928592,319.888045 L177.018443,323.276974 L175.179798,323.276974 L175.179798,319.918947 L176.385132,319.918947 L172.840632,274.698887 L176.538352,280.879305 L210.338787,319.239101 L211.155963,318.610759 L213.290835,321.134429 L212.575806,321.73187 L205.84432,319.96015 L205.84432,324.801477 L200.736972,329.27198 L193.709259,330.775882 C192.999313,330.781448 192.31196,331.02822 191.758252,331.476329 C191.561589,331.63007 191.383335,331.806368 191.227088,332.001665 C191.051517,332.205629 190.906936,332.43474 190.798071,332.681511 L190.205618,334 L211.656483,334 L228,319.146395 L225.017308,315.705962 L224.945805,315.633857 Z" opacity=".2"/>
    <rect width="8" height="8" x="174" y="318" fill="#FFF"/>
    <polygon fill="#FFF" points="220.386 315.811 229.446 315.798 229.432 325.713 220.372 325.726" transform="rotate(139.461 224.91 320.762)"/>
    <polygon fill="#302386" points="184.604 215 193.23 262.881 228 315.706 219.7 322 185.96 284.726 174 265.433"/>
    <polygon fill="#525D7A" points="185.894 285 184.542 266.214 186 223.514 183.976 211 174 263.955 185.252 284.212" opacity=".25"/>
    <path fill="#302386" d="M157,203.302764 L157,216.741138 L165.885455,264.788618 L173.281259,322 L187.265097,322 L182.701729,266.482276 L184.359228,223.828293 C184.366876,223.526734 184.548998,223.254483 184.831301,223.122602 C190.457978,220.369334 194.000763,214.814473 193.999999,208.746667 L193.999999,204.835122 C194.000845,202.32211 193.054237,199.8939 191.335412,198 L157,203.302764 Z"/>
    <polygon fill="#525D7A" points="161.095 216.602 161.095 210 157.272 210.535 157 216.602 166.226 264.713 173.905 322 178 322 170.321 264.713" opacity=".25"/>
    <path fill="#623FE9" d="M170.216995 318L168.469951 322.486111 161.825123 326.810673 152.332512 328.401316C150.424552 328.723923 149.00224 330.728754 149 333.098684L149 335 190 335 190 318 188.414532 318 186.51601 322.08845 174.195813 321.88962 170.216995 318zM199 335L199.580471 333.757339C200.085842 332.671871 201.206999 331.973827 202.442791 331.975229L209.338382 330.616972 214.34244 326.436239 214.34244 321.908716 220.937787 323.565596 228.153638 317.833945 228.153638 315.204128 229.564782 314 236 321.099541 219.987016 334.990367 199 335z"/>
    <path fill="#56408B" d="M151.453941 332.913043L149.858374 331C149.303515 331.686956 149.00025 332.547169 149 333.434783L149 335 190 335 190 331 188.101478 332.913043 151.453941 332.913043zM233.08 314L232.63 317.850394 219.06 333.145669 201.27 333.145669 200.52 332.106299C200.115694 332.464316 199.792748 332.93502 199.58 333.476378L199 335 220 335 236 317.968504 233.08 314z"/>
    <rect width="12" height="12" x="162" y="112" fill="#FFF"/>
    <path fill="#525D7A" d="M157,112 L157,120 L157.104257,120 C162.227582,119.429401 166.525539,116.872235 168.332754,113.319352 L169,112.007626 L157,112 Z" opacity=".15"/>
    <path fill="#FFE1BA" d="M154.909961,88.615452 C154.909961,88.615452 146.685927,91.6677253 148.022333,100.336597 L146.583127,104.489349 L145.400922,106.129687 C145.14056,106.499732 145.000463,106.942326 145,107.396276 L145,108.091862 C145,109.003529 145.731803,109.742582 146.634527,109.742582 L148.690535,109.742582 L148.690535,114.445574 C148.696193,117.510763 151.155236,119.994168 154.190358,119.999881 L158.908898,119.999881 C164.022956,120.02097 168.745843,117.23866 171.244949,112.732564 L174,107.707733 L171.337469,88.6673614 C171.337469,88.6673614 161.077987,84.9506477 154.909961,88.615452 Z"/>
    <path fill="#525D7A" d="M22.31,1.72826087 L21.79,1.54347826 C21.610308,1.54373708 21.4316159,1.51441926 21.26,1.45652174 C21.1797481,1.41871378 21.1054986,1.36735543 21.04,1.30434783 C18.18,0.434782609 11.04,-1.2826087 6.32,1.72826087 C3.856441,2.83692238 1.80927987,4.81698357 0.51,7.34782609 C1.32636169,7.3891203 2.14443891,7.33445548 2.95,7.18478261 C4.36,6.92391304 8.53,5.43478261 9.68,6.85869565 C10.34,7.66304348 9.34,9.13043478 9.16,9.9673913 C8.87,11.3586957 9.79,12.8695652 9.79,14.25 C10.14,16.7391304 10.63,16.8695652 10.71,19.3804348 L12.23,19.3804348 C12.45,17.9673913 12.45,18.5434783 13.28,17.423913 C14.0926011,16.2427505 15.4627136,15.6826897 16.79,15.9891304 C18.5234055,16.5425249 19.7335592,18.2437554 19.79,20.2065217 C19.72,25.0108696 23.04,25.076087 23.15,24.8695652 L24.93,21.6956522 L22.31,1.72826087 Z" opacity=".15" transform="translate(149 87)"/>
    <path fill="#865422" d="M177.434326,90.6419408 C177.735724,89.8502711 177.926355,89.0148889 178,88.1630485 C177.830165,86.6263847 176.757993,85.3833144 175.346474,85.086566 C174.317976,84.8099039 172.908933,85.4074941 172.003855,85.086566 C171.098776,84.765638 171.150201,83.8692528 170.697662,83.1167319 C169.556029,81.2132967 167.385898,81.1026319 165.462606,81.1579643 C163.143155,81.3410683 160.839722,81.7109874 158.571667,82.2646127 C156.939759,82.618741 155.279071,82.7966872 153.614305,82.7958039 C152.074293,82.8277852 150.538512,82.6114338 149.058058,82.1539479 C147.559856,81.6678774 146.32298,80.5219711 145.653729,79 C144.95435,81.722355 144.62523,84.7103056 145.653729,87.3219957 C147.052486,90.89647 150.035131,91.4940601 153.202906,90.9186029 C154.663374,90.6530073 158.941927,89.1368991 160.1247,90.5866084 C160.803508,91.4055282 159.77501,92.8995035 159.58988,93.7516228 C159.419408,95.0978229 159.395247,96.4608067 159.517886,97.8130223 C159.87786,100.347247 160.721229,102.79294 160.803508,105.349298 L162.377111,105.349298 C162.522579,103.887692 163.018782,102.491909 163.817008,101.298965 C164.652767,100.096404 166.061926,99.5261964 167.427038,99.8381888 C168.576962,100.290281 169.438728,101.333955 169.720589,102.615876 C169.98615,103.876589 170.021083,105.18087 169.823439,106.455946 C169.615071,107.477558 169.668393,108.540872 169.977713,109.532429 C170.646237,111.081736 172.415254,111.590794 173.958002,111.933855 C174.268083,112.022048 174.594139,112.022048 174.90422,111.933855 C175.531604,111.723592 175.747589,110.915739 175.881294,110.218551 C176.570387,106.566611 177.681166,102.649076 177.681166,98.9086042 C177.670881,96.1198503 176.745232,93.2978969 177.434326,90.6419408 Z"/>
    <path fill="#7866A2" d="M177.433874,90.7482234 C177.735513,89.9493263 177.926296,89.1063176 178,88.2467005 C177.83003,86.696008 176.757001,85.4415895 175.344354,85.142132 C174.315034,84.8629442 172.904866,85.4659898 171.999064,85.142132 C171.093263,84.8182741 171.144729,83.9137056 170.691828,83.1543147 C169.549283,81.2335025 167.377417,81.1218274 165.452589,81.177665 C163.131285,81.3624405 160.826012,81.7357367 158.556145,82.2944162 C156.922933,82.6517775 155.260917,82.8313482 153.594822,82.8304569 C152.053579,82.8627301 150.516571,82.6444036 149.034934,82.1827411 C147.535535,81.6922332 146.297671,80.5358656 145.627885,79 C145.305836,80.2368289 145.095549,81.5047395 145,82.7857868 C145.735134,83.98327 146.824242,84.873422 148.08796,85.3096447 C149.569132,85.7727538 151.106865,85.9874172 152.647848,85.9461929 C154.314191,85.9526054 155.976719,85.7729793 157.60917,85.4101523 C159.879976,84.8569122 162.184876,84.4836763 164.505614,84.293401 C166.430443,84.293401 168.622895,84.293401 169.744853,86.2700508 C170.197754,87.0294416 170.197754,87.9116751 171.05209,88.257868 C171.906425,88.6040609 173.36806,88.0233503 174.39738,88.257868 C175.801321,88.5870838 176.851653,89.8572528 177.00156,91.4071066 C176.929131,92.2633484 176.738283,93.1028775 176.435434,93.8974619 C175.745789,96.5888325 176.672177,99.4812183 176.661884,102.228426 C176.497861,105.53292 176.007851,108.808822 175.20025,112 C175.546231,111.578603 175.765302,111.052591 175.828135,110.492386 C176.517779,106.807107 177.629445,102.853807 177.629445,99.0791878 C177.670618,96.2761421 176.74423,93.4284264 177.433874,90.7482234 Z"/>
    <path fill="#525D7A" d="M193.999999,206.022983 L193.999999,201.646888 C194.000845,198.83542 193.054237,196.118827 191.335412,194 L157,199.932541 L157,208.244866 C173.31273,204.455258 185.733484,215.192481 193.506946,209.068204 C193.538417,208.628339 193.999999,206.507963 193.999999,206.022983 Z" opacity=".25"/>
    <path fill="#623FE9" d="M174.48587,116 L177.941497,120.498673 L182.59643,123.719199 C189.477194,128.952555 190.544373,130.874806 191.80466,139.368945 C191.80466,139.469586 193.26822,145.01493 193.278384,145.105508 C193.603619,147.420261 193.959346,148.869498 193.562965,151.143995 L191.154189,164.891617 C189.874437,172.216587 190.116519,179.723032 191.865642,186.952223 L194,201.434528 C186.458602,211.136364 171.985622,201.555298 153,207 L156.110064,174.341849 L155.490084,148.688343 C155.4999,147.88281 155.591839,147.080317 155.764502,146.293077 L160.287308,125.701836 L174.48587,116 Z"/>
    <path fill="#8165ED" d="M192.857759,188.540706 C191.126901,181.149667 190.887347,173.475167 192.153736,165.986205 L194.527299,151.951379 C194.91954,149.605382 194.527299,148.1237 194.24569,145.777702 C194.24569,145.685097 192.807471,140.015604 192.787356,139.912709 C191.54023,131.228403 190.484195,129.263116 183.675287,123.912596 L179.099138,120.599389 L175.70977,116 L174,117.203867 L177.208333,121.566599 L181.814655,124.859227 C188.623563,130.209747 189.679598,132.175034 190.926724,140.85934 C190.926724,140.962234 192.375,146.631728 192.385057,146.724333 C192.706897,149.090909 193.058908,150.572592 192.666667,152.89801 L190.293103,166.932836 C189.021612,174.421432 189.261199,182.096995 190.997126,189.487336 L193.109195,204.293872 C192.316692,205.368736 191.33837,206.285927 190.222701,207 C192.1268,206.270138 193.785273,204.994913 195,203.326662 L192.857759,188.540706 Z"/>
    <path fill="#FFE1BA" d="M162.825103,158.399436 L161.425926,165.841397 L137.598765,196.325233 L133.483539,195.663484 C132.382611,195.476126 131.265961,195.883552 130.510288,196.748319 L128,199.720764 L128,202.400304 L129.934156,204.700152 L133.565844,200.870688 L137.804527,201.857887 L138.524691,204.700152 L138.041152,207 L139.131687,207 L141.796296,202.910176 L143.606996,200.740508 L162.36214,184.066609 L174.975309,173.706444 L178,157 L162.825103,158.399436 Z"/>
    <polygon fill="#525D7A" points="37.084 1.223 34.686 14.287 22.119 24.447 4.1 42.298 1.302 47.681 .82 49.936 1.907 49.936 4.551 45.926 6.365 43.809 25.01 27.447 37.577 17.287 40.59 .904" opacity=".15" transform="translate(137 157)"/>
    <polygon fill="#623FE9" points="165.647 132 161 161 180.202 161 186 140.005 184.97 132"/>
    <path fill="#525D7A" d="M178.366698,145.664821 L174,161 L179.264733,161 L186,140 C182.401818,140.083018 179.292851,142.390243 178.366698,145.664821 Z" opacity=".15"/>
    <path fill="url(#store1-b)" d="M385,25 L384.999665,5.76045627 C385.034474,2.64326341 382.352504,0.0777682396 378.97768,0 L217.02232,0 C213.647496,0.0777682396 210.965526,2.64326341 211.000335,5.76045627 L211,25 L385,25 Z"/>
    <path fill="#FFF" d="M230.999554 12.1297844C230.928413 14.3206107 229.106914 16.0460984 226.914979 15.9990607 224.723045 15.9520231 222.977276 14.149984 223.000224 11.9581235 223.023172 9.76626294 224.806287 8.00115428 226.998726 8 229.242895 8.03878612 231.032419 9.88599056 230.999554 12.1297844zM239.999547 12.1298407C239.928276 14.3237209 238.101968 16.0503193 235.907075 15.9988799 233.712183 15.9474404 231.968799 14.1371829 232.000424 11.9423735 232.032048 9.74756407 233.826864 7.98826578 236.022327 8.00005894 238.257213 8.05164192 240.032541 9.89506997 239.999547 12.1298407zM251.999554 12.1297844C251.928413 14.3206107 250.106914 16.0460984 247.914979 15.9990607 245.723045 15.9520231 243.977276 14.149984 244.000224 11.9581235 244.023172 9.76626294 245.806287 8.00115428 247.998726 8 250.242895 8.03878612 252.032419 9.88599056 251.999554 12.1297844z"/>
    <path fill="#525D7A" d="M15.961,0.802305296 L0.561,0.802305296 C4.96041113,0.802305296 9.17963384,2.41583382 12.2904873,5.28793301 C15.4013407,8.16003219 17.149,12.0554346 17.149,16.1171963 L17.149,310.63433 C17.1429277,319.088545 9.71800538,325.939067 0.561,325.939065 L15.961,325.939065 C25.1162243,325.939065 32.538,319.086902 32.538,310.63433 L32.538,16.1171963 C32.538002,7.66298002 25.1180034,0.80791154 15.961,0.802305296 Z" opacity=".1" transform="translate(347)"/>
    <g transform="translate(331 78)">
      <path fill="#C5A384" d="M52.0372418,31.1472297 C51.6883083,29.6279567 50.6725761,28.3455521 49.2709384,27.6546551 L51.1561229,26.1023997 C50.3322973,26.1204677 49.5136259,26.2370399 48.7176777,26.4496148 C47.9359135,26.7270907 47.1785648,27.0686666 46.4534071,27.4708354 C45.3366401,28.0222946 44.7423971,28.1039922 44.1891364,29.278396 C43.6358758,30.4527997 43.0108961,31.7497499 42.4268987,32.9854269 C42.1502542,33.524294 41.917279,34.0843457 41.7302,34.6602288 C41.5067045,35.5149097 41.3795563,36.3917732 41.351114,37.2745536 L41.1974305,39.4803902 C40.9963412,40.9607455 41.201708,42.4677472 41.7916734,43.8410024 C42.2732152,45.2502869 42.7445113,47.2620915 43.9944706,48.1607657 C45.2444868,49.2219232 46.8030161,49.8554749 48.4410473,49.9683263 C48.7997067,49.9933494 49.1574061,49.9077811 49.4656042,49.7232333 C49.751273,49.4955792 49.9706039,49.1958628 50.1008294,48.8551958 C52.0065051,44.7703132 52.1499431,40.1952447 52.3138722,35.7222982 C52.4533137,34.1920915 52.3600515,32.6496683 52.0372418,31.1472297 Z"/>
      <path fill="#C5A384" d="M13.483168,40.4199132 L6.14734103,30.4527997 C5.55848506,29.6407662 5.16577548,28.7041282 4.99983737,27.7159284 L0.409822735,0.0816976518 L6.82354854,0.0816976518 L13.862254,22.8549181 C14.3641064,24.4662059 15.3123657,25.9034331 16.5978208,27.0010739 L22.3455846,31.902933 L13.483168,40.4199132 Z" transform="translate(2.05 19.403)"/>
      <path fill="#C5A384" d="M17.7965523,0.479973704 L25.1733615,10.8045144 C26.9013526,13.2181221 27.0418693,16.4194749 25.5319564,18.9742796 L4.30313872,55.0233685 L0.204911368,50.0602361 L13.9237274,20.5163228 C15.1529922,17.8968281 14.7538156,14.8053259 12.8991706,12.5814384 L6.53667263,5.02440558 L17.7965523,0.479973704 Z" transform="translate(74.793 81.698)"/>
      <path fill="#5361F0" d="M4.09822735,0.398276052 L0.727435355,7.02599805 L0.727435355,14.542182 L8.68824199,19.2602214 C9.8449945,17.6037292 9.57176741,15.3459643 8.05301675,14.0111473 L7.45877378,13.4801125 L7.45877378,7.02599805 L4.09822735,0.398276052 Z" transform="translate(71.719 129.695)"/>
      <rect width="8.545" height="7.128" x=".102" y=".5" fill="#5361F0" transform="rotate(180 40.234 128.653)"/>
      <path fill="#2E35A8" d="M8.95462677,5.40225722 L2.04911368,5.40225722 L0.747926492,9.30332009 L0.747926492,11.1721539 C0.74519947,11.6695665 0.941532592,12.1475394 1.29344787,12.5002255 C1.64536315,12.8529116 2.1238205,13.0512073 2.62286551,13.0511999 L9.86648235,13.0511999 L17.5404131,10.1611454 L17.5404131,8.8437708 C17.5399468,6.68114715 16.4999412,4.6496775 14.7433729,3.38024034 L10.7373557,0.490185911 L10.7373557,5.10610324 L8.95462677,5.40225722 Z" transform="translate(69.67 249.178)"/>
      <path fill="#191C3C" d="M2.58188323,3.3087549 L9.82550008,3.3087549 L17.3559928,0.469761498 C17.439661,0.873283826 17.4876576,1.28334351 17.4994308,1.69522627 L17.4994308,3.06366194 L9.82550008,5.95371637 L2.58188323,5.95371637 C2.08283823,5.9537238 1.60438088,5.75542815 1.2524656,5.40274202 C0.900550319,5.05005588 0.704217197,4.57208295 0.706944219,4.07467038 L0.706944219,2.2058366 L0.788908766,1.93010702 C1.00922081,2.73812481 1.74185386,3.30145854 2.58188323,3.3087549 Z" transform="translate(69.67 256.326)"/>
      <rect width="8.545" height="7.128" x=".717" y=".49" fill="#5361F0" transform="translate(26.638 249.178)"/>
      <path fill="#191C3C" d="M4.41583997,0.765915485 C4.41583997,0.765915485 2.5921288,13.1533219 1.17824036,25.1220279 C0.870926254,27.7182889 0.716977258,30.3303098 0.717189787,32.9445781 L0.717189567,115.724724 L9.22101155,115.724724 C9.22101155,115.724724 15.8191576,86.8854527 17.1510815,67.6660801 C17.555974,62.5696361 18.3436756,57.5106251 19.5075622,52.5315901 L28.5236624,12.2546478 L28.5236624,2.39986852 L4.41583997,0.765915485 Z" transform="translate(26.638 135.822)"/>
      <path fill="#191C3C" d="M24.4766629,1.87904599 C24.4766629,1.87904599 26.3925842,12.5712262 27.8269637,24.6522664 C28.0112631,26.1737881 28.1036398,27.7049762 28.1035941,29.2375471 L28.1035941,113.682282 L19.5690356,113.835466 C19.5690356,113.835466 12.2639454,86.1399616 11.3725809,65.0109064 C11.1568237,61.6537268 10.6633604,58.3200327 9.89721906,55.0437929 L0.307367052,22.5281275 L0.307367052,0.367639433 L24.4766629,1.87904599 Z" transform="translate(52.252 137.865)"/>
      <path fill="#2E35A8" d="M8.60627744,5.40225722 L15.5527728,5.40225722 L16.85396,9.30332009 L16.85396,11.1721539 C16.856687,11.6695665 16.6603539,12.1475394 16.3084386,12.5002255 C15.9565233,12.8529116 15.478066,13.0512073 14.979021,13.0511999 L7.73540413,13.0511999 L0.0614734103,10.2122065 L0.0614734103,8.89483184 C0.0619396744,6.73220818 1.10194526,4.70073854 2.85851358,3.43130137 L6.86453082,0.541246943 L6.86453082,5.10610324 L8.60627744,5.40225722 Z" transform="translate(20.491 249.178)"/>
      <path fill="#191C3C" d="M14.979021,3.3087549 L7.73540413,3.3087549 L0.204911368,0.469761498 C0.121243202,0.873283826 0.0732466178,1.28334351 0.0614734103,1.69522627 L0.0614734103,3.06366194 L7.73540413,5.95371637 L14.979021,5.95371637 C15.478066,5.9537238 15.9565233,5.75542815 16.3084386,5.40274202 C16.6603539,5.05005588 16.856687,4.57208295 16.85396,4.07467038 L16.85396,2.2058366 L16.7719954,1.93010702 C16.5516834,2.73812481 15.8190504,3.30145854 14.979021,3.3087549 Z" transform="translate(20.491 256.326)"/>
      <path fill="#2E35A8" d="M47.4779639,7.14854453 L57.0473248,10.1100844 C60.543252,11.1962244 63.6796901,13.2039243 66.1248984,15.9208299 L80.9399902,32.2909969 L66.7191413,40.5833085 L61.6680761,33.2203076 C61.6680761,33.2203076 60.6435193,77.3881006 63.0409823,92.6859859 C63.0409823,92.6859859 33.8616035,104.521933 14.6101805,92.6859859 C14.6101805,92.6859859 21.8435518,53.716206 15.9113677,34.374287 L0.706944219,10.2734797 L10.0509026,0.745491072 L24.5996097,8.25146283 L27.9294194,7.0974835 L47.4779639,7.14854453 Z" transform="translate(14.344 50.04)"/>
      <path fill="#C5A384" d="M1.88518458,17.7283904 L0.860627744,12.7039848 C0.711560563,11.9885588 0.971814954,11.2496421 1.53683526,10.78409 L4.09822735,8.65995109 L6.07562205,8.65995109 C6.07562205,8.65995109 5.05106521,3.23726945 5.45064238,0.0306366194 L6.07562205,0.0306366194 L9.51813303,11.5397933 L9.51813303,18.1573031 L8.38087494,20.5673838 L2.91998699,20.5673838 L1.88518458,17.7283904 Z"/>
      <path fill="#C5A384" d="M0.266384778,8.16976518 C0.266384778,8.16976518 4.36461213,5.10610324 4.36461213,0.52082253 L16.6592942,0.52082253 C16.6592942,0.52082253 16.8949423,6.87281495 19.845666,8.16976518 L0.266384778,8.16976518 Z" transform="translate(42.007 49.019)"/>
      <path fill="#1E1E1E" d="M25.9725159,15.8187078 C25.8860932,14.4489748 25.9930072,13.0739304 26.2901285,11.7338252 C26.5008001,9.79521623 26.0612537,7.84165398 25.0401691,6.17838491 C24.2274306,4.72914969 23.1380025,3.45245926 21.8333062,2.42029293 C19.1489673,0.439124878 15.3376159,-1.45022883e-14 11.7824036,0.0408488259 C10.7017739,0.00509951132 9.62241907,0.143027748 8.58578631,0.449337085 C7.79687754,0.725066659 7.10017889,1.17440374 6.28053342,1.38886008 C5.7375183,1.53183097 5.16376647,1.5726798 4.62075134,1.68501407 C3.87940251,1.84479683 3.16273121,2.10237051 2.48967312,2.45092955 C1.78025636,2.73307665 1.1406005,3.16509332 0.614734103,3.71724316 C0.0777737871,4.27168477 0.00910856051,5.12720523 0.450805009,5.75968445 C0.942592291,6.38262904 1.55732639,6.26008257 2.28476175,6.45411449 C3.71914132,6.84217834 5.97316637,7.8838234 6.26004228,9.25225906 C6.48544479,10.2734797 5.63506261,11.2947004 4.83590828,12.1014647 C4.03675394,12.908229 3.1761262,13.8886008 3.4015287,14.9404581 C3.42401679,15.1152682 3.51638084,15.2736171 3.65766791,15.3795829 C3.96503497,15.5838271 4.41583997,15.4408562 4.80517157,15.4919172 C5.26229403,15.5690861 5.62914583,15.910634 5.7375183,16.3599548 C6.08586762,17.7998759 5.67604489,19.239797 5.88095625,20.6592937 C6.26759883,22.2212053 6.96435532,23.6900468 7.93006993,24.979057 C8.81197539,26.8097951 10.4695953,28.151055 12.4483656,28.6350269 C15.1167632,29.5200469 17.9047233,29.9952461 20.7165393,30.0443114 C25.8393235,30.1157969 24.6918198,26.1943096 26.2696373,23.4165894 C26.701325,22.8217563 27.0785126,22.189461 27.3966499,21.5273312 C28.0523662,19.6584975 26.3208652,17.7794515 25.9725159,15.8187078 Z" transform="translate(42.007 22.467)"/>
    </g>
    <g fill="#F76341" transform="translate(410 37)">
      <path d="M18.3247059,22.5785714 C15.7526471,22.5785714 13.1902941,22.5785714 10.6279412,22.5785714 C9.88667826,22.7242426 9.17324373,22.2074776 9.02647059,21.4185714 C7.90058824,17.6485714 6.73911765,13.892381 5.54205882,10.15 C4.92470768,8.18053254 4.20867643,6.24786813 3.39705882,4.36035714 C3.22235294,3.94607143 2.42647059,3.6975 1.83441176,3.65607143 C0.388235294,3.54214286 -0.106764706,3.08642857 0.165,1.65714286 C0.329829772,1.15020144 0.718414745,0.762669801 1.20352941,0.621428571 C2.3263978,0.497105801 3.45830808,0.497105801 4.58117647,0.621428571 C5.01366642,0.728561291 5.37342065,1.04719297 5.55176471,1.48107143 C7.33764706,6.97035714 9.08470588,12.4769048 10.7929412,18.0007143 C11.1229412,19.0364286 11.5694118,19.6785714 12.7341176,19.6267857 C14.2773529,19.5439286 15.8302941,19.6267857 17.3735294,19.5646429 C19.7805882,19.5128571 22.2264706,19.4817857 24.5655882,19.3160714 C24.9344118,19.3160714 25.4002941,18.6014286 25.5361765,18.125 C27.0211765,13.7439286 28.4479412,9.33178571 29.9135294,4.94035714 C29.9896304,4.44665788 30.2911418,4.02582333 30.7176534,3.81800127 C31.1441649,3.61017922 31.6396565,3.64266604 32.0391176,3.90464286 C32.3812681,3.98777427 32.6654843,4.2405907 32.8037134,4.58476741 C32.9419426,4.92894412 32.9174937,5.32292186 32.7379412,5.64464286 C31.6702941,8.61714286 30.6802941,11.6207143 29.6805882,14.6242857 C28.9332353,16.8821429 28.1858824,19.1503571 27.5258824,21.4392857 C27.4606589,21.7885148 27.2665176,22.0950609 26.9871841,22.2898823 C26.7078506,22.4847037 26.3668133,22.5514182 26.0408824,22.475 C23.4494118,22.5578571 20.8870588,22.5785714 18.3247059,22.5785714 Z"/>
      <path d="M18.315 16.385C16.2961765 14.4585714 14.4326471 12.5010714 12.375 10.7610714 10.4300313 9.10471619 9.93972765 6.16502592 11.2297059 3.89428571 11.6962873 2.80040528 12.5850385 1.97665527 13.6653513 1.63677764 14.7456641 1.29690001 15.9110486 1.47439758 16.8591176 2.12321429 17.6228803 2.72456035 18.6699733 2.70331791 19.4117647 2.07142857 22.1682353.403928571 25.2352941 2.32 25.6429412 5.85178571 25.9821141 7.62176796 25.3453435 9.44314336 24.0026471 10.5435714 22.6438235 11.6725 21.285 12.8014286 20.0135294 14.0546429 19.3793147 14.7721326 18.810571 15.5524406 18.315 16.385zM11.2491176 23.8214286C12.3211998 23.8214286 13.1902941 24.7488387 13.1902941 25.8928571 13.1902941 27.0368756 12.3211998 27.9642857 11.2491176 27.9642857 10.1636345 27.9642857 9.28367647 27.0252829 9.28367647 25.8669643 9.28367647 24.7086456 10.1636345 23.7696429 11.2491176 23.7696429L11.2491176 23.8214286zM25.2352941 23.8214286C25.7603767 23.8211764 26.2631573 24.0479252 26.6289198 24.4499394 26.9946824 24.8519536 27.1922231 25.3949367 27.1764706 25.955 27.1764706 27.1161787 26.2943399 28.0575 25.2061765 28.0575 24.1180131 28.0575 23.2358824 27.1161787 23.2358824 25.955 23.2195731 25.3839841 23.424983 24.8311312 23.8035388 24.4271745 24.1820946 24.0232178 24.7001839 23.804025 25.2352941 23.8214286z"/>
    </g>
  </g>
</svg>
