<svg xmlns="http://www.w3.org/2000/svg" width="290" height="452" viewBox="0 0 290 452">
  <defs>
    <linearGradient id="svg-layer-a" x1="32.338%" x2="142.272%" y1="32.021%" y2="139.064%">
      <stop offset="0%" stop-color="#3023AE"/>
      <stop offset="100%" stop-color="#D428E8"/>
    </linearGradient>
    <linearGradient id="svg-layer-b" x1="49.987%" x2="49.987%" y1="100.011%" y2="-.02%">
      <stop offset="0%" stop-color="#CACFE5"/>
      <stop offset="38%" stop-color="#E5E8F2"/>
      <stop offset="74%" stop-color="#F8F9FC"/>
      <stop offset="99%" stop-color="#FFF"/>
    </linearGradient>
    <linearGradient id="svg-layer-c" x1="0%" x2="85.613%" y1="0%" y2="89.677%">
      <stop offset="0%" stop-color="#3023AE"/>
      <stop offset="100%" stop-color="#C86DD7"/>
    </linearGradient>
    <linearGradient id="svg-layer-d" x1="49.999%" x2="49.999%" y1="27.702%" y2="94.189%">
      <stop offset="1%" stop-color="#FFF" stop-opacity="0"/>
      <stop offset="100%" stop-color="#FFF"/>
    </linearGradient>
  </defs>
  <g fill="none" fill-rule="evenodd">
    <path fill="url(#svg-layer-a)" d="M144.922,273.222 L8.018,352.357 C-1.972,358.147 -1.972,372.68 8.018,378.47 L126.873,447.045 C138.116981,453.516533 151.955019,453.516533 163.199,447.045 L281.94,378.47 C291.93,372.68 291.93,358.147 281.94,352.357 L144.922,273.222 Z"/>
    <path fill="url(#svg-layer-b)" fill-rule="nonzero" d="M144.922,232.287 L275.697,307.675 C276.605,308.129 276.945,308.924 276.945,309.945 C276.945,310.968 276.491,311.649 275.697,312.216 L156.955,380.792 C153.323,382.836 149.236,383.971 145.035,383.971 C140.835,383.971 136.749,382.836 133.116,380.792 L14.148,312.216 C13.24,311.762 12.9,310.968 12.9,309.946 C12.9,308.924 13.354,308.243 14.148,307.675 L144.922,232.287 Z M144.922,217.868 L8.018,296.89 C-1.972,302.68 -2.085,317.213 8.018,323.003 L126.873,391.579 C132.388889,394.784347 138.656406,396.468982 145.036,396.461 C151.415594,396.468982 157.683111,394.784347 163.199,391.579 L281.94,323.003 C291.93,317.213 291.93,302.68 281.94,296.89 L144.922,217.87 L144.922,217.868 Z" opacity=".345"/>
    <path fill="url(#svg-layer-c)" d="M7.905,227.24 C-2.085,233.03 -2.085,247.563 7.905,253.354 L126.759,321.929 C138.002981,328.400533 151.841019,328.400533 163.085,321.929 L281.827,253.354 C291.817,247.564 291.817,233.031 281.827,227.24 L162.972,158.665 C151.728019,152.193467 137.889981,152.193467 126.646,158.665 L7.905,227.24 Z"/>
    <polygon fill="#FFF" points="181.135 231.1 144.922 252.559 123.808 240.297 160.02 218.952 144.922 210.21 92.817 240.297 144.922 270.384 197.028 240.297"/>
    <polygon fill="url(#svg-layer-d)" points="144.922 270.384 92.25 239.956 56.831 84.072 144.355 32.186 233.013 84.072 197.595 239.956" opacity=".247"/>
    <g fill="#FFF" opacity=".87" transform="translate(97)">
      <ellipse cx="2.014" cy="177.011" opacity=".5" rx="1.128" ry="1.13"/>
      <ellipse cx="95.103" cy="132.956" opacity=".5" rx="1.128" ry="1.13"/>
      <circle cx="60.688" cy="214.289" r="1"/>
      <ellipse cx="79.87" cy="80.429" opacity=".2" rx="1.128" ry="1.13"/>
      <ellipse cx="55.61" cy="170.234" rx="1.128" ry="1.13"/>
      <ellipse cx="47.148" cy="1.356" opacity=".1" rx="1.128" ry="1.13"/>
      <ellipse cx="44.327" cy="128.438" opacity=".5" rx="1.128" ry="1.13"/>
    </g>
  </g>
</svg>
